<svg width="24" height="24" viewBox="0 0 24 24" fill="none" xmlns="http://www.w3.org/2000/svg">
<mask id="path-1-inside-1_76_118" fill="white">
<rect x="8.5" y="8" width="12" height="14" rx="1"/>
</mask>
<rect x="8.5" y="8" width="12" height="14" rx="1" fill="white" stroke="#2F2F2F" stroke-width="3" mask="url(#path-1-inside-1_76_118)"/>
<path d="M9.5 12H19.5" stroke="#2F2F2F" stroke-width="1.5" stroke-linecap="round"/>
<path d="M12.5 12V20.5" stroke="#2F2F2F" stroke-width="1.5" stroke-linecap="round"/>
<path d="M16.5 12V21" stroke="#2F2F2F" stroke-width="1.5" stroke-linecap="round"/>
<path d="M9.5 16H19.5" stroke="#2F2F2F" stroke-width="1.5" stroke-linecap="round"/>
<circle cx="9.5" cy="8" r="5.25" fill="white" stroke="#2F2F2F" stroke-width="1.5" stroke-linecap="round"/>
<path d="M11.5 8.97021C11.5 9.31489 11.3569 9.60851 11.0707 9.85106C10.7892 10.0894 10.379 10.234 9.83989 10.2851V11H9.25313V10.2915C8.90012 10.2702 8.56619 10.2128 8.25134 10.1191C7.93649 10.0255 7.68605 9.90638 7.5 9.7617L7.822 9.11702C7.99851 9.24468 8.21318 9.35319 8.46601 9.44255C8.71884 9.52766 8.98122 9.58085 9.25313 9.60213V8.32553C8.91443 8.25319 8.63059 8.17447 8.40161 8.08936C8.1774 8 7.98897 7.87234 7.83631 7.70638C7.68366 7.53617 7.60733 7.31277 7.60733 7.03617C7.60733 6.69149 7.74806 6.39787 8.02952 6.15532C8.31097 5.91277 8.71884 5.76809 9.25313 5.72128V5H9.83989V5.70851C10.107 5.72128 10.367 5.7617 10.6199 5.82979C10.8775 5.89787 11.1017 5.98723 11.2925 6.09787L10.9991 6.74255C10.6366 6.55532 10.2501 6.44043 9.83989 6.39787V7.68723C10.1834 7.75957 10.4672 7.8383 10.6914 7.9234C10.9204 8.00851 11.1112 8.13617 11.2639 8.30638C11.4213 8.47234 11.5 8.69362 11.5 8.97021ZM8.53041 6.99787C8.53041 7.1383 8.59243 7.25106 8.71646 7.33617C8.84049 7.42128 9.01938 7.49362 9.25313 7.55319V6.41702C9.00984 6.45106 8.82856 6.51915 8.7093 6.62128C8.59004 6.7234 8.53041 6.84894 8.53041 6.99787ZM9.83989 9.58936C10.0927 9.55532 10.2788 9.48936 10.398 9.39149C10.5221 9.29362 10.5841 9.17234 10.5841 9.02766C10.5841 8.88298 10.5197 8.76808 10.3909 8.68298C10.2621 8.59362 10.0784 8.51915 9.83989 8.45957V9.58936Z" fill="#2F2F2F"/>
</svg>
