<svg width="24" height="24" viewBox="0 0 24 24" fill="none" xmlns="http://www.w3.org/2000/svg">
<path fill-rule="evenodd" clip-rule="evenodd" d="M17.4311 11.9829C17.4087 9.3096 19.619 8.01026 19.7161 7.95052C18.4616 6.12847 16.52 5.87458 15.8405 5.85217C14.2126 5.68042 12.6295 6.83041 11.8006 6.83041C10.9568 6.83041 9.6724 5.87458 8.29839 5.89698C6.52861 5.92685 4.86337 6.94989 3.95981 8.54792C2.08548 11.7963 3.48189 16.5754 5.28155 19.204C6.18511 20.4884 7.23055 21.9296 8.61202 21.8773C9.95616 21.825 10.464 21.0185 12.0844 21.0185C13.6974 21.0185 14.1678 21.8773 15.5717 21.8474C17.0204 21.825 17.9239 20.5556 18.7976 19.2562C19.8356 17.7851 20.2538 16.329 20.2687 16.2543C20.2314 16.2394 17.4609 15.179 17.4311 11.9829Z" fill="#2F2F2F"/>
<path fill-rule="evenodd" clip-rule="evenodd" d="M14.7801 4.3408C15.5045 3.43724 15.9973 2.20511 15.8629 0.950577C14.8175 0.995381 13.5032 1.67492 12.749 2.56354C12.0844 3.34763 11.487 4.62456 11.6363 5.82682C12.8162 5.91643 14.0259 5.22942 14.7801 4.3408Z" fill="#2F2F2F"/>
</svg>
