<svg width="24" height="24" viewBox="0 0 24 24" fill="none" xmlns="http://www.w3.org/2000/svg">
<path fill-rule="evenodd" clip-rule="evenodd" d="M13.6625 18.7393C13.6625 19.9879 13.4003 21 11.9125 21C10.4039 21 10.1625 19.9879 10.1625 18.7393H13.6625ZM11.9941 5.87057C14.8412 5.87057 17.1493 8.04592 17.1493 10.7293V14.6163C17.1493 15.9189 19.6985 16.1376 18.8132 17.0101C17.9049 17.9051 13.7405 17.9946 12.1449 17.9995L11.9941 17.9997C10.5372 17.9997 6.12827 17.926 5.19071 17.0101C4.29616 16.1362 6.83901 15.9265 6.83901 14.6163V10.7293C6.83901 8.04592 9.14704 5.87057 11.9941 5.87057ZM12.0967 4C12.8749 4 13.5058 4.60729 13.5058 5.35641H10.6875C10.6875 4.60729 11.3184 4 12.0967 4Z" stroke="#2F2F2F" stroke-width="1.5" stroke-linecap="round" stroke-linejoin="round"/>
</svg>
