<svg width="24" height="24" viewBox="0 0 24 24" fill="none" xmlns="http://www.w3.org/2000/svg">
<path fill-rule="evenodd" clip-rule="evenodd" d="M6.44982 3C6.86404 3 7.19982 3.33579 7.19982 3.75V5.74973H16.8002V3.75C16.8002 3.33579 17.136 3 17.5502 3C17.9644 3 18.3002 3.33579 18.3002 3.75V5.74973H20.2506C21.2171 5.74973 22.0006 6.53323 22.0006 7.49973V10.1666V19.2504C22.0006 20.2169 21.2171 21.0004 20.2506 21.0004H3.75C2.7835 21.0004 2 20.2169 2 19.2504V10.1666V7.49973C2 6.53323 2.7835 5.74973 3.75 5.74973H5.69982V3.75C5.69982 3.33579 6.03561 3 6.44982 3ZM17.5253 7.24973C17.5336 7.25 17.5419 7.25013 17.5502 7.25013C17.5585 7.25013 17.5668 7.25 17.575 7.24973H20.2506C20.3887 7.24973 20.5006 7.36166 20.5006 7.49973V9.41658H3.5V7.49973C3.5 7.36166 3.61193 7.24973 3.75 7.24973H6.42499C6.43323 7.25 6.44151 7.25013 6.44982 7.25013C6.45813 7.25013 6.46641 7.25 6.47466 7.24973H17.5253ZM20.5006 10.9166H3.5V19.2504C3.5 19.3885 3.61193 19.5004 3.75 19.5004H20.2506C20.3887 19.5004 20.5006 19.3885 20.5006 19.2504V10.9166ZM6.45013 11.7088C6.03591 11.7088 5.70013 12.0445 5.70013 12.4588C5.70013 12.873 6.03591 13.2088 6.45013 13.2088H6.54315C6.95736 13.2088 7.29315 12.873 7.29315 12.4588C7.29315 12.0445 6.95736 11.7088 6.54315 11.7088H6.45013ZM9.31742 11.7088C8.90321 11.7088 8.56742 12.0445 8.56742 12.4588C8.56742 12.873 8.90321 13.2088 9.31742 13.2088H9.41045C9.82466 13.2088 10.1604 12.873 10.1604 12.4588C10.1604 12.0445 9.82466 11.7088 9.41045 11.7088H9.31742ZM17.1702 15.2085C17.1702 14.7943 17.506 14.4585 17.9202 14.4585H18.0132C18.4274 14.4585 18.7632 14.7943 18.7632 15.2085C18.7632 15.6227 18.4274 15.9585 18.0132 15.9585H17.9202C17.506 15.9585 17.1702 15.6227 17.1702 15.2085ZM12.185 11.7088C11.7708 11.7088 11.435 12.0445 11.435 12.4588C11.435 12.873 11.7708 13.2088 12.185 13.2088H12.278C12.6923 13.2088 13.028 12.873 13.028 12.4588C13.028 12.0445 12.6923 11.7088 12.278 11.7088H12.185ZM14.3026 12.4588C14.3026 12.0445 14.6384 11.7088 15.0526 11.7088H15.1456C15.5598 11.7088 15.8956 12.0445 15.8956 12.4588C15.8956 12.873 15.5598 13.2088 15.1456 13.2088H15.0526C14.6384 13.2088 14.3026 12.873 14.3026 12.4588ZM17.9202 11.7088C17.506 11.7088 17.1702 12.0445 17.1702 12.4588C17.1702 12.873 17.506 13.2088 17.9202 13.2088H18.0132C18.4274 13.2088 18.7632 12.873 18.7632 12.4588C18.7632 12.0445 18.4274 11.7088 18.0132 11.7088H17.9202ZM5.70013 15.2085C5.70013 14.7943 6.03591 14.4585 6.45013 14.4585H6.54315C6.95736 14.4585 7.29315 14.7943 7.29315 15.2085C7.29315 15.6227 6.95736 15.9585 6.54315 15.9585H6.45013C6.03591 15.9585 5.70013 15.6227 5.70013 15.2085ZM9.31743 14.4585C8.90321 14.4585 8.56743 14.7943 8.56743 15.2085C8.56743 15.6227 8.90321 15.9585 9.31743 15.9585H9.41045C9.82467 15.9585 10.1605 15.6227 10.1605 15.2085C10.1605 14.7943 9.82467 14.4585 9.41045 14.4585H9.31743ZM11.435 15.2085C11.435 14.7943 11.7708 14.4585 12.185 14.4585H12.278C12.6922 14.4585 13.028 14.7943 13.028 15.2085C13.028 15.6227 12.6922 15.9585 12.278 15.9585H12.185C11.7708 15.9585 11.435 15.6227 11.435 15.2085ZM15.0526 14.4585C14.6384 14.4585 14.3026 14.7943 14.3026 15.2085C14.3026 15.6227 14.6384 15.9585 15.0526 15.9585H15.1456C15.5598 15.9585 15.8956 15.6227 15.8956 15.2085C15.8956 14.7943 15.5598 14.4585 15.1456 14.4585H15.0526ZM17.1702 17.9586C17.1702 17.5444 17.506 17.2086 17.9202 17.2086H18.0132C18.4274 17.2086 18.7632 17.5444 18.7632 17.9586C18.7632 18.3729 18.4274 18.7086 18.0132 18.7086H17.9202C17.506 18.7086 17.1702 18.3729 17.1702 17.9586ZM6.45013 17.2086C6.03591 17.2086 5.70013 17.5444 5.70013 17.9586C5.70013 18.3729 6.03591 18.7086 6.45013 18.7086H6.54315C6.95736 18.7086 7.29315 18.3729 7.29315 17.9586C7.29315 17.5444 6.95736 17.2086 6.54315 17.2086H6.45013ZM8.56743 17.9586C8.56743 17.5444 8.90321 17.2086 9.31743 17.2086H9.41045C9.82467 17.2086 10.1605 17.5444 10.1605 17.9586C10.1605 18.3729 9.82467 18.7086 9.41045 18.7086H9.31743C8.90321 18.7086 8.56743 18.3729 8.56743 17.9586ZM12.185 17.2086C11.7708 17.2086 11.435 17.5444 11.435 17.9586C11.435 18.3729 11.7708 18.7086 12.185 18.7086H12.278C12.6922 18.7086 13.028 18.3729 13.028 17.9586C13.028 17.5444 12.6922 17.2086 12.278 17.2086H12.185ZM14.3026 17.9586C14.3026 17.5444 14.6384 17.2086 15.0526 17.2086H15.1456C15.5598 17.2086 15.8956 17.5444 15.8956 17.9586C15.8956 18.3729 15.5598 18.7086 15.1456 18.7086H15.0526C14.6384 18.7086 14.3026 18.3729 14.3026 17.9586Z" fill="#2F2F2F"/>
</svg>
