<svg width="24" height="24" viewBox="0 0 24 24" fill="none" xmlns="http://www.w3.org/2000/svg">
<g clip-path="url(#clip0_255_151)">
<mask id="path-1-inside-1_255_151" fill="white">
<rect x="2" y="5.60001" width="18" height="10.8" rx="1"/>
</mask>
<rect x="2" y="5.60001" width="18" height="10.8" rx="1" fill="white" stroke="#2F2F2F" stroke-width="3" mask="url(#path-1-inside-1_255_151)"/>
<path d="M2.9 9.20001H17" stroke="#2F2F2F" stroke-width="1.5"/>
<circle cx="15.95" cy="13.25" r="0.75" fill="white" stroke="#2F2F2F" stroke-width="1.2"/>
<circle cx="16.85" cy="13.25" r="0.75" fill="white" stroke="#2F2F2F" stroke-width="1.2"/>
<path d="M4.7 11C4.7 11 5.79705 11 6.5 11" stroke="#2F2F2F" stroke-width="1.5" stroke-linecap="round"/>
<path d="M4.7 11.9C4.7 11.9 6.89411 11.9 8.3 11.9" stroke="#2F2F2F" stroke-width="1.5" stroke-linecap="round"/>
<path d="M16.7871 8.77592C16.8848 8.61738 17.1152 8.61738 17.2129 8.77592L22.3508 17.1189C22.4534 17.2855 22.3336 17.5 22.1379 17.5H11.8621C11.6664 17.5 11.5466 17.2855 11.6492 17.1189L16.7871 8.77592Z" fill="white" stroke="#2F2F2F" stroke-width="1.5"/>
<path d="M17 11.5V13M17 15V15.5" stroke="#2F2F2F" stroke-width="1.5" stroke-linecap="round" stroke-linejoin="round"/>
</g>
<defs>
<clipPath id="clip0_255_151">
<rect width="24" height="24" fill="white"/>
</clipPath>
</defs>
</svg>
