<svg width="24" height="24" viewBox="0 0 24 24" fill="none" xmlns="http://www.w3.org/2000/svg">
<path d="M5 4C5 3.44772 5.44772 3 6 3H15L17 5L19 7V20C19 20.5523 18.5523 21 18 21H6C5.44772 21 5 20.5523 5 20V4Z" fill="white"/>
<path d="M15 3L19 7H16C15.4477 7 15 6.55228 15 6V3Z" fill="#CECECE"/>
<rect x="3" y="13" width="10" height="4" rx="1" fill="#018103"/>
<path d="M6.42391 15.4099C6.42391 15.4099 6.29176 15.5534 6.02746 15.5534C5.71691 15.5534 5.49556 15.3301 5.49556 14.9984C5.49556 14.6667 5.71691 14.4434 6.02746 14.4434C6.29176 14.4434 6.42391 14.5869 6.42391 14.5869L6.69812 14.2329C6.69812 14.2329 6.48668 14 6.02085 14C5.37993 14 5 14.4498 5 14.9984C5 15.547 5.37993 16 6.02085 16C6.48668 16 6.69812 15.764 6.69812 15.764L6.42391 15.4099Z" fill="white"/>
<path d="M7.07064 15.7416C7.07064 15.7416 7.35146 15.9968 7.89988 15.9968C8.42187 15.9968 8.66304 15.7097 8.66304 15.362C8.66304 15.0431 8.41196 14.8772 7.97256 14.7592C7.74461 14.6954 7.65871 14.6571 7.65871 14.5614C7.65871 14.4817 7.71157 14.4211 7.87345 14.4211C8.15427 14.4211 8.3624 14.5805 8.3624 14.5805L8.6201 14.2041C8.6201 14.2041 8.41196 14 7.87345 14C7.35146 14 7.10698 14.2456 7.10698 14.5933C7.10698 14.9091 7.34485 15.0654 7.76112 15.1834C8.03864 15.2632 8.10141 15.3142 8.10141 15.4131C8.10141 15.5088 8.03203 15.5726 7.88336 15.5726C7.61576 15.5726 7.33164 15.3876 7.33164 15.3876L7.07064 15.7416Z" fill="white"/>
<path d="M9.72145 15.9553H10.2434L11 14.0415H10.4846L9.98245 15.4609L9.48028 14.0415H8.9649L9.72145 15.9553Z" fill="white"/>
</svg>
