<svg width="24" height="24" viewBox="0 0 24 24" fill="none" xmlns="http://www.w3.org/2000/svg">
<path fill-rule="evenodd" clip-rule="evenodd" d="M20 4C20.5523 4 21 4.44772 21 5V19.7143C21 20.2666 20.5523 20.7143 20 20.7143H14.8C14.2477 20.7143 13.8 20.2666 13.8 19.7143V5C13.8 4.44772 14.2477 4 14.8 4H20ZM9.2 14.0286C9.75228 14.0286 10.2 14.4763 10.2 15.0286V19.7143C10.2 20.2666 9.75228 20.7143 9.2 20.7143H4C3.44772 20.7143 3 20.2666 3 19.7143V15.0286C3 14.4763 3.44772 14.0286 4 14.0286H9.2ZM9.2 4C9.75228 4 10.2 4.44772 10.2 5V9.68571C10.2 10.238 9.75228 10.6857 9.2 10.6857H4C3.44772 10.6857 3 10.238 3 9.68571V5C3 4.44772 3.44772 4 4 4H9.2Z" stroke="#2F2F2F" stroke-width="1.5" stroke-linecap="round" stroke-linejoin="round"/>
</svg>
