<svg width="24" height="24" viewBox="0 0 24 24" fill="none" xmlns="http://www.w3.org/2000/svg">
<circle cx="12" cy="12" r="8" stroke="#2F2F2F" stroke-width="1.5" stroke-linecap="round" stroke-linejoin="round"/>
<path d="M11.204 9.856H12.704V16.264H11.204V9.856ZM11.96 8.8C11.688 8.8 11.46 8.716 11.276 8.548C11.092 8.372 11 8.156 11 7.9C11 7.644 11.092 7.432 11.276 7.264C11.46 7.088 11.688 7 11.96 7C12.232 7 12.46 7.084 12.644 7.252C12.828 7.412 12.92 7.616 12.92 7.864C12.92 8.128 12.828 8.352 12.644 8.536C12.468 8.712 12.24 8.8 11.96 8.8Z" fill="#2F2F2F"/>
</svg>
