<svg width="24" height="24" viewBox="0 0 24 24" fill="none" xmlns="http://www.w3.org/2000/svg">
<path d="M18.5233 5.1C19.6346 5.1 20.204 5.20995 20.7967 5.52693C21.3446 5.81997 21.78 6.25539 22.0731 6.80334C22.3636 7.34665 22.4802 7.87035 22.4977 8.80981L22.5 9.07666V15.4772C22.5 16.5884 22.3901 17.1578 22.0731 17.7505C21.78 18.2985 21.3446 18.7339 20.7967 19.0269C20.2534 19.3175 19.7296 19.4341 18.7902 19.4515L18.5233 19.4538H5.47666C4.36541 19.4538 3.79604 19.3439 3.20335 19.0269C2.65539 18.7339 2.21998 18.2985 1.92693 17.7505C1.63637 17.2072 1.51976 16.6835 1.50235 15.744L1.5 9.07666C1.5 7.96541 1.60995 7.39604 1.92693 6.80334C2.21998 6.25539 2.65539 5.81997 3.20335 5.52693C3.74665 5.23636 4.27036 5.11976 5.20981 5.10235L5.47666 5.1H18.5233ZM20.4845 7.64969L12.6308 13.3293C12.3581 13.5265 12.0022 13.553 11.7069 13.408L11.5845 13.3354L3.5184 7.644C3.37015 7.92156 3.31098 8.1846 3.30142 8.86094L3.3 15.4772C3.3 16.3167 3.35574 16.6053 3.51419 16.9016C3.63948 17.1359 3.81795 17.3144 4.05222 17.4397C4.32157 17.5837 4.58461 17.6429 5.26094 17.6524L18.5233 17.6538C19.3629 17.6538 19.6515 17.5981 19.9478 17.4397C20.182 17.3144 20.3605 17.1359 20.4858 16.9016C20.6154 16.6592 20.6763 16.4219 20.6942 15.8838L20.7 15.4772V9.07666L20.6942 8.67002C20.6783 8.19172 20.6285 7.95108 20.5265 7.73326L20.4845 7.64969ZM17.6184 7.2H6.4368L12.096 11.1936L17.6184 7.2Z" fill="#2F2F2F"/>
</svg>
