<svg width="24" height="24" viewBox="0 0 24 24" fill="none" xmlns="http://www.w3.org/2000/svg">
<path d="M5 4C5 3.44772 5.44772 3 6 3H15L17 5L19 7V20C19 20.5523 18.5523 21 18 21H6C5.44772 21 5 20.5523 5 20V4Z" fill="#F2F2F2"/>
<path d="M15 3L19 7H16C15.4477 7 15 6.55228 15 6V3Z" fill="#CECECE"/>
<rect x="3" y="13" width="10" height="4" rx="1" fill="#EA3546"/>
<path d="M5.87495 14C6.05399 14 6.20895 14.0295 6.33986 14.0886C6.47269 14.1476 6.57472 14.2314 6.64595 14.34C6.71718 14.4486 6.75279 14.5771 6.75279 14.7257C6.75279 14.8724 6.71718 15.001 6.64595 15.1114C6.57472 15.22 6.47269 15.3038 6.33986 15.3629C6.20895 15.42 6.05399 15.4486 5.87495 15.4486H5.4678V16H5V14H5.87495ZM5.84896 15.0714C5.98949 15.0714 6.09634 15.0419 6.16949 14.9829C6.24264 14.9219 6.27922 14.8362 6.27922 14.7257C6.27922 14.6133 6.24264 14.5276 6.16949 14.4686C6.09634 14.4076 5.98949 14.3771 5.84896 14.3771H5.4678V15.0714H5.84896Z" fill="white"/>
<path d="M7.08676 14H8.00503C8.22449 14 8.41796 14.0419 8.58544 14.1257C8.75485 14.2076 8.88576 14.3238 8.97816 14.4743C9.07249 14.6248 9.11966 14.8 9.11966 15C9.11966 15.2 9.07249 15.3752 8.97816 15.5257C8.88576 15.6762 8.75485 15.7933 8.58544 15.8771C8.41796 15.959 8.22449 16 8.00503 16H7.08676V14ZM7.98193 15.62C8.18406 15.62 8.34481 15.5648 8.46416 15.4543C8.58544 15.3419 8.64608 15.1905 8.64608 15C8.64608 14.8095 8.58544 14.659 8.46416 14.5486C8.34481 14.4362 8.18406 14.38 7.98193 14.38H7.55456V15.62H7.98193Z" fill="white"/>
<path d="M9.94024 14.3714V14.9H10.8758V15.2714H9.94024V16H9.47244V14H11V14.3714H9.94024Z" fill="white"/>
</svg>
