<svg width="24" height="24" viewBox="0 0 24 24" fill="none" xmlns="http://www.w3.org/2000/svg">
<path fill-rule="evenodd" clip-rule="evenodd" d="M20.3703 10.7169L7.21006 3.19423C6.98317 3.06463 6.73057 3 6.47797 3C6.47283 3 6.46777 3.00069 6.46271 3.00069C6.42877 3.00103 6.39491 3.00274 6.36114 3.0054C6.34589 3.0066 6.33071 3.00823 6.31546 3.00994C6.28906 3.01286 6.26274 3.01654 6.23651 3.02091C6.227 3.02254 6.2174 3.02306 6.20789 3.02486L6.2084 3.02554C6.04443 3.0558 5.8844 3.11357 5.73569 3.19989C5.2802 3.46414 4.99983 3.95091 4.99983 4.47746V19.5226C4.99983 20.0492 5.2802 20.5359 5.73569 20.8002C5.88431 20.8865 6.04434 20.9444 6.20831 20.9746L6.20789 20.9752C6.21646 20.9769 6.22511 20.9774 6.2336 20.9787C6.2618 20.9835 6.29009 20.9875 6.31846 20.9905C6.33269 20.992 6.34683 20.9936 6.36106 20.9947C6.3944 20.9973 6.42766 20.9989 6.46109 20.9993C6.46674 20.9994 6.47231 21.0001 6.47797 21.0001C6.73057 21.0001 6.98317 20.9355 7.21006 20.8059L20.3703 13.2831C20.8304 13.0201 21.1144 12.5308 21.1144 12.0007C21.1144 12.0007 21.1144 12.0004 21.1144 12.0003C21.1144 12.0003 21.1144 12.0001 21.1144 12C21.1144 12 21.1144 11.9997 21.1144 11.9997C21.1144 11.9997 21.1144 11.9994 21.1144 11.9993C21.1144 11.4693 20.8304 10.98 20.3703 10.7169ZM15.1659 9.22294L13.8574 10.9395L10.5282 6.57189L15.1659 9.22294ZM19.7322 12.1669L10.5282 17.4281L16.2911 9.8676L19.7321 11.8345C19.7917 11.8685 19.8287 11.9323 19.8287 12.0006C19.8287 12.0692 19.7916 12.1329 19.7322 12.1669Z" fill="#2F2F2F"/>
</svg>
