<svg width="24" height="24" viewBox="0 0 24 24" fill="none" xmlns="http://www.w3.org/2000/svg">
<path d="M10.5263 18.2045H15.177M4.71291 20.2502H7.20191C9.50304 21.422 10.9291 22.0885 11.4802 22.2498C12.0312 22.4111 12.5317 22.4111 12.9818 22.2498L21.4169 17.5076C21.8052 17.0245 21.8691 16.5674 21.6086 16.1364C21.348 15.7054 20.9612 15.5513 20.4483 15.6739L15.2495 18.2227C15.5015 17.9501 15.6155 17.6227 15.5916 17.2403C15.5714 16.5737 15.0219 16.2542 13.9431 16.2819H10.2946L8.23749 15.3947H4.71291V20.2502ZM2 14.232H4.71291V21.5956H2V14.232Z" stroke="#2F2F2F" stroke-width="1.5" stroke-linecap="round" stroke-linejoin="round"/>
<circle cx="12" cy="7" r="5.25" stroke="#2F2F2F" stroke-width="1.5" stroke-linecap="round"/>
<path d="M14 7.97021C14 8.31489 13.8569 8.60851 13.5707 8.85106C13.2892 9.08936 12.879 9.23404 12.3399 9.28511V10H11.7531V9.29149C11.4001 9.27021 11.0662 9.21277 10.7513 9.11915C10.4365 9.02553 10.186 8.90638 10 8.7617L10.322 8.11702C10.4985 8.24468 10.7132 8.35319 10.966 8.44255C11.2188 8.52766 11.4812 8.58085 11.7531 8.60213V7.32553C11.4144 7.25319 11.1306 7.17447 10.9016 7.08936C10.6774 7 10.489 6.87234 10.3363 6.70638C10.1837 6.53617 10.1073 6.31277 10.1073 6.03617C10.1073 5.69149 10.2481 5.39787 10.5295 5.15532C10.811 4.91277 11.2188 4.76809 11.7531 4.72128V4H12.3399V4.70851C12.607 4.72128 12.867 4.7617 13.1199 4.82979C13.3775 4.89787 13.6017 4.98723 13.7925 5.09787L13.4991 5.74255C13.1366 5.55532 12.7501 5.44043 12.3399 5.39787V6.68723C12.6834 6.75957 12.9672 6.8383 13.1914 6.9234C13.4204 7.00851 13.6112 7.13617 13.7639 7.30638C13.9213 7.47234 14 7.69362 14 7.97021ZM11.0304 5.99787C11.0304 6.1383 11.0924 6.25106 11.2165 6.33617C11.3405 6.42128 11.5194 6.49362 11.7531 6.55319V5.41702C11.5098 5.45106 11.3286 5.51915 11.2093 5.62128C11.09 5.7234 11.0304 5.84894 11.0304 5.99787ZM12.3399 8.58936C12.5927 8.55532 12.7788 8.48936 12.898 8.39149C13.0221 8.29362 13.0841 8.17234 13.0841 8.02766C13.0841 7.88298 13.0197 7.76808 12.8909 7.68298C12.7621 7.59362 12.5784 7.51915 12.3399 7.45957V8.58936Z" fill="#2F2F2F"/>
</svg>
