<svg width="24" height="24" viewBox="0 0 24 24" fill="none" xmlns="http://www.w3.org/2000/svg">
<path fill-rule="evenodd" clip-rule="evenodd" d="M12.001 14.4745C10.6371 14.4745 9.5276 13.3649 9.5276 12.001C9.5276 10.6369 10.6371 9.52742 12.001 9.52742C13.3651 9.52742 14.4747 10.6369 14.4747 12.001C14.4747 13.3649 13.3651 14.4745 12.001 14.4745ZM19.7195 13.5631C19.0471 13.3366 18.5963 12.7077 18.5963 12.0001C18.5963 11.2924 19.0482 10.6635 19.7195 10.4372C19.924 10.3696 20.0406 10.1538 19.987 9.94423C19.7968 9.20345 19.5038 8.49326 19.1141 7.82977C19.0014 7.6381 18.7565 7.57041 18.561 7.67683C18.3201 7.80805 18.0472 7.87718 17.7717 7.87718C16.863 7.87718 16.1228 7.13713 16.1228 6.22821C16.1228 5.95203 16.1921 5.68 16.3233 5.43911C16.4295 5.24365 16.362 4.99877 16.1704 4.88602C15.5076 4.49635 14.7967 4.20333 14.0559 4.01312C13.8465 3.95918 13.6322 4.0761 13.5629 4.28062C13.3366 4.95298 12.7077 5.40382 12.0001 5.40382C11.2924 5.40382 10.6635 4.95208 10.4372 4.28062C10.3694 4.0761 10.1538 3.95936 9.94423 4.01312C9.20346 4.20333 8.49326 4.49635 7.82977 4.88602C7.6381 4.99877 7.57041 5.24365 7.67665 5.43911C7.80805 5.68 7.87719 5.95293 7.87719 6.22821C7.87719 7.13713 7.13713 7.87718 6.22821 7.87718C5.95203 7.87718 5.6791 7.80787 5.43911 7.67683C5.24365 7.57041 4.99859 7.6381 4.88584 7.82977C4.49635 8.49254 4.20334 9.20345 4.01312 9.94423C3.95918 10.1536 4.0761 10.3679 4.28044 10.4372C4.9528 10.6635 5.40382 11.2924 5.40382 12.0001C5.40382 12.7077 4.95208 13.3366 4.28044 13.5631C4.0761 13.6306 3.95936 13.8463 4.01312 14.0559C4.20334 14.7967 4.49635 15.5069 4.88584 16.1704C4.99859 16.362 5.24365 16.4297 5.43911 16.3233C5.67982 16.1921 5.95293 16.1229 6.22821 16.1229C7.13713 16.1229 7.87719 16.863 7.87719 17.7719C7.87719 18.0481 7.80787 18.3201 7.67665 18.561C7.57041 18.7565 7.6381 19.0014 7.82977 19.1141C8.49254 19.5038 9.20346 19.7968 9.94423 19.987C9.97862 19.9966 10.0134 20.0006 10.0469 20.0006C10.2197 20.0004 10.3799 19.8902 10.4371 19.7195C10.6633 19.0471 11.2922 18.5963 11.9999 18.5963C12.7075 18.5963 13.3365 19.0482 13.5627 19.7195C13.6304 19.924 13.8461 20.0408 14.0557 19.987C14.7965 19.7968 15.5067 19.5038 16.1702 19.1141C16.3618 19.0014 16.4294 18.7565 16.3231 18.561C16.1917 18.3201 16.1226 18.0472 16.1226 17.7719C16.1226 16.863 16.8628 16.1229 17.7715 16.1229C18.0479 16.1229 18.3199 16.1923 18.5608 16.3233C18.7563 16.4297 19.0012 16.362 19.1139 16.1704C19.5036 15.5076 19.7966 14.7967 19.9868 14.0559C20.0408 13.8463 19.924 13.6322 19.7195 13.5631Z" stroke="#2F2F2F" stroke-width="1.5" stroke-linecap="round" stroke-linejoin="round"/>
</svg>
