<svg width="24" height="24" viewBox="0 0 24 24" fill="none" xmlns="http://www.w3.org/2000/svg">
<path fill-rule="evenodd" clip-rule="evenodd" d="M10.7097 3.3L13.8903 3.3C16.1191 3.3 16.9273 3.53207 17.7421 3.96783C18.5569 4.4036 19.1964 5.04307 19.6322 5.85789C20.0679 6.6727 20.3 7.48092 20.3 9.70972V12.8903C20.3 15.1191 20.0679 15.9273 19.6322 16.7421C19.1964 17.5569 18.5569 18.1964 17.7421 18.6322C16.9273 19.0679 16.1191 19.3 13.8903 19.3H10.7097C8.48092 19.3 7.6727 19.0679 6.85788 18.6322C6.04307 18.1964 5.4036 17.5569 4.96783 16.7421C4.53206 15.9273 4.3 15.1191 4.3 12.8903V9.70972C4.3 7.48092 4.53206 6.6727 4.96783 5.85789C5.4036 5.04307 6.04307 4.4036 6.85788 3.96783C7.6727 3.53207 8.48092 3.3 10.7097 3.3ZM12.3 15.5353C14.3792 15.5353 16.0647 13.8498 16.0647 11.7706C16.0647 9.6914 14.3792 8.00589 12.3 8.00589C10.2208 8.00589 8.53529 9.6914 8.53529 11.7706C8.53529 13.8498 10.2208 15.5353 12.3 15.5353Z" stroke="#2F2F2F" stroke-width="2" stroke-linecap="round" stroke-linejoin="round"/>
<path d="M16.5353 7.59412C17.0876 7.59412 17.5353 7.14641 17.5353 6.59412C17.5353 6.04184 17.0876 5.59412 16.5353 5.59412C15.983 5.59412 15.5353 6.04184 15.5353 6.59412C15.5353 7.14641 15.983 7.59412 16.5353 7.59412Z" fill="#2F2F2F"/>
</svg>
