<svg width="24" height="24" viewBox="0 0 24 24" fill="none" xmlns="http://www.w3.org/2000/svg">
<path fill-rule="evenodd" clip-rule="evenodd" d="M18.5907 6.877C19.2687 6.44016 19.789 5.74749 20.0341 4.92236C19.3993 5.32683 18.6977 5.62109 17.9483 5.77884C17.351 5.09224 16.4973 4.66349 15.5526 4.66349C13.741 4.66349 12.2712 6.24601 12.2712 8.19762C12.2712 8.47469 12.2994 8.74366 12.3558 9.00253C9.62758 8.85489 7.20932 7.44933 5.58931 5.30863C5.30663 5.83243 5.1451 6.44016 5.1451 7.08733C5.1451 8.31289 5.72455 9.39487 6.60545 10.0289C6.06827 10.0117 5.56114 9.85092 5.11787 9.58801V9.63149C5.11787 11.3445 6.24952 12.7733 7.75214 13.0969C7.47697 13.1798 7.18678 13.2212 6.88719 13.2212C6.67589 13.2212 6.46928 13.2 6.26925 13.1585C6.68716 14.5621 7.89864 15.5844 9.33551 15.6117C8.21231 16.5602 6.7961 17.1255 5.25874 17.1255C4.9939 17.1255 4.73189 17.1093 4.4755 17.0769C5.92834 18.078 7.65447 18.6635 9.50737 18.6635C15.546 18.6635 18.847 13.2789 18.847 8.60816C18.847 8.45446 18.8442 8.30076 18.8386 8.15009C19.48 7.65157 20.0369 7.02969 20.4755 6.32084C19.8876 6.60195 19.2546 6.79206 18.5907 6.877Z" fill="#2F2F2F"/>
</svg>
