<svg width="24" height="24" viewBox="0 0 24 24" fill="none" xmlns="http://www.w3.org/2000/svg">
<path d="M7.54492 6.79458H16.7084M7.09677 8.74358C7.09677 12.9665 9.29202 15.1586 12 15.1586C14.708 15.1586 16.9032 12.9665 16.9032 8.74358H7.09677ZM4 20.836C4 17.7005 6.54187 15.1586 9.67742 15.1586H14.3226C17.4581 15.1586 20 17.7005 20 20.836H4ZM17.2983 7.78579C17.2983 5.2067 14.5905 3.58069 12.0114 3.58069C9.43232 3.58069 6.70167 5.2067 6.70167 7.78579C6.70167 9.05425 9.70388 9.97926 12 10C14.3725 10.0214 17.2983 9.09643 17.2983 7.78579ZM12.8372 18.4303H15.6279C16.1417 18.4303 16.5581 18.8468 16.5581 19.3605V20.2907C16.5581 20.8045 16.1854 20.836 15.6717 20.836H12.881C12.3672 20.836 11.907 20.8045 11.907 20.2907V19.3605C11.907 18.8468 12.3235 18.4303 12.8372 18.4303Z" stroke="#2F2F2F" stroke-width="1.5" stroke-linecap="round" stroke-linejoin="round"/>
</svg>
