<svg width="24" height="24" viewBox="0 0 24 24" fill="none" xmlns="http://www.w3.org/2000/svg">
<path d="M6 17.2916C4.75527 15.8814 4 14.0289 4 12C4 7.58172 7.58172 4 12 4C16.4183 4 20 7.58172 20 12C20 16.4183 16.4183 20 12 20C10.5429 20 9.17669 19.6104 8 18.9297M6 17.2916C6.57193 17.9396 7.24719 18.4943 8 18.9297M6 17.2916L5.5 20L8 18.9297" stroke="#2F2F2F" stroke-width="1.5" stroke-linecap="round" stroke-linejoin="round"/>
<path d="M11.4358 13.2111C11.4358 12.8259 11.5214 12.5074 11.6927 12.2556C11.8715 12.0037 12.1285 11.7259 12.4637 11.4222C12.7095 11.2 12.8883 11.0148 13 10.8667C13.1192 10.7111 13.1788 10.537 13.1788 10.3444C13.1788 10.0704 13.067 9.85556 12.8436 9.7C12.6276 9.53704 12.3371 9.45556 11.9721 9.45556C11.622 9.45556 11.3091 9.52963 11.0335 9.67778C10.7654 9.81852 10.5382 10.0185 10.352 10.2778L9 9.48889C9.31285 9.01482 9.73371 8.64815 10.2626 8.38889C10.7989 8.12963 11.432 8 12.162 8C13.0186 8 13.7039 8.18148 14.2179 8.54444C14.7393 8.90741 15 9.41111 15 10.0556C15 10.3593 14.9479 10.6259 14.8436 10.8556C14.7467 11.0852 14.6238 11.2815 14.4749 11.4444C14.3333 11.6 14.1471 11.7815 13.9162 11.9889C13.6406 12.2333 13.4395 12.4407 13.3128 12.6111C13.1862 12.7741 13.1229 12.9741 13.1229 13.2111H11.4358ZM12.2849 16C11.9795 16 11.7225 15.9037 11.514 15.7111C11.3128 15.5111 11.2123 15.2704 11.2123 14.9889C11.2123 14.7074 11.3128 14.4741 11.514 14.2889C11.7151 14.0963 11.9721 14 12.2849 14C12.5978 14 12.8547 14.0963 13.0559 14.2889C13.257 14.4741 13.3575 14.7074 13.3575 14.9889C13.3575 15.2704 13.2533 15.5111 13.0447 15.7111C12.8436 15.9037 12.5903 16 12.2849 16Z" fill="#2F2F2F"/>
</svg>
