<svg width="24" height="24" viewBox="0 0 24 24" fill="none" xmlns="http://www.w3.org/2000/svg">
<path d="M18.2487 3.63614L18.6952 4.23875C19.028 3.99215 19.0979 3.52244 18.8513 3.18963L18.2487 3.63614ZM21.8207 8.45697L22.4233 8.01046C22.1767 7.67765 21.707 7.60777 21.3742 7.85436L21.8207 8.45697ZM5.75132 20.3639L5.30482 19.7612C4.97201 20.0078 4.90212 20.4776 5.14872 20.8104L5.75132 20.3639ZM2.17926 15.543L1.57666 15.9895C1.82326 16.3223 2.29296 16.3922 2.62577 16.1456L2.17926 15.543ZM0.750189 11.9347C-0.0263637 12.5101 -0.189432 13.606 0.385968 14.3826L1.59117 13.4896C1.50897 13.3786 1.53227 13.2221 1.64321 13.1399L0.750189 11.9347ZM15.2127 1.21847L0.750189 11.9347L1.64321 13.1399L16.1057 2.42368L15.2127 1.21847ZM17.6606 1.58269C17.0852 0.80614 15.9892 0.643073 15.2127 1.21847L16.1057 2.42368C16.2166 2.34148 16.3732 2.36477 16.4554 2.47571L17.6606 1.58269ZM18.8513 3.18963L17.6606 1.58269L16.4554 2.47571L17.6461 4.08265L18.8513 3.18963ZM18.2269 7.38608C17.4871 6.38765 17.6968 4.97855 18.6952 4.23875L17.8022 3.03354C16.1381 4.26654 15.7887 6.61505 17.0217 8.2791L18.2269 7.38608ZM21.3742 7.85436C20.3758 8.59416 18.9667 8.38451 18.2269 7.38608L17.0217 8.2791C18.2547 9.94314 20.6032 10.2926 22.2672 9.05957L21.3742 7.85436ZM23.614 9.6174L22.4233 8.01046L21.2181 8.90348L22.4088 10.5104L23.614 9.6174ZM23.2498 12.0653C24.0264 11.4899 24.1894 10.394 23.614 9.6174L22.4088 10.5104C22.491 10.6214 22.4677 10.7779 22.3568 10.8601L23.2498 12.0653ZM8.78734 22.7815L23.2498 12.0653L22.3568 10.8601L7.89432 21.5763L8.78734 22.7815ZM6.33941 22.4173C6.91481 23.1939 8.01078 23.3569 8.78734 22.7815L7.89432 21.5763C7.78338 21.6585 7.62682 21.6352 7.54462 21.5243L6.33941 22.4173ZM5.14872 20.8104L6.33941 22.4173L7.54462 21.5243L6.35393 19.9173L5.14872 20.8104ZM5.7731 16.6139C6.5129 17.6123 6.30324 19.0214 5.30482 19.7612L6.19783 20.9665C7.86187 19.7335 8.21131 17.3849 6.97831 15.7209L5.7731 16.6139ZM2.62577 16.1456C3.62419 15.4058 5.0333 15.6155 5.7731 16.6139L6.97831 15.7209C5.74531 14.0569 3.39679 13.7074 1.73275 14.9404L2.62577 16.1456ZM0.385968 14.3826L1.57666 15.9895L2.78186 15.0965L1.59117 13.4896L0.385968 14.3826Z" fill="#2F2F2F"/>
<path d="M17.9825 15.0348L10.8383 5.39314" stroke="#2F2F2F" stroke-width="1.5" stroke-linecap="round" stroke-dasharray="4 4"/>
</svg>
