<svg width="24" height="24" viewBox="0 0 24 24" fill="none" xmlns="http://www.w3.org/2000/svg">
<path d="M12.1016 12.8388C14.06 12.8388 15.6476 15.5494 15.6476 17.5078V18.521H8.55551V17.5078C8.55551 15.5494 10.1431 12.8388 12.1016 12.8388ZM12.1016 12.8388C13.5005 12.8388 14.6345 11.7048 14.6345 10.3059C14.6345 8.90705 13.5005 7.77303 12.1016 7.77303C10.7027 7.77303 9.56867 8.90705 9.56867 10.3059C9.56867 11.7048 10.7027 12.8388 12.1016 12.8388ZM8.38647 6.79263C7.92476 6.30453 7.27098 6 6.54607 6C5.14718 6 4.01316 7.13402 4.01316 8.53291C4.01316 9.93179 5.14718 11.0658 6.54607 11.0658C4.58763 11.0658 3 13.7764 3 15.7348V16.748M15.884 6.79263C16.3458 6.30453 16.9995 6 17.7245 6C19.1233 6 20.2574 7.13402 20.2574 8.53291C20.2574 9.93179 19.1233 11.0658 17.7245 11.0658C19.6829 11.0658 21.2705 13.7764 21.2705 15.7348V16.748" stroke="#2F2F2F" stroke-width="1.5" stroke-linecap="round" stroke-linejoin="round"/>
</svg>
