<svg width="24" height="24" viewBox="0 0 24 24" fill="none" xmlns="http://www.w3.org/2000/svg">
<path d="M12.716 14.408H11.216L11.216 8.00001H12.716L12.716 14.408ZM11.96 15.464C12.232 15.464 12.46 15.548 12.644 15.716C12.828 15.892 12.92 16.108 12.92 16.364C12.92 16.62 12.828 16.832 12.644 17C12.46 17.176 12.232 17.264 11.96 17.264C11.688 17.264 11.46 17.18 11.276 17.012C11.092 16.852 11 16.648 11 16.4C11 16.136 11.092 15.912 11.276 15.728C11.452 15.552 11.68 15.464 11.96 15.464Z" fill="#2F2F2F"/>
<path d="M12 4L20.6603 19H3.33975L12 4Z" stroke="#2F2F2F" stroke-width="1.5" stroke-linecap="round" stroke-linejoin="round"/>
</svg>
