<svg width="24" height="24" viewBox="0 0 24 24" fill="none" xmlns="http://www.w3.org/2000/svg">
<path d="M3.057 21L4.32225 16.3778C3.5415 15.0247 3.13125 13.491 3.132 11.9183C3.13425 7.00125 7.1355 3 12.0517 3C14.4375 3.00075 16.677 3.93 18.3615 5.616C20.0452 7.302 20.9722 9.543 20.9715 11.9265C20.9692 16.8443 16.968 20.8455 12.0517 20.8455C10.5592 20.8448 9.0885 20.4705 7.78575 19.7595L3.057 21ZM8.00475 18.1448C9.26175 18.891 10.4617 19.338 12.0487 19.3387C16.1347 19.3387 19.4632 16.0133 19.4655 11.925C19.467 7.8285 16.1542 4.5075 12.0547 4.506C7.96575 4.506 4.6395 7.8315 4.638 11.919C4.63725 13.5878 5.12625 14.8372 5.9475 16.1445L5.19825 18.8805L8.00475 18.1448ZM16.545 14.0468C16.4895 13.9537 16.341 13.8982 16.1175 13.7865C15.8948 13.6748 14.799 13.1355 14.5942 13.0612C14.3902 12.987 14.2417 12.9495 14.0925 13.173C13.944 13.3958 13.5165 13.8982 13.3867 14.0468C13.257 14.1953 13.1265 14.214 12.9037 14.1023C12.681 13.9905 11.9625 13.7557 11.1112 12.996C10.449 12.405 10.0012 11.6753 9.8715 11.4517C9.74175 11.229 9.858 11.1082 9.969 10.9973C10.0695 10.8975 10.1917 10.737 10.3035 10.6065C10.4167 10.4775 10.4535 10.3845 10.5285 10.2353C10.6027 10.0868 10.566 9.95625 10.5097 9.8445C10.4535 9.7335 10.008 8.63625 9.82275 8.19C9.64125 7.75575 9.4575 7.81425 9.321 7.8075L8.8935 7.8C8.745 7.8 8.5035 7.8555 8.2995 8.079C8.0955 8.3025 7.5195 8.841 7.5195 9.93825C7.5195 11.0355 8.31825 12.0953 8.42925 12.2437C8.541 12.3923 10.0005 14.6438 12.2362 15.609C12.768 15.8385 13.1835 15.9757 13.5067 16.0785C14.0407 16.248 14.5267 16.224 14.9107 16.167C15.339 16.1032 16.2292 15.6277 16.4152 15.1073C16.6012 14.586 16.6012 14.1398 16.545 14.0468Z" fill="#2F2F2F"/>
</svg>
