<svg width="24" height="24" viewBox="0 0 24 24" fill="none" xmlns="http://www.w3.org/2000/svg">
<circle cx="11" cy="11" r="8" stroke="#2F2F2F" stroke-width="1.5" stroke-linecap="round" stroke-linejoin="round"/>
<path d="M8 3.5C7.16667 4.83333 5.9 7.7 7.5 8.5C9.5 9.5 12 9 12 11C12 13 14.5 12.5 12.5 15C10.9 17 8.16667 17.8333 7 18" stroke="#2F2F2F" stroke-width="1.5" stroke-linecap="round" stroke-linejoin="round"/>
<path d="M15 4.5C14.3333 5.5 13.4 7.7 15 8.5C16.6 9.3 16 12.6667 16 14L17 16" stroke="#2F2F2F" stroke-width="1.5" stroke-linecap="round" stroke-linejoin="round"/>
<circle cx="16" cy="16" r="5" fill="white" stroke="#2F2F2F" stroke-width="1.5" stroke-linecap="round" stroke-linejoin="round"/>
<path d="M17.864 16.68C17.864 17.016 17.742 17.31 17.498 17.562C17.258 17.81 16.914 17.974 16.466 18.054V18.72H15.62V18.084C15.32 18.068 15.032 18.022 14.756 17.946C14.484 17.87 14.258 17.776 14.078 17.664L14.534 16.632C14.734 16.748 14.958 16.842 15.206 16.914C15.454 16.982 15.692 17.016 15.92 17.016C16.116 17.016 16.256 16.998 16.34 16.962C16.424 16.922 16.466 16.864 16.466 16.788C16.466 16.7 16.41 16.634 16.298 16.59C16.19 16.546 16.01 16.498 15.758 16.446C15.434 16.378 15.164 16.306 14.948 16.23C14.732 16.15 14.544 16.022 14.384 15.846C14.224 15.666 14.144 15.424 14.144 15.12C14.144 14.768 14.27 14.466 14.522 14.214C14.778 13.962 15.144 13.802 15.62 13.734V13.08H16.466V13.722C16.946 13.766 17.352 13.882 17.684 14.07L17.258 15.096C16.846 14.888 16.456 14.784 16.088 14.784C15.724 14.784 15.542 14.872 15.542 15.048C15.542 15.132 15.596 15.196 15.704 15.24C15.812 15.28 15.99 15.324 16.238 15.372C16.558 15.432 16.828 15.502 17.048 15.582C17.268 15.658 17.458 15.784 17.618 15.96C17.782 16.136 17.864 16.376 17.864 16.68Z" fill="#2F2F2F"/>
</svg>
