<svg width="500" height="280" viewBox="0 0 500 280" fill="none" xmlns="http://www.w3.org/2000/svg">
<mask id="mask0_1645_26211" style="mask-type:alpha" maskUnits="userSpaceOnUse" x="0" y="0" width="500" height="280">
<rect width="500" height="280" rx="14" fill="white"/>
</mask>
<g mask="url(#mask0_1645_26211)">
<rect x="-8" y="-6" width="516" height="293" fill="white"/>
<path d="M433.5 277.5C245.1 277.5 74.3099 164.718 9.64323 113.551C7.30989 110.218 -0.456776 106.251 -12.8568 117.051C-28.3568 130.551 -36.3568 257.551 9.64323 281.551C55.6432 305.551 669 277.5 433.5 277.5Z" fill="#F8F8F8"/>
<path d="M72.2227 3.47945C260.579 7.53611 430.769 113.559 494.319 166.106C496.58 169.489 504.259 173.622 516.889 163.091C532.676 149.928 543.409 23.1297 497.936 -1.85526C452.464 -26.8402 -163.223 -1.59137 72.2227 3.47945Z" fill="#F8F8F8"/>
</g>
<path fill-rule="evenodd" clip-rule="evenodd" d="M72 40C70.8954 40 70 40.8954 70 42V47H65C63.8954 47 63 47.8954 63 49C63 50.1046 63.8954 51 65 51H70V56C70 57.1046 70.8954 58 72 58C73.1046 58 74 57.1046 74 56V51H79C80.1046 51 81 50.1046 81 49C81 47.8954 80.1046 47 79 47H74V42C74 40.8954 73.1046 40 72 40Z" fill="#203D5C"/>
<path fill-rule="evenodd" clip-rule="evenodd" d="M434 195C432.895 195 432 195.895 432 197V202H427C425.895 202 425 202.895 425 204C425 205.105 425.895 206 427 206H432V211C432 212.105 432.895 213 434 213C435.105 213 436 212.105 436 211V206H441C442.105 206 443 205.105 443 204C443 202.895 442.105 202 441 202H436V197C436 195.895 435.105 195 434 195Z" fill="#203D5C"/>
<path fill-rule="evenodd" clip-rule="evenodd" d="M357 84C355.895 84 355 84.8954 355 86V91H350C348.895 91 348 91.8954 348 93C348 94.1046 348.895 95 350 95H355V100C355 101.105 355.895 102 357 102C358.105 102 359 101.105 359 100V95H364C365.105 95 366 94.1046 366 93C366 91.8954 365.105 91 364 91H359V86C359 84.8954 358.105 84 357 84Z" fill="#203D5C"/>
<path fill-rule="evenodd" clip-rule="evenodd" d="M107 160C105.895 160 105 160.895 105 162V167H100C98.8954 167 98 167.895 98 169C98 170.105 98.8954 171 100 171H105V176C105 177.105 105.895 178 107 178C108.105 178 109 177.105 109 176V171H114C115.105 171 116 170.105 116 169C116 167.895 115.105 167 114 167H109V162C109 160.895 108.105 160 107 160Z" fill="#203D5C"/>
<path d="M86.7177 62.4962L86.0065 58.5756L89.6065 58.8119L90.3177 62.7325L86.7177 62.4962Z" fill="#203D5C" stroke="#AFB9C4" stroke-width="0.5"/>
<path d="M94.0973 61.1577L93.3861 57.2371L90.0985 58.7228L90.8097 62.6434L94.0973 61.1577Z" fill="#203D5C" stroke="#AFB9C4" stroke-width="0.5"/>
<path d="M89.7936 58.4426L86.6355 58.1426L89.2644 56.9048L92.5948 57.077L89.7936 58.4426Z" fill="#203D5C" stroke="#AFB9C4" stroke-width="0.5"/>
<path d="M92.7177 54.4962L92.0065 50.5756L95.6065 50.8119L96.3177 54.7325L92.7177 54.4962Z" fill="#203D5C" stroke="#AFB9C4" stroke-width="0.5"/>
<path d="M100.097 53.1577L99.3861 49.2371L96.0985 50.7228L96.8097 54.6434L100.097 53.1577Z" fill="#203D5C" stroke="#AFB9C4" stroke-width="0.5"/>
<path d="M95.7936 50.4426L92.6355 50.1426L95.2644 48.9048L98.5948 49.077L95.7936 50.4426Z" fill="#203D5C" stroke="#AFB9C4" stroke-width="0.5"/>
<path d="M99.7177 61.4962L99.0065 57.5756L102.606 57.8119L103.318 61.7325L99.7177 61.4962Z" fill="#203D5C" stroke="#AFB9C4" stroke-width="0.5"/>
<path d="M107.097 60.1577L106.386 56.2371L103.098 57.7228L103.81 61.6434L107.097 60.1577Z" fill="#203D5C" stroke="#AFB9C4" stroke-width="0.5"/>
<path d="M102.794 57.4426L99.6355 57.1426L102.264 55.9048L105.595 56.077L102.794 57.4426Z" fill="#203D5C" stroke="#AFB9C4" stroke-width="0.5"/>
<g filter="url(#filter0_d_1645_26211)">
<circle cx="250" cy="140" r="30" fill="#203D5C"/>
</g>
<path d="M262 138.268C263.333 139.038 263.333 140.962 262 141.732L245.5 151.258C244.167 152.028 242.5 151.066 242.5 149.526V130.474C242.5 128.934 244.167 127.972 245.5 128.742L262 138.268Z" fill="white"/>
<defs>
<filter id="filter0_d_1645_26211" x="208" y="98" width="84" height="84" filterUnits="userSpaceOnUse" color-interpolation-filters="sRGB">
<feFlood flood-opacity="0" result="BackgroundImageFix"/>
<feColorMatrix in="SourceAlpha" type="matrix" values="0 0 0 0 0 0 0 0 0 0 0 0 0 0 0 0 0 0 127 0" result="hardAlpha"/>
<feOffset/>
<feGaussianBlur stdDeviation="6"/>
<feColorMatrix type="matrix" values="0 0 0 0 0.184314 0 0 0 0 0.184314 0 0 0 0 0.184314 0 0 0 0.12 0"/>
<feBlend mode="normal" in2="BackgroundImageFix" result="effect1_dropShadow_1645_26211"/>
<feBlend mode="normal" in="SourceGraphic" in2="effect1_dropShadow_1645_26211" result="shape"/>
</filter>
</defs>
</svg>
