<svg width="111" height="59" viewBox="0 0 111 59" fill="none" xmlns="http://www.w3.org/2000/svg">
	<defs>
    <style type="text/css">

    .scale-up-center {
    	        animation: scale-up-center 0.5s ease-in-out infinite alternate-reverse both;
    }

    @keyframes scale-up-center {
      0% {
        -webkit-transform: scale(0.8);
                transform: scale(0.8);
                opacity:1;
      }
      100% {
        -webkit-transform: scale(0.65);
                transform: scale(0.65);
                opacity:0.4;
      }
    }
    </style>
  </defs>
  <g id="loader" stroke="none" stroke-width="1" fill="none" fill-rule="evenodd" class="scale-up-center">
  	<path d="M44.145 57.732H50.277V0.0435181L42.0615 2.57852V55.65C42.0615 56.7975 42.996 57.732 44.145 57.732Z" fill="white"/>
	<path d="M23.9775 38.0865L24.6855 37.6575C27.633 35.883 29.886 33.408 31.38 30.306C32.988 26.9655 33.75 23.196 33.7095 18.7755L33.696 15.03L25.4175 17.478L25.3125 20.8995C25.218 22.0395 25.125 23.118 24.9 24.1635C23.9385 28.614 21.4185 31.2975 17.1855 32.373C14.634 33.021 12.0495 32.985 9.3135 32.9505L8.34451 32.937V0H0V57.7905H8.397V40.644L9.171 40.6335C9.522 40.629 9.8775 40.626 10.2285 40.6215C12.0075 40.6005 13.8225 40.5825 15.621 40.4535L16.08 40.422L16.332 40.806C18.432 43.995 20.574 47.2065 22.6455 50.313C24.084 52.47 25.5225 54.63 26.955 56.79C27.426 57.5025 28.05 57.846 28.8645 57.846H28.9215C30.1035 57.822 31.3275 57.8265 32.406 57.831H32.5725C32.9655 57.8325 33.357 57.834 33.75 57.834L37.515 57.8445L36.879 56.976L23.9775 38.0865Z" fill="white"/>
	<path d="M103.497 48.7905C99.528 48.7905 96.3075 52.0095 96.3075 55.98C96.3075 56.6775 96.4095 57.348 96.5955 57.9855H110.399C110.583 57.348 110.685 56.6775 110.685 55.98C110.687 52.0095 107.469 48.7905 103.497 48.7905Z" fill="#FFC857"/>
	<path d="M65.9925 43.833V22.656L57.9615 24.693V43.833C57.9615 52.5795 63.927 58.689 72.4635 58.689C76.005 58.689 78.798 57.483 80.517 56.472L82.5495 55.278V58.0005H90.5805V22.704L82.5495 24.642V42.4575C82.5495 48.2025 79.3185 51.633 73.9095 51.633C69.2475 51.636 65.9925 48.429 65.9925 43.833Z" fill="white"/>
  </g>
</svg>
