<svg width="60" height="33" viewBox="0 0 60 33" fill="none" xmlns="http://www.w3.org/2000/svg">
<path d="M39.4147 27.7424C39.4147 31.1284 36.2168 32.6517 33.9464 32.6517C33.0517 32.6517 32.197 32.4526 31.4434 32.276C30.8416 32.1357 30.3227 32.0136 29.9193 32.0282C29.6867 32.0282 29.6867 32.0282 29.4447 32.2993L29.3154 32.4453H28.271V26.1623H29.6155L29.6853 26.5097C30.1323 28.7402 30.9571 31.0216 33.7022 31.0216C35.1921 31.0216 36.1166 30.2425 36.1166 28.9902C36.1166 28.044 35.6281 27.3463 34.5307 26.7278L32.5175 25.5838C30.2631 24.3098 28.2368 22.9376 28.2368 20.173C28.2368 17.4461 30.4331 15.4678 33.4609 15.4678C34.4806 15.4678 35.4879 15.7912 36.1587 16.0078C36.3368 16.0637 36.634 16.1597 36.6885 16.1626C36.7852 16.1626 36.8804 16.1008 36.9371 15.9983L37.0628 15.781H38.1174L38.2809 21.4041H36.9647L36.8898 21.0611C36.1398 17.5791 34.6623 17.1343 33.4609 17.1343C31.8424 17.1343 31.2566 18.2237 31.2566 18.9571C31.2566 19.8524 31.6752 20.5371 32.5364 21.0495L36.2902 23.2741C37.9989 24.3221 39.4147 25.3803 39.4147 27.7424ZM58.542 32.0449L58.1372 30.8537H57.8647V32.2629H58.0464V31.4308C58.0464 31.3981 58.0464 31.345 58.0427 31.2752C58.042 31.2055 58.0413 31.1517 58.0413 31.1175V31.0732L58.4476 32.2637H58.6351L59.0377 31.0732C59.0377 31.1502 59.0363 31.2229 59.0355 31.2876C59.0341 31.3552 59.0341 31.4017 59.0341 31.4308V32.2629H59.2143V30.8537H58.9432L58.542 32.0449ZM16.5095 29.4263L16.9761 29.39V30.72L11.3654 32.7048L10.8668 32.332V31.1015C9.82169 32.1263 8.44154 32.6517 6.7525 32.6517C6.06134 32.6517 0 32.4221 0 24.4413C0 22.1672 0.814716 19.8881 2.2363 18.1881C3.68259 16.4591 5.64562 15.4678 7.62028 15.4678C8.8638 15.4678 9.84858 15.7839 10.8661 16.5042V11.8739C10.8661 11.3455 10.8566 11.0112 10.6742 10.8469C10.5158 10.7045 10.0935 10.5591 8.98225 10.674L8.50476 10.7227V9.34831L8.83473 9.26546C10.8174 8.77707 13.2717 7.97324 13.8946 7.75085L14.0072 7.71015L14.0501 7.69489L14.649 7.93473V28.3281C14.649 28.7926 14.678 29.0549 14.8408 29.2061C15 29.3536 15.4179 29.5121 16.5095 29.4263ZM10.8668 20.5552C10.8668 18.9592 9.6916 17.308 7.72421 17.308C5.93779 17.308 3.85193 18.8858 3.85193 23.3323C3.85193 28.2395 6.19943 29.9816 8.2097 29.9816C9.51136 29.9816 10.6262 29.2606 10.8661 28.2671V20.5552H10.8668ZM56.5514 31.023H57.0252V32.2644H57.2207V31.023H57.6939V30.8544H56.5514V31.023ZM24.4292 16.321C24.4292 16.321 23.2816 16.627 22.4277 16.627C21.5759 16.627 20.5598 16.321 20.5598 16.321C20.5598 16.321 21.2205 17.8204 22.5185 17.8204C23.818 17.8204 24.4292 16.321 24.4292 16.321ZM22.5265 22.2704C24.2606 22.2704 25.0739 20.2696 25.0739 20.2696C25.0739 20.2696 23.6625 20.6323 22.5265 20.6323C21.3906 20.6323 19.9152 20.2696 19.9152 20.2696C19.9152 20.2696 20.7939 22.2704 22.5265 22.2704ZM22.536 26.8128C24.7207 26.8128 25.7461 24.3883 25.7461 24.3883C25.7461 24.3883 23.9684 24.9828 22.536 24.9828C21.1027 24.9828 19.2436 24.3883 19.2436 24.3883C19.2436 24.3883 20.3505 26.8128 22.536 26.8128ZM17.5481 28.4233C17.5481 28.4233 19.2327 31.9846 22.5578 31.9846C25.8828 31.9846 27.4417 28.4233 27.4417 28.4233C27.4417 28.4233 25.0383 29.6661 22.5578 29.6661C20.1492 29.6661 17.5481 28.4233 17.5481 28.4233ZM20.6645 13.1821C21.1507 13.5178 21.7423 13.7148 22.379 13.7148C22.379 13.7148 22.379 13.7148 22.3797 13.7148C24.0506 13.7141 25.4031 12.3601 25.4031 10.6907C25.4031 10.6601 25.4031 10.6296 25.4031 10.5991C25.3995 10.3905 25.3755 10.1863 25.3312 9.98933C37.3179 2.49333 49.4478 1.00126 53.6385 6.87872C55.4649 9.43843 55.4561 13.0106 53.9604 16.9628C54.3783 17.7172 54.632 18.6751 54.7214 19.8357C59.6337 13.0949 61.4143 6.87799 58.7942 3.20122C54.4924 -2.83032 39.8522 -0.101265 25.1306 9.38974C24.6465 8.33082 23.5716 7.60259 22.3325 7.62149C20.6638 7.6462 19.3294 9.02054 19.3548 10.6907C19.3548 10.6914 19.3548 10.6914 19.3548 10.6929C19.3548 11.5185 19.6863 12.2649 20.2212 12.8107C18.1731 14.3558 17.3366 15.2047 16.2268 16.313C17.5008 15.4126 18.897 14.4329 20.6645 13.1821ZM54.1821 28.4015V21.4223C54.1821 17.4722 52.5992 15.4685 49.4798 15.4685C47.7181 15.4685 46.109 16.2207 44.8088 17.6278V8.01831L44.2383 7.67527L44.1838 7.69925L44.0363 7.75812C43.3044 8.05828 40.4612 8.90643 39.1552 9.27055L38.8391 9.35921V10.727L39.3187 10.6747C39.6073 10.6427 39.8311 10.6427 40.1393 10.6427C40.462 10.6427 40.6909 10.7088 40.821 10.8426C41.039 11.0642 41.0325 11.5032 41.0274 11.8557L41.0252 12.0127V28.331C41.0252 30.5485 40.8879 30.7418 39.1916 30.9213L38.8042 30.962V32.3073H46.8525V30.9286L46.7806 30.922C45.2275 30.7556 44.8081 30.7113 44.8081 28.3667V20.1395C45.0036 19.8982 46.4339 18.2114 48.1927 18.2114C49.7182 18.2114 50.3992 19.2449 50.3992 21.5626V28.4015C50.3992 30.555 50.0264 30.8014 48.4391 30.9213L48.4064 30.9227V32.3065H56.2643V30.9889L55.9075 30.9271C54.3798 30.6546 54.1821 30.6189 54.1821 28.4015Z" fill="#203D5C"/>
</svg>
