<svg width="70" height="29" viewBox="0 0 70 29" fill="none" xmlns="http://www.w3.org/2000/svg">
<path d="M0 19.2231H4.35184V23.3344H0V19.2231ZM10.1545 4.11066H14.3864V0H10.1545V4.11066ZM65.6475 5.19846V9.30913H70V5.19846H65.6475ZM55.613 28.4104H59.9655V24.3003H55.613V28.4104ZM10.0156 23.2605H14.3693V9.23716H10.0156V23.2605ZM18.2376 9.23716H24.8869C25.9747 9.23716 27.6673 9.23716 27.6673 9.23716C27.6673 9.23716 26.7001 10.0832 26.0959 10.6873L17.9958 19.1499V23.2605H33.2281V19.2717H26.7001C25.128 19.2717 23.919 19.2717 23.919 19.2717C23.919 19.2717 24.7656 18.4251 25.6123 17.5791L33.3506 9.35774V5.24708H18.2376V9.23716ZM36.6134 9.11594H43.2627C44.8353 9.11594 46.0444 9.11594 46.0444 9.11594C46.0444 9.23652 45.1977 10.0832 44.3511 10.9298L36.6128 19.2717V23.5029H51.6046V19.3929H44.9553C43.7463 19.3929 42.053 19.3929 42.053 19.3929C42.053 19.3929 43.1421 18.545 43.7463 17.8202L51.847 9.23716V5.24708H36.6128V9.11594H36.6134ZM59.9471 5.24708H55.7159V19.2717H59.9471V5.24708Z" fill="#203D5C"/>
</svg>
