<svg width="50" height="39" viewBox="0 0 50 39" fill="none" xmlns="http://www.w3.org/2000/svg">
<path d="M22.2073 33.1061C22.1873 33.0402 22.1711 32.9716 22.1711 32.9209H21.4329C21.4329 32.9889 21.4174 33.0548 21.3967 33.1235L19.1334 38.2511C19.0971 38.3364 19.0602 38.4023 19.0077 38.4877H19.8516C19.8516 38.4016 19.8715 38.3184 19.8885 38.2511L20.4279 36.8337L22.4747 36.8511L23.0149 38.2511C23.0304 38.3364 23.0511 38.4197 23.0511 38.4877H24.5238C24.4506 38.3871 24.4159 38.3184 24.3789 38.2511L22.2073 33.1061ZM20.6622 36.328L21.4698 34.4722L22.2605 36.328H20.6622ZM18.342 37.9313C18.342 38.0659 18.3619 38.1678 18.4151 38.2677C17.7856 38.437 17.3378 38.5383 17.0511 38.5876C16.7607 38.6389 16.4215 38.6562 16.0262 38.6562C15.3072 38.6562 14.7146 38.5557 14.2668 38.3364C13.7259 38.0825 13.3144 37.7113 13.024 37.2229C12.7905 36.8004 12.6649 36.312 12.6649 35.7549C12.6649 34.7774 13.0439 34.0178 13.7984 33.478C14.4072 33.0409 15.1986 32.8203 16.2035 32.8203C16.7799 32.8203 17.8417 33.0555 18.2526 33.3608L17.9289 34.2717C17.6592 33.6979 16.8324 33.3608 16.222 33.3608C15.54 33.3608 15.1971 33.5467 14.7863 33.9179C14.5321 34.153 14.391 34.3723 14.2979 34.6588C14.173 34.9973 14.0673 35.3345 14.0673 35.7383C14.0673 36.5833 14.2092 37.1723 14.6769 37.5948C15.0723 37.9486 15.4114 38.2025 16.041 38.2025C16.4208 38.2025 16.7599 38.1172 17.1028 37.966V36.2954C17.1028 36.1955 17.0865 36.1095 17.0659 36.0262H18.3767C18.3405 36.1095 18.3405 36.1955 18.3405 36.2954V37.9313H18.342ZM47.3409 35.8909V37.8473H48.9221C49.0278 37.8473 49.1364 37.8307 49.2812 37.8133V38.505H45.9931C46.0093 38.4197 46.0293 38.3364 46.0293 38.2344V33.2588C46.0293 33.1242 46.0293 33.0409 45.9931 32.9723H49.2613V33.6473C49.1726 33.6126 49.064 33.6126 48.9746 33.6126H47.3409V35.2658H48.9384C49.064 35.2658 49.1918 35.2492 49.2812 35.2318V35.9069C49.1918 35.8916 49.0832 35.8916 48.9384 35.8916H47.3409V35.8909ZM11.6082 35.2658C11.7331 35.2658 11.858 35.2492 11.9474 35.2318V35.9069C11.858 35.8916 11.7486 35.8916 11.6082 35.8916H10.0062V37.848H11.5882C11.6969 37.848 11.8055 37.8314 11.9474 37.814V38.5057H8.67839C8.69464 38.4204 8.71533 38.3371 8.71533 38.2351V33.2595C8.69538 33.1249 8.67839 33.0416 8.65917 32.9729H11.9311V33.648C11.8387 33.6133 11.7331 33.6133 11.64 33.6133H10.0062V35.2665H11.6082V35.2658ZM7.69045 38.2337C7.69045 38.2851 7.72592 38.3697 7.76287 38.4703H6.32271C6.34266 38.419 6.34266 38.3871 6.34266 38.3524V38.2511L5.94734 34.826L4.18798 38.2337C4.15103 38.3191 4.15103 38.3871 4.15103 38.4363V38.4877H3.70029V38.4703C3.70029 38.4363 3.68403 38.3524 3.66408 38.2844L1.8323 34.7934L1.52934 38.2331V38.267C1.52934 38.2844 1.52934 38.3524 1.5456 38.4696H0.71875C0.754957 38.3517 0.774908 38.2671 0.791164 38.2164L1.58181 33.2074V33.1221V32.9702H2.40866C2.40866 33.0534 2.42491 33.1221 2.44486 33.1727L4.25669 36.7318L6.18084 33.1561C6.1971 33.1041 6.21778 33.0534 6.21778 33.0042V32.9528H7.02469V33.1554L7.69045 38.2337ZM26.5166 34.1697C26.1583 34.6088 26.0696 35.1146 26.0696 35.7882C26.0696 36.5132 26.3031 37.139 26.7147 37.5587C27.1299 37.9819 27.4691 38.1505 28.1511 38.1505C28.4578 38.1505 28.7275 38.0992 28.9418 38.0159C29.1753 37.9306 29.4295 37.7793 29.7162 37.5587V38.2844C29.3932 38.4016 29.1036 38.487 28.8531 38.5376C28.6026 38.5869 28.2959 38.6042 27.9531 38.6042C26.9127 38.6042 26.1213 38.369 25.5649 37.8959C24.9716 37.3894 24.6686 36.7491 24.6686 35.8042C24.6686 35.2131 24.7935 34.6408 25.0277 34.2696C25.5849 33.3927 26.5728 32.8016 28.0617 32.8016C28.6551 32.8182 29.3371 33.0881 29.8248 33.2387L29.5551 34.0497C29.2484 33.8471 29.1753 33.7125 28.9248 33.5266C28.7267 33.392 28.3314 33.324 28.0455 33.324C27.3073 33.3268 26.8964 33.7146 26.5166 34.1697ZM33.4167 33.1061C33.4004 33.0402 33.3797 32.9716 33.3797 32.9209H32.6452C32.6452 32.9889 32.626 33.0548 32.609 33.1235L30.3464 38.2511C30.3095 38.3364 30.2733 38.4023 30.2208 38.4877H31.0639C31.0639 38.4016 31.0802 38.3184 31.1009 38.2511L31.6381 36.8337L33.6871 36.8511L34.2243 38.2511C34.2442 38.3364 34.2605 38.4197 34.2605 38.4877H35.7339C35.6645 38.3871 35.6282 38.3184 35.592 38.2511L33.4167 33.1061ZM31.8546 36.328L32.6622 34.4722L33.4529 36.328H31.8546ZM39.993 35.7889C39.8113 35.689 39.5778 35.6203 39.2911 35.5697C39.5608 35.5031 39.7595 35.4351 39.8999 35.3671C40.3514 35.1493 40.5657 34.7955 40.5657 34.2897C40.5657 33.8159 40.3876 33.4621 40.0086 33.2255C39.6856 33.0243 39.2541 32.9223 38.7332 32.9223H36.5947C36.614 32.9903 36.631 33.0909 36.631 33.1929V38.2178C36.631 38.3198 36.631 38.4204 36.5947 38.4891H38.878C39.3095 38.4891 39.6687 38.3885 39.9923 38.2025C40.4593 37.9146 40.6898 37.5095 40.6898 36.9697C40.6913 36.4286 40.46 36.0255 39.993 35.7889ZM37.8916 35.4171V33.3427H38.4118C39.0051 33.3427 39.2911 33.6632 39.2911 34.3029C39.2911 34.7427 39.1824 35.0626 38.9519 35.2311C38.7864 35.3505 38.5366 35.4171 38.2292 35.4171H37.8709H37.8916ZM38.428 38.0485H37.8908V35.8229H38.2292C38.411 35.8229 38.5728 35.8403 38.6815 35.8743C38.7864 35.9069 38.895 35.9749 38.9837 36.0602C39.1817 36.2614 39.2903 36.5659 39.2903 36.9864C39.2911 37.6947 39.0044 38.0485 38.428 38.0485ZM44.6453 37.8473C44.7701 37.8473 44.8788 37.8307 44.9512 37.8133V38.4884H41.7524C41.7716 38.4023 41.7886 38.3191 41.7886 38.2344V33.2088C41.7886 33.1068 41.7724 33.0229 41.7524 32.9383H43.0995C43.0832 33.0236 43.0632 33.1068 43.0632 33.2088V37.8473H44.6453ZM40.6204 15.1641C40.6204 23.263 33.6243 29.8281 24.9996 29.8281C22.2486 29.8281 19.6632 29.1586 17.4161 27.9855C17.4072 27.998 16.9661 27.7822 16.9661 27.7822C21.2356 22.0177 29.4132 19.0165 32.6962 18.2985C32.6667 16.068 31.4785 15.2709 30.0915 14.2344C20.9548 17.1635 16.4563 24.9475 15.4816 26.7908C15.1875 26.5785 14.9008 26.3551 14.6193 26.1213C14.6178 26.1255 14.6156 26.1311 14.6134 26.1352C14.3961 25.9541 14.6008 26.1227 14.4087 25.943C14.3755 25.9132 14.3452 25.8834 14.3112 25.8556C15.809 22.3251 18.4957 18.3741 21.69 15.8287C25.0839 13.1182 28.5945 11.2582 33.3191 10.144C32.1014 7.27528 30.9125 6.66338 28.9905 5.65465C27.5748 6.05218 22.4238 8.36311 17.9526 13.2784C14.3718 17.2238 13.1548 22.4611 12.837 24.3634C12.3826 23.8347 11.9681 23.2769 11.5927 22.6921C12.571 15.5678 17.7597 10.0885 18.7735 9.00067C18.3486 8.04467 17.3873 7.35368 15.9161 7.00749C10.8937 12.7262 10.6011 18.8375 10.7082 21.0881C9.85401 19.2767 9.37888 17.2717 9.37888 15.1641C9.37888 7.06438 16.375 0.5 24.9996 0.5C33.6243 0.5 40.6204 7.06438 40.6204 15.1641Z" fill="#203D5C"/>
</svg>
