<svg width="60" height="23" viewBox="0 0 60 23" fill="none" xmlns="http://www.w3.org/2000/svg">
<path fill-rule="evenodd" clip-rule="evenodd" d="M52.0689 0.682517L46.6904 7.60154L42.9406 0.712319H36.1488L28.0308 10.0601L30.0327 0.712319H23.2346L22.8397 2.65398C19.0911 -0.267106 12.9142 0.0068332 12.9142 0.0068332C3.74921 0.469324 3.38357 6.92585 3.38357 6.92585C3.20763 8.11905 3.36581 9.10478 3.71884 9.91399L3.79793 10.0722C4.15095 10.8029 4.75386 11.3983 5.441 11.8855C6.24449 12.4087 7.5586 13.0477 9.6888 13.6323L9.76216 13.65C14.0037 14.6484 13.6197 15.8049 13.6197 15.8049C13.6197 17.801 9.9318 17.527 9.9318 17.527C5.93329 17.3144 3.85237 15.1722 3.85237 15.1722L0 19.5174C3.51138 23.1996 9.74325 22.9193 9.74325 22.9193C17.9649 23.1142 19.7845 17.2777 19.7845 17.2777L18.8286 22.2322H25.6691L27.3368 13.6397L32.1205 22.2075H40.2751L34.1716 11.9594L38.7117 6.93846L42.1864 12.9508L40.3542 22.1829H47.0738L48.7168 14.022L60 0.682517H52.0689ZM20.5393 13.7303C20.5393 13.7303 20.7399 9.98792 14.3871 8.65489L11.7703 8.04053C11.7703 8.04053 9.48192 7.72991 10.2247 6.33671C10.2247 6.33671 10.7055 4.27986 16.4623 5.83124C16.4623 5.83124 17.7282 6.12982 19.7364 7.3041L22.5056 4.04833L20.5393 13.7303Z" fill="#203D5C"/>
</svg>
