<svg width="60" height="30" viewBox="0 0 60 30" fill="none" xmlns="http://www.w3.org/2000/svg">
<path d="M19.8361 27.2758H25.3887V28.7648H17.7849V21.1998H19.8361V27.2758ZM8.92934 28.805H16.5365V27.2758H10.9437V25.4243L15.6914 25.4651V23.9353H10.9437V22.7304H16.5365V21.2005H8.92934V28.805ZM0 22.7297H3.01753V28.805H5.02856V22.7297H8.04675V21.1998H0V22.7297ZM31.3842 25.5851L29.6955 21.1998H26.1546V28.805H28.1643V22.7297L30.6598 28.805H32.1073L34.6825 22.7297V28.805H36.7344V21.1998H33.1546L31.3842 25.5851ZM55.3267 21.1998H52.8319L50.927 23.3295L49.0893 21.1998H46.5938L49.5777 24.8383L46.0315 28.8056H48.5238L50.7714 26.2943L52.8312 28.8056H55.6477L52.149 24.75L55.3267 21.1998ZM37.9439 28.805H45.5879V27.2758H39.9543V25.4243L44.7436 25.4651V23.9353H39.9543V22.7304H45.5879V21.2005H37.9439V28.805ZM27.9086 16.8647L35.4023 11.6391L38.698 16.8647H43.8623L37.4483 5.39504H32.3373V11.6391H23.5378V5.3377L18.3128 5.39504L11.9548 16.8647H17.1231L20.4708 11.583L27.9086 16.8647ZM17.7447 4.14532H24.7302V10.392H31.1429V4.14532H38.0145L38.698 5.3377H43.8623V0H11.9548V5.3377H17.1231L17.7447 4.14532ZM59.1023 28.8992L59.1148 28.9223H58.8241C58.8221 28.9157 58.8208 28.9091 58.8195 28.9032C58.8162 28.8966 58.8155 28.892 58.8142 28.8847L58.8069 28.8281V28.6863C58.8069 28.482 58.7509 28.3449 58.6389 28.2803C58.5743 28.2414 58.4583 28.2236 58.2882 28.2236H58.0404V28.923H57.7306V27.1486H58.3502C58.573 27.1486 58.7318 27.1683 58.8346 27.2112C59.0192 27.2876 59.1115 27.4392 59.1115 27.6607C59.1115 27.8196 59.0535 27.9369 58.9375 28.012C58.8762 28.0516 58.7911 28.0806 58.6817 28.0977C58.8208 28.1195 58.9216 28.1775 58.9856 28.2717C59.0515 28.3667 59.0838 28.4576 59.0838 28.5473V28.6764C59.0838 28.7173 59.0851 28.7608 59.0884 28.8083C59.0924 28.8538 59.0963 28.8854 59.1023 28.8992ZM58.8063 27.6858C58.8063 27.5572 58.7681 27.4702 58.6903 27.4261C58.6086 27.3819 58.484 27.3608 58.31 27.3608H58.041V28.0028H58.3245C58.4583 28.0028 58.5571 27.989 58.6244 27.9626C58.7483 27.9138 58.8063 27.8222 58.8063 27.6858ZM60 28.0384C60 28.4866 59.8438 28.8676 59.5287 29.1846C59.2123 29.5017 58.83 29.6612 58.3811 29.6612C57.9349 29.6612 57.5533 29.5023 57.2402 29.1846C56.9251 28.8689 56.7709 28.4873 56.7709 28.0384C56.7709 27.5935 56.9264 27.2125 57.2428 26.8974C57.5586 26.583 57.9382 26.4255 58.3818 26.4255C58.8313 26.4255 59.213 26.583 59.5294 26.8974C59.8438 27.2112 60 27.5908 60 28.0384ZM59.7693 28.041C59.7693 27.6554 59.6355 27.3265 59.3646 27.055C59.095 26.7821 58.7668 26.6443 58.3805 26.6443C57.9969 26.6443 57.6719 26.7821 57.3997 27.055C57.1288 27.3272 56.9943 27.6554 56.9943 28.041C56.9943 28.4299 57.1275 28.7582 57.3964 29.033C57.668 29.3046 57.9956 29.4437 58.3805 29.4437C58.7674 29.4437 59.0963 29.3046 59.3646 29.033C59.6355 28.7582 59.7693 28.4299 59.7693 28.041Z" fill="#203D5C"/>
</svg>
