<svg width="58" height="17" viewBox="0 0 58 17" fill="none" xmlns="http://www.w3.org/2000/svg">
<path d="M4.2769 3.80355L0.819178 5.78629C0.480846 5.97983 0.09375 5.73802 0.09375 5.37556V1.38596C0.09375 1.02299 0.480846 0.781185 0.819178 0.974733L4.2769 2.9816C4.5911 3.17515 4.5911 3.63413 4.2769 3.80355ZM4.2769 8.18024L0.819178 6.17338C0.480846 5.97983 0.09375 6.22164 0.09375 6.58461V10.5742C0.09375 10.9372 0.480846 11.179 0.819178 10.9854L4.2769 9.0027C4.5911 8.83278 4.5911 8.37379 4.2769 8.18024ZM4.2769 13.3789L0.819178 11.372C0.480846 11.1785 0.09375 11.4203 0.09375 11.7832V15.7729C0.09375 16.1353 0.480846 16.3771 0.819178 16.1836L4.2769 14.2008C4.5911 14.0319 4.5911 13.5719 4.2769 13.3789ZM8.82251 5.44795L5.36479 3.44109C5.02646 3.24754 4.63936 3.48935 4.63936 3.85232V7.84191C4.63936 8.22901 5.02646 8.44619 5.36479 8.25264L8.82251 6.2699C9.13721 6.10099 9.13721 5.6415 8.82251 5.44795ZM13.6587 8.18024L10.201 6.17338C9.86264 5.97983 9.47554 6.22164 9.47554 6.58461V10.5742C9.47554 10.9372 9.86264 11.179 10.201 10.9854L13.6587 9.0027C13.9729 8.83278 13.9729 8.37379 13.6587 8.18024ZM8.82251 10.7673L5.36479 8.76039C5.02646 8.56684 4.63936 8.80865 4.63936 9.17111V13.1607C4.63936 13.5237 5.02646 13.7655 5.36479 13.5719L8.82251 11.5892C9.13721 11.4203 9.13721 10.9608 8.82251 10.7673ZM52.4909 10.4601L51.5478 11.4027C51.5478 11.4027 50.8465 11.4268 50.6776 10.7014C49.831 11.2574 49.541 11.4027 48.6949 11.4027C47.8247 11.4027 46.8574 10.9191 46.8574 9.71003C46.8574 8.50098 47.7523 7.63077 50.4358 7.63077C50.4604 7.31657 50.6052 6.6394 49.638 6.66353C48.6708 6.68766 47.7276 7.14715 47.4622 7.26831L46.9786 6.17992C46.9786 6.17992 48.2359 5.50275 49.7586 5.50275C51.2819 5.50275 51.9837 6.15528 51.9837 7.46135V9.56474C51.9832 10.0489 52.128 10.1941 52.4909 10.4601ZM50.4353 8.52562C48.6702 8.47735 48.4043 9.22691 48.4043 9.61351C48.4043 10.0001 48.6702 10.3872 49.2509 10.3872C49.8315 10.3872 50.4353 9.95184 50.4353 9.95184V8.52562ZM37.6451 9.6864V3.90762L36.073 3.32747C36.0977 3.32747 36.0977 9.58988 36.0977 9.95234C36.0977 10.2907 36.0977 10.9196 36.6296 11.2096C37.1619 11.4997 38.467 11.2579 38.467 11.2579V10.0489H38.0075C37.814 10.0489 37.6451 9.87995 37.6451 9.6864ZM28.5292 3.6658L26.9818 4.12529V5.62441H26.0387V6.90585H26.9818V9.75879C26.9818 11.6691 28.4086 11.4032 28.7951 11.4032C29.2788 11.4032 29.8589 11.2825 29.8589 11.2825V10.0976H28.9887C28.7228 10.0976 28.5292 9.87995 28.5292 9.63814V6.90585H29.8594V6.88171V5.60028H28.5292V3.6658ZM36.0248 10.436L35.0817 11.3791C35.0817 11.3791 34.3804 11.4032 34.2115 10.6778C33.3649 11.2338 33.0748 11.3791 32.2287 11.3791C31.3585 11.3791 30.3913 10.8954 30.3913 9.6864C30.3913 8.47735 31.2861 7.60714 33.9702 7.60714C33.9943 7.29294 34.1391 6.61578 33.1718 6.63991C32.2046 6.66404 31.2861 7.12352 30.9961 7.24468L30.5124 6.15629C30.5124 6.15629 31.7697 5.47912 33.293 5.47912C34.8157 5.47912 35.5175 6.13216 35.5175 7.43773V9.54161C35.517 10.0247 35.6618 10.17 36.0248 10.436ZM33.9938 8.50148C32.2282 8.45322 31.9628 9.20278 31.9628 9.58988C31.9628 9.97697 32.2282 10.3636 32.8094 10.3636C33.3895 10.3636 33.9938 9.92821 33.9938 9.92821V8.50148ZM21.7832 4.46362V3.7382H15.8108C15.6173 4.41536 15.3272 5.14079 15.3514 5.14079H17.9866V11.2825H19.631V5.14079H21.1543C21.6379 5.14029 21.7832 4.85022 21.7832 4.46362ZM26.1352 8.33257C26.1352 10.4601 24.9745 11.4515 23.2823 11.4515C21.5901 11.4515 20.2841 10.436 20.2841 8.45323C20.2841 6.44636 21.6379 5.45499 23.2823 5.45499C24.6608 5.45499 26.1352 6.20455 26.1352 8.33257ZM24.5637 8.38083C24.5637 7.027 23.8383 6.68817 23.2099 6.68817C22.4121 6.68817 21.9285 7.29244 21.9285 8.45323C21.9285 9.61401 22.4121 10.2183 23.2099 10.2183C24.0077 10.2183 24.5637 9.73466 24.5637 8.38083ZM45.7932 9.6864V3.90762L44.2217 3.32747C44.2458 3.32747 44.2458 9.58988 44.2458 9.95234C44.2458 10.2907 44.2458 10.9196 44.7782 11.2096C45.3101 11.4997 46.7368 11.2579 46.7368 11.2579V10.0489H46.1566C45.9626 10.0489 45.7932 9.87995 45.7932 9.6864ZM43.9552 9.25104C43.7858 10.2183 43.1574 11.282 41.9242 11.3786C40.6911 11.4751 40.4492 11.0402 40.0868 10.7255V12.4423L38.5153 13.7725V5.59978H39.8932L39.9661 6.20455C39.9661 6.20455 40.5945 5.14029 42.3355 5.52738C44.0764 5.91448 44.1246 8.28381 43.9552 9.25104ZM42.3355 8.2838C42.3355 7.19541 41.9484 6.73643 41.1747 6.73643C40.401 6.73643 40.0626 7.22005 40.0626 7.6554V9.10626C40.0626 9.54162 40.2803 10.2424 41.1993 10.2424C42.1178 10.2424 42.3355 9.37169 42.3355 8.2838ZM56.2141 5.62441L54.9085 9.46872L53.6025 5.62441H51.8374L54.1102 11.1855C54.1102 11.2579 53.989 11.4756 53.9649 11.5238C53.9167 11.6691 53.7955 11.9109 53.7236 12.0557C53.5542 12.3217 53.3606 12.4428 53.0706 12.4911C52.9977 12.5152 52.2481 12.5393 52.2481 12.4428V13.773C54.5451 14.0872 55.0045 13.0717 55.3429 12.1528C55.6817 11.2338 57.9063 5.62441 57.9063 5.62441H56.2141Z" fill="#203D5C"/>
</svg>
