<svg width="24" height="24" viewBox="0 0 24 24" fill="none" xmlns="http://www.w3.org/2000/svg">
<g clip-path="url(#clip0_5064_16021)">
<path fill-rule="evenodd" clip-rule="evenodd" d="M12 19C16.2537 19 19.7537 16.8333 22.5 12.5C19.7537 8.16667 16.2537 6 12 6C7.74626 6 4.24626 8.16667 1.5 12.5C4.24626 16.8333 7.74626 19 12 19ZM12 16C13.933 16 15.5 14.433 15.5 12.5C15.5 10.567 13.933 9 12 9C10.067 9 8.5 10.567 8.5 12.5C8.5 14.433 10.067 16 12 16Z" stroke="#CECECE" stroke-width="1.5" stroke-linecap="round" stroke-linejoin="round"/>
</g>
<path d="M3 21L20 4" stroke="#CECECE" stroke-width="1.5" stroke-linecap="round" stroke-linejoin="round"/>
<defs>
<clipPath id="clip0_5064_16021">
<rect width="24" height="15" fill="white" transform="translate(0 5)"/>
</clipPath>
</defs>
</svg>
