<svg width="105" height="80" viewBox="0 0 105 80" fill="none" xmlns="http://www.w3.org/2000/svg">
<path d="M10.6998 64.2L6.42983 74H4.63783L0.353828 64.2H2.32783L5.58983 71.76L8.87983 64.2H10.6998ZM14.3654 74.098C13.6094 74.098 12.9281 73.9347 12.3214 73.608C11.7148 73.2813 11.2388 72.8287 10.8934 72.25C10.5574 71.662 10.3894 70.9993 10.3894 70.262C10.3894 69.5247 10.5574 68.8667 10.8934 68.288C11.2388 67.7093 11.7148 67.2567 12.3214 66.93C12.9281 66.6033 13.6094 66.44 14.3654 66.44C15.1308 66.44 15.8168 66.6033 16.4234 66.93C17.0301 67.2567 17.5014 67.7093 17.8374 68.288C18.1828 68.8667 18.3554 69.5247 18.3554 70.262C18.3554 70.9993 18.1828 71.662 17.8374 72.25C17.5014 72.8287 17.0301 73.2813 16.4234 73.608C15.8168 73.9347 15.1308 74.098 14.3654 74.098ZM14.3654 72.6C15.0094 72.6 15.5414 72.3853 15.9614 71.956C16.3814 71.5267 16.5914 70.962 16.5914 70.262C16.5914 69.562 16.3814 68.9973 15.9614 68.568C15.5414 68.1387 15.0094 67.924 14.3654 67.924C13.7214 67.924 13.1894 68.1387 12.7694 68.568C12.3588 68.9973 12.1534 69.562 12.1534 70.262C12.1534 70.962 12.3588 71.5267 12.7694 71.956C13.1894 72.3853 13.7214 72.6 14.3654 72.6ZM20.0289 63.612H21.7789V74H20.0289V63.612ZM31.0757 66.524L27.8697 74H26.0637L22.8577 66.524H24.6777L27.0017 72.068L29.3957 66.524H31.0757ZM38.9924 70.304C38.9924 70.4253 38.9831 70.598 38.9644 70.822H33.0984C33.2011 71.3727 33.4671 71.8113 33.8964 72.138C34.3351 72.4553 34.8764 72.614 35.5204 72.614C36.3417 72.614 37.0184 72.3433 37.5504 71.802L38.4884 72.88C38.1524 73.2813 37.7277 73.5847 37.2144 73.79C36.7011 73.9953 36.1224 74.098 35.4784 74.098C34.6571 74.098 33.9337 73.9347 33.3084 73.608C32.6831 73.2813 32.1977 72.8287 31.8524 72.25C31.5164 71.662 31.3484 70.9993 31.3484 70.262C31.3484 69.534 31.5117 68.8807 31.8384 68.302C32.1744 67.714 32.6364 67.2567 33.2244 66.93C33.8124 66.6033 34.4751 66.44 35.2124 66.44C35.9404 66.44 36.5891 66.6033 37.1584 66.93C37.7371 67.2473 38.1851 67.7 38.5024 68.288C38.8291 68.8667 38.9924 69.5387 38.9924 70.304ZM35.2124 67.84C34.6524 67.84 34.1764 68.008 33.7844 68.344C33.4017 68.6707 33.1684 69.1093 33.0844 69.66H37.3264C37.2517 69.1187 37.0231 68.68 36.6404 68.344C36.2577 68.008 35.7817 67.84 35.2124 67.84ZM42.3394 67.616C42.8434 66.832 43.7301 66.44 44.9994 66.44V68.106C44.8501 68.078 44.7147 68.064 44.5934 68.064C43.9121 68.064 43.3801 68.2647 42.9974 68.666C42.6147 69.058 42.4234 69.6273 42.4234 70.374V74H40.6734V66.524H42.3394V67.616ZM53.2774 66.44C54.3788 66.44 55.2188 66.706 55.7974 67.238C56.3854 67.7607 56.6794 68.554 56.6794 69.618V74H55.0274V73.09C54.8128 73.4167 54.5048 73.6687 54.1034 73.846C53.7114 74.014 53.2354 74.098 52.6754 74.098C52.1154 74.098 51.6254 74.0047 51.2054 73.818C50.7854 73.622 50.4588 73.356 50.2254 73.02C50.0014 72.6747 49.8894 72.2873 49.8894 71.858C49.8894 71.186 50.1368 70.6493 50.6314 70.248C51.1354 69.8373 51.9241 69.632 52.9974 69.632H54.9294V69.52C54.9294 68.9973 54.7708 68.596 54.4534 68.316C54.1454 68.036 53.6834 67.896 53.0674 67.896C52.6474 67.896 52.2321 67.9613 51.8214 68.092C51.4201 68.2227 51.0794 68.4047 50.7994 68.638L50.1134 67.364C50.5054 67.0653 50.9768 66.8367 51.5274 66.678C52.0781 66.5193 52.6614 66.44 53.2774 66.44ZM53.0394 72.824C53.4781 72.824 53.8654 72.726 54.2014 72.53C54.5468 72.3247 54.7894 72.0353 54.9294 71.662V70.794H53.1234C52.1154 70.794 51.6114 71.1253 51.6114 71.788C51.6114 72.1053 51.7374 72.3573 51.9894 72.544C52.2414 72.7307 52.5914 72.824 53.0394 72.824ZM58.9253 63.612H60.6753V74H58.9253V63.612ZM66.8414 66.524H68.5914V74H66.8414V66.524ZM67.7234 65.292C67.406 65.292 67.14 65.194 66.9254 64.998C66.7107 64.7927 66.6034 64.5407 66.6034 64.242C66.6034 63.9433 66.7107 63.696 66.9254 63.5C67.14 63.2947 67.406 63.192 67.7234 63.192C68.0407 63.192 68.3067 63.29 68.5214 63.486C68.736 63.6727 68.8434 63.9107 68.8434 64.2C68.8434 64.508 68.736 64.7693 68.5214 64.984C68.316 65.1893 68.05 65.292 67.7234 65.292ZM75.1302 66.44C76.0729 66.44 76.8289 66.7153 77.3982 67.266C77.9676 67.8167 78.2522 68.6333 78.2522 69.716V74H76.5022V69.94C76.5022 69.2867 76.3482 68.7967 76.0402 68.47C75.7322 68.134 75.2936 67.966 74.7242 67.966C74.0802 67.966 73.5716 68.162 73.1982 68.554C72.8249 68.9367 72.6382 69.492 72.6382 70.22V74H70.8882V66.524H72.5542V67.49C72.8436 67.1447 73.2076 66.8833 73.6462 66.706C74.0849 66.5287 74.5796 66.44 75.1302 66.44ZM80.4722 66.524H82.2222V74H80.4722V66.524ZM81.3542 65.292C81.0369 65.292 80.7709 65.194 80.5562 64.998C80.3416 64.7927 80.2342 64.5407 80.2342 64.242C80.2342 63.9433 80.3416 63.696 80.5562 63.5C80.7709 63.2947 81.0369 63.192 81.3542 63.192C81.6716 63.192 81.9376 63.29 82.1522 63.486C82.3669 63.6727 82.4742 63.9107 82.4742 64.2C82.4742 64.508 82.3669 64.7693 82.1522 64.984C81.9469 65.1893 81.6809 65.292 81.3542 65.292ZM87.9491 74.098C87.1744 74.098 86.4791 73.9347 85.8631 73.608C85.2471 73.2813 84.7664 72.8287 84.4211 72.25C84.0758 71.662 83.9031 70.9993 83.9031 70.262C83.9031 69.5247 84.0758 68.8667 84.4211 68.288C84.7664 67.7093 85.2424 67.2567 85.8491 66.93C86.4651 66.6033 87.1651 66.44 87.9491 66.44C88.6864 66.44 89.3304 66.5893 89.8811 66.888C90.4411 67.1867 90.8611 67.616 91.1411 68.176L89.7971 68.96C89.5824 68.6147 89.3118 68.358 88.9851 68.19C88.6678 68.0127 88.3178 67.924 87.9351 67.924C87.2818 67.924 86.7404 68.1387 86.3111 68.568C85.8818 68.988 85.6671 69.5527 85.6671 70.262C85.6671 70.9713 85.8771 71.5407 86.2971 71.97C86.7264 72.39 87.2724 72.6 87.9351 72.6C88.3178 72.6 88.6678 72.516 88.9851 72.348C89.3118 72.1707 89.5824 71.9093 89.7971 71.564L91.1411 72.348C90.8518 72.908 90.4271 73.342 89.8671 73.65C89.3164 73.9487 88.6771 74.098 87.9491 74.098ZM92.6539 66.524H94.4039V74H92.6539V66.524ZM93.5359 65.292C93.2185 65.292 92.9525 65.194 92.7379 64.998C92.5232 64.7927 92.4159 64.5407 92.4159 64.242C92.4159 63.9433 92.5232 63.696 92.7379 63.5C92.9525 63.2947 93.2185 63.192 93.5359 63.192C93.8532 63.192 94.1192 63.29 94.3339 63.486C94.5485 63.6727 94.6559 63.9107 94.6559 64.2C94.6559 64.508 94.5485 64.7693 94.3339 64.984C94.1285 65.1893 93.8625 65.292 93.5359 65.292ZM100.061 74.098C99.3047 74.098 98.6234 73.9347 98.0167 73.608C97.4101 73.2813 96.9341 72.8287 96.5887 72.25C96.2527 71.662 96.0847 70.9993 96.0847 70.262C96.0847 69.5247 96.2527 68.8667 96.5887 68.288C96.9341 67.7093 97.4101 67.2567 98.0167 66.93C98.6234 66.6033 99.3047 66.44 100.061 66.44C100.826 66.44 101.512 66.6033 102.119 66.93C102.725 67.2567 103.197 67.7093 103.533 68.288C103.878 68.8667 104.051 69.5247 104.051 70.262C104.051 70.9993 103.878 71.662 103.533 72.25C103.197 72.8287 102.725 73.2813 102.119 73.608C101.512 73.9347 100.826 74.098 100.061 74.098ZM100.061 72.6C100.705 72.6 101.237 72.3853 101.657 71.956C102.077 71.5267 102.287 70.962 102.287 70.262C102.287 69.562 102.077 68.9973 101.657 68.568C101.237 68.1387 100.705 67.924 100.061 67.924C99.4167 67.924 98.8847 68.1387 98.4647 68.568C98.0541 68.9973 97.8487 69.562 97.8487 70.262C97.8487 70.962 98.0541 71.5267 98.4647 71.956C98.8847 72.3853 99.4167 72.6 100.061 72.6Z" fill="white"/>
<circle cx="49" cy="25" r="25" fill="#FFC857"/>
<path d="M41 25H57" stroke="white" stroke-width="1.5" stroke-linecap="round" stroke-linejoin="round"/>
<path d="M46.3333 30.333L41 24.9997L46.3333 19.6663" stroke="white" stroke-width="1.5" stroke-linecap="round" stroke-linejoin="round"/>
</svg>
