<svg width="40" height="40" viewBox="0 0 40 40" fill="none" xmlns="http://www.w3.org/2000/svg">
<path fill-rule="evenodd" clip-rule="evenodd" d="M18.002 28H22.0063V23.9951H18.002V28Z" fill="#EC1D24"/>
<path fill-rule="evenodd" clip-rule="evenodd" d="M24.0818 12.0058H14.0017V16.0061H19.3211C20.5145 14.2644 22.1605 12.8813 24.0818 12.0058Z" fill="#F4811F"/>
<path fill-rule="evenodd" clip-rule="evenodd" d="M22.3862 20.0018C22.6911 19.1279 23.169 18.3244 23.7915 17.6394C24.414 16.9545 25.1682 16.402 26.0091 16.0152V12C22.1886 13.05 19.2077 16.1267 18.2932 20.0018H22.3862Z" fill="#ED2525"/>
<path fill-rule="evenodd" clip-rule="evenodd" d="M18.0094 24.0057L18.002 27.9995H22.0012L22.0063 24.0057H18.0094Z" fill="#ED2525"/>
<path fill-rule="evenodd" clip-rule="evenodd" d="M23.032 24.4638C23.0863 24.4638 23.1166 24.4372 23.1166 24.3923C23.1166 24.3454 23.0863 24.3189 23.032 24.3189H22.969V24.4638H23.032ZM22.969 24.7246H22.8775V24.2391H23.0451C23.1395 24.2391 23.2095 24.3054 23.2095 24.3912C23.2095 24.4234 23.1992 24.4548 23.18 24.4806C23.1609 24.5065 23.1339 24.5256 23.1032 24.535L23.2118 24.7246H23.1069L23.0054 24.5436H22.969V24.7246ZM23.0248 24.8444C23.2181 24.8444 23.3702 24.6886 23.3702 24.4856C23.3702 24.2825 23.2181 24.1281 23.0248 24.1281C22.8315 24.1281 22.6791 24.2825 22.6791 24.4856C22.6791 24.6886 22.8315 24.8444 23.0248 24.8444ZM23.0248 24.0398C23.2699 24.0398 23.468 24.2402 23.468 24.4856C23.4682 24.6035 23.4217 24.7168 23.3387 24.8005C23.2556 24.8843 23.1428 24.9317 23.0248 24.9325C22.7806 24.9325 22.585 24.7306 22.585 24.4856C22.585 24.2402 22.7806 24.0395 23.0248 24.0395V24.0398Z" fill="#007F5F"/>
<path fill-rule="evenodd" clip-rule="evenodd" d="M16.7087 20.6067H15.8566V23.4253H17.4433V22.8196H16.7084V20.6067H16.7087ZM21.9852 23.4253H23.5716V22.8196H22.8368V22.2409H23.5716V21.7125H22.8368V21.2347H23.5716V20.6067H21.9852V23.4253ZM17.7138 23.4253H19.3002V22.8196H18.5653V22.2409H19.3002V21.7125H18.5653V21.2347H19.3002V20.6067H17.7138V23.4253ZM14 23.425H15.5864V22.8196H14.8515V22.2409H15.5864V21.7125H14.8515V21.2347H15.5864V20.6067H14V23.4253V23.425ZM25.2687 20.6076C25.0002 20.6076 24.8495 20.6676 24.694 20.7669V20.6079H23.8418V23.4253H24.694V21.5069C24.694 21.3896 24.7895 21.2941 24.9067 21.2941H24.9439C25.0608 21.2941 25.1563 21.3899 25.1563 21.5069V23.4253H26.0079V21.4874C26.0079 20.8864 25.7359 20.6076 25.2687 20.6076ZM21.7582 20.6027L21.1162 23.421H20.1692L19.527 20.6027H20.3059L20.6427 22.5065L20.9796 20.6027H21.7582Z" fill="#008062"/>
</svg>
