<svg width="40" height="40" viewBox="0 0 40 40" fill="none" xmlns="http://www.w3.org/2000/svg">
<path d="M21.3221 14.8284H21.7719V15.0526C21.7719 15.0526 21.8579 14.7815 22.0926 14.8227V15.4462C22.0926 15.4462 21.7828 15.424 21.7828 15.7236V16.9542H21.3167L21.3221 14.8284Z" fill="#243588"/>
<path d="M22.3547 14.8276H22.7649V14.9631C22.7649 14.9631 22.7787 14.9986 22.8007 14.9574C22.8226 14.9162 22.9257 14.782 23.09 14.782C23.2543 14.782 23.396 14.9574 23.396 14.9574C23.396 14.9574 23.4104 14.9802 23.4288 14.9764C23.4346 14.9755 23.4399 14.973 23.4443 14.9692C23.4486 14.9655 23.4518 14.9605 23.4535 14.955C23.4535 14.955 23.5571 14.7793 23.7596 14.7793C23.9621 14.7793 24.1356 15.0211 24.1356 15.2651V16.9547H23.7512V15.4658C23.7512 15.4658 23.762 15.2535 23.6015 15.2535C23.441 15.2535 23.4481 15.479 23.4481 15.479V16.9542H23.0563V15.4658C23.0563 15.4658 23.0764 15.2535 22.9232 15.2535C22.77 15.2535 22.792 15.4658 22.792 15.4658V16.9547H22.3561L22.3547 14.8276Z" fill="#243588"/>
<path d="M27.0452 15.6562H26.6689V15.4665C26.6689 15.4665 26.6732 15.2341 26.535 15.2341C26.3967 15.2341 26.3867 15.4719 26.3867 15.4719V16.3237C26.3867 16.3237 26.3994 16.5135 26.535 16.5135C26.6705 16.5135 26.6648 16.3413 26.6648 16.3413V16.1442H27.0541V16.6225C27.0541 16.6225 27.0357 16.9771 26.5076 16.9771C25.9794 16.9771 25.9691 16.575 25.9691 16.575V15.323C25.9691 15.323 25.9588 14.7857 26.5203 14.7857C27.0818 14.7857 27.0498 15.2298 27.0498 15.2298L27.0452 15.6562Z" fill="#243588"/>
<path d="M27.3419 14.8231H27.8247V16.9611H27.3394L27.3419 14.8231Z" fill="#243588"/>
<path d="M27.8272 14.1327H27.3541V14.6798H27.8272V14.1327Z" fill="#243588"/>
<path d="M30.3421 15.5519H30.7086V15.1453C30.7086 15.1453 30.6989 14.7863 30.1846 14.7863C29.6703 14.7863 29.6694 15.2393 29.6694 15.2393C29.6694 15.2393 29.6187 15.7718 29.8882 15.9627C30.041 16.0692 30.1824 16.1912 30.3101 16.3268C30.3101 16.3268 30.4185 16.6396 30.1854 16.6396C29.9522 16.6396 30.0273 16.3121 30.0273 16.3121H29.6694V16.6868C29.6694 16.6868 29.6844 16.985 30.1756 16.985C30.6669 16.985 30.7322 16.7052 30.7322 16.6171C30.7322 16.529 30.8013 16.066 30.5375 15.8941C30.5375 15.8941 30.0552 15.5761 30.0552 15.4223C30.0552 15.2686 30.0647 15.1694 30.2035 15.1694C30.3423 15.1694 30.347 15.2757 30.3421 15.5519Z" fill="#243588"/>
<path d="M32.5663 16.8591V16.9578H32.9138V14.1456H32.5153V15.031C32.5153 15.031 32.3849 14.7238 32.1211 14.7895C31.7744 14.8743 31.8058 15.4306 31.8058 15.4306V16.562C31.8058 16.562 31.8058 16.8729 32.0422 16.9521C32.3101 17.0408 32.5663 16.8591 32.5663 16.8591ZM32.2461 16.2898V15.5646C32.2461 15.5646 32.2233 15.3558 32.3817 15.3558C32.54 15.3558 32.502 15.5727 32.502 15.5727V16.3153C32.502 16.3153 32.5291 16.4953 32.3765 16.4953C32.2239 16.4953 32.2461 16.2887 32.2461 16.2887V16.2898Z" fill="#243588"/>
<path d="M33.9829 16.2407V16.4782C33.9829 16.4782 34.0081 16.6408 33.862 16.636C33.7099 16.6311 33.7313 16.5058 33.7313 16.5058V16.0574H34.3901V15.3962C34.3901 15.3962 34.4191 14.7845 33.862 14.7845C33.3048 14.7845 33.2926 15.3916 33.2926 15.3916V16.556C33.2926 16.556 33.3019 16.9811 33.8544 16.9811C34.4069 16.9811 34.4058 16.6625 34.4058 16.6625V16.2407H33.9829ZM33.718 15.4661C33.718 15.4661 33.7232 15.2937 33.872 15.2937C34.0208 15.2937 34.029 15.4474 34.029 15.4474V15.6985H33.7145L33.718 15.4661Z" fill="#243588"/>
<path d="M35.2241 14.1456H34.7595V16.9605H35.2241V14.1456Z" fill="#243588"/>
<path d="M18.9777 23.2391H20.173L19.9914 18.2916H18.5003L16.0169 23.2375H17.2122L17.7577 22.2011H18.9777V23.2391ZM18.3503 21.1941L18.8112 20.1468L18.8611 21.1941H18.3503Z" fill="#243588"/>
<path d="M21.2098 18.2899H22.3729L22.2325 19.7672C22.2325 19.7672 22.2325 19.7919 22.2894 19.7672C22.3463 19.7425 22.9843 19.54 23.3706 19.7919C23.7751 20.0565 23.7987 20.2452 23.7572 20.5588C23.7157 20.8725 23.3904 23.2369 23.3904 23.2369H22.178L22.496 20.8142C22.496 20.8142 22.5372 20.5507 22.3645 20.5507C22.1918 20.5507 22.1338 20.7736 22.1338 20.7736L21.7786 23.2385H20.6167L21.2098 18.2899Z" fill="#243588"/>
<path d="M27.8015 19.7597H28.9402L28.9147 19.8752C28.92 19.8818 28.9269 19.8869 28.9347 19.8902C28.9424 19.8935 28.9509 19.8948 28.9593 19.8941C28.9677 19.8933 28.9758 19.8905 28.9829 19.8859C28.99 19.8813 28.9958 19.875 28.9999 19.8676C29.0392 19.8099 29.3938 19.5786 29.8384 19.8015L29.7148 20.8073C29.7148 20.8073 28.841 20.7333 28.7583 21.4016C28.6756 22.0698 28.556 23.2381 28.556 23.2381H27.3594L27.8015 19.7597Z" fill="#243588"/>
<path d="M30.1735 19.7597H31.3121L31.2866 19.8752C31.2919 19.8818 31.2987 19.8869 31.3064 19.8902C31.3142 19.8935 31.3226 19.8948 31.331 19.8941C31.3393 19.8933 31.3474 19.8905 31.3544 19.8859C31.3614 19.8813 31.3672 19.875 31.3712 19.8676C31.4111 19.8099 31.7651 19.5786 32.2103 19.8015L32.0867 20.8073C32.0867 20.8073 31.2134 20.7333 31.1299 21.4016C31.0464 22.0698 30.9277 23.2381 30.9277 23.2381H29.7329L30.1735 19.7597Z" fill="#243588"/>
<path d="M26.7462 22.5305C26.936 22.1672 27.0095 21.2546 27.0192 20.9469C27.0279 20.6671 26.9938 19.6185 25.8502 19.6456C24.7067 19.6727 24.4133 20.2385 24.252 20.5115C24.0351 20.8797 23.9779 22.2675 23.9779 22.2675C24.0113 22.6712 24.3033 23.3633 25.3449 23.3633C26.3865 23.3633 26.5551 22.8924 26.7462 22.5305ZM25.3327 22.4389C25.0914 22.4085 25.1657 22.0303 25.1657 22.0303L25.3221 20.9765C25.3221 20.9765 25.4159 20.5872 25.6675 20.6219C25.9191 20.6566 25.8556 21.031 25.8556 21.031C25.8556 21.031 25.7586 21.9232 25.6829 22.148C25.6073 22.3727 25.5745 22.4684 25.3327 22.4391V22.4389Z" fill="#243588"/>
<path d="M34.8783 22.5305C35.0681 22.1672 35.1432 21.2546 35.1513 20.9469C35.16 20.6671 35.1266 19.6185 33.9833 19.6456C32.8401 19.6727 32.5448 20.2385 32.3838 20.5115C32.1669 20.8797 32.11 22.2675 32.11 22.2675C32.143 22.6712 32.4329 23.3633 33.4772 23.3633C34.5215 23.3633 34.688 22.8924 34.8783 22.5305ZM33.4644 22.4389C33.2237 22.4085 33.298 22.0303 33.298 22.0303L33.4549 20.9765C33.4549 20.9765 33.549 20.5872 33.8003 20.6219C34.0517 20.6566 33.9863 21.0307 33.9863 21.0307C33.9863 21.0307 33.8901 21.9229 33.8142 22.1477C33.7383 22.3724 33.7057 22.4684 33.4644 22.4391V22.4389Z" fill="#243588"/>
<path fill-rule="evenodd" clip-rule="evenodd" d="M5.64467 15.6218C7.95155 12.4444 12.4946 11.0943 14.8638 12.9812C17.1683 14.8156 16.9023 17.9054 14.5951 21.0815C12.288 24.2575 7.85965 25.2653 5.91307 23.8113C3.48662 21.9978 3.3367 18.7974 5.64467 15.6218Z" fill="#E63329" stroke="#E63329" stroke-width="2.41997" stroke-miterlimit="3.86"/>
<path fill-rule="evenodd" clip-rule="evenodd" d="M4.3856 21.9225L9.17098 12.7047C10.2509 12.1817 11.4465 11.9431 12.6445 12.0114L14.7632 20.9652C14.0808 21.9341 13.3792 22.7529 12.3544 23.2105L12.0496 21.2984H7.17398L5.95072 23.8362C5.2583 23.3669 4.56941 22.4945 4.3856 21.9225Z" fill="white" stroke="white" stroke-width="2.44054" stroke-miterlimit="3.86"/>
<path fill-rule="evenodd" clip-rule="evenodd" d="M8.34755 19.3102H11.7356L10.719 14.5004L8.34755 19.3102Z" fill="#E63329" stroke="#E63329" stroke-width="2.44054" stroke-miterlimit="3.86"/>
<path d="M20.4429 14.7852C19.7147 14.7852 19.79 15.49 19.79 15.49H20.2553C20.2553 15.49 20.2281 15.2732 20.361 15.2599C20.518 15.246 20.5071 15.345 20.5071 15.345V15.5112C20.5071 15.5112 20.3358 15.5654 20.1053 15.7256C19.8749 15.8859 19.536 16.2234 19.7776 16.7312C20.0191 17.239 20.5811 16.8269 20.5811 16.8269V16.9654H21.039V15.3529C21.039 15.3529 21.0952 14.7852 20.4429 14.7852ZM20.5085 16.3492C20.5063 16.482 20.4315 16.575 20.2501 16.5628C20.0687 16.5506 20.0552 16.3676 20.1539 16.2079C20.2807 16.0057 20.5085 15.9721 20.5085 15.9721V16.3492Z" fill="#243588"/>
<path d="M25.1003 14.7852C24.3732 14.7852 24.4472 15.49 24.4472 15.49H24.9132C24.9132 15.49 24.8861 15.2732 25.0192 15.2599C25.1759 15.246 25.1648 15.345 25.1648 15.345V15.5112C25.1648 15.5112 24.9935 15.5654 24.7641 15.7256C24.5347 15.8859 24.1948 16.2234 24.4355 16.7312C24.6763 17.239 25.2399 16.8269 25.2399 16.8269V16.9654H25.6967V15.3529C25.6967 15.3529 25.7523 14.7852 25.1003 14.7852ZM25.2114 16.3497C25.2082 16.4826 25.1334 16.5756 24.9525 16.5634C24.7717 16.5512 24.7579 16.3682 24.8565 16.2085C24.9823 16.0062 25.2114 15.9726 25.2114 15.9726V16.3497Z" fill="#243588"/>
<path d="M28.8267 14.7852C28.0991 14.7852 28.1734 15.49 28.1734 15.49H28.6391C28.6391 15.49 28.612 15.2732 28.7454 15.2599C28.9029 15.246 28.8905 15.345 28.8905 15.345V15.5112C28.8905 15.5112 28.7194 15.5654 28.4887 15.7256C28.258 15.8859 27.921 16.2234 28.1617 16.7312C28.4025 17.239 28.9661 16.8269 28.9661 16.8269V16.9654H29.4232V15.3529C29.4232 15.3529 29.4793 14.7852 28.8267 14.7852ZM28.9368 16.3492C28.9346 16.482 28.8598 16.575 28.6787 16.5628C28.4976 16.5506 28.4846 16.3676 28.5825 16.2079C28.7083 16.0057 28.9368 15.9721 28.9368 15.9721V16.3492Z" fill="#243588"/>
<path d="M4.28448 25.8315H5.42098V26.0549H4.96415V28.0972H4.74211V26.0549H4.28448V25.8315Z" fill="#1D1D1B"/>
<path d="M7.45178 27.3099H5.90888C5.91351 27.4801 5.98535 27.6415 6.10869 27.7589C6.16929 27.8165 6.24068 27.8616 6.31875 27.8915C6.39681 27.9215 6.48003 27.9358 6.56362 27.9335C6.68649 27.9353 6.80718 27.9008 6.91064 27.8345C7.0149 27.7656 7.09752 27.6686 7.14894 27.5547H7.39837C7.31893 27.7445 7.20859 27.8893 7.06626 27.9901C6.92126 28.0926 6.74733 28.1459 6.56985 28.1425C6.3132 28.1425 6.1002 28.0567 5.93084 27.885C5.76194 27.7128 5.67789 27.4986 5.67789 27.2394C5.67789 26.9803 5.76194 26.7685 5.93057 26.598C6.0992 26.4275 6.31013 26.3412 6.56416 26.3412C6.83012 26.3412 7.04511 26.4291 7.2075 26.6053C7.3699 26.7815 7.4515 27.0147 7.4515 27.305L7.45178 27.3099ZM7.20778 27.1253C7.16693 26.9348 7.09075 26.7908 6.97923 26.6934C6.86771 26.596 6.72312 26.5474 6.54545 26.5476C6.39002 26.544 6.23929 26.6011 6.12523 26.7067C6.00919 26.8123 5.93979 26.9518 5.91701 27.1253H7.20778Z" fill="#1D1D1B"/>
<path d="M10.3992 28.6543H10.1777V28.1473C10.1777 28.1139 10.1777 28.0624 10.1815 27.9933C10.1853 27.9242 10.1877 27.8482 10.1926 27.7647C10.1232 27.881 10.0248 27.9772 9.9071 28.044C9.79141 28.1094 9.66043 28.1429 9.52754 28.141C9.27685 28.141 9.06846 28.0552 8.90236 27.8835C8.73535 27.713 8.65239 27.5007 8.65239 27.2491C8.64964 27.131 8.67057 27.0135 8.71397 26.9036C8.75737 26.7937 8.82235 26.6936 8.90507 26.6093C8.98505 26.5247 9.08185 26.4578 9.18924 26.4129C9.29663 26.3679 9.41224 26.346 9.52863 26.3485C9.66139 26.3465 9.79231 26.3796 9.90818 26.4444C10.0257 26.5115 10.124 26.6077 10.1937 26.7237L10.1855 26.3907H10.4005L10.3992 28.6543ZM9.53486 27.9382C9.62156 27.9387 9.70734 27.9205 9.78639 27.8849C9.86544 27.8493 9.93592 27.7971 9.99304 27.7319C10.1193 27.5958 10.1874 27.4157 10.1828 27.2301C10.1836 27.1421 10.1669 27.0548 10.1336 26.9734C10.1003 26.8919 10.0512 26.8179 9.98897 26.7557C9.85965 26.6201 9.71163 26.5521 9.54299 26.5521C9.45486 26.5511 9.36752 26.5687 9.28669 26.6039C9.20586 26.639 9.13337 26.6908 9.07397 26.7559C9.00983 26.8226 8.95952 26.9012 8.92597 26.9874C8.89242 27.0736 8.87629 27.1656 8.8785 27.258C8.87683 27.3477 8.89329 27.4367 8.92688 27.5198C8.96047 27.6029 9.0105 27.6784 9.07397 27.7417C9.13311 27.8044 9.20457 27.8543 9.28388 27.8881C9.3632 27.9219 9.44864 27.939 9.53486 27.9382Z" fill="#1D1D1B"/>
<path d="M10.904 26.3862H11.1209V27.3563C11.1209 27.5533 11.1606 27.6986 11.2399 27.7922C11.3196 27.886 11.4427 27.9324 11.6086 27.9324C11.6992 27.9346 11.7889 27.9143 11.8697 27.8733C11.945 27.8336 12.0075 27.7734 12.05 27.6998C12.0786 27.6512 12.098 27.5978 12.1072 27.5422C12.1207 27.4373 12.126 27.3314 12.1232 27.2256V26.3851H12.3401V28.0948H12.1232L12.1329 27.8687C12.0774 27.9551 12.0004 28.0257 11.9096 28.0736C11.8143 28.1206 11.7092 28.1443 11.6029 28.1425C11.3833 28.1425 11.2116 28.0754 11.0878 27.9413C10.9645 27.8071 10.9029 27.6187 10.9029 27.3774L10.904 26.3862Z" fill="#1D1D1B"/>
<path d="M14.5125 27.3099H12.9699C12.9743 27.4801 13.0461 27.6416 13.1695 27.7589C13.2301 27.8165 13.3014 27.8616 13.3795 27.8916C13.4576 27.9215 13.5408 27.9358 13.6244 27.9335C13.7473 27.9353 13.868 27.9009 13.9714 27.8345C14.0753 27.7657 14.1573 27.6686 14.2078 27.5547H14.457C14.3787 27.7442 14.2682 27.8893 14.1254 27.9901C13.9808 28.0923 13.8074 28.1457 13.6304 28.1425C13.3733 28.1425 13.1604 28.0567 12.9916 27.885C12.8224 27.7128 12.7392 27.4986 12.7392 27.2394C12.7392 26.9803 12.8224 26.7685 12.9913 26.598C13.1602 26.4275 13.3709 26.3412 13.6249 26.3412C13.8912 26.3412 14.1062 26.4291 14.2683 26.6053C14.4304 26.7815 14.5123 27.0147 14.5123 27.305L14.5125 27.3099ZM14.2685 27.1253C14.2273 26.9348 14.1507 26.7908 14.0386 26.6934C13.9266 26.596 13.782 26.5474 13.6049 26.5476C13.4495 26.5442 13.2988 26.6013 13.1846 26.7067C13.0686 26.8122 12.9997 26.9507 12.977 27.1253H14.2685Z" fill="#1D1D1B"/>
<path d="M15.5157 26.3594V26.5993C15.3785 26.6116 15.2803 26.6528 15.221 26.723C15.1613 26.7932 15.1321 26.9068 15.1321 27.064V28.0964H14.9152V26.3868H15.1174V26.5833C15.1636 26.5146 15.2243 26.4568 15.2953 26.4142C15.3628 26.3773 15.4387 26.3584 15.5157 26.3594Z" fill="#1D1D1B"/>
<path d="M17.5405 27.3102H15.9976C15.9999 27.3945 16.0187 27.4776 16.0531 27.5546C16.0875 27.6316 16.1367 27.7011 16.198 27.7592C16.2585 27.8168 16.3298 27.8619 16.4078 27.8919C16.4859 27.9219 16.5691 27.9361 16.6526 27.9337C16.7753 27.9356 16.8959 27.9012 16.9991 27.8348C17.1033 27.7662 17.1855 27.6691 17.2361 27.555H17.4849C17.4069 27.7448 17.2952 27.8896 17.1536 27.9904C17.0089 28.0926 16.8354 28.146 16.6583 28.1428C16.4019 28.1428 16.189 28.0569 16.0199 27.8852C15.851 27.7131 15.7664 27.4989 15.7664 27.2397C15.7664 26.9805 15.8515 26.7677 16.0193 26.5974C16.1871 26.4272 16.3989 26.3407 16.6529 26.3407C16.9193 26.3407 17.1338 26.4287 17.2962 26.6048C17.4589 26.7815 17.5402 27.0141 17.5402 27.3045L17.5405 27.3102ZM17.2965 27.1256C17.2557 26.9351 17.1791 26.7911 17.0669 26.6937C16.9557 26.5966 16.8104 26.5478 16.6331 26.5478C16.4777 26.5444 16.327 26.6015 16.2129 26.707C16.0974 26.8125 16.0281 26.9521 16.0049 27.1256H17.2965Z" fill="#1D1D1B"/>
<path d="M19.2202 26.6509C19.2861 26.555 19.3753 26.4774 19.4794 26.4253C19.5867 26.3732 19.7047 26.3469 19.8239 26.3483C20.0373 26.3483 20.2016 26.4153 20.3165 26.547C20.4315 26.6788 20.4876 26.8678 20.4876 27.1131V28.0954H20.2753V27.1283C20.2753 26.9347 20.2355 26.7913 20.1582 26.697C20.081 26.6026 19.96 26.5568 19.7985 26.5568C19.71 26.5552 19.6226 26.5757 19.5442 26.6165C19.4708 26.6566 19.4102 26.7164 19.369 26.7891C19.3416 26.839 19.3226 26.8931 19.3126 26.9491C19.2986 27.053 19.293 27.1578 19.2958 27.2625V28.0954H19.0879V27.1362C19.0879 26.9383 19.0477 26.7921 18.9689 26.6978C18.89 26.6034 18.7669 26.5568 18.6012 26.5568C18.5103 26.5551 18.4203 26.5755 18.3391 26.6165C18.2646 26.656 18.2029 26.7159 18.1612 26.7891C18.1319 26.8412 18.1122 26.898 18.1029 26.957C18.0885 27.0581 18.0826 27.1603 18.0853 27.2625V28.0954H17.8727V26.3857H18.0877V26.5774C18.1505 26.5035 18.2296 26.4451 18.3187 26.4069C18.4132 26.3678 18.5147 26.3484 18.6169 26.3497C18.7406 26.3481 18.8628 26.3759 18.9735 26.431C19.0753 26.4788 19.161 26.5552 19.2202 26.6509Z" fill="#1D1D1B"/>
<path d="M21.7078 26.3314C21.8247 26.3313 21.9405 26.3543 22.0486 26.3991C22.1566 26.4438 22.2548 26.5094 22.3375 26.592C22.4202 26.6747 22.4858 26.7729 22.5306 26.8809C22.5753 26.989 22.5984 27.1047 22.5984 27.2217C22.6027 27.4637 22.5112 27.6976 22.3438 27.8724C22.2655 27.9589 22.1697 28.0279 22.0628 28.0746C21.9558 28.1214 21.8402 28.1448 21.7235 28.1435C21.6056 28.1458 21.4886 28.1235 21.3798 28.0781C21.2711 28.0327 21.173 27.9651 21.0918 27.8797C21.0081 27.7964 20.942 27.6971 20.8977 27.5876C20.8533 27.4782 20.8316 27.3609 20.8337 27.2428C20.8319 27.124 20.8539 27.0059 20.8983 26.8957C20.9428 26.7855 21.0088 26.6852 21.0926 26.6008C21.265 26.4212 21.4701 26.3314 21.7078 26.3314ZM21.7018 26.5439C21.617 26.5433 21.533 26.5609 21.4555 26.5953C21.378 26.6298 21.3087 26.6804 21.2523 26.7437C21.1271 26.8783 21.0599 27.0567 21.0652 27.2404C21.0652 27.4378 21.1276 27.6037 21.2523 27.7357C21.3118 27.8004 21.3845 27.8516 21.4654 27.8859C21.5464 27.9202 21.6337 27.9367 21.7216 27.9344C21.809 27.9366 21.8958 27.9197 21.9761 27.8852C22.0564 27.8506 22.1283 27.799 22.1868 27.7341C22.3102 27.601 22.3728 27.4307 22.3728 27.2217C22.3753 27.1321 22.3595 27.043 22.3263 26.9597C22.2932 26.8764 22.2434 26.8008 22.18 26.7375C22.1178 26.6742 22.0433 26.6244 21.961 26.5911C21.8787 26.5578 21.7905 26.5417 21.7018 26.5439Z" fill="#1D1D1B"/>
<path d="M23.8846 26.8114H23.6447C23.6451 26.7416 23.6186 26.6743 23.5707 26.6235C23.5457 26.6006 23.5165 26.583 23.4846 26.5716C23.4528 26.5603 23.419 26.5554 23.3852 26.5574C23.3521 26.5563 23.3191 26.5621 23.2884 26.5745C23.2577 26.587 23.2299 26.6057 23.2068 26.6295C23.1833 26.6541 23.1649 26.6833 23.1528 26.7152C23.1408 26.7471 23.1353 26.7811 23.1366 26.8152C23.1352 26.8582 23.1452 26.9009 23.1656 26.9388C23.1884 26.9771 23.2203 27.009 23.2586 27.0318C23.3162 27.0639 23.3776 27.0887 23.4413 27.1055C23.5208 27.1289 23.5745 27.1467 23.6027 27.1598C23.6991 27.1933 23.7818 27.2579 23.8378 27.3434C23.8937 27.4289 23.9198 27.5304 23.912 27.6323C23.9138 27.7007 23.901 27.7686 23.8743 27.8316C23.8476 27.8946 23.8076 27.951 23.7572 27.9972C23.6514 28.095 23.5113 28.1472 23.3673 28.1425C23.2068 28.1425 23.0764 28.0902 22.9772 27.9856C22.878 27.8809 22.8262 27.7391 22.8221 27.5607H23.0488V27.5667C23.0455 27.6633 23.0785 27.7575 23.1412 27.831C23.1693 27.8642 23.2043 27.8906 23.2438 27.9085C23.2834 27.9264 23.3264 27.9353 23.3698 27.9346C23.4498 27.9377 23.5278 27.909 23.5867 27.8546C23.6148 27.8287 23.637 27.797 23.6518 27.7617C23.6666 27.7265 23.6736 27.6884 23.6723 27.6502C23.6757 27.5779 23.6513 27.5071 23.604 27.4523C23.5598 27.4035 23.4782 27.3569 23.36 27.3127C23.167 27.2419 23.0423 27.1725 22.9848 27.1039C22.9273 27.0353 22.9005 26.9423 22.9005 26.8274C22.8993 26.7629 22.9116 26.6989 22.9366 26.6394C22.9616 26.5799 22.9987 26.5263 23.0455 26.482C23.0917 26.4358 23.1467 26.3994 23.2073 26.3751C23.2678 26.3507 23.3327 26.3388 23.398 26.3402C23.5449 26.3402 23.6612 26.3817 23.7469 26.4638C23.8326 26.546 23.8786 26.6617 23.8846 26.8114Z" fill="#1D1D1B"/>
<path d="M24.3313 27.6807H24.5482V28.0968H24.3313V27.6807Z" fill="#1D1D1B"/>
<path d="M25.2129 28.0968H25.4298V27.6807H25.2129V28.0968Z" fill="#1D1D1B"/>
<path d="M26.0948 27.6807H26.3117V28.0968H26.0948V27.6807Z" fill="#1D1D1B"/>
<path d="M27.7804 25.8315H28.0019V26.3428C28.0019 26.3723 28.0019 26.4214 27.9981 26.4919C27.9943 26.5624 27.9918 26.6389 27.9861 26.724C28.0556 26.6082 28.1539 26.5124 28.2713 26.4458C28.3872 26.3808 28.5181 26.3473 28.6509 26.3488C28.9039 26.3488 29.1133 26.4354 29.2791 26.6088C29.4431 26.7817 29.526 26.9997 29.526 27.2621C29.528 27.3776 29.5065 27.4922 29.4627 27.599C29.4189 27.7059 29.3539 27.8027 29.2715 27.8835C29.1915 27.967 29.0951 28.0331 28.9883 28.0777C28.8816 28.1222 28.7668 28.1443 28.6512 28.1424C28.5174 28.1443 28.3854 28.1111 28.2684 28.0462C28.1518 27.9793 28.0543 27.8838 27.9848 27.7688L27.9945 28.0958H27.7776L27.7804 25.8315ZM28.6436 26.5524C28.5572 26.5519 28.4717 26.5701 28.3929 26.6056C28.3141 26.6411 28.2439 26.6931 28.187 26.7581C28.0608 26.8937 27.9927 27.0732 27.9972 27.2583C27.9961 27.3466 28.0125 27.4343 28.0454 27.5162C28.0783 27.5981 28.1271 27.6728 28.1889 27.7358C28.318 27.8713 28.4679 27.9386 28.6371 27.9386C28.725 27.9396 28.8122 27.9221 28.8929 27.8871C28.9737 27.8522 29.0461 27.8006 29.1056 27.7358C29.2357 27.6002 29.2999 27.434 29.2999 27.2334C29.3018 27.1438 29.2856 27.0548 29.2522 26.9717C29.2187 26.8886 29.1689 26.8131 29.1056 26.7497C29.0464 26.6866 28.9748 26.6364 28.8952 26.6024C28.8156 26.5684 28.7298 26.5514 28.6433 26.5524H28.6436Z" fill="#1D1D1B"/>
<path d="M29.9062 25.8315H30.1285V26.1872H29.9062V25.8315ZM29.9062 26.3862H30.1285V28.0958H29.9062V26.3862Z" fill="#1D1D1B"/>
<path d="M32.2583 27.3105H30.7151C30.7193 27.48 30.7906 27.6409 30.9135 27.7579C31.0363 27.8748 31.2005 27.9382 31.3701 27.934C31.4928 27.9358 31.6133 27.9013 31.7166 27.8351C31.8205 27.7662 31.9027 27.6692 31.9535 27.5553H32.2029C32.1238 27.7447 32.0132 27.8898 31.8711 27.9907C31.7264 28.0924 31.5531 28.1454 31.3763 28.142C31.1185 28.142 30.9062 28.0566 30.7373 27.8844C30.5684 27.7123 30.4838 27.4981 30.4838 27.2389C30.4838 26.9797 30.5681 26.768 30.7368 26.5974C30.9054 26.4269 31.1163 26.3407 31.3701 26.3407C31.6363 26.3407 31.8509 26.4287 32.0137 26.6048C32.1764 26.7815 32.2577 27.0141 32.2577 27.3045L32.2583 27.3105ZM32.0143 27.1258C31.9727 26.9353 31.8962 26.7914 31.7849 26.694C31.6736 26.5965 31.529 26.5479 31.3511 26.5481C31.1958 26.5445 31.0453 26.6016 30.9314 26.7072C30.8146 26.8127 30.746 26.9512 30.7227 27.1258H32.0143Z" fill="#1D1D1B"/>
<path d="M34.0921 27.1132V28.0954H33.8752V27.1362C33.8752 26.9318 33.8368 26.7841 33.76 26.693C33.6827 26.6027 33.5596 26.5574 33.3902 26.5574C33.2997 26.5557 33.2101 26.5762 33.1294 26.6171C33.055 26.6567 32.9933 26.7166 32.9515 26.7898C32.9251 26.8373 32.9067 26.8889 32.8973 26.9424C32.8841 27.033 32.8786 27.1246 32.8808 27.2162V28.096H32.6639V26.3858H32.878V26.5775C32.941 26.5031 33.0201 26.444 33.1093 26.4048C33.2063 26.3657 33.3102 26.3465 33.4148 26.3484C33.6334 26.3484 33.8004 26.4148 33.9167 26.5458C34.033 26.6767 34.0921 26.8662 34.0921 27.1132Z" fill="#1D1D1B"/>
<path d="M34.6817 27.6807H34.8986V28.0968H34.6817V27.6807Z" fill="#1D1D1B"/>
<path d="M14.5488 22.8172C14.6202 22.818 14.6903 22.8366 14.7527 22.8714C14.8181 22.9063 14.8719 22.9596 14.9075 23.0246C14.9436 23.0874 14.9627 23.1587 14.9627 23.2312C14.9627 23.3037 14.9436 23.3749 14.9075 23.4378C14.8722 23.5026 14.819 23.5558 14.7543 23.5912C14.6914 23.6269 14.6202 23.6457 14.5478 23.6457C14.4755 23.6457 14.4043 23.6269 14.3414 23.5912C14.2766 23.5557 14.2233 23.5025 14.1877 23.4378C14.1514 23.375 14.1324 23.3037 14.1324 23.2312C14.1324 23.1587 14.1514 23.0874 14.1877 23.0246C14.2235 22.9596 14.2773 22.9064 14.3428 22.8714C14.4058 22.8363 14.4766 22.8176 14.5488 22.8172ZM14.5488 22.8863C14.4892 22.8867 14.4307 22.902 14.3785 22.9308C14.3241 22.9601 14.2792 23.0044 14.2492 23.0585C14.2189 23.1108 14.203 23.1701 14.203 23.2305C14.203 23.2909 14.2189 23.3503 14.2492 23.4025C14.2791 23.4563 14.3236 23.5005 14.3775 23.5302C14.4299 23.5601 14.4892 23.5758 14.5495 23.5758C14.6098 23.5758 14.6691 23.5601 14.7215 23.5302C14.7753 23.5005 14.8196 23.4563 14.8495 23.4025C14.8796 23.3502 14.8954 23.2909 14.8954 23.2305C14.8954 23.1701 14.8796 23.1108 14.8495 23.0585C14.8196 23.0043 14.7745 22.9599 14.7199 22.9308C14.6675 22.9018 14.6087 22.8865 14.5488 22.8863ZM14.3666 23.4603V23.0148H14.5203C14.5588 23.0131 14.5973 23.0173 14.6345 23.0273C14.6573 23.0351 14.677 23.0502 14.6906 23.0701C14.704 23.0893 14.7113 23.1121 14.7115 23.1355C14.7116 23.1512 14.7086 23.1669 14.7026 23.1815C14.6966 23.196 14.6877 23.2093 14.6765 23.2203C14.6517 23.2451 14.6185 23.2596 14.5835 23.261C14.5974 23.2664 14.6102 23.2744 14.6212 23.2846C14.6463 23.3116 14.6684 23.3412 14.6871 23.373L14.7413 23.4603H14.6537L14.6141 23.3901C14.5952 23.3514 14.5698 23.3163 14.539 23.2862C14.5222 23.2747 14.502 23.2691 14.4816 23.2702H14.4393V23.46L14.3666 23.4603ZM14.4393 23.2084H14.5276C14.5576 23.2114 14.5878 23.2048 14.6139 23.1897C14.6213 23.1839 14.6273 23.1765 14.6313 23.168C14.6353 23.1594 14.6372 23.1501 14.6369 23.1406C14.637 23.1279 14.6331 23.1155 14.6258 23.1051C14.6181 23.0945 14.6074 23.0864 14.5952 23.0818C14.5713 23.0756 14.5466 23.073 14.522 23.0742H14.4393V23.2084Z" fill="#E63329"/>
<path d="M35.5861 23.1674C35.6576 23.1681 35.7277 23.1867 35.79 23.2216C35.8554 23.2564 35.9092 23.3096 35.9448 23.3745C35.981 23.4374 36 23.5086 36 23.5811C36 23.6536 35.981 23.7249 35.9448 23.7877C35.9095 23.8525 35.8564 23.9058 35.7916 23.9412C35.7287 23.9769 35.6576 23.9957 35.5852 23.9957C35.5128 23.9957 35.4417 23.9769 35.3787 23.9412C35.314 23.9057 35.2608 23.8525 35.2253 23.7877C35.189 23.7249 35.1699 23.6537 35.1699 23.5811C35.1699 23.5086 35.189 23.4373 35.2253 23.3745C35.261 23.3096 35.3149 23.2564 35.3804 23.2216C35.4433 23.1864 35.5141 23.1678 35.5861 23.1674ZM35.5861 23.2366C35.5266 23.2369 35.468 23.2522 35.4159 23.281C35.3614 23.3103 35.3165 23.3546 35.2866 23.4087C35.2563 23.461 35.2403 23.5203 35.2403 23.5807C35.2403 23.6411 35.2563 23.7005 35.2866 23.7527C35.3165 23.8065 35.3609 23.8507 35.4148 23.8804C35.4672 23.9105 35.5265 23.9262 35.5868 23.9262C35.6472 23.9262 35.7065 23.9105 35.7588 23.8804C35.8126 23.8507 35.857 23.8065 35.8868 23.7527C35.9169 23.7004 35.9328 23.6411 35.9328 23.5807C35.9328 23.5204 35.9169 23.461 35.8868 23.4087C35.8569 23.3546 35.812 23.3102 35.7575 23.281C35.705 23.252 35.6461 23.2367 35.5861 23.2366ZM35.404 23.8105V23.3651H35.5577C35.5961 23.3633 35.6346 23.3675 35.6718 23.3775C35.6947 23.3853 35.7144 23.4004 35.7279 23.4204C35.7414 23.4395 35.7486 23.4623 35.7488 23.4857C35.7489 23.5015 35.7459 23.5171 35.7399 23.5317C35.7339 23.5463 35.725 23.5595 35.7138 23.5706C35.6891 23.5953 35.6559 23.6098 35.6208 23.6112C35.6348 23.6166 35.6476 23.6246 35.6585 23.6348C35.6836 23.6618 35.7057 23.6914 35.7244 23.7232L35.7786 23.8105H35.6911L35.6515 23.7403C35.6326 23.7016 35.6072 23.6665 35.5764 23.6364C35.5595 23.6249 35.5393 23.6193 35.5189 23.6204H35.4766V23.8102L35.404 23.8105ZM35.4766 23.5589H35.565C35.595 23.5619 35.6251 23.5553 35.6512 23.5402C35.6587 23.5344 35.6646 23.527 35.6687 23.5184C35.6727 23.5099 35.6746 23.5005 35.6743 23.4911C35.6744 23.4784 35.6705 23.466 35.6631 23.4556C35.6554 23.445 35.6448 23.4369 35.6325 23.4323C35.6086 23.426 35.5839 23.4235 35.5593 23.4247H35.4766V23.5589Z" fill="#243588"/>
<path d="M18.408 14.1315H19.5466V14.7044H18.9805V15.1428H19.5466V15.7685H19.0017V16.9611H18.408V14.1315Z" fill="#243588"/>
</svg>
