<svg width="40" height="40" viewBox="0 0 40 40" fill="none" xmlns="http://www.w3.org/2000/svg">
<path d="M15.4381 18.8087C15.4381 18.5634 15.5447 18.4301 15.7794 18.4301C15.838 18.4301 15.8913 18.4407 15.9447 18.4514V18.7713C15.9233 18.7607 15.9127 18.7553 15.8913 18.7553C15.8274 18.7553 15.8114 18.814 15.8114 18.8673V18.8993L15.9393 18.8833V19.2086L15.8167 19.1979V19.7152H15.4328V19.1979L15.3261 19.2086V18.8833L15.4328 18.8993V18.8087H15.4381Z" fill="#174A99"/>
<path d="M16.8029 19.6031H16.7923C16.723 19.6831 16.659 19.7311 16.5523 19.7311C16.339 19.7311 16.2217 19.5018 16.2217 19.2991C16.2217 19.0912 16.3444 18.8619 16.563 18.8619C16.659 18.8619 16.739 18.8992 16.7923 18.9792H16.8029L16.7923 18.8832H17.1709V19.7151H16.7923L16.8029 19.6031ZM16.6963 19.4164C16.7709 19.4164 16.7976 19.3578 16.7976 19.2938C16.7976 19.2298 16.7549 19.1818 16.6963 19.1818C16.6376 19.1818 16.595 19.2351 16.595 19.2938C16.6003 19.3631 16.627 19.4164 16.6963 19.4164Z" fill="#174A99"/>
<path d="M18.1738 19.2721C18.1311 19.2455 18.1044 19.2241 18.0564 19.2241C17.9551 19.2241 17.9071 19.2881 17.9071 19.3894V19.7094H17.5232V18.8775H17.9071L17.8965 18.9895H17.9071C17.9765 18.8829 18.0458 18.8562 18.1738 18.8615V19.2721Z" fill="#174A99"/>
<path d="M18.8347 19.0327H18.8454C18.8774 18.9314 18.9734 18.8674 19.0747 18.8674C19.1867 18.8674 19.2667 18.9314 19.2987 19.0433H19.3093C19.352 18.926 19.4266 18.8674 19.5493 18.8674C19.7413 18.8674 19.8212 19.022 19.8212 19.2033V19.7206H19.448V19.31C19.448 19.262 19.448 19.198 19.3893 19.198C19.336 19.198 19.336 19.262 19.336 19.31V19.7206H18.9627V19.31C18.9627 19.262 18.9627 19.198 18.9041 19.198C18.8507 19.198 18.8507 19.262 18.8507 19.31V19.7206H18.4775V18.8887H18.8401L18.8347 19.0327Z" fill="#174A99"/>
<path d="M20.7386 19.6031H20.728C20.6586 19.6831 20.5947 19.7311 20.488 19.7311C20.2747 19.7311 20.1574 19.5018 20.1574 19.2991C20.1574 19.0912 20.28 18.8619 20.4987 18.8619C20.5947 18.8619 20.6746 18.8992 20.728 18.9792H20.7386L20.728 18.8832H21.1066V19.7151H20.728L20.7386 19.6031ZM20.6373 19.4164C20.712 19.4164 20.7386 19.3578 20.7386 19.2938C20.7386 19.2298 20.696 19.1818 20.6373 19.1818C20.5787 19.1818 20.536 19.2351 20.536 19.2938C20.536 19.3631 20.568 19.4164 20.6373 19.4164Z" fill="#174A99"/>
<path d="M22.0769 19.2458C22.0396 19.2085 21.9916 19.1765 21.9382 19.1765C21.8689 19.1765 21.8156 19.2245 21.8156 19.2991C21.8156 19.3631 21.8689 19.4164 21.9276 19.4164C21.9862 19.4164 22.0289 19.3845 22.0769 19.3525L22.0609 19.6937C22.0022 19.7151 21.9329 19.7311 21.8689 19.7311C21.613 19.7311 21.4317 19.5764 21.4317 19.2991C21.4317 19.0538 21.6023 18.8619 21.8369 18.8619C21.9169 18.8619 22.0022 18.8779 22.0769 18.9045V19.2458Z" fill="#174A99"/>
<path d="M22.8607 18.6268C22.8607 18.7654 22.7594 18.8241 22.6474 18.8241C22.5354 18.8241 22.4341 18.7654 22.4341 18.6268C22.4341 18.5042 22.5248 18.4348 22.6474 18.4348C22.7701 18.4295 22.8607 18.5042 22.8607 18.6268ZM22.4554 18.8828H22.8394V19.7146H22.4554V18.8828Z" fill="#174A99"/>
<path d="M23.7727 19.6031H23.762C23.6927 19.6831 23.6287 19.7311 23.5221 19.7311C23.3088 19.7311 23.1915 19.5018 23.1915 19.2991C23.1915 19.0912 23.3141 18.8619 23.5327 18.8619C23.6287 18.8619 23.7087 18.8992 23.762 18.9792H23.7727L23.762 18.8832H24.1406V19.7151H23.762L23.7727 19.6031ZM23.6714 19.4164C23.746 19.4164 23.7727 19.3578 23.7727 19.2938C23.7727 19.2298 23.73 19.1818 23.6714 19.1818C23.6074 19.1818 23.5701 19.2351 23.5701 19.2938C23.5701 19.3631 23.602 19.4164 23.6714 19.4164Z" fill="#174A99"/>
<path d="M24.5296 19.3896L24.5509 19.4056C24.6043 19.4376 24.6842 19.4803 24.7482 19.4803C24.7749 19.4803 24.8016 19.4643 24.8016 19.4323C24.8016 19.3843 24.7536 19.3843 24.7269 19.379C24.5989 19.3576 24.4816 19.3043 24.4816 19.1497C24.4816 18.9417 24.6789 18.8564 24.8495 18.8564C24.9455 18.8564 25.0682 18.8777 25.1535 18.9257L25.0575 19.155C25.0095 19.1177 24.9402 19.0857 24.8815 19.0857C24.8602 19.0857 24.8282 19.091 24.8282 19.123C24.8282 19.1657 24.8709 19.1657 24.9242 19.1763C25.0628 19.1977 25.1748 19.251 25.1748 19.4163C25.1748 19.6349 24.9722 19.7202 24.7909 19.7202C24.6682 19.7202 24.5456 19.6776 24.4283 19.6296L24.5296 19.3896Z" fill="#174A99"/>
<path d="M13.7051 18.9253H14.4836V20.5837C14.6489 20.381 14.9102 20.2797 15.1662 20.2797C15.8167 20.2797 16.27 20.8503 16.27 21.5115C16.27 22.1781 15.8167 22.7486 15.1609 22.7486C14.9049 22.7486 14.6383 22.6473 14.4943 22.4127H14.4836V22.6686H13.7051V18.9253ZM14.4623 21.5168C14.4623 21.8101 14.6489 22.0341 14.9636 22.0341C15.2782 22.0341 15.4648 21.8101 15.4648 21.5168C15.4648 21.2342 15.2782 20.9943 14.9636 20.9943C14.6436 20.9889 14.4623 21.2289 14.4623 21.5168Z" fill="#174A99"/>
<path d="M18.7869 21.6506H17.1445C17.1445 21.9866 17.3098 22.1679 17.6351 22.1679C17.8004 22.1679 17.9231 22.1092 18.0084 21.9546H18.7602C18.6376 22.5038 18.1417 22.7491 17.6404 22.7491C16.9099 22.7491 16.366 22.3172 16.366 21.5173C16.366 20.7441 16.8672 20.2802 17.5818 20.2802C18.3443 20.2802 18.7869 20.7761 18.7869 21.5653V21.6506ZM18.067 21.1761C18.0297 20.9521 17.8377 20.8081 17.6244 20.8081C17.3951 20.8081 17.2085 20.9361 17.1605 21.1761H18.067Z" fill="#174A99"/>
<path d="M19.8001 20.6535H19.8107C19.992 20.3709 20.2107 20.2802 20.5146 20.2802C21.1065 20.2802 21.3411 20.6748 21.3411 21.24V22.6691H20.5626V21.5387C20.5626 21.3147 20.5946 20.9308 20.2107 20.9308C19.8907 20.9308 19.8054 21.1814 19.8054 21.4693V22.6691H19.0269V20.3549H19.8001V20.6535Z" fill="#174A99"/>
<path d="M24.1299 22.6746H23.3513V22.4187H23.3407C23.202 22.648 22.9354 22.7546 22.6741 22.7546C22.0236 22.7546 21.565 22.1787 21.565 21.5175C21.565 20.8563 22.0129 20.2857 22.6688 20.2857C22.9194 20.2857 23.186 20.387 23.3513 20.5897V20.3657H24.1299V22.6746ZM22.3702 21.5175C22.3702 21.8108 22.5568 22.0347 22.8714 22.0347C23.1914 22.0347 23.3727 21.8108 23.3727 21.5175C23.3727 21.2349 23.186 20.9949 22.8714 20.9949C22.5568 20.9896 22.3702 21.2295 22.3702 21.5175Z" fill="#174A99"/>
<path d="M25.6015 21.5437L26.1241 20.3546H26.9986L25.8522 22.6742H25.3509L24.1991 20.3546H25.0736L25.6015 21.5437Z" fill="#174A99"/>
<path d="M27.8945 19.4643C27.8945 19.7149 27.6972 19.9228 27.4573 19.9228C27.2173 19.9228 27.02 19.7149 27.02 19.4643C27.02 19.2083 27.2173 19.0057 27.4573 19.0057C27.6972 19.0057 27.8945 19.2136 27.8945 19.4643ZM27.8465 22.6744H27.068V20.3601H27.8465V22.6744Z" fill="#174A99"/>
<path d="M29.889 22.4127H29.8783C29.7396 22.642 29.473 22.7486 29.2117 22.7486C28.5612 22.7486 28.1026 22.1727 28.1026 21.5115C28.1026 20.8503 28.5559 20.2797 29.2064 20.2797C29.4624 20.2797 29.7236 20.381 29.889 20.5837V18.9253H30.6675V22.674H29.889V22.4127ZM28.9131 21.5168C28.9131 21.8101 29.0998 22.0341 29.4144 22.0341C29.7343 22.0341 29.9156 21.8101 29.9156 21.5168C29.9156 21.2342 29.729 20.9943 29.4144 20.9943C29.0944 20.9889 28.9131 21.2289 28.9131 21.5168Z" fill="#174A99"/>
<path d="M33.291 21.6506H31.6486C31.6486 21.9866 31.8139 22.1679 32.1392 22.1679C32.3045 22.1679 32.4271 22.1092 32.5124 21.9546H33.2643C33.1417 22.5038 32.6458 22.7491 32.1445 22.7491C31.414 22.7491 30.8701 22.3172 30.8701 21.5173C30.8701 20.7441 31.3713 20.2802 32.0912 20.2802C32.8537 20.2802 33.2963 20.7761 33.2963 21.5653V21.6506H33.291ZM32.5658 21.1761C32.5284 20.9521 32.3365 20.8081 32.1232 20.8081C31.8939 20.8081 31.7073 20.9361 31.6593 21.1761H32.5658Z" fill="#174A99"/>
<path d="M34.9707 20.9523C34.848 20.8829 34.6827 20.8403 34.5494 20.8403C34.4588 20.8403 34.3041 20.8829 34.3041 21.0002C34.3041 21.1602 34.5494 21.1815 34.6561 21.2029C35.0187 21.2775 35.296 21.4588 35.296 21.8908C35.296 22.4986 34.7681 22.7546 34.2561 22.7546C33.9415 22.7546 33.6323 22.6586 33.371 22.488L33.6536 21.9121C33.8136 22.0294 34.0802 22.1467 34.2721 22.1467C34.3735 22.1467 34.5174 22.0987 34.5174 21.9707C34.5174 21.7894 34.2721 21.7788 34.0269 21.7148C33.7816 21.6455 33.5363 21.5228 33.5363 21.1069C33.5363 20.5363 34.0269 20.2857 34.5068 20.2857C34.7574 20.2857 35.0027 20.3284 35.232 20.435L34.9707 20.9523Z" fill="#174A99"/>
<path d="M12.8518 17H4V22.695H12.8518V17Z" fill="#DF271C"/>
<path d="M9.51406 22.6901C9.51406 22.6901 9.47674 22.6581 9.51406 22.5888C9.53006 22.5568 9.55672 22.4928 9.58338 22.4554C9.58338 22.4501 9.59405 22.3968 9.58338 22.3701C9.57272 22.3488 9.57805 22.3221 9.58338 22.3168C9.58872 22.2901 9.58872 22.2422 9.58338 22.2315C9.54073 22.0982 9.46607 21.8902 9.4874 21.5436C9.4874 21.5276 9.49273 21.4903 9.4874 21.437C9.48207 21.3676 9.4714 21.325 9.46607 21.2717C9.41275 21.1117 9.36476 20.9091 9.36476 20.9091L9.34343 20.7651L9.32743 20.5358C9.32743 20.5358 9.3221 20.2692 9.34876 20.1305C9.37542 19.9866 9.42875 19.6986 9.42875 19.6986L9.42341 19.1547C9.42341 19.1547 9.40208 19.0854 9.38609 19.1547C9.38609 19.1867 9.38075 19.5333 9.34343 19.6186C9.34343 19.6293 9.33809 19.6773 9.34343 19.6933C9.35409 19.7839 9.36476 19.9226 9.3061 20.1092C9.27411 20.2105 9.26877 20.3652 9.26877 20.3652C9.26877 20.3652 9.28477 20.4718 9.28477 20.4985C9.28477 20.5198 9.27411 20.5891 9.27411 20.5891C9.27411 20.5891 9.27944 20.6318 9.26877 20.6478C9.25278 20.6958 9.23145 20.6371 9.23145 20.6371C9.23145 20.6371 9.22611 20.5998 9.22078 20.5625C9.21545 20.5251 9.18879 20.5784 9.18879 20.5784C9.18879 20.5784 9.16746 20.7224 9.22611 20.7917C9.24744 20.8184 9.21012 20.8344 9.19412 20.8131C9.18879 20.8077 9.10347 20.7118 9.10347 20.6318V20.5784L9.13546 20.4025C9.1408 20.3865 9.1408 20.2638 9.1408 20.2638C9.07148 19.8479 9.13546 19.6559 9.13013 19.592C9.11413 19.4267 9.1248 19.3307 9.1408 19.1067L9.14613 19.064C9.15146 19.0161 9.15679 18.9787 9.15679 18.9787C9.1408 18.6908 9.32743 18.6695 9.32743 18.6695C9.32743 18.6695 9.39675 18.6161 9.54073 18.5788C9.56739 18.5735 9.64204 18.5255 9.64737 18.5095C9.65271 18.4935 9.66337 18.3228 9.64204 18.3069C9.53006 18.2055 9.53006 18.0349 9.53539 17.9976C9.56206 17.8589 9.64737 17.8109 9.73802 17.8003C9.73802 17.8003 9.86067 17.7683 9.96198 17.8269C10.0153 17.8536 10.042 17.9016 10.042 17.9016C10.042 17.9016 10.0686 17.9442 10.074 17.9709C10.0793 18.0189 10.074 18.0882 10.074 18.0882L10.1006 18.1309C10.1006 18.1309 10.122 18.1682 10.1273 18.1789C10.1326 18.1895 10.138 18.1949 10.1326 18.2002C10.1273 18.2109 10.1166 18.2109 10.1166 18.2109L10.0793 18.2162C10.0793 18.2162 10.074 18.2429 10.0793 18.2482C10.0793 18.2535 10.1006 18.2802 10.074 18.2802C10.0793 18.2855 10.0793 18.2909 10.0793 18.2909L10.0633 18.3175C10.0633 18.3175 10.0633 18.3708 10.0633 18.3762C10.0633 18.3868 10.042 18.3975 10.0313 18.4028C10.0206 18.4082 9.95665 18.4082 9.95665 18.4082C9.94599 18.4295 9.95665 18.4828 9.96198 18.4988C9.96732 18.5148 10.0366 18.5575 10.0633 18.5681C10.2126 18.6055 10.2819 18.6588 10.2819 18.6588C10.2819 18.6588 10.4419 18.6695 10.4472 18.9041L10.2233 19.1067C10.2073 19.1174 10.2019 19.128 10.2019 19.128L10.1699 19.6879C10.1699 19.6879 10.2286 20.0026 10.2553 20.1199C10.2873 20.2585 10.2766 20.5251 10.2766 20.5251L10.2606 20.7544L10.2393 20.8984C10.2393 20.8984 10.1913 21.1064 10.138 21.261C10.138 21.3143 10.1326 21.3623 10.122 21.421C10.1166 21.4743 10.1166 21.5116 10.1166 21.5276C10.122 21.8689 10.042 22.0822 10.0153 22.2155C10.01 22.2422 9.98331 22.3648 10.01 22.4075C10.0153 22.4181 10.0686 22.4821 10.1006 22.4928C10.1699 22.5194 10.1699 22.5354 10.2553 22.5781C10.2819 22.5888 10.3086 22.6101 10.3246 22.6101C10.3726 22.6154 10.3459 22.6741 10.3459 22.6741H9.51406V22.6901Z" fill="white"/>
<path d="M9.79641 20.4344C9.79641 20.4344 9.80174 20.4398 9.80174 20.4504C9.80174 20.4718 9.80708 21.069 9.82307 21.149V21.213C9.82307 21.2343 9.8284 21.2823 9.8284 21.309C9.8284 21.3356 9.82307 21.4049 9.82307 21.4049L9.8284 21.4689C9.8284 21.4689 9.80174 21.6236 9.80174 21.7302C9.80174 21.8422 9.80708 22.1568 9.82307 22.2528C9.82307 22.2688 9.8284 22.3061 9.82307 22.3541C9.81774 22.3861 9.80708 22.4928 9.79641 22.5034C9.78041 22.5141 9.76442 22.4021 9.76442 22.3754C9.76442 22.3648 9.77508 22.3221 9.76975 22.3061C9.75908 22.2848 9.79108 21.8475 9.79108 21.7356C9.79108 21.6236 9.75908 21.4743 9.75908 21.4743V21.4049C9.75908 21.4049 9.75908 21.341 9.75908 21.3143C9.75908 21.2876 9.75375 21.2236 9.75908 21.2076C9.76442 21.1916 9.76442 21.149 9.76442 21.149C9.78575 20.9943 9.78575 20.4718 9.78575 20.4504C9.78575 20.4398 9.79641 20.4344 9.79641 20.4344Z" fill="#DF271C"/>
<path d="M10.4094 20.8244C10.3934 20.8404 10.3561 20.8297 10.3774 20.8031C10.4361 20.7338 10.4148 20.5898 10.4148 20.5898C10.4148 20.5898 10.3881 20.5471 10.3828 20.5738C10.3774 20.6005 10.3721 20.6484 10.3721 20.6484C10.3721 20.6484 10.3561 20.7071 10.3348 20.6591C10.3295 20.6378 10.3295 20.6005 10.3295 20.6005C10.3295 20.6005 10.3188 20.5311 10.3188 20.5098C10.3188 20.4831 10.3348 20.3765 10.3348 20.3765C10.3348 20.3765 10.3295 20.2219 10.2975 20.1205C10.2388 19.9339 10.2495 19.7953 10.2601 19.7046C10.2601 19.6886 10.2548 19.646 10.2601 19.6353C10.2335 19.5713 10.2441 19.3473 10.2335 19.1714L10.4468 18.9847L10.4574 19.1234C10.4681 19.3527 10.4788 19.454 10.4734 19.614C10.4681 19.6833 10.5321 19.8753 10.4628 20.2858C10.4628 20.2858 10.4628 20.4085 10.4681 20.4245L10.5001 20.6005V20.6538C10.5001 20.7231 10.4094 20.8191 10.4094 20.8244Z" fill="white"/>
<path d="M10.4843 18.9368L10.5377 18.9848C10.7083 19.1234 10.7776 19.2034 10.8896 19.3314C10.9323 19.3847 11.1136 19.4753 11.3535 19.8166C11.3535 19.8166 11.4388 19.9019 11.4548 19.9126L11.6041 20.0139L11.6575 20.0886C11.7055 20.1579 11.7161 20.1899 11.7161 20.1899C11.7215 20.2112 11.7161 20.2272 11.6895 20.2112C11.6895 20.2112 11.5881 20.0832 11.5348 20.0726C11.4975 20.0566 11.4868 20.0566 11.5028 20.0832C11.5242 20.1099 11.5508 20.1472 11.5508 20.1472C11.5508 20.1472 11.5775 20.2005 11.5295 20.1792C11.5082 20.1686 11.4815 20.1366 11.4815 20.1366C11.4815 20.1366 11.4228 20.0939 11.4068 20.0779C11.3909 20.0619 11.3215 19.9713 11.3215 19.9713C11.3215 19.9713 11.2042 19.8646 11.1136 19.8166C10.9376 19.7206 10.8523 19.6193 10.7936 19.5447C10.783 19.534 10.7456 19.5073 10.7403 19.4967C10.687 19.4753 10.575 19.374 10.4897 19.2887L10.4843 18.9368Z" fill="white"/>
<path d="M12.1108 18.7555C12.1268 18.7715 12.1108 18.7928 12.0841 18.7928C12.0041 18.7821 11.8601 18.7874 11.8601 18.7874C11.8601 18.7874 11.8175 18.8141 11.8441 18.8194C11.8761 18.8248 11.9241 18.8354 11.9241 18.8354C11.9241 18.8354 11.9828 18.8568 11.9295 18.8728C11.9081 18.8781 11.8655 18.8728 11.8655 18.8728C11.8655 18.8728 11.7908 18.8834 11.7748 18.8834C11.7588 18.8834 11.6415 18.8621 11.6415 18.8621C11.6415 18.8621 11.4869 18.8621 11.3855 18.8888C11.1936 18.9368 11.0603 18.9208 10.9696 18.9048C10.9536 18.9048 10.911 18.9048 10.9003 18.9048C10.847 18.9261 10.6177 18.9261 10.4844 18.9261L10.479 18.8674C10.4737 18.8408 10.4577 18.7874 10.447 18.7715C10.4364 18.7501 10.4204 18.7288 10.3991 18.7075C10.3617 18.6808 10.3351 18.6701 10.3351 18.6701C10.559 18.6648 10.719 18.6701 10.8843 18.6915C10.9536 18.7021 11.1456 18.6435 11.5562 18.7341C11.5562 18.7341 11.6788 18.7395 11.6948 18.7341L11.8708 18.7075L11.9934 18.7341L12.1108 18.7555Z" fill="white"/>
<path d="M35.4348 22.4666C35.4348 22.3119 35.5574 22.1893 35.7174 22.1893C35.872 22.1893 36 22.3119 36 22.4666C36 22.6212 35.8774 22.7492 35.7174 22.7492C35.5574 22.7492 35.4348 22.6212 35.4348 22.4666ZM35.952 22.4666C35.952 22.3332 35.84 22.2319 35.7121 22.2319C35.5841 22.2319 35.4721 22.3386 35.4721 22.4666C35.4721 22.5999 35.5841 22.7012 35.7121 22.7012C35.8454 22.7065 35.952 22.5999 35.952 22.4666ZM35.8507 22.6212H35.7974L35.7067 22.4772H35.6534V22.6212H35.6107V22.3119H35.744C35.7974 22.3119 35.8507 22.3279 35.8507 22.3919C35.8507 22.4506 35.808 22.4772 35.7547 22.4772L35.8507 22.6212ZM35.7067 22.4346C35.744 22.4346 35.8134 22.4399 35.8134 22.3919C35.8134 22.3599 35.7707 22.3546 35.7387 22.3546H35.6587V22.4346H35.7067Z" fill="#174A99"/>
</svg>
