<svg width="40" height="40" viewBox="0 0 40 40" fill="none" xmlns="http://www.w3.org/2000/svg">
<path d="M24.5004 15.4123C24.4899 15.3928 24.4775 15.3743 24.4636 15.357C24.3596 15.2323 24.2137 15.2323 24.1588 15.2323H23.2739C23.0577 15.2323 22.9007 15.365 22.8642 15.5788L22.8587 15.6082L22.0662 20.1388C22.0391 20.2944 22.0919 20.3969 22.1415 20.4555C22.1911 20.5141 22.2827 20.5839 22.4399 20.5839H23.4182C23.4214 20.5839 23.428 20.5834 23.4346 20.5831C23.6414 20.576 23.792 20.4438 23.8273 20.238L24.305 17.5106C24.3127 17.467 24.3256 17.4245 24.3435 17.384C24.4376 17.1678 24.6595 17.0228 24.8955 17.0228C24.9714 17.0228 25.0066 17.0397 25.0512 17.0613C25.0996 17.0846 25.1657 17.1166 25.2542 17.1166C25.2772 17.1166 25.3303 17.1051 25.3527 17.0998L25.3132 17.1094C25.4899 17.0832 25.6324 16.9454 25.6651 16.7612C25.6651 16.7612 25.8496 15.7057 25.85 15.7041C25.8533 15.683 25.8551 15.6617 25.8552 15.6404C25.8552 15.4626 25.7373 15.3103 25.5615 15.271C25.4345 15.2389 25.3011 15.2319 25.2107 15.2319C24.9695 15.232 24.7097 15.313 24.5004 15.4123ZM23.3253 20.5834H23.3243L23.3418 20.5822C23.3386 20.5824 23.3318 20.5828 23.3253 20.5834Z" fill="#002596"/>
<path d="M22.1279 20.4672C22.0858 20.4173 22.041 20.336 22.041 20.221C22.0411 20.1924 22.0437 20.1639 22.0488 20.1358L22.8412 15.6052L22.8466 15.5763C22.8838 15.3551 23.0499 15.2143 23.2736 15.2151H24.1585C24.2137 15.2151 24.3673 15.2151 24.4766 15.3462C24.488 15.36 24.4984 15.3746 24.5075 15.39C24.7157 15.2933 24.971 15.2153 25.2101 15.2151C25.3013 15.2151 25.436 15.2223 25.5646 15.2545C25.7485 15.2956 25.8722 15.4555 25.8718 15.6411C25.8719 15.6632 25.8702 15.6853 25.8666 15.7071C25.8663 15.7104 25.6817 16.7646 25.6817 16.765C25.6477 16.9566 25.4996 17.1002 25.3152 17.1275C25.3135 17.1277 25.3117 17.1277 25.31 17.1275C25.2914 17.1314 25.2725 17.1338 25.2536 17.1346C25.1608 17.1346 25.0914 17.1011 25.043 17.0778C24.9981 17.0563 24.9682 17.0412 24.8949 17.0408C24.6663 17.0408 24.4503 17.182 24.3591 17.392C24.342 17.4312 24.3296 17.4722 24.322 17.5143L23.8445 20.2416C23.8084 20.455 23.6494 20.5946 23.4352 20.6013C23.4288 20.602 23.4224 20.6021 23.4179 20.6021H22.439C22.2767 20.6021 22.1792 20.5288 22.1279 20.4673V20.4672ZM23.418 20.5669C23.4205 20.5669 23.4271 20.5664 23.4338 20.566C23.6333 20.5587 23.7752 20.4341 23.8099 20.2354L24.2878 17.508C24.2955 17.4631 24.3087 17.4193 24.3271 17.3775C24.4242 17.1549 24.652 17.0053 24.895 17.0053C24.9732 17.0053 25.0139 17.0239 25.0583 17.0458C25.1067 17.069 25.1695 17.0992 25.2537 17.0992C25.2713 17.0992 25.3196 17.0897 25.3436 17.084C25.3466 17.0834 25.3481 17.0829 25.3481 17.0829C25.3506 17.0825 25.3531 17.0825 25.3556 17.0829C25.5036 17.0428 25.6188 16.9193 25.6474 16.7585C25.6474 16.7575 25.8207 15.7681 25.8319 15.7047C25.832 15.7037 25.8322 15.7027 25.8324 15.7017C25.8357 15.6815 25.8373 15.6611 25.8373 15.6407C25.8373 15.4709 25.7251 15.3262 25.5568 15.2882C25.4323 15.2569 25.3001 15.2497 25.2102 15.2497C24.9732 15.2497 24.7154 15.3296 24.5076 15.4281C24.5036 15.4301 24.4989 15.4303 24.4947 15.4289C24.4904 15.4275 24.4868 15.4246 24.4847 15.4206C24.4749 15.402 24.4632 15.3844 24.4497 15.3681C24.3517 15.2501 24.2132 15.2497 24.1586 15.2497H23.2736C23.0648 15.2505 22.9173 15.3752 22.8812 15.5819L22.8755 15.6111L22.0834 20.1417C22.0787 20.1678 22.0763 20.1943 22.0762 20.2208C22.0762 20.3267 22.1166 20.3989 22.1547 20.4445C22.2017 20.5 22.2876 20.5664 22.4396 20.5664H23.3192C23.3202 20.566 23.3213 20.5658 23.3223 20.5659H23.3233H23.324C23.33 20.5655 23.3356 20.5653 23.3394 20.565H23.3407C23.3436 20.5648 23.3465 20.5654 23.3491 20.5667H23.4179L23.418 20.5669ZM24.5001 15.4127L24.5157 15.4043L24.5001 15.4127Z" fill="#002596"/>
<path d="M26.1776 16.0235C25.9643 16.2776 25.8454 16.4611 25.8236 16.569C25.8233 16.5706 25.8231 16.5729 25.8227 16.5742C25.8119 16.633 25.7939 16.8341 26.0203 16.9563C26.0177 16.955 26.0153 16.9535 26.0128 16.9523L26.6405 17.3165C26.2135 17.4922 25.8575 17.8061 25.6407 18.2202C25.5452 18.4006 25.479 18.5951 25.4447 18.7964L25.4357 18.8463C25.4175 18.949 25.4082 19.0531 25.408 19.1575C25.408 19.5049 25.5157 19.8199 25.7229 20.0665C26.0032 20.4002 26.4377 20.5843 26.9466 20.5843H27.3421C27.529 20.5843 27.7268 20.5647 27.9419 20.4785C27.9429 20.4796 27.9436 20.481 27.9447 20.4821C28.0153 20.5656 28.1174 20.5843 28.2479 20.5843H29.1326C29.1362 20.5843 29.1429 20.5838 29.1498 20.5836C29.356 20.5759 29.5063 20.4443 29.5422 20.2392L30.0557 17.3027C30.0805 17.1629 30.0933 17.0212 30.0938 16.8792C30.0938 16.4444 29.9642 16.0631 29.7105 15.7611C29.3628 15.3472 28.821 15.1286 28.1429 15.1286C27.3166 15.1284 26.692 15.4126 26.1776 16.0235ZM27.9517 16.8044C28.08 16.8044 28.185 16.8448 28.2464 16.9176C28.2928 16.973 28.3067 17.0388 28.3067 17.0977C28.3063 17.1183 28.3044 17.1389 28.301 17.1592H27.4434C27.4344 17.1592 27.4258 17.1608 27.4168 17.1608C27.6129 16.9274 27.7965 16.8044 27.9517 16.8044ZM28.7989 20.5838H28.7973L28.8166 20.5824C28.8131 20.5825 28.8061 20.5829 28.7991 20.5836L28.7989 20.5838Z" fill="#002596"/>
<path d="M27.937 20.4995C27.7238 20.5829 27.5271 20.6016 27.3425 20.6016H26.9469C26.4338 20.6016 25.9936 20.416 25.7095 20.0777C25.4997 19.8278 25.3903 19.5084 25.3904 19.1575C25.3907 19.052 25.4001 18.9468 25.4185 18.843L25.4275 18.793C25.4621 18.5901 25.5289 18.3941 25.6251 18.2123C25.8383 17.805 26.1851 17.4935 26.6015 17.3142L26.0058 16.9687C25.832 16.8725 25.799 16.7269 25.7996 16.6375C25.7996 16.6151 25.8016 16.5929 25.8056 16.5709C25.8059 16.5709 25.8059 16.5683 25.8067 16.5657C25.8305 16.4502 25.9505 16.2673 26.1643 16.0122L26.1777 16.0233L26.1643 16.012C26.6812 15.3976 27.3127 15.1102 28.1433 15.1108C28.8247 15.1108 29.3728 15.3308 29.7242 15.7495C29.981 16.0549 30.1118 16.4406 30.1118 16.8789C30.1113 17.022 30.0984 17.1648 30.0733 17.3056L29.5599 20.2422C29.5233 20.4545 29.3644 20.5939 29.1511 20.6008C29.1441 20.6012 29.1375 20.6016 29.1331 20.6016H28.2474C28.119 20.6016 28.0125 20.5835 27.9373 20.4994L27.937 20.4995ZM29.133 20.5665C29.1385 20.5665 29.144 20.5663 29.1494 20.5658C29.348 20.5582 29.4896 20.4339 29.5252 20.2362L30.0387 17.2996C30.0634 17.1608 30.0761 17.02 30.0766 16.879C30.0766 16.4476 29.9482 16.0708 29.6975 15.7723C29.3538 15.3631 28.8176 15.146 28.1433 15.1459C27.3207 15.1459 26.703 15.4277 26.1912 16.0347C25.9785 16.2877 25.8606 16.4718 25.8407 16.5738C25.8406 16.5753 25.8403 16.5767 25.8398 16.5781C25.8364 16.5978 25.8346 16.6178 25.8346 16.6378C25.8354 16.7193 25.8615 16.8464 26.0199 16.9364C26.0203 16.9369 26.0209 16.9372 26.0215 16.9373C26.0228 16.938 26.0239 16.9389 26.0253 16.9395C26.0263 16.9403 26.0275 16.941 26.0288 16.9415C26.0295 16.9419 26.0301 16.9423 26.0308 16.9428C26.099 16.9825 26.5222 17.228 26.6496 17.3022C26.6524 17.3038 26.6547 17.3062 26.6562 17.3091C26.6578 17.312 26.6585 17.3153 26.6583 17.3185C26.658 17.3218 26.6568 17.3249 26.6549 17.3275C26.653 17.3302 26.6504 17.3322 26.6474 17.3335C26.2238 17.5075 25.8708 17.8188 25.6559 18.229C25.5615 18.4079 25.4961 18.6007 25.4621 18.8001L25.4531 18.8497C25.435 18.9514 25.4258 19.0545 25.4255 19.1577C25.4255 19.5014 25.5323 19.8123 25.7366 20.0555C26.0131 20.3848 26.4421 20.5667 26.9469 20.5667H27.3424C27.5278 20.5667 27.7231 20.5475 27.9354 20.4624C27.9387 20.461 27.9422 20.4607 27.9457 20.4615C27.9491 20.4622 27.9523 20.464 27.9546 20.4666C27.9559 20.4679 27.9571 20.4694 27.9582 20.4709C28.0236 20.5484 28.1186 20.5667 28.2481 20.5667H28.7928C28.7944 20.5663 28.796 20.5661 28.7976 20.5661C28.8047 20.5658 28.8116 20.5652 28.8155 20.565H28.8185C28.8187 20.5649 28.8189 20.5649 28.8191 20.565H28.8198C28.8198 20.565 28.8201 20.5653 28.8203 20.5653C28.8206 20.5653 28.8208 20.5653 28.821 20.5653H28.8216H28.8221C28.8221 20.5653 28.8225 20.5653 28.8227 20.5658H28.823H28.8236H29.1317L29.133 20.5665ZM27.401 17.1682C27.3996 17.1651 27.3991 17.1617 27.3995 17.1584C27.4 17.1551 27.4013 17.152 27.4035 17.1494C27.6013 16.9147 27.7869 16.7875 27.952 16.7869V16.8218C27.8127 16.8212 27.6412 16.9297 27.4565 17.1414H28.2862C28.2883 17.1269 28.2894 17.1122 28.2896 17.0975C28.2896 17.041 28.2762 16.98 28.2331 16.9287C28.1765 16.8611 28.0773 16.8218 27.952 16.8218V16.7869C28.0842 16.7869 28.1944 16.8281 28.26 16.9063C28.3097 16.9654 28.3242 17.036 28.3242 17.0975C28.3239 17.119 28.322 17.1405 28.3183 17.1617C28.3176 17.1658 28.3155 17.1695 28.3123 17.1722C28.3092 17.1749 28.3051 17.1764 28.301 17.1765H27.4437C27.4368 17.1765 27.4282 17.178 27.4171 17.1782C27.4137 17.1782 27.4104 17.1773 27.4076 17.1755C27.4048 17.1738 27.4025 17.1712 27.401 17.1682V17.1682Z" fill="#002596"/>
<path d="M21.1967 14.233H20.7429C20.5278 14.233 20.3706 14.3649 20.3333 14.5771L20.3229 14.6316C20.3229 14.6324 20.3213 14.636 20.3213 14.6367L20.2926 14.7944C20.2926 14.7944 20.2557 14.9916 20.2305 15.1281H19.6815C19.4696 15.1281 19.3127 15.2584 19.2723 15.4682L19.2659 15.5015L19.1075 16.355C19.1081 16.3518 19.109 16.3486 19.1098 16.3452C19.0977 16.3981 19.096 16.4529 19.1049 16.5065C19.1053 16.5095 19.1059 16.5125 19.1066 16.5154C19.1322 16.6485 19.2454 16.8042 19.4788 16.8042H19.7801C19.7172 17.1643 19.5012 18.3995 19.5012 18.3995C19.4766 18.5371 19.464 18.6765 19.4636 18.8163C19.4636 19.5301 19.8186 20.0854 20.4745 20.3722C20.8134 20.5178 21.2143 20.584 21.4436 20.584C21.4436 20.584 21.477 20.581 21.4893 20.5798C21.6771 20.5605 21.8186 20.4308 21.8529 20.24L22.0095 19.3433C22.0138 19.3181 22.0159 19.2926 22.016 19.267C22.016 19.1738 21.9866 19.0899 21.9303 19.0236C21.861 18.9422 21.7604 18.8972 21.6469 18.8972C21.6543 18.8972 21.6616 18.8972 21.669 18.898C21.4945 18.8847 21.369 18.8348 21.3059 18.7536C21.2659 18.7023 21.2536 18.6393 21.2536 18.5816C21.2538 18.5542 21.2562 18.5269 21.261 18.4999C21.261 18.4999 21.5508 16.8458 21.558 16.8044H22.1042C22.1064 16.8044 22.1106 16.8044 22.1148 16.8038L22.1212 16.8033H22.1204C22.3281 16.7969 22.4788 16.6647 22.5141 16.458L22.6688 15.5738C22.6822 15.4968 22.666 15.3729 22.62 15.309C22.574 15.2452 22.5058 15.1591 22.4282 15.1476L22.2959 15.1283H21.8517C21.8871 14.9239 21.9298 14.6781 21.9298 14.6781C21.9349 14.6504 21.9376 14.6223 21.9377 14.5941C21.9389 14.5099 21.9101 14.428 21.8565 14.3631C21.8073 14.3037 21.7153 14.2331 21.5572 14.2331L21.1967 14.233ZM21.6143 20.5797C21.605 20.5807 21.5963 20.5826 21.5869 20.5832C21.5914 20.5829 21.619 20.5794 21.6234 20.5789L21.6143 20.5797Z" fill="#002596"/>
<path d="M20.467 20.3892C19.8052 20.1004 19.4449 19.5369 19.4456 18.817C19.446 18.6762 19.4586 18.5357 19.4834 18.3972C19.4834 18.3972 19.6915 17.2068 19.7586 16.8224H19.4783C19.2362 16.8229 19.1154 16.6594 19.0889 16.5196C19.0885 16.5168 19.0878 16.5136 19.0872 16.5102C19.0833 16.4866 19.0813 16.4626 19.0812 16.4387C19.0813 16.4085 19.0845 16.3784 19.0907 16.3488L19.2483 15.4985L19.2548 15.4653C19.2958 15.2482 19.4616 15.11 19.6812 15.1109H20.2157C20.2408 14.9753 20.2749 14.7919 20.2749 14.7915L20.3037 14.6339C20.304 14.6321 20.3046 14.6303 20.3054 14.6287L20.3156 14.5742C20.3541 14.3547 20.52 14.2148 20.7427 14.2157H21.1965V14.2508H20.7427C20.5351 14.2517 20.3874 14.3756 20.3502 14.5807L20.3398 14.6351C20.3395 14.637 20.3389 14.6389 20.338 14.6407L20.3095 14.7978C20.3095 14.7978 20.2726 14.9949 20.2474 15.1315C20.2466 15.1355 20.2445 15.1391 20.2414 15.1418C20.2383 15.1444 20.2343 15.1458 20.2303 15.1459H19.6812C19.4767 15.1465 19.329 15.2692 19.2892 15.472L19.2828 15.5052L19.1267 16.3463C19.1269 16.3474 19.1269 16.3485 19.1267 16.3496C19.1267 16.35 19.1267 16.3504 19.1264 16.3507C19.1261 16.3527 19.1256 16.3545 19.1253 16.3565L19.1249 16.3589C19.1248 16.3594 19.1247 16.3598 19.1245 16.3602C19.1192 16.3862 19.1164 16.4127 19.1164 16.4392C19.1164 16.4614 19.1183 16.4835 19.122 16.5054C19.1224 16.508 19.1229 16.5107 19.1233 16.5137C19.149 16.6402 19.2539 16.7875 19.4783 16.7878H19.7796C19.7821 16.7879 19.7846 16.7885 19.7869 16.7896C19.7892 16.7907 19.7912 16.7923 19.7929 16.7942C19.7945 16.7962 19.7958 16.7984 19.7964 16.8009C19.7971 16.8033 19.7972 16.8059 19.7967 16.8084C19.7338 17.1685 19.5178 18.4036 19.5178 18.4036C19.4934 18.5402 19.4809 18.6787 19.4804 18.8176C19.4811 19.5254 19.831 20.0726 20.4808 20.3573C20.8169 20.5019 21.2168 20.5675 21.4418 20.5675C21.4418 20.5675 21.4752 20.5646 21.4871 20.5634C21.668 20.5446 21.8022 20.4216 21.8352 20.2378L21.9918 19.3414C21.996 19.3171 21.9981 19.2925 21.9982 19.2678C21.9982 19.1783 21.9701 19.0988 21.9168 19.0359C21.8558 18.9641 21.7692 18.9222 21.6708 18.9163C21.6697 18.9164 21.6685 18.9164 21.6674 18.9163C21.6604 18.9158 21.6535 18.9155 21.6468 18.9155C21.6441 18.9154 21.6415 18.9149 21.6391 18.9138C21.4766 18.8971 21.3567 18.8475 21.2925 18.7651C21.2492 18.7094 21.2365 18.6424 21.2365 18.5823C21.2367 18.554 21.2392 18.5258 21.244 18.4979C21.244 18.4979 21.3165 18.0842 21.3901 17.6655C21.4632 17.2467 21.5373 16.8227 21.541 16.8021C21.5417 16.798 21.5439 16.7943 21.5471 16.7917C21.5503 16.789 21.5543 16.7876 21.5585 16.7876H22.1046C22.1055 16.7876 22.1096 16.7876 22.1148 16.787C22.1159 16.7871 22.117 16.7871 22.1181 16.787H22.1203C22.3206 16.7802 22.4626 16.6555 22.497 16.4561L22.652 15.5717C22.655 15.5535 22.6564 15.535 22.6563 15.5165C22.6563 15.4475 22.6381 15.3641 22.6061 15.3203C22.5612 15.2567 22.4927 15.1746 22.426 15.1662L22.2953 15.147H21.8521C21.8495 15.147 21.8469 15.1464 21.8446 15.1453C21.8422 15.1442 21.8401 15.1426 21.8385 15.1406C21.8369 15.1386 21.8357 15.1363 21.835 15.1339C21.8343 15.1314 21.8342 15.1288 21.8346 15.1263C21.8703 14.9219 21.9127 14.6766 21.9127 14.676C21.9178 14.6493 21.9204 14.6223 21.9206 14.5952C21.9218 14.5151 21.8945 14.4373 21.8436 14.3755C21.7964 14.3192 21.7105 14.2521 21.5577 14.2519H21.1972V14.2168H21.5577C21.7214 14.2168 21.8192 14.2907 21.8706 14.3532C21.9267 14.4212 21.9569 14.5069 21.9558 14.5952C21.9557 14.6243 21.9529 14.6534 21.9474 14.682C21.9474 14.682 21.9077 14.9119 21.873 15.112H22.299L22.4313 15.1316C22.5199 15.146 22.5877 15.2362 22.6345 15.3001C22.6737 15.355 22.6913 15.4419 22.6915 15.5168C22.6915 15.5373 22.6899 15.5578 22.6867 15.578L22.5309 16.4618C22.4955 16.6748 22.3371 16.8147 22.1233 16.8217H22.1222C22.1222 16.8217 22.1186 16.8217 22.1158 16.8217C22.1112 16.8221 22.1074 16.8225 22.1038 16.8225H21.5723C21.5428 16.9916 21.2778 18.5038 21.2778 18.5038C21.2732 18.5297 21.2708 18.556 21.2707 18.5823C21.2707 18.6378 21.2826 18.6965 21.3192 18.7437C21.3762 18.8173 21.494 18.8667 21.6613 18.8808C21.7735 18.8844 21.8736 18.9312 21.9432 19.0131C22.0021 19.0825 22.0331 19.171 22.0331 19.2678C22.0331 19.2944 22.0309 19.3209 22.0267 19.3472L21.8699 20.2439C21.8436 20.3926 21.7531 20.5067 21.6266 20.5627C21.6279 20.5628 21.6291 20.5632 21.6302 20.5639H21.6307C21.6333 20.5651 21.6355 20.567 21.6371 20.5693C21.6371 20.5696 21.6371 20.5696 21.6371 20.5698C21.6371 20.5698 21.6371 20.5703 21.6375 20.5704C21.6386 20.5726 21.6393 20.5749 21.6398 20.5773C21.6399 20.5787 21.6399 20.5803 21.6398 20.5817V20.5821C21.6395 20.5821 21.6395 20.5821 21.6395 20.5825C21.6395 20.5825 21.6395 20.5833 21.6395 20.5834C21.6394 20.5837 21.6394 20.5841 21.6395 20.5844C21.6386 20.5865 21.6375 20.5885 21.6361 20.5903C21.6341 20.5923 21.6318 20.594 21.6293 20.5951C21.629 20.5951 21.629 20.5951 21.6289 20.5951H21.6279C21.6269 20.5955 21.6259 20.5958 21.6249 20.5959H21.6235C21.62 20.5963 21.6114 20.5975 21.6034 20.5983C21.5981 20.5992 21.5928 20.5998 21.5874 20.6H21.586C21.5859 20.6 21.5858 20.6 21.5858 20.6C21.5857 20.6 21.5856 20.6 21.5855 20.6H21.5843C21.584 20.6 21.5839 20.6 21.5837 20.6H21.5829C21.5829 20.5997 21.5829 20.5997 21.5829 20.5997H21.5823C21.5821 20.5998 21.5818 20.5998 21.5816 20.5997H21.5812C21.5812 20.5997 21.5806 20.5997 21.5804 20.5993C21.5774 20.598 21.5748 20.5958 21.573 20.5931C21.5712 20.5904 21.5702 20.5872 21.5701 20.5839V20.583V20.5827C21.5444 20.59 21.5181 20.5951 21.4915 20.5977L21.4443 20.6018C21.2115 20.6018 20.8099 20.5355 20.4679 20.3888L20.467 20.3892Z" fill="#002596"/>
<path d="M11.4009 16.8781C11.4009 16.8789 11.3801 16.956 11.3773 16.9663C11.3737 16.9872 11.3718 17.0083 11.3715 17.0295C11.3713 17.1143 11.4008 17.1966 11.455 17.262C11.5283 17.3498 11.6374 17.398 11.7621 17.398H13.0015C13.2113 17.398 13.3831 17.2615 13.4186 17.0661C13.4186 17.0651 13.4192 17.0643 13.4193 17.0632C13.4469 16.9045 13.3845 16.6364 13.2117 16.431C13.0918 16.2884 12.8725 16.1183 12.5089 16.1183C11.8801 16.1183 11.4909 16.6301 11.4009 16.8781Z" fill="#002596"/>
<path d="M10.3853 16.439C10.2645 16.659 10.1831 16.8843 10.1439 17.1085L9.91771 18.3999C9.8118 19.0068 9.93568 19.5577 10.2664 19.9514C10.6146 20.3653 11.155 20.5844 11.8293 20.5844C12.7091 20.5844 13.3497 20.2671 13.9064 19.5563L13.9849 19.4546C14.1273 19.2641 14.1616 19.1885 14.1746 19.1156C14.1787 19.0942 14.1807 19.0726 14.1807 19.0509C14.1807 18.9189 14.1066 18.7955 13.9804 18.7259L13.3728 18.3979H14.0448C14.0484 18.3978 14.052 18.3975 14.0555 18.397C14.0589 18.397 14.0626 18.3967 14.0626 18.3967H14.0611C14.2678 18.3903 14.4184 18.258 14.4542 18.052L14.6018 17.2089C14.6961 16.6699 14.544 16.0995 14.1943 15.6836C13.8371 15.2587 13.3067 15.0248 12.7005 15.0248C11.5631 15.0248 10.7425 15.7866 10.3853 16.439ZM12.6465 18.3979C12.6406 18.4054 12.6336 18.4114 12.628 18.4194C12.6241 18.4249 12.6206 18.4306 12.6172 18.4365C12.4367 18.7408 12.2251 18.9083 12.0214 18.9083C11.9078 18.9083 11.816 18.8705 11.7556 18.7992C11.7074 18.7414 11.6823 18.6662 11.6823 18.5815C11.6824 18.5543 11.6848 18.5273 11.6895 18.5005C11.6895 18.5005 11.7024 18.4276 11.7074 18.3979L12.6465 18.3979Z" fill="#002596"/>
<path d="M11.8292 20.6014C11.1513 20.6014 10.605 20.3811 10.253 19.9622C9.99625 19.6569 9.86301 19.2583 9.86301 18.8135C9.86336 18.6737 9.87584 18.5341 9.9003 18.3964L10.1265 17.1047C10.1661 16.8785 10.248 16.6513 10.3698 16.43C10.7292 15.7731 11.5546 15.0068 12.7001 15.0065C13.3108 15.0065 13.8469 15.2426 14.2073 15.6718C14.4914 16.0098 14.6463 16.4486 14.6464 16.891C14.6465 16.9986 14.6373 17.106 14.6188 17.2119L14.4712 18.0548C14.4349 18.2674 14.2768 18.407 14.0639 18.4142H14.0568C14.0523 18.4142 14.0484 18.4151 14.0446 18.4152H13.442C13.6304 18.5168 13.9879 18.7099 13.9886 18.7104C14.12 18.7826 14.1979 18.9119 14.1979 19.0505C14.1979 19.0733 14.1957 19.096 14.1915 19.1184C14.1777 19.1954 14.1412 19.2742 13.9984 19.465L13.9196 19.5668C13.3616 20.2807 12.7141 20.6016 11.8311 20.6015H11.8289L11.8292 20.6014ZM10.4005 16.4474C10.2805 16.6655 10.1999 16.889 10.161 17.1112L9.93476 18.4026C9.91076 18.5382 9.8985 18.6756 9.89811 18.8133C9.89811 19.251 10.029 19.6411 10.2797 19.9394C10.624 20.3486 11.1585 20.5659 11.8291 20.5662C12.7046 20.5656 13.3377 20.2524 13.8921 19.5451L13.9706 19.4434C14.1128 19.2533 14.1449 19.1803 14.1573 19.1118C14.161 19.0915 14.1629 19.0709 14.1629 19.0503C14.1629 18.9247 14.0928 18.8073 13.972 18.7406L13.3643 18.4128C13.3609 18.4109 13.3581 18.408 13.3566 18.4044C13.355 18.4008 13.3546 18.3968 13.3556 18.393C13.3565 18.3892 13.3587 18.3858 13.3618 18.3834C13.3649 18.381 13.3687 18.3797 13.3726 18.3797H14.0446L14.0546 18.379H14.0583C14.0588 18.3791 14.0594 18.3791 14.06 18.379H14.0616C14.2601 18.3715 14.4017 18.2471 14.4368 18.0485L14.5844 17.2054C14.6025 17.1016 14.6116 16.9964 14.6115 16.891C14.6115 16.457 14.4592 16.0259 14.1807 15.6945C13.827 15.2739 13.302 15.042 12.7003 15.042C11.5715 15.0416 10.7556 15.7988 10.4007 16.447L10.3854 16.4387L10.4007 16.4473L10.4005 16.4474ZM11.7419 18.8098C11.6905 18.7489 11.6645 18.669 11.6645 18.5809C11.6646 18.5528 11.6671 18.5247 11.6719 18.4969C11.6719 18.4969 11.6848 18.4239 11.6898 18.3947C11.6905 18.3907 11.6926 18.3869 11.6958 18.3842C11.6989 18.3816 11.7029 18.3801 11.7071 18.3801H12.6462C12.6495 18.3801 12.6527 18.381 12.6555 18.3828C12.6583 18.3845 12.6606 18.387 12.662 18.39C12.6634 18.3929 12.664 18.3962 12.6637 18.3994C12.6634 18.4027 12.6621 18.4058 12.6601 18.4084C12.6525 18.4179 12.646 18.4234 12.6421 18.429C12.6386 18.4341 12.6352 18.4394 12.6318 18.4449C12.4501 18.7515 12.2351 18.9248 12.0211 18.9255H12.0203C11.9033 18.9255 11.8057 18.8858 11.7419 18.8099V18.8098ZM11.7066 18.5029C11.7021 18.5287 11.6998 18.5548 11.6996 18.5809C11.6996 18.6622 11.7236 18.7335 11.7688 18.7872C11.8252 18.8542 11.9112 18.8898 12.0211 18.8904C12.2145 18.8911 12.4229 18.7292 12.6017 18.427C12.6041 18.4229 12.6066 18.4192 12.6092 18.4152H11.7219C11.7161 18.449 11.7067 18.5031 11.7067 18.5029H11.7066Z" fill="#002596"/>
<path d="M14.6807 14.9194C14.4646 14.9194 14.303 15.0488 14.2686 15.2491C14.2649 15.2688 14.263 15.2887 14.263 15.3087C14.263 15.3729 14.2809 15.4315 14.2981 15.4781L14.3296 15.5575C14.3324 15.5649 14.3359 15.572 14.3401 15.5787C14.3401 15.5787 15.344 17.433 15.4877 17.6982C15.3215 17.9531 14.0921 19.838 14.0921 19.838C14.0823 19.8531 14.0738 19.8691 14.0668 19.8857L14.0626 19.8959L14.0369 19.9607C14.0196 20.0107 14.0034 20.0667 14.0034 20.129C14.0035 20.1473 14.0049 20.1656 14.0077 20.1838C14.0081 20.1859 14.0085 20.1885 14.0089 20.1906C14.0451 20.3896 14.2068 20.5179 14.4206 20.5179H15.6455C15.7919 20.5179 15.9229 20.4324 15.987 20.2946C15.9811 20.3077 15.974 20.3204 15.966 20.3324C15.966 20.3324 16.2339 19.9281 16.461 19.5855C16.7648 20.1752 17.479 21.5605 17.4838 21.57C17.4885 21.5795 17.5014 21.6081 17.5014 21.6081C17.5026 21.6111 17.5041 21.614 17.5058 21.6168C17.5058 21.6168 17.51 21.6251 17.5139 21.632C17.5472 21.6932 17.5965 21.7442 17.6566 21.7795C17.7167 21.8148 17.7852 21.8331 17.8549 21.8324H28.8109C28.9672 21.8307 29.0973 21.7462 29.1621 21.6064C29.1708 21.5879 29.1774 21.5686 29.1818 21.5487C29.1818 21.5487 29.3049 21.0072 29.3061 21.0023C29.3211 20.9568 29.3313 20.9108 29.3313 20.8664C29.3313 20.7392 29.2717 20.6215 29.1605 20.5455C29.0489 20.4675 28.9363 20.4696 28.846 20.4716H19.0858C18.9677 20.2479 17.7859 18.0081 17.6481 17.7466L19.0497 15.6058C19.0567 15.5949 19.0632 15.5836 19.0689 15.5719C19.1014 15.5062 19.1403 15.4276 19.1403 15.3268C19.1401 15.3015 19.1377 15.2763 19.1329 15.2514C19.097 15.0533 18.9363 14.9255 18.7218 14.9255H17.4965C17.4225 14.9248 17.3499 14.9455 17.2873 14.9851C17.2248 15.0247 17.175 15.0815 17.144 15.1487C17.1501 15.1356 17.1572 15.1229 17.1652 15.1109L16.6611 15.8736C16.4681 15.531 16.2413 15.1284 16.2413 15.1284C16.2386 15.1236 16.2541 15.1518 16.2512 15.1476C16.2512 15.1476 16.2127 15.0867 16.2028 15.0715C16.1313 14.9767 16.0219 14.9196 15.9057 14.9196L14.6807 14.9194ZM18.0284 21.3604L18.029 21.3611L18.0284 21.3606V21.3604ZM16.1963 15.0615C16.1963 15.0615 16.2014 15.0696 16.2027 15.0713C16.2053 15.0749 16.2087 15.0777 16.2112 15.081C16.2103 15.0799 16.1963 15.0611 16.1963 15.0615ZM16.2115 15.0815V15.081V15.0815ZM19.1324 15.2515C19.1324 15.2525 19.1327 15.2535 19.1331 15.2544C19.1327 15.2524 19.1324 15.2508 19.1319 15.2486C19.132 15.2496 19.1322 15.2505 19.1325 15.2515H19.1324ZM17.518 21.6402C17.518 21.6402 17.5155 21.6359 17.5137 21.6322C17.5132 21.6317 17.5128 21.6312 17.5125 21.6307C17.5125 21.6307 17.5184 21.6405 17.5184 21.6402H17.518Z" fill="#002596"/>
<path d="M17.8546 21.8503C17.7839 21.8509 17.7142 21.8329 17.6527 21.7979C17.5912 21.763 17.54 21.7124 17.5043 21.6513C17.5037 21.6507 17.5033 21.6499 17.5026 21.6492L17.4973 21.6397C17.4967 21.6386 17.4963 21.6375 17.4959 21.6363C17.4928 21.6308 17.4901 21.6256 17.4901 21.6256C17.4873 21.6205 17.4876 21.6205 17.4853 21.616C17.4853 21.616 17.4719 21.5866 17.468 21.5783C17.4631 21.5691 16.7701 20.2243 16.459 19.6206C16.26 19.9205 16.0364 20.2582 15.9894 20.3292C15.9188 20.4571 15.7891 20.5359 15.6454 20.5358H14.4205C14.1996 20.5362 14.029 20.401 13.9916 20.194C13.9911 20.1915 13.9906 20.1889 13.9902 20.1867C13.9873 20.1677 13.9859 20.1485 13.9859 20.1293C13.9859 20.0638 14.0027 20.0059 14.0206 19.9545L14.0463 19.8894L14.0506 19.8791C14.0579 19.8615 14.0668 19.8446 14.0773 19.8286L15.4672 17.6977C15.3879 17.5512 15.1078 17.0333 14.8446 16.5476L14.3247 15.5874C14.3204 15.58 14.3167 15.5723 14.3135 15.5643L14.2818 15.4844C14.2645 15.4371 14.2458 15.3762 14.2457 15.309C14.2457 15.2879 14.2476 15.267 14.2514 15.2463C14.2868 15.0378 14.4577 14.9015 14.681 14.9021V14.9367C14.4719 14.9374 14.3194 15.0601 14.286 15.2521C14.2825 15.2707 14.2808 15.2897 14.2808 15.3086C14.2808 15.3695 14.2979 15.4261 14.3143 15.4714L14.3461 15.551C14.3487 15.5576 14.352 15.5641 14.3557 15.5702L15.5031 17.6897C15.5046 17.6925 15.5053 17.6956 15.5051 17.6988C15.505 17.7019 15.504 17.705 15.5023 17.7076C15.4192 17.8351 15.0704 18.3702 14.7422 18.8732C14.4141 19.3763 14.1068 19.8476 14.1068 19.8476C14.0975 19.8618 14.0896 19.8769 14.083 19.8925L14.0789 19.9025L14.0533 19.9667C14.0361 20.0159 14.0208 20.0699 14.0208 20.1292C14.0208 20.1465 14.0221 20.1637 14.0247 20.1808C14.0251 20.1833 14.0255 20.1856 14.0258 20.1877C14.061 20.3782 14.2135 20.4999 14.4203 20.5006H15.6452C15.7694 20.5006 15.8821 20.4364 15.9486 20.3288C15.949 20.3267 15.9498 20.3248 15.9509 20.323C15.9564 20.3149 15.9613 20.3064 15.9658 20.2977C15.9674 20.2945 15.9692 20.2913 15.9707 20.2877C15.971 20.2869 15.9714 20.2862 15.9719 20.2856C15.9736 20.2828 15.9762 20.2805 15.9792 20.2792H15.9796C15.9797 20.2792 15.9798 20.2792 15.9799 20.2792C15.98 20.2792 15.98 20.2791 15.9801 20.2791C15.9802 20.2791 15.9803 20.2792 15.9803 20.2792C16.0559 20.1649 16.264 19.8515 16.446 19.5767C16.4476 19.5741 16.45 19.572 16.4527 19.5707C16.4555 19.5693 16.4586 19.5687 16.4616 19.5689C16.4647 19.5691 16.4676 19.57 16.4701 19.5717C16.4727 19.5733 16.4747 19.5756 16.4761 19.5782C16.78 20.1679 17.4942 21.5531 17.4994 21.5635C17.5034 21.5721 17.5167 21.6015 17.5167 21.6015C17.5199 21.6079 17.5178 21.6035 17.5206 21.6092C17.5206 21.6092 17.5251 21.6177 17.5287 21.6243C17.5605 21.6828 17.6075 21.7315 17.6649 21.7652C17.7223 21.7989 17.7878 21.8164 17.8543 21.8156H28.8101C28.9603 21.814 29.0834 21.7339 29.1458 21.6001C29.1538 21.5826 29.16 21.5643 29.1642 21.5455C29.1642 21.5455 29.2874 21.0045 29.2892 20.9978C29.304 20.9558 29.3121 20.9117 29.3133 20.8671C29.3133 20.7452 29.2568 20.6338 29.1501 20.5605C29.0598 20.4977 28.9704 20.4891 28.8897 20.4891C28.8747 20.4891 28.86 20.4891 28.8455 20.4897H19.0858C19.0826 20.4897 19.0794 20.4888 19.0767 20.4872C19.0739 20.4855 19.0717 20.4831 19.0702 20.4802C18.952 20.2567 17.7704 18.017 17.6325 17.7554C17.6311 17.7526 17.6304 17.7495 17.6306 17.7464C17.6308 17.7433 17.6318 17.7403 17.6335 17.7377L19.035 15.5968C19.0416 15.5865 19.0476 15.5758 19.0529 15.5647C19.0855 15.4989 19.1223 15.4235 19.1223 15.3273C19.1222 15.3029 19.1198 15.2787 19.1151 15.2548C19.0802 15.0652 18.929 14.944 18.7214 14.9434H17.4965C17.4337 14.9428 17.3719 14.9582 17.3168 14.9884C17.2617 15.0185 17.2153 15.0622 17.182 15.1154C17.1816 15.1174 17.1808 15.1192 17.1797 15.1209C17.1727 15.1314 17.1665 15.1424 17.1612 15.1539C17.1607 15.1547 17.1603 15.1555 17.1599 15.1564C17.1583 15.1597 17.1558 15.1624 17.1528 15.1643C17.1526 15.1643 17.1525 15.1643 17.1524 15.1643C17.1522 15.1645 17.1519 15.1646 17.1515 15.1647C17.1512 15.1647 17.1512 15.1647 17.1511 15.1647C17.0741 15.2812 16.8592 15.6063 16.6765 15.883C16.6749 15.8855 16.6726 15.8876 16.6699 15.889C16.6673 15.8904 16.6643 15.891 16.6612 15.8908C16.6582 15.8907 16.6553 15.8899 16.6528 15.8883C16.6502 15.8868 16.648 15.8846 16.6465 15.882C16.4811 15.5884 16.2907 15.2507 16.2399 15.1603L16.2389 15.1591C16.2384 15.1587 16.2381 15.1582 16.2378 15.1577L16.2371 15.1569C16.2371 15.1569 16.1985 15.0959 16.1895 15.0819C16.1211 14.9913 16.0167 14.9367 15.9065 14.9367H14.6807V14.9017H15.9057C16.0209 14.9017 16.1294 14.9554 16.2046 15.0457C16.2052 15.0461 16.2057 15.0464 16.2061 15.0469C16.2065 15.0469 16.2068 15.0475 16.2073 15.0475C16.2089 15.0489 16.2103 15.0505 16.2113 15.0524C16.2106 15.0512 16.2098 15.0501 16.2089 15.0491C16.2093 15.0496 16.2097 15.0498 16.2098 15.0501L16.2107 15.051C16.2111 15.0517 16.2116 15.0524 16.2122 15.053L16.2161 15.0585C16.2192 15.0625 16.2226 15.0672 16.2241 15.069C16.2243 15.0692 16.2245 15.0695 16.2248 15.0696C16.2249 15.0699 16.2251 15.0702 16.2254 15.0704L16.2258 15.071C16.2275 15.0735 16.2285 15.0765 16.2287 15.0796C16.2351 15.0896 16.2427 15.1016 16.2494 15.112L16.2501 15.1125C16.2523 15.1138 16.2542 15.1156 16.2555 15.1179C16.2556 15.1181 16.2556 15.1184 16.2555 15.1187C16.2555 15.1189 16.2555 15.1191 16.2555 15.1193C16.2624 15.1317 16.4742 15.5077 16.6612 15.8392L17.1409 15.113C17.1762 15.0501 17.2276 14.9978 17.29 14.9615C17.3523 14.9253 17.4232 14.9065 17.4954 14.907H18.7201C18.9396 14.9066 19.1085 15.0388 19.1475 15.242C19.1475 15.2428 19.1478 15.2435 19.148 15.2444V15.2447C19.148 15.2463 19.1486 15.2483 19.149 15.2506C19.149 15.2516 19.149 15.2526 19.149 15.2536C19.1533 15.2775 19.1556 15.3017 19.1557 15.326C19.1557 15.4312 19.1151 15.5131 19.0827 15.5788C19.0767 15.5911 19.07 15.603 19.0627 15.6146C19.0627 15.6146 17.8523 17.4628 17.6668 17.747C17.8231 18.0431 18.9537 20.186 19.0948 20.4533H24.0586C26.4674 20.4533 28.8454 20.4533 28.8449 20.4533C28.8594 20.4527 28.8742 20.4524 28.8899 20.4524C28.9725 20.4524 29.0721 20.4616 29.1701 20.5302C29.2253 20.5671 29.2704 20.617 29.3016 20.6755C29.3327 20.734 29.3488 20.7993 29.3486 20.8656C29.3473 20.9133 29.3386 20.9605 29.3229 21.0056C29.3218 21.0101 29.1984 21.551 29.1984 21.5516C29.1938 21.5728 29.1868 21.5935 29.1775 21.6132C29.1103 21.7587 28.9731 21.8477 28.8105 21.8493H17.8545L17.8546 21.8503ZM16.2476 15.1652C16.2463 15.165 16.2451 15.1645 16.2439 15.1639H16.2436C16.2449 15.1644 16.2462 15.1648 16.2476 15.1652ZM16.2365 15.1575C16.236 15.1566 16.2356 15.1557 16.2353 15.1552C16.2357 15.1559 16.2361 15.1568 16.2365 15.1575ZM16.2686 15.1453C16.2686 15.1448 16.2686 15.144 16.2682 15.1433C16.2682 15.1433 16.2682 15.144 16.2682 15.1445V15.1453H16.2686ZM16.2674 15.1412C16.2674 15.1412 16.2674 15.1412 16.2671 15.1408C16.2671 15.1408 16.2671 15.1412 16.2674 15.1412ZM16.2126 15.0547C16.2123 15.0541 16.2121 15.0538 16.2121 15.0536V15.0532C16.2124 15.0539 16.2127 15.0543 16.2131 15.055L16.2126 15.0547ZM18.0137 21.3695V21.3689V21.3684C18.0117 21.3648 18.0111 21.3605 18.0119 21.3565C18.0128 21.3524 18.015 21.3488 18.0183 21.3463C18.0217 21.3437 18.0259 21.3424 18.0302 21.3427C18.0345 21.343 18.0385 21.3448 18.0415 21.3477L18.0443 21.3514L18.0448 21.3522V21.3526C18.0469 21.3567 18.0474 21.3614 18.0461 21.3658C18.0448 21.3703 18.0418 21.374 18.0378 21.3762C18.0353 21.3777 18.0324 21.3785 18.0295 21.3785C18.0264 21.3785 18.0233 21.3777 18.0206 21.3762C18.0179 21.3746 18.0157 21.3724 18.0141 21.3696L18.0137 21.3695ZM18.016 21.3725L18.0264 21.3623L18.016 21.3725ZM16.2091 15.0492C16.2086 15.0487 16.2081 15.0482 16.2075 15.0477L16.2064 15.0471C16.2075 15.0477 16.2084 15.0485 16.2093 15.0493L16.2091 15.0492Z" fill="#002596"/>
<path d="M12.0377 16.8837C12.166 16.7481 12.3286 16.6506 12.5254 16.6506C12.7223 16.6506 12.8384 16.7533 12.9085 16.8837H12.0377Z" fill="white"/>
<path d="M27.181 18.7348C27.1859 18.7061 27.2235 18.6715 27.2416 18.6683H28.0627C27.915 18.7978 27.7225 18.9107 27.573 18.9107H27.1456C27.1554 18.8533 27.181 18.7348 27.181 18.7348Z" fill="white"/>
<path d="M23.4234 20.2707C23.4918 20.2686 23.5276 20.2372 23.5396 20.1673L24.0175 17.4389C24.0291 17.3727 24.0487 17.308 24.0757 17.2464C24.2135 16.9304 24.5357 16.7101 24.8946 16.7101C25.1134 16.7101 25.1905 16.8038 25.2532 16.8038C25.2552 16.8035 25.2571 16.8031 25.259 16.8025C25.3097 16.7998 25.3648 16.7593 25.3771 16.6891L25.5614 15.6377C25.5693 15.5856 25.5461 15.5443 25.496 15.5335C25.416 15.5127 25.3134 15.5021 25.2098 15.5021C24.876 15.5021 24.4881 15.7002 24.3636 15.8148C24.339 15.8355 24.3275 15.846 24.2848 15.846C24.2434 15.846 24.2092 15.8046 24.2206 15.7418L24.2454 15.596C24.261 15.5126 24.2309 15.5021 24.158 15.5021H23.2733C23.2005 15.5021 23.1633 15.5335 23.1508 15.6064L23.1443 15.6402L22.3528 20.1673C22.34 20.2395 22.3657 20.271 22.4393 20.271H23.4176C23.4197 20.271 23.4213 20.2707 23.4234 20.2707V20.2707Z" fill="#DC281D"/>
<path d="M23.4179 20.3748H22.4397C22.3971 20.3743 22.3506 20.3684 22.3067 20.3346C22.2617 20.2994 22.2445 20.2412 22.246 20.1989C22.2461 20.1822 22.2477 20.1655 22.2508 20.1491L23.0425 15.6207L23.0484 15.5886C23.0569 15.5387 23.0774 15.4855 23.1227 15.4474C23.1676 15.4089 23.2236 15.3978 23.2736 15.3979H24.1585C24.1864 15.3972 24.2142 15.4002 24.2413 15.4068C24.2721 15.4132 24.3172 15.4401 24.3371 15.4828C24.3486 15.5066 24.3543 15.5328 24.3538 15.5593C24.3537 15.5775 24.3519 15.5956 24.3484 15.6135L24.3329 15.7053C24.4129 15.6431 24.5297 15.5775 24.669 15.5192C24.8322 15.4519 25.0227 15.3983 25.2102 15.3978C25.32 15.3978 25.4284 15.4085 25.5203 15.432C25.5632 15.4412 25.6015 15.4652 25.6286 15.4997C25.6543 15.5337 25.6678 15.5752 25.6671 15.6178C25.6672 15.6297 25.6663 15.6417 25.6645 15.6536L25.664 15.6556L25.48 16.707C25.4596 16.8195 25.3727 16.8942 25.2779 16.9051C25.2699 16.9069 25.2617 16.9079 25.2535 16.9079C25.2111 16.9072 25.1829 16.8942 25.1588 16.884C25.1353 16.8731 25.1149 16.8625 25.0918 16.8523C25.0454 16.8331 24.9896 16.8143 24.8949 16.8138C24.5792 16.8134 24.2921 17.0095 24.1713 17.2879C24.1474 17.3418 24.1303 17.3985 24.1203 17.4566L23.6425 20.1844C23.6344 20.2331 23.6143 20.2844 23.5719 20.3222C23.5302 20.3589 23.4778 20.3723 23.4302 20.3741C23.4277 20.3741 23.4238 20.3749 23.4188 20.3749H23.4179V20.3748ZM23.4243 20.2973L23.4236 20.2704L23.4242 20.2944V20.2973H23.4243ZM23.4138 20.1668C23.4155 20.1668 23.4176 20.1663 23.4202 20.1663C23.4247 20.1664 23.4292 20.1658 23.4336 20.1648C23.4353 20.1597 23.4367 20.1544 23.4377 20.1491L23.9152 17.4209C23.9282 17.3464 23.9502 17.2737 23.9806 17.2044C24.1354 16.8505 24.493 16.6062 24.895 16.6056C24.9821 16.6046 25.0686 16.62 25.15 16.6512C25.2014 16.6717 25.2395 16.6922 25.2539 16.6983C25.2566 16.6977 25.2716 16.6925 25.275 16.6708L25.4571 15.6305C25.3905 15.6147 25.3006 15.6056 25.2102 15.6059C25.0638 15.6054 24.8937 15.6508 24.748 15.7111C24.6033 15.7703 24.4799 15.8477 24.4342 15.8908L24.4304 15.894C24.4138 15.9092 24.3951 15.922 24.375 15.932C24.3467 15.9444 24.316 15.9505 24.2852 15.9497C24.2614 15.9495 24.2379 15.9443 24.2163 15.9343C24.1948 15.9243 24.1755 15.9099 24.16 15.8919C24.13 15.8566 24.1139 15.8116 24.1147 15.7652C24.1147 15.7508 24.116 15.7364 24.1187 15.7222L24.1386 15.6057H23.2736C23.2683 15.6055 23.263 15.6058 23.2578 15.6066C23.2558 15.6126 23.2543 15.6187 23.2533 15.6249L23.2472 15.6577L22.4588 20.1669L23.4138 20.1668Z" fill="#111211"/>
<path d="M22.3402 15.4037C22.3274 15.4026 22.3132 15.3976 22.2957 15.3976H21.6081C21.5359 15.3976 21.5097 15.3666 21.5233 15.2939L21.6425 14.6064C21.656 14.5339 21.63 14.5027 21.557 14.5027H20.7428C20.6701 14.5027 20.6328 14.5339 20.6199 14.6064L20.609 14.6641L20.6077 14.6672L20.579 14.8248L20.4917 15.2939C20.4782 15.3641 20.4424 15.3947 20.3747 15.3966C20.3725 15.3966 20.3703 15.3974 20.3682 15.3974H19.6814C19.6085 15.3974 19.5723 15.429 19.5583 15.5016L19.5515 15.5358L19.3939 16.3866C19.3901 16.4034 19.3896 16.4208 19.3923 16.4379C19.3993 16.4739 19.4263 16.4908 19.4785 16.4908H20.0233C20.0297 16.4912 20.0362 16.4919 20.0425 16.4931C20.0984 16.4995 20.1195 16.5299 20.108 16.5949L19.7878 18.4277C19.6547 19.1874 19.9238 19.7914 20.5908 20.0834C20.8815 20.2081 21.2454 20.2703 21.4436 20.2703C21.4458 20.2703 21.4479 20.2701 21.45 20.2695V20.27C21.509 20.2672 21.5539 20.236 21.5661 20.1666L21.7224 19.2717C21.7326 19.209 21.7095 19.1667 21.6468 19.1667C21.1122 19.1259 20.9087 18.8029 20.9737 18.4283L21.2745 16.7111L21.2947 16.5956C21.3075 16.5227 21.3445 16.4916 21.4175 16.4916H22.1042C22.1069 16.4916 22.1081 16.4909 22.1116 16.4909C22.1785 16.4885 22.2149 16.4577 22.2272 16.3876C22.2272 16.3876 22.382 15.5005 22.382 15.4998C22.382 15.4992 22.413 15.4097 22.3402 15.4037Z" fill="#DC281D"/>
<path d="M20.5487 20.1794C20.2545 20.051 20.027 19.8607 19.876 19.6233C19.7245 19.3855 19.6503 19.1025 19.6503 18.7927C19.6508 18.6646 19.6624 18.5367 19.685 18.4106L20.002 16.5958H19.478C19.441 16.5958 19.4023 16.5907 19.3633 16.5672C19.3237 16.5441 19.2963 16.4981 19.2897 16.4591L19.2892 16.4562C19.2871 16.4433 19.286 16.4302 19.286 16.4171C19.2861 16.4003 19.2879 16.3835 19.2913 16.367L19.4491 15.5161L19.4555 15.4825C19.4649 15.4336 19.4854 15.3817 19.5299 15.3437C19.5748 15.3056 19.6307 15.2937 19.6809 15.2941H20.3608C20.3642 15.2937 20.3675 15.2934 20.3709 15.2933C20.3754 15.2932 20.3799 15.2927 20.3843 15.2918C20.3865 15.2865 20.3881 15.2809 20.3891 15.2753L20.4763 14.8068L20.5048 14.649C20.5057 14.6447 20.5069 14.6404 20.5083 14.6362L20.517 14.5888C20.5256 14.5393 20.5467 14.4861 20.5915 14.4485C20.6365 14.4107 20.6924 14.3992 20.7424 14.3994H21.5567C21.5982 14.3999 21.6439 14.4051 21.6881 14.4384C21.733 14.4726 21.7511 14.5313 21.7496 14.5738C21.7495 14.591 21.7478 14.6082 21.7445 14.6251L21.6285 15.2947H22.2953C22.3132 15.295 22.3309 15.2972 22.3483 15.3011L22.3397 15.4048L22.3325 15.4928L22.3397 15.4048L22.3483 15.3011C22.3908 15.303 22.4401 15.3281 22.4638 15.3653C22.4825 15.3933 22.4922 15.4263 22.4917 15.46C22.4915 15.4816 22.4884 15.503 22.4825 15.5238C22.4825 15.5252 22.4819 15.5266 22.4817 15.5284C22.4805 15.5348 22.479 15.5445 22.4768 15.5567C22.4725 15.581 22.4664 15.6158 22.4593 15.6575C22.4446 15.7406 22.4253 15.8516 22.4059 15.9627C22.3673 16.1845 22.3284 16.4062 22.3284 16.4055C22.3204 16.4542 22.3001 16.5056 22.2578 16.5431C22.217 16.5794 22.1654 16.593 22.1187 16.595C22.1136 16.5957 22.1085 16.596 22.1034 16.596H21.4166C21.4113 16.5959 21.406 16.5963 21.4007 16.5972C21.3988 16.6026 21.3974 16.6082 21.3964 16.6139L21.376 16.7294L21.0752 18.4464C21.0686 18.4841 21.0652 18.5223 21.065 18.5606C21.0659 18.6954 21.1087 18.8063 21.199 18.8937C21.2889 18.9801 21.4337 19.0457 21.6497 19.0631C21.6941 19.0631 21.7444 19.0786 21.7799 19.1161C21.8165 19.1546 21.828 19.2039 21.8278 19.2444C21.8277 19.2595 21.8265 19.2745 21.824 19.2893L21.6673 20.1853C21.6583 20.2383 21.6325 20.2892 21.5909 20.3235C21.5524 20.355 21.5044 20.3728 21.4547 20.3741C21.4507 20.3746 21.4466 20.3749 21.4426 20.3749C21.2252 20.3739 20.8572 20.3107 20.548 20.1789L20.5487 20.1794ZM20.1677 16.4419C20.2032 16.4772 20.2156 16.5264 20.2147 16.5648C20.2146 16.5812 20.2131 16.5976 20.2103 16.6137L19.8899 18.4464C19.8694 18.5608 19.8589 18.6767 19.8584 18.7929C19.8587 19.0701 19.9239 19.3111 20.0514 19.5116C20.1792 19.7119 20.3701 19.8739 20.6315 19.9886C20.9011 20.1052 21.2565 20.1669 21.437 20.1675C21.4413 20.1669 21.4456 20.1666 21.4499 20.1666C21.4526 20.1663 21.4552 20.1657 21.4578 20.1647C21.4578 20.1647 21.4583 20.1647 21.4586 20.1634C21.4608 20.1591 21.4623 20.1545 21.4631 20.1498L21.6169 19.269C21.3752 19.2471 21.1859 19.1686 21.0558 19.0438C20.921 18.9155 20.8568 18.7414 20.8578 18.5605C20.8578 18.5102 20.8622 18.4599 20.8711 18.4103L21.1719 16.6934L21.1922 16.5779C21.2005 16.5284 21.2209 16.4752 21.266 16.4367C21.3109 16.3982 21.3672 16.387 21.4173 16.3872H22.0972C22.1013 16.3867 22.1054 16.3865 22.1096 16.3864C22.1131 16.3863 22.1166 16.386 22.1201 16.3854C22.1218 16.3802 22.1231 16.3749 22.124 16.3695C22.124 16.3695 22.1625 16.15 22.201 15.9292C22.2331 15.746 22.2655 15.56 22.2756 15.5018H21.6081C21.5667 15.5013 21.5209 15.4961 21.4769 15.4624C21.4319 15.428 21.4141 15.3697 21.4158 15.327C21.4159 15.31 21.4175 15.2929 21.4208 15.2762L21.5367 14.6067H20.7426C20.7372 14.6067 20.7318 14.6071 20.7265 14.608C20.7243 14.6136 20.7228 14.6195 20.722 14.6254L20.711 14.6832C20.7102 14.6873 20.7092 14.6914 20.708 14.6954L20.6811 14.8438L20.5937 15.3135C20.5845 15.3616 20.5641 15.4119 20.5218 15.4491C20.4811 15.4848 20.4301 15.4983 20.384 15.5004C20.3788 15.5011 20.3735 15.5015 20.3683 15.5017H19.6811C19.6758 15.5016 19.6705 15.502 19.6652 15.5027C19.663 15.509 19.6612 15.5155 19.66 15.522L19.6536 15.5547L19.4995 16.3871H20.0232C20.0318 16.3872 20.0404 16.3879 20.0489 16.3892L20.0553 16.3902C20.0911 16.3945 20.1335 16.4064 20.1684 16.4415L20.1677 16.4419ZM22.3315 15.5078L22.3327 15.4938L22.3315 15.5078Z" fill="#111211"/>
<path d="M13.1328 16.9913C13.1233 17.0427 13.0746 17.0845 13.0017 17.0845H11.7623C11.6893 17.0845 11.6552 17.0426 11.6645 16.9913C11.6667 16.979 11.6702 16.967 11.6749 16.9554C11.7354 16.788 12.0367 16.3875 12.5093 16.3875C13.03 16.3875 13.1544 16.866 13.1327 16.9913H13.1328ZM11.424 18.3044L11.444 18.1885C11.4568 18.1156 11.494 18.0846 11.5663 18.0846H14.0447C14.0473 18.0846 14.049 18.0837 14.0518 18.0837C14.1195 18.0815 14.1545 18.0512 14.1673 17.9801L14.3149 17.1367C14.4659 16.273 13.8772 15.294 12.7005 15.294C11.7773 15.294 11.0079 15.8868 10.6409 16.5569C10.5362 16.7478 10.4646 16.945 10.431 17.1367L10.2049 18.4284C10.0159 19.5106 10.6431 20.2709 11.8295 20.2709C12.7355 20.2709 13.2614 19.8859 13.6771 19.3546C13.7032 19.3225 13.728 19.2895 13.7519 19.258C13.7522 19.2516 13.752 19.2451 13.7513 19.2387C13.752 19.2451 13.7522 19.2516 13.7519 19.258C13.8254 19.1596 13.8824 19.0739 13.8882 19.042C13.8941 19.01 13.8783 18.98 13.84 18.9591L13.1265 18.574C13.0502 18.5324 12.9933 18.5014 12.9621 18.5014C12.9309 18.5014 12.8964 18.522 12.868 18.5632C12.6023 19.0108 12.2914 19.1777 12.0216 19.1777C11.5943 19.1777 11.3319 18.8341 11.4028 18.4284L11.424 18.3044Z" fill="#DC281D"/>
<path d="M11.829 20.3752C11.2867 20.3752 10.8444 20.2212 10.5375 19.9418C10.2303 19.6631 10.0663 19.2616 10.0671 18.7972C10.0675 18.6674 10.0791 18.538 10.1019 18.4103L10.328 17.119C10.364 16.9145 10.4395 16.7069 10.5491 16.5073C10.9326 15.8078 11.7301 15.1917 12.6999 15.1902C13.2535 15.1896 13.694 15.3991 13.9903 15.7148C14.2871 16.0305 14.4416 16.4488 14.4417 16.8669C14.4417 16.9634 14.4334 17.0598 14.4168 17.1548L14.2692 17.9981C14.2609 18.0466 14.2416 18.0979 14.1986 18.1358C14.1579 18.1719 14.1069 18.1853 14.061 18.1877C14.0554 18.1884 14.0498 18.1888 14.0442 18.1889H11.5661C11.561 18.1887 11.5558 18.1891 11.5507 18.19C11.5487 18.1953 11.5473 18.2008 11.5463 18.2065L11.5264 18.322L11.4237 18.3042L11.5264 18.3223L11.5049 18.4461C11.4984 18.4833 11.495 18.5209 11.4949 18.5586C11.4949 18.7069 11.5476 18.8337 11.6374 18.9249C11.7272 19.0154 11.8556 19.073 12.0212 19.0734C12.2459 19.073 12.5227 18.9377 12.7781 18.51L12.782 18.5036C12.8234 18.4442 12.8835 18.3983 12.9618 18.3971C13.0105 18.3988 13.0376 18.4132 13.0709 18.4274C13.1033 18.4427 13.1376 18.4615 13.1755 18.4821L13.8896 18.8677C13.9457 18.8966 13.9936 18.9581 13.993 19.0294C13.993 19.0398 13.992 19.0501 13.9901 19.0603C13.9854 19.0823 13.9775 19.1034 13.9667 19.1232C13.9572 19.1414 13.9457 19.1603 13.9326 19.1809C13.9063 19.2221 13.8726 19.2695 13.8348 19.3201C13.8344 19.3201 13.8339 19.3211 13.8335 19.3215C13.81 19.3527 13.7846 19.3861 13.7586 19.4185C13.5452 19.6914 13.2993 19.9319 12.9869 20.1031C12.6748 20.2744 12.2978 20.3749 11.8311 20.3749H11.8291L11.829 20.3752ZM10.7315 16.6072C10.6317 16.7889 10.5646 16.9759 10.5329 17.1547L10.3067 18.4462C10.2861 18.5621 10.2755 18.6795 10.275 18.7972C10.2757 19.2148 10.4174 19.5506 10.6775 19.7879C10.9379 20.0253 11.3246 20.167 11.8289 20.1671C12.2674 20.1671 12.6055 20.0746 12.8866 19.9208C13.1671 19.7668 13.392 19.5492 13.5952 19.2896C13.6131 19.2674 13.6306 19.2447 13.6478 19.2222C13.6505 19.2057 13.6571 19.1901 13.6671 19.1767C13.6771 19.1632 13.6902 19.1525 13.7052 19.1452C13.7215 19.1223 13.7364 19.101 13.7488 19.0822C13.7588 19.0671 13.7673 19.0535 13.7737 19.0424L13.0761 18.6656C13.04 18.6447 13.0028 18.6258 12.9646 18.6089C12.9609 18.6123 12.9575 18.616 12.9547 18.6202C12.6792 19.0856 12.3355 19.2824 12.021 19.2821C11.806 19.2824 11.6191 19.2036 11.4892 19.0715C11.3589 18.9398 11.2865 18.7571 11.2867 18.5591C11.2867 18.5094 11.291 18.4597 11.2996 18.4107L11.3211 18.287L11.3412 18.1707C11.3499 18.1208 11.3704 18.0684 11.4152 18.0303C11.4601 17.9923 11.516 17.9807 11.5659 17.9809H14.0362C14.0397 17.9809 14.0437 17.9801 14.0482 17.9801C14.0523 17.9801 14.0563 17.9796 14.0603 17.9788C14.0621 17.9735 14.0635 17.968 14.0643 17.9625L14.2119 17.1192C14.2264 17.036 14.2337 16.9516 14.2337 16.8671C14.2337 16.5 14.0972 16.1321 13.8389 15.8577C13.5801 15.5834 13.2017 15.399 12.7 15.3984H12.6965C11.8214 15.3984 11.0818 15.9669 10.7317 16.6075L10.7315 16.6072ZM13.0012 17.189H11.7619C11.7121 17.189 11.6621 17.1762 11.6216 17.1428C11.6018 17.1263 11.5858 17.1056 11.5749 17.0823C11.564 17.0589 11.5585 17.0334 11.5586 17.0076C11.5586 16.9962 11.5596 16.9849 11.5617 16.9738C11.5649 16.9554 11.57 16.9373 11.5767 16.9199C11.6167 16.8128 11.7137 16.6641 11.8697 16.5298C12.0249 16.3972 12.2424 16.2836 12.5091 16.2836C12.7815 16.2822 12.9748 16.4056 13.0855 16.5504C13.1973 16.6964 13.2376 16.8528 13.2388 16.9601C13.2389 16.9765 13.2376 16.9928 13.235 17.0089L13.132 16.9915L13.2347 17.0101C13.2162 17.1153 13.1166 17.189 13.0058 17.189H13.0013H13.0012ZM12.986 16.9807H13.0012C13.0246 16.9801 13.0292 16.9731 13.0299 16.9723C13.0304 16.9683 13.0306 16.9642 13.0306 16.9601C13.0318 16.9084 13.0013 16.7787 12.9214 16.6783C12.8403 16.5766 12.7208 16.4932 12.5092 16.4917C12.3033 16.4917 12.1337 16.5786 12.0049 16.6881C11.8842 16.7897 11.8028 16.9155 11.7763 16.9807H12.9862H12.986Z" fill="#111211"/>
<path d="M17.3105 17.7092L18.8059 15.4247C18.838 15.3594 18.8547 15.3263 18.8463 15.2825C18.8367 15.228 18.7986 15.1951 18.7214 15.1951H17.4967C17.453 15.1951 17.4238 15.2165 17.4085 15.2497L16.6416 16.4106L15.9875 15.2497C15.9837 15.2414 15.9788 15.2337 15.973 15.2268C15.9657 15.2155 15.9558 15.2062 15.9441 15.1996C15.9324 15.1931 15.9192 15.1895 15.9058 15.1891H14.6808C14.6038 15.1891 14.5653 15.2217 14.5557 15.2766C14.5522 15.2959 14.56 15.3244 14.5716 15.3558C14.5788 15.3759 14.5871 15.3972 14.5964 15.4184L15.8268 17.6902L14.3362 19.9753C14.3274 19.9967 14.3183 20.0179 14.311 20.0381C14.3002 20.0691 14.2927 20.0972 14.2957 20.1169C14.3057 20.1723 14.3436 20.2048 14.4206 20.2048H15.6456C15.6787 20.2048 15.7078 20.1831 15.7233 20.1501L16.4926 18.9892L17.7459 21.4207L17.7661 21.4648C17.7672 21.4665 17.7678 21.4682 17.7685 21.4694C17.7853 21.5001 17.8135 21.5197 17.855 21.5197H28.8109C28.8473 21.5193 28.8795 21.5021 28.8979 21.4625L29.0228 20.9137C29.0388 20.8334 29.0417 20.7958 28.9958 20.7643C28.9593 20.7387 28.9225 20.7397 28.8499 20.7412H18.9583C18.9351 20.7403 18.9129 20.7308 18.8962 20.7146L17.3105 17.7092Z" fill="#FDDF00"/>
<path d="M17.7478 21.5953C17.7177 21.5766 17.693 21.5502 17.6764 21.5189C17.6757 21.5177 17.6751 21.5164 17.6745 21.5151V21.5148L17.6712 21.5087L17.652 21.4665L16.4812 19.1947L15.8137 20.2017C15.7843 20.26 15.7234 20.3091 15.6455 20.3094H14.4203C14.3677 20.3094 14.3151 20.2982 14.2707 20.2656C14.2258 20.2336 14.2006 20.1822 14.1926 20.1343C14.1911 20.1256 14.1904 20.1168 14.1904 20.1079C14.1913 20.0643 14.2023 20.0349 14.2129 20.0027C14.2216 19.9789 14.2313 19.9566 14.2398 19.936L14.2488 19.9189L15.7053 17.6856L14.5045 15.4682L14.5008 15.4606C14.4901 15.4365 14.4811 15.4129 14.4735 15.3921C14.4629 15.3615 14.4513 15.3317 14.4504 15.2875C14.4503 15.278 14.4511 15.2686 14.4528 15.2592C14.4607 15.2071 14.4888 15.1602 14.5309 15.1286C14.5753 15.0962 14.6278 15.0852 14.6805 15.0853H15.9055C15.935 15.0856 15.964 15.093 15.9901 15.1067C16.0162 15.1205 16.0387 15.1402 16.0557 15.1644C16.0647 15.1757 16.0725 15.1879 16.0789 15.2008L16.648 16.2114L17.3177 15.1982C17.3331 15.1677 17.3562 15.1418 17.3847 15.1231C17.418 15.1019 17.4567 15.0909 17.4961 15.0915H18.7211C18.7739 15.0915 18.8263 15.1025 18.8706 15.1351C18.9121 15.1662 18.9399 15.2122 18.9482 15.2634C18.9508 15.277 18.952 15.2909 18.9518 15.3048C18.9516 15.3356 18.9454 15.3661 18.9338 15.3946C18.9237 15.4203 18.912 15.4437 18.8989 15.4706L18.8924 15.4816L17.4306 17.7148L18.9725 20.6371H28.8491C28.8643 20.6367 28.8785 20.6366 28.8918 20.6366C28.9184 20.6359 28.945 20.638 28.9712 20.643C29.001 20.6491 29.0292 20.6611 29.0541 20.6785C29.0805 20.6961 29.102 20.7199 29.1168 20.7479C29.1305 20.7752 29.1373 20.8054 29.1366 20.8359C29.1356 20.869 29.1313 20.902 29.1238 20.9343L29.1232 20.9368L28.9985 21.4856L28.9913 21.5061C28.9751 21.5422 28.9487 21.5728 28.9154 21.5941C28.8836 21.6135 28.8472 21.6238 28.81 21.6237H17.8534C17.8162 21.6239 17.7798 21.6139 17.7478 21.595V21.5953ZM19.1949 21.416H28.8011L28.9202 20.892C28.9242 20.8723 28.9267 20.8567 28.9278 20.8471C28.9158 20.8454 28.9038 20.8448 28.8918 20.8451C28.8804 20.8451 28.8673 20.8451 28.8521 20.8456H18.958H18.9509C18.9027 20.8431 18.8571 20.8232 18.8225 20.7895C18.815 20.782 18.8086 20.7733 18.8037 20.7638L17.2178 17.7583L17.31 17.7098L17.397 17.7669L17.31 17.7098L17.2178 17.7583C17.2091 17.7419 17.205 17.7235 17.2059 17.7049C17.2068 17.6864 17.2127 17.6684 17.2229 17.6529L18.715 15.3735C18.7267 15.3493 18.7353 15.3314 18.7394 15.3203C18.7419 15.3156 18.7434 15.3104 18.7439 15.3051C18.7438 15.304 18.7436 15.3029 18.7434 15.3018C18.7361 15.3002 18.7286 15.2995 18.7211 15.2997H17.4989L17.4945 15.3076L16.7277 16.4684C16.7179 16.4832 16.7044 16.4953 16.6886 16.5035C16.6727 16.5117 16.6551 16.5156 16.6373 16.515C16.6194 16.5144 16.6021 16.5092 16.5868 16.5C16.5716 16.4907 16.559 16.4777 16.5502 16.4622L15.8963 15.3013L15.8932 15.2953C15.8931 15.2948 15.8928 15.2944 15.8925 15.2941L15.8922 15.2937H14.6805C14.6738 15.2935 14.6671 15.294 14.6604 15.2952C14.6621 15.3016 14.665 15.3101 14.669 15.3208C14.6754 15.3383 14.6818 15.3559 14.6892 15.3728L15.9178 17.6415C15.9267 17.658 15.931 17.6766 15.9302 17.6953C15.9295 17.714 15.9237 17.7321 15.9135 17.7478L14.4282 20.0247C14.4205 20.0432 14.4136 20.0598 14.4089 20.0732C14.4051 20.0836 14.4022 20.0932 14.4005 20.1C14.407 20.1012 14.4137 20.1018 14.4203 20.1017H15.6312L15.636 20.0932L16.4054 18.9326C16.4154 18.9174 16.4292 18.9051 16.4454 18.897C16.4616 18.8888 16.4797 18.885 16.4978 18.8861C16.5159 18.887 16.5335 18.8928 16.5487 18.9026C16.5639 18.9125 16.5763 18.9262 16.5846 18.9423L17.8379 21.3737L17.8402 21.378L17.8575 21.4165L19.1949 21.416Z" fill="#111211"/>
<path d="M23.4234 20.1678C23.4918 20.1657 23.5276 20.1348 23.5396 20.0644L24.0175 17.3364C24.0291 17.2701 24.0486 17.2054 24.0757 17.1438C24.2135 16.8276 24.5357 16.6075 24.8946 16.6075C25.1134 16.6075 25.1905 16.7012 25.2532 16.7012C25.2552 16.701 25.2572 16.7006 25.259 16.6999C25.3097 16.6971 25.3648 16.6566 25.3771 16.5864L25.5614 15.535C25.5693 15.483 25.5461 15.4414 25.496 15.4307C25.416 15.4099 25.3134 15.3994 25.2098 15.3994C24.876 15.3994 24.4881 15.5975 24.3636 15.712C24.339 15.7327 24.3275 15.7434 24.2848 15.7434C24.2434 15.7434 24.2092 15.7019 24.2206 15.6394L24.2454 15.4933C24.261 15.4099 24.2309 15.3994 24.158 15.3994H23.2733C23.2005 15.3994 23.1633 15.4307 23.1508 15.5035L23.1443 15.5376L22.3528 20.0644C22.34 20.1367 22.3657 20.1686 22.4393 20.1686H23.4176C23.4195 20.1684 23.4215 20.1682 23.4234 20.1678Z" fill="#DC281D"/>
<path d="M22.3403 15.3009C22.3258 15.2965 22.3108 15.2944 22.2957 15.2945H21.6081C21.5359 15.2945 21.5098 15.2633 21.5234 15.1907L21.6426 14.5032C21.656 14.4307 21.63 14.3994 21.5571 14.3994H20.7428C20.6701 14.3994 20.6328 14.4307 20.6199 14.5032L20.609 14.561L20.6077 14.564L20.579 14.7217L20.4917 15.1907C20.4782 15.2613 20.4425 15.2915 20.3747 15.2938C20.3726 15.2938 20.3703 15.2945 20.3683 15.2945H19.6814C19.6085 15.2945 19.5723 15.3262 19.5584 15.3986L19.5515 15.4329L19.3939 16.2837C19.3901 16.3007 19.3895 16.3183 19.3924 16.3355C19.3994 16.3711 19.4263 16.3883 19.4785 16.3883H20.0233C20.0298 16.3886 20.0362 16.3893 20.0425 16.3905C20.0985 16.3969 20.1196 16.4273 20.1081 16.4924L19.7878 18.3253C19.6547 19.0852 19.9237 19.6893 20.5907 19.981C20.8815 20.106 21.2454 20.1684 21.4436 20.1684C21.4457 20.1684 21.4477 20.1676 21.45 20.1675C21.509 20.1651 21.5538 20.1339 21.5661 20.0641L21.7224 19.1686C21.7326 19.1059 21.7096 19.0641 21.6468 19.0641C21.1123 19.0232 20.9087 18.7002 20.9738 18.3252L21.2745 16.6084L21.2947 16.4929C21.3076 16.4198 21.3445 16.3888 21.4175 16.3888H22.1043C22.1069 16.3888 22.1081 16.3878 22.1117 16.3878C22.1785 16.3858 22.2149 16.3548 22.2272 16.2851L22.382 15.3972C22.4001 15.3001 22.3403 15.3009 22.3403 15.3009Z" fill="#DC281D"/>
<path d="M13.1327 16.889C13.1232 16.9403 13.0745 16.9821 13.0016 16.9821H11.7622C11.6893 16.9821 11.6551 16.9402 11.6644 16.889C11.6666 16.8766 11.6701 16.8644 11.6748 16.8527C11.7353 16.6859 12.0366 16.2851 12.5092 16.2851C13.0299 16.2851 13.1543 16.7636 13.1326 16.889H13.1327ZM11.4239 18.2019L11.4439 18.0864C11.4567 18.0135 11.4939 17.9823 11.5662 17.9823H14.0446C14.0473 17.9823 14.0489 17.9814 14.0517 17.9814C14.1195 17.9791 14.1544 17.9493 14.1672 17.878L14.3148 17.0346C14.4659 16.1708 13.8771 15.1917 12.7004 15.1917C11.7772 15.1917 11.0078 15.7845 10.6408 16.4549C10.5361 16.6457 10.4645 16.8429 10.431 17.0346L10.2046 18.3258C10.0156 19.4083 10.6428 20.1688 11.8292 20.1688C12.7352 20.1688 13.2611 19.7834 13.6768 19.2525C13.7029 19.22 13.7278 19.1871 13.7516 19.1556C13.752 19.1491 13.7518 19.1427 13.7511 19.1363C13.7518 19.1427 13.752 19.1491 13.7516 19.1556C13.8251 19.0572 13.8821 18.9716 13.888 18.9397C13.8938 18.9079 13.878 18.8778 13.8398 18.8568L13.1262 18.4718C13.0499 18.4301 12.993 18.3993 12.9618 18.3993C12.9306 18.3993 12.8962 18.4196 12.8677 18.4609C12.6021 18.9087 12.2912 19.0755 12.0213 19.0755C11.594 19.0755 11.3316 18.732 11.4025 18.326L11.4239 18.2019Z" fill="#DC281D"/>
<path d="M17.3105 17.6071L18.8059 15.3226C18.838 15.2573 18.8547 15.2243 18.8463 15.1805C18.8367 15.1259 18.7986 15.0929 18.7214 15.0929H17.4967C17.453 15.0929 17.4238 15.1145 17.4085 15.1476L16.6416 16.3086L15.9875 15.1476C15.9837 15.1394 15.9788 15.1317 15.973 15.1248C15.9566 15.1015 15.9327 15.0869 15.9058 15.0869H14.6808C14.6038 15.0869 14.5653 15.1196 14.5557 15.1746C14.5522 15.1943 14.56 15.2225 14.5716 15.2536C14.5788 15.2738 14.5871 15.2952 14.5964 15.3164L15.8268 17.5881L14.3362 19.8727C14.3274 19.8943 14.3183 19.9155 14.311 19.9354C14.3002 19.9668 14.2927 19.9951 14.2957 20.0143C14.3057 20.0696 14.3436 20.1026 14.4206 20.1026H15.6456C15.6787 20.1026 15.7078 20.0806 15.7233 20.0476L16.4926 18.8867L17.7459 21.3184L17.7661 21.3625C17.7672 21.3643 17.7678 21.3657 17.7685 21.3672C17.7853 21.3976 17.8135 21.4172 17.855 21.4172H28.8109C28.8473 21.4169 28.8795 21.3998 28.8979 21.3602L29.0228 20.8114C29.0377 20.7306 29.0417 20.6933 28.9958 20.6616C28.9593 20.636 28.9225 20.6373 28.8499 20.6387H18.9583C18.9351 20.6378 18.9129 20.6284 18.8962 20.6122L17.3105 17.6071Z" fill="#FDDF00"/>
<path d="M35.205 18.5687L35.3283 18.57C33.7905 18.57 32.4309 19.3318 31.6058 20.4985C31.5649 20.5627 31.3403 20.8978 31.3041 20.9193C30.4688 21.9562 29.1888 22.6199 27.7534 22.6199H12.2767C10.8278 22.6199 9.5369 21.9435 8.7022 20.8895C8.67011 20.8702 8.47943 20.5827 8.46473 20.5602C7.64422 19.3587 6.26398 18.5699 4.69915 18.5699L4.67168 18.5685H4.01021C4.01021 18.5685 3.9873 18.8702 4.01021 21.1023C4.03313 23.3344 6.18741 23.1261 6.18741 23.1261L33.4887 23.0999C33.4887 23.0999 35.997 23.1264 35.9972 21.1025C35.9972 19.6143 35.9972 18.5688 35.9972 18.5688L35.205 18.5687Z" fill="#DC281D"/>
<path d="M33.5677 13.0055C26.3348 13.0345 8.24586 13.0361 6.26693 13.0008C3.76003 12.9558 4.01137 14.9141 4.01137 14.9141V17.5571H4.70024C6.26873 17.5571 7.6516 16.7645 8.4714 15.5582C8.48552 15.537 8.69604 15.2193 8.73795 15.1944C9.57348 14.1651 10.8487 13.5066 12.2779 13.5066H27.7547C29.1874 13.5066 30.4652 14.1676 31.3006 15.2014C31.3365 15.2215 31.5658 15.5634 31.6086 15.6313C32.4334 16.7951 33.7905 17.5551 35.3252 17.5565H35.9983V15.1492C35.9983 15.1492 36.1535 12.9951 33.5677 13.0055Z" fill="#002596"/>
<path d="M28.1963 18.8401C28.0305 19.033 27.772 19.1777 27.5331 19.1777H27.1376C26.9708 19.1777 26.8805 19.042 26.9095 18.8761L26.9365 18.7209V18.7202C26.9643 18.5634 27.1127 18.4286 27.2683 18.4286H28.3726L28.3435 18.5949C28.3132 18.6799 28.2624 18.7636 28.1963 18.8401ZM29.1387 20.2706C29.2073 20.2685 29.2431 20.2375 29.2553 20.1672L29.7691 17.2305C29.9588 16.1478 29.3293 15.3978 28.1434 15.3978C27.3411 15.3978 26.8215 15.6895 26.4006 16.1893C26.2699 16.3449 26.1203 16.5513 26.1095 16.6049V16.6059C26.1037 16.6369 26.1205 16.6579 26.1588 16.6785L26.8774 17.0957C26.9147 17.116 26.9516 17.1474 26.9929 17.1474C27.0244 17.1474 27.0587 17.1267 27.0878 17.0846C27.4134 16.6477 27.7013 16.4911 27.9516 16.4911C28.3785 16.4911 28.6582 16.7933 28.587 17.1994L28.5652 17.3245C28.555 17.3848 28.5188 17.425 28.4493 17.4276C28.4471 17.4276 28.4457 17.4284 28.4428 17.4284H27.4435C26.7925 17.4284 26.3192 17.769 26.0237 18.3338C25.9425 18.4872 25.8862 18.6526 25.8569 18.8238L25.8475 18.876C25.7012 19.7089 26.1235 20.271 26.9469 20.271H27.3424C27.5398 20.271 27.7596 20.2088 28.0094 20.0841C28.0452 20.0626 28.078 20.0528 28.1092 20.0528C28.161 20.0528 28.1729 20.1045 28.1579 20.1876C28.1475 20.25 28.1748 20.271 28.2482 20.271H29.1329C29.1353 20.2709 29.1365 20.2706 29.1387 20.2706Z" fill="#DC281D"/>
<path d="M29.1325 20.3749H28.2479C28.2166 20.3756 28.1855 20.371 28.1558 20.3615C28.117 20.3483 28.0851 20.3203 28.067 20.2836C28.0563 20.2607 28.051 20.2358 28.0514 20.2106C28.0514 20.1995 28.0522 20.1885 28.0538 20.1775C27.7954 20.3063 27.5613 20.3744 27.3421 20.3749H26.9464C26.5686 20.3749 26.2567 20.2615 26.0414 20.0507C25.8255 19.8404 25.7137 19.5387 25.7141 19.189C25.7145 19.0777 25.7247 18.9668 25.7445 18.8573L25.7537 18.806C25.7846 18.6241 25.8444 18.4483 25.931 18.2854C26.085 17.9907 26.2884 17.7493 26.5423 17.5822C26.7961 17.4154 27.0992 17.3241 27.4429 17.3243H28.4354C28.4385 17.3239 28.4417 17.3236 28.4449 17.3236C28.4493 17.3237 28.4536 17.323 28.4577 17.3216C28.4577 17.3216 28.4581 17.3209 28.4582 17.3204C28.4602 17.316 28.4615 17.3114 28.4622 17.3068L28.4839 17.1816C28.4901 17.1465 28.4933 17.1109 28.4934 17.0753C28.493 16.931 28.4397 16.8161 28.3476 16.7321C28.2555 16.6482 28.1205 16.5953 27.9513 16.5952C27.8482 16.5952 27.735 16.6265 27.6047 16.7113C27.4747 16.7957 27.3294 16.9345 27.1723 17.1454C27.1316 17.2038 27.0707 17.2505 26.9926 17.2512C26.9542 17.2504 26.9166 17.2398 26.8835 17.2204C26.8578 17.2062 26.8391 17.1929 26.8271 17.1869L26.8249 17.1857L26.1077 16.7694C26.0826 16.7566 26.0601 16.7392 26.0415 16.7181C26.0172 16.6901 26.0039 16.6543 26.0038 16.6173C26.0038 16.607 26.0048 16.5966 26.0067 16.5865V16.5847C26.0168 16.5424 26.0317 16.5205 26.0513 16.4859C26.071 16.4531 26.0962 16.4153 26.1247 16.3752C26.1818 16.2947 26.2531 16.2027 26.3206 16.1223C26.7536 15.604 27.3154 15.2912 28.1429 15.294C28.6847 15.294 29.1267 15.4455 29.4344 15.7224C29.742 15.9988 29.9066 16.3978 29.9058 16.8615C29.9054 16.9913 29.8937 17.1208 29.8708 17.2485L29.3573 20.1852C29.3491 20.2339 29.3292 20.285 29.2863 20.3226C29.2447 20.3595 29.1922 20.3729 29.1448 20.3745C29.141 20.375 29.1372 20.3752 29.1334 20.3753H29.1324L29.1325 20.3749ZM29.1394 20.2963L29.1384 20.2706L29.139 20.2931L29.1394 20.2965V20.2963ZM29.1286 20.167C29.1304 20.167 29.1327 20.1665 29.1355 20.1665C29.14 20.1665 29.1444 20.166 29.1488 20.165C29.1507 20.1599 29.152 20.1546 29.1529 20.1492L29.6664 17.2127C29.6872 17.0967 29.698 16.9791 29.6984 16.8613C29.6977 16.4449 29.5558 16.1119 29.2957 15.8767C29.0349 15.6419 28.6475 15.5019 28.1436 15.5018C27.3666 15.5046 26.8889 15.7749 26.4805 16.256C26.421 16.3266 26.3568 16.4094 26.3052 16.481C26.2728 16.526 26.2446 16.5691 26.2275 16.5978L26.9279 17.0043C26.9578 17.0212 26.9789 17.0356 26.9896 17.0409C26.9943 17.0361 26.9986 17.031 27.0024 17.0254L27.0044 17.0223C27.1725 16.797 27.3335 16.6395 27.4913 16.5368C27.6485 16.4341 27.8046 16.3868 27.9518 16.387C28.1645 16.387 28.3529 16.4549 28.4881 16.5779C28.6236 16.7003 28.7027 16.8773 28.7021 17.0752C28.702 17.1227 28.6978 17.1702 28.6896 17.217L28.6677 17.3418C28.6605 17.3918 28.6369 17.4381 28.6007 17.4733C28.5627 17.5095 28.5109 17.5284 28.459 17.5311C28.4536 17.5317 28.4482 17.532 28.4428 17.532H27.4432C27.1356 17.5324 26.8766 17.6116 26.657 17.7559C26.4377 17.9002 26.2569 18.1119 26.1153 18.3822C26.039 18.526 25.9862 18.6812 25.9591 18.8418L25.9496 18.8935C25.9321 18.9909 25.9231 19.0897 25.9225 19.1887C25.9231 19.4962 26.0175 19.7358 26.187 19.9017C26.3567 20.0676 26.6087 20.1661 26.9466 20.1666H27.3421C27.5165 20.1666 27.72 20.1111 27.9596 19.9917C28.0058 19.9648 28.0567 19.9481 28.1089 19.9482C28.1527 19.9458 28.2105 19.9718 28.2366 20.0138C28.2632 20.0546 28.2672 20.0933 28.2676 20.1288C28.2676 20.1414 28.267 20.154 28.2656 20.1666H29.1286V20.167ZM26.8898 19.1791C26.8294 19.1141 26.7999 19.0266 26.7999 18.9365C26.7999 18.9102 26.8022 18.8839 26.8069 18.858L26.8339 18.703V18.7017C26.8533 18.5991 26.9066 18.506 26.9852 18.4373C27.0612 18.3698 27.1596 18.3244 27.2681 18.3241H28.3723C28.3875 18.3241 28.4025 18.3274 28.4163 18.3338C28.4301 18.3402 28.4423 18.3495 28.4521 18.3611C28.4618 18.3728 28.4688 18.3864 28.4728 18.4011C28.4767 18.4157 28.4775 18.4311 28.475 18.446L28.4457 18.6125L28.4413 18.6293C28.406 18.7289 28.3483 18.8232 28.2748 18.9082C28.0902 19.12 27.8139 19.2794 27.5328 19.2816H27.1349C27.0386 19.2816 26.9493 19.2441 26.8896 19.1789L26.8898 19.1791ZM27.0391 18.7384L27.012 18.8943C27.0095 18.9082 27.0083 18.9223 27.0082 18.9365C27.0082 18.9831 27.0227 19.0164 27.0423 19.0374C27.0625 19.0584 27.089 19.0728 27.1376 19.0734H27.5331C27.73 19.0756 27.97 18.9455 28.1171 18.7722L28.1961 18.84L28.1174 18.772C28.1742 18.7062 28.2169 18.636 28.2424 18.5674L28.2488 18.5323H27.268C27.2207 18.5319 27.1672 18.5539 27.1233 18.5929C27.0797 18.6314 27.048 18.6851 27.0391 18.7367L27.0388 18.7384H27.0391Z" fill="#111211"/>
<path d="M28.1962 18.7365C28.0303 18.929 27.7718 19.0739 27.5329 19.0739H27.1375C26.9706 19.0739 26.8803 18.9383 26.9094 18.7723L26.9363 18.6172V18.6165C26.9642 18.4595 27.1126 18.3247 27.2681 18.3247H28.3724L28.3433 18.4909C28.313 18.5762 28.2623 18.6597 28.1962 18.7365ZM29.1385 20.1666C29.2071 20.1645 29.2429 20.1338 29.2551 20.0632L29.769 17.1269C29.9587 16.0441 29.3292 15.294 28.1432 15.294C27.3409 15.294 26.8214 15.5855 26.4005 16.0855C26.2698 16.241 26.1202 16.4473 26.1093 16.5011V16.502C26.1035 16.5329 26.1203 16.554 26.1587 16.5749L26.8772 16.992C26.9146 17.0124 26.9514 17.0434 26.9927 17.0434C27.0243 17.0434 27.0585 17.023 27.0876 16.9809C27.4132 16.544 27.7012 16.3875 27.9514 16.3875C28.3784 16.3875 28.658 16.6896 28.5868 17.0957L28.5651 17.2207C28.5549 17.2809 28.5186 17.3212 28.4491 17.3238C28.447 17.3238 28.4455 17.3246 28.4427 17.3246H27.4434C26.7923 17.3246 26.1942 17.6648 25.8988 18.2299C25.8174 18.3833 25.7611 18.5488 25.7319 18.72L25.7227 18.772C25.5766 19.6049 26.1233 20.1674 26.9469 20.1674H27.3424C27.5398 20.1674 27.7596 20.105 28.0094 19.98C28.0452 19.9589 28.0781 19.9491 28.1093 19.9491C28.161 19.9491 28.1729 20.0008 28.1579 20.0838C28.1476 20.1462 28.1748 20.1673 28.2482 20.1673H29.1329C29.1348 20.1672 29.1367 20.1669 29.1385 20.1666Z" fill="#DC281D"/>
<path d="M30.2769 20.0701C30.2769 20.1256 30.2604 20.1799 30.2296 20.226C30.1987 20.2721 30.1549 20.3081 30.1036 20.3293C30.0523 20.3505 29.9959 20.3561 29.9414 20.3452C29.887 20.3344 29.837 20.3076 29.7978 20.2684C29.7585 20.2291 29.7318 20.1791 29.721 20.1247C29.7102 20.0703 29.7157 20.0138 29.737 19.9626C29.7582 19.9113 29.7942 19.8675 29.8404 19.8367C29.8865 19.8058 29.9408 19.7894 29.9963 19.7894C30.0331 19.7894 30.0697 19.7966 30.1037 19.8107C30.1378 19.8249 30.1687 19.8455 30.1948 19.8716C30.2208 19.8977 30.2415 19.9286 30.2556 19.9627C30.2697 19.9968 30.277 20.0333 30.2769 20.0701Z" fill="#FEFEFE"/>
<path d="M30.0028 19.7543C30.1858 19.7543 30.328 19.8965 30.328 20.0735C30.328 20.2547 30.1858 20.3949 30.0007 20.3949C29.8177 20.3949 29.6716 20.2547 29.6716 20.0735C29.6716 19.8965 29.8177 19.7543 30.0007 19.7543H30.0028ZM29.9989 19.8184C29.8586 19.8184 29.7536 19.9333 29.7536 20.0734C29.7536 20.2156 29.8586 20.3284 30.0028 20.3284C30.1429 20.3305 30.2461 20.2156 30.2461 20.0734C30.2461 19.9333 30.1429 19.8184 30.0008 19.8184H29.9989ZM29.9502 20.239H29.8762V19.9217C29.9166 19.9137 29.9577 19.9098 29.9989 19.91C30.0592 19.91 30.0865 19.9197 30.1098 19.9353C30.1198 19.9436 30.1277 19.954 30.1331 19.9658C30.1386 19.9776 30.1413 19.9904 30.1411 20.0034C30.1411 20.0404 30.1137 20.0676 30.0748 20.0793V20.0832C30.106 20.0929 30.1235 20.1183 30.1333 20.1611C30.1429 20.2098 30.1488 20.2292 30.1566 20.239H30.0768C30.067 20.2272 30.0611 20.2 30.0515 20.163C30.0456 20.128 30.0261 20.1124 29.9852 20.1124H29.9501L29.9502 20.239ZM29.9521 20.0598H29.9872C30.0281 20.0598 30.0611 20.0462 30.0611 20.0131C30.0611 19.9839 30.0397 19.9645 29.993 19.9645C29.9793 19.9642 29.9655 19.9655 29.9521 19.9684V20.0598Z" fill="#002596"/>
<path d="M30.9453 25.4424C31.1283 25.4424 31.2705 25.5847 31.2705 25.7617C31.2705 25.9428 31.1283 26.083 30.9431 26.083C30.7602 26.083 30.614 25.9428 30.614 25.7617C30.614 25.5847 30.7602 25.4424 30.9431 25.4424H30.9453ZM30.9415 25.5066C30.8012 25.5066 30.6961 25.6214 30.6961 25.7616C30.6961 25.9037 30.8012 26.0166 30.9453 26.0166C31.0855 26.0186 31.1886 25.9037 31.1886 25.7616C31.1886 25.6214 31.0855 25.5066 30.9433 25.5066H30.9415ZM30.8927 25.9271H30.8188V25.6098C30.8592 25.6019 30.9003 25.598 30.9415 25.5982C31.0018 25.5982 31.029 25.6078 31.0524 25.6234C31.0624 25.6317 31.0703 25.6422 31.0757 25.6539C31.0811 25.6657 31.0838 25.6786 31.0836 25.6915C31.0836 25.7285 31.0562 25.7557 31.0174 25.7675V25.7713C31.0485 25.7812 31.066 25.8064 31.0759 25.8492C31.0855 25.8979 31.0913 25.9173 31.0991 25.9271H31.0194C31.0096 25.9155 31.0037 25.8883 30.9937 25.8512C30.9879 25.8162 30.9685 25.8006 30.9275 25.8006H30.8924L30.8927 25.9271ZM30.8947 25.7479H30.9297C30.9705 25.7479 31.0037 25.7343 31.0037 25.7013C31.0037 25.6721 30.9824 25.6526 30.9355 25.6526C30.9218 25.6524 30.9081 25.6537 30.8947 25.6565V25.7479Z" fill="#002596"/>
<path d="M11.041 26.2602C11.0231 26.4744 10.9428 26.6422 10.8 26.7635C10.6536 26.8813 10.4608 26.9403 10.2216 26.9403C9.94313 26.9403 9.73071 26.8564 9.58437 26.6886C9.43791 26.528 9.36472 26.2905 9.36481 25.9762C9.36481 25.655 9.43969 25.414 9.58945 25.2534C9.74288 25.0856 9.96425 25.0018 10.2535 25.0017C10.4891 25.0017 10.6766 25.0606 10.8158 25.1784C10.9479 25.2927 11.0228 25.4533 11.0405 25.6603H10.8102C10.7246 25.6603 10.6639 25.6228 10.6281 25.5479C10.6039 25.5026 10.5733 25.4611 10.5371 25.4247C10.4657 25.3711 10.3711 25.3444 10.2533 25.3444C10.089 25.3444 9.96224 25.3979 9.87307 25.5048C9.78749 25.6118 9.7447 25.7689 9.7447 25.976C9.7447 26.176 9.78749 26.3295 9.87307 26.4365C9.95513 26.5472 10.0783 26.6026 10.2426 26.6025C10.3567 26.6025 10.4513 26.574 10.5264 26.5168C10.5942 26.4633 10.6424 26.3776 10.671 26.2598L11.041 26.2602Z" fill="#002596"/>
<path d="M11.298 26.7682C11.2231 26.7041 11.1696 26.6175 11.1376 26.5085C11.1052 26.3981 11.089 26.2835 11.0894 26.1684C11.0895 26.0706 11.1031 25.9733 11.1296 25.8792C11.1563 25.7828 11.1983 25.7025 11.2554 25.6383C11.3482 25.5313 11.4678 25.468 11.6142 25.4482C11.7606 25.4284 11.8927 25.44 12.0105 25.483C12.1461 25.5366 12.2461 25.6294 12.3104 25.7614C12.371 25.8792 12.4014 26.0167 12.4014 26.1737C12.4014 26.288 12.3889 26.3862 12.3639 26.4682C12.3389 26.5502 12.3068 26.6198 12.2676 26.677C12.1821 26.7949 12.0732 26.868 11.941 26.8966C11.8248 26.9287 11.7024 26.9314 11.5849 26.9046C11.465 26.8779 11.3694 26.8325 11.298 26.7682ZM11.5548 25.8258C11.48 25.908 11.4461 26.0302 11.4531 26.1923C11.4601 26.3545 11.4904 26.4679 11.5441 26.5325C11.5655 26.5611 11.603 26.5852 11.6566 26.6048C11.709 26.6244 11.7663 26.6262 11.8199 26.6101C11.8752 26.5941 11.9243 26.5539 11.9672 26.4897C12.0101 26.4254 12.0334 26.322 12.0372 26.1795C12.0372 26.0512 12.0166 25.9549 11.9755 25.8907C11.9345 25.8266 11.8872 25.7855 11.8336 25.7676C11.7818 25.7498 11.7256 25.7489 11.6732 25.7649C11.6194 25.7803 11.5801 25.8006 11.5551 25.8258H11.5548Z" fill="#002596"/>
<path d="M13.7025 26.8968H13.515C13.4615 26.8968 13.4177 26.8798 13.3838 26.8459C13.3499 26.812 13.3329 26.7683 13.333 26.7147V25.9866C13.333 25.901 13.3071 25.8385 13.2553 25.7991C13.2055 25.7605 13.1442 25.7398 13.0813 25.7402C13.019 25.7395 12.9585 25.7603 12.9099 25.7991C12.8598 25.8385 12.8348 25.901 12.8349 25.9866V26.8968H12.46V26.0615C12.46 25.8188 12.5234 25.6564 12.6501 25.5743C12.7756 25.4926 12.9209 25.4463 13.0705 25.4404C13.2239 25.4393 13.3744 25.4821 13.5043 25.5635C13.6364 25.6457 13.7024 25.8117 13.7025 26.0615V26.8968Z" fill="#002596"/>
<path d="M14.3935 26.8971C14.2659 26.9042 14.138 26.9024 14.0106 26.8918C13.8731 26.8811 13.8044 26.7936 13.8045 26.6294V25.0552H13.997C14.0433 25.0552 14.0844 25.073 14.1202 25.1088C14.1374 25.1254 14.151 25.1453 14.1602 25.1674C14.1694 25.1895 14.174 25.2132 14.1737 25.2371V25.4781H14.3933V25.553C14.3933 25.6066 14.3754 25.6503 14.3397 25.6842C14.3228 25.7007 14.3027 25.7137 14.2806 25.7225C14.2586 25.7312 14.2351 25.7355 14.2114 25.7351H14.1739V26.5276C14.1739 26.5883 14.2096 26.6186 14.281 26.6186H14.3935L14.3935 26.8971Z" fill="#002596"/>
<path d="M14.4576 25.0552H14.6501C14.6984 25.0554 14.7446 25.0746 14.7787 25.1087C14.8128 25.1428 14.832 25.189 14.8322 25.2372V25.3497H14.4573L14.4576 25.0552ZM14.4576 25.4729H14.6501C14.6984 25.4731 14.7446 25.4923 14.7787 25.5264C14.8128 25.5605 14.832 25.6067 14.8322 25.6549V26.8971H14.4573L14.4576 25.4729Z" fill="#002596"/>
<path d="M15.7911 26.8111V26.7201C15.727 26.8201 15.6404 26.8825 15.5315 26.9075C15.4233 26.9325 15.3101 26.9231 15.2075 26.8807C15.1005 26.838 15.0085 26.7585 14.9315 26.6425C14.8545 26.5264 14.8161 26.3738 14.8163 26.1847C14.8163 25.9633 14.8672 25.784 14.969 25.6465C15.0707 25.509 15.234 25.4403 15.4589 25.4404C15.6279 25.4397 15.7935 25.488 15.9356 25.5796C16.082 25.6724 16.1552 25.8437 16.1551 26.0936V26.8486C16.1551 27.0984 16.0819 27.2688 15.9356 27.3599C15.7929 27.4499 15.6276 27.4973 15.4589 27.4965C15.1305 27.4965 14.927 27.343 14.8484 27.036H15.2399C15.2684 27.0859 15.3122 27.1244 15.3711 27.1515C15.4261 27.1778 15.4882 27.1853 15.5478 27.1729C15.6068 27.1604 15.6602 27.1256 15.7083 27.0684C15.7563 27.0113 15.784 26.9256 15.7911 26.8111ZM15.1807 26.1954C15.1807 26.4417 15.2521 26.5782 15.3949 26.605C15.5377 26.6318 15.643 26.5987 15.7109 26.5059C15.7429 26.4667 15.7661 26.4051 15.7804 26.3212C15.7947 26.2389 15.7956 26.1548 15.7831 26.0722C15.7718 25.993 15.7415 25.9177 15.6948 25.8527C15.6483 25.7885 15.5805 25.7564 15.4913 25.7564C15.3699 25.7564 15.2877 25.801 15.245 25.8903C15.2022 25.9795 15.1808 26.0812 15.1807 26.1954Z" fill="#002596"/>
<path d="M16.3959 26.7682C16.321 26.7041 16.2675 26.6175 16.2355 26.5085C16.2031 26.3981 16.1869 26.2835 16.1873 26.1684C16.1875 26.0706 16.201 25.9734 16.2274 25.8792C16.2542 25.7828 16.2962 25.7025 16.3532 25.6383C16.4461 25.5313 16.5657 25.468 16.7121 25.4482C16.8585 25.4284 16.9906 25.44 17.1084 25.483C17.244 25.5366 17.344 25.6294 17.4083 25.7614C17.469 25.8792 17.4993 26.0167 17.4993 26.1737C17.4993 26.288 17.4868 26.3862 17.4618 26.4682C17.4368 26.5502 17.4047 26.6198 17.3655 26.677C17.28 26.7949 17.1711 26.868 17.0388 26.8966C16.9226 26.9287 16.8003 26.9314 16.6828 26.9046C16.5629 26.8779 16.4673 26.8325 16.3959 26.7682ZM16.6527 25.8258C16.5777 25.908 16.5438 26.0303 16.5509 26.1926C16.5581 26.3549 16.5884 26.4683 16.6419 26.5327C16.6633 26.5613 16.7008 26.5854 16.7544 26.605C16.8068 26.6246 16.8642 26.6265 16.9177 26.6104C16.9731 26.5943 17.0222 26.5542 17.065 26.4899C17.1079 26.4257 17.1311 26.3221 17.1346 26.1793C17.1346 26.051 17.1141 25.9547 17.0731 25.8905C17.032 25.8264 16.9847 25.7853 16.9311 25.7674C16.8793 25.7496 16.8231 25.7487 16.7707 25.7647C16.7172 25.7803 16.678 25.8006 16.653 25.8258H16.6527Z" fill="#002596"/>
<path d="M19.1164 25.0496H19.2985C19.3226 25.0494 19.3465 25.0543 19.3687 25.064C19.3908 25.0736 19.4106 25.0879 19.4268 25.1058C19.4625 25.1433 19.4803 25.1852 19.4804 25.2316V26.2759C19.4804 26.5294 19.4072 26.7007 19.2608 26.7899C19.1176 26.8783 18.9524 26.9247 18.7842 26.9238C18.6912 26.9238 18.599 26.9084 18.5111 26.8783C18.4218 26.848 18.3504 26.7988 18.2968 26.7307C18.1933 26.5987 18.1415 26.4185 18.1416 26.1899C18.1416 25.9651 18.1933 25.7848 18.2968 25.6491C18.4038 25.5099 18.5413 25.4403 18.7092 25.4403C18.7984 25.4403 18.877 25.4582 18.9448 25.4938C19.0144 25.5348 19.0732 25.5917 19.1164 25.6599V25.0496ZM18.5059 26.174C18.5059 26.3168 18.5327 26.4257 18.5862 26.5006C18.6398 26.5756 18.7166 26.6131 18.8165 26.6131C18.9129 26.6131 18.9878 26.5756 19.0412 26.5006C19.0911 26.4256 19.1161 26.3167 19.1161 26.174C19.1161 26.0457 19.0894 25.9439 19.0358 25.8688C18.9787 25.7974 18.9019 25.7617 18.8055 25.7617C18.7127 25.7617 18.6395 25.7992 18.586 25.8741C18.5327 25.9456 18.5061 26.0456 18.5061 26.174H18.5059Z" fill="#002596"/>
<path d="M19.5773 25.4729H19.7699C19.8181 25.4731 19.8643 25.4923 19.8984 25.5264C19.9325 25.5605 19.9518 25.6067 19.952 25.655V26.8972H19.5771L19.5773 25.4729ZM20.145 25.0124L19.8183 25.3444H19.647L19.7915 25.0713C19.8021 25.0571 19.8148 25.0444 19.829 25.0338C19.8468 25.0196 19.8719 25.0124 19.904 25.0124H20.145Z" fill="#002596"/>
<path d="M20.943 26.8377C20.8689 26.8768 20.788 26.9013 20.7047 26.9101C20.6309 26.9184 20.5567 26.9228 20.4824 26.9234C20.3541 26.9234 20.2416 26.8886 20.145 26.819C20.0485 26.7494 20.0003 26.6343 20.0005 26.4737C20.0005 26.3237 20.0442 26.2166 20.1317 26.1524C20.2191 26.0881 20.3307 26.0453 20.4664 26.024C20.488 26.0236 20.5095 26.0208 20.5306 26.0159C20.5555 26.0106 20.5842 26.0062 20.6163 26.0026C20.7733 25.9812 20.8519 25.9348 20.8519 25.8634C20.8519 25.8098 20.8242 25.775 20.7689 25.759C20.7194 25.7438 20.668 25.7357 20.6163 25.7349C20.5707 25.7341 20.5254 25.7414 20.4824 25.7563C20.4633 25.763 20.4458 25.7736 20.4311 25.7874C20.4163 25.8013 20.4046 25.818 20.3967 25.8366H20.0379C20.0502 25.7294 20.1041 25.6314 20.1878 25.5635C20.2842 25.4815 20.4217 25.4404 20.6002 25.4404C20.8001 25.4404 20.95 25.4743 21.05 25.5421C21.1535 25.6136 21.2053 25.7135 21.2053 25.842V26.3292C21.2053 26.472 21.1794 26.5836 21.1277 26.6638C21.0759 26.7441 21.0143 26.8021 20.943 26.8377ZM20.8573 26.1795C20.8073 26.2045 20.7376 26.2277 20.6485 26.2491L20.5253 26.2758C20.4611 26.2938 20.4147 26.317 20.386 26.3455C20.361 26.3848 20.3485 26.4241 20.3485 26.4633C20.3485 26.5168 20.3646 26.5596 20.3968 26.5916C20.4289 26.6203 20.4753 26.6345 20.536 26.6344C20.6359 26.6344 20.7145 26.6059 20.7716 26.5488C20.8288 26.4918 20.8574 26.4132 20.8573 26.3132V26.1795Z" fill="#002596"/>
<path d="M22.0779 27.401V27.1065H22.1796C22.251 27.1065 22.3072 27.0896 22.3483 27.0557C22.3894 27.0218 22.3974 26.9674 22.3724 26.8924L21.8744 25.4734H22.2868L22.5757 26.4801L22.8274 25.6019C22.8488 25.5164 22.9059 25.4736 22.9987 25.4736H23.256L22.7097 27.0959C22.6669 27.2138 22.6135 27.2977 22.5493 27.3476C22.4851 27.3904 22.3798 27.4118 22.2333 27.4118H22.1585C22.1454 27.4077 22.1319 27.405 22.1183 27.4038C22.1049 27.4021 22.0914 27.4012 22.0779 27.401Z" fill="#002596"/>
<path d="M25.1788 26.8968H24.9914C24.9378 26.8968 24.8941 26.8798 24.8602 26.8459C24.8264 26.812 24.8094 26.7683 24.8093 26.7147V25.9866C24.8093 25.901 24.7834 25.8385 24.7317 25.7991C24.6819 25.7606 24.6206 25.7398 24.5577 25.7402C24.4955 25.7395 24.4349 25.7603 24.3862 25.7991C24.3362 25.8385 24.3112 25.901 24.3113 25.9866V26.8968H23.9366V26.0615C23.9366 25.8188 24 25.6564 24.1268 25.5743C24.2522 25.4926 24.3975 25.4463 24.5471 25.4404C24.7005 25.4394 24.8509 25.4821 24.9809 25.5635C25.1129 25.6457 25.1789 25.8117 25.179 26.0615L25.1788 26.8968Z" fill="#002596"/>
<path d="M25.4144 26.7682C25.3394 26.7041 25.2859 26.6175 25.2539 26.5085C25.2216 26.3981 25.2054 26.2835 25.2057 26.1684C25.2059 26.0706 25.2195 25.9734 25.2459 25.8792C25.2727 25.7828 25.3147 25.7025 25.3718 25.6383C25.4646 25.5313 25.5842 25.468 25.7306 25.4482C25.8769 25.4284 26.009 25.44 26.1269 25.483C26.2625 25.5366 26.3624 25.6294 26.4267 25.7614C26.4875 25.8792 26.5178 26.0167 26.5178 26.1737C26.5178 26.288 26.5053 26.3862 26.4803 26.4682C26.4553 26.5502 26.4233 26.6198 26.3841 26.677C26.2985 26.7949 26.1896 26.868 26.0574 26.8966C25.9412 26.9287 25.8188 26.9314 25.7012 26.9046C25.5814 26.8779 25.4858 26.8325 25.4144 26.7682ZM25.6714 25.8258C25.5965 25.908 25.5626 26.0303 25.5697 26.1926C25.5769 26.3549 25.6072 26.4683 25.6608 26.5327C25.6822 26.5613 25.7197 26.5854 25.7732 26.605C25.8256 26.6246 25.883 26.6265 25.9366 26.6104C25.9918 26.5943 26.0409 26.5542 26.0838 26.4899C26.1267 26.4257 26.15 26.3221 26.1535 26.1793C26.1535 26.051 26.1329 25.9547 26.0918 25.8905C26.0508 25.8264 26.0035 25.7853 25.9499 25.7674C25.8981 25.7496 25.8419 25.7487 25.7895 25.7647C25.7358 25.7803 25.6965 25.8006 25.6714 25.8258Z" fill="#002596"/>
<path d="M27.5674 26.4577H27.8351C27.7959 26.6074 27.721 26.7217 27.6105 26.8004C27.4998 26.8825 27.3606 26.9236 27.1928 26.9235C26.9893 26.9235 26.8304 26.8575 26.7162 26.7254C26.6019 26.5971 26.5447 26.4133 26.5448 26.1739C26.5448 25.9456 26.6001 25.7671 26.7108 25.6385C26.825 25.5065 26.9839 25.4405 27.1874 25.4404C27.4017 25.4404 27.5677 25.5045 27.6855 25.6329C27.7506 25.7131 27.798 25.8061 27.8247 25.9059H27.4499C27.432 25.8703 27.4141 25.8435 27.3963 25.8256C27.3499 25.7757 27.2838 25.7507 27.1981 25.7506C27.1196 25.7506 27.0554 25.7756 27.0056 25.8256C26.9414 25.8971 26.9093 26.0149 26.9093 26.179C26.9093 26.3431 26.9414 26.4591 27.0056 26.5271C27.052 26.5842 27.1216 26.6127 27.2145 26.6127C27.2752 26.6127 27.3269 26.6003 27.3698 26.5753C27.3809 26.5714 27.391 26.565 27.3992 26.5565L27.4287 26.5271C27.4411 26.511 27.4555 26.4966 27.4715 26.4842C27.4926 26.4666 27.5245 26.4577 27.5674 26.4577Z" fill="#002596"/>
<path d="M28.7881 25.8747C28.7346 25.7998 28.6614 25.7623 28.5686 25.7623C28.4686 25.7623 28.3918 25.798 28.3383 25.8694C28.2849 25.9408 28.2581 26.0389 28.258 26.1639V26.8974H27.8938V25.0557H28.0762C28.1244 25.0559 28.1706 25.0752 28.2047 25.1092C28.2388 25.1433 28.2581 25.1895 28.2583 25.2377V25.6604C28.3225 25.5535 28.4135 25.4856 28.5314 25.4569C28.6493 25.4282 28.7618 25.4354 28.8688 25.4784C28.9687 25.5212 29.0526 25.589 29.1205 25.6819C29.1885 25.7747 29.2224 25.9032 29.2223 26.0674V26.8973H28.8635V26.1585C28.8638 26.1091 28.8593 26.0598 28.8501 26.0113C28.8409 25.9667 28.8202 25.9212 28.7881 25.8747Z" fill="#002596"/>
<path d="M30.2772 26.4577H30.5449C30.5056 26.6074 30.4307 26.7217 30.3203 26.8004C30.2096 26.8825 30.0704 26.9236 29.9026 26.9235C29.6991 26.9235 29.5402 26.8575 29.4259 26.7254C29.3117 26.5971 29.2545 26.4133 29.2545 26.1739C29.2545 25.9456 29.3099 25.7671 29.4206 25.6385C29.5348 25.5065 29.6937 25.4405 29.8972 25.4404C30.1114 25.4404 30.2774 25.5045 30.3953 25.6329C30.5094 25.765 30.5665 25.9488 30.5666 26.1844V26.2438C30.5674 26.2565 30.5656 26.2692 30.5612 26.2812H29.6346C29.638 26.392 29.6648 26.474 29.7149 26.5275C29.7612 26.5846 29.8308 26.6132 29.9237 26.6132C29.9844 26.6132 30.0362 26.6007 30.079 26.5757C30.0902 26.5719 30.1003 26.5655 30.1085 26.557L30.138 26.5275C30.1414 26.5168 30.1548 26.5025 30.1781 26.4847C30.2015 26.4668 30.2345 26.4578 30.2772 26.4577ZM29.6346 26.0401H30.1808C30.1736 25.9437 30.1486 25.8723 30.1058 25.8259C30.0594 25.7759 29.9933 25.7509 29.9077 25.7509C29.8291 25.7509 29.7649 25.7759 29.7151 25.8259C29.6653 25.8758 29.6385 25.9472 29.6346 26.0401Z" fill="#002596"/>
</svg>
