<svg width="40" height="40" viewBox="0 0 40 40" fill="none" xmlns="http://www.w3.org/2000/svg">
<mask id="path-1-inside-1_135_62" fill="white">
<rect x="5.375" y="16.5" width="29.25" height="15.75" rx="1.125"/>
</mask>
<rect x="5.375" y="16.5" width="29.25" height="15.75" rx="1.125" stroke="#7A7A7A" stroke-width="3" mask="url(#path-1-inside-1_135_62)"/>
<path d="M4.76457 10.034C4.8063 9.86711 4.9563 9.75 5.12837 9.75H34.8716C35.0437 9.75 35.1937 9.86711 35.2354 10.034L36.9229 16.784C36.9821 17.0207 36.8031 17.25 36.5591 17.25H3.44087C3.19691 17.25 3.0179 17.0207 3.07707 16.784L4.76457 10.034Z" stroke="#7A7A7A" stroke-width="1.5"/>
<path d="M12.875 24.375C12.875 24.1679 13.0429 24 13.25 24H17.75C17.9571 24 18.125 24.1679 18.125 24.375V31.5H12.875V24.375Z" stroke="#7A7A7A" stroke-width="1.5"/>
</svg>
