<svg width="40" height="40" viewBox="0 0 40 40" fill="none" xmlns="http://www.w3.org/2000/svg">
<mask id="path-1-inside-1_135_61" fill="white">
<rect x="5.375" y="16.0312" width="29.25" height="15.75" rx="1.125"/>
</mask>
<rect x="5.375" y="16.0312" width="29.25" height="15.75" rx="1.125" fill="#203D5C" stroke="#203D5C" stroke-width="3.375" mask="url(#path-1-inside-1_135_61)"/>
<path d="M4.85552 9.77554C4.88682 9.65033 4.99932 9.5625 5.12837 9.5625H34.8716C35.0007 9.5625 35.1132 9.65034 35.1445 9.77554L36.832 16.5255C36.8764 16.703 36.7421 16.875 36.5591 16.875H3.44087C3.2579 16.875 3.12364 16.703 3.16802 16.5255L4.85552 9.77554Z" fill="#AFB9C4" stroke="#AFB9C4" stroke-width="1.6875"/>
<path d="M12.9688 23.9062C12.9688 23.7509 13.0947 23.625 13.25 23.625H17.75C17.9053 23.625 18.0312 23.7509 18.0312 23.9062V30.9375H12.9688V23.9062Z" fill="#AFB9C4" stroke="#AFB9C4" stroke-width="1.6875"/>
</svg>
