<svg width="40" height="40" viewBox="0 0 40 40" fill="none" xmlns="http://www.w3.org/2000/svg">
<mask id="mask0_149_510" style="mask-type:alpha" maskUnits="userSpaceOnUse" x="13" y="12" width="14" height="16">
<rect x="13" y="12" width="13.5869" height="16" fill="#C4C4C4"/>
</mask>
<g mask="url(#mask0_149_510)">
<path d="M-13.3744 25.3423H26.9261V12.1046H-13.3744V25.3423Z" fill="#D61A0C"/>
<path d="M-13.374 27.9921H26.9265V26.0112H-13.374V27.9921Z" fill="#E08600"/>
<path d="M21.063 19.1263L22.8116 16.7629H21.022L19.41 19.0307V16.7629H17.8389V21.6946H19.41V19.4269L22.1969 23.0334C21.5138 23.4569 20.6805 23.7028 19.7925 23.7028C17.2515 23.7028 15.3253 21.7766 15.3253 19.2356C15.3253 16.6946 17.2515 14.7684 19.7925 14.7684C22.3335 14.7684 24.2597 16.6946 24.2597 19.2356C24.2597 20.3012 23.9182 21.2575 23.3444 22.0088L21.063 19.1263Z" fill="#FEFEFE"/>
</g>
</svg>
