<svg width="40" height="40" viewBox="0 0 40 40" fill="none" xmlns="http://www.w3.org/2000/svg">
<path d="M4 11.528L5.76656 29.0565C17.6129 22.2313 30.0184 22.4744 32.4375 23.1665L34.8982 16.412C32.0925 14.2298 13.5602 10.6281 4 11.528Z" fill="#EB1C24"/>
<path d="M7.09048 10.2539L7.9218 25.5606C17.8 19.8764 29.2515 20.5457 31.2778 21.1234L33.0319 14.08C29.6339 12.1181 17.4405 9.10456 7.09048 10.2539Z" fill="#C0D73F"/>
<path d="M7.72446 11.5418L8.5163 23.6168C18.2365 18.8055 28.7237 19.9008 30.962 20.2416L32.2693 14.4577C29.0645 12.6018 17.5216 10.4507 7.72446 11.5418Z" fill="white"/>
<path d="M11.4134 21.2213V18.1038H11.4404L13.2839 20.7557C13.881 20.6172 14.4553 20.4904 15.0068 20.3754L12.6458 17.0459L14.932 12.7438C14.2988 12.8048 13.6663 12.8824 13.0345 12.9766L11.4487 16.0109L11.4217 13.2676C10.9208 13.3715 10.4241 13.4879 9.93154 13.6209V21.6078C10.4366 21.4727 10.9312 21.3439 11.4134 21.2213Z" fill="#01B1EB"/>
<path d="M14.6788 16.1767V20.4559C15.1832 20.3479 15.6736 20.2488 16.1503 20.1587V16.1767H14.6788Z" fill="#01B1EB"/>
<path d="M20.776 17.754C21.279 18.0658 21.644 18.2258 21.8713 18.2341C21.982 18.2429 22.0925 18.2144 22.1851 18.153C22.2235 18.1299 22.2556 18.0977 22.2788 18.0593C22.302 18.0209 22.3155 17.9775 22.3181 17.9327C22.3218 17.8928 22.315 17.8525 22.2982 17.816C22.2814 17.7795 22.2553 17.7481 22.2225 17.7249C22.1539 17.6792 21.8983 17.5545 21.4556 17.3467C21.1578 17.2246 20.8965 17.0277 20.697 16.7751C20.5415 16.5432 20.4683 16.2659 20.4892 15.9874C20.4911 15.7808 20.538 15.5771 20.6266 15.3904C20.7153 15.2038 20.8436 15.0387 21.0025 14.9067C21.3464 14.6249 21.7853 14.4858 22.2287 14.5181C22.7054 14.5347 23.2825 14.7425 23.96 15.1416L23.3365 16.1579C23.0175 15.921 22.6434 15.7694 22.2495 15.7173C22.0001 15.7173 21.8734 15.8004 21.865 15.9958C21.8652 16.0443 21.877 16.0921 21.8994 16.1351C21.9218 16.1781 21.9542 16.2152 21.9939 16.2431C22.1462 16.3468 22.3119 16.4293 22.4865 16.4883C22.8501 16.6062 23.1811 16.8077 23.4529 17.0765C23.5515 17.188 23.627 17.318 23.6752 17.4589C23.7233 17.5998 23.7431 17.7488 23.7334 17.8974C23.7322 18.1134 23.6844 18.3265 23.5933 18.5224C23.5022 18.7182 23.3699 18.8921 23.2056 19.0322C22.8546 19.3263 22.4027 19.4717 21.9461 19.4374C21.3239 19.3898 20.7263 19.1743 20.2169 18.8139L20.776 17.754Z" fill="#01B1EB"/>
<path d="M24.6253 19.3584L24.8061 17.357L25.945 19.375C26.396 19.3854 26.8553 19.4021 27.325 19.4208L25.9388 16.8915L27.6554 15.1727L26.2609 14.888L24.9079 16.2243L25.2363 13.138C24.8206 13.0701 24.3932 13.0071 23.954 12.9489L23.3305 19.3709C23.7545 19.3605 24.1888 19.3563 24.6253 19.3584Z" fill="#01B1EB"/>
<path d="M16.5032 15.0043C16.5028 15.1789 16.4507 15.3495 16.3534 15.4945C16.2561 15.6395 16.118 15.7523 15.9565 15.8189C15.7951 15.8854 15.6176 15.9026 15.4464 15.8683C15.2752 15.834 15.118 15.7497 14.9946 15.6261C14.8713 15.5025 14.7874 15.3451 14.7535 15.1738C14.7196 15.0025 14.7372 14.825 14.8041 14.6637C14.871 14.5025 14.9842 14.3646 15.1294 14.2677C15.2746 14.1707 15.4453 14.119 15.6199 14.119C15.7361 14.119 15.8511 14.1419 15.9584 14.1864C16.0657 14.2309 16.1632 14.2962 16.2453 14.3784C16.3273 14.4606 16.3923 14.5583 16.4366 14.6657C16.4809 14.7731 16.5035 14.8882 16.5032 15.0043Z" fill="#01B1EB"/>
<path d="M18.7953 14.4398C17.5816 14.2486 16.4094 15.2815 16.1766 16.7488C15.9439 18.2161 16.7419 19.5587 17.9557 19.7519C19.1694 19.9452 20.3416 18.9206 20.5723 17.4429C20.8029 15.9653 20.009 14.6331 18.7953 14.4398ZM19.1008 17.2102C19.0239 17.6944 18.6373 18.0415 18.2362 17.9729C17.8351 17.9043 17.5733 17.4658 17.6502 16.9816C17.727 16.4973 18.1136 16.1502 18.5126 16.2188C18.9117 16.2874 19.1777 16.7259 19.1008 17.2102Z" fill="#01B1EB"/>
<path d="M29.0041 15.4085C27.965 15.2631 26.9757 16.0507 26.7803 17.171C26.585 18.2912 27.2584 19.3158 28.2913 19.4571C29.3242 19.5984 30.3197 18.817 30.5171 17.6968C30.7146 16.5766 30.0371 15.5561 29.0041 15.4085ZM29.2639 17.5222C29.2396 17.6947 29.1499 17.8514 29.0133 17.9597C28.8768 18.068 28.7039 18.1197 28.5303 18.1041C28.4467 18.0894 28.3671 18.0578 28.2962 18.0112C28.2253 17.9646 28.1646 17.9041 28.118 17.8333C28.0713 17.7625 28.0395 17.6829 28.0246 17.5994C28.0098 17.5159 28.0121 17.4302 28.0315 17.3476C28.0563 17.1754 28.1462 17.0193 28.2827 16.9114C28.4192 16.8036 28.5919 16.7521 28.7651 16.7678C28.8484 16.7825 28.9279 16.8141 28.9986 16.8605C29.0694 16.9069 29.1299 16.9673 29.1766 17.0378C29.2232 17.1084 29.255 17.1878 29.27 17.271C29.2851 17.3543 29.283 17.4397 29.2639 17.5222Z" fill="#01B1EB"/>
<path d="M15.1502 26.8889C15.2599 26.8888 15.3653 26.9321 15.4432 27.0094C15.482 27.0467 15.5128 27.0916 15.5335 27.1413C15.5542 27.191 15.5645 27.2445 15.5637 27.2983C15.565 27.3517 15.5551 27.4048 15.5347 27.4542C15.5143 27.5036 15.4839 27.5482 15.4453 27.5851C15.3676 27.6613 15.2631 27.7039 15.1543 27.7039C15.0455 27.7039 14.941 27.6613 14.8633 27.5851C14.8253 27.5486 14.7951 27.5047 14.7747 27.4561C14.7544 27.4075 14.7442 27.3552 14.7449 27.3025C14.7431 27.1936 14.7842 27.0884 14.8592 27.0094C14.895 26.9709 14.9385 26.9403 14.9868 26.9196C15.0351 26.8988 15.0872 26.8884 15.1398 26.8889H15.1502ZM14.8031 27.8906H15.5118V30.2142H14.8031V27.8906Z" fill="#EB1C24"/>
<path d="M15.8046 26.2468H17.5649V26.9929H17.0578V29.5014H16.3117V26.9929H15.8046V26.2468Z" fill="#EB1C24"/>
<path d="M18.6211 28.8138H19.2176C19.1054 29.3209 18.8207 29.5744 18.3634 29.5744C18.233 29.5791 18.1034 29.552 17.9858 29.4955C17.8681 29.4391 17.7659 29.3549 17.688 29.2502C17.508 28.9883 17.4202 28.6739 17.4386 28.3565C17.4235 28.0525 17.5114 27.7523 17.688 27.5044C17.7645 27.4021 17.8644 27.3196 17.9794 27.2639C18.0944 27.2082 18.2211 27.1809 18.3489 27.1844C18.52 27.1868 18.6864 27.2404 18.8269 27.3382C18.9773 27.4398 19.0933 27.5848 19.1594 27.7538C19.2445 28.0132 19.2846 28.2852 19.2779 28.5581H18.0953C18.1057 28.8886 18.1972 29.0528 18.3738 29.0528C18.4342 29.0531 18.4923 29.03 18.5359 28.9883C18.5839 28.9419 18.6141 28.8802 18.6211 28.8138ZM18.1078 28.1716H18.6211C18.6244 28.0518 18.6017 27.9326 18.5546 27.8224C18.5385 27.7874 18.5123 27.758 18.4793 27.738C18.4464 27.718 18.4082 27.7083 18.3697 27.7102C18.3279 27.7054 18.2858 27.7134 18.2487 27.733C18.2116 27.7527 18.1813 27.7831 18.1618 27.8203C18.117 27.931 18.0985 28.0505 18.1078 28.1695V28.1716Z" fill="#EB1C24"/>
<path d="M21.7236 28.8135V29.4037C21.576 29.511 21.399 29.5704 21.2165 29.5741C21.0963 29.5759 20.9777 29.5466 20.8721 29.4891C20.7665 29.4316 20.6775 29.3478 20.6138 29.2458C20.4495 28.983 20.3697 28.6762 20.3852 28.3666C20.3722 28.0646 20.4535 27.7661 20.618 27.5125C20.6824 27.4116 20.7712 27.3286 20.8762 27.2712C20.9812 27.2138 21.099 27.1838 21.2186 27.1841C21.402 27.1886 21.5791 27.252 21.7236 27.3649V27.9447C21.6464 27.8973 21.5585 27.8702 21.468 27.8658C21.4149 27.8646 21.3624 27.8767 21.3152 27.901C21.268 27.9253 21.2277 27.9611 21.1978 28.005C21.1239 28.113 21.0874 28.2422 21.0939 28.3729C21.0859 28.5073 21.1216 28.6408 21.1958 28.7532C21.2266 28.7976 21.268 28.8336 21.3163 28.8579C21.3646 28.8823 21.4181 28.8941 21.4722 28.8925C21.5611 28.8865 21.6473 28.8595 21.7236 28.8135Z" fill="#EB1C24"/>
<path d="M22.7877 27.1815C22.9274 27.1728 23.0672 27.1974 23.1955 27.2534C23.3238 27.3095 23.4369 27.3952 23.5255 27.5037C23.7093 27.7656 23.7987 28.0821 23.779 28.4015C23.7986 28.7131 23.7057 29.0214 23.5172 29.2702C23.4266 29.3731 23.3139 29.4542 23.1876 29.5075C23.0613 29.5608 22.9246 29.5848 22.7877 29.5778C22.6536 29.5838 22.52 29.5585 22.3974 29.5041C22.2748 29.4496 22.1665 29.3674 22.081 29.264C21.8943 29.0166 21.8014 28.711 21.8192 28.4015C21.8002 28.0828 21.888 27.7669 22.0686 27.5037C22.1539 27.3963 22.2637 27.311 22.3889 27.255C22.514 27.1989 22.6508 27.1737 22.7877 27.1815ZM22.7877 28.9419C22.8311 28.9431 22.8739 28.9315 22.9109 28.9086C22.9478 28.8857 22.9772 28.8525 22.9955 28.813C23.0883 28.5302 23.0883 28.2251 22.9955 27.9422C22.9771 27.9032 22.9475 27.8705 22.9105 27.8483C22.8735 27.8262 22.8308 27.8154 22.7877 27.8175C22.7452 27.8161 22.7032 27.8266 22.6665 27.848C22.6297 27.8693 22.5997 27.9005 22.5798 27.938C22.5214 28.0772 22.4972 28.2282 22.5092 28.3787C22.5258 28.7548 22.6152 28.9419 22.796 28.9419H22.7877Z" fill="#EB1C24"/>
<path d="M24.7062 27.2608V27.5663H24.7187C24.7776 27.4557 24.8644 27.3624 24.9705 27.2957C25.0766 27.229 25.1982 27.1912 25.3235 27.186C25.3928 27.1828 25.462 27.1952 25.526 27.2222C25.59 27.2491 25.6472 27.29 25.6934 27.3418C25.7878 27.4593 25.8366 27.6069 25.8306 27.7575V29.4929H25.1219V28.115C25.1246 28.0487 25.1064 27.9833 25.0699 27.9279C25.0548 27.9054 25.0344 27.887 25.0105 27.8743C24.9865 27.8616 24.9598 27.855 24.9327 27.8552C24.7831 27.8552 24.7062 27.9508 24.7062 28.1399V29.4929H23.9996V27.2608H24.7062Z" fill="#EB1C24"/>
<path d="M25.9406 27.2599H26.6306L26.9111 28.4716H26.9215L27.2 27.2599H27.9025L27.2063 29.5004H26.6306L25.9406 27.2599Z" fill="#EB1C24"/>
<path d="M28.0253 26.5917C28.0245 26.5418 28.0339 26.4924 28.0529 26.4463C28.0718 26.4002 28.0999 26.3584 28.1354 26.3235C28.1693 26.2883 28.2099 26.2603 28.255 26.2413C28.3 26.2224 28.3485 26.2129 28.3973 26.2134C28.4713 26.2144 28.5434 26.237 28.6046 26.2785C28.6658 26.32 28.7136 26.3785 28.7419 26.4469C28.7702 26.5152 28.7779 26.5904 28.7639 26.663C28.7499 26.7357 28.715 26.8026 28.6633 26.8556C28.6292 26.8912 28.5882 26.9195 28.5429 26.9388C28.4975 26.9582 28.4487 26.9681 28.3994 26.9681C28.3501 26.9681 28.3013 26.9582 28.2559 26.9388C28.2106 26.9195 28.1696 26.8912 28.1354 26.8556C28.1002 26.8213 28.0723 26.7803 28.0533 26.7349C28.0344 26.6895 28.0249 26.6408 28.0253 26.5917ZM28.044 27.2609H28.7527V29.5013H28.044V27.2609Z" fill="#EB1C24"/>
<path d="M30.1642 28.8137H30.7627C30.6491 29.3208 30.3644 29.5744 29.9086 29.5744C29.7778 29.5792 29.6479 29.5522 29.5299 29.4957C29.4118 29.4393 29.3093 29.355 29.231 29.2502C29.051 28.9882 28.9633 28.6738 28.9816 28.3565C28.9666 28.0525 29.0544 27.7523 29.231 27.5044C29.3076 27.4022 29.4076 27.3198 29.5226 27.2641C29.6376 27.2084 29.7642 27.1811 29.8919 27.1843C30.0631 27.1864 30.2297 27.24 30.3699 27.3381C30.5203 27.4398 30.6363 27.5848 30.7025 27.7538C30.7876 28.0132 30.8276 28.2852 30.8209 28.5581H29.6384C29.6488 28.8886 29.7402 29.0527 29.9169 29.0527C29.9772 29.0531 30.0353 29.03 30.079 28.9883C30.1277 28.9425 30.158 28.8804 30.1642 28.8137ZM29.6509 28.1715H30.1642C30.1666 28.052 30.1447 27.9332 30.0998 27.8224C30.0834 27.7875 30.0571 27.7583 30.0242 27.7383C29.9913 27.7184 29.9533 27.7086 29.9148 27.7102C29.8731 27.7054 29.8309 27.7133 29.7938 27.733C29.7567 27.7527 29.7264 27.7831 29.707 27.8203C29.6615 27.9308 29.6423 28.0503 29.6509 28.1695V28.1715Z" fill="#EB1C24"/>
<path d="M31.745 27.2608V27.5663H31.7575C31.8161 27.4554 31.9028 27.3619 32.009 27.2952C32.1151 27.2284 32.237 27.1907 32.3623 27.186C32.4316 27.1828 32.5008 27.1952 32.5648 27.2222C32.6288 27.2491 32.686 27.29 32.7322 27.3418C32.8267 27.4593 32.8754 27.6069 32.8694 27.7575V29.4929H32.1607V28.115C32.1634 28.0487 32.1452 27.9833 32.1087 27.9279C32.0936 27.9054 32.0732 27.887 32.0493 27.8743C32.0253 27.8616 31.9986 27.855 31.9716 27.8552C31.8198 27.8552 31.745 27.9508 31.745 28.1399V29.4929H31.0384V27.2608H31.745Z" fill="#EB1C24"/>
<path d="M34.2395 28.8137H34.8381C34.7245 29.3208 34.4398 29.5744 33.9839 29.5744C33.8532 29.579 33.7233 29.552 33.6053 29.4955C33.4873 29.4391 33.3848 29.3549 33.3064 29.2502C33.1264 28.9882 33.0386 28.6738 33.057 28.3565C33.0419 28.0525 33.1298 27.7523 33.3064 27.5044C33.383 27.4022 33.483 27.3198 33.598 27.2641C33.7129 27.2084 33.8396 27.1811 33.9673 27.1843C34.1385 27.1864 34.305 27.24 34.4453 27.3381C34.5957 27.4403 34.7122 27.5851 34.7799 27.7538C34.8631 28.0136 34.9024 28.2854 34.8963 28.5581H33.7137C33.7241 28.8886 33.8176 29.0527 33.9922 29.0527C34.0526 29.0531 34.1107 29.03 34.1543 28.9883C34.2031 28.9425 34.2334 28.8804 34.2395 28.8137ZM33.7262 28.1715H34.2395C34.242 28.052 34.2201 27.9332 34.1751 27.8224C34.1588 27.7875 34.1325 27.7583 34.0996 27.7383C34.0667 27.7184 34.0286 27.7086 33.9901 27.7102C33.9484 27.7054 33.9062 27.7133 33.8691 27.733C33.8321 27.7527 33.8018 27.7831 33.7823 27.8203C33.7371 27.9308 33.7193 28.0506 33.7304 28.1695L33.7262 28.1715Z" fill="#EB1C24"/>
<path d="M35.1935 29.1772C35.1925 29.1236 35.2027 29.0704 35.2235 29.021C35.2442 28.9717 35.2751 28.9271 35.314 28.8904C35.3706 28.8347 35.4424 28.797 35.5204 28.782C35.5983 28.767 35.679 28.7753 35.7522 28.8059C35.8255 28.8366 35.888 28.8881 35.9321 28.9542C35.9762 29.0202 35.9997 29.0978 35.9999 29.1772C36.0013 29.2311 35.9919 29.2847 35.9722 29.335C35.9526 29.3852 35.9232 29.431 35.8856 29.4697C35.8481 29.5085 35.8032 29.5393 35.7536 29.5604C35.7039 29.5816 35.6506 29.5926 35.5967 29.5928C35.5436 29.5937 35.491 29.5836 35.442 29.5632C35.393 29.5429 35.3487 29.5126 35.312 29.4744C35.2726 29.4358 35.2417 29.3895 35.2213 29.3383C35.2009 29.2871 35.1914 29.2322 35.1935 29.1772ZM35.2392 26.2468H35.9479V28.5724H35.2392V26.2468Z" fill="#EB1C24"/>
</svg>
