<svg width="40" height="40" viewBox="0 0 40 40" fill="none" xmlns="http://www.w3.org/2000/svg">
<path d="M17.3697 26.7717H18.8101V13.0104L16.8803 13.6151V26.2751C16.8803 26.5488 17.0998 26.7717 17.3697 26.7717Z" fill="#203D5C"/>
<path d="M12.6323 22.0854L12.7986 21.983C13.491 21.5597 14.0202 20.9693 14.3712 20.2294C14.7489 19.4325 14.9279 18.5333 14.9184 17.4788L14.9152 16.5853L12.9706 17.1693L12.9459 17.9855C12.9237 18.2574 12.9019 18.5147 12.849 18.7641C12.6232 19.8257 12.0312 20.4659 11.0369 20.7224C10.4375 20.877 9.83044 20.8684 9.18775 20.8602L8.96013 20.857V13H7V26.7857H8.97246V22.6954L9.15428 22.6929C9.23673 22.6919 9.32023 22.6912 9.40268 22.6901C9.82057 22.6851 10.2469 22.6808 10.6694 22.65L10.7772 22.6425L10.8364 22.7341C11.3297 23.4948 11.8328 24.2609 12.3194 25.0019C12.6574 25.5165 12.9953 26.0317 13.3318 26.547C13.4424 26.717 13.589 26.7989 13.7803 26.7989H13.7937C14.0713 26.7932 14.3589 26.7943 14.6122 26.7953H14.6513C14.7436 26.7957 14.8356 26.796 14.9279 26.796L15.8123 26.7985L15.6629 26.5914L12.6323 22.0854Z" fill="#203D5C"/>
<path d="M31.3115 24.6387C30.3792 24.6387 29.6227 25.4066 29.6227 26.3538C29.6227 26.5201 29.6467 26.6801 29.6904 26.8322H32.9327C32.976 26.6801 33 26.5201 33 26.3538C33.0004 25.4066 32.2446 24.6387 31.3115 24.6387Z" fill="#FFC857"/>
<path d="M22.5017 23.4562V18.4045L20.6152 18.8904V23.4562C20.6152 25.5426 22.0165 27 24.0217 27C24.8536 27 25.5097 26.7123 25.9135 26.4711L26.3909 26.1863V26.8358H28.2774V18.4159L26.3909 18.8782V23.128C26.3909 24.4985 25.632 25.3168 24.3614 25.3168C23.2663 25.3175 22.5017 24.5525 22.5017 23.4562Z" fill="#203D5C"/>
</svg>
