<svg width="40" height="40" viewBox="0 0 40 40" fill="none" xmlns="http://www.w3.org/2000/svg">
<rect x="10.8438" y="34.1562" width="28.3125" height="18.3125" rx="1.15625" transform="rotate(-90 10.8438 34.1562)" fill="#203D5C" stroke="#203D5C" stroke-width="1.6875"/>
<path d="M10 28H30" stroke="#AFB9C4" stroke-width="2"/>
<path d="M10 11H30" stroke="#AFB9C4" stroke-width="2"/>
<path d="M19 8H21" stroke="#AFB9C4" stroke-width="2" stroke-linecap="round" stroke-linejoin="round"/>
<path d="M19.5 31.5H20.5" stroke="#AFB9C4" stroke-width="2" stroke-linecap="round" stroke-linejoin="round"/>
<path d="M23 20.9553C23 21.4723 22.8211 21.9128 22.4633 22.2766C22.1115 22.634 21.5987 22.8511 20.9249 22.9277V24H20.1914V22.9372C19.7501 22.9053 19.3327 22.8191 18.9392 22.6787C18.5456 22.5383 18.2326 22.3596 18 22.1426L18.4025 21.1755C18.6231 21.367 18.8915 21.5298 19.2075 21.6638C19.5236 21.7915 19.8515 21.8713 20.1914 21.9032V19.9883C19.768 19.8798 19.4132 19.7617 19.127 19.634C18.8468 19.5 18.6112 19.3085 18.4204 19.0596C18.2296 18.8043 18.1342 18.4691 18.1342 18.0543C18.1342 17.5372 18.3101 17.0968 18.6619 16.733C19.0137 16.3691 19.5236 16.1521 20.1914 16.0819V15H20.9249V16.0628C21.2588 16.0819 21.5838 16.1426 21.8998 16.2447C22.2218 16.3468 22.5021 16.4809 22.7406 16.6468L22.3739 17.6138C21.9207 17.333 21.4377 17.1606 20.9249 17.0968V19.0309C21.3542 19.1394 21.709 19.2574 21.9893 19.3851C22.2755 19.5128 22.514 19.7043 22.7048 19.9596C22.9016 20.2085 23 20.5404 23 20.9553ZM19.288 17.9968C19.288 18.2074 19.3655 18.3766 19.5206 18.5043C19.6756 18.6319 19.8992 18.7404 20.1914 18.8298V17.1255C19.8873 17.1766 19.6607 17.2787 19.5116 17.4319C19.3626 17.5851 19.288 17.7734 19.288 17.9968ZM20.9249 21.884C21.2409 21.833 21.4735 21.734 21.6225 21.5872C21.7776 21.4404 21.8551 21.2585 21.8551 21.0415C21.8551 20.8245 21.7746 20.6521 21.6136 20.5245C21.4526 20.3904 21.223 20.2787 20.9249 20.1894V21.884Z" fill="#AFB9C4"/>
</svg>
