<svg width="40" height="40" viewBox="0 0 40 40" fill="none" xmlns="http://www.w3.org/2000/svg">
<path d="M8.61257 25.7641C9.885 25.7641 10.8976 25.406 11.6505 24.6896C12.4034 23.9733 12.7798 23.1428 12.7798 22.1983C12.7798 21.3705 12.4961 20.6462 11.9288 20.0253C11.3616 19.4045 10.5583 18.9986 9.51918 18.8075L8.00816 18.521C7.26591 18.383 6.89478 18.0222 6.89478 17.4385C6.89478 17.1095 7.03793 16.8256 7.32423 16.5868C7.61053 16.3481 7.98165 16.2287 8.43761 16.2287C9.04201 16.2287 9.49267 16.3772 9.78957 16.6744C10.0865 16.9715 10.2614 17.2952 10.3144 17.6455L12.573 17.0087C12.5094 16.6479 12.3901 16.3029 12.2151 15.974C12.0402 15.645 11.799 15.3266 11.4914 15.0188C11.1839 14.711 10.7677 14.4643 10.2429 14.2786C9.71799 14.0929 9.12154 14 8.45351 14C7.35074 14 6.40172 14.3449 5.60645 15.0347C4.81118 15.7246 4.41354 16.5895 4.41354 17.6295C4.41354 18.4679 4.68658 19.1843 5.23267 19.7786C5.77875 20.3729 6.52896 20.7603 7.48328 20.9407L9.02611 21.2272C9.40784 21.3015 9.70474 21.4368 9.91681 21.6332C10.1289 21.8295 10.2349 22.0709 10.2349 22.3575C10.2349 22.7077 10.0918 22.9916 9.80547 23.2091C9.51918 23.4267 9.13214 23.5355 8.64438 23.5355C7.91273 23.5355 7.35339 23.3524 6.96636 22.9863C6.57933 22.6201 6.3593 22.1558 6.30628 21.5934L4 22.1505C4.09543 23.0844 4.53283 23.9202 5.3122 24.6578C6.09156 25.3953 7.19168 25.7641 8.61257 25.7641ZM17.0106 25.5138V21.4559H18.7471C19.8942 21.4559 20.8262 21.1217 21.5431 20.4533C22.2601 19.7849 22.6185 18.915 22.6185 17.8434C22.6185 16.7931 22.2601 15.9285 21.5431 15.2495C20.8262 14.5705 19.8942 14.231 18.7471 14.231H14.4934V25.5138H17.0106ZM18.4841 19.2948H17.0156V16.4067H18.4841C18.9736 16.4067 19.3647 16.537 19.6573 16.7977C19.95 17.0583 20.0963 17.412 20.0963 17.8588C20.0963 18.2949 19.9473 18.6433 19.6493 18.9039C19.3514 19.1645 18.963 19.2948 18.4841 19.2948Z" fill="#333287"/>
<path d="M31.3406 25.5139V23.1268H26.6929V20.9626H30.8949V18.7506H26.6929V16.6022H31.3246V14.2311H24.1781V25.5139H31.3406Z" fill="#F18B1A"/>
<path d="M36 25.5139V14.2311H33.4585V25.5139H36Z" fill="#F18B1A"/>
<path d="M36 25.4818V19.8818H33.4585V25.4818H36Z" fill="#333287"/>
<path fill-rule="evenodd" clip-rule="evenodd" d="M34.72 18.576L36 19.856L34.72 21.136V20.304H33.44V19.408H34.72V18.576Z" fill="white"/>
</svg>
