<svg width="492" height="328" viewBox="0 0 492 328" fill="none" xmlns="http://www.w3.org/2000/svg">
<g filter="url(#filter0_d_1645_26506)">
<rect x="12" y="12" width="140" height="140" rx="6" fill="white"/>
<rect x="12.5" y="12.5" width="139" height="139" rx="5.5" stroke="#F2F2F2"/>
</g>
<path d="M42.1944 117.6H43.7544V124.68H48.1464V126H42.1944V117.6ZM52.0554 126.084C51.4074 126.084 50.8234 125.944 50.3034 125.664C49.7834 125.384 49.3754 124.996 49.0794 124.5C48.7914 123.996 48.6474 123.428 48.6474 122.796C48.6474 122.164 48.7914 121.6 49.0794 121.104C49.3754 120.608 49.7834 120.22 50.3034 119.94C50.8234 119.66 51.4074 119.52 52.0554 119.52C52.7114 119.52 53.2994 119.66 53.8194 119.94C54.3394 120.22 54.7434 120.608 55.0314 121.104C55.3274 121.6 55.4754 122.164 55.4754 122.796C55.4754 123.428 55.3274 123.996 55.0314 124.5C54.7434 124.996 54.3394 125.384 53.8194 125.664C53.2994 125.944 52.7114 126.084 52.0554 126.084ZM52.0554 124.8C52.6074 124.8 53.0634 124.616 53.4234 124.248C53.7834 123.88 53.9634 123.396 53.9634 122.796C53.9634 122.196 53.7834 121.712 53.4234 121.344C53.0634 120.976 52.6074 120.792 52.0554 120.792C51.5034 120.792 51.0474 120.976 50.6874 121.344C50.3354 121.712 50.1594 122.196 50.1594 122.796C50.1594 123.396 50.3354 123.88 50.6874 124.248C51.0474 124.616 51.5034 124.8 52.0554 124.8ZM58.3378 120.528C58.7698 119.856 59.5298 119.52 60.6178 119.52V120.948C60.4898 120.924 60.3738 120.912 60.2698 120.912C59.6858 120.912 59.2298 121.084 58.9018 121.428C58.5738 121.764 58.4098 122.252 58.4098 122.892V126H56.9098V119.592H58.3378V120.528ZM67.8557 122.832C67.8557 122.936 67.8477 123.084 67.8317 123.276H62.8037C62.8917 123.748 63.1197 124.124 63.4877 124.404C63.8637 124.676 64.3277 124.812 64.8797 124.812C65.5837 124.812 66.1637 124.58 66.6197 124.116L67.4237 125.04C67.1357 125.384 66.7717 125.644 66.3317 125.82C65.8917 125.996 65.3957 126.084 64.8437 126.084C64.1397 126.084 63.5197 125.944 62.9837 125.664C62.4477 125.384 62.0317 124.996 61.7357 124.5C61.4477 123.996 61.3037 123.428 61.3037 122.796C61.3037 122.172 61.4437 121.612 61.7237 121.116C62.0117 120.612 62.4077 120.22 62.9117 119.94C63.4157 119.66 63.9837 119.52 64.6157 119.52C65.2397 119.52 65.7957 119.66 66.2837 119.94C66.7797 120.212 67.1637 120.6 67.4357 121.104C67.7157 121.6 67.8557 122.176 67.8557 122.832ZM64.6157 120.72C64.1357 120.72 63.7277 120.864 63.3917 121.152C63.0637 121.432 62.8637 121.808 62.7917 122.28H66.4277C66.3637 121.816 66.1677 121.44 65.8397 121.152C65.5117 120.864 65.1037 120.72 64.6157 120.72ZM77.3845 119.52C78.1925 119.52 78.8325 119.756 79.3045 120.228C79.7765 120.692 80.0125 121.392 80.0125 122.328V126H78.5125V122.52C78.5125 121.96 78.3885 121.54 78.1405 121.26C77.8925 120.972 77.5365 120.828 77.0725 120.828C76.5685 120.828 76.1645 120.996 75.8605 121.332C75.5565 121.66 75.4045 122.132 75.4045 122.748V126H73.9045V122.52C73.9045 121.96 73.7805 121.54 73.5325 121.26C73.2845 120.972 72.9285 120.828 72.4645 120.828C71.9525 120.828 71.5445 120.992 71.2405 121.32C70.9445 121.648 70.7965 122.124 70.7965 122.748V126H69.2965V119.592H70.7245V120.408C70.9645 120.12 71.2645 119.9 71.6245 119.748C71.9845 119.596 72.3845 119.52 72.8245 119.52C73.3045 119.52 73.7285 119.612 74.0965 119.796C74.4725 119.972 74.7685 120.236 74.9845 120.588C75.2485 120.252 75.5885 119.992 76.0045 119.808C76.4205 119.616 76.8805 119.52 77.3845 119.52ZM85.2457 119.592H86.7457V126H85.2457V119.592ZM86.0017 118.536C85.7297 118.536 85.5017 118.452 85.3177 118.284C85.1337 118.108 85.0417 117.892 85.0417 117.636C85.0417 117.38 85.1337 117.168 85.3177 117C85.5017 116.824 85.7297 116.736 86.0017 116.736C86.2737 116.736 86.5017 116.82 86.6857 116.988C86.8697 117.148 86.9617 117.352 86.9617 117.6C86.9617 117.864 86.8697 118.088 86.6857 118.272C86.5097 118.448 86.2817 118.536 86.0017 118.536ZM92.2665 119.52C92.8905 119.52 93.4465 119.656 93.9345 119.928C94.4305 120.2 94.8185 120.584 95.0985 121.08C95.3785 121.576 95.5185 122.148 95.5185 122.796C95.5185 123.444 95.3785 124.02 95.0985 124.524C94.8185 125.02 94.4305 125.404 93.9345 125.676C93.4465 125.948 92.8905 126.084 92.2665 126.084C91.4025 126.084 90.7185 125.796 90.2145 125.22V128.328H88.7145V119.592H90.1425V120.432C90.3905 120.128 90.6945 119.9 91.0545 119.748C91.4225 119.596 91.8265 119.52 92.2665 119.52ZM92.0985 124.8C92.6505 124.8 93.1025 124.616 93.4545 124.248C93.8145 123.88 93.9945 123.396 93.9945 122.796C93.9945 122.196 93.8145 121.712 93.4545 121.344C93.1025 120.976 92.6505 120.792 92.0985 120.792C91.7385 120.792 91.4145 120.876 91.1265 121.044C90.8385 121.204 90.6105 121.436 90.4425 121.74C90.2745 122.044 90.1905 122.396 90.1905 122.796C90.1905 123.196 90.2745 123.548 90.4425 123.852C90.6105 124.156 90.8385 124.392 91.1265 124.56C91.4145 124.72 91.7385 124.8 92.0985 124.8ZM98.921 126.084C98.401 126.084 97.893 126.016 97.397 125.88C96.901 125.744 96.505 125.572 96.209 125.364L96.785 124.224C97.073 124.416 97.417 124.572 97.817 124.692C98.225 124.804 98.625 124.86 99.017 124.86C99.913 124.86 100.361 124.624 100.361 124.152C100.361 123.928 100.245 123.772 100.013 123.684C99.789 123.596 99.425 123.512 98.921 123.432C98.393 123.352 97.961 123.26 97.625 123.156C97.297 123.052 97.009 122.872 96.761 122.616C96.521 122.352 96.401 121.988 96.401 121.524C96.401 120.916 96.653 120.432 97.157 120.072C97.669 119.704 98.357 119.52 99.221 119.52C99.661 119.52 100.101 119.572 100.541 119.676C100.981 119.772 101.341 119.904 101.621 120.072L101.045 121.212C100.501 120.892 99.889 120.732 99.209 120.732C98.769 120.732 98.433 120.8 98.201 120.936C97.977 121.064 97.865 121.236 97.865 121.452C97.865 121.692 97.985 121.864 98.225 121.968C98.473 122.064 98.853 122.156 99.365 122.244C99.877 122.324 100.297 122.416 100.625 122.52C100.953 122.624 101.233 122.8 101.465 123.048C101.705 123.296 101.825 123.648 101.825 124.104C101.825 124.704 101.565 125.184 101.045 125.544C100.525 125.904 99.817 126.084 98.921 126.084ZM109.321 119.592V126H107.893V125.184C107.653 125.472 107.353 125.696 106.993 125.856C106.633 126.008 106.245 126.084 105.829 126.084C104.973 126.084 104.297 125.848 103.801 125.376C103.313 124.896 103.069 124.188 103.069 123.252V119.592H104.569V123.048C104.569 123.624 104.697 124.056 104.953 124.344C105.217 124.624 105.589 124.764 106.069 124.764C106.605 124.764 107.029 124.6 107.341 124.272C107.661 123.936 107.821 123.456 107.821 122.832V119.592H109.321ZM119.373 119.52C120.181 119.52 120.821 119.756 121.293 120.228C121.765 120.692 122.001 121.392 122.001 122.328V126H120.501V122.52C120.501 121.96 120.377 121.54 120.129 121.26C119.881 120.972 119.525 120.828 119.061 120.828C118.557 120.828 118.153 120.996 117.849 121.332C117.545 121.66 117.393 122.132 117.393 122.748V126H115.893V122.52C115.893 121.96 115.769 121.54 115.521 121.26C115.273 120.972 114.917 120.828 114.453 120.828C113.941 120.828 113.533 120.992 113.229 121.32C112.933 121.648 112.785 122.124 112.785 122.748V126H111.285V119.592H112.713V120.408C112.953 120.12 113.253 119.9 113.613 119.748C113.973 119.596 114.373 119.52 114.813 119.52C115.293 119.52 115.717 119.612 116.085 119.796C116.461 119.972 116.757 120.236 116.973 120.588C117.237 120.252 117.577 119.992 117.993 119.808C118.409 119.616 118.869 119.52 119.373 119.52Z" fill="#203D5C"/>
<rect x="49.75" y="51.75" width="58.5" height="38.5" rx="2.25" fill="#AFB9C4" stroke="#203D5C" stroke-width="1.5"/>
<rect x="49.75" y="59.75" width="58.5" height="6.5" fill="#FFC857" stroke="#203D5C" stroke-width="1.5"/>
<mask id="path-6-inside-1_1645_26506" fill="white">
<rect x="54" y="80" width="14" height="5" rx="1"/>
</mask>
<rect x="54" y="80" width="14" height="5" rx="1" fill="#FFC857" stroke="#203D5C" stroke-width="3" mask="url(#path-6-inside-1_1645_26506)"/>
<mask id="path-7-inside-2_1645_26506" fill="white">
<rect x="54" y="73" width="22" height="5" rx="1"/>
</mask>
<rect x="54" y="73" width="22" height="5" rx="1" fill="#FFC857" stroke="#203D5C" stroke-width="3" mask="url(#path-7-inside-2_1645_26506)"/>
<mask id="path-8-inside-3_1645_26506" fill="white">
<rect x="70" y="80" width="6" height="5" rx="1"/>
</mask>
<rect x="70" y="80" width="6" height="5" rx="1" fill="#FFC857" stroke="#203D5C" stroke-width="3" mask="url(#path-8-inside-3_1645_26506)"/>
<circle cx="95" cy="81" r="3.25" fill="#FFC857" stroke="#203D5C" stroke-width="1.5"/>
<circle cx="99" cy="81" r="3.25" fill="#FFC857" stroke="#203D5C" stroke-width="1.5"/>
<mask id="path-11-inside-4_1645_26506" fill="white">
<path fill-rule="evenodd" clip-rule="evenodd" d="M97.9231 74V75.0026V80.7248H102.308V75.0026H106.692V80.7248H111.077V75.0026L111.077 75.0026V74C111.077 72.3431 109.734 71 108.077 71H100.923C99.2662 71 97.9231 72.3431 97.9231 74Z"/>
</mask>
<path fill-rule="evenodd" clip-rule="evenodd" d="M97.9231 74V75.0026V80.7248H102.308V75.0026H106.692V80.7248H111.077V75.0026L111.077 75.0026V74C111.077 72.3431 109.734 71 108.077 71H100.923C99.2662 71 97.9231 72.3431 97.9231 74Z" fill="#FFC857"/>
<path d="M97.9231 80.7248H96.4231V82.2248H97.9231V80.7248ZM102.308 80.7248V82.2248H103.808V80.7248H102.308ZM102.308 75.0026V73.5026H100.808V75.0026H102.308ZM106.692 75.0026H108.192V73.5026H106.692V75.0026ZM106.692 80.7248H105.192V82.2248H106.692V80.7248ZM111.077 80.7248V82.2248H112.577V80.7248H111.077ZM111.077 75.0026H112.577V73.4745L111.049 73.5028L111.077 75.0026ZM111.077 75.0026H109.577V76.5306L111.105 76.5023L111.077 75.0026ZM99.4231 75.0026V74H96.4231V75.0026H99.4231ZM96.4231 75.0026V80.7248H99.4231V75.0026H96.4231ZM97.9231 82.2248H102.308V79.2248H97.9231V82.2248ZM103.808 80.7248V75.0026H100.808V80.7248H103.808ZM106.692 73.5026H102.308V76.5026H106.692V73.5026ZM105.192 75.0026V80.7248H108.192V75.0026H105.192ZM106.692 82.2248H111.077V79.2248H106.692V82.2248ZM112.577 80.7248V75.0026H109.577V80.7248H112.577ZM111.049 73.5028L111.049 73.5028L111.105 76.5023L111.105 76.5023L111.049 73.5028ZM109.577 74V75.0026H112.577V74H109.577ZM108.077 72.5C108.905 72.5 109.577 73.1716 109.577 74H112.577C112.577 71.5147 110.562 69.5 108.077 69.5V72.5ZM100.923 72.5H108.077V69.5H100.923V72.5ZM99.4231 74C99.4231 73.1716 100.095 72.5 100.923 72.5V69.5C98.4378 69.5 96.4231 71.5147 96.4231 74H99.4231Z" fill="#203D5C" mask="url(#path-11-inside-4_1645_26506)"/>
<rect x="95.75" y="78.1345" width="17.5" height="16.0385" rx="2.25" fill="#AFB9C4" stroke="#203D5C" stroke-width="1.5"/>
<mask id="path-14-inside-5_1645_26506" fill="white">
<path fill-rule="evenodd" clip-rule="evenodd" d="M105.962 86.7734C105.962 86.4889 106.093 86.2251 106.262 85.9966C106.533 85.6321 106.692 85.1809 106.692 84.6923C106.692 83.4815 105.711 82.5 104.5 82.5C103.289 82.5 102.308 83.4815 102.308 84.6923C102.308 85.1809 102.468 85.6322 102.738 85.9967C102.907 86.2252 103.039 86.489 103.039 86.7734V88.3462C103.039 89.1533 103.693 89.8077 104.5 89.8077C105.307 89.8077 105.962 89.1533 105.962 88.3462V86.7734Z"/>
</mask>
<path fill-rule="evenodd" clip-rule="evenodd" d="M105.962 86.7734C105.962 86.4889 106.093 86.2251 106.262 85.9966C106.533 85.6321 106.692 85.1809 106.692 84.6923C106.692 83.4815 105.711 82.5 104.5 82.5C103.289 82.5 102.308 83.4815 102.308 84.6923C102.308 85.1809 102.468 85.6322 102.738 85.9967C102.907 86.2252 103.039 86.489 103.039 86.7734V88.3462C103.039 89.1533 103.693 89.8077 104.5 89.8077C105.307 89.8077 105.962 89.1533 105.962 88.3462V86.7734Z" fill="#FFC857"/>
<path d="M102.738 85.9967L101.935 86.5922L102.738 85.9967ZM105.692 84.6923C105.692 84.9592 105.606 85.203 105.459 85.4011L107.066 86.5922C107.459 86.0613 107.692 85.4026 107.692 84.6923H105.692ZM104.5 83.5C105.159 83.5 105.692 84.0338 105.692 84.6923H107.692C107.692 82.9292 106.263 81.5 104.5 81.5V83.5ZM103.308 84.6923C103.308 84.0338 103.842 83.5 104.5 83.5V81.5C102.737 81.5 101.308 82.9292 101.308 84.6923H103.308ZM103.541 85.4011C103.394 85.203 103.308 84.9592 103.308 84.6923H101.308C101.308 85.4026 101.541 86.0613 101.935 86.5922L103.541 85.4011ZM104.039 88.3462V86.7734H102.039V88.3462H104.039ZM104.5 88.8077C104.245 88.8077 104.039 88.6011 104.039 88.3462H102.039C102.039 89.7056 103.141 90.8077 104.5 90.8077V88.8077ZM104.962 88.3462C104.962 88.6011 104.755 88.8077 104.5 88.8077V90.8077C105.86 90.8077 106.962 89.7056 106.962 88.3462H104.962ZM104.962 86.7734V88.3462H106.962V86.7734H104.962ZM101.935 86.5922C101.985 86.6603 102.013 86.7122 102.028 86.7475C102.042 86.7808 102.039 86.7872 102.039 86.7734H104.039C104.039 86.1817 103.769 85.7084 103.541 85.4011L101.935 86.5922ZM105.459 85.4011C105.231 85.7084 104.962 86.1817 104.962 86.7734H106.962C106.962 86.7871 106.958 86.7807 106.972 86.7474C106.987 86.7122 107.015 86.6603 107.066 86.5922L105.459 85.4011Z" fill="#203D5C" mask="url(#path-14-inside-5_1645_26506)"/>
<g filter="url(#filter1_d_1645_26506)">
<rect x="176" y="12" width="140" height="140" rx="6" fill="white"/>
<rect x="176.5" y="12.5" width="139" height="139" rx="5.5" stroke="#F2F2F2"/>
</g>
<path d="M206.194 117.6H207.754V124.68H212.146V126H206.194V117.6ZM216.055 126.084C215.407 126.084 214.823 125.944 214.303 125.664C213.783 125.384 213.375 124.996 213.079 124.5C212.791 123.996 212.647 123.428 212.647 122.796C212.647 122.164 212.791 121.6 213.079 121.104C213.375 120.608 213.783 120.22 214.303 119.94C214.823 119.66 215.407 119.52 216.055 119.52C216.711 119.52 217.299 119.66 217.819 119.94C218.339 120.22 218.743 120.608 219.031 121.104C219.327 121.6 219.475 122.164 219.475 122.796C219.475 123.428 219.327 123.996 219.031 124.5C218.743 124.996 218.339 125.384 217.819 125.664C217.299 125.944 216.711 126.084 216.055 126.084ZM216.055 124.8C216.607 124.8 217.063 124.616 217.423 124.248C217.783 123.88 217.963 123.396 217.963 122.796C217.963 122.196 217.783 121.712 217.423 121.344C217.063 120.976 216.607 120.792 216.055 120.792C215.503 120.792 215.047 120.976 214.687 121.344C214.335 121.712 214.159 122.196 214.159 122.796C214.159 123.396 214.335 123.88 214.687 124.248C215.047 124.616 215.503 124.8 216.055 124.8ZM222.338 120.528C222.77 119.856 223.53 119.52 224.618 119.52V120.948C224.49 120.924 224.374 120.912 224.27 120.912C223.686 120.912 223.23 121.084 222.902 121.428C222.574 121.764 222.41 122.252 222.41 122.892V126H220.91V119.592H222.338V120.528ZM231.856 122.832C231.856 122.936 231.848 123.084 231.832 123.276H226.804C226.892 123.748 227.12 124.124 227.488 124.404C227.864 124.676 228.328 124.812 228.88 124.812C229.584 124.812 230.164 124.58 230.62 124.116L231.424 125.04C231.136 125.384 230.772 125.644 230.332 125.82C229.892 125.996 229.396 126.084 228.844 126.084C228.14 126.084 227.52 125.944 226.984 125.664C226.448 125.384 226.032 124.996 225.736 124.5C225.448 123.996 225.304 123.428 225.304 122.796C225.304 122.172 225.444 121.612 225.724 121.116C226.012 120.612 226.408 120.22 226.912 119.94C227.416 119.66 227.984 119.52 228.616 119.52C229.24 119.52 229.796 119.66 230.284 119.94C230.78 120.212 231.164 120.6 231.436 121.104C231.716 121.6 231.856 122.176 231.856 122.832ZM228.616 120.72C228.136 120.72 227.728 120.864 227.392 121.152C227.064 121.432 226.864 121.808 226.792 122.28H230.428C230.364 121.816 230.168 121.44 229.84 121.152C229.512 120.864 229.104 120.72 228.616 120.72ZM241.385 119.52C242.193 119.52 242.833 119.756 243.305 120.228C243.777 120.692 244.013 121.392 244.013 122.328V126H242.513V122.52C242.513 121.96 242.389 121.54 242.141 121.26C241.893 120.972 241.537 120.828 241.073 120.828C240.569 120.828 240.165 120.996 239.861 121.332C239.557 121.66 239.405 122.132 239.405 122.748V126H237.905V122.52C237.905 121.96 237.781 121.54 237.533 121.26C237.285 120.972 236.929 120.828 236.465 120.828C235.953 120.828 235.545 120.992 235.241 121.32C234.945 121.648 234.797 122.124 234.797 122.748V126H233.297V119.592H234.725V120.408C234.965 120.12 235.265 119.9 235.625 119.748C235.985 119.596 236.385 119.52 236.825 119.52C237.305 119.52 237.729 119.612 238.097 119.796C238.473 119.972 238.769 120.236 238.985 120.588C239.249 120.252 239.589 119.992 240.005 119.808C240.421 119.616 240.881 119.52 241.385 119.52ZM249.246 119.592H250.746V126H249.246V119.592ZM250.002 118.536C249.73 118.536 249.502 118.452 249.318 118.284C249.134 118.108 249.042 117.892 249.042 117.636C249.042 117.38 249.134 117.168 249.318 117C249.502 116.824 249.73 116.736 250.002 116.736C250.274 116.736 250.502 116.82 250.686 116.988C250.87 117.148 250.962 117.352 250.962 117.6C250.962 117.864 250.87 118.088 250.686 118.272C250.51 118.448 250.282 118.536 250.002 118.536ZM256.266 119.52C256.89 119.52 257.446 119.656 257.934 119.928C258.43 120.2 258.818 120.584 259.098 121.08C259.378 121.576 259.518 122.148 259.518 122.796C259.518 123.444 259.378 124.02 259.098 124.524C258.818 125.02 258.43 125.404 257.934 125.676C257.446 125.948 256.89 126.084 256.266 126.084C255.402 126.084 254.718 125.796 254.214 125.22V128.328H252.714V119.592H254.142V120.432C254.39 120.128 254.694 119.9 255.054 119.748C255.422 119.596 255.826 119.52 256.266 119.52ZM256.098 124.8C256.65 124.8 257.102 124.616 257.454 124.248C257.814 123.88 257.994 123.396 257.994 122.796C257.994 122.196 257.814 121.712 257.454 121.344C257.102 120.976 256.65 120.792 256.098 120.792C255.738 120.792 255.414 120.876 255.126 121.044C254.838 121.204 254.61 121.436 254.442 121.74C254.274 122.044 254.19 122.396 254.19 122.796C254.19 123.196 254.274 123.548 254.442 123.852C254.61 124.156 254.838 124.392 255.126 124.56C255.414 124.72 255.738 124.8 256.098 124.8ZM262.921 126.084C262.401 126.084 261.893 126.016 261.397 125.88C260.901 125.744 260.505 125.572 260.209 125.364L260.785 124.224C261.073 124.416 261.417 124.572 261.817 124.692C262.225 124.804 262.625 124.86 263.017 124.86C263.913 124.86 264.361 124.624 264.361 124.152C264.361 123.928 264.245 123.772 264.013 123.684C263.789 123.596 263.425 123.512 262.921 123.432C262.393 123.352 261.961 123.26 261.625 123.156C261.297 123.052 261.009 122.872 260.761 122.616C260.521 122.352 260.401 121.988 260.401 121.524C260.401 120.916 260.653 120.432 261.157 120.072C261.669 119.704 262.357 119.52 263.221 119.52C263.661 119.52 264.101 119.572 264.541 119.676C264.981 119.772 265.341 119.904 265.621 120.072L265.045 121.212C264.501 120.892 263.889 120.732 263.209 120.732C262.769 120.732 262.433 120.8 262.201 120.936C261.977 121.064 261.865 121.236 261.865 121.452C261.865 121.692 261.985 121.864 262.225 121.968C262.473 122.064 262.853 122.156 263.365 122.244C263.877 122.324 264.297 122.416 264.625 122.52C264.953 122.624 265.233 122.8 265.465 123.048C265.705 123.296 265.825 123.648 265.825 124.104C265.825 124.704 265.565 125.184 265.045 125.544C264.525 125.904 263.817 126.084 262.921 126.084ZM273.321 119.592V126H271.893V125.184C271.653 125.472 271.353 125.696 270.993 125.856C270.633 126.008 270.245 126.084 269.829 126.084C268.973 126.084 268.297 125.848 267.801 125.376C267.313 124.896 267.069 124.188 267.069 123.252V119.592H268.569V123.048C268.569 123.624 268.697 124.056 268.953 124.344C269.217 124.624 269.589 124.764 270.069 124.764C270.605 124.764 271.029 124.6 271.341 124.272C271.661 123.936 271.821 123.456 271.821 122.832V119.592H273.321ZM283.373 119.52C284.181 119.52 284.821 119.756 285.293 120.228C285.765 120.692 286.001 121.392 286.001 122.328V126H284.501V122.52C284.501 121.96 284.377 121.54 284.129 121.26C283.881 120.972 283.525 120.828 283.061 120.828C282.557 120.828 282.153 120.996 281.849 121.332C281.545 121.66 281.393 122.132 281.393 122.748V126H279.893V122.52C279.893 121.96 279.769 121.54 279.521 121.26C279.273 120.972 278.917 120.828 278.453 120.828C277.941 120.828 277.533 120.992 277.229 121.32C276.933 121.648 276.785 122.124 276.785 122.748V126H275.285V119.592H276.713V120.408C276.953 120.12 277.253 119.9 277.613 119.748C277.973 119.596 278.373 119.52 278.813 119.52C279.293 119.52 279.717 119.612 280.085 119.796C280.461 119.972 280.757 120.236 280.973 120.588C281.237 120.252 281.577 119.992 281.993 119.808C282.409 119.616 282.869 119.52 283.373 119.52Z" fill="#203D5C"/>
<path fill-rule="evenodd" clip-rule="evenodd" d="M227.379 94.1305L233.167 94.1382C238.532 96.807 241.856 98.3254 243.139 98.6934C244.422 99.0615 245.587 99.063 246.632 98.698L266.198 87.9522C267.096 86.856 267.24 85.8179 266.629 84.8381C266.019 83.8583 265.118 83.5069 263.926 83.7839L251.862 89.5575C252.445 88.9391 252.707 88.1956 252.647 87.3271C252.593 85.8128 251.312 85.0854 248.803 85.1449L240.317 85.1337L235.523 83.1122L227.326 83.1013L227.379 94.1305Z" fill="#AFB9C4" stroke="#203D5C" stroke-width="1.5" stroke-linecap="round" stroke-linejoin="round"/>
<path d="M226.961 81.0078L221.329 81.0004C221.147 81.0002 221.001 81.144 221.002 81.3216L221.077 97.357C221.078 97.5347 221.226 97.6789 221.408 97.6791L227.039 97.6865C227.221 97.6867 227.368 97.5429 227.367 97.3653L227.291 81.3298C227.29 81.1522 227.142 81.008 226.961 81.0078Z" fill="#FFC857" stroke="#203D5C" stroke-width="1.5"/>
<path d="M240.874 89.5156L251.699 89.5156" stroke="#203D5C" stroke-width="1.5" stroke-linecap="round" stroke-linejoin="round"/>
<circle cx="247" cy="62" r="14.25" fill="#AFB9C4" stroke="#203D5C" stroke-width="1.5"/>
<circle cx="247" cy="62.0001" r="9.83823" fill="#FFC857" stroke="#203D5C" stroke-width="1.5"/>
<path d="M250.53 63.6332C250.53 64.249 250.287 64.7784 249.802 65.2215C249.317 65.657 248.617 65.9273 247.704 66.0325V67.294H246.491V66.0663C245.892 66.0362 245.322 65.9386 244.781 65.7734C244.239 65.6082 243.802 65.4054 243.471 65.1651L244.138 63.7909C244.445 64.0012 244.805 64.1776 245.217 64.3203C245.63 64.463 246.054 64.5531 246.491 64.5907V62.7096C245.917 62.5819 245.431 62.4392 245.035 62.2815C244.639 62.1238 244.308 61.8948 244.041 61.5944C243.774 61.2865 243.641 60.881 243.641 60.3779C243.641 59.7546 243.883 59.2215 244.368 58.7784C244.861 58.3278 245.569 58.0537 246.491 57.9561V56.7058H247.704V57.9336C248.698 58.0087 249.519 58.2377 250.166 58.6207L249.559 60.0062C248.953 59.6833 248.334 59.488 247.704 59.4205V61.3353C248.27 61.4555 248.747 61.5944 249.135 61.7521C249.531 61.9023 249.862 62.1313 250.129 62.4392C250.396 62.7396 250.53 63.1376 250.53 63.6332ZM245.593 60.2878C245.593 60.4755 245.67 60.6295 245.824 60.7496C245.977 60.8698 246.2 60.9711 246.491 61.0537V59.4542C246.183 59.5218 245.957 59.6307 245.812 59.7809C245.666 59.9236 245.593 60.0925 245.593 60.2878ZM247.704 64.5456C247.995 64.4855 248.213 64.3879 248.359 64.2527C248.504 64.1176 248.577 63.9561 248.577 63.7684C248.577 63.5807 248.5 63.4267 248.346 63.3066C248.201 63.1864 247.987 63.0813 247.704 62.9912V64.5456Z" fill="#203D5C"/>
<g filter="url(#filter2_d_1645_26506)">
<rect x="340" y="176" width="140" height="140" rx="6" fill="white"/>
<rect x="340.5" y="176.5" width="139" height="139" rx="5.5" stroke="#F2F2F2"/>
</g>
<path d="M370.194 281.6H371.754V288.68H376.146V290H370.194V281.6ZM380.055 290.084C379.407 290.084 378.823 289.944 378.303 289.664C377.783 289.384 377.375 288.996 377.079 288.5C376.791 287.996 376.647 287.428 376.647 286.796C376.647 286.164 376.791 285.6 377.079 285.104C377.375 284.608 377.783 284.22 378.303 283.94C378.823 283.66 379.407 283.52 380.055 283.52C380.711 283.52 381.299 283.66 381.819 283.94C382.339 284.22 382.743 284.608 383.031 285.104C383.327 285.6 383.475 286.164 383.475 286.796C383.475 287.428 383.327 287.996 383.031 288.5C382.743 288.996 382.339 289.384 381.819 289.664C381.299 289.944 380.711 290.084 380.055 290.084ZM380.055 288.8C380.607 288.8 381.063 288.616 381.423 288.248C381.783 287.88 381.963 287.396 381.963 286.796C381.963 286.196 381.783 285.712 381.423 285.344C381.063 284.976 380.607 284.792 380.055 284.792C379.503 284.792 379.047 284.976 378.687 285.344C378.335 285.712 378.159 286.196 378.159 286.796C378.159 287.396 378.335 287.88 378.687 288.248C379.047 288.616 379.503 288.8 380.055 288.8ZM386.338 284.528C386.77 283.856 387.53 283.52 388.618 283.52V284.948C388.49 284.924 388.374 284.912 388.27 284.912C387.686 284.912 387.23 285.084 386.902 285.428C386.574 285.764 386.41 286.252 386.41 286.892V290H384.91V283.592H386.338V284.528ZM395.856 286.832C395.856 286.936 395.848 287.084 395.832 287.276H390.804C390.892 287.748 391.12 288.124 391.488 288.404C391.864 288.676 392.328 288.812 392.88 288.812C393.584 288.812 394.164 288.58 394.62 288.116L395.424 289.04C395.136 289.384 394.772 289.644 394.332 289.82C393.892 289.996 393.396 290.084 392.844 290.084C392.14 290.084 391.52 289.944 390.984 289.664C390.448 289.384 390.032 288.996 389.736 288.5C389.448 287.996 389.304 287.428 389.304 286.796C389.304 286.172 389.444 285.612 389.724 285.116C390.012 284.612 390.408 284.22 390.912 283.94C391.416 283.66 391.984 283.52 392.616 283.52C393.24 283.52 393.796 283.66 394.284 283.94C394.78 284.212 395.164 284.6 395.436 285.104C395.716 285.6 395.856 286.176 395.856 286.832ZM392.616 284.72C392.136 284.72 391.728 284.864 391.392 285.152C391.064 285.432 390.864 285.808 390.792 286.28H394.428C394.364 285.816 394.168 285.44 393.84 285.152C393.512 284.864 393.104 284.72 392.616 284.72ZM405.385 283.52C406.193 283.52 406.833 283.756 407.305 284.228C407.777 284.692 408.013 285.392 408.013 286.328V290H406.513V286.52C406.513 285.96 406.389 285.54 406.141 285.26C405.893 284.972 405.537 284.828 405.073 284.828C404.569 284.828 404.165 284.996 403.861 285.332C403.557 285.66 403.405 286.132 403.405 286.748V290H401.905V286.52C401.905 285.96 401.781 285.54 401.533 285.26C401.285 284.972 400.929 284.828 400.465 284.828C399.953 284.828 399.545 284.992 399.241 285.32C398.945 285.648 398.797 286.124 398.797 286.748V290H397.297V283.592H398.725V284.408C398.965 284.12 399.265 283.9 399.625 283.748C399.985 283.596 400.385 283.52 400.825 283.52C401.305 283.52 401.729 283.612 402.097 283.796C402.473 283.972 402.769 284.236 402.985 284.588C403.249 284.252 403.589 283.992 404.005 283.808C404.421 283.616 404.881 283.52 405.385 283.52ZM413.246 283.592H414.746V290H413.246V283.592ZM414.002 282.536C413.73 282.536 413.502 282.452 413.318 282.284C413.134 282.108 413.042 281.892 413.042 281.636C413.042 281.38 413.134 281.168 413.318 281C413.502 280.824 413.73 280.736 414.002 280.736C414.274 280.736 414.502 280.82 414.686 280.988C414.87 281.148 414.962 281.352 414.962 281.6C414.962 281.864 414.87 282.088 414.686 282.272C414.51 282.448 414.282 282.536 414.002 282.536ZM420.266 283.52C420.89 283.52 421.446 283.656 421.934 283.928C422.43 284.2 422.818 284.584 423.098 285.08C423.378 285.576 423.518 286.148 423.518 286.796C423.518 287.444 423.378 288.02 423.098 288.524C422.818 289.02 422.43 289.404 421.934 289.676C421.446 289.948 420.89 290.084 420.266 290.084C419.402 290.084 418.718 289.796 418.214 289.22V292.328H416.714V283.592H418.142V284.432C418.39 284.128 418.694 283.9 419.054 283.748C419.422 283.596 419.826 283.52 420.266 283.52ZM420.098 288.8C420.65 288.8 421.102 288.616 421.454 288.248C421.814 287.88 421.994 287.396 421.994 286.796C421.994 286.196 421.814 285.712 421.454 285.344C421.102 284.976 420.65 284.792 420.098 284.792C419.738 284.792 419.414 284.876 419.126 285.044C418.838 285.204 418.61 285.436 418.442 285.74C418.274 286.044 418.19 286.396 418.19 286.796C418.19 287.196 418.274 287.548 418.442 287.852C418.61 288.156 418.838 288.392 419.126 288.56C419.414 288.72 419.738 288.8 420.098 288.8ZM426.921 290.084C426.401 290.084 425.893 290.016 425.397 289.88C424.901 289.744 424.505 289.572 424.209 289.364L424.785 288.224C425.073 288.416 425.417 288.572 425.817 288.692C426.225 288.804 426.625 288.86 427.017 288.86C427.913 288.86 428.361 288.624 428.361 288.152C428.361 287.928 428.245 287.772 428.013 287.684C427.789 287.596 427.425 287.512 426.921 287.432C426.393 287.352 425.961 287.26 425.625 287.156C425.297 287.052 425.009 286.872 424.761 286.616C424.521 286.352 424.401 285.988 424.401 285.524C424.401 284.916 424.653 284.432 425.157 284.072C425.669 283.704 426.357 283.52 427.221 283.52C427.661 283.52 428.101 283.572 428.541 283.676C428.981 283.772 429.341 283.904 429.621 284.072L429.045 285.212C428.501 284.892 427.889 284.732 427.209 284.732C426.769 284.732 426.433 284.8 426.201 284.936C425.977 285.064 425.865 285.236 425.865 285.452C425.865 285.692 425.985 285.864 426.225 285.968C426.473 286.064 426.853 286.156 427.365 286.244C427.877 286.324 428.297 286.416 428.625 286.52C428.953 286.624 429.233 286.8 429.465 287.048C429.705 287.296 429.825 287.648 429.825 288.104C429.825 288.704 429.565 289.184 429.045 289.544C428.525 289.904 427.817 290.084 426.921 290.084ZM437.321 283.592V290H435.893V289.184C435.653 289.472 435.353 289.696 434.993 289.856C434.633 290.008 434.245 290.084 433.829 290.084C432.973 290.084 432.297 289.848 431.801 289.376C431.313 288.896 431.069 288.188 431.069 287.252V283.592H432.569V287.048C432.569 287.624 432.697 288.056 432.953 288.344C433.217 288.624 433.589 288.764 434.069 288.764C434.605 288.764 435.029 288.6 435.341 288.272C435.661 287.936 435.821 287.456 435.821 286.832V283.592H437.321ZM447.373 283.52C448.181 283.52 448.821 283.756 449.293 284.228C449.765 284.692 450.001 285.392 450.001 286.328V290H448.501V286.52C448.501 285.96 448.377 285.54 448.129 285.26C447.881 284.972 447.525 284.828 447.061 284.828C446.557 284.828 446.153 284.996 445.849 285.332C445.545 285.66 445.393 286.132 445.393 286.748V290H443.893V286.52C443.893 285.96 443.769 285.54 443.521 285.26C443.273 284.972 442.917 284.828 442.453 284.828C441.941 284.828 441.533 284.992 441.229 285.32C440.933 285.648 440.785 286.124 440.785 286.748V290H439.285V283.592H440.713V284.408C440.953 284.12 441.253 283.9 441.613 283.748C441.973 283.596 442.373 283.52 442.813 283.52C443.293 283.52 443.717 283.612 444.085 283.796C444.461 283.972 444.757 284.236 444.973 284.588C445.237 284.252 445.577 283.992 445.993 283.808C446.409 283.616 446.869 283.52 447.373 283.52Z" fill="#203D5C"/>
<path fill-rule="evenodd" clip-rule="evenodd" d="M391.379 258.131L397.167 258.138C402.532 260.807 405.856 262.325 407.139 262.693C408.422 263.061 409.587 263.063 410.632 262.698L430.198 251.952C431.096 250.856 431.24 249.818 430.629 248.838C430.019 247.858 429.118 247.507 427.926 247.784L415.862 253.558C416.445 252.939 416.707 252.196 416.647 251.327C416.593 249.813 415.312 249.085 412.803 249.145L404.317 249.134L399.523 247.112L391.326 247.101L391.379 258.131Z" fill="#AFB9C4" stroke="#203D5C" stroke-width="1.5" stroke-linecap="round" stroke-linejoin="round"/>
<path d="M390.961 245.008L385.329 245C385.147 245 385.001 245.144 385.002 245.322L385.077 261.357C385.078 261.535 385.226 261.679 385.408 261.679L391.039 261.686C391.221 261.687 391.368 261.543 391.367 261.365L391.291 245.33C391.29 245.152 391.142 245.008 390.961 245.008Z" fill="#FFC857" stroke="#203D5C" stroke-width="1.5"/>
<path d="M404.874 253.516L415.699 253.516" stroke="#203D5C" stroke-width="1.5" stroke-linecap="round" stroke-linejoin="round"/>
<circle cx="411" cy="226" r="14.25" fill="#AFB9C4" stroke="#203D5C" stroke-width="1.5"/>
<circle cx="411" cy="226" r="9.83823" fill="#FFC857" stroke="#203D5C" stroke-width="1.5"/>
<path d="M414.53 227.633C414.53 228.249 414.287 228.778 413.802 229.221C413.317 229.657 412.617 229.927 411.704 230.032V231.294H410.491V230.066C409.892 230.036 409.322 229.939 408.781 229.773C408.239 229.608 407.802 229.405 407.471 229.165L408.138 227.791C408.445 228.001 408.805 228.178 409.217 228.32C409.63 228.463 410.054 228.553 410.491 228.591V226.71C409.917 226.582 409.431 226.439 409.035 226.282C408.639 226.124 408.308 225.895 408.041 225.594C407.774 225.287 407.641 224.881 407.641 224.378C407.641 223.755 407.883 223.221 408.368 222.778C408.861 222.328 409.569 222.054 410.491 221.956V220.706H411.704V221.934C412.698 222.009 413.519 222.238 414.166 222.621L413.559 224.006C412.953 223.683 412.334 223.488 411.704 223.42V225.335C412.27 225.455 412.747 225.594 413.135 225.752C413.531 225.902 413.862 226.131 414.129 226.439C414.396 226.74 414.53 227.138 414.53 227.633ZM409.593 224.288C409.593 224.476 409.67 224.629 409.824 224.75C409.977 224.87 410.2 224.971 410.491 225.054V223.454C410.183 223.522 409.957 223.631 409.812 223.781C409.666 223.924 409.593 224.093 409.593 224.288ZM411.704 228.546C411.995 228.486 412.213 228.388 412.359 228.253C412.504 228.118 412.577 227.956 412.577 227.768C412.577 227.581 412.5 227.427 412.346 227.307C412.201 227.186 411.987 227.081 411.704 226.991V228.546Z" fill="#203D5C"/>
<g filter="url(#filter3_d_1645_26506)">
<rect x="340" y="12" width="140" height="140" rx="6" fill="white"/>
<rect x="340.5" y="12.5" width="139" height="139" rx="5.5" stroke="#F2F2F2"/>
</g>
<path d="M370.194 117.6H371.754V124.68H376.146V126H370.194V117.6ZM380.055 126.084C379.407 126.084 378.823 125.944 378.303 125.664C377.783 125.384 377.375 124.996 377.079 124.5C376.791 123.996 376.647 123.428 376.647 122.796C376.647 122.164 376.791 121.6 377.079 121.104C377.375 120.608 377.783 120.22 378.303 119.94C378.823 119.66 379.407 119.52 380.055 119.52C380.711 119.52 381.299 119.66 381.819 119.94C382.339 120.22 382.743 120.608 383.031 121.104C383.327 121.6 383.475 122.164 383.475 122.796C383.475 123.428 383.327 123.996 383.031 124.5C382.743 124.996 382.339 125.384 381.819 125.664C381.299 125.944 380.711 126.084 380.055 126.084ZM380.055 124.8C380.607 124.8 381.063 124.616 381.423 124.248C381.783 123.88 381.963 123.396 381.963 122.796C381.963 122.196 381.783 121.712 381.423 121.344C381.063 120.976 380.607 120.792 380.055 120.792C379.503 120.792 379.047 120.976 378.687 121.344C378.335 121.712 378.159 122.196 378.159 122.796C378.159 123.396 378.335 123.88 378.687 124.248C379.047 124.616 379.503 124.8 380.055 124.8ZM386.338 120.528C386.77 119.856 387.53 119.52 388.618 119.52V120.948C388.49 120.924 388.374 120.912 388.27 120.912C387.686 120.912 387.23 121.084 386.902 121.428C386.574 121.764 386.41 122.252 386.41 122.892V126H384.91V119.592H386.338V120.528ZM395.856 122.832C395.856 122.936 395.848 123.084 395.832 123.276H390.804C390.892 123.748 391.12 124.124 391.488 124.404C391.864 124.676 392.328 124.812 392.88 124.812C393.584 124.812 394.164 124.58 394.62 124.116L395.424 125.04C395.136 125.384 394.772 125.644 394.332 125.82C393.892 125.996 393.396 126.084 392.844 126.084C392.14 126.084 391.52 125.944 390.984 125.664C390.448 125.384 390.032 124.996 389.736 124.5C389.448 123.996 389.304 123.428 389.304 122.796C389.304 122.172 389.444 121.612 389.724 121.116C390.012 120.612 390.408 120.22 390.912 119.94C391.416 119.66 391.984 119.52 392.616 119.52C393.24 119.52 393.796 119.66 394.284 119.94C394.78 120.212 395.164 120.6 395.436 121.104C395.716 121.6 395.856 122.176 395.856 122.832ZM392.616 120.72C392.136 120.72 391.728 120.864 391.392 121.152C391.064 121.432 390.864 121.808 390.792 122.28H394.428C394.364 121.816 394.168 121.44 393.84 121.152C393.512 120.864 393.104 120.72 392.616 120.72ZM405.385 119.52C406.193 119.52 406.833 119.756 407.305 120.228C407.777 120.692 408.013 121.392 408.013 122.328V126H406.513V122.52C406.513 121.96 406.389 121.54 406.141 121.26C405.893 120.972 405.537 120.828 405.073 120.828C404.569 120.828 404.165 120.996 403.861 121.332C403.557 121.66 403.405 122.132 403.405 122.748V126H401.905V122.52C401.905 121.96 401.781 121.54 401.533 121.26C401.285 120.972 400.929 120.828 400.465 120.828C399.953 120.828 399.545 120.992 399.241 121.32C398.945 121.648 398.797 122.124 398.797 122.748V126H397.297V119.592H398.725V120.408C398.965 120.12 399.265 119.9 399.625 119.748C399.985 119.596 400.385 119.52 400.825 119.52C401.305 119.52 401.729 119.612 402.097 119.796C402.473 119.972 402.769 120.236 402.985 120.588C403.249 120.252 403.589 119.992 404.005 119.808C404.421 119.616 404.881 119.52 405.385 119.52ZM413.246 119.592H414.746V126H413.246V119.592ZM414.002 118.536C413.73 118.536 413.502 118.452 413.318 118.284C413.134 118.108 413.042 117.892 413.042 117.636C413.042 117.38 413.134 117.168 413.318 117C413.502 116.824 413.73 116.736 414.002 116.736C414.274 116.736 414.502 116.82 414.686 116.988C414.87 117.148 414.962 117.352 414.962 117.6C414.962 117.864 414.87 118.088 414.686 118.272C414.51 118.448 414.282 118.536 414.002 118.536ZM420.266 119.52C420.89 119.52 421.446 119.656 421.934 119.928C422.43 120.2 422.818 120.584 423.098 121.08C423.378 121.576 423.518 122.148 423.518 122.796C423.518 123.444 423.378 124.02 423.098 124.524C422.818 125.02 422.43 125.404 421.934 125.676C421.446 125.948 420.89 126.084 420.266 126.084C419.402 126.084 418.718 125.796 418.214 125.22V128.328H416.714V119.592H418.142V120.432C418.39 120.128 418.694 119.9 419.054 119.748C419.422 119.596 419.826 119.52 420.266 119.52ZM420.098 124.8C420.65 124.8 421.102 124.616 421.454 124.248C421.814 123.88 421.994 123.396 421.994 122.796C421.994 122.196 421.814 121.712 421.454 121.344C421.102 120.976 420.65 120.792 420.098 120.792C419.738 120.792 419.414 120.876 419.126 121.044C418.838 121.204 418.61 121.436 418.442 121.74C418.274 122.044 418.19 122.396 418.19 122.796C418.19 123.196 418.274 123.548 418.442 123.852C418.61 124.156 418.838 124.392 419.126 124.56C419.414 124.72 419.738 124.8 420.098 124.8ZM426.921 126.084C426.401 126.084 425.893 126.016 425.397 125.88C424.901 125.744 424.505 125.572 424.209 125.364L424.785 124.224C425.073 124.416 425.417 124.572 425.817 124.692C426.225 124.804 426.625 124.86 427.017 124.86C427.913 124.86 428.361 124.624 428.361 124.152C428.361 123.928 428.245 123.772 428.013 123.684C427.789 123.596 427.425 123.512 426.921 123.432C426.393 123.352 425.961 123.26 425.625 123.156C425.297 123.052 425.009 122.872 424.761 122.616C424.521 122.352 424.401 121.988 424.401 121.524C424.401 120.916 424.653 120.432 425.157 120.072C425.669 119.704 426.357 119.52 427.221 119.52C427.661 119.52 428.101 119.572 428.541 119.676C428.981 119.772 429.341 119.904 429.621 120.072L429.045 121.212C428.501 120.892 427.889 120.732 427.209 120.732C426.769 120.732 426.433 120.8 426.201 120.936C425.977 121.064 425.865 121.236 425.865 121.452C425.865 121.692 425.985 121.864 426.225 121.968C426.473 122.064 426.853 122.156 427.365 122.244C427.877 122.324 428.297 122.416 428.625 122.52C428.953 122.624 429.233 122.8 429.465 123.048C429.705 123.296 429.825 123.648 429.825 124.104C429.825 124.704 429.565 125.184 429.045 125.544C428.525 125.904 427.817 126.084 426.921 126.084ZM437.321 119.592V126H435.893V125.184C435.653 125.472 435.353 125.696 434.993 125.856C434.633 126.008 434.245 126.084 433.829 126.084C432.973 126.084 432.297 125.848 431.801 125.376C431.313 124.896 431.069 124.188 431.069 123.252V119.592H432.569V123.048C432.569 123.624 432.697 124.056 432.953 124.344C433.217 124.624 433.589 124.764 434.069 124.764C434.605 124.764 435.029 124.6 435.341 124.272C435.661 123.936 435.821 123.456 435.821 122.832V119.592H437.321ZM447.373 119.52C448.181 119.52 448.821 119.756 449.293 120.228C449.765 120.692 450.001 121.392 450.001 122.328V126H448.501V122.52C448.501 121.96 448.377 121.54 448.129 121.26C447.881 120.972 447.525 120.828 447.061 120.828C446.557 120.828 446.153 120.996 445.849 121.332C445.545 121.66 445.393 122.132 445.393 122.748V126H443.893V122.52C443.893 121.96 443.769 121.54 443.521 121.26C443.273 120.972 442.917 120.828 442.453 120.828C441.941 120.828 441.533 120.992 441.229 121.32C440.933 121.648 440.785 122.124 440.785 122.748V126H439.285V119.592H440.713V120.408C440.953 120.12 441.253 119.9 441.613 119.748C441.973 119.596 442.373 119.52 442.813 119.52C443.293 119.52 443.717 119.612 444.085 119.796C444.461 119.972 444.757 120.236 444.973 120.588C445.237 120.252 445.577 119.992 445.993 119.808C446.409 119.616 446.869 119.52 447.373 119.52Z" fill="#203D5C"/>
<rect x="382.75" y="52.75" width="48.5" height="31.8333" rx="2.25" fill="#AFB9C4" stroke="#203D5C" stroke-width="1.5"/>
<path d="M382.75 78C382.75 77.8619 382.862 77.75 383 77.75H386.333C388.128 77.75 389.583 79.2051 389.583 81V84.3333C389.583 84.4714 389.471 84.5833 389.333 84.5833H385C383.757 84.5833 382.75 83.576 382.75 82.3333V78Z" fill="#FFC857" stroke="#203D5C" stroke-width="1.5"/>
<path d="M389.333 52.75C389.471 52.75 389.583 52.8619 389.583 53V56.3333C389.583 58.1283 388.128 59.5833 386.333 59.5833H383C382.862 59.5833 382.75 59.4714 382.75 59.3333V55C382.75 53.7574 383.757 52.75 385 52.75H389.333Z" fill="#FFC857" stroke="#203D5C" stroke-width="1.5"/>
<path d="M431.25 59.3333C431.25 59.4713 431.138 59.5833 431 59.5833H427.667C425.872 59.5833 424.417 58.1282 424.417 56.3333V52.9999C424.417 52.8618 424.529 52.7499 424.667 52.7499H429C430.243 52.7499 431.25 53.7573 431.25 54.9999V59.3333Z" fill="#FFC857" stroke="#203D5C" stroke-width="1.5"/>
<path d="M424.667 84.5833C424.529 84.5833 424.417 84.4713 424.417 84.3333V80.9999C424.417 79.205 425.872 77.7499 427.667 77.7499H431C431.138 77.7499 431.25 77.8618 431.25 77.9999V82.3333C431.25 83.5759 430.243 84.5833 429 84.5833H424.667Z" fill="#FFC857" stroke="#203D5C" stroke-width="1.5"/>
<mask id="path-42-inside-6_1645_26506" fill="white">
<rect x="382" y="65.3333" width="18.3333" height="6.66667" rx="1"/>
</mask>
<rect x="382" y="65.3333" width="18.3333" height="6.66667" rx="1" fill="#FFC857" stroke="#203D5C" stroke-width="3" mask="url(#path-42-inside-6_1645_26506)"/>
<mask id="path-43-inside-7_1645_26506" fill="white">
<rect x="413.667" y="65.3333" width="18.3333" height="6.66667" rx="1"/>
</mask>
<rect x="413.667" y="65.3333" width="18.3333" height="6.66667" rx="1" fill="#FFC857" stroke="#203D5C" stroke-width="3" mask="url(#path-43-inside-7_1645_26506)"/>
<circle cx="407" cy="67.8333" r="7.58333" fill="#FFC857" stroke="#203D5C" stroke-width="1.5"/>
<path d="M409.767 69.1166C409.767 69.6632 409.567 70.1332 409.167 70.5266C408.767 70.9132 408.19 71.1532 407.437 71.2466V72.3666H406.437V71.2766C405.943 71.2499 405.473 71.1632 405.027 71.0166C404.58 70.8699 404.22 70.6899 403.947 70.4766L404.497 69.2566C404.75 69.4432 405.047 69.5999 405.387 69.7266C405.727 69.8532 406.077 69.9332 406.437 69.9666V68.2966C405.963 68.1832 405.563 68.0566 405.237 67.9166C404.91 67.7766 404.637 67.5732 404.417 67.3066C404.197 67.0332 404.087 66.6732 404.087 66.2266C404.087 65.6732 404.287 65.1999 404.687 64.8066C405.093 64.4066 405.677 64.1632 406.437 64.0766V62.9666H407.437V64.0566C408.257 64.1232 408.933 64.3266 409.467 64.6666L408.967 65.8966C408.467 65.6099 407.957 65.4366 407.437 65.3766V67.0766C407.903 67.1832 408.297 67.3066 408.617 67.4466C408.943 67.5799 409.217 67.7832 409.437 68.0566C409.657 68.3232 409.767 68.6766 409.767 69.1166ZM405.697 66.1466C405.697 66.3132 405.76 66.4499 405.887 66.5566C406.013 66.6632 406.197 66.7532 406.437 66.8266V65.4066C406.183 65.4666 405.997 65.5632 405.877 65.6966C405.757 65.8232 405.697 65.9732 405.697 66.1466ZM407.437 69.9266C407.677 69.8732 407.857 69.7866 407.977 69.6666C408.097 69.5466 408.157 69.4032 408.157 69.2366C408.157 69.0699 408.093 68.9332 407.967 68.8266C407.847 68.7199 407.67 68.6266 407.437 68.5466V69.9266Z" fill="#203D5C"/>
<rect x="385.75" y="56.75" width="48.5" height="31.8333" rx="2.25" fill="#AFB9C4" stroke="#203D5C" stroke-width="1.5"/>
<path d="M385.75 82C385.75 81.8619 385.862 81.75 386 81.75H389.333C391.128 81.75 392.583 83.2051 392.583 85V88.3333C392.583 88.4714 392.471 88.5833 392.333 88.5833H388C386.757 88.5833 385.75 87.576 385.75 86.3333V82Z" fill="#FFC857" stroke="#203D5C" stroke-width="1.5"/>
<path d="M392.333 56.75C392.471 56.75 392.583 56.8619 392.583 57V60.3333C392.583 62.1283 391.128 63.5833 389.333 63.5833H386C385.862 63.5833 385.75 63.4714 385.75 63.3333V59C385.75 57.7574 386.757 56.75 388 56.75H392.333Z" fill="#FFC857" stroke="#203D5C" stroke-width="1.5"/>
<path d="M434.25 63.3333C434.25 63.4713 434.138 63.5833 434 63.5833H430.667C428.872 63.5833 427.417 62.1282 427.417 60.3333V56.9999C427.417 56.8618 427.529 56.7499 427.667 56.7499H432C433.243 56.7499 434.25 57.7573 434.25 58.9999V63.3333Z" fill="#FFC857" stroke="#203D5C" stroke-width="1.5"/>
<path d="M427.667 88.5833C427.529 88.5833 427.417 88.4713 427.417 88.3333V84.9999C427.417 83.205 428.872 81.7499 430.667 81.7499H434C434.138 81.7499 434.25 81.8618 434.25 81.9999V86.3333C434.25 87.5759 433.243 88.5833 432 88.5833H427.667Z" fill="#FFC857" stroke="#203D5C" stroke-width="1.5"/>
<mask id="path-51-inside-8_1645_26506" fill="white">
<rect x="385" y="69.3333" width="18.3333" height="6.66667" rx="1"/>
</mask>
<rect x="385" y="69.3333" width="18.3333" height="6.66667" rx="1" fill="#FFC857" stroke="#203D5C" stroke-width="3" mask="url(#path-51-inside-8_1645_26506)"/>
<mask id="path-52-inside-9_1645_26506" fill="white">
<rect x="416.667" y="69.3333" width="18.3333" height="6.66667" rx="1"/>
</mask>
<rect x="416.667" y="69.3333" width="18.3333" height="6.66667" rx="1" fill="#FFC857" stroke="#203D5C" stroke-width="3" mask="url(#path-52-inside-9_1645_26506)"/>
<circle cx="410" cy="71.8333" r="7.58333" fill="#FFC857" stroke="#203D5C" stroke-width="1.5"/>
<path d="M412.767 73.1166C412.767 73.6632 412.567 74.1332 412.167 74.5266C411.767 74.9132 411.19 75.1532 410.437 75.2466V76.3666H409.437V75.2766C408.943 75.2499 408.473 75.1632 408.027 75.0166C407.58 74.8699 407.22 74.6899 406.947 74.4766L407.497 73.2566C407.75 73.4432 408.047 73.5999 408.387 73.7266C408.727 73.8532 409.077 73.9332 409.437 73.9666V72.2966C408.963 72.1832 408.563 72.0566 408.237 71.9166C407.91 71.7766 407.637 71.5732 407.417 71.3066C407.197 71.0332 407.087 70.6732 407.087 70.2266C407.087 69.6732 407.287 69.1999 407.687 68.8066C408.093 68.4066 408.677 68.1632 409.437 68.0766V66.9666H410.437V68.0566C411.257 68.1232 411.933 68.3266 412.467 68.6666L411.967 69.8966C411.467 69.6099 410.957 69.4366 410.437 69.3766V71.0766C410.903 71.1832 411.297 71.3066 411.617 71.4466C411.943 71.5799 412.217 71.7832 412.437 72.0566C412.657 72.3232 412.767 72.6766 412.767 73.1166ZM408.697 70.1466C408.697 70.3132 408.76 70.4499 408.887 70.5566C409.013 70.6632 409.197 70.7532 409.437 70.8266V69.4066C409.183 69.4666 408.997 69.5632 408.877 69.6966C408.757 69.8232 408.697 69.9732 408.697 70.1466ZM410.437 73.9266C410.677 73.8732 410.857 73.7866 410.977 73.6666C411.097 73.5466 411.157 73.4032 411.157 73.2366C411.157 73.0699 411.093 72.9332 410.967 72.8266C410.847 72.7199 410.67 72.6266 410.437 72.5466V73.9266Z" fill="#203D5C"/>
<rect x="388.75" y="60.75" width="48.5" height="31.8333" rx="2.25" fill="#AFB9C4" stroke="#203D5C" stroke-width="1.5"/>
<path d="M388.75 86C388.75 85.8619 388.862 85.75 389 85.75H392.333C394.128 85.75 395.583 87.2051 395.583 89V92.3333C395.583 92.4714 395.471 92.5833 395.333 92.5833H391C389.757 92.5833 388.75 91.576 388.75 90.3333V86Z" fill="#FFC857" stroke="#203D5C" stroke-width="1.5"/>
<path d="M395.333 60.75C395.471 60.75 395.583 60.8619 395.583 61V64.3333C395.583 66.1283 394.128 67.5833 392.333 67.5833H389C388.862 67.5833 388.75 67.4714 388.75 67.3333V63C388.75 61.7574 389.757 60.75 391 60.75H395.333Z" fill="#FFC857" stroke="#203D5C" stroke-width="1.5"/>
<path d="M437.25 67.3333C437.25 67.4713 437.138 67.5833 437 67.5833H433.667C431.872 67.5833 430.417 66.1282 430.417 64.3333V60.9999C430.417 60.8618 430.529 60.7499 430.667 60.7499H435C436.243 60.7499 437.25 61.7573 437.25 62.9999V67.3333Z" fill="#FFC857" stroke="#203D5C" stroke-width="1.5"/>
<path d="M430.667 92.5833C430.529 92.5833 430.417 92.4713 430.417 92.3333V88.9999C430.417 87.205 431.872 85.7499 433.667 85.7499H437C437.138 85.7499 437.25 85.8618 437.25 85.9999V90.3333C437.25 91.5759 436.243 92.5833 435 92.5833H430.667Z" fill="#FFC857" stroke="#203D5C" stroke-width="1.5"/>
<mask id="path-60-inside-10_1645_26506" fill="white">
<rect x="388" y="73.3333" width="18.3333" height="6.66667" rx="1"/>
</mask>
<rect x="388" y="73.3333" width="18.3333" height="6.66667" rx="1" fill="#FFC857" stroke="#203D5C" stroke-width="3" mask="url(#path-60-inside-10_1645_26506)"/>
<mask id="path-61-inside-11_1645_26506" fill="white">
<rect x="419.667" y="73.3333" width="18.3333" height="6.66667" rx="1"/>
</mask>
<rect x="419.667" y="73.3333" width="18.3333" height="6.66667" rx="1" fill="#FFC857" stroke="#203D5C" stroke-width="3" mask="url(#path-61-inside-11_1645_26506)"/>
<circle cx="413" cy="75.8333" r="7.58333" fill="#FFC857" stroke="#203D5C" stroke-width="1.5"/>
<path d="M415.767 77.1166C415.767 77.6632 415.567 78.1332 415.167 78.5266C414.767 78.9132 414.19 79.1532 413.437 79.2466V80.3666H412.437V79.2766C411.943 79.2499 411.473 79.1632 411.027 79.0166C410.58 78.8699 410.22 78.6899 409.947 78.4766L410.497 77.2566C410.75 77.4432 411.047 77.5999 411.387 77.7266C411.727 77.8532 412.077 77.9332 412.437 77.9666V76.2966C411.963 76.1832 411.563 76.0566 411.237 75.9166C410.91 75.7766 410.637 75.5732 410.417 75.3066C410.197 75.0332 410.087 74.6732 410.087 74.2266C410.087 73.6732 410.287 73.1999 410.687 72.8066C411.093 72.4066 411.677 72.1632 412.437 72.0766V70.9666H413.437V72.0566C414.257 72.1232 414.933 72.3266 415.467 72.6666L414.967 73.8966C414.467 73.6099 413.957 73.4366 413.437 73.3766V75.0766C413.903 75.1832 414.297 75.3066 414.617 75.4466C414.943 75.5799 415.217 75.7832 415.437 76.0566C415.657 76.3232 415.767 76.6766 415.767 77.1166ZM411.697 74.1466C411.697 74.3132 411.76 74.4499 411.887 74.5566C412.013 74.6632 412.197 74.7532 412.437 74.8266V73.4066C412.183 73.4666 411.997 73.5632 411.877 73.6966C411.757 73.8232 411.697 73.9732 411.697 74.1466ZM413.437 77.9266C413.677 77.8732 413.857 77.7866 413.977 77.6666C414.097 77.5466 414.157 77.4032 414.157 77.2366C414.157 77.0699 414.093 76.9332 413.967 76.8266C413.847 76.7199 413.67 76.6266 413.437 76.5466V77.9266Z" fill="#203D5C"/>
<g filter="url(#filter4_d_1645_26506)">
<rect x="12" y="176" width="140" height="140" rx="6" fill="white"/>
<rect x="12.5" y="176.5" width="139" height="139" rx="5.5" stroke="#F2F2F2"/>
</g>
<path d="M42.1944 281.6H43.7544V288.68H48.1464V290H42.1944V281.6ZM52.0554 290.084C51.4074 290.084 50.8234 289.944 50.3034 289.664C49.7834 289.384 49.3754 288.996 49.0794 288.5C48.7914 287.996 48.6474 287.428 48.6474 286.796C48.6474 286.164 48.7914 285.6 49.0794 285.104C49.3754 284.608 49.7834 284.22 50.3034 283.94C50.8234 283.66 51.4074 283.52 52.0554 283.52C52.7114 283.52 53.2994 283.66 53.8194 283.94C54.3394 284.22 54.7434 284.608 55.0314 285.104C55.3274 285.6 55.4754 286.164 55.4754 286.796C55.4754 287.428 55.3274 287.996 55.0314 288.5C54.7434 288.996 54.3394 289.384 53.8194 289.664C53.2994 289.944 52.7114 290.084 52.0554 290.084ZM52.0554 288.8C52.6074 288.8 53.0634 288.616 53.4234 288.248C53.7834 287.88 53.9634 287.396 53.9634 286.796C53.9634 286.196 53.7834 285.712 53.4234 285.344C53.0634 284.976 52.6074 284.792 52.0554 284.792C51.5034 284.792 51.0474 284.976 50.6874 285.344C50.3354 285.712 50.1594 286.196 50.1594 286.796C50.1594 287.396 50.3354 287.88 50.6874 288.248C51.0474 288.616 51.5034 288.8 52.0554 288.8ZM58.3378 284.528C58.7698 283.856 59.5298 283.52 60.6178 283.52V284.948C60.4898 284.924 60.3738 284.912 60.2698 284.912C59.6858 284.912 59.2298 285.084 58.9018 285.428C58.5738 285.764 58.4098 286.252 58.4098 286.892V290H56.9098V283.592H58.3378V284.528ZM67.8557 286.832C67.8557 286.936 67.8477 287.084 67.8317 287.276H62.8037C62.8917 287.748 63.1197 288.124 63.4877 288.404C63.8637 288.676 64.3277 288.812 64.8797 288.812C65.5837 288.812 66.1637 288.58 66.6197 288.116L67.4237 289.04C67.1357 289.384 66.7717 289.644 66.3317 289.82C65.8917 289.996 65.3957 290.084 64.8437 290.084C64.1397 290.084 63.5197 289.944 62.9837 289.664C62.4477 289.384 62.0317 288.996 61.7357 288.5C61.4477 287.996 61.3037 287.428 61.3037 286.796C61.3037 286.172 61.4437 285.612 61.7237 285.116C62.0117 284.612 62.4077 284.22 62.9117 283.94C63.4157 283.66 63.9837 283.52 64.6157 283.52C65.2397 283.52 65.7957 283.66 66.2837 283.94C66.7797 284.212 67.1637 284.6 67.4357 285.104C67.7157 285.6 67.8557 286.176 67.8557 286.832ZM64.6157 284.72C64.1357 284.72 63.7277 284.864 63.3917 285.152C63.0637 285.432 62.8637 285.808 62.7917 286.28H66.4277C66.3637 285.816 66.1677 285.44 65.8397 285.152C65.5117 284.864 65.1037 284.72 64.6157 284.72ZM77.3845 283.52C78.1925 283.52 78.8325 283.756 79.3045 284.228C79.7765 284.692 80.0125 285.392 80.0125 286.328V290H78.5125V286.52C78.5125 285.96 78.3885 285.54 78.1405 285.26C77.8925 284.972 77.5365 284.828 77.0725 284.828C76.5685 284.828 76.1645 284.996 75.8605 285.332C75.5565 285.66 75.4045 286.132 75.4045 286.748V290H73.9045V286.52C73.9045 285.96 73.7805 285.54 73.5325 285.26C73.2845 284.972 72.9285 284.828 72.4645 284.828C71.9525 284.828 71.5445 284.992 71.2405 285.32C70.9445 285.648 70.7965 286.124 70.7965 286.748V290H69.2965V283.592H70.7245V284.408C70.9645 284.12 71.2645 283.9 71.6245 283.748C71.9845 283.596 72.3845 283.52 72.8245 283.52C73.3045 283.52 73.7285 283.612 74.0965 283.796C74.4725 283.972 74.7685 284.236 74.9845 284.588C75.2485 284.252 75.5885 283.992 76.0045 283.808C76.4205 283.616 76.8805 283.52 77.3845 283.52ZM85.2457 283.592H86.7457V290H85.2457V283.592ZM86.0017 282.536C85.7297 282.536 85.5017 282.452 85.3177 282.284C85.1337 282.108 85.0417 281.892 85.0417 281.636C85.0417 281.38 85.1337 281.168 85.3177 281C85.5017 280.824 85.7297 280.736 86.0017 280.736C86.2737 280.736 86.5017 280.82 86.6857 280.988C86.8697 281.148 86.9617 281.352 86.9617 281.6C86.9617 281.864 86.8697 282.088 86.6857 282.272C86.5097 282.448 86.2817 282.536 86.0017 282.536ZM92.2665 283.52C92.8905 283.52 93.4465 283.656 93.9345 283.928C94.4305 284.2 94.8185 284.584 95.0985 285.08C95.3785 285.576 95.5185 286.148 95.5185 286.796C95.5185 287.444 95.3785 288.02 95.0985 288.524C94.8185 289.02 94.4305 289.404 93.9345 289.676C93.4465 289.948 92.8905 290.084 92.2665 290.084C91.4025 290.084 90.7185 289.796 90.2145 289.22V292.328H88.7145V283.592H90.1425V284.432C90.3905 284.128 90.6945 283.9 91.0545 283.748C91.4225 283.596 91.8265 283.52 92.2665 283.52ZM92.0985 288.8C92.6505 288.8 93.1025 288.616 93.4545 288.248C93.8145 287.88 93.9945 287.396 93.9945 286.796C93.9945 286.196 93.8145 285.712 93.4545 285.344C93.1025 284.976 92.6505 284.792 92.0985 284.792C91.7385 284.792 91.4145 284.876 91.1265 285.044C90.8385 285.204 90.6105 285.436 90.4425 285.74C90.2745 286.044 90.1905 286.396 90.1905 286.796C90.1905 287.196 90.2745 287.548 90.4425 287.852C90.6105 288.156 90.8385 288.392 91.1265 288.56C91.4145 288.72 91.7385 288.8 92.0985 288.8ZM98.921 290.084C98.401 290.084 97.893 290.016 97.397 289.88C96.901 289.744 96.505 289.572 96.209 289.364L96.785 288.224C97.073 288.416 97.417 288.572 97.817 288.692C98.225 288.804 98.625 288.86 99.017 288.86C99.913 288.86 100.361 288.624 100.361 288.152C100.361 287.928 100.245 287.772 100.013 287.684C99.789 287.596 99.425 287.512 98.921 287.432C98.393 287.352 97.961 287.26 97.625 287.156C97.297 287.052 97.009 286.872 96.761 286.616C96.521 286.352 96.401 285.988 96.401 285.524C96.401 284.916 96.653 284.432 97.157 284.072C97.669 283.704 98.357 283.52 99.221 283.52C99.661 283.52 100.101 283.572 100.541 283.676C100.981 283.772 101.341 283.904 101.621 284.072L101.045 285.212C100.501 284.892 99.889 284.732 99.209 284.732C98.769 284.732 98.433 284.8 98.201 284.936C97.977 285.064 97.865 285.236 97.865 285.452C97.865 285.692 97.985 285.864 98.225 285.968C98.473 286.064 98.853 286.156 99.365 286.244C99.877 286.324 100.297 286.416 100.625 286.52C100.953 286.624 101.233 286.8 101.465 287.048C101.705 287.296 101.825 287.648 101.825 288.104C101.825 288.704 101.565 289.184 101.045 289.544C100.525 289.904 99.817 290.084 98.921 290.084ZM109.321 283.592V290H107.893V289.184C107.653 289.472 107.353 289.696 106.993 289.856C106.633 290.008 106.245 290.084 105.829 290.084C104.973 290.084 104.297 289.848 103.801 289.376C103.313 288.896 103.069 288.188 103.069 287.252V283.592H104.569V287.048C104.569 287.624 104.697 288.056 104.953 288.344C105.217 288.624 105.589 288.764 106.069 288.764C106.605 288.764 107.029 288.6 107.341 288.272C107.661 287.936 107.821 287.456 107.821 286.832V283.592H109.321ZM119.373 283.52C120.181 283.52 120.821 283.756 121.293 284.228C121.765 284.692 122.001 285.392 122.001 286.328V290H120.501V286.52C120.501 285.96 120.377 285.54 120.129 285.26C119.881 284.972 119.525 284.828 119.061 284.828C118.557 284.828 118.153 284.996 117.849 285.332C117.545 285.66 117.393 286.132 117.393 286.748V290H115.893V286.52C115.893 285.96 115.769 285.54 115.521 285.26C115.273 284.972 114.917 284.828 114.453 284.828C113.941 284.828 113.533 284.992 113.229 285.32C112.933 285.648 112.785 286.124 112.785 286.748V290H111.285V283.592H112.713V284.408C112.953 284.12 113.253 283.9 113.613 283.748C113.973 283.596 114.373 283.52 114.813 283.52C115.293 283.52 115.717 283.612 116.085 283.796C116.461 283.972 116.757 284.236 116.973 284.588C117.237 284.252 117.577 283.992 117.993 283.808C118.409 283.616 118.869 283.52 119.373 283.52Z" fill="#203D5C"/>
<rect x="54.75" y="216.75" width="48.5" height="31.8333" rx="2.25" fill="#AFB9C4" stroke="#203D5C" stroke-width="1.5"/>
<path d="M54.75 242C54.75 241.862 54.8619 241.75 55 241.75H58.3333C60.1283 241.75 61.5833 243.205 61.5833 245V248.333C61.5833 248.471 61.4714 248.583 61.3333 248.583H57C55.7574 248.583 54.75 247.576 54.75 246.333V242Z" fill="#FFC857" stroke="#203D5C" stroke-width="1.5"/>
<path d="M61.3334 216.75C61.4714 216.75 61.5834 216.862 61.5834 217V220.333C61.5834 222.128 60.1283 223.583 58.3334 223.583H55C54.862 223.583 54.75 223.471 54.75 223.333V219C54.75 217.757 55.7574 216.75 57 216.75H61.3334Z" fill="#FFC857" stroke="#203D5C" stroke-width="1.5"/>
<path d="M103.25 223.333C103.25 223.471 103.138 223.583 103 223.583H99.6667C97.8717 223.583 96.4167 222.128 96.4167 220.333V217C96.4167 216.862 96.5286 216.75 96.6667 216.75H101C102.243 216.75 103.25 217.757 103.25 219V223.333Z" fill="#FFC857" stroke="#203D5C" stroke-width="1.5"/>
<path d="M96.6666 248.583C96.5286 248.583 96.4166 248.471 96.4166 248.333V245C96.4166 243.205 97.8717 241.75 99.6666 241.75H103C103.138 241.75 103.25 241.862 103.25 242V246.333C103.25 247.576 102.243 248.583 101 248.583H96.6666Z" fill="#FFC857" stroke="#203D5C" stroke-width="1.5"/>
<mask id="path-72-inside-12_1645_26506" fill="white">
<rect x="54" y="229.333" width="18.3333" height="6.66667" rx="1"/>
</mask>
<rect x="54" y="229.333" width="18.3333" height="6.66667" rx="1" fill="#FFC857" stroke="#203D5C" stroke-width="3" mask="url(#path-72-inside-12_1645_26506)"/>
<mask id="path-73-inside-13_1645_26506" fill="white">
<rect x="85.6666" y="229.333" width="18.3333" height="6.66667" rx="1"/>
</mask>
<rect x="85.6666" y="229.333" width="18.3333" height="6.66667" rx="1" fill="#FFC857" stroke="#203D5C" stroke-width="3" mask="url(#path-73-inside-13_1645_26506)"/>
<circle cx="79" cy="231.833" r="7.58333" fill="#FFC857" stroke="#203D5C" stroke-width="1.5"/>
<path d="M81.7667 233.117C81.7667 233.663 81.5667 234.133 81.1667 234.527C80.7667 234.913 80.19 235.153 79.4367 235.247V236.367H78.4367V235.277C77.9433 235.25 77.4733 235.163 77.0267 235.017C76.58 234.87 76.22 234.69 75.9467 234.477L76.4967 233.257C76.75 233.443 77.0467 233.6 77.3867 233.727C77.7267 233.853 78.0767 233.933 78.4367 233.967V232.297C77.9633 232.183 77.5633 232.057 77.2367 231.917C76.91 231.777 76.6367 231.573 76.4167 231.307C76.1967 231.033 76.0867 230.673 76.0867 230.227C76.0867 229.673 76.2867 229.2 76.6867 228.807C77.0933 228.407 77.6767 228.163 78.4367 228.077V226.967H79.4367V228.057C80.2567 228.123 80.9333 228.327 81.4667 228.667L80.9667 229.897C80.4667 229.61 79.9567 229.437 79.4367 229.377V231.077C79.9033 231.183 80.2967 231.307 80.6167 231.447C80.9433 231.58 81.2167 231.783 81.4367 232.057C81.6567 232.323 81.7667 232.677 81.7667 233.117ZM77.6967 230.147C77.6967 230.313 77.76 230.45 77.8867 230.557C78.0133 230.663 78.1967 230.753 78.4367 230.827V229.407C78.1833 229.467 77.9967 229.563 77.8767 229.697C77.7567 229.823 77.6967 229.973 77.6967 230.147ZM79.4367 233.927C79.6767 233.873 79.8567 233.787 79.9767 233.667C80.0967 233.547 80.1567 233.403 80.1567 233.237C80.1567 233.07 80.0933 232.933 79.9667 232.827C79.8467 232.72 79.67 232.627 79.4367 232.547V233.927Z" fill="#203D5C"/>
<rect x="57.75" y="220.75" width="48.5" height="31.8333" rx="2.25" fill="#AFB9C4" stroke="#203D5C" stroke-width="1.5"/>
<path d="M57.75 246C57.75 245.862 57.8619 245.75 58 245.75H61.3333C63.1283 245.75 64.5833 247.205 64.5833 249V252.333C64.5833 252.471 64.4714 252.583 64.3333 252.583H60C58.7574 252.583 57.75 251.576 57.75 250.333V246Z" fill="#FFC857" stroke="#203D5C" stroke-width="1.5"/>
<path d="M64.3334 220.75C64.4714 220.75 64.5834 220.862 64.5834 221V224.333C64.5834 226.128 63.1283 227.583 61.3334 227.583H58C57.862 227.583 57.75 227.471 57.75 227.333V223C57.75 221.757 58.7574 220.75 60 220.75H64.3334Z" fill="#FFC857" stroke="#203D5C" stroke-width="1.5"/>
<path d="M106.25 227.333C106.25 227.471 106.138 227.583 106 227.583H102.667C100.872 227.583 99.4167 226.128 99.4167 224.333V221C99.4167 220.862 99.5286 220.75 99.6667 220.75H104C105.243 220.75 106.25 221.757 106.25 223V227.333Z" fill="#FFC857" stroke="#203D5C" stroke-width="1.5"/>
<path d="M99.6666 252.583C99.5286 252.583 99.4166 252.471 99.4166 252.333V249C99.4166 247.205 100.872 245.75 102.667 245.75H106C106.138 245.75 106.25 245.862 106.25 246V250.333C106.25 251.576 105.243 252.583 104 252.583H99.6666Z" fill="#FFC857" stroke="#203D5C" stroke-width="1.5"/>
<mask id="path-81-inside-14_1645_26506" fill="white">
<rect x="57" y="233.333" width="18.3333" height="6.66667" rx="1"/>
</mask>
<rect x="57" y="233.333" width="18.3333" height="6.66667" rx="1" fill="#FFC857" stroke="#203D5C" stroke-width="3" mask="url(#path-81-inside-14_1645_26506)"/>
<mask id="path-82-inside-15_1645_26506" fill="white">
<rect x="88.6666" y="233.333" width="18.3333" height="6.66667" rx="1"/>
</mask>
<rect x="88.6666" y="233.333" width="18.3333" height="6.66667" rx="1" fill="#FFC857" stroke="#203D5C" stroke-width="3" mask="url(#path-82-inside-15_1645_26506)"/>
<circle cx="82" cy="235.833" r="7.58333" fill="#FFC857" stroke="#203D5C" stroke-width="1.5"/>
<path d="M84.7667 237.117C84.7667 237.663 84.5667 238.133 84.1667 238.527C83.7667 238.913 83.19 239.153 82.4367 239.247V240.367H81.4367V239.277C80.9433 239.25 80.4733 239.163 80.0267 239.017C79.58 238.87 79.22 238.69 78.9467 238.477L79.4967 237.257C79.75 237.443 80.0467 237.6 80.3867 237.727C80.7267 237.853 81.0767 237.933 81.4367 237.967V236.297C80.9633 236.183 80.5633 236.057 80.2367 235.917C79.91 235.777 79.6367 235.573 79.4167 235.307C79.1967 235.033 79.0867 234.673 79.0867 234.227C79.0867 233.673 79.2867 233.2 79.6867 232.807C80.0933 232.407 80.6767 232.163 81.4367 232.077V230.967H82.4367V232.057C83.2567 232.123 83.9333 232.327 84.4667 232.667L83.9667 233.897C83.4667 233.61 82.9567 233.437 82.4367 233.377V235.077C82.9033 235.183 83.2967 235.307 83.6167 235.447C83.9433 235.58 84.2167 235.783 84.4367 236.057C84.6567 236.323 84.7667 236.677 84.7667 237.117ZM80.6967 234.147C80.6967 234.313 80.76 234.45 80.8867 234.557C81.0133 234.663 81.1967 234.753 81.4367 234.827V233.407C81.1833 233.467 80.9967 233.563 80.8767 233.697C80.7567 233.823 80.6967 233.973 80.6967 234.147ZM82.4367 237.927C82.6767 237.873 82.8567 237.787 82.9767 237.667C83.0967 237.547 83.1567 237.403 83.1567 237.237C83.1567 237.07 83.0933 236.933 82.9667 236.827C82.8467 236.72 82.67 236.627 82.4367 236.547V237.927Z" fill="#203D5C"/>
<rect x="60.75" y="224.75" width="48.5" height="31.8333" rx="2.25" fill="#AFB9C4" stroke="#203D5C" stroke-width="1.5"/>
<path d="M60.75 250C60.75 249.862 60.8619 249.75 61 249.75H64.3333C66.1283 249.75 67.5833 251.205 67.5833 253V256.333C67.5833 256.471 67.4714 256.583 67.3333 256.583H63C61.7574 256.583 60.75 255.576 60.75 254.333V250Z" fill="#FFC857" stroke="#203D5C" stroke-width="1.5"/>
<path d="M67.3334 224.75C67.4714 224.75 67.5834 224.862 67.5834 225V228.333C67.5834 230.128 66.1283 231.583 64.3334 231.583H61C60.862 231.583 60.75 231.471 60.75 231.333V227C60.75 225.757 61.7574 224.75 63 224.75H67.3334Z" fill="#FFC857" stroke="#203D5C" stroke-width="1.5"/>
<path d="M109.25 231.333C109.25 231.471 109.138 231.583 109 231.583H105.667C103.872 231.583 102.417 230.128 102.417 228.333V225C102.417 224.862 102.529 224.75 102.667 224.75H107C108.243 224.75 109.25 225.757 109.25 227V231.333Z" fill="#FFC857" stroke="#203D5C" stroke-width="1.5"/>
<path d="M102.667 256.583C102.529 256.583 102.417 256.471 102.417 256.333V253C102.417 251.205 103.872 249.75 105.667 249.75H109C109.138 249.75 109.25 249.862 109.25 250V254.333C109.25 255.576 108.243 256.583 107 256.583H102.667Z" fill="#FFC857" stroke="#203D5C" stroke-width="1.5"/>
<mask id="path-90-inside-16_1645_26506" fill="white">
<rect x="60" y="237.333" width="18.3333" height="6.66667" rx="1"/>
</mask>
<rect x="60" y="237.333" width="18.3333" height="6.66667" rx="1" fill="#FFC857" stroke="#203D5C" stroke-width="3" mask="url(#path-90-inside-16_1645_26506)"/>
<mask id="path-91-inside-17_1645_26506" fill="white">
<rect x="91.6666" y="237.333" width="18.3333" height="6.66667" rx="1"/>
</mask>
<rect x="91.6666" y="237.333" width="18.3333" height="6.66667" rx="1" fill="#FFC857" stroke="#203D5C" stroke-width="3" mask="url(#path-91-inside-17_1645_26506)"/>
<circle cx="85" cy="239.833" r="7.58333" fill="#FFC857" stroke="#203D5C" stroke-width="1.5"/>
<path d="M87.7667 241.117C87.7667 241.663 87.5667 242.133 87.1667 242.527C86.7667 242.913 86.19 243.153 85.4367 243.247V244.367H84.4367V243.277C83.9433 243.25 83.4733 243.163 83.0267 243.017C82.58 242.87 82.22 242.69 81.9467 242.477L82.4967 241.257C82.75 241.443 83.0467 241.6 83.3867 241.727C83.7267 241.853 84.0767 241.933 84.4367 241.967V240.297C83.9633 240.183 83.5633 240.057 83.2367 239.917C82.91 239.777 82.6367 239.573 82.4167 239.307C82.1967 239.033 82.0867 238.673 82.0867 238.227C82.0867 237.673 82.2867 237.2 82.6867 236.807C83.0933 236.407 83.6767 236.163 84.4367 236.077V234.967H85.4367V236.057C86.2567 236.123 86.9333 236.327 87.4667 236.667L86.9667 237.897C86.4667 237.61 85.9567 237.437 85.4367 237.377V239.077C85.9033 239.183 86.2967 239.307 86.6167 239.447C86.9433 239.58 87.2167 239.783 87.4367 240.057C87.6567 240.323 87.7667 240.677 87.7667 241.117ZM83.6967 238.147C83.6967 238.313 83.76 238.45 83.8867 238.557C84.0133 238.663 84.1967 238.753 84.4367 238.827V237.407C84.1833 237.467 83.9967 237.563 83.8767 237.697C83.7567 237.823 83.6967 237.973 83.6967 238.147ZM85.4367 241.927C85.6767 241.873 85.8567 241.787 85.9767 241.667C86.0967 241.547 86.1567 241.403 86.1567 241.237C86.1567 241.07 86.0933 240.933 85.9667 240.827C85.8467 240.72 85.67 240.627 85.4367 240.547V241.927Z" fill="#203D5C"/>
<g filter="url(#filter5_d_1645_26506)">
<rect x="176" y="176" width="140" height="140" rx="6" fill="white"/>
<rect x="176.5" y="176.5" width="139" height="139" rx="5.5" stroke="#F2F2F2"/>
</g>
<path d="M206.194 281.6H207.754V288.68H212.146V290H206.194V281.6ZM216.055 290.084C215.407 290.084 214.823 289.944 214.303 289.664C213.783 289.384 213.375 288.996 213.079 288.5C212.791 287.996 212.647 287.428 212.647 286.796C212.647 286.164 212.791 285.6 213.079 285.104C213.375 284.608 213.783 284.22 214.303 283.94C214.823 283.66 215.407 283.52 216.055 283.52C216.711 283.52 217.299 283.66 217.819 283.94C218.339 284.22 218.743 284.608 219.031 285.104C219.327 285.6 219.475 286.164 219.475 286.796C219.475 287.428 219.327 287.996 219.031 288.5C218.743 288.996 218.339 289.384 217.819 289.664C217.299 289.944 216.711 290.084 216.055 290.084ZM216.055 288.8C216.607 288.8 217.063 288.616 217.423 288.248C217.783 287.88 217.963 287.396 217.963 286.796C217.963 286.196 217.783 285.712 217.423 285.344C217.063 284.976 216.607 284.792 216.055 284.792C215.503 284.792 215.047 284.976 214.687 285.344C214.335 285.712 214.159 286.196 214.159 286.796C214.159 287.396 214.335 287.88 214.687 288.248C215.047 288.616 215.503 288.8 216.055 288.8ZM222.338 284.528C222.77 283.856 223.53 283.52 224.618 283.52V284.948C224.49 284.924 224.374 284.912 224.27 284.912C223.686 284.912 223.23 285.084 222.902 285.428C222.574 285.764 222.41 286.252 222.41 286.892V290H220.91V283.592H222.338V284.528ZM231.856 286.832C231.856 286.936 231.848 287.084 231.832 287.276H226.804C226.892 287.748 227.12 288.124 227.488 288.404C227.864 288.676 228.328 288.812 228.88 288.812C229.584 288.812 230.164 288.58 230.62 288.116L231.424 289.04C231.136 289.384 230.772 289.644 230.332 289.82C229.892 289.996 229.396 290.084 228.844 290.084C228.14 290.084 227.52 289.944 226.984 289.664C226.448 289.384 226.032 288.996 225.736 288.5C225.448 287.996 225.304 287.428 225.304 286.796C225.304 286.172 225.444 285.612 225.724 285.116C226.012 284.612 226.408 284.22 226.912 283.94C227.416 283.66 227.984 283.52 228.616 283.52C229.24 283.52 229.796 283.66 230.284 283.94C230.78 284.212 231.164 284.6 231.436 285.104C231.716 285.6 231.856 286.176 231.856 286.832ZM228.616 284.72C228.136 284.72 227.728 284.864 227.392 285.152C227.064 285.432 226.864 285.808 226.792 286.28H230.428C230.364 285.816 230.168 285.44 229.84 285.152C229.512 284.864 229.104 284.72 228.616 284.72ZM241.385 283.52C242.193 283.52 242.833 283.756 243.305 284.228C243.777 284.692 244.013 285.392 244.013 286.328V290H242.513V286.52C242.513 285.96 242.389 285.54 242.141 285.26C241.893 284.972 241.537 284.828 241.073 284.828C240.569 284.828 240.165 284.996 239.861 285.332C239.557 285.66 239.405 286.132 239.405 286.748V290H237.905V286.52C237.905 285.96 237.781 285.54 237.533 285.26C237.285 284.972 236.929 284.828 236.465 284.828C235.953 284.828 235.545 284.992 235.241 285.32C234.945 285.648 234.797 286.124 234.797 286.748V290H233.297V283.592H234.725V284.408C234.965 284.12 235.265 283.9 235.625 283.748C235.985 283.596 236.385 283.52 236.825 283.52C237.305 283.52 237.729 283.612 238.097 283.796C238.473 283.972 238.769 284.236 238.985 284.588C239.249 284.252 239.589 283.992 240.005 283.808C240.421 283.616 240.881 283.52 241.385 283.52ZM249.246 283.592H250.746V290H249.246V283.592ZM250.002 282.536C249.73 282.536 249.502 282.452 249.318 282.284C249.134 282.108 249.042 281.892 249.042 281.636C249.042 281.38 249.134 281.168 249.318 281C249.502 280.824 249.73 280.736 250.002 280.736C250.274 280.736 250.502 280.82 250.686 280.988C250.87 281.148 250.962 281.352 250.962 281.6C250.962 281.864 250.87 282.088 250.686 282.272C250.51 282.448 250.282 282.536 250.002 282.536ZM256.266 283.52C256.89 283.52 257.446 283.656 257.934 283.928C258.43 284.2 258.818 284.584 259.098 285.08C259.378 285.576 259.518 286.148 259.518 286.796C259.518 287.444 259.378 288.02 259.098 288.524C258.818 289.02 258.43 289.404 257.934 289.676C257.446 289.948 256.89 290.084 256.266 290.084C255.402 290.084 254.718 289.796 254.214 289.22V292.328H252.714V283.592H254.142V284.432C254.39 284.128 254.694 283.9 255.054 283.748C255.422 283.596 255.826 283.52 256.266 283.52ZM256.098 288.8C256.65 288.8 257.102 288.616 257.454 288.248C257.814 287.88 257.994 287.396 257.994 286.796C257.994 286.196 257.814 285.712 257.454 285.344C257.102 284.976 256.65 284.792 256.098 284.792C255.738 284.792 255.414 284.876 255.126 285.044C254.838 285.204 254.61 285.436 254.442 285.74C254.274 286.044 254.19 286.396 254.19 286.796C254.19 287.196 254.274 287.548 254.442 287.852C254.61 288.156 254.838 288.392 255.126 288.56C255.414 288.72 255.738 288.8 256.098 288.8ZM262.921 290.084C262.401 290.084 261.893 290.016 261.397 289.88C260.901 289.744 260.505 289.572 260.209 289.364L260.785 288.224C261.073 288.416 261.417 288.572 261.817 288.692C262.225 288.804 262.625 288.86 263.017 288.86C263.913 288.86 264.361 288.624 264.361 288.152C264.361 287.928 264.245 287.772 264.013 287.684C263.789 287.596 263.425 287.512 262.921 287.432C262.393 287.352 261.961 287.26 261.625 287.156C261.297 287.052 261.009 286.872 260.761 286.616C260.521 286.352 260.401 285.988 260.401 285.524C260.401 284.916 260.653 284.432 261.157 284.072C261.669 283.704 262.357 283.52 263.221 283.52C263.661 283.52 264.101 283.572 264.541 283.676C264.981 283.772 265.341 283.904 265.621 284.072L265.045 285.212C264.501 284.892 263.889 284.732 263.209 284.732C262.769 284.732 262.433 284.8 262.201 284.936C261.977 285.064 261.865 285.236 261.865 285.452C261.865 285.692 261.985 285.864 262.225 285.968C262.473 286.064 262.853 286.156 263.365 286.244C263.877 286.324 264.297 286.416 264.625 286.52C264.953 286.624 265.233 286.8 265.465 287.048C265.705 287.296 265.825 287.648 265.825 288.104C265.825 288.704 265.565 289.184 265.045 289.544C264.525 289.904 263.817 290.084 262.921 290.084ZM273.321 283.592V290H271.893V289.184C271.653 289.472 271.353 289.696 270.993 289.856C270.633 290.008 270.245 290.084 269.829 290.084C268.973 290.084 268.297 289.848 267.801 289.376C267.313 288.896 267.069 288.188 267.069 287.252V283.592H268.569V287.048C268.569 287.624 268.697 288.056 268.953 288.344C269.217 288.624 269.589 288.764 270.069 288.764C270.605 288.764 271.029 288.6 271.341 288.272C271.661 287.936 271.821 287.456 271.821 286.832V283.592H273.321ZM283.373 283.52C284.181 283.52 284.821 283.756 285.293 284.228C285.765 284.692 286.001 285.392 286.001 286.328V290H284.501V286.52C284.501 285.96 284.377 285.54 284.129 285.26C283.881 284.972 283.525 284.828 283.061 284.828C282.557 284.828 282.153 284.996 281.849 285.332C281.545 285.66 281.393 286.132 281.393 286.748V290H279.893V286.52C279.893 285.96 279.769 285.54 279.521 285.26C279.273 284.972 278.917 284.828 278.453 284.828C277.941 284.828 277.533 284.992 277.229 285.32C276.933 285.648 276.785 286.124 276.785 286.748V290H275.285V283.592H276.713V284.408C276.953 284.12 277.253 283.9 277.613 283.748C277.973 283.596 278.373 283.52 278.813 283.52C279.293 283.52 279.717 283.612 280.085 283.796C280.461 283.972 280.757 284.236 280.973 284.588C281.237 284.252 281.577 283.992 281.993 283.808C282.409 283.616 282.869 283.52 283.373 283.52Z" fill="#203D5C"/>
<rect x="221.75" y="228.75" width="48.5" height="31.8333" rx="2.25" fill="#AFB9C4" stroke="#203D5C" stroke-width="1.5"/>
<rect x="221.75" y="235.417" width="48.5" height="5.16667" fill="#FFC857" stroke="#203D5C" stroke-width="1.5"/>
<mask id="path-99-inside-18_1645_26506" fill="white">
<rect x="225.167" y="252.167" width="11.6667" height="4.16667" rx="1"/>
</mask>
<rect x="225.167" y="252.167" width="11.6667" height="4.16667" rx="1" fill="#FFC857" stroke="#203D5C" stroke-width="3" mask="url(#path-99-inside-18_1645_26506)"/>
<mask id="path-100-inside-19_1645_26506" fill="white">
<rect x="225.167" y="246.333" width="18.3333" height="4.16667" rx="1"/>
</mask>
<rect x="225.167" y="246.333" width="18.3333" height="4.16667" rx="1" fill="#FFC857" stroke="#203D5C" stroke-width="3" mask="url(#path-100-inside-19_1645_26506)"/>
<mask id="path-101-inside-20_1645_26506" fill="white">
<rect x="238.5" y="252.167" width="5" height="4.16667" rx="1"/>
</mask>
<rect x="238.5" y="252.167" width="5" height="4.16667" rx="1" fill="#FFC857" stroke="#203D5C" stroke-width="3" mask="url(#path-101-inside-20_1645_26506)"/>
<circle cx="259.333" cy="253" r="2.58333" fill="#FFC857" stroke="#203D5C" stroke-width="1.5"/>
<circle cx="262.667" cy="253" r="2.58333" fill="#FFC857" stroke="#203D5C" stroke-width="1.5"/>
<rect x="221.75" y="261.25" width="48.5" height="32.5" rx="2.25" transform="rotate(-90 221.75 261.25)" fill="#AFB9C4" stroke="#203D5C" stroke-width="1.5"/>
<path d="M236.584 241.378H237.359V234.006L236.32 234.33V241.112C236.32 241.258 236.438 241.378 236.584 241.378Z" fill="white"/>
<path d="M234.033 238.867L234.122 238.812C234.495 238.586 234.78 238.269 234.969 237.873C235.172 237.446 235.269 236.964 235.264 236.399L235.262 235.921L234.215 236.234L234.202 236.671C234.19 236.816 234.178 236.954 234.149 237.088C234.028 237.657 233.709 238 233.174 238.137C232.851 238.22 232.524 238.215 232.178 238.211L232.055 238.209V234H231V241.385H232.062V239.194L232.16 239.193C232.204 239.192 232.249 239.192 232.294 239.191C232.519 239.188 232.748 239.186 232.976 239.17L233.034 239.166L233.066 239.215C233.331 239.622 233.602 240.033 233.864 240.43C234.046 240.705 234.228 240.981 234.409 241.257C234.469 241.348 234.548 241.392 234.651 241.392H234.658C234.808 241.389 234.962 241.39 235.099 241.39H235.12C235.17 241.391 235.219 241.391 235.269 241.391L235.745 241.392L235.665 241.281L234.033 238.867Z" fill="white"/>
<path d="M244.091 240.235C243.589 240.235 243.182 240.646 243.182 241.154C243.182 241.243 243.194 241.329 243.218 241.41H244.964C244.987 241.329 245 241.243 245 241.154C245 240.646 244.593 240.235 244.091 240.235Z" fill="#FFC857"/>
<path d="M239.347 239.602V236.895L238.331 237.156V239.602C238.331 240.719 239.086 241.5 240.166 241.5C240.614 241.5 240.967 241.346 241.184 241.217L241.441 241.064V241.412H242.457V236.901L241.441 237.149V239.426C241.441 240.16 241.033 240.598 240.348 240.598C239.759 240.599 239.347 240.189 239.347 239.602Z" fill="white"/>
<rect x="234.75" y="218.75" width="6.5" height="8.5" rx="1.25" fill="#FFC857" stroke="#203D5C" stroke-width="1.5"/>
<defs>
<filter id="filter0_d_1645_26506" x="0" y="0" width="164" height="164" filterUnits="userSpaceOnUse" color-interpolation-filters="sRGB">
<feFlood flood-opacity="0" result="BackgroundImageFix"/>
<feColorMatrix in="SourceAlpha" type="matrix" values="0 0 0 0 0 0 0 0 0 0 0 0 0 0 0 0 0 0 127 0" result="hardAlpha"/>
<feOffset/>
<feGaussianBlur stdDeviation="6"/>
<feColorMatrix type="matrix" values="0 0 0 0 0.94902 0 0 0 0 0.94902 0 0 0 0 0.94902 0 0 0 0.12 0"/>
<feBlend mode="normal" in2="BackgroundImageFix" result="effect1_dropShadow_1645_26506"/>
<feBlend mode="normal" in="SourceGraphic" in2="effect1_dropShadow_1645_26506" result="shape"/>
</filter>
<filter id="filter1_d_1645_26506" x="164" y="0" width="164" height="164" filterUnits="userSpaceOnUse" color-interpolation-filters="sRGB">
<feFlood flood-opacity="0" result="BackgroundImageFix"/>
<feColorMatrix in="SourceAlpha" type="matrix" values="0 0 0 0 0 0 0 0 0 0 0 0 0 0 0 0 0 0 127 0" result="hardAlpha"/>
<feOffset/>
<feGaussianBlur stdDeviation="6"/>
<feColorMatrix type="matrix" values="0 0 0 0 0.94902 0 0 0 0 0.94902 0 0 0 0 0.94902 0 0 0 0.12 0"/>
<feBlend mode="normal" in2="BackgroundImageFix" result="effect1_dropShadow_1645_26506"/>
<feBlend mode="normal" in="SourceGraphic" in2="effect1_dropShadow_1645_26506" result="shape"/>
</filter>
<filter id="filter2_d_1645_26506" x="328" y="164" width="164" height="164" filterUnits="userSpaceOnUse" color-interpolation-filters="sRGB">
<feFlood flood-opacity="0" result="BackgroundImageFix"/>
<feColorMatrix in="SourceAlpha" type="matrix" values="0 0 0 0 0 0 0 0 0 0 0 0 0 0 0 0 0 0 127 0" result="hardAlpha"/>
<feOffset/>
<feGaussianBlur stdDeviation="6"/>
<feColorMatrix type="matrix" values="0 0 0 0 0.94902 0 0 0 0 0.94902 0 0 0 0 0.94902 0 0 0 0.12 0"/>
<feBlend mode="normal" in2="BackgroundImageFix" result="effect1_dropShadow_1645_26506"/>
<feBlend mode="normal" in="SourceGraphic" in2="effect1_dropShadow_1645_26506" result="shape"/>
</filter>
<filter id="filter3_d_1645_26506" x="328" y="0" width="164" height="164" filterUnits="userSpaceOnUse" color-interpolation-filters="sRGB">
<feFlood flood-opacity="0" result="BackgroundImageFix"/>
<feColorMatrix in="SourceAlpha" type="matrix" values="0 0 0 0 0 0 0 0 0 0 0 0 0 0 0 0 0 0 127 0" result="hardAlpha"/>
<feOffset/>
<feGaussianBlur stdDeviation="6"/>
<feColorMatrix type="matrix" values="0 0 0 0 0.94902 0 0 0 0 0.94902 0 0 0 0 0.94902 0 0 0 0.12 0"/>
<feBlend mode="normal" in2="BackgroundImageFix" result="effect1_dropShadow_1645_26506"/>
<feBlend mode="normal" in="SourceGraphic" in2="effect1_dropShadow_1645_26506" result="shape"/>
</filter>
<filter id="filter4_d_1645_26506" x="0" y="164" width="164" height="164" filterUnits="userSpaceOnUse" color-interpolation-filters="sRGB">
<feFlood flood-opacity="0" result="BackgroundImageFix"/>
<feColorMatrix in="SourceAlpha" type="matrix" values="0 0 0 0 0 0 0 0 0 0 0 0 0 0 0 0 0 0 127 0" result="hardAlpha"/>
<feOffset/>
<feGaussianBlur stdDeviation="6"/>
<feColorMatrix type="matrix" values="0 0 0 0 0.94902 0 0 0 0 0.94902 0 0 0 0 0.94902 0 0 0 0.12 0"/>
<feBlend mode="normal" in2="BackgroundImageFix" result="effect1_dropShadow_1645_26506"/>
<feBlend mode="normal" in="SourceGraphic" in2="effect1_dropShadow_1645_26506" result="shape"/>
</filter>
<filter id="filter5_d_1645_26506" x="164" y="164" width="164" height="164" filterUnits="userSpaceOnUse" color-interpolation-filters="sRGB">
<feFlood flood-opacity="0" result="BackgroundImageFix"/>
<feColorMatrix in="SourceAlpha" type="matrix" values="0 0 0 0 0 0 0 0 0 0 0 0 0 0 0 0 0 0 127 0" result="hardAlpha"/>
<feOffset/>
<feGaussianBlur stdDeviation="6"/>
<feColorMatrix type="matrix" values="0 0 0 0 0.94902 0 0 0 0 0.94902 0 0 0 0 0.94902 0 0 0 0.12 0"/>
<feBlend mode="normal" in2="BackgroundImageFix" result="effect1_dropShadow_1645_26506"/>
<feBlend mode="normal" in="SourceGraphic" in2="effect1_dropShadow_1645_26506" result="shape"/>
</filter>
</defs>
</svg>
