<svg width="80" height="80" viewBox="0 0 80 80" fill="none" xmlns="http://www.w3.org/2000/svg">
<path fill-rule="evenodd" clip-rule="evenodd" d="M39.8223 59.8188C39.6443 59.6505 39.4584 59.4703 39.2658 59.279C39.1597 59.1735 39.0516 59.0647 38.9417 58.9525C37.3558 57.3339 35.3966 55.0232 33.7161 52.2905C30.5324 52.9774 28.061 54.1551 26.7842 55.0197C30.3095 58.1198 34.935 60 40 60C40.0053 60 40.0105 60 40.0158 60C44.8982 59.9962 49.3715 58.2454 52.8435 55.3392C51.5081 54.5313 48.9118 53.3183 45.5295 52.5239C44.0448 55.0916 42.3766 57.2957 41.0161 58.8819C40.9314 58.9806 40.8479 59.0769 40.7658 59.1707C40.5734 59.3904 40.3883 59.5967 40.2118 59.7887C40.1452 59.8612 40.0798 59.9316 40.0158 60C39.9524 59.9412 39.8879 59.8808 39.8223 59.8188ZM53.9981 54.2942C57.5437 50.8263 59.8044 46.0517 60 40.75H49.3322C49.2231 44.3873 47.9378 47.9968 46.2799 51.1621C49.9385 52.0715 52.6958 53.436 53.9981 54.2942ZM60 39.25C59.8104 34.1103 57.68 29.466 54.3195 26.0274C52.9716 26.9033 50.0962 28.3029 46.2862 29.2093C47.8648 32.304 49.1043 35.7788 49.3098 39.25H60ZM53.1945 24.9615C49.6756 21.8758 45.0644 20.0039 40.0158 20C40.0105 20 40.0053 20 40 20C34.935 20 30.3094 21.8802 26.7841 24.9803C28.1183 25.8947 30.7116 27.2274 34.0383 27.9895C35.6745 25.2055 37.5223 22.8216 39.0032 21.1212C39.0921 21.0191 39.1797 20.9195 39.2658 20.8224C39.5307 20.5238 39.7819 20.2491 40.0158 20C40.2495 20.2668 40.5008 20.5613 40.7658 20.8816C40.8395 20.9706 40.9142 21.0616 40.9899 21.1546C42.3623 22.8402 44.0528 25.162 45.5529 27.8394C49.0997 27.0425 51.8198 25.7868 53.1945 24.9615ZM25.6748 26.0331C22.3176 29.4712 20.1895 34.1132 20 39.25H30.062C30.3694 35.7784 31.6575 32.3718 33.2746 29.3497C29.7417 28.4766 27.022 27.0139 25.6748 26.0331ZM20 40.75C20.1895 45.8867 22.3175 50.5285 25.6745 53.9665C26.9865 53.009 29.5735 51.7184 32.9246 50.9313C31.2374 47.8616 29.9921 44.3568 29.9931 40.75H20ZM34.4675 50.6166C32.7362 47.5808 31.4922 44.1765 31.4931 40.75H39.2658V50.2308C37.5709 50.2088 35.959 50.3578 34.4675 50.6166ZM40.7658 50.293V40.75H47.8315C47.718 44.1977 46.4456 47.6971 44.7614 50.8232C43.5091 50.5753 42.1711 50.3879 40.7658 50.293ZM40.7658 39.25H47.8069C47.594 35.9595 46.3673 32.5918 44.7652 29.5335C43.5091 29.7704 42.17 29.947 40.7658 30.0327V39.25ZM39.2658 30.0833V39.25H31.5684C31.8864 35.9497 33.1666 32.6511 34.8029 29.6784C36.1983 29.9342 37.6956 30.0876 39.2658 30.0833ZM44.0025 28.147C42.9448 26.3116 41.804 24.6593 40.7658 23.2951V28.5297C41.8935 28.4575 42.9759 28.3239 44.0025 28.147ZM39.2658 28.5833C37.9873 28.587 36.7604 28.479 35.6034 28.2939C36.8046 26.3112 38.1051 24.5517 39.2658 23.1349V28.5833ZM39.2658 57.116C38.0058 55.7491 36.585 54.001 35.3049 52.0006C36.5482 51.8147 37.8763 51.7117 39.2658 51.7309V57.116ZM40.7658 56.8315V51.7966C41.8869 51.8762 42.9616 52.0174 43.9793 52.2016C42.9265 53.9683 41.7938 55.5441 40.7658 56.8315Z" fill="#AFB9C4"/>
</svg>
