<svg width="80" height="80" viewBox="0 0 80 80" fill="none" xmlns="http://www.w3.org/2000/svg">
<path fill-rule="evenodd" clip-rule="evenodd" d="M26.7456 19C26.7456 16.7909 28.5365 15 30.7456 15H49.5877C51.7969 15 53.5877 16.7909 53.5877 19V26.3637H54.3333V30.9092H53.5877V32.4242H54.3333V36.9696H53.5877V61C53.5877 63.2091 51.7969 65 49.5877 65H30.7456C28.5365 65 26.7456 63.2091 26.7456 61V19ZM41.6578 18.7879C41.6578 19.6247 40.9902 20.3031 40.1666 20.3031C39.343 20.3031 38.6754 19.6247 38.6754 18.7879C38.6754 17.9512 39.343 17.2728 40.1666 17.2728C40.9902 17.2728 41.6578 17.9512 41.6578 18.7879ZM43.1492 58.9394C43.1492 60.613 41.8139 61.9697 40.1667 61.9697C38.5196 61.9697 37.1843 60.613 37.1843 58.9394C37.1843 57.2658 38.5196 55.9091 40.1667 55.9091C41.8139 55.9091 43.1492 57.2658 43.1492 58.9394ZM31.728 21.0606C30.6234 21.0606 29.728 21.9561 29.728 23.0606V52.394C29.728 53.4985 30.6234 54.394 31.728 54.394H48.6052C49.7098 54.394 50.6052 53.4985 50.6052 52.394V23.0606C50.6052 21.9561 49.7098 21.0606 48.6052 21.0606H31.728ZM26.7456 26.3637H26V30.9092H26.7456V26.3637Z" fill="#AFB9C4"/>
</svg>
