<svg width="80" height="80" viewBox="0 0 80 80" fill="none" xmlns="http://www.w3.org/2000/svg">
<path fill-rule="evenodd" clip-rule="evenodd" d="M17.5532 39.8266C17.5532 39.6611 17.5943 39.4982 17.6727 39.3525L18.928 37.0213H17C15.8954 37.0213 15 36.1258 15 35.0213V33.0638C15 31.9593 15.8954 31.0638 17 31.0638H21.6151L23.2446 26.5826C24.6817 22.6307 28.4375 20 32.6426 20H47.3669C51.6712 20 55.4926 22.7543 56.8537 26.8377L58.2624 31.0638H62.3617C63.4663 31.0638 64.3617 31.9593 64.3617 33.0638V35.0213C64.3617 36.1258 63.4663 37.0213 62.3617 37.0213H61.0884L62.5112 39.3334C62.6082 39.491 62.6596 39.6725 62.6596 39.8575V52.1915C62.6596 52.2421 62.6558 52.2918 62.6486 52.3404C62.6558 52.389 62.6596 52.4388 62.6596 52.4894V58C62.6596 59.1046 61.7641 60 60.6596 60H56.1489C55.0444 60 54.1489 59.1046 54.1489 58V53.1915H26.0638V58C26.0638 59.1046 25.1684 60 24.0638 60H19.5532C18.4486 60 17.5532 59.1046 17.5532 58V52.4894C17.5532 52.4388 17.557 52.389 17.5642 52.3404C17.557 52.2918 17.5532 52.2421 17.5532 52.1915V39.8266ZM54.1071 34.4681H25.359C24.6664 34.4681 24.1835 33.781 24.4181 33.1294L26.5757 27.1362C27.2898 25.1524 29.1717 23.8298 31.2801 23.8298H48.6545C50.8967 23.8298 52.8648 25.3225 53.4693 27.4816L55.07 33.1985C55.2486 33.8361 54.7692 34.4681 54.1071 34.4681ZM26.0638 48.0851C27.9439 48.0851 29.4681 46.561 29.4681 44.6809C29.4681 42.8007 27.9439 41.2766 26.0638 41.2766C24.1837 41.2766 22.6596 42.8007 22.6596 44.6809C22.6596 46.561 24.1837 48.0851 26.0638 48.0851ZM54.1489 48.0851C56.0291 48.0851 57.5532 46.561 57.5532 44.6809C57.5532 42.8007 56.0291 41.2766 54.1489 41.2766C52.2688 41.2766 50.7447 42.8007 50.7447 44.6809C50.7447 46.561 52.2688 48.0851 54.1489 48.0851Z" fill="#AFB9C4"/>
</svg>
