<svg width="19" height="19" viewBox="0 0 19 19" fill="none" xmlns="http://www.w3.org/2000/svg">
<path fill-rule="evenodd" clip-rule="evenodd" d="M7.70976 1.2998L10.8903 1.2998C13.1191 1.2998 13.9273 1.53187 14.7422 1.96764C15.557 2.4034 16.1964 3.04288 16.6322 3.85769C17.068 4.67251 17.3 5.48072 17.3 7.70952V10.8901C17.3 13.1189 17.068 13.9271 16.6322 14.7419C16.1964 15.5567 15.557 16.1962 14.7422 16.632C13.9273 17.0677 13.1191 17.2998 10.8903 17.2998H7.70976C5.48096 17.2998 4.67275 17.0677 3.85793 16.632C3.04312 16.1962 2.40365 15.5567 1.96788 14.7419C1.53211 13.9271 1.30005 13.1189 1.30005 10.8901L1.30005 7.70952C1.30005 5.48072 1.53211 4.67251 1.96788 3.85769C2.40365 3.04288 3.04312 2.4034 3.85793 1.96764C4.67275 1.53187 5.48096 1.2998 7.70976 1.2998ZM9.30005 13.5351C11.3792 13.5351 13.0648 11.8496 13.0648 9.77039C13.0648 7.6912 11.3792 6.00569 9.30005 6.00569C7.22086 6.00569 5.53534 7.6912 5.53534 9.77039C5.53534 11.8496 7.22086 13.5351 9.30005 13.5351Z" stroke="#203D5C" stroke-width="2" stroke-linecap="round" stroke-linejoin="round"/>
</svg>
