<svg width="17" height="15" viewBox="0 0 17 15" fill="none" xmlns="http://www.w3.org/2000/svg">
<path fill-rule="evenodd" clip-rule="evenodd" d="M14.5906 2.87708C15.2687 2.44024 15.789 1.74758 16.0341 0.92244C15.3992 1.32692 14.6977 1.62118 13.9483 1.77892C13.351 1.09232 12.4973 0.663574 11.5525 0.663574C9.74094 0.663574 8.2712 2.24609 8.2712 4.1977C8.2712 4.47477 8.29938 4.74375 8.35572 5.00261C5.62754 4.85498 3.20928 3.44942 1.58927 1.30872C1.3066 1.83252 1.14507 2.44024 1.14507 3.08741C1.14507 4.31298 1.72451 5.39496 2.60542 6.02898C2.06823 6.01179 1.5611 5.85101 1.11783 5.5881V5.63158C1.11783 7.34454 2.24949 8.77336 3.7521 9.09694C3.47693 9.17986 3.18674 9.22132 2.88716 9.22132C2.67585 9.22132 2.46924 9.20009 2.26921 9.15863C2.68712 10.5622 3.8986 11.5845 5.33547 11.6118C4.21227 12.5603 2.79606 13.1255 1.2587 13.1255C0.993865 13.1255 0.731847 13.1094 0.475464 13.077C1.9283 14.0781 3.65443 14.6636 5.50734 14.6636C11.546 14.6636 14.847 9.27896 14.847 4.60825C14.847 4.45455 14.8442 4.30084 14.8386 4.15018C15.48 3.65166 16.0369 3.02977 16.4755 2.32092C15.8876 2.60204 15.2546 2.79214 14.5906 2.87708Z" fill="#203D5C"/>
</svg>
