<svg width="64" height="64" viewBox="0 0 64 64" fill="none" xmlns="http://www.w3.org/2000/svg">
<path d="M19.4552 26.6157C19.5178 26.7139 19.4891 26.8435 19.3909 26.9061C19.3557 26.9287 19.317 26.9387 19.2783 26.9387C19.2087 26.9387 19.1409 26.9048 19.1004 26.8417C18.363 25.6843 16.9296 24.8826 15.4483 24.7996C13.8361 24.7087 12.3161 25.4409 11.1678 26.8604C11.0948 26.9513 10.9622 26.9648 10.8722 26.8917C10.7817 26.8187 10.7678 26.6861 10.8409 26.5961C12.0765 25.0674 13.7217 24.2804 15.4722 24.3787C17.1087 24.4722 18.6352 25.3287 19.4552 26.6157ZM15.6648 26.4717C14.1239 26.2978 12.6704 26.9443 11.6778 28.2448C11.6074 28.3374 11.6252 28.4696 11.7174 28.54C11.8096 28.6104 11.9417 28.5926 12.0122 28.5004C12.9126 27.32 14.2265 26.7335 15.6174 26.8896C16.7648 27.0191 17.7483 27.6352 18.1239 28.4596C18.1591 28.5374 18.2357 28.5826 18.3152 28.5826C18.3444 28.5826 18.3739 28.5765 18.4022 28.5639C18.5078 28.5157 18.5548 28.3909 18.5065 28.2852C18.0717 27.3291 16.9561 26.617 15.6648 26.4717ZM15.667 28.4096C14.3278 28.2422 13.0322 28.8496 12.2009 30.0326C12.1339 30.1278 12.157 30.2591 12.2522 30.3257C12.3474 30.3922 12.4787 30.3696 12.5452 30.2743C13.2857 29.2204 14.433 28.6791 15.6148 28.827C16.5491 28.9439 17.3065 29.4804 17.5917 30.2287C17.6239 30.3126 17.7035 30.3643 17.7883 30.3643C17.813 30.3643 17.8387 30.3596 17.863 30.3504C17.9717 30.3091 18.0261 30.1874 17.9848 30.0791C17.6439 29.1852 16.7557 28.5457 15.667 28.4096ZM15.5704 32.3313L14.7574 32.3322C14.5244 32.5065 14.5213 32.9439 14.5104 33.1022H15.8687C15.8687 33.1017 15.8687 32.5022 15.5704 32.3313ZM23.0522 30.763C23.0522 32.997 22.2861 35.0348 21.0261 36.5826C21.023 37.3891 21.0183 40.0043 21.0183 40.0043H20.563C20.563 40.0043 20.5617 40.4735 20.56 40.7496C20.5583 41.0456 20.4509 41.1987 20.1217 41.1983L19.0639 41.1974V40.2483L11.1491 40.2548L11.1561 41.1883C11.1561 41.1883 10.5991 41.1843 10.2917 41.1883C9.74392 41.1957 9.80566 40.9252 9.7874 40.0039H9.31608C9.31608 40.0039 9.31349 37.9113 9.30827 36.9113C7.88131 35.3296 7 33.1587 7 30.7626C7 25.923 10.5935 22 15.0261 22C19.4587 22 23.0522 25.9235 23.0522 30.763ZM12.8109 37.9735L12.2917 36.9757H10.1148C10.1148 36.9757 10.0778 37.3483 10.3704 37.7013C10.6509 38.0391 11.3761 37.957 11.6235 37.9735C11.7983 37.9848 12.8109 37.9735 12.8109 37.9735ZM19.2778 34.3713L17.7061 31.8322H12.5591L11.0044 34.3713H19.2778ZM17.487 38.0048H12.8191V38.1452H17.487V38.0048ZM20.1174 36.9757H17.9404L17.4209 37.9735C17.4209 37.9735 18.4339 37.9848 18.6083 37.9735C18.8557 37.957 19.5813 38.0391 19.8617 37.7013C20.1543 37.3483 20.1174 36.9757 20.1174 36.9757ZM22.67 30.763C22.67 26.1535 19.2474 22.4174 15.0261 22.4174C10.8044 22.4174 7.38217 26.1539 7.38217 30.763C7.38217 32.8883 8.11001 34.8274 9.30783 36.3004C9.33088 36.0404 9.44349 35.6252 9.56479 35.4365C9.71783 35.1987 10.3678 34.3852 10.3678 34.3852C10.3678 34.3852 9.86305 34.3939 9.54436 34.3896C9.18392 34.3843 9.12913 33.7352 9.45348 33.573C9.69131 33.4543 10.2574 33.4078 10.5487 33.8691L10.6957 33.8726C10.8939 33.6135 12.203 31.3909 12.203 31.3909H18.14C18.14 31.3909 19.4048 33.4783 19.6826 33.8561H19.8952C20.34 33.2865 21.0261 33.5665 21.0261 33.9452C21.0261 34.3387 20.8374 34.3674 20.4317 34.3761C20.1387 34.383 19.8548 34.3813 19.8548 34.3813C19.8548 34.3813 20.2283 34.8896 20.4265 35.1291C20.5674 35.2996 20.8326 35.6596 20.9574 36.0265C22.0283 34.59 22.67 32.7583 22.67 30.763ZM28.1743 40.403V31.3187H25.4639V31.5161C25.4639 31.5161 26.1613 31.457 26.1613 31.9987C26.1613 32.497 26.1617 40.4578 26.1613 40.6909C26.1609 41.017 26.2926 41.2709 26.6265 41.2709H29.077V41.0313C29.077 41.0322 28.1743 41.0226 28.1743 40.403ZM38.6161 40.9787V41.2722H36.84C36.4904 41.2722 36.2857 41.0322 36.1426 40.6748C35.9996 40.317 35.4861 38.433 35.4861 38.433L31.9057 38.4387C31.9057 38.4387 31.4183 40.2091 31.3383 40.5104C31.2044 41.0161 31.8787 40.9504 31.8787 40.9504L31.8796 41.2726H30.1065C29.423 41.2726 29.583 40.6857 29.6383 40.4961C29.7122 40.24 31.9274 33.1865 32.1957 32.3756C32.4796 31.5178 31.8917 31.5704 31.8917 31.5704V31.3196H34.9861C34.9861 31.3196 37.4661 39.7222 37.65 40.2278C37.9191 40.9665 38.6161 40.9787 38.6161 40.9787ZM35.0157 37.1326L34.0126 33.3765H33.3713L32.3683 37.1326H35.0157ZM44.27 31.3191H42.0452V31.5165C42.0452 31.5165 42.8087 31.4743 42.6352 32.2322C42.4891 32.8717 41.1326 38.857 41.1326 38.857L38.6822 31.3191H36.1957V31.5343C36.1957 31.5343 36.8291 31.5435 37.0722 32.25C37.3226 32.9774 40.3813 41.2717 40.3813 41.2717H41.9017C41.9017 41.2717 44.4039 32.4348 44.4774 32.1783C44.5504 31.9222 44.7657 31.3191 44.27 31.3191ZM51.8374 39.4857C51.8374 39.4857 51.8891 39.9448 51.4661 39.9726H47.8396V36.3996H51.023L51.0209 35.1113H47.8396L47.8383 32.5935H51.4V31.3187H45.103V31.5339C45.103 31.5339 45.6217 31.5161 45.6217 31.9809C45.6217 32.4457 45.6204 40.5361 45.6217 40.817C45.6226 41.153 45.8135 41.2709 46.0578 41.2709H51.3813C51.8848 41.2709 52.1074 40.7787 52.1087 40.3187C52.11 39.9817 52.1074 39.4852 52.1074 39.4852H51.8374V39.4857ZM57 39.79C57 40.7252 56.2391 41.4861 55.3039 41.4861C54.3687 41.4861 53.6074 40.7252 53.6074 39.79C53.6074 38.8548 54.3687 38.0935 55.3039 38.0935C56.2391 38.0935 57 38.8548 57 39.79ZM56.86 39.79C56.86 38.9317 56.1622 38.2339 55.3039 38.2339C54.4457 38.2339 53.7478 38.9317 53.7478 39.79C53.7478 40.6483 54.4457 41.3461 55.3039 41.3461C56.1622 41.3461 56.86 40.6483 56.86 39.79ZM54.7174 40.0248C54.6887 40.1091 54.6674 40.1735 54.6539 40.217C54.6422 40.1774 54.623 40.1183 54.5965 40.0396L54.3126 39.19H54.0739V40.3896H54.227V39.3687L54.5739 40.3896H54.717L55.0657 39.3857V40.3896H55.2191V39.19H55.0057L54.7174 40.0248ZM56.5339 40.3896H56.3343L56.1756 40.1404C56.1296 40.0683 56.0913 40.013 56.0609 39.9748C56.0313 39.9365 56.0043 39.9104 55.9804 39.8948C55.9565 39.8791 55.9326 39.8687 55.9078 39.8626C55.89 39.8591 55.8604 39.857 55.8196 39.857H55.6352V40.3896H55.477V39.1904H56.0087C56.1156 39.1904 56.197 39.2009 56.253 39.2226C56.3087 39.2439 56.3526 39.2822 56.3865 39.3365C56.4196 39.3913 56.4361 39.4517 56.4361 39.5174C56.4361 39.6026 56.4087 39.6739 56.3535 39.7326C56.2987 39.7913 56.2135 39.8283 56.0983 39.8439C56.1404 39.8643 56.1722 39.8843 56.1943 39.9039C56.2404 39.9465 56.2843 39.9996 56.3261 40.0635L56.5339 40.3896ZM56.147 39.697C56.1878 39.6822 56.2187 39.6578 56.24 39.6252C56.2617 39.5922 56.2722 39.5561 56.2722 39.5174C56.2722 39.4609 56.2513 39.4143 56.21 39.3778C56.1687 39.3413 56.1039 39.323 56.0152 39.323H55.6352V39.7196H55.9765C56.0491 39.7196 56.1057 39.7126 56.147 39.697Z" fill="#203D5C"/>
</svg>
