<svg width="64" height="64" viewBox="0 0 64 64" fill="none" xmlns="http://www.w3.org/2000/svg">
<path d="M22.9664 34.384L25.4756 34.8188C24.8992 36.5028 24.1092 37.7352 23.066 38.5852C21.9848 39.4984 20.7372 39.9416 19.2524 39.9416C17.6236 39.9416 16.3412 39.384 15.4436 38.282C14.5028 37.136 14.046 35.524 14.046 33.3552C14.046 31.5896 14.3544 30.0004 14.9888 28.4996C15.6052 27.0624 16.4748 25.9468 17.5732 25.1828C18.6504 24.4164 19.86 24.0276 21.1696 24.0276C22.5972 24.0276 23.7792 24.4688 24.6844 25.336C25.5288 26.1808 26.052 27.3416 26.2404 28.7884L23.8488 29.056C23.7016 28.2084 23.3948 27.5456 22.9608 27.1304C22.4876 26.6784 21.8992 26.4672 21.1116 26.4672C20.2836 26.4672 19.526 26.7428 18.7932 27.3132C18.0792 27.9052 17.5124 28.7888 17.1096 29.9416C16.694 31.124 16.4848 32.3112 16.4848 33.4704C16.4848 34.776 16.7616 35.7652 17.3256 36.4912C17.8772 37.2252 18.59 37.5984 19.4448 37.5984C20.2456 37.5984 20.9492 37.3132 21.5944 36.73C22.2088 36.1916 22.6688 35.4036 22.9664 34.384ZM30.848 26.5636H37.6712L38.0844 24.2968H28.7884L25.9604 39.674H28.434L29.6596 32.984H36.3492L36.7812 30.698H30.0708L30.848 26.5636ZM42.2496 27.602L41.9008 29.4596H49.026L48.2312 33.8128H41.0888L40.5748 36.36H48.566L47.7716 40.7128H35.248L36.4624 34.0672H30.5084L29.2824 40.7564H24.692L25.2584 37.6812C24.8144 38.3548 24.302 38.9316 23.7292 39.3992C23.102 39.9304 22.4028 40.336 21.6516 40.6016C20.91 40.866 20.1016 41 19.2484 41L19.1024 40.9964C18.2024 40.9808 17.3764 40.8116 16.6496 40.4948C16.6356 40.4888 16.6212 40.4828 16.6052 40.4768L16.604 40.4828L16.276 40.3172C15.65 39.9836 15.0968 39.5256 14.6328 38.9564C14.0784 38.28 13.6616 37.4584 13.3916 36.516C13.1316 35.6024 13 34.5444 13 33.3704C13 32.4264 13.0868 31.5036 13.2584 30.6268C13.424 29.776 13.6796 28.9404 14.014 28.144L14.0268 28.1104C14.3716 27.3044 14.7928 26.582 15.278 25.9588C15.772 25.3248 16.3424 24.7812 16.974 24.3428L17.2824 24.1292L17.286 24.134C17.3604 24.0852 17.4352 24.04 17.5104 23.9956C17.6848 23.892 17.8732 23.7916 18.0712 23.6968C18.9256 23.2864 19.8464 23.056 20.8068 23.0104V23.0056L21.164 23C22.0076 23 22.7924 23.1344 23.4964 23.3996C24.2104 23.6668 24.8516 24.072 25.4056 24.6032C25.9456 25.1408 26.3784 25.7808 26.694 26.5044C26.8556 26.8792 26.9904 27.282 27.0944 27.7096L27.9068 23.2932H38.4304L38.4372 23.2496H50.426L49.6332 27.6016H42.2496V27.602ZM26.0428 34.7856L26.1664 34.404L22.5824 33.7832L22.5012 34.0896C22.3088 34.8096 22.032 35.4084 21.6792 35.87C21.6132 35.9568 21.5428 36.0388 21.4708 36.1172C21.3988 36.1936 21.3252 36.2656 21.2436 36.3376C20.9684 36.5856 20.6792 36.7728 20.3812 36.8928C20.0876 37.0116 19.7724 37.0712 19.4444 37.0712C18.9592 37.0712 18.5272 36.9176 18.162 36.6152C18.0868 36.554 18.0164 36.4872 17.9496 36.416C17.8784 36.3404 17.8116 36.2604 17.764 36.2032L17.7448 36.1704C17.5032 35.862 17.3212 35.4848 17.2016 35.05C17.0764 34.5992 17.0116 34.068 17.0116 33.47C17.0116 32.6788 17.116 31.8664 17.3228 31.0552C17.3612 30.8992 17.4056 30.7424 17.4524 30.5852C17.5004 30.4248 17.5524 30.2684 17.6052 30.1148C17.8744 29.3452 18.2212 28.7044 18.6376 28.2096C18.7148 28.1164 18.796 28.0292 18.8768 27.948C18.9568 27.8688 19.0392 27.7936 19.1204 27.7252C19.4364 27.4796 19.7636 27.294 20.092 27.174C20.4176 27.0548 20.7616 26.9944 21.1116 26.9944C21.4408 26.9944 21.72 27.036 21.9656 27.1228C22.2064 27.2064 22.412 27.3344 22.5976 27.5116C22.8624 27.7652 23.0716 28.1436 23.2132 28.6356C23.2424 28.7344 23.268 28.8404 23.2928 28.9532C23.3176 29.0648 23.3368 29.1812 23.3544 29.3036L23.404 29.636L26.8228 29.2532L26.784 28.9092C26.694 28.09 26.5064 27.3452 26.2236 26.6948C25.9368 26.0324 25.5436 25.4496 25.0512 24.958C24.548 24.4748 23.9652 24.1076 23.3188 23.8652C22.6736 23.6232 21.9492 23.5 21.1692 23.5C20.1544 23.5 19.188 23.7168 18.2952 24.1456C18.1164 24.2312 17.9412 24.3248 17.7744 24.4236C17.6068 24.5224 17.4376 24.6324 17.2712 24.7512C16.42 25.342 15.6948 26.1296 15.1164 27.0908C15.0032 27.2776 14.8956 27.4732 14.794 27.6712C14.6936 27.8684 14.598 28.0756 14.5048 28.2924L14.4904 28.328C14.17 29.09 13.9268 29.8916 13.7664 30.7104C13.6008 31.5532 13.5176 32.4436 13.518 33.3548C13.518 34.4828 13.6432 35.4936 13.8912 36.3588C14.1416 37.2352 14.5264 37.9948 15.034 38.6148C15.4536 39.1296 15.952 39.5428 16.5188 39.8444C16.6256 39.9016 16.7396 39.9564 16.858 40.008C17.5284 40.3008 18.2948 40.4552 19.1384 40.468L19.2512 40.4684C20.0456 40.4684 20.796 40.3452 21.4828 40.1008C22.1744 39.8556 22.8208 39.4812 23.4028 38.9896C23.9864 38.5128 24.5084 37.9108 24.95 37.1988C25.3756 36.512 25.7444 35.6996 26.0428 34.7856ZM22.9624 30.2192L22.8424 29.394C22.826 29.28 22.8068 29.1744 22.7852 29.076C22.7616 28.9704 22.738 28.876 22.7156 28.7944C22.5972 28.392 22.4384 28.0908 22.238 27.9004C22.1052 27.7744 21.9608 27.6836 21.79 27.6244C21.6028 27.5576 21.38 27.5256 21.1072 27.5256C20.8164 27.5256 20.532 27.5752 20.2644 27.6736C19.9888 27.7748 19.7092 27.9348 19.4336 28.1484C19.3692 28.2024 19.3004 28.2652 19.2368 28.3292C19.1696 28.3964 19.1 28.472 19.0296 28.5564C18.6532 29.004 18.3368 29.5904 18.088 30.3C18.0404 30.4396 17.9924 30.5888 17.9428 30.7484C17.898 30.8996 17.8552 31.0492 17.8176 31.1972C17.624 31.9672 17.5252 32.7368 17.5252 33.4856C17.5252 34.0392 17.5824 34.5248 17.6944 34.9284C17.796 35.2956 17.9484 35.612 18.1488 35.8696L18.1832 35.9244C18.204 35.946 18.2592 36.0124 18.3212 36.0768C18.3732 36.1324 18.4292 36.1844 18.4872 36.2328C18.7584 36.4572 19.0796 36.5708 19.4412 36.5708C19.7056 36.5708 19.9564 36.5232 20.1856 36.4308C20.4276 36.3324 20.6656 36.1788 20.894 35.9716C20.9696 35.9048 21.0308 35.8456 21.09 35.7808C21.152 35.7144 21.21 35.6448 21.266 35.5724C21.5776 35.1664 21.8244 34.628 22.0004 33.9724L22.204 33.21L25.9612 33.8616L26.7092 29.7996L22.9624 30.2192ZM36.7852 33.5116L37.4156 30.1708H30.706L31.2848 27.0896H38.1104L38.716 23.7692H28.35L25.328 40.2008H28.872L30.0976 33.5116H36.7852ZM31.6952 27.6456L31.3104 29.6948H37.26L37.6348 27.6456H31.6952ZM41.2816 29.9792L41.822 27.0904L49.202 27.0908L49.8088 23.7692H38.8676L35.94 39.7904L35.8664 40.2004H47.3432L47.9484 36.8792H39.9456L40.668 33.3H47.8036L48.4092 29.9788H41.2816V29.9792ZM49.1764 24.2964H39.3064L36.4976 39.6736H46.9052L47.3176 37.4064H39.3016L40.2372 32.7732H47.3652L47.778 30.506H40.6472L41.3852 26.5632H48.7632L49.1764 24.2964Z" fill="#203D5C"/>
</svg>
