<svg width="64" height="64" viewBox="0 0 64 64" fill="none" xmlns="http://www.w3.org/2000/svg">
<path fill-rule="evenodd" clip-rule="evenodd" d="M23.6619 32.3536C23.9728 33.5944 23.4128 34.9644 22.1449 35.7649C21.0253 36.4714 19.7692 36.7727 18.4775 36.9371C15.7296 37.2871 13.0087 37.2266 10.3792 36.2418C9.72872 35.9988 9.10524 35.6618 8.50741 35.3053C7.7874 34.8757 7.17783 34.3223 7 33.4383C7 33.0983 7 32.7579 7 32.4179C8.03914 34.5901 9.9896 35.3371 12.1714 35.591C15.4657 35.9736 18.5918 35.2614 21.5419 33.8083C22.3206 33.4253 22.9906 32.8218 23.6619 32.3536ZM56.7565 27.6335C54.5048 27.6239 52.253 27.6013 50.0017 27.6222C49.313 27.6287 49.653 28.2174 49.5991 28.5544C49.5491 28.8631 49.5243 29.2209 50.0278 29.2157C50.8069 29.207 51.586 29.2135 52.423 29.2135C52.423 29.4944 52.423 29.7022 52.423 29.9101C52.423 32.0988 52.4339 34.287 52.4147 36.4749C52.4104 36.9497 52.5747 37.1458 53.0417 37.1014C53.1891 37.0879 53.3404 37.0853 53.4869 37.1023C54.0261 37.1658 54.183 36.9201 54.1748 36.401C54.1487 34.7866 54.1656 33.1714 54.1656 31.557C54.1656 30.7983 54.1656 30.0396 54.1656 29.2148C54.503 29.2148 54.7748 29.2257 55.0452 29.2127C55.6969 29.1818 56.3483 29.1396 57 29.1018C57 28.634 57 28.1661 57 27.6983C56.9191 27.6761 56.8374 27.6335 56.7565 27.6335ZM11.74 26.9009C13.3235 27.4022 14.9622 27.4605 16.5857 27.2252C17.5779 27.0813 18.5753 26.8065 19.5005 26.4222C20.3732 26.06 20.3671 25.5109 19.514 25.1261C18.5214 24.6791 17.4671 24.3691 16.4397 24C15.7166 24 14.994 24 14.2714 24C13.3748 24.2996 12.4514 24.5404 11.5918 24.9235C11.1518 25.1196 10.5374 25.5491 10.5113 25.9105C10.4631 26.5509 11.2079 26.7326 11.74 26.9009ZM10.6979 39.2449C10.9796 39.4558 11.26 39.6819 11.5805 39.7988C12.4683 40.1262 13.3727 40.4084 14.2709 40.7088C14.994 40.7088 15.7166 40.7088 16.4392 40.7088C16.5979 40.6632 16.7553 40.6084 16.917 40.5736C18.1201 40.3158 19.2462 39.8914 20.2079 39.0801C17.0544 40.3284 13.8931 40.3323 10.6979 39.2449ZM48.8469 34.5892C49.5334 35.341 50.2278 36.1018 51.0182 36.9679C49.6504 37.2927 48.5912 37.1801 47.893 35.8401C46.9747 37.091 45.7743 37.4271 44.4051 37.2497C43.6221 37.1479 42.9447 36.8062 42.4555 36.1584C41.406 34.7692 41.8612 33.1414 43.686 31.7427C42.6981 29.987 42.8221 28.6005 44.0373 27.8235C45.1812 27.0913 46.963 27.3439 47.6904 28.3405C48.5504 29.5192 48.1638 30.6822 46.4203 32.117C46.8212 32.5527 47.2208 32.987 47.7121 33.521C48.1434 32.3131 48.8317 31.6075 50.2404 32.1301C49.7812 32.9401 49.3278 33.7405 48.8469 34.5892ZM44.7247 30.214C44.8608 30.5122 45.0877 30.7688 45.3008 31.0844C45.616 30.8622 45.8886 30.7001 46.1256 30.4966C46.5321 30.1479 46.6477 29.6996 46.3347 29.2522C46.0195 28.8031 45.5356 28.7748 45.0829 29.0131C44.5882 29.2735 44.506 29.7335 44.7247 30.214ZM46.7095 34.8018C46.0743 34.1192 45.456 33.4557 44.8464 32.8001C43.9416 33.2375 43.5508 33.7744 43.6177 34.501C43.6773 35.1362 44.0281 35.5605 44.6429 35.734C45.4138 35.9514 46.0643 35.6636 46.7095 34.8018ZM35.7246 36.3975C35.9503 37.0266 35.9037 37.0879 35.2446 37.0997C34.1759 37.1192 34.1759 37.1192 33.822 36.104C33.3785 34.8327 33.3785 34.8327 32.0102 34.8327C31.352 34.8327 30.6932 34.8527 30.0363 34.8244C29.6745 34.8092 29.4919 34.9288 29.4102 35.2827C29.3441 35.5701 29.2167 35.8427 29.1185 36.1231C28.7471 37.1823 28.3715 37.351 27.1006 36.9453C27.3276 36.3166 27.5437 35.7227 27.7567 35.1279C28.5793 32.8353 29.4141 30.5457 30.2141 28.2444C30.3815 27.7626 30.6285 27.5844 31.1372 27.5996C32.862 27.6509 32.4754 27.3905 33.0337 28.9222C33.9411 31.4096 34.8315 33.904 35.7246 36.3975ZM32.8233 33.2388C32.3815 31.977 31.9637 30.7835 31.5459 29.5892C31.4985 29.5983 31.4502 29.607 31.4024 29.6161C30.988 30.8044 30.5737 31.9931 30.1393 33.2388C31.0733 33.2388 31.9028 33.2388 32.8233 33.2388ZM8.4361 32.0675C8.92046 32.3644 9.44698 32.6101 9.98177 32.8036C12.3596 33.6623 14.8353 33.7775 17.3297 33.7075C18.8032 33.6666 20.2527 33.4692 21.6188 32.8862C23.5728 32.0522 23.9949 30.6979 22.8767 28.804C22.5632 29.8905 21.7097 30.3518 20.834 30.7388C18.5318 31.7557 16.1014 32.2262 13.5922 32.2266C12.1166 32.2275 10.6731 31.9705 9.35046 31.2618C8.48915 30.8001 7.76783 30.2131 7.72914 29.0718C6.91826 30.5861 7.06522 31.2283 8.4361 32.0675ZM9.0335 28.6709C9.52785 29.0535 10.0992 29.3779 10.6857 29.5927C12.9944 30.4374 15.397 30.6435 17.8314 30.4548C19.0827 30.3574 20.3201 30.1292 21.3858 29.3887C22.4362 28.6587 22.5293 27.8435 21.6932 26.8931C21.4845 26.6557 21.278 26.4161 20.9862 26.0818C20.8027 26.9561 20.2323 27.2735 19.6732 27.5709C17.9879 28.4666 16.1531 28.8179 14.2731 28.8244C13.1848 28.8279 12.0822 28.6692 11.0139 28.4492C10.5887 28.3618 10.1287 27.9813 9.88611 27.6048C9.65872 27.2513 9.69698 26.7265 9.61872 26.2774C9.41394 26.4961 9.14176 26.7605 8.90045 27.0505C8.3661 27.6922 8.36871 28.1561 9.0335 28.6709ZM42.1229 28.4509C42.1107 28.0783 42.2803 27.6005 41.5999 27.6048C39.4751 27.6187 37.3503 27.6174 35.2255 27.6057C34.5511 27.6018 34.7107 28.0753 34.6959 28.4526C34.6802 28.8422 34.6328 29.2418 35.2415 29.2209C35.9824 29.1944 36.725 29.2144 37.5629 29.2144C37.5629 29.5361 37.5629 29.7666 37.5629 29.9966C37.5629 32.1427 37.5924 34.2897 37.5477 36.4349C37.5311 37.214 37.9985 37.0871 38.4594 37.1027C38.9368 37.1184 39.3068 37.1349 39.292 36.4305C39.2464 34.2644 39.2755 32.0962 39.2755 29.9287C39.2755 29.704 39.2755 29.4792 39.2755 29.2144C40.1055 29.2144 40.8481 29.1927 41.5877 29.2213C42.209 29.2448 42.136 28.8287 42.1229 28.4509ZM8.11523 36.3788C8.50132 37.1245 9.22784 37.7706 10.3113 38.2806C12.3027 39.2167 14.4209 39.451 16.5879 39.3562C18.0457 39.2919 19.4462 38.9723 20.7466 38.2819C21.7775 37.7336 22.5093 36.9214 23.0171 35.6623C19.0201 39.0519 12.2657 39.3284 8.11523 36.3788Z" fill="#203D5C"/>
</svg>
