<svg width="64" height="64" viewBox="0 0 64 64" fill="none" xmlns="http://www.w3.org/2000/svg">
<path d="M29.5847 44.1999C29.5674 44.1429 29.5533 44.0835 29.5533 44.0397H28.9149C28.9149 44.0985 28.9015 44.1555 28.8836 44.2149L26.9261 48.6496C26.8948 48.7234 26.8629 48.7804 26.8175 48.8542H27.5473C27.5473 48.7798 27.5646 48.7078 27.5793 48.6496L28.0458 47.4238L29.816 47.4388L30.2832 48.6496C30.2966 48.7234 30.3145 48.7954 30.3145 48.8542H31.5881C31.5249 48.7672 31.4948 48.7078 31.4629 48.6496L29.5847 44.1999ZM28.2484 46.9864L28.9469 45.3813L29.6307 46.9864H28.2484ZM26.2417 48.373C26.2417 48.4894 26.259 48.5776 26.305 48.664C25.7605 48.8104 25.3732 48.898 25.1253 48.9406C24.8741 48.985 24.5808 49 24.2389 49C23.6171 49 23.1045 48.913 22.7173 48.7234C22.2495 48.5038 21.8935 48.1828 21.6424 47.7604C21.4404 47.395 21.3318 46.9726 21.3318 46.4908C21.3318 45.6453 21.6596 44.9883 22.3121 44.5215C22.8387 44.1435 23.5231 43.9527 24.3922 43.9527C24.8907 43.9527 25.8091 44.1561 26.1644 44.4201L25.8845 45.2079C25.6512 44.7117 24.9361 44.4201 24.4082 44.4201C23.8184 44.4201 23.5218 44.5809 23.1665 44.9019C22.9467 45.1053 22.8246 45.2949 22.7441 45.5427C22.6361 45.8355 22.5447 46.1271 22.5447 46.4764C22.5447 47.2072 22.6674 47.7166 23.0719 48.082C23.4138 48.388 23.7072 48.6076 24.2517 48.6076C24.5801 48.6076 24.8735 48.5338 25.17 48.403V46.9582C25.17 46.8718 25.1559 46.7974 25.138 46.7254H26.2717C26.2404 46.7974 26.2404 46.8718 26.2404 46.9582V48.373H26.2417ZM51.3218 46.6084V48.3004H52.6894C52.7808 48.3004 52.8747 48.286 53 48.271V48.8692H50.1562C50.1702 48.7954 50.1875 48.7234 50.1875 48.6352V44.3319C50.1875 44.2155 50.1875 44.1435 50.1562 44.0841H52.9827V44.6679C52.9061 44.6379 52.8121 44.6379 52.7348 44.6379H51.3218V46.0677H52.7035C52.8121 46.0677 52.9227 46.0533 53 46.0383V46.6222C52.9227 46.609 52.8287 46.609 52.7035 46.609H51.3218V46.6084ZM20.4179 46.0677C20.5259 46.0677 20.6339 46.0533 20.7112 46.0383V46.6222C20.6339 46.609 20.5393 46.609 20.4179 46.609H19.0324V48.301H20.4006C20.4946 48.301 20.5885 48.2866 20.7112 48.2716V48.8698H17.884C17.8981 48.796 17.916 48.724 17.916 48.6358V44.3325C17.8987 44.2161 17.884 44.1441 17.8674 44.0847H20.6972V44.6685C20.6173 44.6385 20.5259 44.6385 20.4454 44.6385H19.0324V46.0683H20.4179V46.0677ZM17.0296 48.6346C17.0296 48.679 17.0603 48.7522 17.0922 48.8392H15.8467C15.8639 48.7948 15.8639 48.7672 15.8639 48.7372V48.6496L15.522 45.6873L14.0004 48.6346C13.9685 48.7084 13.9685 48.7672 13.9685 48.8098V48.8542H13.5786V48.8392C13.5786 48.8098 13.5646 48.7372 13.5473 48.6784L11.9631 45.6591L11.7011 48.634V48.6634C11.7011 48.6784 11.7011 48.7372 11.7151 48.8386H11C11.0313 48.7366 11.0486 48.6634 11.0626 48.6196L11.7464 44.2875V44.2137V44.0823H12.4615C12.4615 44.1543 12.4756 44.2137 12.4929 44.2575L14.0598 47.3356L15.724 44.2431C15.738 44.1981 15.7559 44.1543 15.7559 44.1117V44.0673H16.4538V44.2425L17.0296 48.6346ZM33.3117 45.1197C33.0017 45.4995 32.925 45.9369 32.925 46.5196C32.925 47.1466 33.127 47.6878 33.483 48.0508C33.8421 48.4168 34.1354 48.5626 34.7253 48.5626C34.9905 48.5626 35.2238 48.5182 35.4091 48.4462C35.611 48.3724 35.8309 48.2416 36.0788 48.0508V48.6784C35.7996 48.7798 35.5491 48.8536 35.3324 48.8974C35.1158 48.94 34.8506 48.955 34.554 48.955C33.6542 48.955 32.9698 48.7516 32.4886 48.3424C31.9754 47.9044 31.7134 47.3506 31.7134 46.5334C31.7134 46.0221 31.8214 45.5271 32.024 45.2061C32.5058 44.4477 33.3603 43.9365 34.648 43.9365C35.1611 43.9509 35.751 44.1843 36.1728 44.3145L35.9395 45.0159C35.6743 44.8407 35.611 44.7243 35.3944 44.5635C35.2231 44.4471 34.8812 44.3883 34.6339 44.3883C33.9955 44.3907 33.6402 44.7261 33.3117 45.1197ZM39.2793 44.1999C39.2652 44.1429 39.2473 44.0835 39.2473 44.0397H38.6121C38.6121 44.0985 38.5955 44.1555 38.5808 44.2149L36.624 48.6496C36.592 48.7234 36.5607 48.7804 36.5153 48.8542H37.2445C37.2445 48.7798 37.2586 48.7078 37.2764 48.6496L37.741 47.4238L39.5132 47.4388L39.9778 48.6496C39.995 48.7234 40.0091 48.7954 40.0091 48.8542H41.2834C41.2233 48.7672 41.192 48.7078 41.1607 48.6496L39.2793 44.1999ZM37.9283 46.9864L38.6268 45.3813L39.3106 46.9864H37.9283ZM44.967 46.5202C44.8097 46.4338 44.6078 46.3744 44.3598 46.3305C44.5931 46.2729 44.765 46.2141 44.8864 46.1553C45.2769 45.9669 45.4622 45.6609 45.4622 45.2235C45.4622 44.8137 45.3082 44.5077 44.9804 44.3031C44.7011 44.1291 44.3279 44.0409 43.8773 44.0409H42.0279C42.0445 44.0997 42.0592 44.1867 42.0592 44.2749V48.6208C42.0592 48.709 42.0592 48.796 42.0279 48.8554H44.0026C44.3758 48.8554 44.6864 48.7684 44.9663 48.6076C45.3702 48.3586 45.5696 48.0082 45.5696 47.5414C45.5709 47.0734 45.3708 46.7248 44.967 46.5202ZM43.1495 46.1985V44.4045H43.5994C44.1125 44.4045 44.3598 44.6817 44.3598 45.2349C44.3598 45.6153 44.2659 45.8919 44.0665 46.0377C43.9234 46.1409 43.7074 46.1985 43.4415 46.1985H43.1316H43.1495ZM43.6134 48.4744H43.1488V46.5496H43.4415C43.5987 46.5496 43.7387 46.5646 43.8326 46.594C43.9234 46.6222 44.0173 46.681 44.094 46.7548C44.2653 46.9288 44.3592 47.1922 44.3592 47.5558C44.3598 48.1684 44.1119 48.4744 43.6134 48.4744ZM48.9905 48.3004C49.0985 48.3004 49.1925 48.286 49.2551 48.271V48.8548H46.4886C46.5052 48.7804 46.5199 48.7084 46.5199 48.6352V44.2887C46.5199 44.2005 46.5058 44.1279 46.4886 44.0547H47.6536C47.6395 44.1285 47.6223 44.2005 47.6223 44.2887V48.3004H48.9905ZM45.5095 28.6824C45.5095 35.687 39.4588 41.3649 31.9997 41.3649C29.6204 41.3649 27.3844 40.7858 25.441 39.7712C25.4333 39.782 25.0518 39.5954 25.0518 39.5954C28.7443 34.6099 35.8168 32.0143 38.6562 31.3933C38.6306 29.4642 37.603 28.7748 36.4035 27.8784C28.5014 30.4117 24.6108 37.1438 23.7679 38.738C23.5135 38.5544 23.2656 38.3612 23.0221 38.159C23.0208 38.1626 23.0189 38.1674 23.017 38.171C22.8291 38.0144 23.0061 38.1602 22.84 38.0048C22.8112 37.979 22.785 37.9532 22.7556 37.9292C24.051 34.8757 26.3746 31.4587 29.1373 29.2572C32.0725 26.913 35.1087 25.3044 39.1949 24.3407C38.1417 21.8597 37.1135 21.3305 35.4513 20.4581C34.2268 20.8019 29.7719 22.8005 25.9049 27.0516C22.808 30.4639 21.7555 34.9933 21.4807 36.6386C21.0876 36.1814 20.7291 35.699 20.4045 35.1931C21.2506 29.0316 25.7381 24.2928 26.6149 23.3519C26.2475 22.5251 25.416 21.9275 24.1437 21.6281C19.7999 26.574 19.5469 31.8595 19.6395 33.8059C18.9008 32.2393 18.4898 30.5053 18.4898 28.6824C18.4898 21.6773 24.5405 16 31.9997 16C39.4588 16 45.5095 21.6773 45.5095 28.6824Z" fill="#203D5C"/>
</svg>
