<svg width="64" height="64" viewBox="0 0 64 64" fill="none" xmlns="http://www.w3.org/2000/svg">
<path d="M9.27099 32.025L8.135 33.16L7 32.025L8.135 30.89L9.27099 32.025ZM12.025 29.269L13.9701 31.215L15.1051 30.08L12.025 27L8.94502 30.08L10.08 31.215L12.025 29.269ZM15.9161 30.89L14.7811 32.025L15.9161 33.16L17.0501 32.025L15.9161 30.89ZM12.025 34.7811L10.08 32.836L8.94502 33.9701L12.025 37.0501L15.1051 33.9701L13.9701 32.836L12.025 34.7811ZM12.025 33.16L13.16 32.025L12.025 30.89L10.89 32.025L12.025 33.16ZM24.0034 33.269V33.2533C24.0034 32.513 23.6107 32.1429 22.9715 31.8994C23.3643 31.6784 23.6961 31.3319 23.6961 30.7104V30.6946C23.6961 29.8287 23.0029 29.269 21.8768 29.269H19.3201V34.7811H21.9416C23.1856 34.7811 24.0054 34.2774 24.0054 33.269H24.0034ZM22.4914 30.9126C22.4914 31.322 22.1527 31.4958 21.6176 31.4958H20.5012V30.3324H21.6981C22.2096 30.3324 22.4934 30.5366 22.4934 30.8989L22.4914 30.9126ZM22.7987 33.1178C22.7987 33.5272 22.4757 33.7158 21.9396 33.7158H20.5012V32.5052H21.9023C22.5248 32.5052 22.8007 32.7339 22.8007 33.1041L22.7987 33.1178ZM26.5513 34.7811V29.269H25.3348V34.7811H26.5513ZM33.0697 34.7811V29.269H31.8689V32.6632L29.2867 29.269H28.1684V34.7811H29.3652V31.2769L32.0339 34.7811H33.0697ZM39.7864 34.7811L37.4202 29.2297H36.3019L33.9406 34.7811H35.1767L35.6824 33.5449H38.0133L38.5169 34.7811H39.7864ZM37.5822 32.4737H36.1134L36.8459 30.6868L37.5822 32.4737ZM45.5665 34.7811V29.269H44.3657V32.6632L41.7825 29.269H40.6652V34.7811H41.8611V31.2769L44.5307 34.7811H45.5665ZM51.8257 33.8915L51.055 33.1119C50.622 33.5047 50.2361 33.757 49.6058 33.757C48.6613 33.757 48.0074 32.9715 48.0074 32.025V32.0093C48.0074 31.0648 48.677 30.2931 49.6058 30.2931C50.1566 30.2931 50.5876 30.5287 51.0157 30.9146L51.7845 30.025C51.2729 29.5214 50.6514 29.1748 49.6117 29.1748C47.919 29.1748 46.7379 30.458 46.7379 32.0221V32.0378C46.7379 33.6205 47.9426 34.8724 49.5646 34.8724C50.6259 34.8753 51.2553 34.4973 51.8218 33.8915H51.8257ZM57 34.7811V33.701H54.0034V32.5415H56.6024V31.4615H54.0034V30.3481H56.9568V29.268H52.7987V34.7801L57 34.7811Z" fill="#203D5C"/>
</svg>
