<svg width="64" height="64" viewBox="0 0 64 64" fill="none" xmlns="http://www.w3.org/2000/svg">
<path fill-rule="evenodd" clip-rule="evenodd" d="M43.6494 24.4853L39.8636 29.405L37.2243 24.5065H32.4438L26.7299 31.1531L28.1389 24.5065H23.354L23.076 25.8871C20.4375 23.8101 16.0898 24.0049 16.0898 24.0049C9.63893 24.3337 9.38157 28.9245 9.38157 28.9245C9.25773 29.773 9.36907 30.4738 9.61755 31.0492L9.67322 31.1617C9.92171 31.6813 10.3461 32.1046 10.8297 32.451C11.3953 32.8231 12.3202 33.2774 13.8196 33.6931L13.8712 33.7057C16.8567 34.4155 16.5864 35.2379 16.5864 35.2379C16.5864 36.6572 13.9906 36.4624 13.9906 36.4624C11.1762 36.3112 9.71154 34.788 9.71154 34.788L7 37.8776C9.47153 40.4958 13.8579 40.2965 13.8579 40.2965C19.6449 40.4351 20.9256 36.2851 20.9256 36.2851L20.2528 39.8079H25.0675L26.2414 33.6984L29.6084 39.7904H35.3482L31.0521 32.5036L34.2477 28.9335L36.6935 33.2085L35.4038 39.7729H40.1335L41.29 33.9702L49.2318 24.4853H43.6494ZM21.4569 33.7627C21.4569 33.7627 21.598 31.1018 17.1265 30.154L15.2847 29.7171C15.2847 29.7171 13.674 29.4963 14.1968 28.5056C14.1968 28.5056 14.5352 27.0431 18.5872 28.1462C18.5872 28.1462 19.4783 28.3585 20.8917 29.1935L22.8409 26.8785L21.4569 33.7627Z" fill="#203D5C"/>
</svg>
