<svg width="64" height="64" viewBox="0 0 64 64" fill="none" xmlns="http://www.w3.org/2000/svg">
<path fill-rule="evenodd" clip-rule="evenodd" d="M57 29.1389C57 29.1727 57 29.2071 57 29.2419C56.0648 28.7774 55.1361 28.2981 54.1939 27.8513C51.3639 26.509 48.4257 25.5067 45.4022 24.8163C43.4661 24.3737 41.5117 24.0108 39.5552 23.6851C38.4387 23.5004 37.3017 23.4318 36.1722 23.3654C34.537 23.2684 32.8983 23.1385 31.2635 23.1747C29.4417 23.2151 27.6204 23.3998 25.803 23.5719C24.4409 23.7009 23.073 23.8382 21.7296 24.1008C19.7839 24.4809 17.8422 24.9096 15.9278 25.4413C12.8678 26.2909 9.90044 27.4253 7.14044 29.1092C7.10131 29.1333 7.04696 29.1296 7 29.1389C7 29.1045 7 29.0697 7 29.0354C8.0013 28.2211 8.97565 27.3664 10.0078 26.6004C13.4148 24.0725 17.203 22.4425 21.2152 21.4176C23.0148 20.9582 24.8596 20.6975 26.687 20.3662C29.1235 19.9245 31.5891 19.9565 34.0361 20.0808C39.0991 20.3393 44.037 21.3461 48.7191 23.4907C51.7187 24.8646 54.5283 26.5883 56.8813 29.0581C56.9139 29.0925 56.9604 29.1119 57 29.1389ZM38.6513 40.1837C37.8504 40.1401 37.0478 40.1252 36.2483 40.0728C35.8148 40.044 35.3843 39.9628 34.9348 39.902C35.043 39.4738 35.1935 39.2385 35.5717 39.232C36.2757 39.2181 36.9791 39.1777 37.683 39.1499C38.0678 39.1351 38.3552 39.2348 38.2496 39.7684C38.7317 39.7684 39.1822 39.7703 39.6326 39.7665C39.7104 39.7661 39.8452 39.7624 39.8574 39.7257C40.0017 39.2733 40.2274 38.8107 40.2113 38.3597C40.2048 38.1653 39.7 37.8628 39.4017 37.8317C38.4448 37.7333 37.4787 37.7208 36.5165 37.7125C36.0374 37.7087 35.5474 37.7347 35.0813 37.8405C34.0743 38.0697 33.0483 39.464 33.0157 40.5706C33 41.1186 33.1491 41.3395 33.6465 41.4095C34.0909 41.4722 34.5417 41.5093 34.99 41.5186C35.8052 41.5353 36.6213 41.5232 37.4361 41.5232C37.4409 42.2531 37.2778 42.4475 36.7626 42.4507C35.9748 42.4563 35.1874 42.4368 34.4009 42.4595C33.9787 42.4716 33.7622 42.3695 34.0048 41.8346C33.4578 41.8346 32.9617 41.8257 32.4661 41.8434C32.3848 41.8462 32.2735 41.9445 32.2352 42.029C32.1248 42.2726 32.0174 42.5245 31.9591 42.7857C31.8252 43.3843 31.967 43.652 32.5257 43.788C32.9709 43.897 33.4322 43.9323 33.8865 44C34.5957 44 35.3048 44 36.0143 44C36.1791 43.9661 36.3426 43.9183 36.5091 43.9002C36.7783 43.8701 37.0557 43.8905 37.3187 43.8344C38.6091 43.5578 39.0522 42.4637 39.3939 41.3038C39.5965 40.6166 39.3165 40.2199 38.6513 40.1837ZM22.963 41.5093C21.9213 41.584 20.8709 41.5274 19.8248 41.5302C19.7939 41.5302 19.7626 41.546 19.7404 41.552C19.3926 42.3719 19.0474 43.1862 18.7022 44C18.1539 44 17.6061 44 17.0583 44C17.3026 43.3425 17.5461 42.6841 17.7922 42.0266C17.8496 41.8731 17.9157 41.7227 17.997 41.5232C16.1565 41.5232 14.3622 41.5232 12.5678 41.5232C12.5504 41.4847 12.533 41.4457 12.5161 41.4068C12.957 41.1038 13.4026 40.8091 13.8365 40.495C14.3039 40.1568 14.8057 40.044 15.3709 40.0677C16.3035 40.1067 17.2383 40.0607 18.1713 40.0872C18.5135 40.0969 18.6878 39.9823 18.8122 39.6408C19.0239 39.059 19.2874 38.4985 19.5365 37.9111C21.2474 37.9111 22.953 37.8953 24.6583 37.9189C25.3061 37.9287 25.9561 38.3602 25.6722 39.3847C25.213 41.0416 24.3983 41.4058 22.963 41.5093ZM23.0222 40.1656C23.4409 40.1447 23.8204 39.9313 23.9187 39.3796C23.833 39.3364 23.7517 39.2622 23.6691 39.2599C22.7217 39.2353 21.7748 39.2144 20.827 39.2158C20.7222 39.2158 20.5774 39.3369 20.5209 39.4436C20.4074 39.657 20.3426 39.8993 20.2396 40.1795C21.1983 40.1795 22.1117 40.2111 23.0222 40.1656ZM29.2448 26.2579C29.0017 26.2654 28.7409 26.3322 28.5252 26.4496C23.8261 29.0103 19.1326 31.5818 14.4378 34.1509C13.9096 34.4395 13.3804 34.7253 12.8526 35.0125C12.9348 35.1141 12.9917 35.1229 13.0478 35.1229C18.2039 35.1243 23.3596 35.122 28.5152 35.1308C28.7991 35.1313 28.8817 34.9958 28.9626 34.7401C29.4639 33.1575 29.9865 31.5827 30.4961 30.0033C30.8913 28.7779 31.2783 27.5492 31.6922 26.2487C30.8209 26.2487 30.0322 26.2333 29.2448 26.2579ZM35.0043 34.6422C35.1348 35.0352 35.3026 35.1355 35.6778 35.1345C40.6722 35.1197 45.6661 35.1248 50.66 35.1248C50.8148 35.1248 50.9691 35.1248 51.1239 35.1248C51.1309 35.0867 51.1383 35.0487 51.1452 35.0111C51.0778 34.9721 51.0109 34.9318 50.9426 34.8951C45.7043 32.0541 40.4661 29.2126 35.2265 26.3763C35.1026 26.309 34.9561 26.2565 34.8191 26.2547C33.95 26.244 33.0804 26.2491 32.1826 26.2491C32.2317 26.4185 32.2678 26.5637 32.3161 26.7038C33.2143 29.349 34.1243 31.9901 35.0043 34.6422ZM42.297 40.0644C42.5891 39.2524 42.5891 39.2524 43.3143 39.2524C44.4583 39.2524 45.6026 39.2571 46.7465 39.2469C46.8913 39.245 47.1148 39.2121 47.1657 39.1133C47.3748 38.7096 47.5322 38.2744 47.7265 37.808C45.6704 37.808 43.6896 37.8025 41.7083 37.8206C41.5835 37.8215 41.4026 37.9769 41.3448 38.1087C40.81 39.3374 40.2961 40.5771 39.7757 41.8127C39.4917 42.4874 39.2057 43.1611 38.8957 43.8956C40.9839 43.8956 42.9957 43.897 45.0074 43.8905C45.0904 43.89 45.2209 43.8395 45.2504 43.7726C45.4478 43.323 45.6235 42.8632 45.8343 42.338C44.283 42.338 42.8235 42.338 41.353 42.338C41.5956 41.5223 41.5956 41.5223 42.3222 41.5223C44.4491 41.5223 46.5765 41.4791 48.7022 41.5395C49.8804 41.5724 50.5804 40.7136 51.4761 40.2101C51.4648 40.1614 51.453 40.1127 51.4422 40.064C48.4009 40.0644 45.3609 40.0644 42.297 40.0644ZM31.063 37.808C31.2048 39.8278 31.3448 41.8257 31.4896 43.8933C30.8561 43.8933 30.2665 43.9058 29.6774 43.8798C29.5939 43.8756 29.4691 43.6956 29.4487 43.5796C29.4113 43.3671 29.4383 43.1421 29.4383 42.8688C28.2152 42.8688 27.0283 42.8614 25.8422 42.8795C25.7287 42.8813 25.5791 43.0163 25.5126 43.1328C25.1439 43.7764 24.6252 44.0102 23.9309 43.9053C23.6152 43.8575 23.2887 43.897 22.833 43.897C23.5843 43.0507 24.2448 42.2851 24.9265 41.5422C25.9965 40.3758 27.0778 39.2214 28.1635 38.0721C28.2778 37.9505 28.4504 37.8247 28.6 37.8196C29.4035 37.7951 30.207 37.808 31.063 37.808ZM29.3683 41.4805C29.3243 40.7219 29.283 39.9995 29.2404 39.2701C28.8291 39.3513 27.4217 40.8268 27.1035 41.4805C27.8378 41.4805 28.5657 41.4805 29.3683 41.4805Z" fill="#203D5C"/>
</svg>
