<svg width="200" height="50" viewBox="0 0 200 50" fill="none" xmlns="http://www.w3.org/2000/svg">
<rect width="200" height="50" rx="6" fill="#2F2F2F"/>
<path fill-rule="evenodd" clip-rule="evenodd" d="M61.8918 22.493L42.2918 11.2893C41.9539 11.0963 41.5777 11 41.2015 11C41.1938 11 41.1863 11.001 41.1787 11.001C41.1282 11.0015 41.0778 11.0041 41.0275 11.008C41.0047 11.0098 40.9821 11.0123 40.9594 11.0148C40.9201 11.0191 40.8809 11.0246 40.8418 11.0311C40.8277 11.0336 40.8134 11.0343 40.7992 11.037L40.8 11.038C40.5558 11.0831 40.3174 11.1691 40.0959 11.2977C39.4176 11.6913 39 12.4162 39 13.2004V35.6078C39 36.392 39.4176 37.1169 40.0959 37.5105C40.3173 37.6391 40.5556 37.7252 40.7998 37.7703L40.7992 37.7712C40.812 37.7736 40.8249 37.7744 40.8375 37.7764C40.8795 37.7836 40.9216 37.7894 40.9639 37.7939C40.9851 37.7962 41.0061 37.7985 41.0273 37.8002C41.077 37.8041 41.1265 37.8064 41.1763 37.8071C41.1847 37.8072 41.193 37.8082 41.2015 37.8082C41.5777 37.8082 41.9539 37.712 42.2918 37.5189L61.8918 26.3151C62.5771 25.9233 63 25.1946 63 24.4051C63 24.4051 63 24.4047 63 24.4046C63 24.4046 63 24.4042 63 24.404C63 24.404 63 24.4037 63 24.4035C63 24.4035 63 24.4031 63 24.403C63 23.6136 62.5771 22.8849 61.8918 22.493ZM54.1407 20.2681L52.1919 22.8247L47.2337 16.3197L54.1407 20.2681ZM60.9415 24.6526L47.2337 32.4883L55.8166 21.2282L60.9414 24.1575C61.0301 24.2082 61.0853 24.3032 61.0853 24.4049C61.0853 24.5071 61.03 24.602 60.9415 24.6526Z" fill="white"/>
<path d="M74.636 15.756H69.956L68.948 18H68.024L71.864 9.6H72.74L76.58 18H75.644L74.636 15.756ZM74.312 15.036L72.296 10.524L70.28 15.036H74.312ZM81.0056 11.64C81.7976 11.64 82.4256 11.872 82.8896 12.336C83.3616 12.792 83.5976 13.46 83.5976 14.34V18H82.7456V14.424C82.7456 13.768 82.5816 13.268 82.2536 12.924C81.9256 12.58 81.4576 12.408 80.8496 12.408C80.1696 12.408 79.6296 12.612 79.2296 13.02C78.8376 13.42 78.6416 13.976 78.6416 14.688V18H77.7896V11.688H78.6056V12.852C78.8376 12.468 79.1576 12.172 79.5656 11.964C79.9816 11.748 80.4616 11.64 81.0056 11.64ZM91.6941 9.096V18H90.8781V16.752C90.6221 17.176 90.2821 17.5 89.8581 17.724C89.4421 17.948 88.9701 18.06 88.4421 18.06C87.8501 18.06 87.3141 17.924 86.8341 17.652C86.3541 17.38 85.9781 17 85.7061 16.512C85.4341 16.024 85.2981 15.468 85.2981 14.844C85.2981 14.22 85.4341 13.664 85.7061 13.176C85.9781 12.688 86.3541 12.312 86.8341 12.048C87.3141 11.776 87.8501 11.64 88.4421 11.64C88.9541 11.64 89.4141 11.748 89.8221 11.964C90.2381 12.172 90.5781 12.48 90.8421 12.888V9.096H91.6941ZM88.5141 17.304C88.9541 17.304 89.3501 17.204 89.7021 17.004C90.0621 16.796 90.3421 16.504 90.5421 16.128C90.7501 15.752 90.8541 15.324 90.8541 14.844C90.8541 14.364 90.7501 13.936 90.5421 13.56C90.3421 13.184 90.0621 12.896 89.7021 12.696C89.3501 12.488 88.9541 12.384 88.5141 12.384C88.0661 12.384 87.6621 12.488 87.3021 12.696C86.9501 12.896 86.6701 13.184 86.4621 13.56C86.2621 13.936 86.1621 14.364 86.1621 14.844C86.1621 15.324 86.2621 15.752 86.4621 16.128C86.6701 16.504 86.9501 16.796 87.3021 17.004C87.6621 17.204 88.0661 17.304 88.5141 17.304ZM94.8829 12.924C95.0829 12.5 95.3789 12.18 95.7709 11.964C96.1709 11.748 96.6629 11.64 97.2469 11.64V12.468L97.0429 12.456C96.3789 12.456 95.8589 12.66 95.4829 13.068C95.1069 13.476 94.9189 14.048 94.9189 14.784V18H94.0669V11.688H94.8829V12.924ZM101.311 18.06C100.703 18.06 100.155 17.924 99.667 17.652C99.179 17.372 98.795 16.988 98.515 16.5C98.235 16.012 98.095 15.46 98.095 14.844C98.095 14.228 98.235 13.676 98.515 13.188C98.795 12.7 99.179 12.32 99.667 12.048C100.155 11.776 100.703 11.64 101.311 11.64C101.919 11.64 102.467 11.776 102.955 12.048C103.443 12.32 103.823 12.7 104.095 13.188C104.375 13.676 104.515 14.228 104.515 14.844C104.515 15.46 104.375 16.012 104.095 16.5C103.823 16.988 103.443 17.372 102.955 17.652C102.467 17.924 101.919 18.06 101.311 18.06ZM101.311 17.304C101.759 17.304 102.159 17.204 102.511 17.004C102.871 16.796 103.151 16.504 103.351 16.128C103.551 15.752 103.651 15.324 103.651 14.844C103.651 14.364 103.551 13.936 103.351 13.56C103.151 13.184 102.871 12.896 102.511 12.696C102.159 12.488 101.759 12.384 101.311 12.384C100.863 12.384 100.459 12.488 100.099 12.696C99.747 12.896 99.467 13.184 99.259 13.56C99.059 13.936 98.959 14.364 98.959 14.844C98.959 15.324 99.059 15.752 99.259 16.128C99.467 16.504 99.747 16.796 100.099 17.004C100.459 17.204 100.863 17.304 101.311 17.304ZM106.254 11.688H107.106V18H106.254V11.688ZM106.686 10.308C106.51 10.308 106.362 10.248 106.242 10.128C106.122 10.008 106.062 9.864 106.062 9.696C106.062 9.536 106.122 9.396 106.242 9.276C106.362 9.156 106.51 9.096 106.686 9.096C106.862 9.096 107.01 9.156 107.13 9.276C107.25 9.388 107.31 9.524 107.31 9.684C107.31 9.86 107.25 10.008 107.13 10.128C107.01 10.248 106.862 10.308 106.686 10.308ZM115.237 9.096V18H114.421V16.752C114.165 17.176 113.825 17.5 113.401 17.724C112.985 17.948 112.513 18.06 111.985 18.06C111.393 18.06 110.857 17.924 110.377 17.652C109.897 17.38 109.521 17 109.249 16.512C108.977 16.024 108.841 15.468 108.841 14.844C108.841 14.22 108.977 13.664 109.249 13.176C109.521 12.688 109.897 12.312 110.377 12.048C110.857 11.776 111.393 11.64 111.985 11.64C112.497 11.64 112.957 11.748 113.365 11.964C113.781 12.172 114.121 12.48 114.385 12.888V9.096H115.237ZM112.057 17.304C112.497 17.304 112.893 17.204 113.245 17.004C113.605 16.796 113.885 16.504 114.085 16.128C114.293 15.752 114.397 15.324 114.397 14.844C114.397 14.364 114.293 13.936 114.085 13.56C113.885 13.184 113.605 12.896 113.245 12.696C112.893 12.488 112.497 12.384 112.057 12.384C111.609 12.384 111.205 12.488 110.845 12.696C110.493 12.896 110.213 13.184 110.005 13.56C109.805 13.936 109.705 14.364 109.705 14.844C109.705 15.324 109.805 15.752 110.005 16.128C110.213 16.504 110.493 16.796 110.845 17.004C111.205 17.204 111.609 17.304 112.057 17.304ZM122.959 11.64C123.783 11.64 124.415 11.848 124.855 12.264C125.295 12.672 125.515 13.28 125.515 14.088V18H124.699V17.016C124.507 17.344 124.223 17.6 123.847 17.784C123.479 17.968 123.039 18.06 122.527 18.06C121.823 18.06 121.263 17.892 120.847 17.556C120.431 17.22 120.223 16.776 120.223 16.224C120.223 15.688 120.415 15.256 120.799 14.928C121.191 14.6 121.811 14.436 122.659 14.436H124.663V14.052C124.663 13.508 124.511 13.096 124.207 12.816C123.903 12.528 123.459 12.384 122.875 12.384C122.475 12.384 122.091 12.452 121.723 12.588C121.355 12.716 121.039 12.896 120.775 13.128L120.391 12.492C120.711 12.22 121.095 12.012 121.543 11.868C121.991 11.716 122.463 11.64 122.959 11.64ZM122.659 17.388C123.139 17.388 123.551 17.28 123.895 17.064C124.239 16.84 124.495 16.52 124.663 16.104V15.072H122.683C121.603 15.072 121.062 15.448 121.062 16.2C121.062 16.568 121.203 16.86 121.483 17.076C121.763 17.284 122.155 17.388 122.659 17.388ZM131.081 11.64C131.673 11.64 132.209 11.776 132.689 12.048C133.169 12.312 133.545 12.688 133.817 13.176C134.089 13.664 134.225 14.22 134.225 14.844C134.225 15.476 134.089 16.036 133.817 16.524C133.545 17.012 133.169 17.392 132.689 17.664C132.217 17.928 131.681 18.06 131.081 18.06C130.569 18.06 130.105 17.956 129.689 17.748C129.281 17.532 128.945 17.22 128.681 16.812V20.328H127.829V11.688H128.645V12.936C128.901 12.52 129.237 12.2 129.653 11.976C130.077 11.752 130.553 11.64 131.081 11.64ZM131.021 17.304C131.461 17.304 131.861 17.204 132.221 17.004C132.581 16.796 132.861 16.504 133.061 16.128C133.269 15.752 133.373 15.324 133.373 14.844C133.373 14.364 133.269 13.94 133.061 13.572C132.861 13.196 132.581 12.904 132.221 12.696C131.861 12.488 131.461 12.384 131.021 12.384C130.573 12.384 130.169 12.488 129.809 12.696C129.457 12.904 129.177 13.196 128.969 13.572C128.769 13.94 128.669 14.364 128.669 14.844C128.669 15.324 128.769 15.752 128.969 16.128C129.177 16.504 129.457 16.796 129.809 17.004C130.169 17.204 130.573 17.304 131.021 17.304ZM139.213 11.64C139.805 11.64 140.341 11.776 140.821 12.048C141.301 12.312 141.677 12.688 141.949 13.176C142.221 13.664 142.357 14.22 142.357 14.844C142.357 15.476 142.221 16.036 141.949 16.524C141.677 17.012 141.301 17.392 140.821 17.664C140.349 17.928 139.813 18.06 139.213 18.06C138.701 18.06 138.237 17.956 137.821 17.748C137.413 17.532 137.077 17.22 136.813 16.812V20.328H135.961V11.688H136.777V12.936C137.033 12.52 137.369 12.2 137.785 11.976C138.209 11.752 138.685 11.64 139.213 11.64ZM139.153 17.304C139.593 17.304 139.993 17.204 140.353 17.004C140.713 16.796 140.993 16.504 141.193 16.128C141.401 15.752 141.505 15.324 141.505 14.844C141.505 14.364 141.401 13.94 141.193 13.572C140.993 13.196 140.713 12.904 140.353 12.696C139.993 12.488 139.593 12.384 139.153 12.384C138.705 12.384 138.301 12.488 137.941 12.696C137.589 12.904 137.309 13.196 137.101 13.572C136.901 13.94 136.801 14.364 136.801 14.844C136.801 15.324 136.901 15.752 137.101 16.128C137.309 16.504 137.589 16.796 137.941 17.004C138.301 17.204 138.705 17.304 139.153 17.304ZM149.815 18.06C149.207 18.06 148.659 17.924 148.171 17.652C147.683 17.372 147.299 16.988 147.019 16.5C146.739 16.012 146.599 15.46 146.599 14.844C146.599 14.228 146.739 13.676 147.019 13.188C147.299 12.7 147.683 12.32 148.171 12.048C148.659 11.776 149.207 11.64 149.815 11.64C150.423 11.64 150.971 11.776 151.459 12.048C151.947 12.32 152.327 12.7 152.599 13.188C152.879 13.676 153.019 14.228 153.019 14.844C153.019 15.46 152.879 16.012 152.599 16.5C152.327 16.988 151.947 17.372 151.459 17.652C150.971 17.924 150.423 18.06 149.815 18.06ZM149.815 17.304C150.263 17.304 150.663 17.204 151.015 17.004C151.375 16.796 151.655 16.504 151.855 16.128C152.055 15.752 152.155 15.324 152.155 14.844C152.155 14.364 152.055 13.936 151.855 13.56C151.655 13.184 151.375 12.896 151.015 12.696C150.663 12.488 150.263 12.384 149.815 12.384C149.367 12.384 148.963 12.488 148.603 12.696C148.251 12.896 147.971 13.184 147.763 13.56C147.563 13.936 147.463 14.364 147.463 14.844C147.463 15.324 147.563 15.752 147.763 16.128C147.971 16.504 148.251 16.796 148.603 17.004C148.963 17.204 149.367 17.304 149.815 17.304ZM157.974 11.64C158.766 11.64 159.394 11.872 159.858 12.336C160.33 12.792 160.566 13.46 160.566 14.34V18H159.714V14.424C159.714 13.768 159.55 13.268 159.222 12.924C158.894 12.58 158.426 12.408 157.818 12.408C157.138 12.408 156.598 12.612 156.198 13.02C155.806 13.42 155.61 13.976 155.61 14.688V18H154.758V11.688H155.574V12.852C155.806 12.468 156.126 12.172 156.534 11.964C156.95 11.748 157.43 11.64 157.974 11.64Z" fill="white"/>
<path d="M76.008 33.988H77.73V37.894C77.226 38.2953 76.638 38.6033 75.966 38.818C75.294 39.0327 74.6033 39.14 73.894 39.14C72.8953 39.14 71.9947 38.9253 71.192 38.496C70.3893 38.0573 69.7593 37.4553 69.302 36.69C68.8447 35.9247 68.616 35.0613 68.616 34.1C68.616 33.1387 68.8447 32.2753 69.302 31.51C69.7593 30.7447 70.3893 30.1473 71.192 29.718C72.004 29.2793 72.914 29.06 73.922 29.06C74.7433 29.06 75.49 29.1953 76.162 29.466C76.834 29.7367 77.3987 30.1333 77.856 30.656L76.708 31.776C75.9613 31.0293 75.0607 30.656 74.006 30.656C73.3153 30.656 72.6993 30.8007 72.158 31.09C71.626 31.3793 71.206 31.7853 70.898 32.308C70.5993 32.8307 70.45 33.428 70.45 34.1C70.45 34.7533 70.5993 35.3413 70.898 35.864C71.206 36.3867 71.626 36.7973 72.158 37.096C72.6993 37.3947 73.3107 37.544 73.992 37.544C74.7573 37.544 75.4293 37.376 76.008 37.04V33.988ZM83.3225 39.098C82.5665 39.098 81.8851 38.9347 81.2785 38.608C80.6718 38.2813 80.1958 37.8287 79.8505 37.25C79.5145 36.662 79.3465 35.9993 79.3465 35.262C79.3465 34.5247 79.5145 33.8667 79.8505 33.288C80.1958 32.7093 80.6718 32.2567 81.2785 31.93C81.8851 31.6033 82.5665 31.44 83.3225 31.44C84.0878 31.44 84.7738 31.6033 85.3805 31.93C85.9871 32.2567 86.4585 32.7093 86.7945 33.288C87.1398 33.8667 87.3125 34.5247 87.3125 35.262C87.3125 35.9993 87.1398 36.662 86.7945 37.25C86.4585 37.8287 85.9871 38.2813 85.3805 38.608C84.7738 38.9347 84.0878 39.098 83.3225 39.098ZM83.3225 37.6C83.9665 37.6 84.4985 37.3853 84.9185 36.956C85.3385 36.5267 85.5485 35.962 85.5485 35.262C85.5485 34.562 85.3385 33.9973 84.9185 33.568C84.4985 33.1387 83.9665 32.924 83.3225 32.924C82.6785 32.924 82.1465 33.1387 81.7265 33.568C81.3158 33.9973 81.1105 34.562 81.1105 35.262C81.1105 35.962 81.3158 36.5267 81.7265 36.956C82.1465 37.3853 82.6785 37.6 83.3225 37.6ZM92.3459 39.098C91.5899 39.098 90.9086 38.9347 90.3019 38.608C89.6952 38.2813 89.2192 37.8287 88.8739 37.25C88.5379 36.662 88.3699 35.9993 88.3699 35.262C88.3699 34.5247 88.5379 33.8667 88.8739 33.288C89.2192 32.7093 89.6952 32.2567 90.3019 31.93C90.9086 31.6033 91.5899 31.44 92.3459 31.44C93.1112 31.44 93.7972 31.6033 94.4039 31.93C95.0106 32.2567 95.4819 32.7093 95.8179 33.288C96.1632 33.8667 96.3359 34.5247 96.3359 35.262C96.3359 35.9993 96.1632 36.662 95.8179 37.25C95.4819 37.8287 95.0106 38.2813 94.4039 38.608C93.7972 38.9347 93.1112 39.098 92.3459 39.098ZM92.3459 37.6C92.9899 37.6 93.5219 37.3853 93.9419 36.956C94.3619 36.5267 94.5719 35.962 94.5719 35.262C94.5719 34.562 94.3619 33.9973 93.9419 33.568C93.5219 33.1387 92.9899 32.924 92.3459 32.924C91.7019 32.924 91.1699 33.1387 90.7499 33.568C90.3392 33.9973 90.1339 34.562 90.1339 35.262C90.1339 35.962 90.3392 36.5267 90.7499 36.956C91.1699 37.3853 91.7019 37.6 92.3459 37.6ZM105.429 31.524V37.866C105.429 40.498 104.085 41.814 101.397 41.814C100.679 41.814 99.9973 41.7207 99.3533 41.534C98.7093 41.3567 98.1773 41.0953 97.7573 40.75L98.5413 39.434C98.868 39.7047 99.2787 39.9193 99.7733 40.078C100.277 40.246 100.786 40.33 101.299 40.33C102.121 40.33 102.723 40.1433 103.105 39.77C103.488 39.3967 103.679 38.8273 103.679 38.062V37.67C103.381 37.9967 103.017 38.244 102.587 38.412C102.158 38.58 101.687 38.664 101.173 38.664C100.464 38.664 99.82 38.5147 99.2413 38.216C98.672 37.908 98.2193 37.4787 97.8833 36.928C97.5567 36.3773 97.3933 35.7473 97.3933 35.038C97.3933 34.3287 97.5567 33.7033 97.8833 33.162C98.2193 32.6113 98.672 32.1867 99.2413 31.888C99.82 31.5893 100.464 31.44 101.173 31.44C101.715 31.44 102.205 31.5287 102.643 31.706C103.091 31.8833 103.465 32.154 103.763 32.518V31.524H105.429ZM101.439 37.18C102.102 37.18 102.643 36.984 103.063 36.592C103.493 36.1907 103.707 35.6727 103.707 35.038C103.707 34.4127 103.493 33.904 103.063 33.512C102.643 33.12 102.102 32.924 101.439 32.924C100.767 32.924 100.217 33.12 99.7873 33.512C99.3673 33.904 99.1573 34.4127 99.1573 35.038C99.1573 35.6727 99.3673 36.1907 99.7873 36.592C100.217 36.984 100.767 37.18 101.439 37.18ZM107.73 28.612H109.48V39H107.73V28.612ZM118.805 35.304C118.805 35.4253 118.796 35.598 118.777 35.822H112.911C113.014 36.3727 113.28 36.8113 113.709 37.138C114.148 37.4553 114.689 37.614 115.333 37.614C116.154 37.614 116.831 37.3433 117.363 36.802L118.301 37.88C117.965 38.2813 117.54 38.5847 117.027 38.79C116.514 38.9953 115.935 39.098 115.291 39.098C114.47 39.098 113.746 38.9347 113.121 38.608C112.496 38.2813 112.01 37.8287 111.665 37.25C111.329 36.662 111.161 35.9993 111.161 35.262C111.161 34.534 111.324 33.8807 111.651 33.302C111.987 32.714 112.449 32.2567 113.037 31.93C113.625 31.6033 114.288 31.44 115.025 31.44C115.753 31.44 116.402 31.6033 116.971 31.93C117.55 32.2473 117.998 32.7 118.315 33.288C118.642 33.8667 118.805 34.5387 118.805 35.304ZM115.025 32.84C114.465 32.84 113.989 33.008 113.597 33.344C113.214 33.6707 112.981 34.1093 112.897 34.66H117.139C117.064 34.1187 116.836 33.68 116.453 33.344C116.07 33.008 115.594 32.84 115.025 32.84ZM128.555 29.2C129.404 29.2 130.142 29.34 130.767 29.62C131.402 29.9 131.887 30.3013 132.223 30.824C132.559 31.3467 132.727 31.9673 132.727 32.686C132.727 33.3953 132.559 34.016 132.223 34.548C131.887 35.0707 131.402 35.472 130.767 35.752C130.142 36.032 129.404 36.172 128.555 36.172H126.343V39H124.523V29.2H128.555ZM128.471 34.632C129.264 34.632 129.866 34.464 130.277 34.128C130.688 33.792 130.893 33.3113 130.893 32.686C130.893 32.0607 130.688 31.58 130.277 31.244C129.866 30.908 129.264 30.74 128.471 30.74H126.343V34.632H128.471ZM134.513 28.612H136.263V39H134.513V28.612ZM141.416 31.44C142.517 31.44 143.357 31.706 143.936 32.238C144.524 32.7607 144.818 33.554 144.818 34.618V39H143.166V38.09C142.951 38.4167 142.643 38.6687 142.242 38.846C141.85 39.014 141.374 39.098 140.814 39.098C140.254 39.098 139.764 39.0047 139.344 38.818C138.924 38.622 138.597 38.356 138.364 38.02C138.14 37.6747 138.028 37.2873 138.028 36.858C138.028 36.186 138.275 35.6493 138.77 35.248C139.274 34.8373 140.063 34.632 141.136 34.632H143.068V34.52C143.068 33.9973 142.909 33.596 142.592 33.316C142.284 33.036 141.822 32.896 141.206 32.896C140.786 32.896 140.371 32.9613 139.96 33.092C139.559 33.2227 139.218 33.4047 138.938 33.638L138.252 32.364C138.644 32.0653 139.115 31.8367 139.666 31.678C140.217 31.5193 140.8 31.44 141.416 31.44ZM141.178 37.824C141.617 37.824 142.004 37.726 142.34 37.53C142.685 37.3247 142.928 37.0353 143.068 36.662V35.794H141.262C140.254 35.794 139.75 36.1253 139.75 36.788C139.75 37.1053 139.876 37.3573 140.128 37.544C140.38 37.7307 140.73 37.824 141.178 37.824ZM153.927 31.524L150.427 39.602C150.101 40.414 149.704 40.9833 149.237 41.31C148.771 41.646 148.206 41.814 147.543 41.814C147.17 41.814 146.801 41.7533 146.437 41.632C146.073 41.5107 145.775 41.3427 145.541 41.128L146.241 39.84C146.409 39.9987 146.605 40.1247 146.829 40.218C147.063 40.3113 147.296 40.358 147.529 40.358C147.837 40.358 148.089 40.2787 148.285 40.12C148.491 39.9613 148.677 39.6953 148.845 39.322L148.971 39.028L145.709 31.524H147.529L149.881 37.054L152.247 31.524H153.927Z" fill="white"/>
</svg>
