<svg width="200" height="50" viewBox="0 0 200 50" fill="none" xmlns="http://www.w3.org/2000/svg">
<rect width="200" height="50" rx="6" fill="#2F2F2F"/>
<path fill-rule="evenodd" clip-rule="evenodd" d="M49.0403 24.3948C49.0091 20.6644 52.0934 18.8513 52.2289 18.7679C50.4783 16.2254 47.7691 15.8711 46.8208 15.8398C44.5493 15.6002 42.3402 17.2049 41.1835 17.2049C40.0061 17.2049 38.2138 15.8711 36.2965 15.9024C33.8269 15.944 31.5032 17.3716 30.2424 19.6015C27.6269 24.1343 29.5755 30.8032 32.0868 34.4711C33.3476 36.2633 34.8064 38.2744 36.7341 38.2015C38.6098 38.1285 39.3183 37.0032 41.5795 37.0032C43.8303 37.0032 44.4867 38.2015 46.4457 38.1598C48.4672 38.1285 49.7281 36.3571 50.9472 34.544C52.3956 32.4912 52.9792 30.4593 53 30.3551C52.9479 30.3343 49.082 28.8546 49.0403 24.3948Z" fill="#FBFBFB"/>
<path fill-rule="evenodd" clip-rule="evenodd" d="M45.3413 13.7308C46.352 12.4699 47.0398 10.7506 46.8522 9C45.3934 9.06252 43.5594 10.0108 42.507 11.2508C41.5796 12.3449 40.746 14.1267 40.9544 15.8044C42.6008 15.9294 44.2888 14.9707 45.3413 13.7308Z" fill="#FBFBFB"/>
<path d="M66.368 9.6H69.788C70.676 9.6 71.46 9.78 72.14 10.14C72.82 10.492 73.348 10.988 73.724 11.628C74.1 12.26 74.288 12.984 74.288 13.8C74.288 14.616 74.1 15.344 73.724 15.984C73.348 16.616 72.82 17.112 72.14 17.472C71.46 17.824 70.676 18 69.788 18H66.368V9.6ZM69.74 17.232C70.476 17.232 71.12 17.088 71.672 16.8C72.224 16.504 72.652 16.1 72.956 15.588C73.26 15.068 73.412 14.472 73.412 13.8C73.412 13.128 73.26 12.536 72.956 12.024C72.652 11.504 72.224 11.1 71.672 10.812C71.12 10.516 70.476 10.368 69.74 10.368H67.256V17.232H69.74ZM78.6821 18.06C78.0741 18.06 77.5261 17.924 77.0381 17.652C76.5501 17.372 76.1661 16.988 75.8861 16.5C75.6061 16.012 75.4661 15.46 75.4661 14.844C75.4661 14.228 75.6061 13.676 75.8861 13.188C76.1661 12.7 76.5501 12.32 77.0381 12.048C77.5261 11.776 78.0741 11.64 78.6821 11.64C79.2901 11.64 79.8381 11.776 80.3261 12.048C80.8141 12.32 81.1941 12.7 81.4661 13.188C81.7461 13.676 81.8861 14.228 81.8861 14.844C81.8861 15.46 81.7461 16.012 81.4661 16.5C81.1941 16.988 80.8141 17.372 80.3261 17.652C79.8381 17.924 79.2901 18.06 78.6821 18.06ZM78.6821 17.304C79.1301 17.304 79.5301 17.204 79.8821 17.004C80.2421 16.796 80.5221 16.504 80.7221 16.128C80.9221 15.752 81.0221 15.324 81.0221 14.844C81.0221 14.364 80.9221 13.936 80.7221 13.56C80.5221 13.184 80.2421 12.896 79.8821 12.696C79.5301 12.488 79.1301 12.384 78.6821 12.384C78.2341 12.384 77.8301 12.488 77.4701 12.696C77.1181 12.896 76.8381 13.184 76.6301 13.56C76.4301 13.936 76.3301 14.364 76.3301 14.844C76.3301 15.324 76.4301 15.752 76.6301 16.128C76.8381 16.504 77.1181 16.796 77.4701 17.004C77.8301 17.204 78.2341 17.304 78.6821 17.304ZM92.7137 11.688L90.3257 18H89.5217L87.5297 12.828L85.5377 18H84.7337L82.3577 11.688H83.1737L85.1537 17.052L87.1817 11.688H87.9137L89.9297 17.052L91.9337 11.688H92.7137ZM97.2126 11.64C98.0046 11.64 98.6326 11.872 99.0966 12.336C99.5686 12.792 99.8046 13.46 99.8046 14.34V18H98.9526V14.424C98.9526 13.768 98.7886 13.268 98.4606 12.924C98.1326 12.58 97.6646 12.408 97.0566 12.408C96.3766 12.408 95.8366 12.612 95.4366 13.02C95.0446 13.42 94.8486 13.976 94.8486 14.688V18H93.9966V11.688H94.8126V12.852C95.0446 12.468 95.3646 12.172 95.7726 11.964C96.1886 11.748 96.6686 11.64 97.2126 11.64ZM102.118 9.096H102.97V18H102.118V9.096ZM107.92 18.06C107.312 18.06 106.764 17.924 106.276 17.652C105.788 17.372 105.404 16.988 105.124 16.5C104.844 16.012 104.704 15.46 104.704 14.844C104.704 14.228 104.844 13.676 105.124 13.188C105.404 12.7 105.788 12.32 106.276 12.048C106.764 11.776 107.312 11.64 107.92 11.64C108.528 11.64 109.076 11.776 109.564 12.048C110.052 12.32 110.432 12.7 110.704 13.188C110.984 13.676 111.124 14.228 111.124 14.844C111.124 15.46 110.984 16.012 110.704 16.5C110.432 16.988 110.052 17.372 109.564 17.652C109.076 17.924 108.528 18.06 107.92 18.06ZM107.92 17.304C108.368 17.304 108.768 17.204 109.12 17.004C109.48 16.796 109.76 16.504 109.96 16.128C110.16 15.752 110.26 15.324 110.26 14.844C110.26 14.364 110.16 13.936 109.96 13.56C109.76 13.184 109.48 12.896 109.12 12.696C108.768 12.488 108.368 12.384 107.92 12.384C107.472 12.384 107.068 12.488 106.708 12.696C106.356 12.896 106.076 13.184 105.868 13.56C105.668 13.936 105.568 14.364 105.568 14.844C105.568 15.324 105.668 15.752 105.868 16.128C106.076 16.504 106.356 16.796 106.708 17.004C107.068 17.204 107.472 17.304 107.92 17.304ZM115.037 11.64C115.861 11.64 116.493 11.848 116.933 12.264C117.373 12.672 117.593 13.28 117.593 14.088V18H116.777V17.016C116.585 17.344 116.301 17.6 115.925 17.784C115.557 17.968 115.117 18.06 114.605 18.06C113.901 18.06 113.341 17.892 112.925 17.556C112.509 17.22 112.301 16.776 112.301 16.224C112.301 15.688 112.493 15.256 112.877 14.928C113.269 14.6 113.889 14.436 114.737 14.436H116.741V14.052C116.741 13.508 116.589 13.096 116.285 12.816C115.981 12.528 115.537 12.384 114.953 12.384C114.553 12.384 114.169 12.452 113.801 12.588C113.433 12.716 113.117 12.896 112.853 13.128L112.469 12.492C112.789 12.22 113.173 12.012 113.621 11.868C114.069 11.716 114.541 11.64 115.037 11.64ZM114.737 17.388C115.217 17.388 115.629 17.28 115.973 17.064C116.317 16.84 116.573 16.52 116.741 16.104V15.072H114.761C113.681 15.072 113.141 15.448 113.141 16.2C113.141 16.568 113.281 16.86 113.561 17.076C113.841 17.284 114.233 17.388 114.737 17.388ZM125.69 9.096V18H124.874V16.752C124.618 17.176 124.278 17.5 123.854 17.724C123.438 17.948 122.966 18.06 122.438 18.06C121.846 18.06 121.31 17.924 120.83 17.652C120.35 17.38 119.974 17 119.702 16.512C119.43 16.024 119.294 15.468 119.294 14.844C119.294 14.22 119.43 13.664 119.702 13.176C119.974 12.688 120.35 12.312 120.83 12.048C121.31 11.776 121.846 11.64 122.438 11.64C122.95 11.64 123.41 11.748 123.818 11.964C124.234 12.172 124.574 12.48 124.838 12.888V9.096H125.69ZM122.51 17.304C122.95 17.304 123.346 17.204 123.698 17.004C124.058 16.796 124.338 16.504 124.538 16.128C124.746 15.752 124.85 15.324 124.85 14.844C124.85 14.364 124.746 13.936 124.538 13.56C124.338 13.184 124.058 12.896 123.698 12.696C123.346 12.488 122.95 12.384 122.51 12.384C122.062 12.384 121.658 12.488 121.298 12.696C120.946 12.896 120.666 13.184 120.458 13.56C120.258 13.936 120.158 14.364 120.158 14.844C120.158 15.324 120.258 15.752 120.458 16.128C120.666 16.504 120.946 16.796 121.298 17.004C121.658 17.204 122.062 17.304 122.51 17.304ZM133.784 18.06C133.176 18.06 132.628 17.924 132.14 17.652C131.652 17.372 131.268 16.988 130.988 16.5C130.708 16.012 130.568 15.46 130.568 14.844C130.568 14.228 130.708 13.676 130.988 13.188C131.268 12.7 131.652 12.32 132.14 12.048C132.628 11.776 133.176 11.64 133.784 11.64C134.392 11.64 134.94 11.776 135.428 12.048C135.916 12.32 136.296 12.7 136.568 13.188C136.848 13.676 136.988 14.228 136.988 14.844C136.988 15.46 136.848 16.012 136.568 16.5C136.296 16.988 135.916 17.372 135.428 17.652C134.94 17.924 134.392 18.06 133.784 18.06ZM133.784 17.304C134.232 17.304 134.632 17.204 134.984 17.004C135.344 16.796 135.624 16.504 135.824 16.128C136.024 15.752 136.124 15.324 136.124 14.844C136.124 14.364 136.024 13.936 135.824 13.56C135.624 13.184 135.344 12.896 134.984 12.696C134.632 12.488 134.232 12.384 133.784 12.384C133.336 12.384 132.932 12.488 132.572 12.696C132.22 12.896 131.94 13.184 131.732 13.56C131.532 13.936 131.432 14.364 131.432 14.844C131.432 15.324 131.532 15.752 131.732 16.128C131.94 16.504 132.22 16.796 132.572 17.004C132.932 17.204 133.336 17.304 133.784 17.304ZM141.943 11.64C142.735 11.64 143.363 11.872 143.827 12.336C144.299 12.792 144.535 13.46 144.535 14.34V18H143.683V14.424C143.683 13.768 143.519 13.268 143.191 12.924C142.863 12.58 142.395 12.408 141.787 12.408C141.107 12.408 140.567 12.612 140.167 13.02C139.775 13.42 139.579 13.976 139.579 14.688V18H138.727V11.688H139.543V12.852C139.775 12.468 140.095 12.172 140.503 11.964C140.919 11.748 141.399 11.64 141.943 11.64ZM153.313 17.616C153.153 17.76 152.953 17.872 152.713 17.952C152.481 18.024 152.237 18.06 151.981 18.06C151.389 18.06 150.933 17.9 150.613 17.58C150.293 17.26 150.133 16.808 150.133 16.224V12.408H149.005V11.688H150.133V10.308H150.985V11.688H152.905V12.408H150.985V16.176C150.985 16.552 151.077 16.84 151.261 17.04C151.453 17.232 151.725 17.328 152.077 17.328C152.253 17.328 152.421 17.3 152.581 17.244C152.749 17.188 152.893 17.108 153.013 17.004L153.313 17.616ZM158.08 11.64C158.872 11.64 159.5 11.872 159.964 12.336C160.436 12.792 160.672 13.46 160.672 14.34V18H159.82V14.424C159.82 13.768 159.656 13.268 159.328 12.924C159 12.58 158.532 12.408 157.924 12.408C157.244 12.408 156.704 12.612 156.304 13.02C155.912 13.42 155.716 13.976 155.716 14.688V18H154.864V9.096H155.716V12.792C155.948 12.424 156.268 12.14 156.676 11.94C157.084 11.74 157.552 11.64 158.08 11.64ZM168.504 15.108H163.224C163.272 15.764 163.524 16.296 163.98 16.704C164.436 17.104 165.012 17.304 165.708 17.304C166.1 17.304 166.46 17.236 166.788 17.1C167.116 16.956 167.4 16.748 167.64 16.476L168.12 17.028C167.84 17.364 167.488 17.62 167.064 17.796C166.648 17.972 166.188 18.06 165.684 18.06C165.036 18.06 164.46 17.924 163.956 17.652C163.46 17.372 163.072 16.988 162.792 16.5C162.512 16.012 162.372 15.46 162.372 14.844C162.372 14.228 162.504 13.676 162.768 13.188C163.04 12.7 163.408 12.32 163.872 12.048C164.344 11.776 164.872 11.64 165.456 11.64C166.04 11.64 166.564 11.776 167.028 12.048C167.492 12.32 167.856 12.7 168.12 13.188C168.384 13.668 168.516 14.22 168.516 14.844L168.504 15.108ZM165.456 12.372C164.848 12.372 164.336 12.568 163.92 12.96C163.512 13.344 163.28 13.848 163.224 14.472H167.7C167.644 13.848 167.408 13.344 166.992 12.96C166.584 12.568 166.072 12.372 165.456 12.372Z" fill="white"/>
<path d="M72.672 36.732H67.772L66.806 39H64.93L69.34 29.2H71.132L75.556 39H73.652L72.672 36.732ZM72.07 35.304L70.222 31.02L68.388 35.304H72.07ZM80.7783 31.44C81.5063 31.44 82.155 31.5987 82.7243 31.916C83.303 32.2333 83.7557 32.6813 84.0823 33.26C84.409 33.8387 84.5723 34.506 84.5723 35.262C84.5723 36.018 84.409 36.69 84.0823 37.278C83.7557 37.8567 83.303 38.3047 82.7243 38.622C82.155 38.9393 81.5063 39.098 80.7783 39.098C79.7703 39.098 78.9723 38.762 78.3843 38.09V41.716H76.6343V31.524H78.3003V32.504C78.5897 32.1493 78.9443 31.8833 79.3643 31.706C79.7937 31.5287 80.265 31.44 80.7783 31.44ZM80.5823 37.6C81.2263 37.6 81.7537 37.3853 82.1643 36.956C82.5843 36.5267 82.7943 35.962 82.7943 35.262C82.7943 34.562 82.5843 33.9973 82.1643 33.568C81.7537 33.1387 81.2263 32.924 80.5823 32.924C80.1623 32.924 79.7843 33.022 79.4483 33.218C79.1123 33.4047 78.8463 33.6753 78.6503 34.03C78.4543 34.3847 78.3563 34.7953 78.3563 35.262C78.3563 35.7287 78.4543 36.1393 78.6503 36.494C78.8463 36.8487 79.1123 37.124 79.4483 37.32C79.7843 37.5067 80.1623 37.6 80.5823 37.6ZM90.376 31.44C91.104 31.44 91.7527 31.5987 92.322 31.916C92.9007 32.2333 93.3533 32.6813 93.68 33.26C94.0067 33.8387 94.17 34.506 94.17 35.262C94.17 36.018 94.0067 36.69 93.68 37.278C93.3533 37.8567 92.9007 38.3047 92.322 38.622C91.7527 38.9393 91.104 39.098 90.376 39.098C89.368 39.098 88.57 38.762 87.982 38.09V41.716H86.232V31.524H87.898V32.504C88.1873 32.1493 88.542 31.8833 88.962 31.706C89.3913 31.5287 89.8627 31.44 90.376 31.44ZM90.18 37.6C90.824 37.6 91.3513 37.3853 91.762 36.956C92.182 36.5267 92.392 35.962 92.392 35.262C92.392 34.562 92.182 33.9973 91.762 33.568C91.3513 33.1387 90.824 32.924 90.18 32.924C89.76 32.924 89.382 33.022 89.046 33.218C88.71 33.4047 88.444 33.6753 88.248 34.03C88.052 34.3847 87.954 34.7953 87.954 35.262C87.954 35.7287 88.052 36.1393 88.248 36.494C88.444 36.8487 88.71 37.124 89.046 37.32C89.382 37.5067 89.76 37.6 90.18 37.6ZM102.905 39.14C102.149 39.14 101.416 39.0327 100.707 38.818C100.007 38.6033 99.4514 38.3187 99.0408 37.964L99.6708 36.55C100.072 36.8673 100.562 37.1287 101.141 37.334C101.729 37.53 102.317 37.628 102.905 37.628C103.633 37.628 104.174 37.5113 104.529 37.278C104.893 37.0447 105.075 36.7367 105.075 36.354C105.075 36.074 104.972 35.8453 104.767 35.668C104.571 35.4813 104.319 35.3367 104.011 35.234C103.703 35.1313 103.283 35.0147 102.751 34.884C102.004 34.7067 101.397 34.5293 100.931 34.352C100.473 34.1747 100.077 33.8993 99.7408 33.526C99.4141 33.1433 99.2508 32.63 99.2508 31.986C99.2508 31.4447 99.3954 30.9547 99.6848 30.516C99.9834 30.068 100.427 29.7133 101.015 29.452C101.612 29.1907 102.34 29.06 103.199 29.06C103.796 29.06 104.384 29.1347 104.963 29.284C105.541 29.4333 106.041 29.648 106.461 29.928L105.887 31.342C105.457 31.09 105.009 30.8987 104.543 30.768C104.076 30.6373 103.623 30.572 103.185 30.572C102.466 30.572 101.929 30.6933 101.575 30.936C101.229 31.1787 101.057 31.5007 101.057 31.902C101.057 32.182 101.155 32.4107 101.351 32.588C101.556 32.7653 101.813 32.9053 102.121 33.008C102.429 33.1107 102.849 33.2273 103.381 33.358C104.109 33.526 104.706 33.7033 105.173 33.89C105.639 34.0673 106.036 34.3427 106.363 34.716C106.699 35.0893 106.867 35.5933 106.867 36.228C106.867 36.7693 106.717 37.2593 106.419 37.698C106.129 38.1367 105.686 38.4867 105.089 38.748C104.491 39.0093 103.763 39.14 102.905 39.14ZM112.997 38.594C112.792 38.762 112.54 38.888 112.241 38.972C111.952 39.056 111.644 39.098 111.317 39.098C110.496 39.098 109.861 38.8833 109.413 38.454C108.965 38.0247 108.741 37.3993 108.741 36.578V32.98H107.509V31.58H108.741V29.872H110.491V31.58H112.493V32.98H110.491V36.536C110.491 36.9 110.58 37.18 110.757 37.376C110.935 37.5627 111.191 37.656 111.527 37.656C111.919 37.656 112.246 37.5533 112.507 37.348L112.997 38.594ZM117.551 39.098C116.795 39.098 116.114 38.9347 115.507 38.608C114.9 38.2813 114.424 37.8287 114.079 37.25C113.743 36.662 113.575 35.9993 113.575 35.262C113.575 34.5247 113.743 33.8667 114.079 33.288C114.424 32.7093 114.9 32.2567 115.507 31.93C116.114 31.6033 116.795 31.44 117.551 31.44C118.316 31.44 119.002 31.6033 119.609 31.93C120.216 32.2567 120.687 32.7093 121.023 33.288C121.368 33.8667 121.541 34.5247 121.541 35.262C121.541 35.9993 121.368 36.662 121.023 37.25C120.687 37.8287 120.216 38.2813 119.609 38.608C119.002 38.9347 118.316 39.098 117.551 39.098ZM117.551 37.6C118.195 37.6 118.727 37.3853 119.147 36.956C119.567 36.5267 119.777 35.962 119.777 35.262C119.777 34.562 119.567 33.9973 119.147 33.568C118.727 33.1387 118.195 32.924 117.551 32.924C116.907 32.924 116.375 33.1387 115.955 33.568C115.544 33.9973 115.339 34.562 115.339 35.262C115.339 35.962 115.544 36.5267 115.955 36.956C116.375 37.3853 116.907 37.6 117.551 37.6ZM124.88 32.616C125.384 31.832 126.271 31.44 127.54 31.44V33.106C127.391 33.078 127.256 33.064 127.134 33.064C126.453 33.064 125.921 33.2647 125.538 33.666C125.156 34.058 124.964 34.6273 124.964 35.374V39H123.214V31.524H124.88V32.616ZM135.985 35.304C135.985 35.4253 135.975 35.598 135.957 35.822H130.091C130.193 36.3727 130.459 36.8113 130.889 37.138C131.327 37.4553 131.869 37.614 132.513 37.614C133.334 37.614 134.011 37.3433 134.543 36.802L135.481 37.88C135.145 38.2813 134.72 38.5847 134.207 38.79C133.693 38.9953 133.115 39.098 132.471 39.098C131.649 39.098 130.926 38.9347 130.301 38.608C129.675 38.2813 129.19 37.8287 128.845 37.25C128.509 36.662 128.341 35.9993 128.341 35.262C128.341 34.534 128.504 33.8807 128.831 33.302C129.167 32.714 129.629 32.2567 130.217 31.93C130.805 31.6033 131.467 31.44 132.205 31.44C132.933 31.44 133.581 31.6033 134.151 31.93C134.729 32.2473 135.177 32.7 135.495 33.288C135.821 33.8667 135.985 34.5387 135.985 35.304ZM132.205 32.84C131.645 32.84 131.169 33.008 130.777 33.344C130.394 33.6707 130.161 34.1093 130.077 34.66H134.319C134.244 34.1187 134.015 33.68 133.633 33.344C133.25 33.008 132.774 32.84 132.205 32.84Z" fill="white"/>
</svg>
