<svg width="80" height="80" viewBox="0 0 80 80" fill="none" xmlns="http://www.w3.org/2000/svg">
<path fill-rule="evenodd" clip-rule="evenodd" d="M52.3137 33.3333V33.3333C52.3137 25.9695 46.8709 20 40.1569 20C33.4428 20 28 25.9696 28 33.3333L35.451 49.8039H44.4706L52.3137 33.3333ZM35.0588 50.5882H45.2549V52.1569C46.1212 52.1569 46.8235 52.8592 46.8235 53.7255C46.8235 54.5918 46.1212 55.2941 45.2549 55.2941V56.0784C46.1212 56.0784 46.8235 56.7807 46.8235 57.647C46.8235 58.5134 46.1212 59.2157 45.2549 59.2157V60H35.0588L35.0588 58.4314C34.1925 58.4314 33.4902 57.7291 33.4902 56.8628C33.4902 55.9964 34.1925 55.2941 35.0588 55.2941V54.5098C34.1925 54.5098 33.4902 53.8075 33.4902 52.9412C33.4902 52.0749 34.1925 51.3726 35.0588 51.3726L35.0588 50.5882ZM38.1961 27.0588C38.1961 28.3583 37.1426 29.4117 35.8431 29.4117C34.5436 29.4117 33.4902 28.3583 33.4902 27.0588C33.4902 25.7593 34.5436 24.7059 35.8431 24.7059C37.1426 24.7059 38.1961 25.7593 38.1961 27.0588ZM48.8537 33.1335L42.9714 47.2511L42.0483 46.8665L47.9306 32.7488L48.8537 33.1335Z" fill="#AFB9C4"/>
</svg>
