<svg width="64" height="64" viewBox="0 0 64 64" fill="none" xmlns="http://www.w3.org/2000/svg">
<path d="M26.6165 37.8191H27.5228V42.8944H26.9885V38.2961H26.975L25.7345 42.8944H25.297L24.0565 38.2961H24.044V42.8944H23.5092V37.8191H24.3955L25.5071 42.0017H25.5271L26.6165 37.8191ZM29.7272 28.4922H28.0549V33.6251L25.7844 28.4922H23.3799V36.5343H25.06V30.3111L28.0041 36.5343H29.7272V28.4922ZM30.6031 41.9484L30.9682 42.1909C30.7746 42.6537 30.2919 43 29.6713 43C28.8679 43 28.2281 42.4456 28.2281 41.0957C28.2281 39.7445 28.8683 39.1888 29.6713 39.1888C30.7099 39.1888 31.0085 40.2993 30.9386 41.1798H28.7632C28.7632 42.2093 29.2012 42.5701 29.7238 42.5701C30.1014 42.5701 30.4213 42.2617 30.6031 41.9484ZM28.778 40.7494H30.4017C30.4152 40.2848 30.1674 39.6213 29.6309 39.6213C29.0575 39.6213 28.7823 40.2386 28.778 40.7494ZM36.7161 34.7994C36.6779 35.32 36.8021 36.5585 38.4037 36.625C38.7526 36.6377 39.0994 36.5722 39.418 36.4336V35.1866C38.9002 35.6231 38.2244 35.5092 38.2695 34.9341V32.0561H39.4484V30.7326H38.2982V29.2745H36.7161V30.7326H36.0178V32.0561H36.7161V34.7994ZM12.4842 36.6734C12.4834 39.0753 9.73764 38.8368 9.73764 38.8368C7.03098 38.898 7.00581 37.1653 7.00581 37.1653C6.93159 36.3425 7.59306 36.0024 7.59306 36.0024C6.49452 35.041 7.90427 34.1434 7.90427 34.1434C7.38125 33.5384 7.31224 33.1332 7.31224 33.1332C7.25972 32.962 7.23021 32.7781 7.23021 32.5894C7.23021 31.3878 8.26756 30.5434 9.54536 30.5434C10.3271 30.5324 10.9317 30.9566 10.9317 30.9566C11.532 30.2843 12.4335 30.5271 12.4335 30.5271V31.6896C11.9834 31.4718 11.7151 31.5633 11.591 31.6381C11.7611 31.9228 11.8588 32.2457 11.8588 32.5894C11.8588 33.7197 10.8227 34.6362 9.54493 34.6362C9.54493 34.6362 9.35135 34.612 8.98112 34.5733C8.77148 34.5733 8.60177 34.7211 8.60177 34.9033C8.60177 35.0841 8.77148 35.2306 8.98112 35.2306H9.18858C10.5732 35.2188 11.1227 35.3191 11.1227 35.3191C11.1227 35.3191 12.4695 35.3961 12.4842 36.6734ZM8.77755 32.5766C8.77755 33.1143 9.12956 33.5499 9.5649 33.5499C9.99807 33.5499 10.3505 33.1143 10.3505 32.5766C10.3505 32.0381 9.99807 31.6016 9.5649 31.6016C9.12956 31.6016 8.77755 32.0381 8.77755 32.5766ZM11.2355 36.9695C11.209 36.5466 10.5246 36.5722 10.5246 36.5722L8.54144 36.434C8.54144 36.434 8.29186 36.5097 8.32876 36.9699C8.32876 37.3303 8.93728 37.6224 9.74025 37.6224C10.5428 37.6224 11.2355 37.3303 11.2355 36.9695ZM29.6856 38.7589L30.3753 37.8191H29.775L29.3179 38.7589H29.6856ZM20.4558 33.0184C20.1563 32.9356 19.7561 32.8415 19.7483 32.3918C19.7413 32.0851 20.0669 31.7785 20.4558 31.7785C20.9289 31.7785 21.1342 32.2211 21.1784 32.4873L22.5001 32.3227C22.4128 31.3482 21.5365 30.6116 20.5152 30.6134C19.2704 30.6156 18.3806 31.4423 18.3806 32.493C18.3806 32.9739 18.5503 33.3721 18.9505 33.6792C19.3268 33.9639 19.737 34.0488 20.1993 34.1676C20.6598 34.2873 21.2227 34.37 21.2409 34.8892C21.254 35.2751 20.8165 35.4704 20.4041 35.4704C19.9718 35.4704 19.6202 35.0648 19.5951 34.6851L18.283 34.8126C18.4101 35.9905 19.2322 36.6593 20.4471 36.6413C21.1541 36.6298 21.6646 36.4072 22.0465 36.0486C22.448 35.6702 22.5752 35.2047 22.5391 34.6353C22.4584 33.4359 21.4423 33.2951 20.4558 33.0184ZM17.4974 35.7762C17.5091 36.0596 17.5859 36.3319 17.7213 36.5343H16.2044L16.0004 36.0407C16.0004 36.0407 15.4899 36.6228 14.5537 36.6228C13.841 36.6228 12.6835 36.1797 12.6331 35.041C12.6162 34.6437 12.6696 33.7391 13.8345 33.2612C14.5147 32.9805 15.1657 32.841 15.9709 32.7834L15.9826 32.4301C15.9826 32.1907 15.8537 31.7661 15.2595 31.7661C14.6748 31.7661 14.4083 32.2334 14.4313 32.4965L12.9209 32.2334C13.0958 31.5752 13.2551 31.2162 13.7039 30.9544C14.1648 30.6802 14.759 30.5887 15.3649 30.5887C16.4999 30.5887 17.5863 31.0454 17.4978 32.6558L17.4974 35.7762ZM15.9392 33.8909C15.1657 34.0295 14.3172 34.0796 14.1739 34.7497C14.0728 35.217 14.3975 35.4757 14.8662 35.4198C15.7508 35.3195 16.0247 34.6252 15.9392 33.8909ZM43.3803 34.748C42.58 35.5228 42.2136 35.3635 42.2136 35.3635C41.6828 35.2249 41.7514 34.5108 41.7514 34.5108V30.733H40.1984V34.48L40.2019 35.1937C40.2592 36.0803 40.9562 36.6606 41.6294 36.6606C42.3912 36.6606 42.9285 36.2941 43.3382 35.9742L43.3395 36.5343H44.9003V30.7326H43.3812V34.748H43.3803ZM45.896 26.8123C45.84 26.866 45.7554 26.8866 45.7146 26.9416C45.6417 27.1638 45.5661 27.3887 45.4906 27.6109C45.4589 27.683 45.4264 27.7543 45.3938 27.826C45.3847 27.8471 45.3747 27.8687 45.3656 27.8898C45.2862 28.101 45.2107 28.3206 45.1035 28.5155C45.0935 28.5353 45.0826 28.5546 45.0718 28.5736C44.9793 28.7302 44.8222 28.8807 44.6707 28.9779C44.5809 29.0378 44.4832 29.0677 44.4003 29.1517C44.1768 29.3766 43.5904 30.0044 43.2805 29.9767C42.8165 29.938 43.0865 29.1372 43.1325 28.886C43.1559 28.7597 43.1512 28.6176 43.1794 28.4922C43.1841 28.4706 43.1898 28.4491 43.1972 28.4284C43.2124 28.4011 43.2271 28.3734 43.2423 28.3457L43.3703 28.0482C43.3703 28.0482 43.4129 27.9989 43.4815 27.9307C43.4867 27.9224 43.4914 27.9145 43.4967 27.9057C43.4967 27.9004 43.4967 27.8973 43.4967 27.892C43.4793 27.8916 43.4606 27.8916 43.4415 27.8916C43.1733 27.9083 42.9849 28.9128 42.7579 29.1073C42.6377 29.2094 42.4914 29.219 42.4003 29.0721C42.3886 29.0518 42.3834 29.0096 42.3803 28.963C42.3747 28.8754 42.3773 28.7711 42.3629 28.7663C42.2974 28.7386 42.0882 28.9528 42.0296 28.9946C41.56 29.3603 41.0092 29.5187 40.5396 29.0303C40.3946 28.8794 40.346 28.7012 40.2388 28.5362C40.1164 28.3487 39.9922 28.1609 39.8703 27.9743C39.7704 27.7495 39.7457 27.5004 39.7001 27.2439C39.6658 27.0468 39.6146 26.8215 39.5981 26.6161C39.5643 26.1959 39.7474 25.8131 39.8004 25.4224C39.8178 25.3018 39.6641 25.2345 39.675 25.0919C39.7683 24.4271 39.8625 23.7609 39.9584 23.0961C39.961 23.0838 39.964 23.0715 39.9666 23.0592C40.0313 22.752 40.1389 22.448 40.2418 22.1576C40.3386 21.8751 40.5383 21.007 40.9328 21.007C40.9328 21.0035 40.9328 21.0026 40.9328 21C41.0791 21 41.1229 21.0603 41.2331 21.1126C41.5578 21.268 41.7457 21.4479 41.9246 21.7665C41.9806 21.8646 42.024 21.9697 42.0778 22.0687C42.1017 22.1132 42.1268 22.1567 42.1572 22.1972C42.1889 22.2408 42.2241 22.2826 42.2601 22.3231C42.3699 22.4458 42.4919 22.5593 42.5895 22.6896C42.6156 22.7296 42.6416 22.7696 42.6676 22.8097C42.6833 22.8343 42.6993 22.8585 42.715 22.8832C42.8968 23.1648 43.0791 23.4459 43.2618 23.7262C43.3057 23.8151 43.3478 23.9031 43.3903 23.9911C43.4172 24.0474 43.445 24.1041 43.4724 24.16C43.5674 24.336 43.6833 24.5085 43.7714 24.6871C43.8487 24.8966 43.9211 25.1034 43.9967 25.3137C44.0514 25.4923 44.0739 25.7176 44.0722 25.9244C44.0691 26.0771 44.0019 26.3692 44.0388 26.5677C44.0496 26.6292 44.0709 26.682 44.1073 26.7186C44.1317 26.7432 44.1555 26.7533 44.179 26.7542C44.2228 26.7392 44.2514 26.7199 44.2514 26.693C44.2514 26.6645 44.281 26.6328 44.3226 26.6024C44.4103 26.3287 44.3574 25.9833 44.3938 25.6784C44.4333 25.3436 44.5709 25.04 44.7141 24.7544C44.741 24.7012 44.8066 24.5279 44.8899 24.5424C44.9793 24.5582 44.8708 24.7346 44.8352 24.7566C44.6599 24.8574 44.4646 25.4206 44.4342 25.623C44.432 25.8509 44.4264 26.0775 44.4233 26.3063C44.422 26.3688 44.4042 26.4704 44.4103 26.5474C44.445 26.528 44.4811 26.5109 44.5132 26.4959C44.5292 26.466 44.5492 26.4431 44.5761 26.4431C44.5796 26.4506 44.5839 26.4568 44.5878 26.4634C44.6095 26.4541 44.6226 26.4493 44.6226 26.4493L44.6147 26.4907C44.6278 26.4995 44.6429 26.5052 44.6616 26.5052C44.7254 26.5052 45.0696 26.1879 45.3582 25.9187C45.5323 25.7559 45.6868 25.6107 45.7463 25.5623C45.7723 25.5407 45.7988 25.5196 45.8253 25.4985C46.0987 25.2816 46.3926 25.1025 46.6881 24.9269C46.7038 24.9177 46.7194 24.9084 46.735 24.8992L46.7372 24.8847C46.7372 24.8847 46.7558 24.8781 46.781 24.8724C46.7919 24.8658 46.8032 24.8596 46.814 24.853C47.0957 24.6862 47.3756 24.5173 47.6382 24.3175C47.6487 24.3096 47.6599 24.3021 47.6699 24.2942C47.7485 24.2163 47.8275 24.138 47.9065 24.061C48.3119 23.7117 48.7216 23.3597 49.1292 23.0081C49.2464 22.9148 49.3562 22.8211 49.4725 22.7265C49.4955 22.7125 49.5233 22.6984 49.5484 22.6839C49.5866 22.8744 49.3614 23.0002 49.2837 23.1445C49.1279 23.4455 48.9256 23.7495 48.7012 24.0148C48.6391 24.0923 48.5792 24.1701 48.5163 24.2498C48.2633 24.4808 47.9577 24.6383 47.6951 24.8719C47.6734 24.8913 47.6513 24.9098 47.6309 24.9304C47.5349 25.0224 47.5189 25.1403 47.4434 25.2424C47.2871 25.4593 47.1026 25.6613 46.896 25.8496C46.7906 25.9319 46.6847 26.0141 46.5792 26.0964C46.5792 26.0964 46.4837 26.1703 46.4394 26.2051C46.416 26.2231 46.393 26.2412 46.37 26.2592C46.1959 26.4176 46.0557 26.6231 45.9077 26.8C45.9047 26.8044 45.9004 26.8083 45.896 26.8123ZM47.495 31.6905V30.7326H45.8765V36.5343H47.4668V33.8253C47.4776 33.4487 47.5467 33.0786 47.7433 32.7403C48.1921 31.969 49.2993 32.2471 49.2993 32.2471V30.6613C48.5597 30.6389 48.0814 30.8175 47.495 31.6905ZM44.2488 37.9775C44.3365 38.1328 44.3817 38.2987 44.3817 38.4698C44.3817 38.641 44.3365 38.8038 44.2523 38.9591C44.1668 39.1127 44.0475 39.2341 43.8934 39.3195C43.7419 39.4083 43.5796 39.4501 43.4142 39.4501C43.2427 39.4501 43.0835 39.4083 42.9285 39.3195C42.7757 39.2341 42.6594 39.1122 42.5752 38.9591C42.4875 38.8034 42.4445 38.6406 42.4445 38.4698C42.4445 38.2991 42.4875 38.1324 42.5774 37.9775C42.6642 37.8191 42.7848 37.6994 42.9354 37.615C43.0878 37.5309 43.2449 37.4882 43.4146 37.4882C43.5791 37.4882 43.7375 37.5309 43.8895 37.615C44.0422 37.6999 44.162 37.8191 44.2488 37.9775ZM44.1911 38.4707C44.1911 38.3326 44.1551 38.1993 44.0856 38.073C44.0158 37.948 43.9181 37.8499 43.7957 37.7839C43.6733 37.717 43.5444 37.6831 43.4138 37.6831C43.2788 37.6831 43.152 37.717 43.0288 37.7839C42.9081 37.8499 42.813 37.948 42.7401 38.073C42.6716 38.1993 42.636 38.3326 42.636 38.4707C42.636 38.6076 42.6698 38.7378 42.7371 38.8623C42.8074 38.9873 42.9029 39.085 43.027 39.1549C43.1494 39.224 43.2757 39.257 43.4138 39.257C43.547 39.257 43.6759 39.224 43.8005 39.1549C43.9229 39.085 44.0184 38.9873 44.0865 38.8623C44.1573 38.7382 44.1911 38.6076 44.1911 38.4707ZM55.3893 28.4922V36.5343H57V28.4922H55.3893ZM43.6 38.5341L43.7974 38.993H43.5796L43.3925 38.5574H43.2349V38.993H43.0288V37.9458H43.4346C43.6729 37.9458 43.7666 38.1201 43.7666 38.2525C43.7666 38.3664 43.7024 38.491 43.6 38.5341ZM43.5548 38.256C43.5548 38.1121 43.4138 38.1245 43.3105 38.1245H43.2349V38.3823H43.3256C43.4155 38.3823 43.5548 38.3876 43.5548 38.256ZM54.2517 35.7762C54.2625 36.0596 54.3385 36.3319 54.4756 36.5343H52.9582L52.7542 36.0407C52.7542 36.0407 52.2434 36.6228 51.3076 36.6228C50.5949 36.6228 49.4356 36.1797 49.3865 35.041C49.3679 34.6437 49.423 33.7391 50.5871 33.2612C51.2681 32.9805 51.9187 32.841 52.723 32.7834L52.736 32.4301C52.736 32.1907 52.6084 31.7661 52.012 31.7661C51.4278 31.7661 51.1635 32.2334 51.1848 32.4965L49.6743 32.2334C49.8462 31.5752 50.0064 31.2162 50.456 30.9544C50.9148 30.6802 51.5129 30.5887 52.1192 30.5887C53.2538 30.5887 54.3385 31.0454 54.2517 32.6558V35.7762ZM52.693 33.8909C51.9192 34.0295 51.0732 34.0796 50.9256 34.7497C50.8267 35.217 51.1513 35.4757 51.6188 35.4198C52.5047 35.3195 52.7785 34.6252 52.693 33.8909ZM35.3906 35.7762C35.4001 36.0596 35.4774 36.3319 35.6145 36.5343H34.0976L33.8923 36.0407C33.8923 36.0407 33.3805 36.6228 32.4452 36.6228C31.7347 36.6228 30.5732 36.1797 30.5263 35.041C30.5072 34.6437 30.5619 33.7391 31.726 33.2612C32.4057 32.9805 33.0581 32.841 33.8623 32.7834L33.8732 32.4301C33.8732 32.1907 33.746 31.7661 33.1509 31.7661C32.5667 31.7661 32.2994 32.2334 32.3245 32.4965L30.8123 32.2334C30.9868 31.5752 31.1457 31.2162 31.5958 30.9544C32.0567 30.6802 32.6492 30.5887 33.2568 30.5887C34.3892 30.5887 35.4778 31.0454 35.391 32.6558L35.3906 35.7762ZM33.8311 33.8909C33.0581 34.0295 32.2082 34.0796 32.065 34.7497C31.9656 35.217 32.2902 35.4757 32.7581 35.4198C33.6436 35.3195 33.9174 34.6252 33.8311 33.8909ZM34.6636 42.8944H35.1753V39.2935H34.6636V42.8944ZM34.6636 38.3823H35.1753V37.8191H34.6636V38.3823ZM33.9461 39.294H33.4053L32.7004 40.5589L31.9547 39.294H31.3497L32.4057 40.9976L31.3497 42.8948H31.9018L32.7 41.4526L33.5685 42.8948H34.1813L33.006 40.9976L33.9461 39.294ZM37.322 42.5701C36.539 42.5701 36.388 41.7086 36.388 41.0953C36.388 40.481 36.5395 39.6209 37.322 39.6209C37.7257 39.6068 37.9219 39.9658 38.046 40.2989L38.4753 40.1027C38.2817 39.5619 37.9158 39.1884 37.322 39.1884C36.5186 39.1884 35.8789 39.7441 35.8789 41.0953C35.8789 42.4452 36.5191 42.9996 37.322 42.9996C37.9019 42.9996 38.365 42.5763 38.5751 42.0272L38.1632 41.8459C38.0078 42.1975 37.7587 42.5508 37.322 42.5701ZM42.06 41.0953C42.06 42.4452 41.4198 42.9996 40.6172 42.9996C39.8147 42.9996 39.1758 42.4452 39.1758 41.0953C39.1758 39.7441 39.8151 39.1884 40.6172 39.1884C41.4202 39.1884 42.06 39.7441 42.06 41.0953ZM41.5509 41.0953C41.5509 40.481 41.4016 39.6209 40.6172 39.6209C39.8338 39.6209 39.6845 40.481 39.6845 41.0953C39.6845 41.7086 39.8342 42.5701 40.6172 42.5701C41.402 42.5701 41.5509 41.7086 41.5509 41.0953Z" fill="#203D5C"/>
</svg>
