<svg width="64" height="64" viewBox="0 0 64 64" fill="none" xmlns="http://www.w3.org/2000/svg">
<path d="M43.1224 23.0141C44.1966 25.9714 44.301 29.2059 43.8486 32.2961C43.7481 33.0877 43.4444 33.9813 42.669 34.3407C42.2097 34.4957 41.6209 34.4534 41.3033 34.0477C40.7893 33.4255 40.9503 32.5688 40.9937 31.8289C41.161 30.6612 41.226 29.4757 41.1709 28.2986C41.166 27.7619 40.9868 27.1795 40.526 26.863C40.136 26.5691 39.5743 26.6257 39.1888 26.8955C38.5356 27.3189 38.1068 28.0022 37.7548 28.6811C36.8967 30.4534 36.4201 32.3729 35.7776 34.2279C35.4576 35.089 34.9373 35.9102 34.1673 36.4345C33.2452 37.0848 32.072 37.2571 30.9668 37.2162C29.5548 37.1498 28.2852 36.2631 27.5452 35.0914C26.6207 33.5983 25.799 32.045 24.8971 30.54C24.6121 30.1019 24.2266 29.5421 23.6289 29.6066C23.0017 29.6647 22.7639 30.3667 22.7846 30.9098C22.8269 32.7658 23.7269 34.4573 24.0459 36.2651C24.1586 36.8229 23.9982 37.5225 23.4374 37.7745C23.0948 37.8223 22.7349 37.8646 22.3942 37.776C21.8965 37.586 21.6375 37.07 21.4145 36.6215C20.6337 34.7542 20.1493 32.7722 19.9007 30.768C19.9346 29.74 19.8386 28.7003 20.0552 27.6871C20.3526 26.0334 20.806 24.2833 22.0328 23.0624C23.0893 21.9926 24.9084 21.6736 26.1884 22.5169C27.432 23.3789 28.201 24.7165 29.0167 25.9532C29.6154 26.9063 30.1742 28.0268 31.2735 28.4847C32.0302 28.8539 33.0035 28.6269 33.5603 28.0061C33.9605 27.595 34.1579 27.0451 34.3677 26.5233C34.8166 25.3989 35.2642 24.2774 35.7545 23.1721C36.3128 21.7558 37.4141 20.4398 38.9466 20.0721C39.7013 19.9539 40.5407 19.9377 41.2132 20.3645C42.1845 20.9425 42.7389 21.9876 43.1224 23.0141ZM39.2686 43.6045C39.0771 43.4144 39.083 43.1259 39.0781 42.8749C39.0835 42.2836 39.0717 41.6899 39.086 41.0976C39.3646 41.0927 39.6467 41.0917 39.9288 41.0961C39.98 40.8544 39.9544 40.6058 39.9475 40.3611C39.6649 40.3385 39.3813 40.3473 39.0978 40.3567C39.0579 40.081 39.0938 39.8014 39.0727 39.5247C38.7984 39.5158 38.5208 39.503 38.2461 39.5242C38.1353 39.5537 38.2003 39.7078 38.1806 39.7881C38.1904 40.8928 38.1786 41.9981 38.1845 43.1028C38.1968 43.5139 38.2933 43.9683 38.6315 44.2376C39.0096 44.5433 39.5172 44.5512 39.978 44.5462C40.0258 44.2947 40.0228 44.0352 39.9874 43.7802C39.7447 43.7581 39.4586 43.7866 39.2686 43.6045ZM23.2272 41.7726C23.2203 41.425 23.1765 41.0489 22.9421 40.7747C22.6251 40.4084 22.122 40.2681 21.6508 40.2681C21.1359 40.2577 20.5382 40.2597 20.1532 40.66C19.8106 40.3867 19.3734 40.2671 18.9372 40.2681C18.4001 40.2489 17.8064 40.2956 17.3884 40.6698C17.0979 40.9248 17.0152 41.326 17.0088 41.6968C16.9946 42.5086 17.0103 43.3204 17.001 44.1327C16.9965 44.271 17.0074 44.4084 17.0364 44.5453C17.317 44.5413 17.5996 44.5433 17.8822 44.5433C17.9181 43.5685 17.8595 42.5933 17.9211 41.62C17.9275 41.4363 18.0255 41.2586 18.1855 41.168C18.4375 41.0252 18.7378 41.0474 19.0165 41.0612C19.3187 41.0705 19.6447 41.2896 19.6461 41.6165C19.6929 42.5859 19.6698 43.5552 19.6698 44.5241C19.9489 44.5576 20.2305 44.5467 20.5101 44.5379C20.6027 44.4596 20.55 44.306 20.5668 44.2001C20.5643 43.4395 20.5608 42.6794 20.5712 41.9198C20.5825 41.6854 20.5594 41.4043 20.7592 41.2389C21.0295 41.0056 21.4116 41.0449 21.7399 41.0661C22.0284 41.0858 22.3135 41.3118 22.3085 41.619C22.3647 42.5741 22.3095 43.5336 22.3391 44.4906L22.3676 44.531C22.6418 44.5586 22.9146 44.5339 23.1873 44.5448C23.2489 44.3602 23.2267 44.1647 23.2282 43.9737C23.2272 43.2411 23.2297 42.5071 23.2272 41.7726ZM27.7973 42.0744C27.8076 42.7188 27.8455 43.4233 27.4916 43.9944C27.1642 44.5103 26.4946 44.628 25.928 44.6147C25.387 44.6299 24.7696 44.5517 24.3895 44.1234C23.9789 43.6109 23.9829 42.9103 23.9819 42.287C23.9981 41.777 24.0444 41.2182 24.3639 40.7978C24.5421 40.5704 24.8075 40.4291 25.0807 40.3528C25.7286 40.2252 26.4474 40.1982 27.0559 40.4936C27.6294 40.7865 27.7737 41.4865 27.7973 42.0744ZM26.8309 41.5939C26.7649 41.3369 26.5626 41.1104 26.2894 41.0725C26.0122 41.0395 25.7257 41.0346 25.451 41.0828C25.1945 41.1375 25.0059 41.3615 24.9562 41.6121C24.8636 42.1556 24.8636 42.7099 24.9532 43.2529C25.0039 43.4666 25.1255 43.6901 25.3456 43.762C25.6764 43.8708 26.0398 43.8659 26.3755 43.7832C26.6197 43.7334 26.7762 43.5075 26.8319 43.2781C26.9313 42.7217 26.9274 42.1507 26.8309 41.5939ZM37.1275 42.4938C36.6692 42.1379 36.0829 42.0276 35.5635 41.7898C35.4163 41.7179 35.2528 41.587 35.2957 41.3999C35.2932 41.1803 35.53 41.0696 35.7136 41.0376C36.1877 40.9627 36.6672 41.0459 37.1339 41.1276C37.1605 41.1173 37.2112 41.0956 37.2368 41.0848C37.2413 40.8815 37.2427 40.6777 37.2334 40.4758C37.2167 40.3557 37.0498 40.3848 36.968 40.3523C36.3236 40.2558 35.6142 40.1755 35.0111 40.4768C34.3524 40.8081 34.2229 41.8499 34.8038 42.3156C35.3026 42.6853 35.9588 42.7483 36.4826 43.0708C36.745 43.2608 36.6357 43.7014 36.331 43.7812C35.7402 43.9737 35.1086 43.8191 34.5232 43.6778C34.5158 43.919 34.4563 44.1854 34.5488 44.4133C35.0313 44.6132 35.5758 44.626 36.0912 44.6038C36.6352 44.5733 37.2344 44.3129 37.4283 43.7669C37.5504 43.3347 37.5111 42.7867 37.1275 42.4938ZM44.0863 42.5091C44.0745 42.9851 44.139 43.4927 43.9268 43.9392C43.7235 44.3661 43.2263 44.5438 42.7876 44.5994C42.2387 44.6344 41.6489 44.6408 41.1561 44.3661C40.3428 43.9107 40.3738 42.5263 41.2058 42.1054C41.8173 41.7819 42.5356 41.8878 43.1953 41.9626C43.211 41.6534 43.1623 41.267 42.8413 41.1286C42.249 40.8997 41.6125 41.0917 41.001 41.0853C41.0001 40.8972 40.9932 40.7087 40.9991 40.5211C40.973 40.4138 41.0906 40.3523 41.1788 40.3483C41.7838 40.2661 42.4071 40.2159 43.0101 40.3488C43.3961 40.4468 43.7747 40.6836 43.9411 41.0582C44.1494 41.5131 44.0696 42.0241 44.0863 42.5091ZM43.1957 42.7114C42.7753 42.6016 42.3278 42.576 41.9015 42.6592C41.4766 42.7365 41.3107 43.3214 41.5943 43.6301C41.8399 43.8969 42.2382 43.8762 42.5705 43.8659C42.794 43.856 43.0535 43.7635 43.1441 43.539C43.2213 43.2702 43.1825 42.9861 43.1957 42.7114ZM46.9895 40.2833C46.3756 40.24 45.6548 40.2282 45.1901 40.6979C44.7721 41.1188 44.8588 41.7524 44.8435 42.292C44.8642 43.0432 44.8056 43.7999 44.876 44.5477C45.1645 44.532 45.455 44.5635 45.743 44.5251C45.7513 43.6069 45.7331 42.6868 45.7513 41.7681C45.7567 41.5633 45.7759 41.3201 45.9581 41.1882C46.2515 40.9622 46.6454 41.0883 46.9846 41.0307C47.0018 40.782 47.0062 40.532 46.9895 40.2833ZM31.0367 40.3784C30.9825 41.3836 30.7078 42.3678 30.3145 43.2894C30.2623 43.4184 30.2067 43.5503 30.1215 43.6606C29.6184 42.6395 29.2949 41.5185 29.2201 40.3803C28.9148 40.3173 28.5968 40.3518 28.2881 40.3577C28.3255 41.81 28.906 43.1781 29.5898 44.4384L29.6632 44.528C29.8881 44.5605 30.119 44.5384 30.3465 44.5448C30.4563 44.5379 30.6163 44.5718 30.662 44.4335C31.3163 43.1658 31.9238 41.8085 31.9637 40.3596C31.6565 40.3503 31.3429 40.3198 31.0367 40.3784ZM32.7017 40.3611C32.682 41.7558 32.7051 43.1515 32.7214 44.5453C33.0064 44.5182 33.3141 44.5901 33.5859 44.5113C33.6095 43.1279 33.6021 41.7421 33.5883 40.3587C33.2934 40.3414 32.9951 40.339 32.7017 40.3611Z" fill="#203D5C"/>
</svg>
