<svg width="64" height="64" viewBox="0 0 64 64" fill="none" xmlns="http://www.w3.org/2000/svg">
<path d="M32.3364 29.0567C32.3364 29.0567 32.3295 28.4821 32.9273 27.8181C33.1547 27.5724 34.2077 26.5804 34.7981 27.2435C35.3355 27.8553 34.2759 28.4594 33.6399 28.7579C32.9055 29.1085 32.3364 29.0567 32.3364 29.0567ZM15.4546 38.8567H55.725V38.3943H15.4546V38.8567ZM16.0307 35.4937C16.0307 35.4937 14.8259 36.4775 13.539 37.4845C12.2438 38.4987 10.093 39.8932 8.85825 39.5802C7.61611 39.2745 6.80569 37.7161 7.04047 36.0383C7.27525 34.3523 9.77432 31.2196 9.77432 31.2196C9.77432 31.2196 9.38085 31.0111 8.25218 30.3394C7.11612 29.7426 7.01743 29.0417 7.01743 29.0417C7.01743 29.0417 7.32829 29.2506 8.64609 29.743C9.95606 30.2349 10.8047 30.1304 10.8047 30.1304C10.8047 30.1304 11.9325 29.019 14.4325 27.4383C16.9237 25.8577 19.7567 25.1114 19.7567 25.1114L19.3698 24.2008L19.5519 24C20.6497 24.5664 23.1644 25.0588 23.1644 25.0588L23.5431 25.4689C23.9701 25.632 24.3875 25.8187 24.7931 26.0289C25.5583 26.4314 26.3079 26.9237 26.3079 26.9237C26.5313 26.9464 26.7505 26.9991 26.9591 27.08C27.3074 27.2071 27.2396 27.3339 27.2617 27.5201C27.2922 27.6986 27.3604 27.9825 27.3604 27.9825C27.3604 27.9825 27.2926 28.1392 27.1561 28.4226C27.027 28.7056 26.83 28.8927 26.83 28.8927C26.83 28.8927 26.6483 28.9445 26.0957 28.8627C25.5431 28.7882 25.2548 28.6316 25.2548 28.6316C25.2548 28.6316 25.2244 28.602 24.5731 28.6838C23.914 28.7587 22.9901 28.4526 22.9901 28.4526L22.5432 28.6542C22.5432 28.6542 21.3084 29.0417 20.7558 28.9672C20.2032 28.8927 20.0219 28.6016 20.0219 28.6016C20.0219 28.6016 18.8172 29.3029 18.5598 29.4814C18.295 29.6685 16.0607 31.1451 13.932 31.5852C11.796 32.0249 11.4556 31.6897 11.4556 31.6897C11.4556 31.6897 10.7739 32.6958 10.3043 33.6805C9.82693 34.6652 9.41085 36.5816 10.2743 37.6635C11.1452 38.7518 13.6373 36.6038 14.8794 35.6491C16.1142 34.6875 17.2428 33.5988 17.8485 32.8003C18.4541 31.995 19.5976 31.1451 21.0745 30.571C22.544 30.0041 23.627 30.3167 24.0966 30.3916C24.574 30.4661 25.8613 30.3394 25.8613 30.3394C25.8613 30.3394 24.1953 32.7185 23.824 33.4493C23.3775 34.3146 23.877 34.1887 24.3618 33.8222C24.907 33.4198 26.6718 31.6593 26.6718 31.6593L29.0117 28.3486L31.4051 27.908C31.4051 27.908 28.1483 32.57 27.6183 33.502C27.0422 34.4036 27.8826 34.0389 28.1482 33.8372C28.4361 33.6805 29.0113 33.1064 29.9886 32.2784C30.9582 31.4504 31.276 30.6001 31.276 30.6001L33.7455 30.1604C33.7455 30.1604 31.6173 33.2926 31.4051 33.7028C31.1934 34.1207 31.5873 34.1207 31.8521 34.0385C32.1173 33.9635 33.0107 33.0092 33.3751 32.6954C33.7455 32.3829 35.4046 30.7564 36.9041 30.3612C38.4037 29.9738 39.7436 29.7194 39.8423 30.5179C39.9484 31.3232 39.5019 31.8901 37.768 33.3444C36.0333 34.7911 34.0638 35.2616 34.0638 35.2616C34.0638 35.2616 33.9568 35.3139 34.0103 35.7762C33.9807 36.2386 34.2225 36.2386 35.0329 35.903C35.8507 35.5673 37.1389 34.8737 38.4489 33.8595C39.7667 32.8521 41.191 30.6228 41.191 30.6228L43.6596 30.1304C43.6596 30.1304 41.7132 33.0615 41.4253 33.4493C41.1375 33.8372 41.6071 33.651 41.6071 33.651C41.6071 33.651 45.5539 30.6536 46.2887 30.2662C47.023 29.8783 46.7126 30.5719 46.7126 30.5719C46.7126 30.5719 45.0244 32.9814 44.5779 33.6296C44.1305 34.2786 44.3953 34.2491 44.3953 34.2491C44.3953 34.2491 46.0544 33.2421 46.7891 32.6162C47.5235 31.9971 48.2352 30.8035 48.2352 30.8035L47.5543 30.833L47.9474 30.2144H48.6521L49.3638 29.0212L51.8103 28.581L50.7047 30.0799L52.2042 30.0054C52.2042 30.0054 52.0751 30.1099 51.9699 30.2893C51.8638 30.4674 51.8103 30.6545 51.8103 30.6545L50.4925 30.6767C50.4925 30.6767 48.9478 32.9296 48.683 33.5041C48.2891 34.1455 48.6526 34.0928 48.6526 34.0928L49.2886 33.7576C49.2886 33.7576 51.2886 31.4303 53.7042 30.6254C56.1202 29.8273 56.885 30.2375 56.938 30.5504C56.9915 30.8566 57.355 31.0651 55.4385 32.96C53.5229 34.8468 51.129 35.2642 51.129 35.2642C51.129 35.2642 51.0764 35.2642 51.0229 35.8306C50.9703 36.3979 51.6521 36.1667 52.7577 35.727C53.8633 35.2865 55.3637 34.1232 55.3637 34.1232L55.3102 34.7718C55.3102 34.7718 53.1286 36.2707 51.9399 36.9421C50.7586 37.6134 49.5765 37.9563 48.8947 37.2777C48.2052 36.6064 49.2056 34.5334 49.2056 34.5334C49.2056 34.5334 46.4187 36.9421 45.577 37.4862C44.737 38.0308 44.7144 37.5384 44.7679 36.7331C44.8205 35.9351 46.4187 33.6831 46.4187 33.6831C46.4187 33.6831 42.0032 36.9416 41.1927 37.4862C40.3741 38.0308 40.6093 37.0238 40.6927 36.5537C40.7684 36.0914 42.2145 34.4058 42.6084 33.9661C43.0023 33.5268 42.2901 33.8394 42.2901 33.8394C42.2901 33.8394 37.8754 37.1283 37.2689 37.5384C36.6624 37.9563 36.9054 37.3073 37.0115 36.9198C37.1111 36.5323 38.4815 34.5107 38.4815 34.5107C38.4815 34.5107 35.9594 36.3748 34.1416 37.151C32.3312 37.9268 31.8843 37.4639 31.566 36.8153C31.2477 36.1667 32.1942 34.354 32.1942 34.354C32.1942 34.354 28.703 37.0469 28.0139 37.4866C27.3322 37.9263 27.2796 37.3299 27.3322 36.7854C27.3857 36.2412 28.8317 34.0928 28.8317 34.0928L24.0757 37.4121C23.4692 37.8223 23.2579 37.5162 23.3336 36.9198C23.4166 36.3234 24.6509 34.3022 24.6509 34.3022C24.6509 34.3022 20.365 37.2555 19.9171 37.4866C19.4784 37.7178 19.2437 37.4866 19.4254 36.7631C19.5993 36.0404 21.4401 33.8098 21.4401 33.8098C21.4401 33.8098 20.508 34.071 19.3189 34.9512C18.3724 35.6444 16.7437 36.9943 16.1911 37.4348C15.6385 37.8754 15.5098 37.4353 15.5098 36.9947C15.5081 36.5525 16.0307 35.4937 16.0307 35.4937ZM51.4377 34.524C51.9838 34.4268 52.5977 34.0393 53.4385 33.2781C54.2794 32.5173 54.9681 31.3245 54.6502 31.0779C54.3311 30.8317 53.3994 31.6375 52.5816 32.6667C51.7712 33.7032 51.4377 34.524 51.4377 34.524ZM34.299 34.524C34.8355 34.4268 35.4572 34.0393 36.2981 33.2781C37.1389 32.5173 37.8206 31.3245 37.5098 31.0779C37.1924 30.8317 36.2598 31.6375 35.442 32.6667C34.6242 33.7032 34.299 34.524 34.299 34.524ZM19.6128 33.9117C19.6128 33.9117 19.931 33.9712 21.4154 32.823C22.7714 31.7788 23.2558 30.9884 23.2558 30.9884C23.2558 30.9884 22.4001 30.8172 20.8245 32.1744C19.7871 33.0692 19.6128 33.9117 19.6128 33.9117ZM12.8795 30.2649C14.0307 30.1078 15.9016 29.5341 17.1511 29.0567C18.8706 28.4008 21.0745 27.2221 21.0745 27.2221C21.0745 27.2221 21.3393 27.476 21.9532 27.5432C22.5745 27.61 22.8318 27.4388 23.0818 27.4388C23.3318 27.4388 23.3618 27.5578 24.1266 27.595C24.8844 27.6327 25.0283 27.2221 25.0283 27.2221C25.0283 27.2221 24.7022 27.0659 24.3236 26.9087C23.937 26.7525 23.771 26.648 23.4149 26.4468C23.0584 26.2379 23.1797 25.9767 22.8466 25.9022C22.5205 25.8204 21.8236 25.7832 21.8236 25.7832C21.8236 25.7832 21.7406 25.6937 21.3993 25.4625C21.0584 25.2236 20.6649 25.2168 20.6649 25.2168C20.6649 25.2168 20.6945 25.3431 20.771 25.4702C20.8467 25.6046 21.0962 25.8136 21.0962 25.8136C21.0962 25.8136 19.0058 26.2755 16.5294 27.6259C14.0607 28.9672 12.8795 30.2649 12.8795 30.2649Z" fill="#203D5C"/>
</svg>
