<svg width="64" height="64" viewBox="0 0 64 64" fill="none" xmlns="http://www.w3.org/2000/svg">
<path d="M21.8714 26.6829C21.0849 26.2056 20.2201 25.9429 19.351 25.8759C19.351 25.8759 19.351 25.8759 19.351 25.8763C18.7131 25.3104 17.9253 24.8807 17.0244 24.6503C16.5457 24.5282 16.0644 24.4691 15.5914 24.4691C15.3566 24.4691 15.1244 24.484 14.8949 24.5121C14.1744 24.1841 13.3674 24 12.5153 24C9.46959 24 7 26.3487 7 29.2467C7 29.7613 7.16826 30.6816 7.31305 31.1511C7.31305 31.1511 10.9909 39.5365 12.3087 40.4606C12.3792 40.5541 12.4479 40.612 12.5148 40.6294C13.427 41.1837 22.2114 35.3736 22.2114 35.3736C22.5997 35.0522 23.2619 34.3627 23.5528 33.9292C25.1915 31.4857 24.4384 28.2419 21.8714 26.6829ZM20.491 30.9683C20.3658 31.4117 19.984 32.2001 19.7314 32.6001C19.5675 32.8011 18.1179 34.5761 16.5383 36.3597C15.0435 38.047 14.094 38.9955 13.4961 39.5295C15.1075 37.1006 17.7162 31.1507 17.7162 31.1507C17.861 30.6808 18.0297 29.7608 18.0297 29.2463C18.0297 27.4333 17.0627 25.8349 15.5931 24.8926C16.0353 24.8931 16.4775 24.9493 16.9083 25.0589C19.6088 25.7489 21.2162 28.3995 20.491 30.9683ZM45.9634 32.2344H42.256V25.8837H45.9634V27.3083H43.889V28.2953H45.9003V29.7195H43.889V30.8099H45.9634V32.2344ZM29.7506 35.6925C29.7506 36.5161 30.3385 37.3111 31.2898 37.3111C32.2024 37.3111 32.5737 36.5823 32.6663 36.3912H34.1976C33.865 37.6789 32.6894 38.5322 31.305 38.5322C29.5111 38.5322 28.2889 37.1709 28.2889 35.6996C28.2889 34.3085 29.418 32.8814 31.2898 32.8814C33.0841 32.8814 34.0433 34.1984 34.1976 35.0518H32.6663C32.5041 34.6468 32.0707 34.1029 31.282 34.1029C30.2998 34.1029 29.7506 34.9194 29.7506 35.6925ZM56.3378 32.2344H52.6304V25.8837H56.3378V27.3083H54.2626V28.2953H56.2743V29.7195H54.2626V30.8099H56.3378V32.2344ZM48.336 32.2344L46.1077 25.8837H47.8573L49.2017 30.3379H49.2195L50.5726 25.8837H52.3317L50.0943 32.2344H48.336ZM30.1767 32.2344H28.6071V25.8837H30.7993L32.1254 30.0632H32.1437L33.4515 25.8837H35.6524V32.2344H34.0828L34.1372 27.48L34.1189 27.463L32.6941 32.2344H31.5663L30.1411 27.463L30.1232 27.48L30.1767 32.2344ZM34.5676 32.984H36.0294V38.4296H34.5676V32.984ZM48.5021 32.984L46.2047 38.4296H47.7747L48.0764 37.642H50.0643L50.343 38.4296H51.9282L49.6543 32.984H48.5021ZM48.4786 36.5384L49.0664 34.6766H49.0821H49.0899L49.6782 36.5384H48.4786ZM56.4743 33.9999C55.7322 32.984 54.5869 32.984 53.9452 32.984H52.0504V38.4296H54.0534C56.2269 38.4296 57 37.1783 57 35.6925C57 35.096 56.8687 34.5149 56.4743 33.9999ZM54.1382 37.2081H53.5121V34.2055H54.1461C54.7961 34.2055 55.0904 34.4632 55.26 34.7064C55.4687 35.015 55.5387 35.405 55.5387 35.7145C55.5387 36.4867 55.2287 37.2081 54.1382 37.2081ZM46.036 33.9999C45.2934 32.984 44.1486 32.984 43.5068 32.984H41.612V38.4296H43.6151C45.7886 38.4296 46.5616 37.1783 46.5616 35.6925C46.5616 35.096 46.4299 34.5149 46.036 33.9999ZM43.6999 37.2081H43.0738V34.2055H43.7077C44.3577 34.2055 44.6516 34.4632 44.8216 34.7064C45.0303 35.015 45.0999 35.405 45.0999 35.7145C45.0999 36.4867 44.7903 37.2081 43.6999 37.2081ZM39.5946 32.984H41.0564V36.2733C41.0564 37.1854 40.8477 37.5907 40.4842 37.9436C40.1129 38.3043 39.5951 38.5322 38.8829 38.5322C38.4655 38.5322 37.7072 38.4371 37.2355 37.951C36.7637 37.4584 36.6633 37.0758 36.6633 36.2733V32.984H38.1251V36.2733C38.1251 36.6414 38.1481 37.3111 38.8677 37.3111C39.5951 37.3111 39.5951 36.7076 39.5951 36.2733V32.984H39.5946ZM39.8107 25.8842H41.5155V29.7199C41.5155 30.7842 41.272 31.2562 40.8481 31.6682C40.4151 32.0888 39.8107 32.3544 38.9811 32.3544C38.4942 32.3544 37.6103 32.2427 37.0598 31.6764C36.5094 31.1011 36.3924 30.6551 36.3924 29.7199V25.8842H38.0972V29.7199C38.0972 30.1493 38.1242 30.9302 38.9633 30.9302C39.8112 30.9302 39.8111 30.2266 39.8111 29.7199V25.8842H39.8107Z" fill="#203D5C"/>
</svg>
