<svg width="64" height="64" viewBox="0 0 64 64" fill="none" xmlns="http://www.w3.org/2000/svg">
<path d="M9 35.3754H11.8016V38.0222H9V35.3754ZM15.5373 25.6464H18.2617V23H15.5373V25.6464ZM51.2625 26.3467V28.993H54.0645V26.3467H51.2625ZM44.8025 41.29H47.6045V38.644H44.8025V41.29ZM15.4478 37.9746H18.2507V28.9467H15.4478V37.9746ZM20.741 28.9467H25.0216C25.7219 28.9467 26.8116 28.9467 26.8116 28.9467C26.8116 28.9467 26.1889 29.4913 25.8 29.8803L20.5853 35.3283V37.9746H30.3916V35.4067H26.1889C25.1769 35.4067 24.3986 35.4067 24.3986 35.4067C24.3986 35.4067 24.9436 34.8617 25.4886 34.317L30.4704 29.0243V26.378H20.741V28.9467ZM32.5709 28.8686H36.8516C37.8641 28.8686 38.6424 28.8686 38.6424 28.8686C38.6424 28.9463 38.0974 29.4913 37.5523 30.0364L32.5705 35.4067V38.1307H42.222V35.4848H37.9413C37.1629 35.4848 36.0729 35.4848 36.0729 35.4848C36.0729 35.4848 36.774 34.9389 37.1629 34.4723L42.378 28.9467V26.378H32.5705V28.8686H32.5709ZM47.5927 26.378H44.8687V35.4067H47.5927V26.378Z" fill="#203D5C"/>
</svg>
