<svg width="64" height="64" viewBox="0 0 64 64" fill="none" xmlns="http://www.w3.org/2000/svg">
<path d="M19.5986 38.413H19.5977C18.2151 39.6357 16.4369 40.3083 14.5969 40.3061C12.7569 40.3083 10.9787 39.6352 9.5952 38.413C8.40956 37.1956 12.3008 32.8913 14.5712 31.1497C14.5782 31.1444 14.5882 31.1379 14.5978 31.1379C14.6069 31.1379 14.6165 31.1449 14.6217 31.1497C16.8956 32.8913 20.7864 37.1956 19.5986 38.413ZM19.6003 38.4112L19.5986 38.413H19.5995L19.6003 38.4112ZM19.9355 27.2071L19.9282 27.2005L19.9347 27.2071C19.9438 27.2154 19.2612 26.6212 16.6873 29.201C16.6795 29.2075 16.673 29.2154 16.673 29.2268C16.673 29.2351 16.6791 29.2421 16.6838 29.2487C18.2134 31.0827 21.1712 35.4579 20.5916 37.2617C20.5873 37.2762 20.5882 37.2932 20.6008 37.3016C20.6147 37.309 20.6316 37.3016 20.6416 37.2884C21.6507 35.9572 22.1964 34.3285 22.1942 32.6531C22.1977 30.6058 21.3834 28.6435 19.9355 27.2071ZM14.5812 27.2583C14.586 27.2618 14.5908 27.2649 14.5978 27.2649C14.6047 27.2649 14.6086 27.2618 14.6139 27.2583C14.8243 27.1305 17.0608 25.85 18.5312 26.171C18.5464 26.1749 18.5625 26.1719 18.5682 26.1583C18.5738 26.1438 18.5699 26.1276 18.5556 26.1202C17.3925 25.4235 16.1312 25 14.5978 25C13.0687 25 11.7917 25.4235 10.6287 26.1272C10.6156 26.1351 10.61 26.1513 10.6161 26.1649C10.6222 26.1793 10.6382 26.1819 10.6526 26.1784C11.9534 25.8434 14.0204 26.9343 14.5812 27.2583ZM12.5139 29.2526C12.5187 29.2456 12.5247 29.239 12.5247 29.2299C12.5247 29.2193 12.5174 29.2115 12.5104 29.2045C9.96955 26.6575 9.26782 27.2005 9.25956 27.2067V27.2071C7.81174 28.643 6.9974 30.6054 7.00001 32.6522C6.9974 34.3277 7.54348 35.9563 8.55304 37.2876C8.56304 37.3007 8.57956 37.3081 8.59391 37.3007C8.60739 37.2924 8.60782 37.2753 8.6026 37.2608C8.02348 35.4575 10.9835 31.0853 12.5139 29.2526ZM32.805 28.1832H31.6067L29.0011 31.7496L26.3977 28.1832H25.2025L28.3981 32.5537L24.8942 37.362H26.0942L29.0024 33.3831L31.9133 37.362H33.1128L29.6081 32.5537L32.805 28.1832ZM53.4983 32.5537L56.693 28.1832H55.4957L52.8909 31.7488L50.2857 28.1832H49.0875L52.2848 32.5545L48.784 37.3633H49.9822L52.8909 33.3831L55.8026 37.3633H57L53.4983 32.5537ZM49.7188 32.7678C49.7188 35.5959 47.9344 37.5665 45.3766 37.5665C42.8162 37.5665 41.0267 35.5959 41.0267 32.7678C41.0267 29.9437 42.8162 27.9713 45.3766 27.9713C47.9344 27.9713 49.7188 29.9437 49.7188 32.7678ZM48.6827 32.7678C48.6827 30.5147 47.324 28.9413 45.3766 28.9413C43.4258 28.9413 42.0588 30.5151 42.0588 32.7678C42.0588 35.0204 43.4258 36.5952 45.3766 36.5952C47.324 36.5956 48.6827 35.0209 48.6827 32.7678ZM40.5619 34.6828C40.5619 36.3377 39.3167 37.3629 37.3115 37.3629L33.6093 37.362V33.0612H31.7154C31.8537 32.8541 32.2172 32.35 32.3767 32.1398H33.6093V28.1819H37.3106C40.0584 28.1819 40.2732 30.0921 40.2732 30.6794C40.2741 31.4497 39.8519 32.1569 39.1771 32.5177C39.3928 32.6172 39.5941 32.7459 39.7745 32.9009C40.291 33.3463 40.5619 33.9602 40.5619 34.6828ZM34.6328 32.1403H37.3115C38.5432 32.1403 39.2502 31.5653 39.2502 30.5992C39.2502 29.3223 38.0358 29.1405 37.3115 29.1405H34.6328V32.1403ZM39.541 34.6622C39.541 33.3458 38.3258 33.0638 37.3106 33.0638H34.6319V36.4056H37.3106C38.1436 36.4056 39.541 36.1783 39.541 34.6622Z" fill="#203D5C"/>
</svg>
