<svg width="64" height="64" viewBox="0 0 64 64" fill="none" xmlns="http://www.w3.org/2000/svg">
<path d="M10.6179 27.5058L7.6274 29.2206C7.33479 29.388 7 29.1788 7 28.8654V25.4149C7 25.101 7.33479 24.8918 7.6274 25.0592L10.6179 26.7949C10.8896 26.9623 10.8896 27.3593 10.6179 27.5058ZM10.6179 31.291L7.6274 29.5554C7.33479 29.388 7 29.5971 7 29.911V33.3615C7 33.6754 7.33479 33.8845 7.6274 33.7171L10.6179 32.0023C10.8896 31.8554 10.8896 31.4584 10.6179 31.291ZM10.6179 35.7872L7.6274 34.0515C7.33479 33.8841 7 34.0932 7 34.4071V37.8576C7 38.1711 7.33479 38.3802 7.6274 38.2128L10.6179 36.498C10.8896 36.3519 10.8896 35.9541 10.6179 35.7872ZM14.5492 28.928L11.5587 27.1923C11.2661 27.0249 10.9313 27.234 10.9313 27.5479V30.9984C10.9313 31.3332 11.2661 31.521 11.5587 31.3536L14.5492 29.6388C14.8214 29.4927 14.8214 29.0954 14.5492 28.928ZM18.7318 31.291L15.7414 29.5554C15.4488 29.388 15.114 29.5971 15.114 29.911V33.3615C15.114 33.6754 15.4488 33.8845 15.7414 33.7171L18.7318 32.0023C19.0036 31.8554 19.0036 31.4584 18.7318 31.291ZM14.5492 33.5284L11.5587 31.7928C11.2661 31.6254 10.9313 31.8345 10.9313 32.148V35.5985C10.9313 35.9124 11.2661 36.1215 11.5587 35.9541L14.5492 34.2393C14.8214 34.0932 14.8214 33.6958 14.5492 33.5284ZM52.3165 33.2628L51.5008 34.078C51.5008 34.078 50.8943 34.0989 50.7482 33.4715C50.016 33.9524 49.7652 34.078 49.0334 34.078C48.2808 34.078 47.4443 33.6597 47.4443 32.6141C47.4443 31.5684 48.2182 30.8158 50.5391 30.8158C50.5604 30.5441 50.6856 29.9584 49.8491 29.9793C49.0125 30.0001 48.1969 30.3975 47.9673 30.5023L47.549 29.561C47.549 29.561 48.6364 28.9754 49.9534 28.9754C51.2708 28.9754 51.8778 29.5397 51.8778 30.6693V32.4884C51.8773 32.9071 52.0026 33.0328 52.3165 33.2628ZM50.5386 31.5897C49.0121 31.548 48.7821 32.1962 48.7821 32.5306C48.7821 32.865 49.0121 33.1997 49.5143 33.1997C50.0165 33.1997 50.5386 32.8232 50.5386 32.8232V31.5897ZM39.4768 32.5936V27.5958L38.1172 27.094C38.1385 27.094 38.1385 32.5102 38.1385 32.8236C38.1385 33.1163 38.1385 33.6602 38.5985 33.911C39.059 34.1619 40.1877 33.9528 40.1877 33.9528V32.9071H39.7903C39.6229 32.9071 39.4768 32.761 39.4768 32.5936ZM31.5928 27.3866L30.2546 27.784V29.0806H29.4389V30.1888H30.2546V32.6563C30.2546 34.3084 31.4885 34.0784 31.8228 34.0784C32.2411 34.0784 32.7428 33.9741 32.7428 33.9741V32.9493H31.9902C31.7602 32.9493 31.5928 32.761 31.5928 32.5519V30.1888H32.7433V30.168V29.0597H31.5928V27.3866ZM38.0755 33.2419L37.2598 34.0576C37.2598 34.0576 36.6533 34.0784 36.5072 33.451C35.775 33.9319 35.5242 34.0576 34.7924 34.0576C34.0398 34.0576 33.2033 33.6393 33.2033 32.5936C33.2033 31.548 33.9772 30.7954 36.2985 30.7954C36.3194 30.5236 36.4446 29.938 35.6081 29.9588C34.7715 29.9797 33.9772 30.3771 33.7263 30.4819L33.3081 29.5406C33.3081 29.5406 34.3955 28.9549 35.7129 28.9549C37.0298 28.9549 37.6368 29.5197 37.6368 30.6488V32.4684C37.6364 32.8863 37.7616 33.0119 38.0755 33.2419ZM36.3189 31.5689C34.792 31.5271 34.5624 32.1754 34.5624 32.5102C34.5624 32.8449 34.792 33.1793 35.2946 33.1793C35.7963 33.1793 36.3189 32.8028 36.3189 32.8028V31.5689ZM25.7584 28.0766V27.4493H20.5932C20.4258 28.0349 20.1749 28.6623 20.1958 28.6623H22.4749V33.9741H23.8971V28.6623H25.2145C25.6328 28.6619 25.7584 28.411 25.7584 28.0766ZM29.5224 31.4228C29.5224 33.2628 28.5184 34.1202 27.055 34.1202C25.5915 34.1202 24.4619 33.2419 24.4619 31.5271C24.4619 29.7914 25.6328 28.934 27.055 28.934C28.2471 28.934 29.5224 29.5823 29.5224 31.4228ZM28.1632 31.4645C28.1632 30.2936 27.5358 30.0006 26.9923 30.0006C26.3023 30.0006 25.8841 30.5232 25.8841 31.5271C25.8841 32.531 26.3023 33.0536 26.9923 33.0536C27.6824 33.0536 28.1632 32.6354 28.1632 31.4645ZM46.5238 32.5936V27.5958L45.1647 27.094C45.1855 27.094 45.1856 32.5102 45.1856 32.8236C45.1856 33.1163 45.1856 33.6602 45.646 33.911C46.106 34.1619 47.3399 33.9528 47.3399 33.9528V32.9071H46.8382C46.6703 32.9071 46.5238 32.761 46.5238 32.5936ZM44.9342 32.2171C44.7877 33.0536 44.2442 33.9737 43.1777 34.0571C42.1112 34.1406 41.902 33.7645 41.5886 33.4923V34.9771L40.2294 36.1276V29.0593H41.4212L41.4842 29.5823C41.4842 29.5823 42.0277 28.6619 43.5334 28.9967C45.039 29.3314 45.0808 31.3806 44.9342 32.2171ZM43.5334 31.3806C43.5334 30.4393 43.1986 30.0423 42.5294 30.0423C41.8603 30.0423 41.5677 30.4606 41.5677 30.8371V32.0919C41.5677 32.4684 41.756 33.0745 42.5507 33.0745C43.3451 33.0745 43.5334 32.3215 43.5334 31.3806ZM55.5365 29.0806L54.4074 32.4054L53.2778 29.0806H51.7513L53.7169 33.8902C53.7169 33.9528 53.6121 34.141 53.5913 34.1828C53.5495 34.3084 53.4448 34.5176 53.3826 34.6428C53.2361 34.8728 53.0687 34.9776 52.8178 35.0193C52.7547 35.0402 52.1065 35.0611 52.1065 34.9776V36.128C54.093 36.3998 54.4904 35.5215 54.783 34.7267C55.0761 33.9319 57 29.0806 57 29.0806H55.5365Z" fill="#203D5C"/>
</svg>
