<svg width="64" height="64" viewBox="0 0 64 64" fill="none" xmlns="http://www.w3.org/2000/svg">
<path d="M25.3751 40.3916H29.1191V41.3956H23.992V36.2947H25.3751V40.3916ZM18.0209 41.4227H23.1502V40.3916H19.3791V39.1431L22.5804 39.1707V38.1391H19.3791V37.3267H23.1502V36.2951H18.0209V41.4227ZM12 37.3262H14.0347V41.4227H15.3907V37.3262H17.4258V36.2947H12V37.3262ZM33.1618 39.2516L32.0231 36.2947H29.6356V41.4227H30.9907V37.3262L32.6733 41.4227H33.6493L35.3858 37.3262V41.4227H36.7693V36.2947H34.3556L33.1618 39.2516ZM49.3058 36.2947H47.6236L46.3391 37.7307L45.1 36.2947H43.4173L45.4293 38.748L43.0382 41.4231H44.7187L46.2342 39.7298L47.6231 41.4231H49.5222L47.1631 38.6884L49.3058 36.2947ZM37.5849 41.4227H42.7391V40.3916H38.9404V39.1431L42.1698 39.1707V38.1391H38.9404V37.3267H42.7391V36.2951H37.5849V41.4227ZM30.8182 33.3716L35.8711 29.848L38.0933 33.3716H41.5756L37.2507 25.6378H33.8044V29.848H27.8711V25.5991L24.348 25.6378L20.0609 33.3716H23.5458L25.8031 29.8102L30.8182 33.3716ZM23.9649 24.7951H28.6751V29.0071H32.9991V24.7951H37.6324L38.0933 25.5991H41.5756V22H20.0609V25.5991H23.5458L23.9649 24.7951ZM51.8516 41.4862L51.86 41.5018H51.664C51.6627 41.4973 51.6618 41.4929 51.6609 41.4889C51.6587 41.4844 51.6582 41.4813 51.6573 41.4764L51.6524 41.4382V41.3427C51.6524 41.2049 51.6147 41.1124 51.5391 41.0689C51.4956 41.0427 51.4173 41.0307 51.3027 41.0307H51.1356V41.5022H50.9267V40.3058H51.3444C51.4947 40.3058 51.6018 40.3191 51.6711 40.348C51.7956 40.3996 51.8578 40.5018 51.8578 40.6511C51.8578 40.7582 51.8187 40.8373 51.7405 40.888C51.6991 40.9147 51.6418 40.9342 51.568 40.9458C51.6618 40.9604 51.7298 40.9996 51.7729 41.0631C51.8173 41.1271 51.8391 41.1884 51.8391 41.2489V41.336C51.8391 41.3636 51.84 41.3929 51.8422 41.4249C51.8449 41.4556 51.8476 41.4769 51.8516 41.4862ZM51.652 40.668C51.652 40.5813 51.6262 40.5227 51.5738 40.4929C51.5187 40.4631 51.4347 40.4489 51.3173 40.4489H51.136V40.8818H51.3271C51.4173 40.8818 51.484 40.8724 51.5293 40.8547C51.6129 40.8218 51.652 40.76 51.652 40.668ZM52.4569 40.9058C52.4569 41.208 52.3516 41.4649 52.1391 41.6787C51.9258 41.8924 51.668 42 51.3653 42C51.0644 42 50.8071 41.8929 50.596 41.6787C50.3836 41.4658 50.2796 41.2084 50.2796 40.9058C50.2796 40.6058 50.3845 40.3489 50.5978 40.1364C50.8107 39.9244 51.0667 39.8182 51.3658 39.8182C51.6689 39.8182 51.9262 39.9244 52.1396 40.1364C52.3516 40.348 52.4569 40.604 52.4569 40.9058ZM52.3013 40.9076C52.3013 40.6476 52.2111 40.4258 52.0285 40.2427C51.8467 40.0587 51.6253 39.9658 51.3649 39.9658C51.1062 39.9658 50.8871 40.0587 50.7036 40.2427C50.5209 40.4262 50.4302 40.6476 50.4302 40.9076C50.4302 41.1698 50.52 41.3911 50.7013 41.5764C50.8844 41.7596 51.1053 41.8533 51.3649 41.8533C51.6258 41.8533 51.8476 41.7596 52.0285 41.5764C52.2111 41.3911 52.3013 41.1698 52.3013 40.9076Z" fill="#203D5C"/>
</svg>
