<svg width="64" height="64" viewBox="0 0 64 64" fill="none" xmlns="http://www.w3.org/2000/svg">
<mask id="path-1-outside-1_80_253" maskUnits="userSpaceOnUse" x="6" y="28.2441" width="12" height="8" fill="black">
<rect fill="white" x="6" y="28.2441" width="12" height="8"/>
<path fill-rule="evenodd" clip-rule="evenodd" d="M7 35.7953L11.6536 29.2441L13.0233 31.1756L9.7476 35.7953L9.14987 35.7965L12.4255 31.1839L11.6648 30.1117L7.62838 35.7953H7ZM11.1512 35.7965L13.88 32.1651L16.6047 35.7965H11.1512ZM15.6826 35.3781L13.88 32.9661L12.0719 35.3781H15.6826Z"/>
</mask>
<path fill-rule="evenodd" clip-rule="evenodd" d="M7 35.7953L11.6536 29.2441L13.0233 31.1756L9.7476 35.7953L9.14987 35.7965L12.4255 31.1839L11.6648 30.1117L7.62838 35.7953H7ZM11.1512 35.7965L13.88 32.1651L16.6047 35.7965H11.1512ZM15.6826 35.3781L13.88 32.9661L12.0719 35.3781H15.6826Z" fill="#1F3B6A"/>
<path d="M11.6536 29.2441L11.8244 29.1231L11.6538 28.8825L11.483 29.1229L11.6536 29.2441ZM7 35.7953L6.82937 35.6741L6.59459 36.0046H7V35.7953ZM13.0233 31.1756L13.194 31.2966L13.2798 31.1756L13.194 31.0545L13.0233 31.1756ZM9.7476 35.7953L9.74801 36.0046L9.85592 36.0044L9.91833 35.9163L9.7476 35.7953ZM9.14987 35.7965L8.97922 35.6753L8.74395 36.0066L9.15029 36.0058L9.14987 35.7965ZM12.4255 31.1839L12.5962 31.3051L12.6822 31.184L12.5962 31.0628L12.4255 31.1839ZM11.6648 30.1117L11.8355 29.9906L11.6649 29.7501L11.4941 29.9905L11.6648 30.1117ZM7.62838 35.7953V36.0046H7.73645L7.79903 35.9165L7.62838 35.7953ZM13.88 32.1651L14.0474 32.0395L13.8801 31.8165L13.7127 32.0394L13.88 32.1651ZM11.1512 35.7965L10.9838 35.6708L10.7321 36.0058H11.1512V35.7965ZM16.6047 35.7965V36.0058H17.0234L16.7721 35.6709L16.6047 35.7965ZM13.88 32.9661L14.0476 32.8408L13.8802 32.6168L13.7125 32.8406L13.88 32.9661ZM15.6826 35.3781V35.5874H16.1003L15.8502 35.2528L15.6826 35.3781ZM12.0719 35.3781L11.9044 35.2525L11.6534 35.5874H12.0719V35.3781ZM11.483 29.1229L6.82937 35.6741L7.17063 35.9165L11.8243 29.3654L11.483 29.1229ZM13.194 31.0545L11.8244 29.1231L11.4829 29.3652L12.8525 31.2966L13.194 31.0545ZM9.91833 35.9163L13.194 31.2966L12.8525 31.0545L9.57686 35.6742L9.91833 35.9163ZM9.15029 36.0058L9.74801 36.0046L9.74718 35.586L9.14945 35.5872L9.15029 36.0058ZM12.2549 31.0627L8.97922 35.6753L9.32052 35.9177L12.5962 31.3051L12.2549 31.0627ZM11.4941 30.2328L12.2548 31.305L12.5962 31.0628L11.8355 29.9906L11.4941 30.2328ZM7.79903 35.9165L11.8354 30.2329L11.4941 29.9905L7.45773 35.6741L7.79903 35.9165ZM7 36.0046H7.62838V35.586H7V36.0046ZM13.7127 32.0394L10.9838 35.6708L11.3185 35.9223L14.0473 32.2908L13.7127 32.0394ZM16.7721 35.6709L14.0474 32.0395L13.7126 32.2907L16.4372 35.9221L16.7721 35.6709ZM11.1512 36.0058H16.6047V35.5872H11.1512V36.0058ZM13.7123 33.0914L15.5149 35.5034L15.8502 35.2528L14.0476 32.8408L13.7123 33.0914ZM12.2393 35.5036L14.0475 33.0917L13.7125 32.8406L11.9044 35.2525L12.2393 35.5036ZM15.6826 35.1688H12.0719V35.5874H15.6826V35.1688Z" fill="#1F3B6A" mask="url(#path-1-outside-1_80_253)"/>
<path d="M24.043 30.0848H21.4884V35.9326H24.1244C25.3936 35.9326 26.2316 35.3729 26.2316 34.3203C26.2316 33.5183 25.7679 33.1256 25.1007 32.8917C25.5238 32.6662 25.9143 32.2986 25.9143 31.5801C25.9143 30.6612 25.1902 30.0848 24.043 30.0848ZM23.8396 32.5492H22.4728V30.9954H23.9129C24.5556 30.9954 24.9136 31.271 24.9136 31.7472C24.9136 32.2902 24.4824 32.5492 23.8396 32.5492ZM24.1325 35.022H22.4728V33.418H24.0593C24.8485 33.418 25.2309 33.7104 25.2309 34.2117C25.2309 34.7463 24.816 35.022 24.1325 35.022Z" fill="#1F3B6A"/>
<path d="M28.7186 30.0848V35.9326H29.7193V30.0848H28.7186Z" fill="#1F3B6A"/>
<path d="M34.9538 31.0371H36.76V30.0848H32.1388V31.0371H33.9449V35.9326H34.9538V31.0371Z" fill="#1F3B6A"/>
<path d="M43.9557 35.9326L42.418 33.7188C43.2153 33.4932 43.7767 32.9084 43.7767 31.9394C43.7767 30.7949 42.9712 30.0848 41.6613 30.0848H39.1229V35.9326H40.1236V33.8942H41.3766L42.776 35.9326H43.9557ZM42.7597 31.9978C42.7597 32.5993 42.3041 32.9836 41.5881 32.9836H40.1236V31.0204H41.58C42.3203 31.0204 42.7597 31.3546 42.7597 31.9978Z" fill="#1F3B6A"/>
<path d="M51.088 30.0848H50.0873V33.4514C50.0873 34.5291 49.5422 35.0805 48.6554 35.0805C47.7605 35.0805 47.2154 34.4957 47.2154 33.4097V30.0848H46.2146V33.4514C46.2146 35.1473 47.1584 36.0245 48.6391 36.0245C50.128 36.0245 51.088 35.1473 51.088 33.4013V30.0848Z" fill="#1F3B6A"/>
<path d="M54.6096 31.6135C54.6096 31.2209 54.9513 30.9118 55.537 30.9118C56.0577 30.9118 56.5703 31.1207 57.0829 31.5133L57.6198 30.7364C57.0422 30.2602 56.3832 30.0012 55.5533 30.0012C54.4224 30.0012 53.6088 30.6863 53.6088 31.7054C53.6088 32.7915 54.2923 33.159 55.5045 33.4598C56.5622 33.7104 56.79 33.936 56.79 34.362C56.79 34.8131 56.3995 35.1055 55.7811 35.1055C55.0733 35.1055 54.5282 34.8299 53.9831 34.3453L53.381 35.0805C54.0644 35.707 54.8862 36.0161 55.7567 36.0161C56.9527 36.0161 57.7907 35.3645 57.7907 34.2618C57.7907 33.2844 57.1642 32.8416 55.9601 32.5408C54.8699 32.2735 54.6096 32.073 54.6096 31.6135Z" fill="#1F3B6A"/>
<path d="M24.043 30.0848H21.4884V35.9326H24.1244C25.3936 35.9326 26.2316 35.3729 26.2316 34.3203C26.2316 33.5183 25.7679 33.1256 25.1007 32.8917C25.5238 32.6662 25.9143 32.2986 25.9143 31.5801C25.9143 30.6612 25.1902 30.0848 24.043 30.0848ZM23.8396 32.5492H22.4728V30.9954H23.9129C24.5556 30.9954 24.9136 31.271 24.9136 31.7472C24.9136 32.2902 24.4824 32.5492 23.8396 32.5492ZM24.1325 35.022H22.4728V33.418H24.0593C24.8485 33.418 25.2309 33.7104 25.2309 34.2117C25.2309 34.7463 24.816 35.022 24.1325 35.022Z" stroke="#1F3B6A" stroke-width="0.156977"/>
<path d="M28.7186 30.0848V35.9326H29.7193V30.0848H28.7186Z" stroke="#1F3B6A" stroke-width="0.156977"/>
<path d="M34.9538 31.0371H36.76V30.0848H32.1388V31.0371H33.9449V35.9326H34.9538V31.0371Z" stroke="#1F3B6A" stroke-width="0.156977"/>
<path d="M43.9557 35.9326L42.418 33.7188C43.2153 33.4932 43.7767 32.9084 43.7767 31.9394C43.7767 30.7949 42.9712 30.0848 41.6613 30.0848H39.1229V35.9326H40.1236V33.8942H41.3766L42.776 35.9326H43.9557ZM42.7597 31.9978C42.7597 32.5993 42.3041 32.9836 41.5881 32.9836H40.1236V31.0204H41.58C42.3203 31.0204 42.7597 31.3546 42.7597 31.9978Z" stroke="#1F3B6A" stroke-width="0.156977"/>
<path d="M51.088 30.0848H50.0873V33.4514C50.0873 34.5291 49.5422 35.0805 48.6554 35.0805C47.7605 35.0805 47.2154 34.4957 47.2154 33.4097V30.0848H46.2146V33.4514C46.2146 35.1473 47.1584 36.0245 48.6391 36.0245C50.128 36.0245 51.088 35.1473 51.088 33.4013V30.0848Z" stroke="#1F3B6A" stroke-width="0.156977"/>
<path d="M54.6096 31.6135C54.6096 31.2209 54.9513 30.9118 55.537 30.9118C56.0577 30.9118 56.5703 31.1207 57.0829 31.5133L57.6198 30.7364C57.0422 30.2602 56.3832 30.0012 55.5533 30.0012C54.4224 30.0012 53.6088 30.6863 53.6088 31.7054C53.6088 32.7915 54.2923 33.159 55.5045 33.4598C56.5622 33.7104 56.79 33.936 56.79 34.362C56.79 34.8131 56.3995 35.1055 55.7811 35.1055C55.0733 35.1055 54.5282 34.8299 53.9831 34.3453L53.381 35.0805C54.0644 35.707 54.8862 36.0161 55.7567 36.0161C56.9527 36.0161 57.7907 35.3645 57.7907 34.2618C57.7907 33.2844 57.1642 32.8416 55.9601 32.5408C54.8699 32.2735 54.6096 32.073 54.6096 31.6135Z" stroke="#1F3B6A" stroke-width="0.156977"/>
</svg>
