<svg width="64" height="64" viewBox="0 0 64 64" fill="none" xmlns="http://www.w3.org/2000/svg">
<path d="M37.6513 39.117C37.6513 41.0842 35.8135 41.9692 34.5087 41.9692C33.9945 41.9692 33.5034 41.8535 33.0702 41.7509C32.7244 41.6694 32.4262 41.5985 32.1944 41.6069C32.0607 41.6069 32.0607 41.6069 31.9216 41.7644L31.8473 41.8493H31.2471V38.1991H32.0198L32.0599 38.401C32.3167 39.6968 32.7908 41.0221 34.3684 41.0221C35.2246 41.0221 35.7559 40.5695 35.7559 39.842C35.7559 39.2923 35.4752 38.8869 34.8445 38.5276L33.6876 37.863C32.3919 37.1229 31.2275 36.3257 31.2275 34.7196C31.2275 33.1354 32.4897 31.9861 34.2297 31.9861C34.8157 31.9861 35.3946 32.174 35.7801 32.2998C35.8824 32.3323 36.0533 32.388 36.0846 32.3897C36.1401 32.3897 36.1948 32.3538 36.2274 32.2943L36.2997 32.1681H36.9057L36.9997 35.4348H36.2433L36.2003 35.2355C35.7692 33.2126 34.9201 32.9542 34.2297 32.9542C33.2995 32.9542 32.9629 33.5872 32.9629 34.0132C32.9629 34.5334 33.2035 34.9311 33.6984 35.2288L35.8557 36.5212C36.8376 37.1301 37.6513 37.7448 37.6513 39.117ZM48.6436 41.6166L48.411 40.9246H48.2543V41.7433H48.3587V41.2598C48.3587 41.2408 48.3588 41.21 48.3567 41.1695C48.3562 41.1289 48.3558 41.0977 48.3558 41.0779V41.0521L48.5893 41.7437H48.6971L48.9285 41.0521C48.9285 41.0969 48.9276 41.1391 48.9272 41.1767C48.9264 41.2159 48.9264 41.2429 48.9264 41.2598V41.7433H49.03V40.9246H48.8742L48.6436 41.6166ZM24.4879 40.0953L24.756 40.0742V40.8469L21.5316 42L21.2451 41.7834V41.0686C20.6444 41.6639 19.8513 41.9692 18.8806 41.9692C18.4834 41.9692 15 41.8358 15 37.1993C15 35.8782 15.4682 34.5541 16.2852 33.5665C17.1164 32.562 18.2445 31.9861 19.3793 31.9861C20.0939 31.9861 20.6599 32.1697 21.2446 32.5882V29.8982C21.2446 29.5912 21.2392 29.397 21.1344 29.3016C21.0433 29.2188 20.8006 29.1344 20.162 29.2011L19.8876 29.2294V28.4309L20.0772 28.3828C21.2167 28.0991 22.6271 27.6321 22.9851 27.5029L23.0498 27.4792L23.0745 27.4704L23.4186 27.6097V39.4574C23.4186 39.7272 23.4353 39.8796 23.5289 39.9674C23.6204 40.0531 23.8605 40.1452 24.4879 40.0953ZM21.2451 34.9417C21.2451 34.0145 20.5697 33.0552 19.439 33.0552C18.4124 33.0552 17.2137 33.9718 17.2137 36.555C17.2137 39.4058 18.5628 40.4179 19.718 40.4179C20.4661 40.4179 21.1068 39.9991 21.2446 39.4219V34.9417H21.2451ZM47.4996 41.023H47.7719V41.7441H47.8843V41.023H48.1562V40.925H47.4996V41.023ZM29.0393 32.4818C29.0393 32.4818 28.3798 32.6595 27.889 32.6595C27.3995 32.6595 26.8156 32.4818 26.8156 32.4818C26.8156 32.4818 27.1952 33.3528 27.9412 33.3528C28.688 33.3528 29.0393 32.4818 29.0393 32.4818ZM27.9458 35.9381C28.9424 35.9381 29.4097 34.7757 29.4097 34.7757C29.4097 34.7757 28.5986 34.9864 27.9458 34.9864C27.293 34.9864 26.4451 34.7757 26.4451 34.7757C26.4451 34.7757 26.9501 35.9381 27.9458 35.9381ZM27.9512 38.577C29.2067 38.577 29.7961 37.1685 29.7961 37.1685C29.7961 37.1685 28.7745 37.5139 27.9512 37.5139C27.1276 37.5139 26.0592 37.1685 26.0592 37.1685C26.0592 37.1685 26.6953 38.577 27.9512 38.577ZM25.0847 39.5127C25.0847 39.5127 26.0529 41.5816 27.9637 41.5816C29.8746 41.5816 30.7705 39.5127 30.7705 39.5127C30.7705 39.5127 29.3893 40.2347 27.9637 40.2347C26.5796 40.2347 25.0847 39.5127 25.0847 39.5127ZM26.8757 30.6582C27.1551 30.8533 27.4951 30.9677 27.861 30.9677C27.861 30.9677 27.861 30.9677 27.8614 30.9677C28.8217 30.9672 29.5989 30.1806 29.5989 29.2108C29.5989 29.1931 29.5989 29.1753 29.5989 29.1576C29.5969 29.0364 29.5831 28.9178 29.5576 28.8033C36.4463 24.4485 43.4173 23.5817 45.8256 26.9962C46.8752 28.4833 46.8702 30.5585 46.0106 32.8546C46.2508 33.2929 46.3965 33.8494 46.4479 34.5237C49.271 30.6075 50.2943 26.9958 48.7885 24.8598C46.3163 21.3557 37.9027 22.9412 29.4423 28.455C29.1641 27.8398 28.5464 27.4168 27.8343 27.4277C26.8753 27.4421 26.1084 28.2405 26.1231 29.2108C26.1231 29.2112 26.1231 29.2112 26.1231 29.2121C26.1231 29.6917 26.3135 30.1253 26.6209 30.4424C25.4439 31.3401 24.9632 31.8332 24.3254 32.4771C25.0576 31.954 25.8599 31.3848 26.8757 30.6582ZM46.138 39.5V35.4454C46.138 33.1506 45.2283 31.9865 43.4356 31.9865C42.4232 31.9865 41.4985 32.4235 40.7512 33.2409V27.6583L40.4234 27.459L40.392 27.4729L40.3073 27.5071C39.8867 27.6815 38.2527 28.1742 37.5022 28.3858L37.3205 28.4373V29.2319L37.5961 29.2015C37.762 29.1829 37.8906 29.1829 38.0677 29.1829C38.2531 29.1829 38.3847 29.2213 38.4595 29.299C38.5848 29.4278 38.581 29.6828 38.5781 29.8876L38.5768 29.9788V39.459C38.5768 40.7473 38.4979 40.8596 37.523 40.9639L37.3004 40.9875V41.769H41.9257V40.9681L41.8844 40.9643C40.9918 40.8676 40.7508 40.8418 40.7508 39.4797V34.7001C40.8632 34.56 41.6852 33.58 42.6959 33.58C43.5726 33.58 43.964 34.1804 43.964 35.5269V39.5C43.964 40.7511 43.7497 40.8942 42.8375 40.9639L42.8187 40.9647V41.7686H47.3346V41.0031L47.1295 40.9672C46.2516 40.8089 46.138 40.7882 46.138 39.5Z" fill="#203D5C"/>
</svg>
