<svg width="64" height="64" viewBox="0 0 64 64" fill="none" xmlns="http://www.w3.org/2000/svg">
<path d="M14.2635 32.9766H19.7105L19.3862 33.4531H13.9327L13.7514 33.6544H12.0544C12.1727 33.4918 12.004 33.4531 12.004 33.4531H9.47437L9.79611 32.9761H12.5253L12.5879 32.8757H14.224L14.2635 32.9766ZM13.3783 34.1218H11.7192L11.6435 34.2353H8.94132L8.61784 34.7118H12.1553L12.3783 34.917H13.4818L13.3114 34.7118H18.5318L18.8562 34.2353H13.3035L13.3783 34.1218ZM14.6079 30.0309H16.8631C16.8631 30.0309 16.8723 29.9648 16.9383 29.8352H21.8206L22.1445 29.3578H17.3553L17.2353 29.1513H15.2331L15.0792 29.3578H12.2335L11.91 29.8352H14.4414C14.4422 29.8352 14.7449 29.8365 14.6079 30.0309ZM14.884 36.5805H14.1762L14.134 36.6492H7.32088L7 37.1236H14.7557L15.1166 37.4653L15.4131 37.1236H16.9083L17.2357 36.6492H14.9496L14.884 36.5805ZM15.4557 28.8348H17.6866C17.6866 28.8348 17.7762 28.6348 17.9088 28.6348H22.6127L22.9388 28.1587H17.4249L17.4066 28.0231L17.8584 27.4635H17.9418L18.2853 27H18.0036L17.6327 27.4635H17.7318L17.3184 28.0044L17.1453 28.1587H13.024L12.7044 28.6348H15.3218C15.3214 28.6348 15.5688 28.6452 15.4557 28.8348ZM13.7827 31.2218H15.6375L15.6379 31.2222C15.6688 31.1153 15.7483 31.0313 15.7483 31.0313H20.9845L21.3119 30.5544H16.2605L16.1801 30.4448H14.314L14.2414 30.5544H11.3957L11.0748 31.0309H13.6383C13.6388 31.0305 13.8853 31.0579 13.7827 31.2218ZM13.8609 35.3318H12.9179L12.8992 35.4366H8.11653L7.79305 35.9153H13.3822L13.6283 36.1527H14.567H14.5675C14.4005 36.0375 14.3788 35.9153 14.3788 35.9153H17.7014L18.0292 35.437H13.8857L13.8609 35.3318ZM41.7133 31.8787H43.4999L44.5021 30.3987H42.2833C38.9259 30.3987 37.3694 32.8109 37.3694 32.8109C35.6502 35.1292 35.6763 36.1283 35.6763 36.1283C35.4911 37.5431 38.0194 37.4653 38.0194 37.4653H40.6159L41.6086 35.9705H38.3042C37.7855 35.9705 37.7855 35.5518 37.7855 35.5518L37.7851 35.5514C37.8337 35.1292 37.9272 34.5279 39.0894 33.2692C40.2529 32.0096 41.5507 31.8787 41.7133 31.8787ZM44.7986 35.9696H48.5904L47.5969 37.4653H44.5121C44.5121 37.4653 42.1668 37.4653 42.1668 36.1288C42.1668 36.1288 42.1425 35.1296 43.8638 32.8105C45.5816 30.4883 46.7577 30.3987 48.7325 30.3987C50.7073 30.3987 51.2399 31.0057 51.1839 31.5113C51.1147 32.087 51.0452 32.39 49.7595 34.4505H44.8351C44.8351 34.4505 44.3312 35.0457 44.2773 35.5514C44.2773 35.5514 44.2773 35.9696 44.7986 35.9696ZM45.676 33.1509H48.923C48.923 33.1509 49.2869 32.5479 49.3956 32.0492C49.5056 31.5509 48.9086 31.4187 48.246 31.4187C47.5843 31.4187 46.5669 31.4861 45.676 33.1509ZM54.9543 28.1817L48.8321 37.4653H50.8765L57 28.1817H54.9543ZM37.7442 28.1817L31.6228 37.4653H33.6689L39.7929 28.1817H37.7442ZM23.0162 35.7114C23.2336 35.3405 26.0041 31.3574 26.0041 31.3574H27.4015L28.1671 30.0692H26.8876L28.1728 28.1822L26.1563 28.1817L24.8602 30.0687H23.8023L22.9088 31.357H24.0197L20.854 35.9692C20.854 35.9692 20.6084 36.3366 20.6084 36.8618C20.6084 37.3857 21.2866 37.4653 21.2866 37.4653H23.6949L24.4541 36.1288H23.2614C23.261 36.1288 22.801 36.0762 23.0162 35.7114ZM15.2553 31.6666H13.4505L13.3831 31.767H10.6048L10.2805 32.2427H12.8774C12.8774 32.2427 13.0101 32.3031 12.9179 32.4292H14.7453C14.7453 32.4292 14.7466 32.3527 14.824 32.2427H20.1936L20.5197 31.7666H15.287L15.2553 31.6666ZM27.7689 35.9696H31.5572L30.5654 37.4653H27.4802C27.4802 37.4653 25.1371 37.4653 25.1371 36.1288C25.1371 36.1288 25.1154 35.1296 26.8332 32.8105C28.5519 30.4883 29.728 30.3987 31.7028 30.3987C33.6772 30.3987 34.2128 31.0057 34.1511 31.5113C34.085 32.087 34.0155 32.39 32.7302 34.4505H27.8054C27.8054 34.4505 27.3032 35.0457 27.2467 35.5514C27.2471 35.5514 27.2471 35.9696 27.7689 35.9696ZM28.6463 33.1509H31.8928C31.8928 33.1509 32.2554 32.5479 32.365 32.0492C32.4759 31.5509 31.8815 31.4187 31.2163 31.4187C30.5554 31.4187 29.5393 31.4861 28.6463 33.1509Z" fill="#203D5C"/>
</svg>
