<svg width="388" height="388" viewBox="0 0 388 388" fill="none" xmlns="http://www.w3.org/2000/svg">
<g filter="url(#filter0_d_1645_26528)">
<rect x="4" y="4" width="190" height="190" rx="6" fill="white"/>
<rect x="4.5" y="4.5" width="189" height="189" rx="5.5" stroke="#F2F2F2"/>
</g>
<ellipse cx="97.5" cy="137.505" rx="42.5" ry="10.625" fill="#CDD3D9"/>
<circle cx="122.363" cy="89.3634" r="14.3634" fill="#CDD3D9"/>
<rect x="66" y="63.2676" width="22.037" height="54.3056" rx="2.36111" transform="rotate(-3.29719 66 63.2676)" fill="#CDD3D9"/>
<rect x="79.9375" y="140.562" width="54.375" height="35.625" rx="2.8125" transform="rotate(-90 79.9375 140.562)" fill="#AFB9C4" stroke="#203D5C" stroke-width="1.875"/>
<circle cx="97.75" cy="134" r="2.8125" fill="#FFC857" stroke="#203D5C" stroke-width="1.875"/>
<mask id="path-8-inside-1_1645_26528" fill="white">
<rect x="84" y="92.75" width="27.5" height="35" rx="1.25"/>
</mask>
<rect x="84" y="92.75" width="27.5" height="35" rx="1.25" fill="#FFC857" stroke="#203D5C" stroke-width="3.75" mask="url(#path-8-inside-1_1645_26528)"/>
<rect x="89" y="117.75" width="17.5" height="5" rx="1.25" fill="#AFB9C4"/>
<rect x="89" y="111.5" width="17.5" height="5" rx="1.25" fill="#203D5C"/>
<path d="M95.25 90.25H100.25" stroke="#203D5C" stroke-width="1.875" stroke-linecap="round"/>
<rect x="92.5625" y="68.7939" width="31.875" height="20.625" rx="1.5625" transform="rotate(-22 92.5625 68.7939)" fill="#AFB9C4" stroke="#203D5C" stroke-width="1.875"/>
<rect x="94.4355" y="73.4299" width="31.875" height="1.875" transform="rotate(-22 94.4355 73.4299)" fill="#FFC857" stroke="#203D5C" stroke-width="1.875"/>
<mask id="path-14-inside-2_1645_26528" fill="white">
<rect x="100.06" y="82.3469" width="7.875" height="2.8125" rx="1.25" transform="rotate(-22 100.06 82.3469)"/>
</mask>
<rect x="100.06" y="82.3469" width="7.875" height="2.8125" rx="1.25" transform="rotate(-22 100.06 82.3469)" fill="#FFC857" stroke="#FFC857" stroke-width="2.8125" mask="url(#path-14-inside-2_1645_26528)"/>
<mask id="path-15-inside-3_1645_26528" fill="white">
<rect x="107.86" y="79.1282" width="5.375" height="2.8125" rx="1.25" transform="rotate(-22 107.86 79.1282)"/>
</mask>
<rect x="107.86" y="79.1282" width="5.375" height="2.8125" rx="1.25" transform="rotate(-22 107.86 79.1282)" fill="#FFC857" stroke="#203D5C" stroke-width="2.8125" mask="url(#path-15-inside-3_1645_26528)"/>
<mask id="path-16-inside-4_1645_26528" fill="white">
<rect x="98.5854" y="78.696" width="12.375" height="2.8125" rx="1.25" transform="rotate(-22 98.5854 78.696)"/>
</mask>
<rect x="98.5854" y="78.696" width="12.375" height="2.8125" rx="1.25" transform="rotate(-22 98.5854 78.696)" fill="#FFC857" stroke="#203D5C" stroke-width="2.8125" mask="url(#path-16-inside-4_1645_26528)"/>
<circle cx="121.654" cy="74.2291" r="1.3125" transform="rotate(-22 121.654 74.2291)" fill="#FFC857" stroke="#FFC857" stroke-width="1.875"/>
<circle cx="123.566" cy="73.5538" r="1.3125" transform="rotate(-22 123.566 73.5538)" fill="#203D5C" stroke="#203D5C" stroke-width="1.875"/>
<mask id="path-19-inside-5_1645_26528" fill="white">
<rect x="75.4935" y="77.4766" width="16.25" height="5" rx="1.25" transform="rotate(-22 75.4935 77.4766)"/>
</mask>
<rect x="75.4935" y="77.4766" width="16.25" height="5" rx="1.25" transform="rotate(-22 75.4935 77.4766)" fill="#FFC857" stroke="#203D5C" stroke-width="3.75" mask="url(#path-19-inside-5_1645_26528)"/>
<mask id="path-20-inside-6_1645_26528" fill="white">
<rect x="68.563" y="87.0176" width="26.25" height="5" rx="1.25" transform="rotate(-22 68.563 87.0176)"/>
</mask>
<rect x="68.563" y="87.0176" width="26.25" height="5" rx="1.25" transform="rotate(-22 68.563 87.0176)" fill="#FFC857" stroke="#203D5C" stroke-width="3.75" mask="url(#path-20-inside-6_1645_26528)"/>
<mask id="path-21-inside-7_1645_26528" fill="white">
<rect x="80.1761" y="89.0662" width="16.25" height="5" rx="1.25" transform="rotate(-22 80.1761 89.0662)"/>
</mask>
<rect x="80.1761" y="89.0662" width="16.25" height="5" rx="1.25" transform="rotate(-22 80.1761 89.0662)" fill="#FFC857" stroke="#203D5C" stroke-width="3.75" mask="url(#path-21-inside-7_1645_26528)"/>
<g filter="url(#filter1_d_1645_26528)">
<rect x="194" y="194" width="190" height="190" rx="6" fill="white"/>
<rect x="194.5" y="194.5" width="189" height="189" rx="5.5" stroke="#F2F2F2"/>
</g>
<ellipse cx="288.5" cy="319.505" rx="42.5" ry="10.625" fill="#CDD3D9"/>
<circle cx="310.363" cy="293.363" r="14.3634" fill="#CDD3D9"/>
<circle cx="323.363" cy="258.363" r="9.36343" fill="#CDD3D9"/>
<rect x="252.155" y="295.315" width="22.037" height="54.3056" rx="2.36111" transform="rotate(-121.47 252.155 295.315)" fill="#CDD3D9"/>
<circle cx="279.625" cy="298.375" r="5.9375" fill="#AFB9C4" stroke="#203D5C" stroke-width="1.875"/>
<circle cx="297.125" cy="298.375" r="5.9375" fill="#AFB9C4" stroke="#203D5C" stroke-width="1.875"/>
<path d="M267.485 316.812C267.955 312.248 271.811 308.688 276.5 308.688H282.75C287.439 308.688 291.295 312.248 291.765 316.812H267.485Z" fill="#AFB9C4" stroke="#203D5C" stroke-width="1.875"/>
<path d="M284.985 316.812C285.455 312.248 289.311 308.688 294 308.688H300.25C304.939 308.688 308.795 312.248 309.265 316.812H284.985Z" fill="#AFB9C4" stroke="#203D5C" stroke-width="1.875"/>
<circle cx="289" cy="297.125" r="5.9375" fill="#FFC857" stroke="#203D5C" stroke-width="1.875"/>
<path d="M276.86 315.562C277.33 310.998 281.186 307.438 285.875 307.438H292.125C296.814 307.438 300.67 310.998 301.14 315.562H276.86Z" fill="#FFC857" stroke="#203D5C" stroke-width="1.875"/>
<mask id="path-34-inside-8_1645_26528" fill="white">
<rect x="249" y="261.5" width="25" height="11.25" rx="1.25"/>
</mask>
<rect x="249" y="261.5" width="25" height="11.25" rx="1.25" fill="#AFB9C4" stroke="#203D5C" stroke-width="3.75" mask="url(#path-34-inside-8_1645_26528)"/>
<mask id="path-35-inside-9_1645_26528" fill="white">
<rect x="276.5" y="261.5" width="25" height="11.25" rx="1.25"/>
</mask>
<rect x="276.5" y="261.5" width="25" height="11.25" rx="1.25" fill="#AFB9C4" stroke="#203D5C" stroke-width="3.75" mask="url(#path-35-inside-9_1645_26528)"/>
<mask id="path-36-inside-10_1645_26528" fill="white">
<rect x="304" y="261.5" width="25" height="11.25" rx="1.25"/>
</mask>
<rect x="304" y="261.5" width="25" height="11.25" rx="1.25" fill="#AFB9C4" stroke="#203D5C" stroke-width="3.75" mask="url(#path-36-inside-10_1645_26528)"/>
<path d="M260.25 267.125H270.25" stroke="#203D5C" stroke-width="1.875" stroke-linecap="round"/>
<path d="M287.75 267.125H297.75" stroke="#203D5C" stroke-width="1.875" stroke-linecap="round"/>
<path d="M315.25 267.125H325.25" stroke="#203D5C" stroke-width="1.875" stroke-linecap="round"/>
<circle cx="254.625" cy="267.125" r="2.1875" fill="#FFC857" stroke="#203D5C" stroke-width="1.875"/>
<circle cx="282.125" cy="267.125" r="2.1875" fill="#FFC857" stroke="#203D5C" stroke-width="1.875"/>
<circle cx="309.625" cy="267.125" r="2.1875" fill="#FFC857" stroke="#203D5C" stroke-width="1.875"/>
<path d="M260.875 272.125V275.25C260.875 277.321 262.554 279 264.625 279H289M319 272.125V275.25C319 277.321 317.321 279 315.25 279H290.25H289M289 279V272.125M289 279V285.25" stroke="#203D5C" stroke-width="1.875" stroke-linecap="round"/>
<defs>
<filter id="filter0_d_1645_26528" x="0" y="0" width="198" height="198" filterUnits="userSpaceOnUse" color-interpolation-filters="sRGB">
<feFlood flood-opacity="0" result="BackgroundImageFix"/>
<feColorMatrix in="SourceAlpha" type="matrix" values="0 0 0 0 0 0 0 0 0 0 0 0 0 0 0 0 0 0 127 0" result="hardAlpha"/>
<feOffset/>
<feGaussianBlur stdDeviation="2"/>
<feColorMatrix type="matrix" values="0 0 0 0 0.94902 0 0 0 0 0.94902 0 0 0 0 0.94902 0 0 0 1 0"/>
<feBlend mode="normal" in2="BackgroundImageFix" result="effect1_dropShadow_1645_26528"/>
<feBlend mode="normal" in="SourceGraphic" in2="effect1_dropShadow_1645_26528" result="shape"/>
</filter>
<filter id="filter1_d_1645_26528" x="190" y="190" width="198" height="198" filterUnits="userSpaceOnUse" color-interpolation-filters="sRGB">
<feFlood flood-opacity="0" result="BackgroundImageFix"/>
<feColorMatrix in="SourceAlpha" type="matrix" values="0 0 0 0 0 0 0 0 0 0 0 0 0 0 0 0 0 0 127 0" result="hardAlpha"/>
<feOffset/>
<feGaussianBlur stdDeviation="2"/>
<feColorMatrix type="matrix" values="0 0 0 0 0.94902 0 0 0 0 0.94902 0 0 0 0 0.94902 0 0 0 1 0"/>
<feBlend mode="normal" in2="BackgroundImageFix" result="effect1_dropShadow_1645_26528"/>
<feBlend mode="normal" in="SourceGraphic" in2="effect1_dropShadow_1645_26528" result="shape"/>
</filter>
</defs>
</svg>
