<svg width="25" height="24" viewBox="0 0 25 24" fill="none" xmlns="http://www.w3.org/2000/svg">
<mask id="path-1-inside-1_1826_2147" fill="white">
<rect x="9" y="8" width="12" height="14" rx="1"/>
</mask>
<rect x="9" y="8" width="12" height="14" rx="1" fill="white" stroke="#2F2F2F" stroke-width="3" mask="url(#path-1-inside-1_1826_2147)"/>
<path d="M10 12H20" stroke="#2F2F2F" stroke-width="1.5" stroke-linecap="round"/>
<path d="M13 12V20.5" stroke="#2F2F2F" stroke-width="1.5" stroke-linecap="round"/>
<path d="M17 12V21" stroke="#2F2F2F" stroke-width="1.5" stroke-linecap="round"/>
<path d="M10 16H20" stroke="#2F2F2F" stroke-width="1.5" stroke-linecap="round"/>
<circle cx="10" cy="8" r="5.25" fill="white" stroke="#2F2F2F" stroke-width="1.5" stroke-linecap="round"/>
<path d="M12 8.97021C12 9.31489 11.8569 9.60851 11.5707 9.85106C11.2892 10.0894 10.879 10.234 10.3399 10.2851V11H9.75313V10.2915C9.40012 10.2702 9.06619 10.2128 8.75134 10.1191C8.43649 10.0255 8.18605 9.90638 8 9.7617L8.322 9.11702C8.49851 9.24468 8.71318 9.35319 8.96601 9.44255C9.21884 9.52766 9.48122 9.58085 9.75313 9.60213V8.32553C9.41443 8.25319 9.13059 8.17447 8.90161 8.08936C8.6774 8 8.48897 7.87234 8.33631 7.70638C8.18366 7.53617 8.10733 7.31277 8.10733 7.03617C8.10733 6.69149 8.24806 6.39787 8.52952 6.15532C8.81097 5.91277 9.21884 5.76809 9.75313 5.72128V5H10.3399V5.70851C10.607 5.72128 10.867 5.7617 11.1199 5.82979C11.3775 5.89787 11.6017 5.98723 11.7925 6.09787L11.4991 6.74255C11.1366 6.55532 10.7501 6.44043 10.3399 6.39787V7.68723C10.6834 7.75957 10.9672 7.8383 11.1914 7.9234C11.4204 8.00851 11.6112 8.13617 11.7639 8.30638C11.9213 8.47234 12 8.69362 12 8.97021ZM9.03041 6.99787C9.03041 7.1383 9.09243 7.25106 9.21646 7.33617C9.34049 7.42128 9.51938 7.49362 9.75313 7.55319V6.41702C9.50984 6.45106 9.32856 6.51915 9.2093 6.62128C9.09004 6.7234 9.03041 6.84894 9.03041 6.99787ZM10.3399 9.58936C10.5927 9.55532 10.7788 9.48936 10.898 9.39149C11.0221 9.29362 11.0841 9.17234 11.0841 9.02766C11.0841 8.88298 11.0197 8.76808 10.8909 8.68298C10.7621 8.59362 10.5784 8.51915 10.3399 8.45957V9.58936Z" fill="#2F2F2F"/>
</svg>
