<svg width="32" height="32" viewBox="0 0 32 32" fill="none" xmlns="http://www.w3.org/2000/svg">
<path fill-rule="evenodd" clip-rule="evenodd" d="M18.2166 24.9857C18.2166 26.6504 17.867 27.9999 15.8833 27.9999C13.8718 27.9999 13.55 26.6504 13.55 24.9857H18.2166ZM15.9921 7.82735C19.7883 7.82735 22.8656 10.7278 22.8656 14.3057V19.4884C22.8656 21.2251 26.2647 21.5168 25.0843 22.68C23.8732 23.8734 18.3206 23.9927 16.1932 23.9992L15.9921 23.9995C14.0495 23.9995 8.17099 23.9012 6.9209 22.68C5.72818 21.5148 9.11864 21.2353 9.11864 19.4884V14.3057C9.11864 10.7278 12.196 7.82735 15.9921 7.82735ZM16.1288 5.33325C17.1665 5.33325 18.0077 6.14297 18.0077 7.1418H14.25C14.25 6.14297 15.0912 5.33325 16.1288 5.33325Z" fill="#FFC857"/>
</svg>
