<svg width="24" height="24" viewBox="0 0 24 24" fill="none" xmlns="http://www.w3.org/2000/svg">
<path d="M3.75 6C3.75 5.86193 3.86193 5.75 4 5.75H22C22.1381 5.75 22.25 5.86193 22.25 6V13V16C22.25 16.1381 22.1381 16.25 22 16.25H4C3.86193 16.25 3.75 16.1381 3.75 16V13V6Z" stroke="#203D5C" stroke-width="1.5"/>
<mask id="path-2-inside-1_1826_2416" fill="white">
<rect x="1" y="7" width="20" height="12" rx="1"/>
</mask>
<rect x="1" y="7" width="20" height="12" rx="1" fill="#E4E8EB" stroke="#203D5C" stroke-width="3" mask="url(#path-2-inside-1_1826_2416)"/>
<circle cx="11" cy="13" r="2.25" stroke="#203D5C" stroke-width="1.5"/>
<path d="M2 13H6" stroke="#203D5C" stroke-width="1.5" stroke-linecap="round"/>
<path d="M16 13H20" stroke="#203D5C" stroke-width="1.5" stroke-linecap="round"/>
<circle cx="19" cy="9" r="1" stroke="#203D5C" stroke-width="1.5" stroke-linecap="round"/>
<circle cx="19" cy="17" r="1" stroke="#203D5C" stroke-width="1.5" stroke-linecap="round"/>
<circle cx="3" cy="17" r="1" stroke="#203D5C" stroke-width="1.5" stroke-linecap="round"/>
<circle cx="3" cy="9" r="1" stroke="#203D5C" stroke-width="1.5" stroke-linecap="round"/>
</svg>
