<svg width="226" height="205" viewBox="0 0 226 205" fill="none" xmlns="http://www.w3.org/2000/svg">
<ellipse cx="117.84" cy="171.446" rx="108" ry="27" fill="#CDD3D9"/>
<circle cx="156.34" cy="72.9463" r="36.5" fill="#CDD3D9"/>
<circle cx="205.5" cy="105.945" r="17.5" fill="#CDD3D9"/>
<circle cx="217.5" cy="80.9453" r="5.5" fill="#CDD3D9"/>
<rect x="43.8516" y="142.892" width="56" height="138" rx="6" transform="rotate(-141.542 43.8516 142.892)" fill="#CDD3D9"/>
<path d="M113.267 44.145L120.749 47.6788C121.504 48.0351 122.344 48.1683 123.172 48.0625L131.38 47.0138C131.565 46.9901 131.752 47.0506 131.888 47.1788L137.912 52.8517C138.519 53.4238 139.278 53.8102 140.097 53.9654L148.228 55.5044C148.411 55.5392 148.57 55.6543 148.66 55.8182L152.636 63.075C153.037 63.8068 153.639 64.4087 154.37 64.8096L161.627 68.7857C161.791 68.8755 161.906 69.034 161.941 69.2176L163.48 77.3479C163.635 78.1678 164.022 78.9262 164.594 79.5336L170.267 85.5576C170.395 85.6937 170.455 85.8799 170.432 86.0653L169.383 94.2733C169.277 95.101 169.41 95.9417 169.767 96.6962L173.3 104.178C173.38 104.347 173.38 104.543 173.3 104.712L169.767 112.194C169.41 112.949 169.277 113.79 169.383 114.617L170.432 122.825C170.455 123.011 170.395 123.197 170.267 123.333L164.594 129.357C164.022 129.964 163.635 130.723 163.48 131.543L161.941 139.673C161.906 139.857 161.791 140.015 161.627 140.105L154.37 144.081C153.639 144.482 153.037 145.084 152.636 145.816L148.66 153.072C148.57 153.236 148.411 153.351 148.228 153.386L140.097 154.925C139.278 155.08 138.519 155.467 137.912 156.039L131.888 161.712C131.752 161.84 131.565 161.901 131.38 161.877L123.172 160.828C122.344 160.722 121.504 160.856 120.749 161.212L113.267 164.746C113.098 164.825 112.902 164.825 112.733 164.746L105.251 161.212C104.496 160.856 103.656 160.722 102.828 160.828L94.62 161.877C94.4346 161.901 94.2484 161.84 94.1123 161.712L88.0883 156.039C87.4809 155.467 86.7225 155.08 85.9026 154.925L77.7723 153.386C77.5887 153.351 77.4302 153.236 77.3404 153.072L73.3643 145.816C72.9633 145.084 72.3615 144.482 71.6297 144.081L64.3729 140.105C64.209 140.015 64.0939 139.857 64.0591 139.673L62.5201 131.543C62.3649 130.723 61.9785 129.964 61.4064 129.357L55.7335 123.333C55.6053 123.197 55.5448 123.011 55.5685 122.825L56.6172 114.617C56.7229 113.79 56.5898 112.949 56.2335 112.194L52.6997 104.712C52.6198 104.543 52.6198 104.347 52.6997 104.178L56.2335 96.6962C56.5898 95.9417 56.7229 95.101 56.6172 94.2733L55.5685 86.0653C55.5448 85.8799 55.6053 85.6937 55.7334 85.5576L61.4064 79.5336C61.9785 78.9262 62.3649 78.1678 62.5201 77.3479L64.0591 69.2176C64.0939 69.034 64.209 68.8755 64.3729 68.7857L71.6297 64.8096C72.3615 64.4087 72.9633 63.8068 73.3643 63.075L77.3404 55.8182C77.4302 55.6543 77.5887 55.5392 77.7723 55.5044L85.9026 53.9654C86.7225 53.8102 87.4809 53.4238 88.0883 52.8517L94.1123 47.1788C94.2484 47.0506 94.4346 46.9901 94.62 47.0138L102.828 48.0625C103.656 48.1683 104.496 48.0351 105.251 47.6788L112.733 44.145C112.902 44.0652 113.098 44.0652 113.267 44.145Z" fill="#FFC857" stroke="#203D5C" stroke-width="3.75"/>
<circle cx="113" cy="104.445" r="48.125" fill="#AFB9C4" stroke="#203D5C" stroke-width="3.75"/>
<mask id="path-8-inside-1_2024_36110" fill="white">
<path fill-rule="evenodd" clip-rule="evenodd" d="M147.614 91.6684C148.573 90.6752 148.545 89.0925 147.552 88.1334L137.661 78.5818C136.668 77.6227 135.085 77.6503 134.126 78.6435L107.208 106.518L95.5187 95.2297C94.5255 94.2706 92.9428 94.2982 91.9837 95.2914L82.4322 105.182C81.473 106.176 81.5007 107.758 82.4939 108.717L95.972 121.733C95.9751 121.736 95.9783 121.739 95.9815 121.742L105.872 131.294C106.493 131.893 107.344 132.107 108.129 131.941C108.6 131.841 109.048 131.604 109.407 131.232L147.614 91.6684Z"/>
</mask>
<path fill-rule="evenodd" clip-rule="evenodd" d="M147.614 91.6684C148.573 90.6752 148.545 89.0925 147.552 88.1334L137.661 78.5818C136.668 77.6227 135.085 77.6503 134.126 78.6435L107.208 106.518L95.5187 95.2297C94.5255 94.2706 92.9428 94.2982 91.9837 95.2914L82.4322 105.182C81.473 106.176 81.5007 107.758 82.4939 108.717L95.972 121.733C95.9751 121.736 95.9783 121.739 95.9815 121.742L105.872 131.294C106.493 131.893 107.344 132.107 108.129 131.941C108.6 131.841 109.048 131.604 109.407 131.232L147.614 91.6684Z" fill="#FFC857"/>
<path d="M147.552 88.1334L144.947 90.8309L147.552 88.1334ZM137.661 78.5818L140.266 75.8843L137.661 78.5818ZM107.208 106.518L104.603 109.215L107.301 111.82L109.906 109.123L107.208 106.518ZM95.5187 95.2297L92.9137 97.9272L95.5187 95.2297ZM95.972 121.733L98.5909 119.049L98.5839 119.042L98.5769 119.035L95.972 121.733ZM108.129 131.941L107.352 128.272L107.352 128.272L108.129 131.941ZM144.947 90.8309C144.45 90.3513 144.437 89.56 144.916 89.0634L150.311 94.2733C152.709 91.7903 152.64 87.8336 150.157 85.4358L144.947 90.8309ZM135.056 81.2793L144.947 90.8309L150.157 85.4358L140.266 75.8843L135.056 81.2793ZM136.824 81.2485C136.344 81.7451 135.553 81.7589 135.056 81.2793L140.266 75.8843C137.783 73.4865 133.826 73.5555 131.428 76.0385L136.824 81.2485ZM109.906 109.123L136.824 81.2485L131.428 76.0385L104.51 103.913L109.906 109.123ZM92.9137 97.9272L104.603 109.215L109.813 103.82L98.1237 92.5322L92.9137 97.9272ZM94.6812 97.8964C94.2017 98.393 93.4103 98.4068 92.9137 97.9272L98.1237 92.5322C95.6407 90.1344 91.684 90.2034 89.2862 92.6864L94.6812 97.8964ZM85.1297 107.787L94.6812 97.8964L89.2862 92.6864L79.7346 102.577L85.1297 107.787ZM85.0988 106.02C85.5954 106.499 85.6093 107.291 85.1297 107.787L79.7346 102.577C77.3368 105.06 77.4059 109.017 79.8889 111.415L85.0988 106.02ZM98.5769 119.035L85.0988 106.02L79.8889 111.415L93.367 124.43L98.5769 119.035ZM98.5864 119.045C98.5879 119.046 98.5894 119.048 98.5909 119.049L93.353 124.417C93.3608 124.425 93.3687 124.432 93.3765 124.44L98.5864 119.045ZM108.477 128.596L98.5864 119.045L93.3765 124.44L103.267 133.991L108.477 128.596ZM107.352 128.272C107.734 128.192 108.164 128.294 108.477 128.596L103.267 133.991C104.822 135.492 106.955 136.023 108.906 135.61L107.352 128.272ZM106.71 128.627C106.886 128.445 107.114 128.323 107.352 128.272L108.906 135.61C110.086 135.36 111.209 134.764 112.105 133.837L106.71 128.627ZM144.916 89.0634L106.71 128.627L112.105 133.837L150.311 94.2733L144.916 89.0634Z" fill="#203D5C" mask="url(#path-8-inside-1_2024_36110)"/>
</svg>
