<svg width="178" height="267" viewBox="0 0 178 267" fill="none" xmlns="http://www.w3.org/2000/svg">
<g filter="url(#filter0_d_1821_7172)">
<rect x="12" y="12" width="154" height="243" rx="6" fill="#203D5C"/>
</g>
<g filter="url(#filter1_d_1821_7172)">
<path d="M78 64.6603V41.3397C78 40.1887 78.4594 39.0849 79.277 38.2711C80.0947 37.4572 81.2036 37 82.3599 37H97.6401C98.7964 37 99.9054 37.4572 100.723 38.2711C101.541 39.0849 102 40.1887 102 41.3397V64.6603C102.001 65.2306 101.889 65.7955 101.671 66.3226C101.452 66.8497 101.131 67.3287 100.726 67.7319C100.321 68.1352 99.8397 68.4547 99.3101 68.6724C98.7806 68.89 98.213 69.0013 97.6401 69H82.3599C81.2036 69 80.0947 68.5428 79.277 67.7289C78.4594 66.9151 78 65.8113 78 64.6603Z" fill="#FFC857"/>
<path d="M101.5 64.6603L101.5 64.6615C101.501 65.1656 101.402 65.665 101.209 66.1311C101.016 66.5971 100.732 67.0208 100.373 67.3775C100.015 67.7343 99.589 68.0172 99.1201 68.2099C98.6512 68.4026 98.1486 68.5012 97.6412 68.5H97.6401H82.3599C81.3355 68.5 80.3534 68.0949 79.6297 67.3746C78.9061 66.6543 78.5 65.6779 78.5 64.6603V41.3397C78.5 40.3221 78.9061 39.3457 79.6297 38.6254C80.3534 37.9051 81.3355 37.5 82.3599 37.5H97.6401C98.6645 37.5 99.6466 37.9051 100.37 38.6254C101.094 39.3457 101.5 40.3221 101.5 41.3397L101.5 64.6603Z" stroke="#AF8020"/>
</g>
<rect x="86" y="38" width="2" height="30" fill="#FFB257"/>
<rect x="92" y="57" width="2" height="11" fill="#FFB257"/>
<rect x="92" y="38" width="2" height="15" fill="#FFB257"/>
<path d="M79 48L83 52V54L79 50V48Z" fill="#FFB257"/>
<path d="M97 51L101 55V57L97 53V51Z" fill="#FFB257"/>
<path d="M79 58L83 54V52L79 56V58Z" fill="#FFB257"/>
<path d="M97 53L101 49V47L97 51V53Z" fill="#FFB257"/>
<rect x="88" y="47" width="6" height="2" fill="#FFB257"/>
<rect x="86" y="57" width="8" height="2" fill="#FFB257"/>
<rect x="83" y="52" width="5" height="2" fill="#FFB257"/>
<rect x="92" y="51" width="5" height="2" fill="#FFB257"/>
<path d="M12 158C12 158 35.1795 185.201 87.5 185.201C139.821 185.201 166 158 166 158V249C166 252.314 163.314 255 160 255H18C14.6863 255 12 252.314 12 249V158Z" fill="white"/>
<path d="M88.9531 116.863H91.1692V96.0156L88.2002 96.9317V116.111C88.2002 116.526 88.5379 116.863 88.9531 116.863Z" fill="white"/>
<path d="M81.6651 109.764L81.921 109.609C82.9862 108.968 83.8004 108.073 84.3403 106.952C84.9214 105.745 85.1968 104.383 85.1821 102.785L85.1773 101.432L82.1855 102.316L82.1476 103.553C82.1134 103.965 82.0798 104.355 81.9985 104.732C81.651 106.341 80.7403 107.31 79.2106 107.699C78.2885 107.933 77.3545 107.92 76.3658 107.908L76.0156 107.903V96H73V116.885H76.0346V110.688L76.3143 110.684C76.4411 110.683 76.5696 110.682 76.6964 110.68C77.3393 110.672 77.9953 110.666 78.6452 110.619L78.8111 110.608L78.9022 110.747C79.6611 111.899 80.4352 113.06 81.1838 114.182C81.7036 114.962 82.2235 115.743 82.7412 116.523C82.9114 116.781 83.1369 116.905 83.4312 116.905H83.4518C83.879 116.896 84.3213 116.898 84.7111 116.899H84.7712C84.9133 116.9 85.0548 116.9 85.1968 116.9L86.5574 116.904L86.3276 116.59L81.6651 109.764Z" fill="white"/>
<path d="M110.402 113.632C108.968 113.632 107.804 114.795 107.804 116.23C107.804 116.482 107.841 116.724 107.908 116.955H112.896C112.963 116.724 113 116.482 113 116.23C113.001 114.795 111.838 113.632 110.402 113.632Z" fill="#FFC857"/>
<path d="M96.8486 111.841V104.188L93.9463 104.924V111.841C93.9463 115.001 96.1021 117.209 99.1871 117.209C100.467 117.209 101.476 116.773 102.098 116.408L102.832 115.977V116.961H105.734V104.205L102.832 104.905V111.343C102.832 113.42 101.664 114.659 99.7097 114.659C98.0249 114.66 96.8486 113.501 96.8486 111.841Z" fill="white"/>
<path d="M113 241C121.837 241 129 233.837 129 225C129 216.163 121.837 209 113 209C104.163 209 97 216.163 97 225C97 233.837 104.163 241 113 241Z" fill="#E8051A"/>
<path d="M135.857 241C144.693 241 151.857 233.837 151.857 225C151.857 216.163 144.693 209 135.857 209C127.02 209 119.857 216.163 119.857 225C119.857 233.837 127.02 241 135.857 241Z" fill="#F49E1D"/>
<path fill-rule="evenodd" clip-rule="evenodd" d="M124.431 213.805C127.257 216.69 129 220.642 129 225C129 229.359 127.257 233.311 124.43 236.196C121.6 233.311 119.857 229.359 119.857 225C119.857 220.766 121.502 216.916 124.187 214.054L124.431 213.805Z" fill="#E8051A" fill-opacity="0.4"/>
<defs>
<filter id="filter0_d_1821_7172" x="0" y="0" width="178" height="267" filterUnits="userSpaceOnUse" color-interpolation-filters="sRGB">
<feFlood flood-opacity="0" result="BackgroundImageFix"/>
<feColorMatrix in="SourceAlpha" type="matrix" values="0 0 0 0 0 0 0 0 0 0 0 0 0 0 0 0 0 0 127 0" result="hardAlpha"/>
<feOffset/>
<feGaussianBlur stdDeviation="6"/>
<feColorMatrix type="matrix" values="0 0 0 0 0.184314 0 0 0 0 0.184314 0 0 0 0 0.184314 0 0 0 0.12 0"/>
<feBlend mode="normal" in2="BackgroundImageFix" result="effect1_dropShadow_1821_7172"/>
<feBlend mode="normal" in="SourceGraphic" in2="effect1_dropShadow_1821_7172" result="shape"/>
</filter>
<filter id="filter1_d_1821_7172" x="75" y="34" width="30" height="38" filterUnits="userSpaceOnUse" color-interpolation-filters="sRGB">
<feFlood flood-opacity="0" result="BackgroundImageFix"/>
<feColorMatrix in="SourceAlpha" type="matrix" values="0 0 0 0 0 0 0 0 0 0 0 0 0 0 0 0 0 0 127 0" result="hardAlpha"/>
<feOffset/>
<feGaussianBlur stdDeviation="1.5"/>
<feColorMatrix type="matrix" values="0 0 0 0 0.184314 0 0 0 0 0.184314 0 0 0 0 0.184314 0 0 0 0.2 0"/>
<feBlend mode="normal" in2="BackgroundImageFix" result="effect1_dropShadow_1821_7172"/>
<feBlend mode="normal" in="SourceGraphic" in2="effect1_dropShadow_1821_7172" result="shape"/>
</filter>
</defs>
</svg>
