<svg width="40" height="40" viewBox="0 0 40 40" fill="none" xmlns="http://www.w3.org/2000/svg">
<circle cx="20" cy="20" r="20" fill="#F8F8F8"/>
<path fill-rule="evenodd" clip-rule="evenodd" d="M22.2167 28.9858C22.2167 30.6505 21.8671 32 19.8834 32C17.8719 32 17.55 30.6505 17.55 28.9858H22.2167ZM19.9922 11.8274C23.7883 11.8274 26.8657 14.7279 26.8657 18.3058V23.4885C26.8657 25.2252 30.2647 25.5169 29.0843 26.6801C27.8733 27.8735 22.3207 27.9928 20.1932 27.9993L19.9922 27.9996C18.0496 27.9996 12.1711 27.9013 10.921 26.6801C9.72824 25.5149 13.1187 25.2354 13.1187 23.4885V18.3058C13.1187 14.7279 16.1961 11.8274 19.9922 11.8274ZM20.1289 9.33334C21.1666 9.33334 22.0078 10.1431 22.0078 11.1419H18.25C18.25 10.1431 19.0912 9.33334 20.1289 9.33334Z" fill="#FFC857"/>
<circle cx="25" cy="12" r="3" fill="#FC7A57"/>
</svg>
