<svg width="25" height="24" viewBox="0 0 25 24" fill="none" xmlns="http://www.w3.org/2000/svg">
<path d="M11.0263 18.2044H15.677M5.21291 20.2501H7.70191C10.003 21.4219 11.4291 22.0884 11.9802 22.2497C12.5312 22.411 13.0317 22.411 13.4818 22.2497L21.9169 17.5075C22.3052 17.0244 22.3691 16.5673 22.1086 16.1363C21.848 15.7053 21.4612 15.5512 20.9483 15.6738L15.7495 18.2226C16.0015 17.95 16.1155 17.6226 16.0916 17.2402C16.0714 16.5736 15.5219 16.2541 14.4431 16.2818H10.7946L8.73749 15.3946H5.21291V20.2501ZM2.5 14.2319H5.21291V21.5956H2.5V14.2319Z" stroke="#2F2F2F" stroke-width="1.5" stroke-linecap="round" stroke-linejoin="round"/>
<circle cx="12.5" cy="7" r="5.25" stroke="#2F2F2F" stroke-width="1.5" stroke-linecap="round"/>
<path d="M14.5 7.97021C14.5 8.31489 14.3569 8.60851 14.0707 8.85106C13.7892 9.08936 13.379 9.23404 12.8399 9.28511V10H12.2531V9.29149C11.9001 9.27021 11.5662 9.21277 11.2513 9.11915C10.9365 9.02553 10.686 8.90638 10.5 8.7617L10.822 8.11702C10.9985 8.24468 11.2132 8.35319 11.466 8.44255C11.7188 8.52766 11.9812 8.58085 12.2531 8.60213V7.32553C11.9144 7.25319 11.6306 7.17447 11.4016 7.08936C11.1774 7 10.989 6.87234 10.8363 6.70638C10.6837 6.53617 10.6073 6.31277 10.6073 6.03617C10.6073 5.69149 10.7481 5.39787 11.0295 5.15532C11.311 4.91277 11.7188 4.76809 12.2531 4.72128V4H12.8399V4.70851C13.107 4.72128 13.367 4.7617 13.6199 4.82979C13.8775 4.89787 14.1017 4.98723 14.2925 5.09787L13.9991 5.74255C13.6366 5.55532 13.2501 5.44043 12.8399 5.39787V6.68723C13.1834 6.75957 13.4672 6.8383 13.6914 6.9234C13.9204 7.00851 14.1112 7.13617 14.2639 7.30638C14.4213 7.47234 14.5 7.69362 14.5 7.97021ZM11.5304 5.99787C11.5304 6.1383 11.5924 6.25106 11.7165 6.33617C11.8405 6.42128 12.0194 6.49362 12.2531 6.55319V5.41702C12.0098 5.45106 11.8286 5.51915 11.7093 5.62128C11.59 5.7234 11.5304 5.84894 11.5304 5.99787ZM12.8399 8.58936C13.0927 8.55532 13.2788 8.48936 13.398 8.39149C13.5221 8.29362 13.5841 8.17234 13.5841 8.02766C13.5841 7.88298 13.5197 7.76808 13.3909 7.68298C13.2621 7.59362 13.0784 7.51915 12.8399 7.45957V8.58936Z" fill="#2F2F2F"/>
</svg>
