<svg width="24" height="24" viewBox="0 0 24 24" fill="none" xmlns="http://www.w3.org/2000/svg">
<path fill-rule="evenodd" clip-rule="evenodd" d="M10.7098 3.2998L13.8903 3.2998C16.1191 3.2998 16.9273 3.53187 17.7422 3.96764C18.557 4.4034 19.1964 5.04288 19.6322 5.85769C20.068 6.67251 20.3 7.48072 20.3 9.70952V12.8901C20.3 15.1189 20.068 15.9271 19.6322 16.7419C19.1964 17.5567 18.557 18.1962 17.7422 18.632C16.9273 19.0677 16.1191 19.2998 13.8903 19.2998H10.7098C8.48096 19.2998 7.67275 19.0677 6.85793 18.632C6.04312 18.1962 5.40365 17.5567 4.96788 16.7419C4.53211 15.9271 4.30005 15.1189 4.30005 12.8901V9.70952C4.30005 7.48072 4.53211 6.67251 4.96788 5.85769C5.40365 5.04288 6.04312 4.4034 6.85793 3.96764C7.67275 3.53187 8.48096 3.2998 10.7098 3.2998ZM12.3 15.5351C14.3792 15.5351 16.0648 13.8496 16.0648 11.7704C16.0648 9.6912 14.3792 8.00569 12.3 8.00569C10.2209 8.00569 8.53534 9.6912 8.53534 11.7704C8.53534 13.8496 10.2209 15.5351 12.3 15.5351Z" stroke="#203D5C" stroke-width="2" stroke-linecap="round" stroke-linejoin="round"/>
<path d="M16.5354 7.59375C17.0877 7.59375 17.5354 7.14603 17.5354 6.59375C17.5354 6.04147 17.0877 5.59375 16.5354 5.59375C15.9831 5.59375 15.5354 6.04147 15.5354 6.59375C15.5354 7.14603 15.9831 7.59375 16.5354 7.59375Z" fill="#203D5C"/>
</svg>
