<svg width="24" height="24" viewBox="0 0 24 24" fill="none" xmlns="http://www.w3.org/2000/svg">
<circle cx="12" cy="12" r="10" fill="#FFC857"/>
<path d="M10.5469 7H13.4531L12.9688 13.4548H11.0312L10.5469 7ZM12 17C11.5729 17 11.2135 16.8776 10.9219 16.6328C10.6406 16.3785 10.5 16.0725 10.5 15.7147C10.5 15.3569 10.6406 15.0603 10.9219 14.8249C11.2031 14.58 11.5625 14.4576 12 14.4576C12.4375 14.4576 12.7969 14.58 13.0781 14.8249C13.3594 15.0603 13.5 15.3569 13.5 15.7147C13.5 16.0725 13.3542 16.3785 13.0625 16.6328C12.7812 16.8776 12.4271 17 12 17Z" fill="white"/>
</svg>
