<svg width="25" height="24" viewBox="0 0 25 24" fill="none" xmlns="http://www.w3.org/2000/svg">
<circle cx="11.5" cy="11" r="8" stroke="#2F2F2F" stroke-width="1.5" stroke-linecap="round" stroke-linejoin="round"/>
<path d="M8.49992 3.5C7.66659 4.83333 6.39992 7.7 7.99992 8.5C9.99992 9.5 12.4999 9 12.4999 11C12.4999 13 14.9999 12.5 12.9999 15C11.3999 17 8.66659 17.8333 7.49992 18" stroke="#2F2F2F" stroke-width="1.5" stroke-linecap="round" stroke-linejoin="round"/>
<path d="M15.4999 4.5C14.8332 5.5 13.8999 7.7 15.4999 8.5C17.0999 9.3 16.4999 12.6667 16.4999 14L17.4999 16" stroke="#2F2F2F" stroke-width="1.5" stroke-linecap="round" stroke-linejoin="round"/>
<circle cx="16.5" cy="16" r="5" fill="white" stroke="#2F2F2F" stroke-width="1.5" stroke-linecap="round" stroke-linejoin="round"/>
<path d="M18.3641 16.6801C18.3641 17.0161 18.2421 17.3101 17.9981 17.5621C17.7581 17.8101 17.4141 17.9741 16.9661 18.0541V18.7201H16.1201V18.0841C15.8201 18.0681 15.5321 18.0221 15.2561 17.9461C14.9841 17.8701 14.7581 17.7761 14.5781 17.6641L15.0341 16.6321C15.2341 16.7481 15.4581 16.8421 15.7061 16.9141C15.9541 16.9821 16.1921 17.0161 16.4201 17.0161C16.6161 17.0161 16.7561 16.9981 16.8401 16.9621C16.9241 16.9221 16.9661 16.8641 16.9661 16.7881C16.9661 16.7001 16.9101 16.6341 16.7981 16.5901C16.6901 16.5461 16.5101 16.4981 16.2581 16.4461C15.9341 16.3781 15.6641 16.3061 15.4481 16.2301C15.2321 16.1501 15.0441 16.0221 14.8841 15.8461C14.7241 15.6661 14.6441 15.4241 14.6441 15.1201C14.6441 14.7681 14.7701 14.4661 15.0221 14.2141C15.2781 13.9621 15.6441 13.8021 16.1201 13.7341V13.0801H16.9661V13.7221C17.4461 13.7661 17.8521 13.8821 18.1841 14.0701L17.7581 15.0961C17.3461 14.8881 16.9561 14.7841 16.5881 14.7841C16.2241 14.7841 16.0421 14.8721 16.0421 15.0481C16.0421 15.1321 16.0961 15.1961 16.2041 15.2401C16.3121 15.2801 16.4901 15.3241 16.7381 15.3721C17.0581 15.4321 17.3281 15.5021 17.5481 15.5821C17.7681 15.6581 17.9581 15.7841 18.1181 15.9601C18.2821 16.1361 18.3641 16.3761 18.3641 16.6801Z" fill="#2F2F2F"/>
</svg>
