<svg width="162" height="146" viewBox="0 0 162 146" fill="none" xmlns="http://www.w3.org/2000/svg">
<ellipse cx="84.3788" cy="121.734" rx="76.6834" ry="19.1709" fill="#CDD3D9"/>
<circle cx="111.713" cy="51.7917" r="25.9162" fill="#CDD3D9"/>
<circle cx="146.617" cy="75.2268" r="12.4256" fill="#CDD3D9"/>
<circle cx="155.14" cy="57.476" r="3.90518" fill="#CDD3D9"/>
<rect x="31.8438" y="101.458" width="39.7618" height="97.9844" rx="4.26019" transform="rotate(-141.542 31.8438 101.458)" fill="#CDD3D9"/>
<path d="M76.7219 120.97L31.9316 99.0511C31.7794 98.9766 31.6829 98.8219 31.6829 98.6525V50.274L76.535 28.3251C76.6569 28.2654 76.7994 28.2649 76.9218 28.3235L122.731 50.2737L121.782 98.6506C121.779 98.8169 121.683 98.9674 121.534 99.0405L76.7219 120.97Z" fill="#AFB9C4" stroke="#203D5C" stroke-width="2.66262"/>
<path d="M45.4954 78.9851V57.4473C45.4954 57.2792 45.5903 57.1256 45.7407 57.0504L69.5737 45.1339C69.7047 45.0684 69.8596 45.0717 69.9876 45.1429L70.6297 43.9872L69.9876 45.1429L84.0995 52.9828C84.4057 53.1529 84.4034 53.5941 84.0954 53.7609L64.1499 64.5647C63.1865 65.0866 62.5693 66.0773 62.5255 67.172L61.7863 85.6519C61.7694 86.0742 61.2275 86.236 60.9818 85.8921L55.048 77.5847C54.1297 76.2991 52.3927 75.9075 51.0116 76.6748L46.1547 79.3731C45.8589 79.5374 45.4954 79.3235 45.4954 78.9851Z" fill="#FFC857" stroke="#203D5C" stroke-width="2.66262"/>
<path d="M90.5352 97.7833L98.428 93.8369M90.5352 106.663L102.374 100.743" stroke="#203D5C" stroke-width="2.66262" stroke-linejoin="round"/>
<path d="M112.589 113.345L113.055 112.098C105.61 109.31 92.4971 98.9197 95.6321 77.3378C95.6531 77.1929 95.7635 77.0546 95.9193 77.0024C105.579 73.7615 110.897 71.6715 113.025 70.7335C113.186 70.6623 113.344 70.6674 113.462 70.7171L130.535 77.9055C130.677 77.9654 130.77 78.0959 130.787 78.2286C133.196 97.6019 120.515 108.655 113.272 112.087C113.2 112.122 113.126 112.124 113.055 112.098L112.589 113.345Z" fill="#FFC857" stroke="#203D5C" stroke-width="2.66262"/>
<path d="M106.32 89.8916L112.24 97.7844L123.093 82.9854" stroke="#203D5C" stroke-width="2.66262" stroke-linecap="round" stroke-linejoin="round"/>
</svg>
