<?xml version="1.0" encoding="utf-8"?>
<!-- Generator: Adobe Illustrator 22.0.0, SVG Export Plug-In . SVG Version: 6.00 Build 0)  -->
<svg version="1.1" id="Capa_1" xmlns="http://www.w3.org/2000/svg" xmlns:xlink="http://www.w3.org/1999/xlink" x="0px" y="0px"
	 viewBox="0 0 24 24" style="enable-background:new 0 0 24 24;" xml:space="preserve">
<style type="text/css">
	.st0{fill:#2F2F2F;}
</style>
<g>
	<path class="st0" d="M19.6,24H4.4c-1.5,0-2.7-1.1-2.7-2.5V2.6C1.8,1.2,2.9,0,4.4,0h15.2c1.5,0,2.7,1.1,2.7,2.5v18.9
		C22.3,22.8,21.1,24,19.6,24z M4.4,1.9c-0.5,0-0.8,0.4-0.8,0.7v18.9c0,0.3,0.3,0.7,0.8,0.7h15.2c0.5,0,0.8-0.4,0.8-0.7V2.6
		c0-0.3-0.3-0.7-0.8-0.7H4.4z M8.4,16.2h-1c-0.5,0-0.9-0.4-0.9-0.9s0.4-0.9,0.9-0.9h1c0.5,0,0.9,0.4,0.9,0.9S8.9,16.2,8.4,16.2z
		 M11.1,11.6H7.4c-0.5,0-0.9-0.4-0.9-0.9c0-0.5,0.4-0.9,0.9-0.9h3.7c0.5,0,0.9,0.4,0.9,0.9C12,11.2,11.6,11.6,11.1,11.6z M15.8,6.9
		H7.4C6.9,6.9,6.4,6.5,6.4,6s0.4-0.9,0.9-0.9h8.4c0.5,0,0.9,0.4,0.9,0.9S16.3,6.9,15.8,6.9z"/>
</g>
</svg>
