<svg width="161" height="146" viewBox="0 0 161 146" fill="none" xmlns="http://www.w3.org/2000/svg">
<ellipse cx="83.6717" cy="121.734" rx="76.6834" ry="19.1709" fill="#CDD3D9"/>
<circle cx="111.006" cy="51.7917" r="25.9162" fill="#CDD3D9"/>
<circle cx="145.91" cy="75.2268" r="12.4256" fill="#CDD3D9"/>
<circle cx="154.433" cy="57.476" r="3.90518" fill="#CDD3D9"/>
<rect x="31.1367" y="101.458" width="39.7618" height="97.9844" rx="4.26019" transform="rotate(-141.542 31.1367 101.458)" fill="#CDD3D9"/>
<path d="M35.8555 90.1357V112.324" stroke="#203D5C" stroke-width="2.66262" stroke-linecap="round"/>
<path d="M44.7305 113.212V123.862" stroke="#203D5C" stroke-width="2.66262" stroke-linecap="round"/>
<path d="M103.309 109.662V114.987" stroke="#203D5C" stroke-width="2.66262" stroke-linecap="round"/>
<path d="M110.41 100.786V111.437" stroke="#203D5C" stroke-width="2.66262" stroke-linecap="round"/>
<rect x="46.7297" y="27.5642" width="58.2345" height="70.4139" rx="2.32252" fill="#FFC857" stroke="#203D5C" stroke-width="2.66262"/>
<rect x="43.0774" y="31.218" width="58.2345" height="70.4139" rx="2.32252" fill="#AFB9C4" stroke="#203D5C" stroke-width="2.66262"/>
<mask id="path-12-inside-1_2508_32391" fill="white">
<rect x="77.0664" y="43.2832" width="19.4871" height="7.10032" rx="1.21794"/>
</mask>
<rect x="77.0664" y="43.2832" width="19.4871" height="7.10032" rx="1.21794" fill="#FFC857" stroke="#203D5C" stroke-width="5.32524" mask="url(#path-12-inside-1_2508_32391)"/>
<mask id="path-13-inside-2_2508_32391" fill="white">
<rect x="49.0547" y="54.2456" width="46.2818" height="7.10032" rx="1.21794"/>
</mask>
<rect x="49.0547" y="54.2456" width="46.2818" height="7.10032" rx="1.21794" fill="#FFC857" stroke="#203D5C" stroke-width="5.32524" mask="url(#path-13-inside-2_2508_32391)"/>
<mask id="path-14-inside-3_2508_32391" fill="white">
<rect x="49.0547" y="65.2085" width="46.2818" height="7.10032" rx="1.21794"/>
</mask>
<rect x="49.0547" y="65.2085" width="46.2818" height="7.10032" rx="1.21794" fill="#FFC857" stroke="#203D5C" stroke-width="5.32524" mask="url(#path-14-inside-3_2508_32391)"/>
<mask id="path-15-inside-4_2508_32391" fill="white">
<rect x="49.0547" y="76.1709" width="46.2818" height="7.10032" rx="1.21794"/>
</mask>
<rect x="49.0547" y="76.1709" width="46.2818" height="7.10032" rx="1.21794" fill="#FFC857" stroke="#203D5C" stroke-width="5.32524" mask="url(#path-15-inside-4_2508_32391)"/>
<mask id="path-16-inside-5_2508_32391" fill="white">
<rect x="49.0547" y="87.1333" width="46.2818" height="7.10032" rx="1.21794"/>
</mask>
<rect x="49.0547" y="87.1333" width="46.2818" height="7.10032" rx="1.21794" fill="#FFC857" stroke="#203D5C" stroke-width="5.32524" mask="url(#path-16-inside-5_2508_32391)"/>
<circle cx="59.3117" cy="43.7999" r="6.78504" fill="#FFC857" stroke="#203D5C" stroke-width="2.66262"/>
<path d="M57.5781 44.4989L58.7961 45.7168L62.4499 42.063" stroke="#203D5C" stroke-width="2.66262" stroke-linecap="round" stroke-linejoin="round"/>
<mask id="path-19-inside-6_2508_32391" fill="white">
<path fill-rule="evenodd" clip-rule="evenodd" d="M119.446 48.743C118.729 48.0744 117.606 48.1136 116.937 48.8306L100.917 66.0103L92.1316 58.1002C91.4031 57.4442 90.2807 57.503 89.6247 58.2315L86.0614 62.189C85.4054 62.9175 85.4643 64.0399 86.1928 64.6959L95.8205 73.3647C95.9036 73.5023 96.0069 73.6309 96.1303 73.7459L100.025 77.3777C100.742 78.0463 101.865 78.0071 102.534 77.2901L123.428 54.8836C124.097 54.1666 124.058 53.0434 123.341 52.3748L119.446 48.743Z"/>
</mask>
<path fill-rule="evenodd" clip-rule="evenodd" d="M119.446 48.743C118.729 48.0744 117.606 48.1136 116.937 48.8306L100.917 66.0103L92.1316 58.1002C91.4031 57.4442 90.2807 57.503 89.6247 58.2315L86.0614 62.189C85.4054 62.9175 85.4643 64.0399 86.1928 64.6959L95.8205 73.3647C95.9036 73.5023 96.0069 73.6309 96.1303 73.7459L100.025 77.3777C100.742 78.0463 101.865 78.0071 102.534 77.2901L123.428 54.8836C124.097 54.1666 124.058 53.0434 123.341 52.3748L119.446 48.743Z" fill="#FFC857"/>
<path d="M116.937 48.8306L114.99 47.0147L114.99 47.0147L116.937 48.8306ZM119.446 48.743L117.63 50.6903V50.6903L119.446 48.743ZM100.917 66.0103L99.1351 67.9891L101.08 69.7399L102.864 67.8263L100.917 66.0103ZM92.1316 58.1002L90.35 60.0789L90.35 60.0789L92.1316 58.1002ZM89.6247 58.2315L91.6034 60.0132H91.6034L89.6247 58.2315ZM86.0614 62.189L88.0401 63.9706L88.0401 63.9706L86.0614 62.189ZM86.1928 64.6959L84.4112 66.6746L84.4112 66.6746L86.1928 64.6959ZM95.8205 73.3647L98.0999 71.9884L97.8957 71.6503L97.6022 71.386L95.8205 73.3647ZM96.1303 73.7459L94.3144 75.6932L94.3144 75.6932L96.1303 73.7459ZM100.025 77.3777L101.841 75.4304L100.025 77.3777ZM102.534 77.2901L100.586 75.4742H100.586L102.534 77.2901ZM123.428 54.8836L125.376 56.6995L125.376 56.6995L123.428 54.8836ZM123.341 52.3748L121.525 54.3221L121.525 54.3221L123.341 52.3748ZM118.884 50.6465C118.55 51.005 117.989 51.0246 117.63 50.6903L121.262 46.7957C119.469 45.1242 116.661 45.2222 114.99 47.0147L118.884 50.6465ZM102.864 67.8263L118.884 50.6465L114.99 47.0147L98.9694 64.1944L102.864 67.8263ZM90.35 60.0789L99.1351 67.9891L102.698 64.0316L93.9132 56.1214L90.35 60.0789ZM91.6034 60.0132C91.2754 60.3774 90.7142 60.4069 90.35 60.0789L93.9132 56.1214C92.0919 54.4815 89.2859 54.6285 87.646 56.4499L91.6034 60.0132ZM88.0401 63.9706L91.6034 60.0132L87.646 56.4499L84.0827 60.4073L88.0401 63.9706ZM87.9744 62.7172C88.3387 63.0451 88.3681 63.6063 88.0401 63.9706L84.0827 60.4073C82.4428 62.2287 82.5898 65.0346 84.4112 66.6746L87.9744 62.7172ZM97.6022 71.386L87.9744 62.7172L84.4112 66.6746L94.0389 75.3434L97.6022 71.386ZM97.9463 71.7986C98.0048 71.8532 98.0569 71.9172 98.0999 71.9884L93.5412 74.741C93.7504 75.0874 94.0091 75.4085 94.3144 75.6932L97.9463 71.7986ZM101.841 75.4304L97.9462 71.7986L94.3144 75.6932L98.2091 79.325L101.841 75.4304ZM100.586 75.4742C100.921 75.1157 101.482 75.0961 101.841 75.4304L98.2091 79.325C100.002 80.9965 102.81 80.8985 104.481 79.106L100.586 75.4742ZM121.481 53.0677L100.586 75.4742L104.481 79.106L125.376 56.6995L121.481 53.0677ZM121.525 54.3221C121.166 53.9878 121.147 53.4262 121.481 53.0677L125.376 56.6995C127.047 54.9071 126.949 52.099 125.156 50.4275L121.525 54.3221ZM117.63 50.6903L121.525 54.3221L125.156 50.4275L121.262 46.7957L117.63 50.6903Z" fill="#203D5C" mask="url(#path-19-inside-6_2508_32391)"/>
<path d="M109.523 75.935L117.511 67.0596" stroke="#203D5C" stroke-width="2.66262" stroke-linecap="round"/>
</svg>
