<svg width="161" height="146" viewBox="0 0 161 146" fill="none" xmlns="http://www.w3.org/2000/svg">
<ellipse cx="84.0233" cy="121.734" rx="76.6834" ry="19.1709" fill="#CDD3D9"/>
<circle cx="111.358" cy="51.7917" r="25.9162" fill="#CDD3D9"/>
<circle cx="146.261" cy="75.2268" r="12.4256" fill="#CDD3D9"/>
<circle cx="154.784" cy="57.476" r="3.90518" fill="#CDD3D9"/>
<rect x="31.4883" y="101.458" width="39.7618" height="97.9844" rx="4.26019" transform="rotate(-141.542 31.4883 101.458)" fill="#CDD3D9"/>
<path d="M108.727 44.7855L109.894 44.1458L108.727 44.7855C109.011 45.3051 109.439 45.7324 109.958 46.0171L115.111 48.8403C115.227 48.904 115.309 49.0165 115.334 49.1469L116.426 54.9197C116.537 55.5018 116.811 56.0403 117.217 56.4716L121.245 60.7489C121.336 60.8455 121.379 60.9777 121.362 61.1093L120.618 66.9373C120.543 67.525 120.637 68.1219 120.89 68.6576L123.399 73.9702C123.456 74.0902 123.456 74.2292 123.399 74.3492L120.89 79.6618C120.637 80.1976 120.543 80.7945 120.618 81.3821L121.362 87.2101C121.379 87.3417 121.336 87.474 121.245 87.5706L117.217 91.8478C116.811 92.2791 116.537 92.8176 116.426 93.3997L117.734 93.6473L116.426 93.3997L115.334 99.1725C115.309 99.3029 115.227 99.4154 115.111 99.4791L109.958 102.302C109.439 102.587 109.011 103.014 108.727 103.534L105.903 108.687C105.84 108.803 105.727 108.885 105.597 108.909L99.824 110.002C99.2419 110.112 98.7034 110.387 98.2721 110.793L93.9949 114.821C93.8983 114.912 93.766 114.955 93.6344 114.938L87.8064 114.193C87.2188 114.118 86.6219 114.213 86.0862 114.466L80.7735 116.975C80.6536 117.032 80.5145 117.032 80.3945 116.975L75.0819 114.466C74.5462 114.213 73.9493 114.118 73.3616 114.193L67.5337 114.938C67.402 114.955 67.2698 114.912 67.1732 114.821L62.8959 110.793C62.4646 110.387 61.9261 110.112 61.344 110.002L55.5712 108.909C55.4408 108.885 55.3283 108.803 55.2646 108.687L52.4414 103.534C52.1567 103.014 51.7294 102.587 51.2098 102.302L50.5701 103.47L51.2098 102.302L46.0572 99.4791C45.9409 99.4154 45.8591 99.3029 45.8344 99.1725L44.7417 93.3997C44.6315 92.8176 44.3571 92.2791 43.9509 91.8478L39.9229 87.5706C39.832 87.474 39.789 87.3417 39.8058 87.2101L40.5504 81.3821C40.6255 80.7945 40.531 80.1976 40.278 79.6618L37.7689 74.3492L36.5651 74.9178L37.7689 74.3492C37.7122 74.2292 37.7122 74.0902 37.7689 73.9702L36.5651 73.4016L37.7689 73.9702L40.278 68.6576C40.531 68.1219 40.6255 67.525 40.5504 66.9373L39.8058 61.1093C39.789 60.9777 39.832 60.8455 39.9229 60.7489L43.9509 56.4716C44.3571 56.0403 44.6315 55.5018 44.7417 54.9197L45.8344 49.1469C45.8591 49.0165 45.9408 48.904 46.0572 48.8403L45.4175 47.6727L46.0572 48.8403L51.2098 46.0171C51.7294 45.7324 52.1567 45.3051 52.4414 44.7855L55.2646 39.6329L54.097 38.9932L55.2646 39.6329C55.3283 39.5165 55.4408 39.4348 55.5712 39.4101L61.344 38.3174C61.9262 38.2072 62.4646 37.9328 62.8959 37.5266L67.1732 33.4986C67.2698 33.4077 67.402 33.3647 67.5337 33.3815L73.3616 34.1261C73.9493 34.2012 74.5462 34.1067 75.0819 33.8536L80.3945 31.3445L79.826 30.1407L80.3945 31.3445C80.5145 31.2879 80.6536 31.2879 80.7735 31.3445L81.3421 30.1407L80.7735 31.3445L86.0862 33.8536C86.6219 34.1067 87.2188 34.2012 87.8065 34.1261L93.6344 33.3815C93.766 33.3647 93.8983 33.4077 93.9949 33.4986L98.2721 37.5266C98.7034 37.9328 99.2419 38.2072 99.824 38.3174L105.597 39.4101C105.727 39.4348 105.84 39.5165 105.903 39.6329L108.727 44.7855Z" fill="#FFC857" stroke="#203D5C" stroke-width="2.66262"/>
<circle cx="80.5836" cy="74.1618" r="34.1703" fill="#AFB9C4" stroke="#203D5C" stroke-width="2.66262"/>
<mask id="path-8-inside-1_2508_32401" fill="white">
<path fill-rule="evenodd" clip-rule="evenodd" d="M105.158 65.0884C105.84 64.3832 105.82 63.2595 105.115 62.5785L98.0918 55.7966C97.3866 55.1156 96.2629 55.1352 95.5819 55.8404L76.4692 75.6321L68.1695 67.6171C67.4643 66.9361 66.3405 66.9557 65.6595 67.6609L58.8776 74.6838C58.1966 75.389 58.2162 76.5127 58.9214 77.1937L68.4905 86.4345C68.493 86.4369 68.4955 86.4394 68.498 86.4418L75.5209 93.2237C75.8735 93.5642 76.3307 93.7296 76.785 93.7217C77.2392 93.7137 77.6904 93.5325 78.0309 93.1799L105.158 65.0884Z"/>
</mask>
<path fill-rule="evenodd" clip-rule="evenodd" d="M105.158 65.0884C105.84 64.3832 105.82 63.2595 105.115 62.5785L98.0918 55.7966C97.3866 55.1156 96.2629 55.1352 95.5819 55.8404L76.4692 75.6321L68.1695 67.6171C67.4643 66.9361 66.3405 66.9557 65.6595 67.6609L58.8776 74.6838C58.1966 75.389 58.2162 76.5127 58.9214 77.1937L68.4905 86.4345C68.493 86.4369 68.4955 86.4394 68.498 86.4418L75.5209 93.2237C75.8735 93.5642 76.3307 93.7296 76.785 93.7217C77.2392 93.7137 77.6904 93.5325 78.0309 93.1799L105.158 65.0884Z" fill="#FFC857"/>
<path d="M105.115 62.5785L106.964 60.6631L105.115 62.5785ZM98.0918 55.7966L96.2422 57.7119L98.0918 55.7966ZM76.4692 75.6321L74.6196 77.5474L76.5349 79.397L78.3846 77.4817L76.4692 75.6321ZM68.1695 67.6171L70.0191 65.7018L68.1695 67.6171ZM68.4905 86.4345L70.3505 84.5293L70.3453 84.5242L70.3401 84.5192L68.4905 86.4345ZM103.265 64.4938C102.912 64.1533 102.903 63.5914 103.243 63.2388L107.074 66.938C108.776 65.175 108.727 62.3657 106.964 60.6631L103.265 64.4938ZM96.2422 57.7119L103.265 64.4938L106.964 60.6631L99.9414 53.8812L96.2422 57.7119ZM97.4972 57.69C97.1567 58.0426 96.5948 58.0524 96.2422 57.7119L99.9414 53.8812C98.1784 52.1787 95.369 52.2278 93.6665 53.9908L97.4972 57.69ZM78.3846 77.4817L97.4972 57.69L93.6665 53.9908L74.5539 73.7825L78.3846 77.4817ZM66.3199 69.5324L74.6196 77.5474L78.3188 73.7168L70.0191 65.7018L66.3199 69.5324ZM67.5748 69.5105C67.2343 69.8631 66.6725 69.8729 66.3199 69.5324L70.0191 65.7018C68.2561 63.9993 65.4467 64.0483 63.7442 65.8113L67.5748 69.5105ZM60.7929 76.5334L67.5748 69.5105L63.7442 65.8113L56.9623 72.8342L60.7929 76.5334ZM60.771 75.2784C61.1236 75.6189 61.1334 76.1808 60.7929 76.5334L56.9623 72.8342C55.2598 74.5972 55.3088 77.4065 57.0718 79.1091L60.771 75.2784ZM70.3401 84.5192L60.771 75.2784L57.0718 79.1091L66.6409 88.3498L70.3401 84.5192ZM70.3476 84.5265C70.3492 84.528 70.3503 84.529 70.3505 84.5293L66.6305 88.3397C66.6357 88.3448 66.6418 88.3507 66.6484 88.3571L70.3476 84.5265ZM77.3705 91.3084L70.3476 84.5265L66.6484 88.3571L73.6713 95.1391L77.3705 91.3084ZM76.7385 91.0594C76.9615 91.0555 77.1947 91.1387 77.3705 91.3084L73.6713 95.1391C74.5523 95.9898 75.7 96.4036 76.8314 96.3839L76.7385 91.0594ZM76.1155 91.3303C76.2853 91.1545 76.5155 91.0633 76.7385 91.0594L76.8314 96.3839C77.9628 96.3641 79.0954 95.9105 79.9462 95.0295L76.1155 91.3303ZM103.243 63.2388L76.1155 91.3303L79.9462 95.0295L107.074 66.938L103.243 63.2388Z" fill="#203D5C" mask="url(#path-8-inside-1_2508_32401)"/>
</svg>
