<svg width="143" height="143" viewBox="0 0 143 143" fill="none" xmlns="http://www.w3.org/2000/svg">
<path d="M26.8555 87.1357V109.324" stroke="#203D5C" stroke-width="2.66262" stroke-linecap="round"/>
<path d="M35.7305 110.212V120.862" stroke="#203D5C" stroke-width="2.66262" stroke-linecap="round"/>
<path d="M94.3086 106.662V111.987" stroke="#203D5C" stroke-width="2.66262" stroke-linecap="round"/>
<path d="M101.41 97.7861V108.437" stroke="#203D5C" stroke-width="2.66262" stroke-linecap="round"/>
<rect x="37.7297" y="24.5642" width="58.2345" height="70.4139" rx="2.32252" fill="#FFC857" stroke="#203D5C" stroke-width="2.66262"/>
<rect x="34.0774" y="28.218" width="58.2345" height="70.4139" rx="2.32252" fill="#AFB9C4" stroke="#203D5C" stroke-width="2.66262"/>
<mask id="path-7-inside-1_2508_32397" fill="white">
<rect x="68.0664" y="40.2832" width="19.4871" height="7.10032" rx="1.21794"/>
</mask>
<rect x="68.0664" y="40.2832" width="19.4871" height="7.10032" rx="1.21794" fill="#FFC857" stroke="#203D5C" stroke-width="5.32524" mask="url(#path-7-inside-1_2508_32397)"/>
<mask id="path-8-inside-2_2508_32397" fill="white">
<rect x="40.0547" y="51.2456" width="46.2818" height="7.10032" rx="1.21794"/>
</mask>
<rect x="40.0547" y="51.2456" width="46.2818" height="7.10032" rx="1.21794" fill="#FFC857" stroke="#203D5C" stroke-width="5.32524" mask="url(#path-8-inside-2_2508_32397)"/>
<mask id="path-9-inside-3_2508_32397" fill="white">
<rect x="40.0547" y="62.2085" width="46.2818" height="7.10032" rx="1.21794"/>
</mask>
<rect x="40.0547" y="62.2085" width="46.2818" height="7.10032" rx="1.21794" fill="#FFC857" stroke="#203D5C" stroke-width="5.32524" mask="url(#path-9-inside-3_2508_32397)"/>
<mask id="path-10-inside-4_2508_32397" fill="white">
<rect x="40.0547" y="73.1709" width="46.2818" height="7.10032" rx="1.21794"/>
</mask>
<rect x="40.0547" y="73.1709" width="46.2818" height="7.10032" rx="1.21794" fill="#FFC857" stroke="#203D5C" stroke-width="5.32524" mask="url(#path-10-inside-4_2508_32397)"/>
<mask id="path-11-inside-5_2508_32397" fill="white">
<rect x="40.0547" y="84.1333" width="46.2818" height="7.10032" rx="1.21794"/>
</mask>
<rect x="40.0547" y="84.1333" width="46.2818" height="7.10032" rx="1.21794" fill="#FFC857" stroke="#203D5C" stroke-width="5.32524" mask="url(#path-11-inside-5_2508_32397)"/>
<circle cx="50.3117" cy="40.7999" r="6.78504" fill="#FFC857" stroke="#203D5C" stroke-width="2.66262"/>
<path d="M48.5781 41.4989L49.7961 42.7168L53.4499 39.063" stroke="#203D5C" stroke-width="2.66262" stroke-linecap="round" stroke-linejoin="round"/>
<mask id="path-14-inside-6_2508_32397" fill="white">
<path fill-rule="evenodd" clip-rule="evenodd" d="M110.446 45.743C109.729 45.0744 108.606 45.1136 107.937 45.8306L91.9168 63.0103L83.1316 55.1002C82.4031 54.4442 81.2807 54.503 80.6247 55.2315L77.0614 59.189C76.4054 59.9175 76.4643 61.0399 77.1928 61.6959L86.8205 70.3647C86.9036 70.5023 87.0069 70.6309 87.1303 70.7459L91.025 74.3777C91.742 75.0463 92.8652 75.0071 93.5338 74.2901L114.428 51.8836C115.097 51.1666 115.058 50.0434 114.341 49.3748L110.446 45.743Z"/>
</mask>
<path fill-rule="evenodd" clip-rule="evenodd" d="M110.446 45.743C109.729 45.0744 108.606 45.1136 107.937 45.8306L91.9168 63.0103L83.1316 55.1002C82.4031 54.4442 81.2807 54.503 80.6247 55.2315L77.0614 59.189C76.4054 59.9175 76.4643 61.0399 77.1928 61.6959L86.8205 70.3647C86.9036 70.5023 87.0069 70.6309 87.1303 70.7459L91.025 74.3777C91.742 75.0463 92.8652 75.0071 93.5338 74.2901L114.428 51.8836C115.097 51.1666 115.058 50.0434 114.341 49.3748L110.446 45.743Z" fill="#FFC857"/>
<path d="M107.937 45.8306L105.99 44.0147L105.99 44.0147L107.937 45.8306ZM110.446 45.743L108.63 47.6903V47.6903L110.446 45.743ZM91.9168 63.0103L90.1351 64.9891L92.0796 66.7399L93.8641 64.8263L91.9168 63.0103ZM83.1316 55.1002L81.35 57.0789L81.35 57.0789L83.1316 55.1002ZM80.6247 55.2315L82.6034 57.0132H82.6034L80.6247 55.2315ZM77.0614 59.189L79.0401 60.9706L79.0401 60.9706L77.0614 59.189ZM77.1928 61.6959L75.4112 63.6746L75.4112 63.6746L77.1928 61.6959ZM86.8205 70.3647L89.0999 68.9884L88.8957 68.6503L88.6022 68.386L86.8205 70.3647ZM87.1303 70.7459L85.3144 72.6932L85.3144 72.6932L87.1303 70.7459ZM91.025 74.3777L92.8409 72.4304L91.025 74.3777ZM93.5338 74.2901L91.5865 72.4742H91.5865L93.5338 74.2901ZM114.428 51.8836L116.376 53.6995L116.376 53.6995L114.428 51.8836ZM114.341 49.3748L112.525 51.3221L112.525 51.3221L114.341 49.3748ZM109.884 47.6465C109.55 48.005 108.989 48.0246 108.63 47.6903L112.262 43.7957C110.469 42.1242 107.661 42.2222 105.99 44.0147L109.884 47.6465ZM93.8641 64.8263L109.884 47.6465L105.99 44.0147L89.9694 61.1944L93.8641 64.8263ZM81.35 57.0789L90.1351 64.9891L93.6984 61.0316L84.9132 53.1214L81.35 57.0789ZM82.6034 57.0132C82.2754 57.3774 81.7142 57.4069 81.35 57.0789L84.9132 53.1214C83.0919 51.4815 80.2859 51.6285 78.646 53.4499L82.6034 57.0132ZM79.0401 60.9706L82.6034 57.0132L78.646 53.4499L75.0827 57.4073L79.0401 60.9706ZM78.9744 59.7172C79.3387 60.0451 79.3681 60.6063 79.0401 60.9706L75.0827 57.4073C73.4428 59.2287 73.5898 62.0346 75.4112 63.6746L78.9744 59.7172ZM88.6022 68.386L78.9744 59.7172L75.4112 63.6746L85.0389 72.3434L88.6022 68.386ZM88.9463 68.7986C89.0048 68.8532 89.0569 68.9172 89.0999 68.9884L84.5412 71.741C84.7504 72.0874 85.0091 72.4085 85.3144 72.6932L88.9463 68.7986ZM92.8409 72.4304L88.9462 68.7986L85.3144 72.6932L89.2091 76.325L92.8409 72.4304ZM91.5865 72.4742C91.9208 72.1157 92.4824 72.0961 92.8409 72.4304L89.2091 76.325C91.0015 77.9965 93.8096 77.8985 95.4811 76.106L91.5865 72.4742ZM112.481 50.0677L91.5865 72.4742L95.4811 76.106L116.376 53.6995L112.481 50.0677ZM112.525 51.3221C112.166 50.9878 112.147 50.4262 112.481 50.0677L116.376 53.6995C118.047 51.9071 117.949 49.099 116.156 47.4275L112.525 51.3221ZM108.63 47.6903L112.525 51.3221L116.156 47.4275L112.262 43.7957L108.63 47.6903Z" fill="#203D5C" mask="url(#path-14-inside-6_2508_32397)"/>
<path d="M100.523 72.935L108.511 64.0596" stroke="#203D5C" stroke-width="2.66262" stroke-linecap="round"/>
</svg>
