<svg width="161" height="146" viewBox="0 0 161 146" fill="none" xmlns="http://www.w3.org/2000/svg">
<ellipse cx="83.7342" cy="121.734" rx="76.6834" ry="19.1709" fill="#CDD3D9"/>
<circle cx="111.069" cy="51.7917" r="25.9162" fill="#CDD3D9"/>
<circle cx="145.972" cy="75.2268" r="12.4256" fill="#CDD3D9"/>
<circle cx="154.495" cy="57.476" r="3.90518" fill="#CDD3D9"/>
<rect x="31.1992" y="101.458" width="39.7618" height="97.9844" rx="4.26019" transform="rotate(-141.542 31.1992 101.458)" fill="#CDD3D9"/>
<path d="M42.5774 45.7587C42.5774 41.5922 45.955 38.2146 50.1215 38.2146H96.2736C100.44 38.2146 103.818 41.5922 103.818 45.7587V84.2025V101.23H50.1215C45.955 101.23 42.5774 97.8523 42.5774 93.6859V84.2025V45.7587Z" fill="#AFB9C4" stroke="#203D5C" stroke-width="2.66262"/>
<path d="M104.702 55.9656H122.261C124.621 55.9656 126.846 57.0704 128.272 58.9512L137.784 71.494C138.778 72.8056 139.316 74.4065 139.316 76.0525V100.786C139.316 101.031 139.118 101.23 138.873 101.23H104.702V55.9656Z" fill="#AFB9C4" stroke="#203D5C" stroke-width="2.66262"/>
<path d="M115.355 67.0598V56.4094C115.355 56.1643 115.553 55.9656 115.799 55.9656H125.374C125.515 55.9656 125.648 56.0326 125.732 56.1462L126.799 55.3604L125.732 56.1462L137.495 72.1219C137.711 72.415 137.502 72.8288 137.138 72.8288H121.124C117.938 72.8288 115.355 70.246 115.355 67.0598Z" fill="#FFC857" stroke="#203D5C" stroke-width="2.66262"/>
<path d="M73.6415 99.8984C73.6415 105.638 69.3709 110.105 64.3224 110.105C59.2738 110.105 55.0032 105.638 55.0032 99.8984C55.0032 94.159 59.2738 89.6917 64.3224 89.6917C69.3709 89.6917 73.6415 94.159 73.6415 99.8984Z" fill="#FFC857" stroke="#203D5C" stroke-width="2.66262"/>
<path d="M130.442 99.8984C130.442 105.638 126.172 110.105 121.123 110.105C116.075 110.105 111.804 105.638 111.804 99.8984C111.804 94.159 116.075 89.6917 121.123 89.6917C126.172 89.6917 130.442 94.159 130.442 99.8984Z" fill="#FFC857" stroke="#203D5C" stroke-width="2.66262"/>
<path d="M19.9453 57.9068H30.4226M28.5176 68.2799H50.4247M47.5673 77.71H58.9971M28.5176 47.5337H57.0921" stroke="#203D5C" stroke-width="2.66262" stroke-linecap="round" stroke-linejoin="round"/>
</svg>
