<svg width="24" height="24" viewBox="0 0 24 24" fill="none" xmlns="http://www.w3.org/2000/svg">
<g clip-path="url(#clip0_88_68)">
<g filter="url(#filter0_d_88_68)">
<rect x="2" y="6" width="20" height="12" rx="1" fill="white"/>
</g>
<path d="M22 17C22 17.5523 21.5523 18 21 18L3 18C2.44772 18 2 17.5523 2 17L22 17Z" fill="#C0042D"/>
<path d="M22 7L2 7V8L22 8V7Z" fill="#C0042D"/>
<path d="M22 11L2 11V12L22 12V11Z" fill="#C0042D"/>
<path d="M22 9L2 9V10L22 10V9Z" fill="#C0042D"/>
<path d="M22 13L2 13V14L22 14V13Z" fill="#C0042D"/>
<path d="M22 15L2 15V16L22 16V15Z" fill="#C0042D"/>
<path d="M2 7C2 6.44772 2.44772 6 3 6H11V12H2V7Z" fill="#002468"/>
<circle cx="3.5" cy="7.5" r="0.5" fill="white"/>
<circle cx="3.5" cy="9" r="0.5" fill="white"/>
<circle cx="3.5" cy="10.5" r="0.5" fill="white"/>
<circle cx="5.5" cy="7.5" r="0.5" fill="white"/>
<circle cx="5.5" cy="9" r="0.5" fill="white"/>
<circle cx="5.5" cy="10.5" r="0.5" fill="white"/>
<circle cx="9.5" cy="7.5" r="0.5" fill="white"/>
<circle cx="9.5" cy="9" r="0.5" fill="white"/>
<circle cx="9.5" cy="10.5" r="0.5" fill="white"/>
<circle cx="7.5" cy="7.5" r="0.5" fill="white"/>
<circle cx="7.5" cy="9" r="0.5" fill="white"/>
<circle cx="7.5" cy="10.5" r="0.5" fill="white"/>
</g>
<defs>
<filter id="filter0_d_88_68" x="-5" y="-1" width="34" height="26" filterUnits="userSpaceOnUse" color-interpolation-filters="sRGB">
<feFlood flood-opacity="0" result="BackgroundImageFix"/>
<feColorMatrix in="SourceAlpha" type="matrix" values="0 0 0 0 0 0 0 0 0 0 0 0 0 0 0 0 0 0 127 0" result="hardAlpha"/>
<feMorphology radius="1" operator="dilate" in="SourceAlpha" result="effect1_dropShadow_88_68"/>
<feOffset/>
<feGaussianBlur stdDeviation="3"/>
<feColorMatrix type="matrix" values="0 0 0 0 0 0 0 0 0 0 0 0 0 0 0 0 0 0 0.04 0"/>
<feBlend mode="normal" in2="BackgroundImageFix" result="effect1_dropShadow_88_68"/>
<feBlend mode="normal" in="SourceGraphic" in2="effect1_dropShadow_88_68" result="shape"/>
</filter>
<clipPath id="clip0_88_68">
<rect width="24" height="24" fill="white"/>
</clipPath>
</defs>
</svg>
