<svg width="80" height="80" viewBox="0 0 80 80" fill="none" xmlns="http://www.w3.org/2000/svg">
<path d="M67.2556 45.9084L67.152 46.75H68H69.6036C70.3835 46.75 70.9729 47.4563 70.8334 48.2236L68.326 62.0142L53.3595 70.2217L26.738 66.3494L25.758 13.9199L32.6678 9.77397L66.9022 13.6741C69.2492 13.9415 70.9279 16.0714 70.6393 18.4159L67.2556 45.9084Z" fill="#FFC857" stroke="#203D5C" stroke-width="1.5"/>
<path d="M25.1095 14.0963C25.1279 13.9589 25.2546 13.8628 25.3919 13.882L63.9169 19.2672C64.0526 19.2861 64.1477 19.4107 64.1303 19.5466L60.1064 50.9061C60.0888 51.0437 59.9625 51.1406 59.825 51.122L21.0907 45.8905C20.9539 45.872 20.858 45.7462 20.8764 45.6095L25.1095 14.0963Z" fill="#AFB9C4" stroke="#203D5C" stroke-width="1.5"/>
<path d="M29.6141 17.0968C29.632 16.959 29.7587 16.8622 29.8963 16.8813L60.4128 21.1066C60.5489 21.1255 60.6443 21.2507 60.6263 21.387L57.3862 45.9191C57.3683 46.0552 57.244 46.1513 57.1079 46.1345L26.5905 42.3786C26.4529 42.3616 26.3553 42.2358 26.3732 42.0983L29.6141 17.0968Z" fill="#FFC857" stroke="#203D5C" stroke-width="1.5"/>
<path d="M44.7478 32.0575L44.8017 31.3569L44.1061 31.2575L41.603 30.9L46.9481 19.3189L60.157 21.1408L56.8537 45.6791L43.8038 44.3292L44.7478 32.0575Z" fill="#AFB9C4" stroke="#203D5C" stroke-width="1.5" stroke-linecap="round"/>
<path d="M49 31L50 27" stroke="#203D5C" stroke-width="1.5" stroke-linecap="round"/>
<path d="M37 29L38 25" stroke="#203D5C" stroke-width="1.5" stroke-linecap="round"/>
<path d="M36 39C36.8333 38 39.5 36.1 43.5 36.5C47.5 36.9 48.8333 39.3333 49 40.5" stroke="#203D5C" stroke-width="1.5" stroke-linecap="round"/>
<path d="M18.6441 47.096C18.6581 46.9561 18.7847 46.8552 18.9243 46.8728L60.4041 52.1174C60.542 52.1348 60.6392 52.2615 60.6204 52.3992L59.394 61.3934C59.3751 61.5316 59.2468 61.6276 59.1089 61.6068L18.0523 55.4005C17.9206 55.3806 17.8276 55.261 17.8409 55.1285L18.6441 47.096Z" fill="#AFB9C4" stroke="#203D5C" stroke-width="1.5"/>
<path d="M17.1487 55.8636C17.2031 55.8165 17.2752 55.7951 17.3466 55.8049L57.9076 61.3995C58.1316 61.4304 58.2028 61.7192 58.0188 61.8506L53.3859 65.1599C53.0241 65.4183 52.7742 65.8047 52.687 66.2407L52.3038 68.1568L53.0392 68.3039L52.3038 68.1568C52.2585 68.3834 52.2585 68.6166 52.3038 68.8432L53.0392 68.6961L52.3038 68.8432L52.4897 69.7726C52.5233 69.941 52.3812 70.0924 52.2111 70.0694L10.0991 64.3914C9.96149 64.3729 9.86537 64.2457 9.885 64.1083L10.1896 61.9758C10.1982 61.9162 10.2279 61.8616 10.2734 61.8222L17.1487 55.8636Z" fill="#AFB9C4" stroke="#203D5C" stroke-width="1.5"/>
<mask id="path-10-inside-1_940_61" fill="white">
<rect x="22.3173" y="49.4628" width="8" height="4" rx="1" transform="rotate(8 22.3173 49.4628)"/>
</mask>
<rect x="22.3173" y="49.4628" width="8" height="4" rx="1" transform="rotate(8 22.3173 49.4628)" fill="#FFC857" stroke="#203D5C" stroke-width="3" mask="url(#path-10-inside-1_940_61)"/>
<mask id="path-11-inside-2_940_61" fill="white">
<rect x="38.527" y="51.6855" width="18.6484" height="4" rx="1" transform="rotate(8 38.527 51.6855)"/>
</mask>
<rect x="38.527" y="51.6855" width="18.6484" height="4" rx="1" transform="rotate(8 38.527 51.6855)" fill="#FFC857" stroke="#203D5C" stroke-width="3" mask="url(#path-11-inside-2_940_61)"/>
</svg>
