<svg width="80" height="80" viewBox="0 0 80 80" fill="none" xmlns="http://www.w3.org/2000/svg">
<path d="M17.75 35.5384C17.75 35.4543 17.7922 35.3759 17.8624 35.3297L40.3502 20.4973C40.4352 20.4412 40.5458 20.4423 40.6297 20.5001L41.5745 21.151L62.1418 35.3196C62.2096 35.3662 62.25 35.4432 62.25 35.5254V38C62.25 38.1381 62.1381 38.25 62 38.25H18C17.8619 38.25 17.75 38.1381 17.75 38V35.5384Z" fill="#AFB9C4" stroke="#203D5C" stroke-width="1.5"/>
<mask id="path-2-inside-1_925_323" fill="white">
<rect x="17" y="34" width="46" height="5" rx="1"/>
</mask>
<rect x="17" y="34" width="46" height="5" rx="1" fill="#AFB9C4" stroke="#203D5C" stroke-width="3" mask="url(#path-2-inside-1_925_323)"/>
<path d="M20.7077 38.9891C20.7135 38.8554 20.8236 38.75 20.9575 38.75H26.0425C26.1764 38.75 26.2865 38.8554 26.2923 38.9891L27.2053 59.9891C27.2115 60.1313 27.0979 60.25 26.9556 60.25H20.0444C19.9021 60.25 19.7885 60.1313 19.7947 59.9891L20.7077 38.9891Z" fill="#AFB9C4" stroke="#203D5C" stroke-width="1.5"/>
<path d="M30.7833 60.25L31.7181 38.75H37.2819L38.2167 60.25H30.7833Z" fill="#FFC857" stroke="#203D5C" stroke-width="1.5"/>
<path d="M42.7077 38.9891C42.7135 38.8554 42.8236 38.75 42.9575 38.75H48.0425C48.1764 38.75 48.2865 38.8554 48.2923 38.9891L49.2053 59.9891C49.2115 60.1313 49.0979 60.25 48.9556 60.25H42.0444C41.9021 60.25 41.7885 60.1313 41.7947 59.9891L42.7077 38.9891Z" fill="#AFB9C4" stroke="#203D5C" stroke-width="1.5"/>
<path d="M52.7833 60.25L53.7181 38.75H59.2819L60.2167 60.25H52.7833Z" fill="#FFC857" stroke="#203D5C" stroke-width="1.5"/>
<mask id="path-7-inside-2_925_323" fill="white">
<rect x="17" y="55" width="46" height="6" rx="1"/>
</mask>
<rect x="17" y="55" width="46" height="6" rx="1" fill="#AFB9C4" stroke="#203D5C" stroke-width="3" mask="url(#path-7-inside-2_925_323)"/>
</svg>
