<svg width="80" height="80" viewBox="0 0 80 80" fill="none" xmlns="http://www.w3.org/2000/svg">
<path fill-rule="evenodd" clip-rule="evenodd" d="M40.0138 60C51.0671 60 60.0276 51.0457 60.0276 40C60.0276 28.9543 51.0671 20 40.0138 20C28.9605 20 20 28.9543 20 40C20 51.0457 28.9605 60 40.0138 60ZM57.9146 41.765L57.4169 41.7166L56.9193 41.6681C56.9727 41.1196 57 40.5631 57 40C57 39.4369 56.9727 38.8804 56.9193 38.3319L57.4169 38.2834L57.9146 38.235C57.9711 38.8157 58 39.4045 58 40C58 40.5955 57.9711 41.1843 57.9146 41.765ZM57.2294 34.7731L56.7508 34.9181L56.2723 35.0631C55.9468 33.9885 55.5176 32.9588 54.9963 31.9855L55.437 31.7494L55.8778 31.5133C56.4298 32.544 56.8845 33.6347 57.2294 34.7731ZM53.9147 28.5807L53.5284 28.8982L53.1421 29.2156C52.435 28.355 51.645 27.565 50.7844 26.8579L51.1018 26.4716L51.4193 26.0853C52.3302 26.8337 53.1663 27.6698 53.9147 28.5807ZM48.4867 24.1222L48.2506 24.563L48.0145 25.0037C47.0412 24.4824 46.0115 24.0532 44.9369 23.7277L45.0819 23.2492L45.2269 22.7706C46.3653 23.1155 47.456 23.5702 48.4867 24.1222ZM41.765 22.0854L41.7166 22.5831L41.6681 23.0807C41.1196 23.0273 40.5631 23 40 23C39.4369 23 38.8804 23.0273 38.3319 23.0807L38.2834 22.5831L38.235 22.0854C38.8157 22.0289 39.4045 22 40 22C40.5955 22 41.1843 22.0289 41.765 22.0854ZM34.7731 22.7706L34.9181 23.2492L35.0631 23.7277C33.9885 24.0532 32.9588 24.4824 31.9855 25.0037L31.7494 24.563L31.5133 24.1222C32.544 23.5702 33.6347 23.1155 34.7731 22.7706ZM28.5807 26.0853L28.8982 26.4716L29.2156 26.8579C28.355 27.565 27.565 28.355 26.8579 29.2156L26.4716 28.8982L26.0853 28.5807C26.8337 27.6698 27.6698 26.8337 28.5807 26.0853ZM24.1222 31.5133L24.563 31.7494L25.0037 31.9855C24.4824 32.9588 24.0532 33.9885 23.7277 35.0631L23.2492 34.9181L22.7706 34.7731C23.1155 33.6347 23.5702 32.544 24.1222 31.5133ZM22.0854 38.235C22.0289 38.8157 22 39.4045 22 40C22 40.5955 22.0289 41.1843 22.0854 41.765L22.5831 41.7166L23.0807 41.6681C23.0273 41.1196 23 40.5631 23 40C23 39.4369 23.0273 38.8804 23.0807 38.3319L22.5831 38.2834L22.0854 38.235ZM22.7706 45.2269L23.2492 45.0819L23.7277 44.9369C24.0532 46.0115 24.4824 47.0412 25.0037 48.0145L24.563 48.2506L24.1222 48.4867C23.5702 47.456 23.1155 46.3653 22.7706 45.2269ZM26.0853 51.4193L26.4716 51.1018L26.8579 50.7844C27.565 51.645 28.355 52.435 29.2156 53.1421L28.8982 53.5284L28.5807 53.9147C27.6698 53.1663 26.8337 52.3302 26.0853 51.4193ZM31.5133 55.8778L31.7494 55.437L31.9855 54.9963C32.9588 55.5176 33.9885 55.9468 35.0631 56.2723L34.9181 56.7508L34.7731 57.2294C33.6347 56.8845 32.544 56.4298 31.5133 55.8778ZM38.235 57.9146L38.2834 57.4169L38.3319 56.9193C38.8804 56.9727 39.4369 57 40 57C40.5631 57 41.1196 56.9727 41.6681 56.9193L41.7166 57.4169L41.765 57.9146C41.1843 57.9711 40.5955 58 40 58C39.4045 58 38.8157 57.9711 38.235 57.9146ZM45.2269 57.2294L45.0819 56.7508L44.9369 56.2723C46.0115 55.9468 47.0412 55.5176 48.0145 54.9963L48.2506 55.437L48.4867 55.8778C47.456 56.4298 46.3653 56.8845 45.2269 57.2294ZM51.4193 53.9147L51.1018 53.5284L50.7844 53.1421C51.645 52.435 52.435 51.645 53.1421 50.7844L53.5284 51.1018L53.9147 51.4193C53.1663 52.3302 52.3302 53.1663 51.4193 53.9147ZM55.8778 48.4867L55.437 48.2506L54.9963 48.0145C55.5176 47.0412 55.9468 46.0115 56.2723 44.9369L56.7508 45.0819L57.2294 45.2269C56.8845 46.3653 56.4298 47.456 55.8778 48.4867ZM39.2734 48V45.9313C38.3605 45.8256 37.5519 45.5425 36.8477 45.082C35.9336 44.4844 35.2305 43.6611 34.7383 42.6123C34.2461 41.5635 34 40.3652 34 39.0176C34 37.6465 34.252 36.4365 34.7559 35.3877C35.2656 34.333 35.9746 33.5098 36.8828 32.918C37.5888 32.4564 38.3857 32.173 39.2734 32.0679V30H40.7148V32.0487C41.4153 32.1105 42.0599 32.2772 42.6484 32.5488C43.4102 32.9004 44.0342 33.3926 44.5205 34.0254C45.0068 34.6582 45.3086 35.3965 45.4258 36.2402H43.3516C43.1934 35.625 42.8418 35.0801 42.2969 34.6055C41.8811 34.2349 41.3537 34.0072 40.7148 33.9225V44.0739C41.0238 44.0296 41.3139 43.9496 41.585 43.834C42.0244 43.6465 42.3965 43.3769 42.7012 43.0254C43.0059 42.6738 43.2227 42.2519 43.3516 41.7598H45.4258C45.3086 42.5566 45.0185 43.2744 44.5557 43.9131C44.0986 44.5459 43.4922 45.0498 42.7363 45.4248C42.1402 45.7182 41.4664 45.895 40.7148 45.9552V48H39.2734ZM39.2734 33.9687V44.0323C38.7966 43.9338 38.363 43.7476 37.9727 43.4736C37.3691 43.0459 36.9004 42.4453 36.5664 41.6719C36.2383 40.8984 36.0742 39.9902 36.0742 38.9473C36.0742 37.9277 36.2412 37.04 36.5752 36.2842C36.915 35.5225 37.3867 34.9336 37.9902 34.5176C38.3777 34.2493 38.8054 34.0664 39.2734 33.9687Z" fill="#AFB9C4"/>
<path d="M39.2166 33.9745C39.2166 33.9745 39.8058 33.8571 40.1005 33.8571C40.3951 33.8571 40.9844 33.9607 40.9844 33.9607V44.0204C40.9844 44.0204 40.5908 44.1696 40.1005 44.1696C39.6102 44.1696 39.2166 44.0204 39.2166 44.0204V33.9745Z" fill="#AFB9C4"/>
</svg>
