<svg width="80" height="80" viewBox="0 0 80 80" fill="none" xmlns="http://www.w3.org/2000/svg">
<rect x="15.75" y="31.75" width="48.5" height="31.8333" rx="2.25" fill="#AFB9C4" stroke="#203D5C" stroke-width="1.5"/>
<rect x="15.75" y="38.4167" width="48.5" height="5.16667" fill="#FFC857" stroke="#203D5C" stroke-width="1.5"/>
<mask id="path-3-inside-1_17_144" fill="white">
<rect x="19.1666" y="55.1667" width="11.6667" height="4.16667" rx="1"/>
</mask>
<rect x="19.1666" y="55.1667" width="11.6667" height="4.16667" rx="1" fill="#FFC857" stroke="#203D5C" stroke-width="3" mask="url(#path-3-inside-1_17_144)"/>
<mask id="path-4-inside-2_17_144" fill="white">
<rect x="19.1666" y="49.3333" width="18.3333" height="4.16667" rx="1"/>
</mask>
<rect x="19.1666" y="49.3333" width="18.3333" height="4.16667" rx="1" fill="#FFC857" stroke="#203D5C" stroke-width="3" mask="url(#path-4-inside-2_17_144)"/>
<mask id="path-5-inside-3_17_144" fill="white">
<rect x="32.5" y="55.1667" width="5" height="4.16667" rx="1"/>
</mask>
<rect x="32.5" y="55.1667" width="5" height="4.16667" rx="1" fill="#FFC857" stroke="#203D5C" stroke-width="3" mask="url(#path-5-inside-3_17_144)"/>
<circle cx="53.3333" cy="56" r="2.58333" fill="#FFC857" stroke="#203D5C" stroke-width="1.5"/>
<circle cx="56.6667" cy="56" r="2.58333" fill="#FFC857" stroke="#203D5C" stroke-width="1.5"/>
<rect x="15.75" y="64.25" width="48.5" height="32.5" rx="2.25" transform="rotate(-90 15.75 64.25)" fill="#AFB9C4" stroke="#203D5C" stroke-width="1.5"/>
<path d="M30.5837 44.3777H31.3593V37.0056L30.3201 37.3295V44.1116C30.3201 44.2583 30.4383 44.3777 30.5837 44.3777Z" fill="white"/>
<path d="M28.0328 41.8672L28.1223 41.8123C28.4952 41.5856 28.7801 41.2693 28.9691 40.8729C29.1725 40.446 29.2689 39.9643 29.2637 39.3994L29.262 38.9207L28.2149 39.2336L28.2017 39.6708C28.1897 39.8165 28.1779 39.9543 28.1495 40.0879C28.0279 40.6566 27.7091 40.9996 27.1737 41.137C26.851 41.2198 26.5241 41.2152 26.178 41.2108L26.0555 41.2091V37H25V44.3852H26.0621V42.194L26.16 42.1926C26.2044 42.1921 26.2494 42.1917 26.2938 42.1911C26.5188 42.1884 26.7483 42.1861 26.9758 42.1696L27.0339 42.1656L27.0658 42.2147C27.3314 42.6222 27.6023 43.0326 27.8643 43.4296C28.0463 43.7053 28.2282 43.9813 28.4094 44.2573C28.469 44.3484 28.5479 44.3923 28.6509 44.3923H28.6581C28.8076 44.3892 28.9625 44.3898 29.0989 44.3904H29.1199C29.1696 44.3905 29.2192 44.3907 29.2689 44.3907L29.7451 44.3921L29.6646 44.2811L28.0328 41.8672Z" fill="white"/>
<path d="M38.0908 43.235C37.5888 43.235 37.1815 43.6464 37.1815 44.1538C37.1815 44.2429 37.1944 44.3286 37.2179 44.4101H38.9638C38.9871 44.3286 39 44.2429 39 44.1538C39.0002 43.6464 38.5932 43.235 38.0908 43.235Z" fill="#FFC857"/>
<path d="M33.3471 42.6015V39.8953L32.3313 40.1556V42.6015C32.3313 43.7193 33.0858 44.5 34.1656 44.5C34.6135 44.5 34.9668 44.3459 35.1842 44.2167L35.4413 44.0641V44.412H36.4571V39.9014L35.4413 40.1491V42.4257C35.4413 43.1599 35.0326 43.5983 34.3485 43.5983C33.7588 43.5987 33.3471 43.1888 33.3471 42.6015Z" fill="white"/>
<rect x="28.75" y="21.75" width="6.5" height="8.5" rx="1.25" fill="#FFC857" stroke="#203D5C" stroke-width="1.5"/>
</svg>
