<svg width="80" height="80" viewBox="0 0 80 80" fill="none" xmlns="http://www.w3.org/2000/svg">
<rect x="7.75" y="18.75" width="58.5" height="38.5" rx="2.25" fill="#AFB9C4" stroke="#203D5C" stroke-width="1.5"/>
<rect x="7.75" y="26.75" width="58.5" height="6.5" fill="#FFC857" stroke="#203D5C" stroke-width="1.5"/>
<mask id="path-3-inside-1_17_146" fill="white">
<rect x="12" y="47" width="14" height="5" rx="1"/>
</mask>
<rect x="12" y="47" width="14" height="5" rx="1" fill="#FFC857" stroke="#203D5C" stroke-width="3" mask="url(#path-3-inside-1_17_146)"/>
<mask id="path-4-inside-2_17_146" fill="white">
<rect x="12" y="40" width="22" height="5" rx="1"/>
</mask>
<rect x="12" y="40" width="22" height="5" rx="1" fill="#FFC857" stroke="#203D5C" stroke-width="3" mask="url(#path-4-inside-2_17_146)"/>
<mask id="path-5-inside-3_17_146" fill="white">
<rect x="28" y="47" width="6" height="5" rx="1"/>
</mask>
<rect x="28" y="47" width="6" height="5" rx="1" fill="#FFC857" stroke="#203D5C" stroke-width="3" mask="url(#path-5-inside-3_17_146)"/>
<circle cx="53" cy="48" r="3.25" fill="#FFC857" stroke="#203D5C" stroke-width="1.5"/>
<circle cx="57" cy="48" r="3.25" fill="#FFC857" stroke="#203D5C" stroke-width="1.5"/>
<mask id="path-8-inside-4_17_146" fill="white">
<path fill-rule="evenodd" clip-rule="evenodd" d="M55.9231 41V42.0026V47.7248H60.3077V42.0026H64.6923V47.7248H69.0769V42.0026L69.0769 42.0026V41C69.0769 39.3431 67.7338 38 66.0769 38H58.9231C57.2662 38 55.9231 39.3431 55.9231 41Z"/>
</mask>
<path fill-rule="evenodd" clip-rule="evenodd" d="M55.9231 41V42.0026V47.7248H60.3077V42.0026H64.6923V47.7248H69.0769V42.0026L69.0769 42.0026V41C69.0769 39.3431 67.7338 38 66.0769 38H58.9231C57.2662 38 55.9231 39.3431 55.9231 41Z" fill="#FFC857"/>
<path d="M55.9231 47.7248H54.4231V49.2248H55.9231V47.7248ZM60.3077 47.7248V49.2248H61.8077V47.7248H60.3077ZM60.3077 42.0026V40.5026H58.8077V42.0026H60.3077ZM64.6923 42.0026H66.1923V40.5026H64.6923V42.0026ZM64.6923 47.7248H63.1923V49.2248H64.6923V47.7248ZM69.0769 47.7248V49.2248H70.5769V47.7248H69.0769ZM69.0769 42.0026H70.5769V40.4745L69.0492 40.5028L69.0769 42.0026ZM69.0769 42.0026H67.5769V43.5306L69.1047 43.5023L69.0769 42.0026ZM57.4231 42.0026V41H54.4231V42.0026H57.4231ZM54.4231 42.0026V47.7248H57.4231V42.0026H54.4231ZM55.9231 49.2248H60.3077V46.2248H55.9231V49.2248ZM61.8077 47.7248V42.0026H58.8077V47.7248H61.8077ZM64.6923 40.5026H60.3077V43.5026H64.6923V40.5026ZM63.1923 42.0026V47.7248H66.1923V42.0026H63.1923ZM64.6923 49.2248H69.0769V46.2248H64.6923V49.2248ZM70.5769 47.7248V42.0026H67.5769V47.7248H70.5769ZM69.0492 40.5028L69.0491 40.5028L69.1047 43.5023L69.1047 43.5023L69.0492 40.5028ZM67.5769 41V42.0026H70.5769V41H67.5769ZM66.0769 39.5C66.9053 39.5 67.5769 40.1716 67.5769 41H70.5769C70.5769 38.5147 68.5622 36.5 66.0769 36.5V39.5ZM58.9231 39.5H66.0769V36.5H58.9231V39.5ZM57.4231 41C57.4231 40.1716 58.0946 39.5 58.9231 39.5V36.5C56.4378 36.5 54.4231 38.5147 54.4231 41H57.4231Z" fill="#203D5C" mask="url(#path-8-inside-4_17_146)"/>
<rect x="53.75" y="45.1346" width="17.5" height="16.0385" rx="2.25" fill="#AFB9C4" stroke="#203D5C" stroke-width="1.5"/>
<mask id="path-11-inside-5_17_146" fill="white">
<path fill-rule="evenodd" clip-rule="evenodd" d="M63.9616 53.7734C63.9616 53.4889 64.0928 53.2251 64.2622 52.9966C64.5325 52.6321 64.6923 52.1809 64.6923 51.6923C64.6923 50.4815 63.7108 49.5 62.5 49.5C61.2892 49.5 60.3077 50.4815 60.3077 51.6923C60.3077 52.1809 60.4675 52.6322 60.7378 52.9967C60.9072 53.2252 61.0385 53.489 61.0385 53.7734V55.3462C61.0385 56.1533 61.6928 56.8077 62.5 56.8077C63.3072 56.8077 63.9616 56.1533 63.9616 55.3462V53.7734Z"/>
</mask>
<path fill-rule="evenodd" clip-rule="evenodd" d="M63.9616 53.7734C63.9616 53.4889 64.0928 53.2251 64.2622 52.9966C64.5325 52.6321 64.6923 52.1809 64.6923 51.6923C64.6923 50.4815 63.7108 49.5 62.5 49.5C61.2892 49.5 60.3077 50.4815 60.3077 51.6923C60.3077 52.1809 60.4675 52.6322 60.7378 52.9967C60.9072 53.2252 61.0385 53.489 61.0385 53.7734V55.3462C61.0385 56.1533 61.6928 56.8077 62.5 56.8077C63.3072 56.8077 63.9616 56.1533 63.9616 55.3462V53.7734Z" fill="#FFC857"/>
<path d="M60.7378 52.9967L59.9345 53.5922L60.7378 52.9967ZM63.6923 51.6923C63.6923 51.9592 63.6058 52.203 63.4589 52.4011L65.0656 53.5922C65.4592 53.0613 65.6923 52.4026 65.6923 51.6923H63.6923ZM62.5 50.5C63.1585 50.5 63.6923 51.0338 63.6923 51.6923H65.6923C65.6923 49.9292 64.263 48.5 62.5 48.5V50.5ZM61.3077 51.6923C61.3077 51.0338 61.8415 50.5 62.5 50.5V48.5C60.7369 48.5 59.3077 49.9292 59.3077 51.6923H61.3077ZM61.5411 52.4011C61.3942 52.203 61.3077 51.9592 61.3077 51.6923H59.3077C59.3077 52.4026 59.5408 53.0613 59.9345 53.5922L61.5411 52.4011ZM62.0385 55.3462V53.7734H60.0385V55.3462H62.0385ZM62.5 55.8077C62.2451 55.8077 62.0385 55.6011 62.0385 55.3462H60.0385C60.0385 56.7056 61.1405 57.8077 62.5 57.8077V55.8077ZM62.9616 55.3462C62.9616 55.6011 62.7549 55.8077 62.5 55.8077V57.8077C63.8595 57.8077 64.9616 56.7056 64.9616 55.3462H62.9616ZM62.9616 53.7734V55.3462H64.9616V53.7734H62.9616ZM59.9345 53.5922C59.9849 53.6603 60.0134 53.7122 60.0281 53.7475C60.0419 53.7808 60.0385 53.7872 60.0385 53.7734H62.0385C62.0385 53.1817 61.7689 52.7084 61.5411 52.4011L59.9345 53.5922ZM63.4589 52.4011C63.2311 52.7084 62.9616 53.1817 62.9616 53.7734H64.9616C64.9616 53.7871 64.9581 53.7807 64.9719 53.7474C64.9866 53.7122 65.0151 53.6603 65.0656 53.5922L63.4589 52.4011Z" fill="#203D5C" mask="url(#path-11-inside-5_17_146)"/>
</svg>
