<svg width="80" height="80" viewBox="0 0 80 80" fill="none" xmlns="http://www.w3.org/2000/svg">
<rect x="12.75" y="19.75" width="48.5" height="31.8333" rx="2.25" fill="#AFB9C4" stroke="#203D5C" stroke-width="1.5"/>
<path d="M12.75 45C12.75 44.8619 12.8619 44.75 13 44.75H16.3333C18.1283 44.75 19.5833 46.2051 19.5833 48V51.3333C19.5833 51.4714 19.4714 51.5833 19.3333 51.5833H15C13.7574 51.5833 12.75 50.576 12.75 49.3333V45Z" fill="#FFC857" stroke="#203D5C" stroke-width="1.5"/>
<path d="M19.3333 19.75C19.4714 19.75 19.5833 19.8619 19.5833 20V23.3333C19.5833 25.1283 18.1282 26.5833 16.3333 26.5833H13C12.8619 26.5833 12.75 26.4714 12.75 26.3333L12.75 22C12.75 20.7574 13.7573 19.75 15 19.75H19.3333Z" fill="#FFC857" stroke="#203D5C" stroke-width="1.5"/>
<path d="M61.25 26.3333C61.25 26.4714 61.1381 26.5833 61 26.5833H57.6667C55.8717 26.5833 54.4167 25.1283 54.4167 23.3333V20C54.4167 19.8619 54.5286 19.75 54.6667 19.75H59C60.2426 19.75 61.25 20.7574 61.25 22V26.3333Z" fill="#FFC857" stroke="#203D5C" stroke-width="1.5"/>
<path d="M54.6667 51.5833C54.5286 51.5833 54.4167 51.4714 54.4167 51.3333V48C54.4167 46.2051 55.8718 44.75 57.6667 44.75H61C61.1381 44.75 61.25 44.8619 61.25 45V49.3333C61.25 50.576 60.2427 51.5833 59 51.5833H54.6667Z" fill="#FFC857" stroke="#203D5C" stroke-width="1.5"/>
<mask id="path-6-inside-1_17_145" fill="white">
<rect x="12" y="32.3333" width="18.3333" height="6.66667" rx="1"/>
</mask>
<rect x="12" y="32.3333" width="18.3333" height="6.66667" rx="1" fill="#FFC857" stroke="#203D5C" stroke-width="3" mask="url(#path-6-inside-1_17_145)"/>
<mask id="path-7-inside-2_17_145" fill="white">
<rect x="43.6667" y="32.3333" width="18.3333" height="6.66667" rx="1"/>
</mask>
<rect x="43.6667" y="32.3333" width="18.3333" height="6.66667" rx="1" fill="#FFC857" stroke="#203D5C" stroke-width="3" mask="url(#path-7-inside-2_17_145)"/>
<circle cx="37" cy="34.8333" r="7.58333" fill="#FFC857" stroke="#203D5C" stroke-width="1.5"/>
<path d="M39.7667 36.1167C39.7667 36.6633 39.5667 37.1333 39.1667 37.5267C38.7667 37.9133 38.19 38.1533 37.4367 38.2467V39.3667H36.4367V38.2767C35.9433 38.25 35.4733 38.1633 35.0267 38.0167C34.58 37.87 34.22 37.69 33.9467 37.4767L34.4967 36.2567C34.75 36.4433 35.0467 36.6 35.3867 36.7267C35.7267 36.8533 36.0767 36.9333 36.4367 36.9667V35.2967C35.9633 35.1833 35.5633 35.0567 35.2367 34.9167C34.91 34.7767 34.6367 34.5733 34.4167 34.3067C34.1967 34.0333 34.0867 33.6733 34.0867 33.2267C34.0867 32.6733 34.2867 32.2 34.6867 31.8067C35.0933 31.4067 35.6767 31.1633 36.4367 31.0767V29.9667H37.4367V31.0567C38.2567 31.1233 38.9333 31.3267 39.4667 31.6667L38.9667 32.8967C38.4667 32.61 37.9567 32.4367 37.4367 32.3767V34.0767C37.9033 34.1833 38.2967 34.3067 38.6167 34.4467C38.9433 34.58 39.2167 34.7833 39.4367 35.0567C39.6567 35.3233 39.7667 35.6767 39.7667 36.1167ZM35.6967 33.1467C35.6967 33.3133 35.76 33.45 35.8867 33.5567C36.0133 33.6633 36.1967 33.7533 36.4367 33.8267V32.4067C36.1833 32.4667 35.9967 32.5633 35.8767 32.6967C35.7567 32.8233 35.6967 32.9733 35.6967 33.1467ZM37.4367 36.9267C37.6767 36.8733 37.8567 36.7867 37.9767 36.6667C38.0967 36.5467 38.1567 36.4033 38.1567 36.2367C38.1567 36.07 38.0933 35.9333 37.9667 35.8267C37.8467 35.72 37.67 35.6267 37.4367 35.5467V36.9267Z" fill="#203D5C"/>
<rect x="15.75" y="23.75" width="48.5" height="31.8333" rx="2.25" fill="#AFB9C4" stroke="#203D5C" stroke-width="1.5"/>
<path d="M15.75 49C15.75 48.8619 15.8619 48.75 16 48.75H19.3333C21.1283 48.75 22.5833 50.2051 22.5833 52V55.3333C22.5833 55.4714 22.4714 55.5833 22.3333 55.5833H18C16.7574 55.5833 15.75 54.576 15.75 53.3333V49Z" fill="#FFC857" stroke="#203D5C" stroke-width="1.5"/>
<path d="M22.3333 23.75C22.4714 23.75 22.5833 23.8619 22.5833 24V27.3333C22.5833 29.1283 21.1282 30.5833 19.3333 30.5833H16C15.8619 30.5833 15.75 30.4714 15.75 30.3333L15.75 26C15.75 24.7574 16.7573 23.75 18 23.75H22.3333Z" fill="#FFC857" stroke="#203D5C" stroke-width="1.5"/>
<path d="M64.25 30.3333C64.25 30.4714 64.1381 30.5833 64 30.5833H60.6667C58.8717 30.5833 57.4167 29.1283 57.4167 27.3333V24C57.4167 23.8619 57.5286 23.75 57.6667 23.75H62C63.2426 23.75 64.25 24.7574 64.25 26V30.3333Z" fill="#FFC857" stroke="#203D5C" stroke-width="1.5"/>
<path d="M57.6667 55.5833C57.5286 55.5833 57.4167 55.4714 57.4167 55.3333V52C57.4167 50.2051 58.8718 48.75 60.6667 48.75H64C64.1381 48.75 64.25 48.8619 64.25 49V53.3333C64.25 54.576 63.2427 55.5833 62 55.5833H57.6667Z" fill="#FFC857" stroke="#203D5C" stroke-width="1.5"/>
<mask id="path-15-inside-3_17_145" fill="white">
<rect x="15" y="36.3333" width="18.3333" height="6.66667" rx="1"/>
</mask>
<rect x="15" y="36.3333" width="18.3333" height="6.66667" rx="1" fill="#FFC857" stroke="#203D5C" stroke-width="3" mask="url(#path-15-inside-3_17_145)"/>
<mask id="path-16-inside-4_17_145" fill="white">
<rect x="46.6667" y="36.3333" width="18.3333" height="6.66667" rx="1"/>
</mask>
<rect x="46.6667" y="36.3333" width="18.3333" height="6.66667" rx="1" fill="#FFC857" stroke="#203D5C" stroke-width="3" mask="url(#path-16-inside-4_17_145)"/>
<circle cx="40" cy="38.8333" r="7.58333" fill="#FFC857" stroke="#203D5C" stroke-width="1.5"/>
<path d="M42.7667 40.1167C42.7667 40.6633 42.5667 41.1333 42.1667 41.5267C41.7667 41.9133 41.19 42.1533 40.4367 42.2467V43.3667H39.4367V42.2767C38.9433 42.25 38.4733 42.1633 38.0267 42.0167C37.58 41.87 37.22 41.69 36.9467 41.4767L37.4967 40.2567C37.75 40.4433 38.0467 40.6 38.3867 40.7267C38.7267 40.8533 39.0767 40.9333 39.4367 40.9667V39.2967C38.9633 39.1833 38.5633 39.0567 38.2367 38.9167C37.91 38.7767 37.6367 38.5733 37.4167 38.3067C37.1967 38.0333 37.0867 37.6733 37.0867 37.2267C37.0867 36.6733 37.2867 36.2 37.6867 35.8067C38.0933 35.4067 38.6767 35.1633 39.4367 35.0767V33.9667H40.4367V35.0567C41.2567 35.1233 41.9333 35.3267 42.4667 35.6667L41.9667 36.8967C41.4667 36.61 40.9567 36.4367 40.4367 36.3767V38.0767C40.9033 38.1833 41.2967 38.3067 41.6167 38.4467C41.9433 38.58 42.2167 38.7833 42.4367 39.0567C42.6567 39.3233 42.7667 39.6767 42.7667 40.1167ZM38.6967 37.1467C38.6967 37.3133 38.76 37.45 38.8867 37.5567C39.0133 37.6633 39.1967 37.7533 39.4367 37.8267V36.4067C39.1833 36.4667 38.9967 36.5633 38.8767 36.6967C38.7567 36.8233 38.6967 36.9733 38.6967 37.1467ZM40.4367 40.9267C40.6767 40.8733 40.8567 40.7867 40.9767 40.6667C41.0967 40.5467 41.1567 40.4033 41.1567 40.2367C41.1567 40.07 41.0933 39.9333 40.9667 39.8267C40.8467 39.72 40.67 39.6267 40.4367 39.5467V40.9267Z" fill="#203D5C"/>
<rect x="18.75" y="27.75" width="48.5" height="31.8333" rx="2.25" fill="#AFB9C4" stroke="#203D5C" stroke-width="1.5"/>
<path d="M18.75 53C18.75 52.8619 18.8619 52.75 19 52.75H22.3333C24.1283 52.75 25.5833 54.2051 25.5833 56V59.3333C25.5833 59.4714 25.4714 59.5833 25.3333 59.5833H21C19.7574 59.5833 18.75 58.576 18.75 57.3333V53Z" fill="#FFC857" stroke="#203D5C" stroke-width="1.5"/>
<path d="M25.3333 27.75C25.4714 27.75 25.5833 27.8619 25.5833 28V31.3333C25.5833 33.1283 24.1282 34.5833 22.3333 34.5833H19C18.8619 34.5833 18.75 34.4714 18.75 34.3333V30C18.75 28.7574 19.7573 27.75 21 27.75H25.3333Z" fill="#FFC857" stroke="#203D5C" stroke-width="1.5"/>
<path d="M67.25 34.3333C67.25 34.4714 67.1381 34.5833 67 34.5833H63.6667C61.8717 34.5833 60.4167 33.1283 60.4167 31.3333V28C60.4167 27.8619 60.5286 27.75 60.6667 27.75H65C66.2426 27.75 67.25 28.7574 67.25 30V34.3333Z" fill="#FFC857" stroke="#203D5C" stroke-width="1.5"/>
<path d="M60.6667 59.5833C60.5286 59.5833 60.4167 59.4714 60.4167 59.3333V56C60.4167 54.2051 61.8718 52.75 63.6667 52.75H67C67.1381 52.75 67.25 52.8619 67.25 53V57.3333C67.25 58.576 66.2427 59.5833 65 59.5833H60.6667Z" fill="#FFC857" stroke="#203D5C" stroke-width="1.5"/>
<mask id="path-24-inside-5_17_145" fill="white">
<rect x="18" y="40.3333" width="18.3333" height="6.66667" rx="1"/>
</mask>
<rect x="18" y="40.3333" width="18.3333" height="6.66667" rx="1" fill="#FFC857" stroke="#203D5C" stroke-width="3" mask="url(#path-24-inside-5_17_145)"/>
<mask id="path-25-inside-6_17_145" fill="white">
<rect x="49.6667" y="40.3333" width="18.3333" height="6.66667" rx="1"/>
</mask>
<rect x="49.6667" y="40.3333" width="18.3333" height="6.66667" rx="1" fill="#FFC857" stroke="#203D5C" stroke-width="3" mask="url(#path-25-inside-6_17_145)"/>
<circle cx="43" cy="42.8333" r="7.58333" fill="#FFC857" stroke="#203D5C" stroke-width="1.5"/>
<path d="M45.7667 44.1167C45.7667 44.6633 45.5667 45.1333 45.1667 45.5267C44.7667 45.9133 44.19 46.1533 43.4367 46.2467V47.3667H42.4367V46.2767C41.9433 46.25 41.4733 46.1633 41.0267 46.0167C40.58 45.87 40.22 45.69 39.9467 45.4767L40.4967 44.2567C40.75 44.4433 41.0467 44.6 41.3867 44.7267C41.7267 44.8533 42.0767 44.9333 42.4367 44.9667V43.2967C41.9633 43.1833 41.5633 43.0567 41.2367 42.9167C40.91 42.7767 40.6367 42.5733 40.4167 42.3067C40.1967 42.0333 40.0867 41.6733 40.0867 41.2267C40.0867 40.6733 40.2867 40.2 40.6867 39.8067C41.0933 39.4067 41.6767 39.1633 42.4367 39.0767V37.9667H43.4367V39.0567C44.2567 39.1233 44.9333 39.3267 45.4667 39.6667L44.9667 40.8967C44.4667 40.61 43.9567 40.4367 43.4367 40.3767V42.0767C43.9033 42.1833 44.2967 42.3067 44.6167 42.4467C44.9433 42.58 45.2167 42.7833 45.4367 43.0567C45.6567 43.3233 45.7667 43.6767 45.7667 44.1167ZM41.6967 41.1467C41.6967 41.3133 41.76 41.45 41.8867 41.5567C42.0133 41.6633 42.1967 41.7533 42.4367 41.8267V40.4067C42.1833 40.4667 41.9967 40.5633 41.8767 40.6967C41.7567 40.8233 41.6967 40.9733 41.6967 41.1467ZM43.4367 44.9267C43.6767 44.8733 43.8567 44.7867 43.9767 44.6667C44.0967 44.5467 44.1567 44.4033 44.1567 44.2367C44.1567 44.07 44.0933 43.9333 43.9667 43.8267C43.8467 43.72 43.67 43.6267 43.4367 43.5467V44.9267Z" fill="#203D5C"/>
</svg>
