<svg width="80" height="80" viewBox="0 0 80 80" fill="none" xmlns="http://www.w3.org/2000/svg">
<rect x="10.75" y="23.75" width="58.5" height="26.5" rx="2.25" fill="#AFB9C4" stroke="#203D5C" stroke-width="1.5"/>
<rect x="14.75" y="27.75" width="50.5" height="18.5" rx="2.25" fill="#AFB9C4" stroke="#203D5C" stroke-width="1.5"/>
<circle cx="22" cy="37" r="3.25" fill="#FFC857" stroke="#203D5C" stroke-width="1.5"/>
<rect x="28" y="34" width="34" height="6" rx="2" fill="#203D5C"/>
<rect x="30" y="36" width="30" height="2" rx="1" fill="white"/>
<path d="M35 67.25C33.7574 67.25 32.75 66.2426 32.75 65V44.1538V37.75H57.25V44.1538V65C57.25 66.2426 56.2426 67.25 55 67.25H35Z" fill="#AFB9C4" stroke="#203D5C" stroke-width="1.5"/>
<path d="M52.5 67.25C52.3619 67.25 52.25 67.1381 52.25 67V65.5C52.25 63.7051 53.7051 62.25 55.5 62.25H57C57.1381 62.25 57.25 62.3619 57.25 62.5V65C57.25 66.2426 56.2426 67.25 55 67.25H52.5Z" fill="#FFC857" stroke="#203D5C" stroke-width="1.5"/>
<path d="M32.75 62.5C32.75 62.3619 32.8619 62.25 33 62.25H34.5C36.2949 62.25 37.75 63.7051 37.75 65.5V67C37.75 67.1381 37.6381 67.25 37.5 67.25H35C33.7574 67.25 32.75 66.2426 32.75 65V62.5Z" fill="#FFC857" stroke="#203D5C" stroke-width="1.5"/>
<mask id="path-9-inside-1_223_226" fill="white">
<rect x="42.4" y="68" width="14.3" height="5.2" rx="1" transform="rotate(-90 42.4 68)"/>
</mask>
<rect x="42.4" y="68" width="14.3" height="5.2" rx="1" transform="rotate(-90 42.4 68)" fill="#FFC857" stroke="#203D5C" stroke-width="3" mask="url(#path-9-inside-1_223_226)"/>
<mask id="path-10-inside-2_223_226" fill="white">
<rect x="42.4" y="51.3" width="14.3" height="5.2" rx="1" transform="rotate(-90 42.4 51.3)"/>
</mask>
<rect x="42.4" y="51.3" width="14.3" height="5.2" rx="1" transform="rotate(-90 42.4 51.3)" fill="#FFC857" stroke="#203D5C" stroke-width="3" mask="url(#path-10-inside-2_223_226)"/>
<circle cx="44.35" cy="48.5" r="5.75" transform="rotate(-90 44.35 48.5)" fill="#FFC857" stroke="#203D5C" stroke-width="1.5"/>
<path d="M45.3511 46.342C45.7775 46.342 46.1441 46.498 46.4509 46.81C46.7525 47.122 46.9397 47.5718 47.0125 48.1594H47.8861V48.9394H47.0359C47.0151 49.3242 46.9475 49.6908 46.8331 50.0392C46.7187 50.3876 46.5783 50.6684 46.4119 50.8816L45.4603 50.4526C45.6059 50.255 45.7281 50.0236 45.8269 49.7584C45.9257 49.4932 45.9881 49.2202 46.0141 48.9394H44.7115C44.6231 49.3086 44.5243 49.6206 44.4151 49.8754C44.3059 50.1302 44.1473 50.3434 43.9393 50.515C43.7261 50.6866 43.4453 50.7724 43.0969 50.7724C42.6653 50.7724 42.2961 50.6164 41.9893 50.3044C41.6773 49.9872 41.4875 49.5322 41.4199 48.9394H40.5541V48.1594H41.4043C41.4563 47.5198 41.6149 46.992 41.8801 46.576L42.8395 46.966C42.6159 47.356 42.4807 47.7538 42.4339 48.1594H43.7599C43.8431 47.7954 43.9393 47.4886 44.0485 47.239C44.1525 46.9842 44.3111 46.771 44.5243 46.5994C44.7323 46.4278 45.0079 46.342 45.3511 46.342ZM43.0345 49.5166C43.1645 49.5166 43.2711 49.4672 43.3543 49.3684C43.4375 49.2696 43.5077 49.1266 43.5649 48.9394H42.4573C42.5041 49.137 42.5795 49.2826 42.6835 49.3762C42.7823 49.4698 42.8993 49.5166 43.0345 49.5166ZM45.9829 48.1594C45.9413 47.9722 45.8737 47.8318 45.7801 47.7382C45.6865 47.6446 45.5747 47.5978 45.4447 47.5978C45.3147 47.5978 45.2081 47.6472 45.1249 47.746C45.0417 47.8396 44.9689 47.9774 44.9065 48.1594H45.9829Z" fill="#203D5C"/>
</svg>
