<svg width="80" height="80" viewBox="0 0 80 80" fill="none" xmlns="http://www.w3.org/2000/svg">
<path d="M14 33.0292C15.5 32.8626 19.1 33.3292 21.5 36.5292" stroke="#203D5C" stroke-width="1.5" stroke-linecap="round"/>
<path d="M31.298 28.5C32.0254 27.9091 32.9725 27.661 33.8962 27.8192L60.6905 32.4108C62.4597 32.7139 63.6481 34.3939 63.3449 36.163L60.8114 50.9475C60.5083 52.7166 58.8283 53.9051 57.0592 53.6019L30.1628 48.9929C29.2874 48.8429 28.5116 48.3411 28.0156 47.6043L22.5215 39.4417C21.5823 38.0464 21.8629 36.165 23.1684 35.1045L31.298 28.5Z" fill="#FFC857" stroke="#203D5C" stroke-width="1.5"/>
<path d="M29.3692 26.8599C29.9863 26.1546 30.8779 25.75 31.8151 25.75H59C60.7949 25.75 62.25 27.2051 62.25 29V44C62.25 45.7949 60.7949 47.25 59 47.25H31.7116C30.8234 47.25 29.974 46.8865 29.3607 46.244L22.5669 39.1267C21.4055 37.91 21.3643 36.0083 22.4719 34.7425L29.3692 26.8599Z" fill="#AFB9C4" stroke="#203D5C" stroke-width="1.5"/>
<path d="M39.216 37.348C38.3947 37.348 37.7227 37.0707 37.2 36.516C36.688 35.9507 36.432 35.1987 36.432 34.26C36.432 33.3213 36.688 32.5747 37.2 32.02C37.7227 31.4547 38.3947 31.172 39.216 31.172C40.0373 31.172 40.704 31.4547 41.216 32.02C41.728 32.5747 41.984 33.3213 41.984 34.26C41.984 35.1987 41.728 35.9507 41.216 36.516C40.704 37.0707 40.0373 37.348 39.216 37.348ZM45.888 31.3H47.792L40.144 42.5H38.24L45.888 31.3ZM39.216 36.036C39.5787 36.036 39.8613 35.8867 40.064 35.588C40.2773 35.2893 40.384 34.8467 40.384 34.26C40.384 33.6733 40.2773 33.2307 40.064 32.932C39.8613 32.6333 39.5787 32.484 39.216 32.484C38.864 32.484 38.5813 32.6387 38.368 32.948C38.1547 33.2467 38.048 33.684 38.048 34.26C38.048 34.836 38.1547 35.2787 38.368 35.588C38.5813 35.8867 38.864 36.036 39.216 36.036ZM46.816 42.628C46.2827 42.628 45.8027 42.5053 45.376 42.26C44.96 42.004 44.6347 41.6413 44.4 41.172C44.1653 40.7027 44.048 40.1587 44.048 39.54C44.048 38.9213 44.1653 38.3773 44.4 37.908C44.6347 37.4387 44.96 37.0813 45.376 36.836C45.8027 36.58 46.2827 36.452 46.816 36.452C47.6373 36.452 48.304 36.7347 48.816 37.3C49.3387 37.8547 49.6 38.6013 49.6 39.54C49.6 40.4787 49.3387 41.2307 48.816 41.796C48.304 42.3507 47.6373 42.628 46.816 42.628ZM46.816 41.316C47.1787 41.316 47.4613 41.1667 47.664 40.868C47.8773 40.5587 47.984 40.116 47.984 39.54C47.984 38.964 47.8773 38.5267 47.664 38.228C47.4613 37.9187 47.1787 37.764 46.816 37.764C46.464 37.764 46.1813 37.9133 45.968 38.212C45.7547 38.5107 45.648 38.9533 45.648 39.54C45.648 40.1267 45.7547 40.5693 45.968 40.868C46.1813 41.1667 46.464 41.316 46.816 41.316Z" fill="#203D5C"/>
</svg>
