<svg width="80" height="80" viewBox="0 0 80 80" fill="none" xmlns="http://www.w3.org/2000/svg">
<path d="M18.5291 22.8387C18.5291 22.0103 19.2006 21.3387 20.0291 21.3387H56.7466C57.5751 21.3387 58.2466 22.0103 58.2466 22.8387V23.5103V27.103V29.2218V32.0775V34.8412V36.96V41.1054V58.6612H18.5291V22.8387Z" fill="#FFC857" stroke="#203D5C"/>
<path d="M18.5291 22.8387C18.5291 22.0103 19.2006 21.3387 20.0291 21.3387H42.1915C43.0199 21.3387 43.6915 22.0103 43.6915 22.8387V58.6612H18.5291V22.8387Z" fill="#AFB9C4" stroke="#203D5C"/>
<rect x="20.9242" y="24.1024" width="21.1091" height="29.9527" rx="0.807692" fill="#FFC857" stroke="#203D5C"/>
<path d="M22.7667 57.0099C22.7667 56.7444 22.9819 56.5291 23.2474 56.5291H41.1841C41.4496 56.5291 41.6648 56.7444 41.6648 57.0099V58.6612H22.7667V57.0099Z" fill="#FFC857" stroke="#203D5C"/>
<path d="M47.8236 57.0099C47.8236 56.7444 48.0389 56.5291 48.3044 56.5291H54.818C55.0835 56.5291 55.2988 56.7444 55.2988 57.0099V58.6612H47.8236V57.0099Z" fill="#AFB9C4" stroke="#203D5C"/>
<path d="M49.6023 49.0465H49.0083V49.8082H48.4047V49.0465H46.5652V48.6154L48.2179 46.4549H48.8837L47.3269 48.5196H48.4239V47.8441H49.0083V48.5196H49.6023V49.0465Z" fill="white"/>
<path d="M51.2631 49.8561C50.9949 49.8561 50.7553 49.789 50.5446 49.6549C50.3338 49.5175 50.1677 49.3195 50.0464 49.0609C49.925 48.799 49.8644 48.4892 49.8644 48.1316C49.8644 47.7739 49.925 47.4657 50.0464 47.207C50.1677 46.9452 50.3338 46.7472 50.5446 46.613C50.7553 46.4757 50.9949 46.407 51.2631 46.407C51.5314 46.407 51.7709 46.4757 51.9817 46.613C52.1956 46.7472 52.3633 46.9452 52.4846 47.207C52.606 47.4657 52.6667 47.7739 52.6667 48.1316C52.6667 48.4892 52.606 48.799 52.4846 49.0609C52.3633 49.3195 52.1956 49.5175 51.9817 49.6549C51.7709 49.789 51.5314 49.8561 51.2631 49.8561ZM51.2631 49.3148C51.5026 49.3148 51.6911 49.2158 51.8284 49.0178C51.9689 48.8198 52.0391 48.5244 52.0391 48.1316C52.0391 47.7387 51.9689 47.4433 51.8284 47.2453C51.6911 47.0473 51.5026 46.9483 51.2631 46.9483C51.0268 46.9483 50.8384 47.0473 50.6979 47.2453C50.5605 47.4433 50.4919 47.7387 50.4919 48.1316C50.4919 48.5244 50.5605 48.8198 50.6979 49.0178C50.8384 49.2158 51.0268 49.3148 51.2631 49.3148Z" fill="white"/>
<path d="M56.0767 49.0465H55.4827V49.8082H54.8791V49.0465H53.0396V48.6154L54.6923 46.4549H55.3581L53.8013 48.5196H54.8982V47.8441H55.4827V48.5196H56.0767V49.0465Z" fill="white"/>
<mask id="path-7-inside-1_946_163" fill="white">
<rect x="45.8496" y="38.3419" width="2.94788" height="1.2897" rx="0.163462"/>
</mask>
<rect x="45.8496" y="38.3419" width="2.94788" height="1.2897" rx="0.163462" fill="#AFB9C4" stroke="#203D5C" stroke-width="1.2897" mask="url(#path-7-inside-1_946_163)"/>
<mask id="path-8-inside-2_946_163" fill="white">
<rect x="54.3248" y="38.3419" width="2.94788" height="1.2897" rx="0.163462"/>
</mask>
<rect x="54.3248" y="38.3419" width="2.94788" height="1.2897" rx="0.163462" fill="#AFB9C4" stroke="#203D5C" stroke-width="1.2897" mask="url(#path-8-inside-2_946_163)"/>
<circle cx="50.4557" cy="39.0787" r="0.5" fill="#AFB9C4" stroke="#203D5C" stroke-width="0.105454"/>
<circle cx="52.4824" cy="39.0787" r="0.5" fill="#AFB9C4" stroke="#203D5C" stroke-width="0.105454"/>
<path d="M18.1212 36.9314C17.2307 35.0276 14.7127 31.3489 11.7648 31.8647" stroke="#203D5C" stroke-linecap="round"/>
<rect x="8.02286" y="28.7612" width="4.05381" height="5.27287" rx="0.326923" transform="rotate(6 8.02286 28.7612)" fill="#FFC857"/>
<path d="M18.2133 42.2745C16.8008 41.2611 13.0914 39.5845 9.55392 40.9848" stroke="#203D5C" stroke-linecap="round"/>
<path d="M10.4751 29.1012L10.0145 34.0757" stroke="#203D5C" stroke-linecap="round"/>
<path d="M6.51395 29.8382L9.46183 30.1146M6.51395 31.3121L9.18547 31.5885M6.32971 32.6018L9.18547 32.9703" stroke="#203D5C" stroke-linecap="round"/>
<rect x="4.68805" y="40.5246" width="4.79899" height="1.87513" rx="0.937563" transform="rotate(-5.60586 4.68805 40.5246)" fill="#FFC857"/>
<path d="M5.31634 41.4453L3.01331 41.8138" stroke="#203D5C" stroke-linecap="round"/>
<path d="M18.2133 50.1969C17.722 50.1662 16.6288 50.1969 16.1866 50.5654C15.6339 51.026 14.8969 51.4866 13.8836 51.4866C13.0811 51.4866 12.2725 50.7042 11.9585 50.3012C11.952 50.2929 11.9469 50.2847 11.9422 50.2753C11.6612 49.7173 10.9677 48.5738 10.383 48.3545C9.64603 48.0781 8.90906 47.5254 7.71149 47.7096" stroke="#203D5C" stroke-linecap="round"/>
<circle cx="6.79033" cy="47.7096" r="1.10545" fill="#FFC857"/>
<path d="M58.8388 36.9314C59.7293 35.0276 62.2473 31.3489 65.1951 31.8647" stroke="#203D5C" stroke-linecap="round"/>
<rect width="4.05381" height="5.27287" rx="0.326923" transform="matrix(-0.994522 0.104528 0.104528 0.994522 68.9372 28.7612)" fill="#FFC857"/>
<path d="M58.7467 42.2745C60.1592 41.2611 63.8686 39.5845 67.4061 40.9848" stroke="#203D5C" stroke-linecap="round"/>
<path d="M66.4848 29.1012L66.9454 34.0757" stroke="#203D5C" stroke-linecap="round"/>
<path d="M70.4461 29.8382L67.4982 30.1146M70.4461 31.3121L67.7746 31.5885M70.6303 32.6018L67.7746 32.9703" stroke="#203D5C" stroke-linecap="round"/>
<rect width="4.79899" height="1.87513" rx="0.937563" transform="matrix(-0.995217 -0.0976846 -0.0976846 0.995217 72.272 40.5246)" fill="#FFC857"/>
<path d="M71.6437 41.4453L73.9467 41.8138" stroke="#203D5C" stroke-linecap="round"/>
<path d="M58.7466 50.1969C59.2379 50.1662 60.3311 50.1969 60.7733 50.5654C61.326 51.026 62.063 51.4866 63.0763 51.4866C63.8789 51.4866 64.6874 50.7042 65.0015 50.3012C65.0079 50.2929 65.013 50.2847 65.0177 50.2753C65.2987 49.7173 65.9922 48.5738 66.5769 48.3545C67.3139 48.0781 68.0509 47.5254 69.2484 47.7096" stroke="#203D5C" stroke-linecap="round"/>
<circle r="1.10545" transform="matrix(-1 0 0 1 70.1697 47.7096)" fill="#FFC857"/>
<path d="M2 59.1611H78" stroke="#203D5C" stroke-linecap="round"/>
<rect x="26.7969" y="33.2372" width="2.25426" height="4.50852" rx="1.12713" fill="#203D5C"/>
<rect x="33.5596" y="33.2372" width="2.25426" height="4.50852" rx="1.12713" fill="#203D5C"/>
<rect x="24.5426" y="40" width="13.5256" height="2.25426" rx="1.12713" fill="#203D5C"/>
</svg>
