<svg width="80" height="80" viewBox="0 0 80 80" fill="none" xmlns="http://www.w3.org/2000/svg">
<path d="M15.9375 23.75H28.67C29.6059 23.75 30.4947 24.1619 31.1004 24.8768L35.5957 30.1823C36.4862 31.2333 37.7935 31.8394 39.1706 31.8394H58.7573C60.5168 31.8394 61.9447 33.2677 61.9447 35.0314V40.0524V52.5822V54.7911C61.9447 55.5976 61.2919 56.25 60.4884 56.25H15.9375C14.1779 56.25 12.75 54.8217 12.75 53.058V26.942C12.75 25.1783 14.1779 23.75 15.9375 23.75Z" fill="#AFB9C4" stroke="#203D5C" stroke-width="1.5"/>
<path d="M17.868 28.8895H29.2187C30.0675 28.8895 30.8477 29.2124 31.361 29.7339L35.3685 33.8055C36.189 34.6392 37.3665 35.0977 38.5797 35.0977H56.0408C57.6736 35.0977 58.8009 36.2171 58.8009 37.373V41.2263V50.8421V52.5374C58.8009 52.9586 58.3646 53.4826 57.584 53.4826H17.868C16.2352 53.4826 15.1079 52.3631 15.1079 51.2073V31.1648C15.1079 30.009 16.2352 28.8895 17.868 28.8895Z" fill="#FFC857" stroke="#203D5C" stroke-width="1.5"/>
<path d="M67.25 40.2366V40.2383C67.25 40.344 67.2315 40.4508 67.1947 40.554L61.8254 55.6077C61.689 55.99 61.3226 56.25 60.9068 56.25H14.7063C14.1635 56.25 13.7325 55.8144 13.7325 55.2881C13.7325 55.1682 13.7552 55.0492 13.7996 54.9373L19.8119 39.7796C19.9575 39.4126 20.3168 39.1677 20.7209 39.1686L66.2784 39.2725C66.8212 39.2738 67.2512 39.7103 67.25 40.2366Z" fill="#AFB9C4" stroke="#203D5C" stroke-width="1.5"/>
</svg>
