<svg width="80" height="80" viewBox="0 0 80 80" fill="none" xmlns="http://www.w3.org/2000/svg">
<rect x="20.75" y="20.75" width="38.5" height="28.5" rx="1.25" fill="#AFB9C4" stroke="#203D5C" stroke-width="1.5"/>
<rect x="24.75" y="23.75" width="30.5" height="20.5" rx="1.25" fill="#AFB9C4" stroke="#203D5C" stroke-width="1.5"/>
<path d="M20.053 48.3449C20.2805 47.9752 20.6835 47.75 21.1176 47.75H58.8824C59.3165 47.75 59.7195 47.9752 59.947 48.3449L65.4854 57.3449C65.998 58.1777 65.3988 59.25 64.4209 59.25H15.5791C14.6012 59.25 14.002 58.1777 14.5146 57.3449L20.053 48.3449Z" fill="#AFB9C4" stroke="#203D5C" stroke-width="1.5"/>
<path d="M24.3866 51.1545C24.6233 50.8967 24.9573 50.75 25.3073 50.75H55.6927C56.0427 50.75 56.3767 50.8967 56.6134 51.1545L59.3685 54.1545C60.1045 54.956 59.536 56.25 58.4478 56.25H22.5522C21.464 56.25 20.8955 54.956 21.6315 54.1545L24.3866 51.1545Z" fill="#FFC857" stroke="#203D5C" stroke-width="1.5"/>
<mask id="path-5-inside-1_223_223" fill="white">
<rect x="27" y="36" width="5" height="9" rx="1"/>
</mask>
<rect x="27" y="36" width="5" height="9" rx="1" fill="#FFC857" stroke="#203D5C" stroke-width="3" mask="url(#path-5-inside-1_223_223)"/>
<mask id="path-6-inside-2_223_223" fill="white">
<rect x="34" y="29" width="5" height="16" rx="1"/>
</mask>
<rect x="34" y="29" width="5" height="16" rx="1" fill="#FFC857" stroke="#203D5C" stroke-width="3" mask="url(#path-6-inside-2_223_223)"/>
<mask id="path-7-inside-3_223_223" fill="white">
<rect x="41" y="34" width="5" height="11" rx="1"/>
</mask>
<rect x="41" y="34" width="5" height="11" rx="1" fill="#FFC857" stroke="#203D5C" stroke-width="3" mask="url(#path-7-inside-3_223_223)"/>
<mask id="path-8-inside-4_223_223" fill="white">
<rect x="48" y="40" width="5" height="5" rx="1"/>
</mask>
<rect x="48" y="40" width="5" height="5" rx="1" fill="#FFC857" stroke="#203D5C" stroke-width="3" mask="url(#path-8-inside-4_223_223)"/>
</svg>
