<svg width="80" height="80" viewBox="0 0 80 80" fill="none" xmlns="http://www.w3.org/2000/svg">
<path fill-rule="evenodd" clip-rule="evenodd" d="M21.3786 61.1306L27.1674 61.1382C32.5319 63.807 35.8558 65.3255 37.1392 65.6935C38.4225 66.0615 39.5867 66.0631 40.6317 65.6981L60.1985 54.9522C61.0964 53.856 61.2401 52.818 60.6294 51.8382C60.0187 50.8584 59.1175 50.507 57.9258 50.784L45.8624 56.5576C46.4454 55.9392 46.707 55.1957 46.6473 54.3271C46.5931 52.8129 45.3116 52.0855 42.803 52.145L34.3173 52.1338L29.5235 50.1122L21.3262 50.1014L21.3786 61.1306Z" fill="#AFB9C4" stroke="#203D5C" stroke-width="1.5" stroke-linecap="round" stroke-linejoin="round"/>
<path d="M20.9606 48.0078L15.3292 48.0004C15.1474 48.0002 15.0007 48.144 15.0015 48.3216L15.0773 64.357C15.0781 64.5347 15.2262 64.6789 15.408 64.6791L21.0394 64.6865C21.2212 64.6867 21.3679 64.5429 21.3671 64.3653L21.2913 48.3298C21.2904 48.1522 21.1424 48.008 20.9606 48.0078Z" fill="#FFC857" stroke="#203D5C" stroke-width="1.5"/>
<path d="M34.8744 56.5155L45.699 56.5155" stroke="#203D5C" stroke-width="1.5" stroke-linecap="round" stroke-linejoin="round"/>
<circle cx="41" cy="29" r="14.25" fill="#AFB9C4" stroke="#203D5C" stroke-width="1.5"/>
<circle cx="41.0001" cy="29" r="9.83823" fill="#FFC857" stroke="#203D5C" stroke-width="1.5"/>
<path d="M44.5295 30.6333C44.5295 31.2491 44.2869 31.7785 43.8018 32.2215C43.3166 32.6571 42.6172 32.9274 41.7035 33.0325V34.2941H40.4907V33.0663C39.8923 33.0363 39.3223 32.9387 38.7805 32.7735C38.2388 32.6083 37.8022 32.4055 37.4706 32.1652L38.1377 30.791C38.445 31.0013 38.8048 31.1777 39.2172 31.3204C39.6295 31.4631 40.054 31.5532 40.4907 31.5907V29.7096C39.9166 29.582 39.4314 29.4393 39.0352 29.2816C38.639 29.1239 38.3075 28.8949 38.0407 28.5945C37.7739 28.2866 37.6404 27.8811 37.6404 27.378C37.6404 26.7547 37.883 26.2215 38.3682 25.7785C38.8614 25.3279 39.5689 25.0538 40.4907 24.9562V23.7059H41.7035V24.9337C42.6981 25.0088 43.5188 25.2378 44.1656 25.6208L43.5592 27.0063C42.9528 26.6834 42.3342 26.4881 41.7035 26.4205V28.3354C42.2695 28.4556 42.7466 28.5945 43.1347 28.7522C43.5309 28.9024 43.8624 29.1314 44.1292 29.4393C44.3961 29.7397 44.5295 30.1377 44.5295 30.6333ZM39.5931 27.2879C39.5931 27.4756 39.67 27.6295 39.8236 27.7497C39.9772 27.8698 40.1996 27.9712 40.4907 28.0538V26.4543C40.1834 26.5219 39.957 26.6308 39.8115 26.781C39.6659 26.9237 39.5931 27.0926 39.5931 27.2879ZM41.7035 31.5457C41.9946 31.4856 42.2129 31.388 42.3585 31.2528C42.504 31.1177 42.5768 30.9562 42.5768 30.7685C42.5768 30.5807 42.5 30.4268 42.3463 30.3066C42.2008 30.1865 41.9865 30.0814 41.7035 29.9912V31.5457Z" fill="white"/>
</svg>
