<svg width="80" height="80" viewBox="0 0 80 80" fill="none" xmlns="http://www.w3.org/2000/svg">
<rect x="18.75" y="25.75" width="48.5" height="31.8333" rx="2.25" fill="#AFB9C4" stroke="#203D5C" stroke-width="1.5"/>
<mask id="path-2-inside-1_703_109" fill="white">
<rect x="23" y="30" width="10" height="11" rx="1"/>
</mask>
<rect x="23" y="30" width="10" height="11" rx="1" fill="#FFC857" stroke="#203D5C" stroke-width="3" mask="url(#path-2-inside-1_703_109)"/>
<mask id="path-3-inside-2_703_109" fill="white">
<rect x="37" y="34" width="25" height="7" rx="1"/>
</mask>
<rect x="37" y="34" width="25" height="7" rx="1" fill="#FFC857" stroke="#203D5C" stroke-width="3" mask="url(#path-3-inside-2_703_109)"/>
<mask id="path-4-inside-3_703_109" fill="white">
<rect x="23" y="45" width="39" height="7" rx="1"/>
</mask>
<rect x="23" y="45" width="39" height="7" rx="1" fill="#FFC857" stroke="#203D5C" stroke-width="3" mask="url(#path-4-inside-3_703_109)"/>
<rect x="13.75" y="21.75" width="48.5" height="31.8333" rx="2.25" fill="#AFB9C4" stroke="#203D5C" stroke-width="1.5"/>
<mask id="path-6-inside-4_703_109" fill="white">
<rect x="18" y="26" width="10" height="11" rx="1"/>
</mask>
<rect x="18" y="26" width="10" height="11" rx="1" fill="#FFC857" stroke="#203D5C" stroke-width="3" mask="url(#path-6-inside-4_703_109)"/>
<mask id="path-7-inside-5_703_109" fill="white">
<rect x="32" y="30" width="25" height="7" rx="1"/>
</mask>
<rect x="32" y="30" width="25" height="7" rx="1" fill="#FFC857" stroke="#203D5C" stroke-width="3" mask="url(#path-7-inside-5_703_109)"/>
<mask id="path-8-inside-6_703_109" fill="white">
<rect x="18" y="41" width="39" height="7" rx="1"/>
</mask>
<rect x="18" y="41" width="39" height="7" rx="1" fill="#FFC857" stroke="#203D5C" stroke-width="3" mask="url(#path-8-inside-6_703_109)"/>
</svg>
