<svg width="80" height="80" viewBox="0 0 80 80" fill="none" xmlns="http://www.w3.org/2000/svg">
<path d="M12.2414 36.236C7.95622 36.7122 0.280961 40.3879 3.86148 51.2818C7.442 62.1757 25.4779 54.2973 34.0483 48.9964C43.1583 41.8544 63.6447 30.8272 72.7103 43.8541C81.7758 56.8811 70.3296 63.3121 63.4733 64.8992" stroke="#AFB9C4" stroke-width="1.5" stroke-linecap="round" stroke-linejoin="round" stroke-dasharray="8 8"/>
<path d="M44.4753 44.5907C44.4977 44.4726 44.6008 44.3871 44.721 44.3871H47.8502C48.0074 44.3871 48.1256 44.5304 48.0957 44.6847L44.5578 62.9352C44.535 63.0527 44.432 63.1376 44.3123 63.1376H41.2694C41.1127 63.1376 40.9946 62.9951 41.0237 62.8411L44.4753 44.5907Z" fill="#FFC857" stroke="#203D5C" stroke-width="1.5"/>
<path d="M38.8599 45.7128C38.8834 45.5961 38.9859 45.5121 39.105 45.5121H44.4602C44.6185 45.5121 44.737 45.6576 44.705 45.8127L41.1703 62.9381C41.1464 63.0543 41.0441 63.1376 40.9255 63.1376H35.6587C35.5008 63.1376 35.3824 62.993 35.4136 62.8383L38.8599 45.7128Z" fill="#AFB9C4" stroke="#203D5C" stroke-width="1.5"/>
<mask id="path-4-inside-1_918_135" fill="white">
<path fill-rule="evenodd" clip-rule="evenodd" d="M59.3785 47.0919H38.5719C36.915 47.0919 35.5719 45.7487 35.5719 44.0919V23.4284C35.5719 21.7716 36.915 20.4284 38.5719 20.4284H59.0723C59.0776 20.4284 59.0829 20.4284 59.0881 20.4284C59.0935 20.4284 59.0988 20.4284 59.1041 20.4284H59.3763C59.3775 20.4284 59.3785 20.4294 59.3785 20.4307C59.3785 20.4319 59.3795 20.4329 59.3808 20.433C65.0479 20.61 69.201 25.9123 67.9557 31.4929L64.9983 44.7452C64.6923 46.1166 63.4754 47.0918 62.0703 47.0918L59.3785 47.0919Z"/>
</mask>
<path fill-rule="evenodd" clip-rule="evenodd" d="M59.3785 47.0919H38.5719C36.915 47.0919 35.5719 45.7487 35.5719 44.0919V23.4284C35.5719 21.7716 36.915 20.4284 38.5719 20.4284H59.0723C59.0776 20.4284 59.0829 20.4284 59.0881 20.4284C59.0935 20.4284 59.0988 20.4284 59.1041 20.4284H59.3763C59.3775 20.4284 59.3785 20.4294 59.3785 20.4307C59.3785 20.4319 59.3795 20.4329 59.3808 20.433C65.0479 20.61 69.201 25.9123 67.9557 31.4929L64.9983 44.7452C64.6923 46.1166 63.4754 47.0918 62.0703 47.0918L59.3785 47.0919Z" fill="#AFB9C4"/>
<path d="M59.3785 47.0919V48.5919H59.3785L59.3785 47.0919ZM59.0723 20.4284V21.9284L59.0749 21.9284L59.0723 20.4284ZM59.1041 20.4284L59.1016 21.9284H59.1041V20.4284ZM67.9557 31.4929L66.4917 31.1662V31.1662L67.9557 31.4929ZM62.0703 47.0918L62.0703 48.5918L62.0703 47.0918ZM59.3808 20.433L59.3339 21.9322L59.3808 20.433ZM59.3785 45.5919H38.5719V48.5919H59.3785V45.5919ZM37.0719 44.0919V23.4284H34.0719V44.0919H37.0719ZM38.5719 21.9284H59.0723V18.9284H38.5719V21.9284ZM59.0749 21.9284C59.0793 21.9284 59.0837 21.9284 59.0881 21.9284V18.9284C59.082 18.9284 59.0759 18.9284 59.0697 18.9284L59.0749 21.9284ZM59.0881 21.9284C59.0926 21.9284 59.0971 21.9284 59.1016 21.9284L59.1067 18.9284C59.1005 18.9284 59.0943 18.9284 59.0881 18.9284V21.9284ZM59.1041 21.9284H59.3763V18.9284H59.1041V21.9284ZM59.3339 21.9322C64.064 22.08 67.5313 26.5075 66.4917 31.1662L69.4197 31.8196C70.8707 25.3172 66.0318 19.14 59.4276 18.9337L59.3339 21.9322ZM66.4917 31.1662L63.5343 44.4185L66.4623 45.0719L69.4197 31.8196L66.4917 31.1662ZM62.0703 45.5918L59.3785 45.5919L59.3785 48.5919L62.0703 48.5918L62.0703 45.5918ZM63.5343 44.4185C63.3813 45.1042 62.7729 45.5918 62.0703 45.5918L62.0703 48.5918C64.178 48.5918 66.0032 47.129 66.4623 45.0719L63.5343 44.4185ZM57.8785 20.4307C57.8785 21.2559 58.5368 21.9073 59.3339 21.9322L59.4276 18.9337C60.2223 18.9585 60.8785 19.6079 60.8785 20.4307H57.8785ZM37.0719 23.4284C37.0719 22.6 37.7435 21.9284 38.5719 21.9284V18.9284C36.0866 18.9284 34.0719 20.9431 34.0719 23.4284H37.0719ZM59.3763 21.9284C58.5491 21.9284 57.8785 21.2579 57.8785 20.4307H60.8785C60.8785 19.601 60.2059 18.9284 59.3763 18.9284V21.9284ZM38.5719 45.5919C37.7435 45.5919 37.0719 44.9203 37.0719 44.0919H34.0719C34.0719 46.5771 36.0866 48.5919 38.5719 48.5919V45.5919Z" fill="#203D5C" mask="url(#path-4-inside-1_918_135)"/>
<path d="M29.9674 27.6985C30.8177 23.8881 34.1988 21.1784 38.1029 21.1784C43.4387 21.1784 47.4006 26.1219 46.2385 31.3296L42.8884 46.3418H26.0902C25.9449 46.3418 25.837 46.2072 25.8687 46.0654L29.9674 27.6985Z" fill="#FFC857" stroke="#203D5C" stroke-width="1.5"/>
<path d="M14.0885 43.4927C14.0986 43.3625 14.2072 43.2621 14.3377 43.2621H27.7281C27.8741 43.2621 27.989 43.3867 27.9773 43.5322L27.775 46.0323C27.7645 46.1622 27.6561 46.2622 27.5259 46.2622H14.1429C13.9971 46.2622 13.8823 46.138 13.8936 45.9928L14.0885 43.4927Z" fill="#AFB9C4" stroke="#203D5C" stroke-width="1.5"/>
<path d="M27.6289 43.4899C27.6404 43.3609 27.7484 43.2621 27.8779 43.2621H43.4659C43.6131 43.2621 43.7284 43.3886 43.7148 43.5351L43.4837 46.0352C43.4718 46.1638 43.3639 46.2622 43.2348 46.2622H27.6552C27.5084 46.2622 27.3932 46.1363 27.4062 45.99L27.6289 43.4899Z" fill="#AFB9C4" stroke="#203D5C" stroke-width="1.5"/>
<path d="M18.6098 34.0988L30.6407 33.6001L18.6098 37.4026V34.0988Z" fill="#FFC857" stroke="#203D5C" stroke-width="1.5"/>
<path d="M17.9247 31.2934L28.2859 32.3841L14.4147 33.2773L17.9247 31.2934ZM28.7341 31.2683L31.89 32.152L28.5492 32.3671L28.7341 31.2683Z" fill="#AFB9C4" stroke="#203D5C" stroke-width="1.5"/>
<path d="M53.8541 28.0146L55.3896 19.9532C55.412 19.8353 55.5151 19.75 55.6352 19.75H60.7692C60.9237 19.75 61.0412 19.8887 61.0158 20.0411L60.6825 22.0406C60.6625 22.1612 60.5582 22.2495 60.4359 22.2495H56.943C56.1228 22.2495 55.4126 22.8192 55.2347 23.6199L54.2404 28.0943C54.2203 28.1846 54.1403 28.2488 54.0478 28.2488C53.9241 28.2488 53.8309 28.1362 53.8541 28.0146Z" fill="#AFB9C4" stroke="#203D5C" stroke-width="1.5"/>
</svg>
