<svg width="80" height="80" viewBox="0 0 80 80" fill="none" xmlns="http://www.w3.org/2000/svg">
<path d="M32.823 25H31.4134C30.7234 25 30.2408 24.3178 30.4704 23.6672L32.7645 17.1672C32.9056 16.7674 33.2835 16.5 33.7075 16.5H46.7925C47.2165 16.5 47.5944 16.7674 47.7355 17.1672L50.0296 23.6672C50.2592 24.3178 49.7766 25 49.0866 25H47.677C47.2681 25 46.9004 24.751 46.7486 24.3714L45.2514 20.6286C45.0996 20.249 44.7319 20 44.323 20H36.177C35.7681 20 35.4004 20.249 35.2486 20.6286L33.7514 24.3714C33.5996 24.751 33.2319 25 32.823 25Z" fill="#AFB9C4" stroke="#203D5C" stroke-width="1.5"/>
<mask id="path-2-inside-1_925_321" fill="white">
<rect x="28" y="23" width="7" height="6" rx="1"/>
</mask>
<rect x="28" y="23" width="7" height="6" rx="1" fill="#FFC857" stroke="#203D5C" stroke-width="3" mask="url(#path-2-inside-1_925_321)"/>
<mask id="path-3-inside-2_925_321" fill="white">
<rect x="19" y="58" width="6" height="6" rx="1"/>
</mask>
<rect x="19" y="58" width="6" height="6" rx="1" fill="#AFB9C4" stroke="#203D5C" stroke-width="3" mask="url(#path-3-inside-2_925_321)"/>
<mask id="path-4-inside-3_925_321" fill="white">
<rect x="45" y="23" width="7" height="6" rx="1"/>
</mask>
<rect x="45" y="23" width="7" height="6" rx="1" fill="#FFC857" stroke="#203D5C" stroke-width="3" mask="url(#path-4-inside-3_925_321)"/>
<mask id="path-5-inside-4_925_321" fill="white">
<rect x="55" y="58" width="6" height="6" rx="1"/>
</mask>
<rect x="55" y="58" width="6" height="6" rx="1" fill="#AFB9C4" stroke="#203D5C" stroke-width="3" mask="url(#path-5-inside-4_925_321)"/>
<mask id="path-6-inside-5_925_321" fill="white">
<rect x="16" y="26" width="48" height="34" rx="1"/>
</mask>
<rect x="16" y="26" width="48" height="34" rx="1" fill="#FFC857" stroke="#203D5C" stroke-width="3" mask="url(#path-6-inside-5_925_321)"/>
<mask id="path-7-inside-6_925_321" fill="white">
<rect x="19" y="29" width="41" height="28" rx="1"/>
</mask>
<rect x="19" y="29" width="41" height="28" rx="1" fill="#AFB9C4" stroke="#203D5C" stroke-width="3" mask="url(#path-7-inside-6_925_321)"/>
<path d="M39 35H54V50.5" stroke="#203D5C" stroke-width="1.5" stroke-linecap="round" stroke-linejoin="round"/>
<path d="M55.5 30L59 34.5M55 56L59 52M20 34.5L24.5 30M20 51.5L24 56" stroke="#203D5C" stroke-width="1.5" stroke-linecap="round" stroke-linejoin="round"/>
</svg>
