<svg width="80" height="80" viewBox="0 0 80 80" fill="none" xmlns="http://www.w3.org/2000/svg">
<circle cx="32.5" cy="47.5" r="4.75" fill="#AFB9C4" stroke="#203D5C" stroke-width="1.5"/>
<circle cx="46.5" cy="47.5" r="4.75" fill="#AFB9C4" stroke="#203D5C" stroke-width="1.5"/>
<path d="M22.7883 62.25C23.1636 58.5983 26.2492 55.75 30 55.75H35C38.7508 55.75 41.8364 58.5983 42.2117 62.25H22.7883Z" fill="#AFB9C4" stroke="#203D5C" stroke-width="1.5"/>
<path d="M36.7883 62.25C37.1636 58.5983 40.2492 55.75 44 55.75H49C52.7508 55.75 55.8364 58.5983 56.2117 62.25H36.7883Z" fill="#AFB9C4" stroke="#203D5C" stroke-width="1.5"/>
<circle cx="40" cy="46.5" r="4.75" fill="#FFC857" stroke="#203D5C" stroke-width="1.5"/>
<path d="M30.2883 61.25C30.6636 57.5983 33.7492 54.75 37.5 54.75H42.5C46.2508 54.75 49.3364 57.5983 49.7117 61.25H30.2883Z" fill="#FFC857" stroke="#203D5C" stroke-width="1.5"/>
<mask id="path-7-inside-1_177_106" fill="white">
<rect x="8" y="18" width="20" height="9" rx="1"/>
</mask>
<rect x="8" y="18" width="20" height="9" rx="1" fill="#AFB9C4" stroke="#203D5C" stroke-width="3" mask="url(#path-7-inside-1_177_106)"/>
<mask id="path-8-inside-2_177_106" fill="white">
<rect x="30" y="18" width="20" height="9" rx="1"/>
</mask>
<rect x="30" y="18" width="20" height="9" rx="1" fill="#AFB9C4" stroke="#203D5C" stroke-width="3" mask="url(#path-8-inside-2_177_106)"/>
<mask id="path-9-inside-3_177_106" fill="white">
<rect x="52" y="18" width="20" height="9" rx="1"/>
</mask>
<rect x="52" y="18" width="20" height="9" rx="1" fill="#AFB9C4" stroke="#203D5C" stroke-width="3" mask="url(#path-9-inside-3_177_106)"/>
<path d="M17 22.5H25" stroke="#203D5C" stroke-width="1.5" stroke-linecap="round"/>
<path d="M39 22.5H47" stroke="#203D5C" stroke-width="1.5" stroke-linecap="round"/>
<path d="M61 22.5H69" stroke="#203D5C" stroke-width="1.5" stroke-linecap="round"/>
<circle cx="12.5" cy="22.5" r="1.75" fill="#FFC857" stroke="#203D5C" stroke-width="1.5"/>
<circle cx="34.5" cy="22.5" r="1.75" fill="#FFC857" stroke="#203D5C" stroke-width="1.5"/>
<circle cx="56.5" cy="22.5" r="1.75" fill="#FFC857" stroke="#203D5C" stroke-width="1.5"/>
<path d="M17.5 26.5V29C17.5 30.6569 18.8431 32 20.5 32H40M64 26.5V29C64 30.6569 62.6569 32 61 32H41H40M40 32V26.5M40 32V37" stroke="#203D5C" stroke-width="1.5" stroke-linecap="round"/>
</svg>
