<svg width="80" height="80" viewBox="0 0 80 80" fill="none" xmlns="http://www.w3.org/2000/svg">
<path d="M15 49V61.5" stroke="#203D5C" stroke-width="1.5" stroke-linecap="round"/>
<path d="M20 62V68" stroke="#203D5C" stroke-width="1.5" stroke-linecap="round"/>
<path d="M53 60V63" stroke="#203D5C" stroke-width="1.5" stroke-linecap="round"/>
<path d="M57 55V61" stroke="#203D5C" stroke-width="1.5" stroke-linecap="round"/>
<rect x="21.1259" y="13.75" width="32.8067" height="39.668" rx="1.3084" fill="#FFC857" stroke="#203D5C" stroke-width="1.5"/>
<rect x="19.0674" y="15.8084" width="32.8067" height="39.668" rx="1.3084" fill="#AFB9C4" stroke="#203D5C" stroke-width="1.5"/>
<mask id="path-7-inside-1_946_164" fill="white">
<rect x="38.2153" y="22.6059" width="10.9781" height="4" rx="0.686134"/>
</mask>
<rect x="38.2153" y="22.6059" width="10.9781" height="4" rx="0.686134" fill="#FFC857" stroke="#203D5C" stroke-width="3" mask="url(#path-7-inside-1_946_164)"/>
<mask id="path-8-inside-2_946_164" fill="white">
<rect x="22.4343" y="28.7811" width="26.0731" height="4" rx="0.686134"/>
</mask>
<rect x="22.4343" y="28.7811" width="26.0731" height="4" rx="0.686134" fill="#FFC857" stroke="#203D5C" stroke-width="3" mask="url(#path-8-inside-2_946_164)"/>
<mask id="path-9-inside-3_946_164" fill="white">
<rect x="22.4343" y="34.9563" width="26.0731" height="4" rx="0.686134"/>
</mask>
<rect x="22.4343" y="34.9563" width="26.0731" height="4" rx="0.686134" fill="#FFC857" stroke="#203D5C" stroke-width="3" mask="url(#path-9-inside-3_946_164)"/>
<mask id="path-10-inside-4_946_164" fill="white">
<rect x="22.4343" y="41.1315" width="26.0731" height="4" rx="0.686134"/>
</mask>
<rect x="22.4343" y="41.1315" width="26.0731" height="4" rx="0.686134" fill="#FFC857" stroke="#203D5C" stroke-width="3" mask="url(#path-10-inside-4_946_164)"/>
<mask id="path-11-inside-5_946_164" fill="white">
<rect x="22.4343" y="47.3067" width="26.0731" height="4" rx="0.686134"/>
</mask>
<rect x="22.4343" y="47.3067" width="26.0731" height="4" rx="0.686134" fill="#FFC857" stroke="#203D5C" stroke-width="3" mask="url(#path-11-inside-5_946_164)"/>
<circle cx="28.2139" cy="22.8965" r="3.82239" fill="#FFC857" stroke="#203D5C" stroke-width="1.5"/>
<path d="M27.2372 23.292L27.9234 23.9781L29.9818 21.9197" stroke="#203D5C" stroke-width="1.5" stroke-linecap="round" stroke-linejoin="round"/>
<mask id="path-14-inside-6_946_164" fill="white">
<path fill-rule="evenodd" clip-rule="evenodd" d="M62.0911 25.682C61.6871 25.3053 61.0544 25.3274 60.6777 25.7313L51.6525 35.4096L46.7034 30.9534C46.293 30.5838 45.6607 30.617 45.2911 31.0274L43.2837 33.2568C42.9142 33.6673 42.9473 34.2996 43.3577 34.6691L48.7816 39.5528C48.8284 39.6303 48.8866 39.7027 48.9561 39.7675L51.1502 41.8135C51.5541 42.1902 52.1869 42.1681 52.5635 41.7641L64.3345 29.1413C64.7111 28.7374 64.689 28.1046 64.2851 27.728L62.0911 25.682Z"/>
</mask>
<path fill-rule="evenodd" clip-rule="evenodd" d="M62.0911 25.682C61.6871 25.3053 61.0544 25.3274 60.6777 25.7313L51.6525 35.4096L46.7034 30.9534C46.293 30.5838 45.6607 30.617 45.2911 31.0274L43.2837 33.2568C42.9142 33.6673 42.9473 34.2996 43.3577 34.6691L48.7816 39.5528C48.8284 39.6303 48.8866 39.7027 48.9561 39.7675L51.1502 41.8135C51.5541 42.1902 52.1869 42.1681 52.5635 41.7641L64.3345 29.1413C64.7111 28.7374 64.689 28.1046 64.2851 27.728L62.0911 25.682Z" fill="#FFC857"/>
<path d="M60.6777 25.7313L59.5807 24.7083V24.7083L60.6777 25.7313ZM62.0911 25.682L61.0681 26.779V26.779L62.0911 25.682ZM51.6525 35.4096L50.6489 36.5244L51.7443 37.5107L52.7496 36.4326L51.6525 35.4096ZM46.7034 30.9534L45.6997 32.0681L46.7034 30.9534ZM45.2911 31.0274L44.1764 30.0237V30.0237L45.2911 31.0274ZM43.2837 33.2568L42.169 32.2531L42.169 32.2531L43.2837 33.2568ZM43.3577 34.6691L42.354 35.7838H42.354L43.3577 34.6691ZM48.7816 39.5528L50.0656 38.7774L49.9506 38.5869L49.7853 38.438L48.7816 39.5528ZM48.9561 39.7675L47.9331 40.8645L48.9561 39.7675ZM51.1502 41.8135L52.1732 40.7165V40.7165L51.1502 41.8135ZM52.5635 41.7641L51.4665 40.7411L51.4665 40.7411L52.5635 41.7641ZM64.3345 29.1413L63.2374 28.1183V28.1183L64.3345 29.1413ZM64.2851 27.728L65.3081 26.6309H65.3081L64.2851 27.728ZM61.7747 26.7543C61.5864 26.9563 61.27 26.9673 61.0681 26.779L63.1141 24.5849C62.1043 23.6433 60.5223 23.6986 59.5807 24.7083L61.7747 26.7543ZM52.7496 36.4326L61.7747 26.7543L59.5807 24.7083L50.5555 34.3866L52.7496 36.4326ZM45.6997 32.0681L50.6489 36.5244L52.6562 34.2949L47.7071 29.8387L45.6997 32.0681ZM46.4058 32.0311C46.2211 32.2363 45.9049 32.2529 45.6997 32.0681L47.7071 29.8387C46.681 28.9148 45.1003 28.9976 44.1764 30.0237L46.4058 32.0311ZM44.3984 34.2605L46.4058 32.0311L44.1764 30.0237L42.169 32.2531L44.3984 34.2605ZM44.3614 33.5544C44.5666 33.7392 44.5832 34.0553 44.3984 34.2605L42.169 32.2531C41.2451 33.2792 41.328 34.86 42.354 35.7838L44.3614 33.5544ZM49.7853 38.438L44.3614 33.5544L42.354 35.7838L47.7779 40.6675L49.7853 38.438ZM49.9791 38.6705C50.0121 38.7012 50.0414 38.7373 50.0656 38.7774L47.4975 40.3281C47.6153 40.5232 47.7611 40.7041 47.9331 40.8645L49.9791 38.6705ZM52.1732 40.7165L49.9791 38.6705L47.9331 40.8645L50.1272 42.9105L52.1732 40.7165ZM51.4665 40.7411C51.6548 40.5392 51.9712 40.5281 52.1732 40.7165L50.1272 42.9105C51.1369 43.8522 52.7189 43.7969 53.6605 42.7871L51.4665 40.7411ZM63.2374 28.1183L51.4665 40.7411L53.6605 42.7871L65.4315 30.1643L63.2374 28.1183ZM63.2621 28.825C63.0602 28.6367 63.0491 28.3203 63.2374 28.1183L65.4315 30.1643C66.3731 29.1545 66.3179 27.5726 65.3081 26.6309L63.2621 28.825ZM61.0681 26.779L63.2621 28.825L65.3081 26.6309L63.1141 24.5849L61.0681 26.779Z" fill="#203D5C" mask="url(#path-14-inside-6_946_164)"/>
<path d="M56.5 41L61 36" stroke="#203D5C" stroke-width="1.5" stroke-linecap="round"/>
</svg>
