<svg width="80" height="80" viewBox="0 0 80 80" fill="none" xmlns="http://www.w3.org/2000/svg">
<path d="M46.2479 57.25H9.75212C9.88591 49.0716 16.33 42.3652 24.5276 41.9338L28 41.751L31.4724 41.9338C39.67 42.3652 46.1141 49.0716 46.2479 57.25Z" fill="#AFB9C4" stroke="#203D5C" stroke-width="1.5"/>
<circle cx="28" cy="27" r="11.25" fill="#AFB9C4" stroke="#203D5C" stroke-width="1.5"/>
<circle cx="28" cy="27" r="8.25" fill="#FFC857" stroke="#203D5C" stroke-width="1.5"/>
<path d="M61.2479 68.25H24.7521C24.8859 60.0716 31.33 53.3652 39.5276 52.9338L43 52.751L46.4724 52.9338C54.67 53.3652 61.1141 60.0716 61.2479 68.25Z" fill="#AFB9C4" stroke="#203D5C" stroke-width="1.5"/>
<circle cx="43" cy="38" r="11.25" fill="#AFB9C4" stroke="#203D5C" stroke-width="1.5"/>
<circle cx="43" cy="38" r="8.25" fill="#FFC857" stroke="#203D5C" stroke-width="1.5"/>
<path fill-rule="evenodd" clip-rule="evenodd" d="M66.5 16.5C66.5 16.2239 66.2761 16 66 16H64C63.7239 16 63.5 16.2239 63.5 16.5V20C63.5 20.2761 63.2761 20.5 63 20.5H59.5C59.2239 20.5 59 20.7239 59 21V23C59 23.2761 59.2239 23.5 59.5 23.5H63C63.2761 23.5 63.5 23.7239 63.5 24V27.5C63.5 27.7761 63.7239 28 64 28H66C66.2761 28 66.5 27.7761 66.5 27.5V24C66.5 23.7239 66.7239 23.5 67 23.5H70.5C70.7761 23.5 71 23.2761 71 23V21C71 20.7239 70.7761 20.5 70.5 20.5H67C66.7239 20.5 66.5 20.2761 66.5 20V16.5Z" fill="#FFC857"/>
<path d="M64 16.75H66V15.25H64V16.75ZM64.25 20V16.5H62.75V20H64.25ZM59.5 21.25H63V19.75H59.5V21.25ZM59.75 23V21H58.25V23H59.75ZM63 22.75H59.5V24.25H63V22.75ZM64.25 27.5V24H62.75V27.5H64.25ZM66 27.25H64V28.75H66V27.25ZM65.75 24V27.5H67.25V24H65.75ZM70.5 22.75H67V24.25H70.5V22.75ZM70.25 21V23H71.75V21H70.25ZM67 21.25H70.5V19.75H67V21.25ZM65.75 16.5V20H67.25V16.5H65.75ZM67 19.75C67.1381 19.75 67.25 19.8619 67.25 20H65.75C65.75 20.6904 66.3096 21.25 67 21.25V19.75ZM71.75 21C71.75 20.3096 71.1904 19.75 70.5 19.75V21.25C70.3619 21.25 70.25 21.1381 70.25 21H71.75ZM70.5 24.25C71.1904 24.25 71.75 23.6904 71.75 23H70.25C70.25 22.8619 70.3619 22.75 70.5 22.75V24.25ZM67.25 24C67.25 24.1381 67.1381 24.25 67 24.25V22.75C66.3096 22.75 65.75 23.3096 65.75 24H67.25ZM66 28.75C66.6904 28.75 67.25 28.1904 67.25 27.5H65.75C65.75 27.3619 65.8619 27.25 66 27.25V28.75ZM62.75 27.5C62.75 28.1904 63.3096 28.75 64 28.75V27.25C64.1381 27.25 64.25 27.3619 64.25 27.5H62.75ZM63 24.25C62.8619 24.25 62.75 24.1381 62.75 24H64.25C64.25 23.3096 63.6904 22.75 63 22.75V24.25ZM58.25 23C58.25 23.6904 58.8096 24.25 59.5 24.25V22.75C59.6381 22.75 59.75 22.8619 59.75 23H58.25ZM59.5 19.75C58.8096 19.75 58.25 20.3096 58.25 21H59.75C59.75 21.1381 59.6381 21.25 59.5 21.25V19.75ZM62.75 20C62.75 19.8619 62.8619 19.75 63 19.75V21.25C63.6904 21.25 64.25 20.6904 64.25 20H62.75ZM66 16.75C65.8619 16.75 65.75 16.6381 65.75 16.5H67.25C67.25 15.8096 66.6904 15.25 66 15.25V16.75ZM64 15.25C63.3096 15.25 62.75 15.8096 62.75 16.5H64.25C64.25 16.6381 64.1381 16.75 64 16.75V15.25Z" fill="#203D5C"/>
<path fill-rule="evenodd" clip-rule="evenodd" d="M56.5 11.5C56.5 11.2239 56.2761 11 56 11H54C53.7239 11 53.5 11.2239 53.5 11.5V15C53.5 15.2761 53.2761 15.5 53 15.5H49.5C49.2239 15.5 49 15.7239 49 16V18C49 18.2761 49.2239 18.5 49.5 18.5H53C53.2761 18.5 53.5 18.7239 53.5 19V22.5C53.5 22.7761 53.7239 23 54 23H56C56.2761 23 56.5 22.7761 56.5 22.5V19C56.5 18.7239 56.7239 18.5 57 18.5H60.5C60.7761 18.5 61 18.2761 61 18V16C61 15.7239 60.7761 15.5 60.5 15.5H57C56.7239 15.5 56.5 15.2761 56.5 15V11.5Z" fill="#AFB9C4"/>
<path d="M54 11.75H56V10.25H54V11.75ZM54.25 15V11.5H52.75V15H54.25ZM49.5 16.25H53V14.75H49.5V16.25ZM49.75 18V16H48.25V18H49.75ZM53 17.75H49.5V19.25H53V17.75ZM54.25 22.5V19H52.75V22.5H54.25ZM56 22.25H54V23.75H56V22.25ZM55.75 19V22.5H57.25V19H55.75ZM60.5 17.75H57V19.25H60.5V17.75ZM60.25 16V18H61.75V16H60.25ZM57 16.25H60.5V14.75H57V16.25ZM55.75 11.5V15H57.25V11.5H55.75ZM57 14.75C57.1381 14.75 57.25 14.8619 57.25 15H55.75C55.75 15.6904 56.3096 16.25 57 16.25V14.75ZM61.75 16C61.75 15.3096 61.1904 14.75 60.5 14.75V16.25C60.3619 16.25 60.25 16.1381 60.25 16H61.75ZM60.5 19.25C61.1904 19.25 61.75 18.6904 61.75 18H60.25C60.25 17.8619 60.3619 17.75 60.5 17.75V19.25ZM57.25 19C57.25 19.1381 57.1381 19.25 57 19.25V17.75C56.3096 17.75 55.75 18.3096 55.75 19H57.25ZM56 23.75C56.6904 23.75 57.25 23.1904 57.25 22.5H55.75C55.75 22.3619 55.8619 22.25 56 22.25V23.75ZM52.75 22.5C52.75 23.1904 53.3096 23.75 54 23.75V22.25C54.1381 22.25 54.25 22.3619 54.25 22.5H52.75ZM53 19.25C52.8619 19.25 52.75 19.1381 52.75 19H54.25C54.25 18.3096 53.6904 17.75 53 17.75V19.25ZM48.25 18C48.25 18.6904 48.8096 19.25 49.5 19.25V17.75C49.6381 17.75 49.75 17.8619 49.75 18H48.25ZM49.5 14.75C48.8096 14.75 48.25 15.3096 48.25 16H49.75C49.75 16.1381 49.6381 16.25 49.5 16.25V14.75ZM52.75 15C52.75 14.8619 52.8619 14.75 53 14.75V16.25C53.6904 16.25 54.25 15.6904 54.25 15H52.75ZM56 11.75C55.8619 11.75 55.75 11.6381 55.75 11.5H57.25C57.25 10.8096 56.6904 10.25 56 10.25V11.75ZM54 10.25C53.3096 10.25 52.75 10.8096 52.75 11.5H54.25C54.25 11.6381 54.1381 11.75 54 11.75V10.25Z" fill="#203D5C"/>
</svg>
