<svg width="80" height="80" viewBox="0 0 80 80" fill="none" xmlns="http://www.w3.org/2000/svg">
<path d="M59.5764 25.9089L60.3133 25.7694L59.5764 25.9089L60.192 29.1611C60.254 29.489 60.4086 29.7923 60.6374 30.0353L62.9066 32.4449C62.9579 32.4994 62.9821 32.5739 62.9726 32.648L62.5531 35.9312C62.5108 36.2623 62.5641 36.5985 62.7066 36.9003L63.3848 36.5801L62.7066 36.9003L64.1201 39.8932C64.1521 39.9608 64.1521 40.0392 64.1201 40.1068L62.7066 43.0997L63.3848 43.4199L62.7066 43.0997C62.5641 43.4015 62.5108 43.7377 62.5531 44.0688L62.9726 47.352L63.7166 47.2569L62.9726 47.352C62.9821 47.4261 62.9579 47.5006 62.9066 47.5551L60.6374 49.9647C60.4086 50.2077 60.254 50.511 60.192 50.8389L59.5764 54.0911L60.3133 54.2306L59.5764 54.0911C59.5625 54.1645 59.5164 54.2279 59.4508 54.2638L56.5481 55.8543C56.2554 56.0147 56.0147 56.2554 55.8543 56.5481L54.2638 59.4508C54.2279 59.5164 54.1645 59.5625 54.0911 59.5764L54.2306 60.3133L54.0911 59.5764L50.8389 60.192C50.511 60.254 50.2077 60.4086 49.9647 60.6374L47.5551 62.9066C47.5006 62.9579 47.4261 62.9821 47.352 62.9726L47.2569 63.7166L47.352 62.9726L44.0688 62.5531C43.7377 62.5108 43.4015 62.5641 43.0997 62.7066L43.4199 63.3848L43.0997 62.7066L40.1068 64.1201C40.0392 64.1521 39.9608 64.1521 39.8932 64.1201L36.9003 62.7066L36.5801 63.3848L36.9003 62.7066C36.5985 62.5641 36.2623 62.5108 35.9312 62.5531L32.648 62.9726L32.7431 63.7166L32.648 62.9726C32.5739 62.9821 32.4994 62.9579 32.4449 62.9066L30.0353 60.6374C29.7923 60.4086 29.489 60.254 29.1611 60.192L25.9089 59.5764L25.7694 60.3133L25.9089 59.5764C25.8355 59.5625 25.7721 59.5164 25.7362 59.4508L24.1457 56.5481C23.9853 56.2554 23.7446 56.0147 23.4519 55.8543L20.5492 54.2638C20.4836 54.2279 20.4375 54.1645 20.4236 54.0911L19.808 50.8389C19.746 50.511 19.5914 50.2077 19.3626 49.9647L17.0934 47.5551C17.0421 47.5007 17.0179 47.4261 17.0274 47.352L17.4469 44.0688C17.4892 43.7377 17.4359 43.4014 17.2934 43.0997L15.8799 40.1068C15.8479 40.0392 15.8479 39.9608 15.8799 39.8932L17.2934 36.9003C17.4359 36.5986 17.4892 36.2623 17.4469 35.9312L17.0274 32.648C17.0179 32.5739 17.0421 32.4994 17.0934 32.4449L19.3626 30.0353L18.8348 29.5383L19.3626 30.0353C19.5914 29.7923 19.746 29.489 19.808 29.1611L20.4236 25.9089C20.4375 25.8355 20.4836 25.7721 20.5492 25.7362L23.4519 24.1457C23.7446 23.9853 23.9853 23.7446 24.1457 23.4519L25.7362 20.5492C25.7721 20.4836 25.8355 20.4375 25.9089 20.4236L29.1611 19.808C29.489 19.746 29.7923 19.5914 30.0353 19.3626L32.4449 17.0934C32.4994 17.0421 32.5739 17.0179 32.648 17.0274L35.9312 17.4469C36.2623 17.4892 36.5986 17.4359 36.9003 17.2934L39.8932 15.8799C39.9608 15.8479 40.0392 15.8479 40.1068 15.8799L43.0997 17.2934C43.4014 17.4359 43.7377 17.4892 44.0688 17.4469L47.352 17.0274C47.4261 17.0179 47.5006 17.0421 47.5551 17.0934L49.9647 19.3626C50.2077 19.5914 50.511 19.746 50.8389 19.808L54.0911 20.4236C54.1645 20.4375 54.2279 20.4836 54.2638 20.5492L55.8543 23.4519C56.0147 23.7446 56.2554 23.9853 56.5481 24.1457L59.4508 25.7362C59.5164 25.7721 59.5625 25.8355 59.5764 25.9089Z" fill="#FFC857" stroke="#203D5C" stroke-width="1.5"/>
<circle cx="40" cy="40" r="19.25" fill="#AFB9C4" stroke="#203D5C" stroke-width="1.5"/>
<mask id="path-3-inside-1_160_61" fill="white">
<path fill-rule="evenodd" clip-rule="evenodd" d="M53.8454 34.8892C54.2291 34.4919 54.218 33.8589 53.8207 33.4752L49.8644 29.6546C49.4671 29.2709 48.834 29.282 48.4504 29.6793L37.6832 40.829L33.0075 36.3137C32.6102 35.9301 31.9771 35.9412 31.5935 36.3384L27.7729 40.2948C27.3892 40.6921 27.4003 41.3251 27.7976 41.7088L33.1877 46.914C33.1893 46.9156 33.1909 46.9172 33.1926 46.9187L37.1489 50.7394C37.2483 50.8353 37.3623 50.9065 37.4835 50.9532C37.7513 51.0564 38.0539 51.0398 38.3097 50.905C38.4014 50.8567 38.4871 50.7933 38.563 50.7147L42.3836 46.7583C42.3851 46.7567 42.3867 46.7551 42.3882 46.7535L53.8454 34.8892Z"/>
</mask>
<path fill-rule="evenodd" clip-rule="evenodd" d="M53.8454 34.8892C54.2291 34.4919 54.218 33.8589 53.8207 33.4752L49.8644 29.6546C49.4671 29.2709 48.834 29.282 48.4504 29.6793L37.6832 40.829L33.0075 36.3137C32.6102 35.9301 31.9771 35.9412 31.5935 36.3384L27.7729 40.2948C27.3892 40.6921 27.4003 41.3251 27.7976 41.7088L33.1877 46.914C33.1893 46.9156 33.1909 46.9172 33.1926 46.9187L37.1489 50.7394C37.2483 50.8353 37.3623 50.9065 37.4835 50.9532C37.7513 51.0564 38.0539 51.0398 38.3097 50.905C38.4014 50.8567 38.4871 50.7933 38.563 50.7147L42.3836 46.7583C42.3851 46.7567 42.3867 46.7551 42.3882 46.7535L53.8454 34.8892Z" fill="#FFC857"/>
<path d="M53.8454 34.8892L54.9244 35.9312L53.8454 34.8892ZM37.6832 40.829L36.6412 41.908L37.7202 42.95L38.7622 41.871L37.6832 40.829ZM33.0075 36.3137L31.9655 37.3928L33.0075 36.3137ZM27.7976 41.7088L28.8395 40.6298L27.7976 41.7088ZM33.1877 46.914L34.2369 45.8419L34.2297 45.835L33.1877 46.914ZM37.4835 50.9532L36.9442 52.3529L36.9442 52.3529L37.4835 50.9532ZM38.3097 50.905L37.6105 49.578L37.6105 49.578L38.3097 50.905ZM42.3882 46.7535L41.3092 45.7115L41.3026 45.7184L42.3882 46.7535ZM52.7788 34.5542C52.5801 34.3624 52.5746 34.0459 52.7664 33.8472L54.9244 35.9312C55.8836 34.938 55.8559 33.3553 54.8627 32.3962L52.7788 34.5542ZM48.8224 30.7336L52.7788 34.5542L54.8627 32.3962L50.9064 28.5756L48.8224 30.7336ZM49.5294 30.7213C49.3376 30.9199 49.021 30.9254 48.8224 30.7336L50.9064 28.5756C49.9132 27.6164 48.3305 27.6441 47.3714 28.6373L49.5294 30.7213ZM38.7622 41.871L49.5294 30.7213L47.3714 28.6373L36.6042 39.787L38.7622 41.871ZM31.9655 37.3928L36.6412 41.908L38.7252 39.75L34.0495 35.2347L31.9655 37.3928ZM32.6725 37.3804C32.4807 37.5791 32.1641 37.5846 31.9655 37.3928L34.0495 35.2347C33.0563 34.2756 31.4736 34.3032 30.5145 35.2964L32.6725 37.3804ZM28.8519 41.3368L32.6725 37.3804L30.5145 35.2964L26.6939 39.2528L28.8519 41.3368ZM28.8395 40.6298C29.0382 40.8216 29.0437 41.1381 28.8519 41.3368L26.6939 39.2528C25.7347 40.246 25.7624 41.8287 26.7556 42.7878L28.8395 40.6298ZM34.2297 45.835L28.8395 40.6298L26.7556 42.7878L32.1457 47.993L34.2297 45.835ZM34.2346 45.8397C34.2353 45.8405 34.2361 45.8412 34.2369 45.842L32.1385 47.986C32.1425 47.9899 32.1465 47.9938 32.1506 47.9977L34.2346 45.8397ZM38.1909 49.6603L34.2346 45.8397L32.1506 47.9977L36.107 51.8184L38.1909 49.6603ZM38.0229 49.5535C38.0856 49.5777 38.1433 49.6143 38.1909 49.6603L36.107 51.8184C36.3533 52.0562 36.639 52.2353 36.9442 52.3529L38.0229 49.5535ZM37.6105 49.578C37.7402 49.5096 37.8893 49.5021 38.0229 49.5535L36.9442 52.3529C37.6132 52.6107 38.3676 52.5701 39.009 52.2321L37.6105 49.578ZM37.484 49.6727C37.5202 49.6352 37.5631 49.6029 37.6105 49.578L39.0089 52.2321C39.2397 52.1105 39.454 51.9514 39.642 51.7567L37.484 49.6727ZM41.3046 45.7163L37.484 49.6727L39.642 51.7567L43.4626 47.8003L41.3046 45.7163ZM41.3026 45.7184C41.3031 45.7179 41.3038 45.7172 41.3046 45.7163L43.4626 47.8003C43.4665 47.7962 43.4703 47.7923 43.4739 47.7885L41.3026 45.7184ZM52.7664 33.8472L41.3092 45.7115L43.4672 47.7955L54.9244 35.9312L52.7664 33.8472Z" fill="#203D5C" mask="url(#path-3-inside-1_160_61)"/>
</svg>
