<svg width="24" height="24" viewBox="0 0 24 24" fill="none" xmlns="http://www.w3.org/2000/svg">
<path d="M1.19666 12.5375L1.64317 13.1401L1.19666 12.5375ZM0.988533 13.9363L1.59114 13.4898L0.988533 13.9363ZM15.6591 1.82127L15.2126 1.21867L15.6591 1.82127ZM18.2486 3.63634L18.6951 4.23894C19.028 3.99234 19.0978 3.52264 18.8512 3.18983L18.2486 3.63634ZM21.8207 8.45717L22.4233 8.01066C22.1767 7.67785 21.707 7.60796 21.3742 7.85456L21.8207 8.45717ZM5.75129 20.364L5.30478 19.7614C4.97197 20.008 4.90208 20.4777 5.14868 20.8106L5.75129 20.364ZM2.17922 15.5432L1.57662 15.9897C1.69504 16.1496 1.8721 16.2558 2.06885 16.2851C2.26559 16.3143 2.46591 16.2642 2.62573 16.1458L2.17922 15.5432ZM0.750151 11.9349C-0.0264018 12.5103 -0.18947 13.6062 0.385929 14.3828L1.59114 13.4898C1.50894 13.3788 1.53223 13.2223 1.64317 13.1401L0.750151 11.9349ZM15.2126 1.21867L0.750151 11.9349L1.64317 13.1401L16.1056 2.42388L15.2126 1.21867ZM17.6606 1.58289C17.0852 0.806338 15.9892 0.643271 15.2126 1.21867L16.1056 2.42388C16.2166 2.34168 16.3731 2.36497 16.4553 2.47591L17.6606 1.58289ZM18.8512 3.18983L17.6606 1.58289L16.4553 2.47591L17.646 4.08285L18.8512 3.18983ZM18.2269 7.38628C17.4871 6.38785 17.6967 4.97874 18.6951 4.23894L17.8021 3.03374C16.1381 4.26674 15.7887 6.61525 17.0217 8.27929L18.2269 7.38628ZM21.3742 7.85456C20.3758 8.59436 18.9667 8.3847 18.2269 7.38628L17.0217 8.27929C18.2547 9.94334 20.6032 10.2928 22.2672 9.05977L21.3742 7.85456ZM23.614 9.6176L22.4233 8.01066L21.2181 8.90367L22.4088 10.5106L23.614 9.6176ZM23.2498 12.0655C24.0263 11.4901 24.1894 10.3942 23.614 9.6176L22.4088 10.5106C22.491 10.6216 22.4677 10.7781 22.3568 10.8603L23.2498 12.0655ZM8.7873 22.7817L23.2498 12.0655L22.3568 10.8603L7.89428 21.5765L8.7873 22.7817ZM6.33937 22.4175C6.91477 23.1941 8.01074 23.3571 8.7873 22.7817L7.89428 21.5765C7.78335 21.6587 7.62678 21.6354 7.54458 21.5245L6.33937 22.4175ZM5.14868 20.8106L6.33937 22.4175L7.54458 21.5245L6.35389 19.9175L5.14868 20.8106ZM5.77306 16.6141C6.51286 17.6125 6.3032 19.0216 5.30478 19.7614L6.19779 20.9667C7.86184 19.7337 8.21127 17.3851 6.97827 15.7211L5.77306 16.6141ZM2.62573 16.1458C3.62415 15.406 5.03326 15.6157 5.77306 16.6141L6.97827 15.7211C5.74527 14.0571 3.39676 13.7076 1.73271 14.9406L2.62573 16.1458ZM0.385929 14.3828L1.57662 15.9897L2.78182 15.0967L1.59114 13.4898L0.385929 14.3828Z" fill="#FFC857"/>
<path d="M17.9825 15.0347L10.8384 5.39307" stroke="#FFC857" stroke-width="1.5" stroke-linecap="round" stroke-dasharray="4 4"/>
</svg>
