<svg width="24" height="24" viewBox="0 0 24 24" fill="none" xmlns="http://www.w3.org/2000/svg">
<g clip-path="url(#clip0_112_180)">
<g filter="url(#filter0_d_112_180)">
<rect x="2" y="6" width="20" height="12" rx="1" fill="white"/>
</g>
<path d="M2 7C2 6.44772 2.44772 6 3 6H21C21.5523 6 22 6.44772 22 7V17C22 17.5523 21.5523 18 21 18H3C2.44772 18 2 17.5523 2 17V7Z" fill="#73AF00"/>
<path d="M17 12L12 7L7 12L12 17L17 12Z" fill="#FFE15A"/>
<mask id="mask0_112_180" style="mask-type:alpha" maskUnits="userSpaceOnUse" x="10" y="10" width="4" height="4">
<path d="M12 14C13.1046 14 14 13.1046 14 12C14 10.8954 13.1046 9.99998 12 9.99998C10.8954 9.99998 10 10.8954 10 12C10 13.1046 10.8954 14 12 14Z" fill="#41479B"/>
</mask>
<g mask="url(#mask0_112_180)">
<rect x="10" y="9.99998" width="4" height="4" fill="#41479B"/>
<path d="M10.2266 10.9691C10.1273 11.1353 10.0507 11.316 10 11.5078C11.1667 11.4199 12.9015 11.9341 14 13C14.0717 12.817 13.9822 12.2038 14 12C12.8657 11.0454 11.4254 10.9364 10.2266 10.9691Z" fill="#F5F5F5"/>
</g>
<path d="M12.1197 12.7638L12.1757 12.9318L12.3528 12.9332C12.3757 12.9334 12.3852 12.9627 12.3668 12.9763L12.2243 13.0815L12.2778 13.2503C12.2847 13.2722 12.2598 13.2903 12.2411 13.277L12.097 13.174L11.9529 13.277C11.9343 13.2903 11.9094 13.2722 11.9163 13.2503L11.9697 13.0815L11.8272 12.9763C11.8088 12.9627 11.8183 12.9334 11.8412 12.9332L12.0184 12.9319L12.0744 12.7639C12.0816 12.7421 12.1124 12.7421 12.1197 12.7638Z" fill="#F5F5F5"/>
<path d="M12.808 13.1984L12.8321 13.2708L12.9084 13.2713C12.9182 13.2714 12.9223 13.284 12.9144 13.2899L12.8531 13.3352L12.8761 13.4078C12.879 13.4172 12.8683 13.425 12.8603 13.4193L12.7983 13.375L12.7362 13.4193C12.7282 13.425 12.7175 13.4172 12.7205 13.4078L12.7434 13.3352L12.6821 13.2899C12.6742 13.284 12.6783 13.2714 12.6881 13.2713L12.7644 13.2708L12.7885 13.1984C12.7917 13.1891 12.8049 13.1891 12.808 13.1984Z" fill="#F5F5F5"/>
<path d="M11.8221 12.4447L11.8462 12.517L11.9224 12.5176C11.9323 12.5177 11.9364 12.5303 11.9284 12.5361L11.8671 12.5814L11.8901 12.6541C11.8931 12.6635 11.8824 12.6713 11.8743 12.6655L11.8123 12.6212L11.7503 12.6655C11.7422 12.6713 11.7315 12.6635 11.7345 12.6541L11.7575 12.5814L11.6962 12.5361C11.6882 12.5303 11.6923 12.5177 11.7022 12.5176L11.7784 12.517L11.8025 12.4447C11.8057 12.4353 11.8189 12.4353 11.8221 12.4447Z" fill="#F5F5F5"/>
<path d="M10.4867 12.357L10.5109 12.4293L10.5871 12.4299C10.5969 12.4299 10.6011 12.4425 10.5931 12.4484L10.5318 12.4937L10.5548 12.5664C10.5577 12.5758 10.547 12.5836 10.539 12.5778L10.477 12.5335L10.4149 12.5778C10.4069 12.5835 10.3962 12.5758 10.3992 12.5664L10.4222 12.4937L10.3609 12.4484C10.3529 12.4426 10.357 12.4299 10.3669 12.4299L10.4431 12.4293L10.4672 12.357C10.4704 12.3476 10.4836 12.3476 10.4867 12.357Z" fill="#F5F5F5"/>
<path d="M11.6038 13.1735L11.6279 13.2458L11.7042 13.2464C11.714 13.2465 11.7181 13.2591 11.7102 13.2649L11.6489 13.3102L11.6719 13.3829C11.6748 13.3923 11.6641 13.4001 11.6561 13.3943L11.5941 13.35L11.532 13.3943C11.524 13.4001 11.5133 13.3923 11.5163 13.3829L11.5393 13.3102L11.4779 13.2649C11.47 13.2591 11.4741 13.2465 11.484 13.2464L11.5602 13.2458L11.5843 13.1735C11.5875 13.1641 11.6007 13.1641 11.6038 13.1735Z" fill="#F5F5F5"/>
<path d="M10.9892 12.3065L11.0089 12.3656L11.0712 12.3661C11.0793 12.3662 11.0827 12.3765 11.0762 12.3813L11.026 12.4183L11.0448 12.4777C11.0473 12.4855 11.0385 12.4918 11.0319 12.4871L10.9812 12.4509L10.9305 12.4871C10.924 12.4918 10.9152 12.4855 10.9176 12.4777L10.9364 12.4183L10.8863 12.3813C10.8798 12.3765 10.8831 12.3662 10.8912 12.3661L10.9536 12.3656L10.9733 12.3065C10.9758 12.2989 10.9866 12.2989 10.9892 12.3065Z" fill="#F5F5F5"/>
<path d="M12.8615 11.0072L12.8862 11.0811L12.9642 11.0817C12.9742 11.0818 12.9784 11.0947 12.9703 11.1007L12.9076 11.147L12.9311 11.2213C12.9342 11.2309 12.9232 11.2389 12.915 11.233L12.8516 11.1877L12.7881 11.233C12.7799 11.2389 12.7689 11.2309 12.772 11.2213L12.7955 11.147L12.7328 11.1007C12.7247 11.0947 12.7289 11.0818 12.7389 11.0817L12.8169 11.0811L12.8416 11.0072C12.8448 10.9976 12.8583 10.9976 12.8615 11.0072Z" fill="#F5F5F5"/>
<path d="M10.5726 11.9448L10.5924 12.0039L10.6547 12.0044C10.6628 12.0045 10.6661 12.0148 10.6596 12.0196L10.6095 12.0566L10.6283 12.116C10.6307 12.1237 10.622 12.1301 10.6154 12.1254L10.5647 12.0892L10.514 12.1254C10.5074 12.1301 10.4986 12.1237 10.5011 12.116L10.5199 12.0566L10.4697 12.0196C10.4632 12.0148 10.4666 12.0045 10.4747 12.0044L10.537 12.0039L10.5567 11.9448C10.5593 11.9371 10.5701 11.9371 10.5726 11.9448Z" fill="#F5F5F5"/>
<path d="M10.8736 12.7782L10.9035 12.8677L10.9979 12.8685C11.0101 12.8686 11.0152 12.8842 11.0054 12.8914L10.9294 12.9475L10.9579 13.0375C10.9616 13.0492 10.9483 13.0588 10.9384 13.0517L10.8616 12.9968L10.7848 13.0517C10.7748 13.0588 10.7616 13.0492 10.7652 13.0375L10.7937 12.9475L10.7178 12.8914C10.7079 12.8842 10.713 12.8686 10.7252 12.8685L10.8196 12.8677L10.8495 12.7782C10.8534 12.7666 10.8698 12.7666 10.8736 12.7782Z" fill="#F5F5F5"/>
<path d="M13.1918 13.2172L13.2106 13.2736L13.27 13.274C13.2777 13.2741 13.2809 13.2839 13.2747 13.2885L13.2269 13.3237L13.2448 13.3804C13.2471 13.3877 13.2388 13.3938 13.2325 13.3893L13.1842 13.3547L13.1359 13.3893C13.1296 13.3938 13.1213 13.3877 13.1236 13.3804L13.1415 13.3237L13.0937 13.2885C13.0875 13.2839 13.0907 13.2741 13.0984 13.274L13.1578 13.2736L13.1766 13.2172C13.1791 13.2099 13.1894 13.2099 13.1918 13.2172Z" fill="#F5F5F5"/>
<path d="M13.3997 12.7872L13.4238 12.8595L13.5 12.8601C13.5099 12.8602 13.514 12.8728 13.5061 12.8786L13.4447 12.9239L13.4677 12.9966C13.4707 13.006 13.46 13.0138 13.452 13.0081L13.3899 12.9638L13.3279 13.0081C13.3199 13.0138 13.3092 13.006 13.3121 12.9966L13.3351 12.9239L13.2738 12.8786C13.2659 12.8728 13.27 12.8602 13.2798 12.8601L13.356 12.8595L13.3802 12.7872C13.3833 12.7778 13.3966 12.7778 13.3997 12.7872Z" fill="#F5F5F5"/>
</g>
<defs>
<filter id="filter0_d_112_180" x="-5" y="-1" width="34" height="26" filterUnits="userSpaceOnUse" color-interpolation-filters="sRGB">
<feFlood flood-opacity="0" result="BackgroundImageFix"/>
<feColorMatrix in="SourceAlpha" type="matrix" values="0 0 0 0 0 0 0 0 0 0 0 0 0 0 0 0 0 0 127 0" result="hardAlpha"/>
<feMorphology radius="1" operator="dilate" in="SourceAlpha" result="effect1_dropShadow_112_180"/>
<feOffset/>
<feGaussianBlur stdDeviation="3"/>
<feColorMatrix type="matrix" values="0 0 0 0 0 0 0 0 0 0 0 0 0 0 0 0 0 0 0.04 0"/>
<feBlend mode="normal" in2="BackgroundImageFix" result="effect1_dropShadow_112_180"/>
<feBlend mode="normal" in="SourceGraphic" in2="effect1_dropShadow_112_180" result="shape"/>
</filter>
<clipPath id="clip0_112_180">
<rect width="24" height="24" fill="white"/>
</clipPath>
</defs>
</svg>
