<svg width="24" height="24" viewBox="0 0 24 24" fill="none" xmlns="http://www.w3.org/2000/svg">
<g clip-path="url(#clip0_237_38)">
<g filter="url(#filter0_d_237_38)">
<rect x="2" y="6" width="20" height="12" rx="1" fill="#FFE15A"/>
</g>
<path d="M2 7C2 6.44772 2.44772 6 3 6H21C21.5523 6 22 6.44772 22 7V10H2V7Z" fill="#82AFFF"/>
<path d="M2 14H22V17C22 17.5523 21.5523 18 21 18H3C2.44772 18 2 17.5523 2 17V14Z" fill="#82AFFF"/>
<mask id="mask0_237_38" style="mask-type:alpha" maskUnits="userSpaceOnUse" x="2" y="6" width="20" height="12">
<rect x="2" y="6" width="20" height="12" rx="1" fill="#FFE15A"/>
</mask>
<g mask="url(#mask0_237_38)">
<path d="M12.8727 11.7807L2.57911 5C1.6031 5.63577 1 6.51102 1 7.47739V16.5226C1 17.489 1.6031 18.3642 2.57911 19L12.8727 12.2193C13.0424 12.1072 13.0424 11.8928 12.8727 11.7807Z" fill="#464655"/>
</g>
</g>
<defs>
<filter id="filter0_d_237_38" x="-5" y="-1" width="34" height="26" filterUnits="userSpaceOnUse" color-interpolation-filters="sRGB">
<feFlood flood-opacity="0" result="BackgroundImageFix"/>
<feColorMatrix in="SourceAlpha" type="matrix" values="0 0 0 0 0 0 0 0 0 0 0 0 0 0 0 0 0 0 127 0" result="hardAlpha"/>
<feMorphology radius="1" operator="dilate" in="SourceAlpha" result="effect1_dropShadow_237_38"/>
<feOffset/>
<feGaussianBlur stdDeviation="3"/>
<feColorMatrix type="matrix" values="0 0 0 0 0 0 0 0 0 0 0 0 0 0 0 0 0 0 0.04 0"/>
<feBlend mode="normal" in2="BackgroundImageFix" result="effect1_dropShadow_237_38"/>
<feBlend mode="normal" in="SourceGraphic" in2="effect1_dropShadow_237_38" result="shape"/>
</filter>
<clipPath id="clip0_237_38">
<rect width="24" height="24" fill="white"/>
</clipPath>
</defs>
</svg>
