<svg width="24" height="24" viewBox="0 0 24 24" fill="none" xmlns="http://www.w3.org/2000/svg">
<g clip-path="url(#clip0_112_182)">
<g filter="url(#filter0_d_112_182)">
<rect x="2" y="6" width="20" height="12" rx="1" fill="white"/>
</g>
<path d="M2 7C2 6.44772 2.44772 6 3 6H21C21.5523 6 22 6.44772 22 7V10H2V7Z" fill="#82AFFF"/>
<path d="M2 14H22V17C22 17.5523 21.5523 18 21 18H3C2.44772 18 2 17.5523 2 17V14Z" fill="#82AFFF"/>
<path d="M14 11.925H12.9199C12.94 11.9097 12.9559 11.8947 12.9704 11.8805C12.9968 11.8547 13.0177 11.8342 13.0734 11.8113C13.1293 11.7879 13.1586 11.7876 13.1957 11.787C13.2403 11.7867 13.2909 11.7859 13.3735 11.7519C13.456 11.7176 13.492 11.6824 13.5238 11.6514C13.5502 11.6256 13.5711 11.6051 13.6269 11.582C13.6825 11.5588 13.7116 11.5585 13.7485 11.5582C13.793 11.5576 13.8436 11.5571 13.9262 11.5228L13.8685 11.3845C13.813 11.4076 13.7838 11.4079 13.7469 11.4082C13.7024 11.4088 13.6518 11.4094 13.5694 11.4434C13.4869 11.4776 13.4509 11.5128 13.4191 11.5439C13.3927 11.5696 13.3718 11.5901 13.3161 11.613C13.2602 11.6364 13.2308 11.6367 13.1938 11.6373C13.1491 11.6376 13.0986 11.6385 13.016 11.6728C12.9335 11.7067 12.8975 11.7422 12.8657 11.7732C12.8397 11.7985 12.8183 11.8187 12.7649 11.8413L13.6137 10.9925L13.5077 10.8864L12.7436 11.6505C12.7469 11.6255 12.7478 11.6033 12.748 11.5831C12.7485 11.5459 12.7488 11.5169 12.7719 11.461C12.795 11.405 12.8155 11.3842 12.8413 11.3578C12.8727 11.3259 12.908 11.2896 12.9423 11.2069C12.9764 11.1243 12.977 11.0739 12.9774 11.0294C12.9778 10.9925 12.9781 10.9632 13.0011 10.9075C13.0243 10.8519 13.0446 10.8311 13.0704 10.8047C13.1016 10.7728 13.1369 10.7367 13.171 10.6544L13.0325 10.597C13.0093 10.6527 12.989 10.6735 12.9632 10.6998C12.932 10.7317 12.8967 10.7678 12.8626 10.8501C12.8284 10.9327 12.8279 10.9831 12.8274 11.0277C12.827 11.0646 12.8267 11.0939 12.8037 11.1495C12.7805 11.2055 12.76 11.2263 12.7342 11.2527C12.7029 11.2846 12.6676 11.3209 12.6333 11.4035C12.5992 11.4862 12.5986 11.5369 12.598 11.5814C12.5977 11.6175 12.5967 11.6467 12.575 11.7003V10.5H12.425V11.5801C12.4097 11.5601 12.3947 11.5442 12.3806 11.5298C12.3547 11.5034 12.3344 11.4823 12.3112 11.4267C12.2881 11.3707 12.2876 11.3414 12.2872 11.3042C12.2868 11.2597 12.2862 11.209 12.2519 11.1264C12.2178 11.044 12.1825 11.008 12.1513 10.9761C12.1255 10.9497 12.1051 10.9289 12.082 10.8732C12.059 10.8176 12.0587 10.7883 12.0582 10.7514C12.0578 10.7068 12.0572 10.6565 12.0231 10.5741L11.8845 10.6316C11.9075 10.6872 11.9078 10.7162 11.9083 10.7531C11.9087 10.7977 11.9093 10.8481 11.9434 10.9307C11.9775 11.013 12.0128 11.049 12.044 11.081C12.0698 11.1073 12.0902 11.1281 12.1133 11.1838C12.1365 11.2398 12.1369 11.269 12.1373 11.3063C12.1378 11.3508 12.1383 11.4015 12.1726 11.4841C12.2068 11.5667 12.2421 11.6028 12.2733 11.6347C12.2987 11.6605 12.3188 11.6821 12.3413 11.7353L11.4923 10.8864L11.3863 10.9925L12.234 11.8401C12.1875 11.8189 12.165 11.7996 12.1407 11.7759C12.1086 11.7445 12.0724 11.7091 11.9895 11.6748C11.9069 11.6408 11.8563 11.6399 11.8116 11.6394C11.7744 11.6391 11.7452 11.6385 11.6887 11.615C11.6324 11.5919 11.6112 11.5714 11.5844 11.5453C11.5524 11.5142 11.516 11.4788 11.433 11.4442C11.3501 11.4099 11.2994 11.4094 11.2546 11.4088C11.2172 11.4082 11.1878 11.4076 11.1314 11.3842L11.074 11.523C11.1569 11.5573 11.2076 11.5579 11.2524 11.5585C11.2897 11.5591 11.3192 11.5596 11.3756 11.5831C11.4321 11.6062 11.4532 11.6267 11.48 11.6528C11.5121 11.6842 11.5484 11.7193 11.6313 11.7536C11.7142 11.7882 11.7649 11.7888 11.8096 11.7893C11.8468 11.7899 11.8761 11.7902 11.9322 11.8137C11.9883 11.8368 12.0092 11.8573 12.0358 11.8831C12.0494 11.8965 12.0646 11.9106 12.083 11.925H11V12.075H12.1981C12.1507 12.093 12.1211 12.0953 12.0872 12.0958C12.0425 12.0961 11.992 12.097 11.9092 12.131C11.8265 12.1652 11.7901 12.2007 11.7581 12.2317C11.7314 12.2578 11.7105 12.2783 11.6544 12.3015C11.598 12.3249 11.5685 12.3255 11.5312 12.3261C11.4863 12.3267 11.4357 12.3272 11.3528 12.3615C11.2697 12.3961 11.2334 12.4313 11.2013 12.4626C11.1745 12.4887 11.1534 12.5092 11.097 12.5323L11.1544 12.6712C11.2373 12.6366 11.2736 12.6015 11.3057 12.5701C11.3325 12.544 11.3536 12.5235 11.4102 12.5004C11.4666 12.4769 11.496 12.4764 11.5334 12.4758C11.5782 12.4752 11.6289 12.4746 11.7119 12.44C11.7945 12.4058 11.8307 12.3706 11.8628 12.3393C11.8893 12.3135 11.9104 12.293 11.9667 12.2698C12.0226 12.2464 12.0521 12.2461 12.0891 12.2455C12.1081 12.2454 12.1295 12.2442 12.1526 12.2413L11.3863 13.0075L11.4923 13.1136L12.3396 12.2664C12.3187 12.3127 12.2995 12.3351 12.2757 12.3595C12.2445 12.3914 12.2092 12.4277 12.175 12.5103C12.1407 12.593 12.14 12.6439 12.1395 12.6885C12.1389 12.7257 12.1386 12.755 12.1153 12.8112C12.092 12.8678 12.0714 12.8889 12.0455 12.9155C12.0141 12.9475 11.9788 12.9841 11.9444 13.067C11.9099 13.1499 11.9094 13.2006 11.9088 13.2454C11.9082 13.2826 11.9078 13.3122 11.8845 13.3685L12.023 13.4259C12.0575 13.343 12.0581 13.2923 12.0586 13.2475C12.0592 13.2103 12.0597 13.1807 12.083 13.1244C12.1062 13.0679 12.1269 13.0468 12.1528 13.0201C12.1842 12.9882 12.2195 12.9516 12.2539 12.8687C12.2882 12.786 12.2889 12.7351 12.2894 12.6905C12.2899 12.6533 12.2902 12.624 12.3135 12.5678C12.3367 12.5115 12.3572 12.4907 12.3831 12.4641C12.3964 12.4504 12.4106 12.4352 12.425 12.4167V13.5H12.575V12.302C12.5929 12.3493 12.5951 12.3788 12.5956 12.4128C12.5961 12.4574 12.5968 12.5081 12.6311 12.5907C12.6652 12.6736 12.7007 12.7099 12.7319 12.7418C12.7578 12.7685 12.7783 12.7896 12.8016 12.8458C12.8249 12.9021 12.8253 12.9317 12.8259 12.9689C12.8265 13.0137 12.8271 13.0644 12.8615 13.1473C12.8959 13.2302 12.9312 13.2668 12.9626 13.2988C12.9885 13.3255 13.0092 13.3466 13.0325 13.4031L13.171 13.3457C13.1366 13.2628 13.1013 13.2261 13.07 13.1942C13.044 13.1675 13.0234 13.1464 13.0001 13.0899C12.9768 13.0336 12.9764 13.0041 12.9758 12.9668C12.9752 12.922 12.9746 12.8713 12.9402 12.7884C12.9059 12.7055 12.8706 12.6692 12.8394 12.6372C12.8135 12.6106 12.793 12.5895 12.7697 12.5332C12.7464 12.4773 12.7461 12.448 12.7455 12.4108C12.7453 12.3918 12.7441 12.3704 12.7412 12.3473L13.5077 13.1136L13.6137 13.0075L12.8497 12.2436C12.8745 12.2469 12.8967 12.2479 12.9168 12.2482C12.9538 12.2485 12.983 12.2487 13.0389 12.2719C13.0949 12.2953 13.1158 12.3155 13.1423 12.3416C13.1743 12.3727 13.2104 12.4081 13.2931 12.4424C13.3755 12.4764 13.4261 12.477 13.4706 12.4773C13.5075 12.4779 13.5367 12.4782 13.5923 12.5013C13.648 12.5242 13.6688 12.5447 13.6951 12.5705C13.7271 12.6015 13.7631 12.637 13.8456 12.6712L13.903 12.5324C13.8473 12.5095 13.8266 12.489 13.8002 12.4632C13.7683 12.4322 13.7322 12.3967 13.6498 12.3625C13.5673 12.3285 13.5167 12.3279 13.4722 12.3276C13.4353 12.327 13.4062 12.3267 13.3505 12.3036C13.2945 12.2804 13.2736 12.2602 13.2471 12.2341C13.2152 12.2031 13.179 12.1676 13.0964 12.1336C13.0137 12.0991 12.9632 12.0985 12.9185 12.0982C12.8822 12.0976 12.8527 12.0969 12.7988 12.075H14V11.925Z" fill="#F09146"/>
<path d="M12.5 12.5C12.7761 12.5 13 12.2761 13 12C13 11.7239 12.7761 11.5 12.5 11.5C12.2239 11.5 12 11.7239 12 12C12 12.2761 12.2239 12.5 12.5 12.5Z" fill="#FFE15A"/>
</g>
<defs>
<filter id="filter0_d_112_182" x="-5" y="-1" width="34" height="26" filterUnits="userSpaceOnUse" color-interpolation-filters="sRGB">
<feFlood flood-opacity="0" result="BackgroundImageFix"/>
<feColorMatrix in="SourceAlpha" type="matrix" values="0 0 0 0 0 0 0 0 0 0 0 0 0 0 0 0 0 0 127 0" result="hardAlpha"/>
<feMorphology radius="1" operator="dilate" in="SourceAlpha" result="effect1_dropShadow_112_182"/>
<feOffset/>
<feGaussianBlur stdDeviation="3"/>
<feColorMatrix type="matrix" values="0 0 0 0 0 0 0 0 0 0 0 0 0 0 0 0 0 0 0.04 0"/>
<feBlend mode="normal" in2="BackgroundImageFix" result="effect1_dropShadow_112_182"/>
<feBlend mode="normal" in="SourceGraphic" in2="effect1_dropShadow_112_182" result="shape"/>
</filter>
<clipPath id="clip0_112_182">
<rect width="24" height="24" fill="white"/>
</clipPath>
</defs>
</svg>
