<svg width="24" height="24" viewBox="0 0 24 24" fill="none" xmlns="http://www.w3.org/2000/svg">
<g clip-path="url(#clip0_410_105)">
<g filter="url(#filter0_d_410_105)">
<rect x="2" y="6" width="20" height="12" rx="1" fill="#41479B"/>
</g>
<path d="M11.7908 8.02937L11.8916 8.33183L12.2105 8.33431C12.2517 8.33462 12.2689 8.3873 12.2356 8.41184L11.9792 8.60125L12.0753 8.90522C12.0878 8.94457 12.043 8.97712 12.0094 8.95312L11.75 8.76774L11.4907 8.95312C11.4571 8.97712 11.4123 8.94457 11.4247 8.90522L11.5209 8.60125L11.2644 8.41184C11.2312 8.38732 11.2484 8.33465 11.2896 8.33431L11.6084 8.33183L11.7093 8.02937C11.7223 7.99021 11.7777 7.99021 11.7908 8.02937Z" fill="#FFE15A"/>
<path d="M11.7908 14.5231L11.8916 14.8256L12.2105 14.828C12.2517 14.8284 12.2689 14.881 12.2356 14.9055L11.9792 15.0949L12.0753 15.3989C12.0878 15.4383 12.043 15.4708 12.0094 15.4468L11.75 15.2614L11.4907 15.4468C11.4571 15.4708 11.4123 15.4383 11.4247 15.3989L11.5209 15.0949L11.2644 14.9055C11.2312 14.881 11.2484 14.8283 11.2896 14.828L11.6084 14.8256L11.7093 14.5231C11.7223 14.484 11.7777 14.484 11.7908 14.5231Z" fill="#FFE15A"/>
<path d="M15.0376 11.2763L15.1385 11.5787L15.4573 11.5812C15.4986 11.5815 15.5157 11.6342 15.4825 11.6587L15.226 11.8481L15.3222 12.1521C15.3346 12.1915 15.2898 12.224 15.2562 12.2L14.9969 12.0146L14.7375 12.2C14.7039 12.224 14.6591 12.1915 14.6715 12.1521L14.7677 11.8481L14.5112 11.6587C14.478 11.6342 14.4952 11.5815 14.5364 11.5812L14.8552 11.5787L14.9561 11.2763C14.9692 11.2371 15.0246 11.2371 15.0376 11.2763Z" fill="#FFE15A"/>
<path d="M8.54387 11.2763L8.64474 11.5787L8.96355 11.5812C9.00482 11.5815 9.02194 11.6342 8.98873 11.6587L8.73226 11.8481L8.82843 12.1521C8.84088 12.1915 8.79607 12.224 8.7625 12.2L8.50313 12.0146L8.24375 12.2C8.21016 12.224 8.16537 12.1915 8.17782 12.1521L8.27399 11.8481L8.01752 11.6587C7.98431 11.6342 8.00144 11.5815 8.0427 11.5812L8.36151 11.5787L8.46238 11.2763C8.47542 11.2371 8.53081 11.2371 8.54387 11.2763Z" fill="#FFE15A"/>
<path d="M9.0313 9.58069L9.13217 9.88313L9.451 9.88561C9.49227 9.88594 9.50939 9.93859 9.47618 9.96311L9.21971 10.1525L9.31588 10.4565C9.32833 10.4958 9.28352 10.5284 9.24995 10.5044L8.99058 10.319L8.7312 10.5044C8.69761 10.5284 8.6528 10.4958 8.66527 10.4565L8.76144 10.1525L8.50497 9.96311C8.47176 9.93859 8.48889 9.88591 8.53015 9.88558L8.84896 9.8831L8.94983 9.58067C8.96284 9.54155 9.01824 9.54155 9.0313 9.58069Z" fill="#FFE15A"/>
<path d="M14.655 12.8276L14.7559 13.13L15.0747 13.1325C15.116 13.1328 15.1331 13.1855 15.0999 13.21L14.8434 13.3994L14.9396 13.7034C14.952 13.7427 14.9072 13.7753 14.8736 13.7513L14.6143 13.5659L14.3549 13.7513C14.3213 13.7753 14.2765 13.7427 14.289 13.7034L14.3851 13.3994L14.1287 13.21C14.0955 13.1855 14.1126 13.1328 14.1538 13.1325L14.4727 13.13L14.5735 12.8276C14.5866 12.7884 14.642 12.7884 14.655 12.8276Z" fill="#FFE15A"/>
<path d="M13.4666 8.39224L13.5675 8.6947L13.8863 8.69718C13.9275 8.69751 13.9447 8.75017 13.9115 8.77471L13.655 8.96411L13.7512 9.26808C13.7636 9.30744 13.7188 9.33999 13.6852 9.31599L13.4258 9.1306L13.1665 9.31599C13.1329 9.33999 13.0881 9.30744 13.1005 9.26808L13.1967 8.96411L12.9402 8.77471C12.907 8.75019 12.9241 8.69751 12.9654 8.69718L13.2842 8.6947L13.3851 8.39224C13.3982 8.3531 13.4536 8.3531 13.4666 8.39224Z" fill="#FFE15A"/>
<path d="M10.2197 14.016L10.3206 14.3185L10.6394 14.3209C10.6807 14.3213 10.6978 14.3739 10.6646 14.3985L10.4081 14.5879L10.5043 14.8918C10.5168 14.9312 10.4719 14.9637 10.4383 14.9397L10.179 14.7543L9.9196 14.9397C9.88601 14.9637 9.84122 14.9312 9.85367 14.8918L9.94984 14.5879L9.69337 14.3985C9.66016 14.3739 9.67729 14.3213 9.71855 14.3209L10.0374 14.3185L10.1382 14.016C10.1513 13.9768 10.2067 13.9768 10.2197 14.016Z" fill="#FFE15A"/>
<path d="M14.5735 9.58069L14.4727 9.88313L14.1538 9.88561C14.1126 9.88594 14.0955 9.93859 14.1287 9.96311L14.3851 10.1525L14.289 10.4565C14.2765 10.4958 14.3213 10.5284 14.3549 10.5044L14.6143 10.319L14.8736 10.5044C14.9072 10.5284 14.952 10.4958 14.9396 10.4565L14.8434 10.1525L15.0999 9.96311C15.1331 9.93859 15.116 9.88591 15.0747 9.88558L14.7559 9.8831L14.655 9.58067C14.642 9.54155 14.5866 9.54155 14.5735 9.58069Z" fill="#FFE15A"/>
<path d="M8.94978 12.8276L8.84891 13.13L8.53011 13.1325C8.48884 13.1328 8.47171 13.1855 8.50493 13.21L8.76139 13.3994L8.66523 13.7034C8.65278 13.7427 8.69759 13.7753 8.73116 13.7513L8.99053 13.5659L9.2499 13.7513C9.28349 13.7753 9.32828 13.7427 9.31586 13.7034L9.21969 13.3994L9.47616 13.21C9.50937 13.1855 9.49224 13.1328 9.45098 13.1325L9.13215 13.13L9.03128 12.8276C9.01824 12.7884 8.96284 12.7884 8.94978 12.8276Z" fill="#FFE15A"/>
<path d="M10.1382 8.39224L10.0373 8.6947L9.71853 8.69718C9.67726 8.69751 9.66014 8.75017 9.69335 8.77471L9.94982 8.96411L9.85365 9.26808C9.8412 9.30744 9.88601 9.33999 9.91958 9.31599L10.179 9.1306L10.4383 9.31599C10.4719 9.33999 10.5167 9.30744 10.5043 9.26808L10.4081 8.96411L10.6646 8.77471C10.6978 8.75019 10.6806 8.69751 10.6394 8.69718L10.3205 8.6947L10.2197 8.39224C10.2067 8.3531 10.1513 8.3531 10.1382 8.39224Z" fill="#FFE15A"/>
<path d="M13.3851 14.016L13.2842 14.3185L12.9654 14.3209C12.9242 14.3213 12.907 14.3739 12.9402 14.3985L13.1967 14.5879L13.1005 14.8918C13.0881 14.9312 13.1329 14.9637 13.1665 14.9397L13.4258 14.7543L13.6852 14.9397C13.7188 14.9637 13.7636 14.9312 13.7512 14.8918L13.655 14.5879L13.9115 14.3985C13.9447 14.3739 13.9275 14.3213 13.8863 14.3209L13.5675 14.3185L13.4666 14.016C13.4536 13.9768 13.3982 13.9768 13.3851 14.016Z" fill="#FFE15A"/>
</g>
<defs>
<filter id="filter0_d_410_105" x="-5" y="-1" width="34" height="26" filterUnits="userSpaceOnUse" color-interpolation-filters="sRGB">
<feFlood flood-opacity="0" result="BackgroundImageFix"/>
<feColorMatrix in="SourceAlpha" type="matrix" values="0 0 0 0 0 0 0 0 0 0 0 0 0 0 0 0 0 0 127 0" result="hardAlpha"/>
<feMorphology radius="1" operator="dilate" in="SourceAlpha" result="effect1_dropShadow_410_105"/>
<feOffset/>
<feGaussianBlur stdDeviation="3"/>
<feColorMatrix type="matrix" values="0 0 0 0 0 0 0 0 0 0 0 0 0 0 0 0 0 0 0.04 0"/>
<feBlend mode="normal" in2="BackgroundImageFix" result="effect1_dropShadow_410_105"/>
<feBlend mode="normal" in="SourceGraphic" in2="effect1_dropShadow_410_105" result="shape"/>
</filter>
<clipPath id="clip0_410_105">
<rect width="24" height="24" fill="white"/>
</clipPath>
</defs>
</svg>
