<svg width="24" height="24" viewBox="0 0 24 24" fill="none" xmlns="http://www.w3.org/2000/svg">
<g clip-path="url(#clip0_112_179)">
<g filter="url(#filter0_d_112_179)">
<rect x="2" y="6" width="20" height="12" rx="1" fill="#F5F5F5"/>
</g>
<path d="M2 7C2 6.44772 2.44772 6 3 6H21C21.5523 6 22 6.44772 22 7V10H2V7Z" fill="#FF4B55"/>
<path d="M2 14H22V17C22 17.5523 21.5523 18 21 18H3C2.44772 18 2 17.5523 2 17V14Z" fill="#41479B"/>
<path d="M11.75 10.2C10.7835 10.2 10 10.9835 10 11.95C10 12.9165 10.7835 13.7 11.75 13.7C12.7165 13.7 13.5 12.9165 13.5 11.95C13.5 10.9835 12.7165 10.2 11.75 10.2ZM11.75 13.2698C11.0211 13.2698 10.4302 12.6789 10.4302 11.95C10.4302 11.2211 11.0211 10.6302 11.75 10.6302C12.4789 10.6302 13.0698 11.2211 13.0698 11.95C13.0698 12.6789 12.4789 13.2698 11.75 13.2698Z" fill="#FF4B55"/>
<path d="M11.75 12.5571C12.0852 12.5571 12.357 12.2853 12.357 11.95C12.357 11.6148 12.0852 11.343 11.75 11.343C11.4147 11.343 11.143 11.6148 11.143 11.95C11.143 12.2853 11.4147 12.5571 11.75 12.5571Z" fill="#41479B"/>
<path d="M11.7895 11.4902L11.8874 11.7836L12.1966 11.786C12.2367 11.7863 12.2533 11.8374 12.2211 11.8612L11.9723 12.0449L12.0656 12.3398C12.0776 12.378 12.0342 12.4095 12.0016 12.3862L11.75 12.2064L11.4984 12.3862C11.4658 12.4095 11.4224 12.3779 11.4345 12.3397L11.5277 12.0449L11.279 11.8612C11.2468 11.8374 11.2634 11.7863 11.3034 11.786L11.6127 11.7836L11.7105 11.4902C11.7231 11.4522 11.7769 11.4522 11.7895 11.4902Z" fill="#FFE15A"/>
<path d="M12.8982 11.9641C12.8982 11.9641 12.9329 11.8037 12.7623 11.9962C12.7623 11.9962 12.7647 11.9414 12.76 11.8962C12.7975 11.8556 12.844 11.7667 12.8331 11.577C12.8331 11.577 12.8064 11.415 12.7185 11.6568C12.7185 11.6568 12.6945 11.5855 12.669 11.546C12.6902 11.5021 12.7065 11.4221 12.6558 11.2705C12.6558 11.2705 12.5964 11.1409 12.5779 11.3636C12.5779 11.3636 12.5292 11.2907 12.4975 11.2728C12.5036 11.2368 12.4988 11.1752 12.4271 11.0753C12.4271 11.0753 12.3556 10.9952 12.3918 11.1596C12.3918 11.1596 12.3263 11.1065 12.3054 11.1128C12.2945 11.0814 12.263 11.0283 12.1575 10.9585C12.1575 10.9585 12.066 10.9084 12.171 11.0391C12.171 11.0391 12.0782 11.0023 12.0793 11.0234C12.0804 11.0444 12.1253 11.0833 12.1621 11.1007C12.1621 11.1007 12.0261 11.1149 12.0819 11.1451C12.0819 11.1451 12.2199 11.1927 12.3029 11.1469C12.3095 11.1711 12.323 11.1982 12.3431 11.2176C12.3431 11.2176 12.1812 11.1862 12.225 11.2348C12.225 11.2348 12.3465 11.324 12.4665 11.3104C12.4659 11.3434 12.4759 11.3861 12.4935 11.4181C12.4935 11.4181 12.3004 11.3149 12.337 11.3937C12.337 11.3937 12.4525 11.5481 12.6061 11.5817C12.5998 11.616 12.5999 11.6575 12.6082 11.6918C12.6082 11.6918 12.4249 11.5188 12.4417 11.6174C12.4417 11.6174 12.5183 11.8204 12.6736 11.9067C12.661 11.9325 12.6506 11.9614 12.6468 11.9882C12.6468 11.9882 12.54 11.7598 12.5194 11.8577C12.5194 11.8577 12.5159 12.0859 12.6377 12.2223C12.6117 12.2439 12.5863 12.2741 12.5707 12.3036C12.5707 12.3036 12.5473 12.0527 12.4948 12.1378C12.4948 12.1378 12.4223 12.328 12.4714 12.4918C12.4389 12.5014 12.4035 12.5191 12.3774 12.5403C12.3774 12.5403 12.4548 12.3005 12.373 12.358C12.373 12.358 12.2273 12.5156 12.2162 12.6929C12.1776 12.6921 12.1253 12.706 12.0874 12.7287C12.0874 12.7287 12.1982 12.5023 12.109 12.5476C12.109 12.5476 11.9501 12.6774 11.9091 12.8459C11.8715 12.8673 11.8076 12.9038 11.7439 12.9399C11.7068 12.9184 11.6707 12.8975 11.6399 12.8795L11.6409 12.8778L11.2797 12.575L11.2868 12.6741L11.1054 12.3497L11.083 12.4601L11.0236 12.1014L10.971 12.1544L10.9914 11.8198L10.9227 11.8568L11.0474 11.6079L10.9888 11.6245L11.1429 11.4767L11.0615 11.4837L11.2563 11.3952L11.1851 11.3843L11.3753 11.288L11.2934 11.284L11.5399 11.1987L11.4948 11.1592L11.7082 11.0962L11.4525 11.0767L11.5253 10.9871L11.3302 11.087L11.3582 10.952L11.1875 11.1277L11.2172 11.0047L11.0575 11.1636L11.0678 11.0437L10.9098 11.3111L10.8895 11.1914L10.7582 11.4917L10.7221 11.3609L10.6635 11.7333L10.6146 11.6779L10.6789 12.0372L10.5973 11.9761L10.7468 12.2987C10.7468 12.2987 10.6381 12.2512 10.6245 12.2512C10.6109 12.2512 10.8844 12.5288 10.8844 12.5288L10.7417 12.5136L11.0174 12.7074L10.9149 12.7327L11.1442 12.8218L11.0881 12.8651L11.5628 12.8991C11.5628 12.8991 11.6086 12.9372 11.6708 12.9813C11.638 12.9998 11.6091 13.016 11.5912 13.0258C11.5731 13.0356 11.552 13.0366 11.533 13.0287C11.4879 13.0098 11.4227 12.9831 11.3913 12.9705C11.3913 12.9705 11.3943 13.1055 11.5348 13.1088C11.5925 13.1102 11.6712 13.0735 11.7443 13.03C11.8192 13.0767 11.9018 13.1179 11.9616 13.1165C12.099 13.1131 12.102 12.9782 12.102 12.9782C12.0712 12.9908 12.0074 13.0174 11.9634 13.0363C11.9448 13.0442 11.9241 13.0433 11.9064 13.0334C11.887 13.0225 11.855 13.0042 11.8182 12.983C11.8557 12.9576 11.8872 12.9345 11.9093 12.9175C11.9438 12.9447 12.0428 12.9924 12.264 12.9094C12.264 12.9094 12.4107 12.8357 12.1537 12.8236C12.1537 12.8236 12.2014 12.7886 12.2336 12.7554C12.2757 12.7771 12.3799 12.8028 12.5779 12.6941C12.5779 12.6941 12.7126 12.6002 12.4566 12.6249C12.4566 12.6249 12.4908 12.5916 12.5176 12.5577C12.5618 12.5627 12.6709 12.5509 12.8155 12.3659C12.8155 12.3659 12.9024 12.2266 12.6768 12.3501C12.6768 12.3501 12.7059 12.2806 12.7128 12.234C12.7626 12.2101 12.8386 12.1446 12.8982 11.9641Z" fill="#64C86E"/>
</g>
<defs>
<filter id="filter0_d_112_179" x="-5" y="-1" width="34" height="26" filterUnits="userSpaceOnUse" color-interpolation-filters="sRGB">
<feFlood flood-opacity="0" result="BackgroundImageFix"/>
<feColorMatrix in="SourceAlpha" type="matrix" values="0 0 0 0 0 0 0 0 0 0 0 0 0 0 0 0 0 0 127 0" result="hardAlpha"/>
<feMorphology radius="1" operator="dilate" in="SourceAlpha" result="effect1_dropShadow_112_179"/>
<feOffset/>
<feGaussianBlur stdDeviation="3"/>
<feColorMatrix type="matrix" values="0 0 0 0 0 0 0 0 0 0 0 0 0 0 0 0 0 0 0.04 0"/>
<feBlend mode="normal" in2="BackgroundImageFix" result="effect1_dropShadow_112_179"/>
<feBlend mode="normal" in="SourceGraphic" in2="effect1_dropShadow_112_179" result="shape"/>
</filter>
<clipPath id="clip0_112_179">
<rect width="24" height="24" fill="white"/>
</clipPath>
</defs>
</svg>
